<?xml version="1.0" encoding="UTF-8"?>
<svg width="73px" height="73px" viewBox="0 0 73 73" version="1.1" xmlns="http://www.w3.org/2000/svg" xmlns:xlink="http://www.w3.org/1999/xlink">
    <!-- Generator: Sketch 51.3 (57544) - http://www.bohemiancoding.com/sketch -->
    <title>frameworks-and-libraries/svelte</title>
    <desc>Created with Sketch.</desc>
    <defs></defs>
    <g id="frameworks-and-libraries/svelte" stroke="none" stroke-width="1" fill="none" fill-rule="evenodd">
        <g id="container" transform="translate(2.000000, 2.000000)" fill="#FFFFFF" fill-rule="nonzero" stroke="#6A1A00" stroke-width="2">
            <rect id="mask" x="-1" y="-1" width="71" height="71" rx="14"></rect>
        </g>
        <g id="image-(2)" transform="translate(15.000000, 11.000000)" fill-rule="nonzero">
            <path d="M39.3801439,7.08441667 C34.709803,0.396659091 25.4800152,-1.58663636 18.805053,2.6657197 L7.08441667,10.1382652 C3.88147256,12.1494479 1.6760059,15.4189283 1.01084091,19.142 C0.451383381,22.2438569 0.942166531,25.443703 2.40554545,28.235303 C1.40123929,29.75918 0.717727036,31.4715886 0.396659091,33.2681818 C-0.278619639,37.06241 0.602261853,40.9687274 2.84059091,44.1059318 C7.53225758,50.7936894 16.7449848,52.7769848 23.419947,48.5246288 L35.1405833,41.0520833 C38.3427716,39.0401197 40.5479869,35.7710118 41.2141591,32.0483485 C41.7755716,28.9437408 41.2847383,25.7405654 39.8194545,22.9465152 C40.8237607,21.4226382 41.507273,19.7102296 41.8283409,17.9136364 C42.5043647,14.1187862 41.621762,10.2116549 39.3801439,7.07588636" id="Shape" fill="#FF3E00"></path>
            <path d="M17.6619924,44.7243788 C13.8867321,45.7058451 9.90010168,44.2276754 7.67727273,41.0222273 C6.32715779,39.1374631 5.79363232,36.788106 6.19726515,34.5050758 C6.26404355,34.1336855 6.35668058,33.7674129 6.4745,33.4089318 L6.69628788,32.7350379 L7.29767424,33.161553 C8.68397398,34.1813074 10.2347592,34.9559787 11.8827121,35.4519394 L12.3092273,35.5841591 L12.2665758,36.0106742 C12.2156049,36.6282898 12.3831658,37.2441895 12.7400076,37.7508561 C13.406866,38.7405701 14.6273915,39.199337 15.7810606,38.8939167 C16.0346849,38.8260877 16.2763614,38.719635 16.4976061,38.5782955 L28.1969167,31.1100152 C28.777114,30.7436632 29.1776555,30.1513567 29.3015909,29.4764621 C29.4281439,28.7917398 29.274478,28.0848766 28.8750758,27.5144924 C28.2047706,26.5476892 27.0026156,26.1015637 25.8638788,26.3970227 C25.6092338,26.4657533 25.3662831,26.572134 25.1430682,26.7126439 L20.6561288,29.5617652 C19.9212313,30.0303333 19.1184833,30.3827943 18.2761742,30.6067273 C14.49831,31.5908166 10.5078034,30.1124728 8.28292424,26.9045758 C6.9402658,25.0166581 6.41448831,22.6675704 6.82424242,20.3874242 C7.22738879,18.1495902 8.55217152,16.1840832 10.4752121,14.9706818 L22.1787879,7.50240152 C22.9136854,7.03383334 23.7164334,6.68137233 24.5587424,6.45743939 C28.3353376,5.47400762 32.3242745,6.95240099 34.5477273,10.1595909 C35.8978422,12.0443551 36.4313677,14.3937122 36.0277348,16.6767424 C35.9609565,17.0481327 35.8683194,17.4144053 35.7505,17.7728864 L35.5287121,18.4467803 L34.9273258,18.0202652 C33.541026,17.0005108 31.9902408,16.2258395 30.3422879,15.7298788 L29.9157727,15.5976591 L29.9584242,15.1711439 C30.0093951,14.5535284 29.8418342,13.9376286 29.4849924,13.4309621 C28.815491,12.4631238 27.6125984,12.0167245 26.4737955,12.3134924 C26.2201712,12.3813214 25.9784946,12.4877741 25.75725,12.6291136 L14.0280833,20.071803 C13.4476326,20.4370896 13.0481051,21.0301866 12.9276742,21.7053561 C12.796647,22.3901413 12.9506905,23.0987418 13.3541894,23.6673258 C14.0244946,24.634129 15.2266496,25.0802545 16.3653864,24.7847955 C16.6200313,24.7160649 16.862982,24.6096842 17.086197,24.4691742 L21.5560758,21.620053 C22.2909733,21.1514849 23.0937212,20.7990238 23.9360303,20.5750909 C27.7138946,19.5910015 31.7044012,21.0693454 33.9292803,24.2772424 C35.2764117,26.163269 35.8068376,28.5125179 35.4007576,30.7943939 C34.9976112,33.0322279 33.6728285,34.997735 31.7497879,36.2111364 L20.0462121,43.6794167 C19.3113146,44.1479848 18.5085666,44.5004459 17.6662576,44.7243788" id="Shape" fill="#FFFFFF"></path>
        </g>
    </g>
</svg>