<?xml version="1.0" encoding="UTF-8"?>
<svg width="73px" height="73px" viewBox="0 0 73 73" version="1.1" xmlns="http://www.w3.org/2000/svg" xmlns:xlink="http://www.w3.org/1999/xlink">
    <!-- Generator: Sketch 51.3 (57544) - http://www.bohemiancoding.com/sketch -->
    <title>design-and-ux/accessibility</title>
    <desc>Created with Sketch.</desc>
    <defs></defs>
    <g id="design-and-ux/accessibility" stroke="none" stroke-width="1" fill="none" fill-rule="evenodd">
        <g id="container" transform="translate(2.000000, 2.000000)" fill-rule="nonzero">
            <rect id="mask" stroke="#530C04" stroke-width="2" fill="#FFFFFF" x="-1" y="-1" width="71" height="71" rx="14"></rect>
            <g id="open" transform="translate(10.000000, 12.000000)">
                <path d="M6.75862069,19.0086207 C6.54234483,19.0086207 6.32606897,18.9258276 6.16132759,18.7610862 C5.831,18.4307586 5.831,17.8968276 6.16132759,17.5665 L20.5233966,3.20443103 C20.8537241,2.87410345 21.3876552,2.87410345 21.7179828,3.20443103 C22.0483103,3.53475862 22.0483103,4.06868966 21.7179828,4.39901724 L7.35591379,18.7610862 C7.19117241,18.9258276 6.97489655,19.0086207 6.75862069,19.0086207 Z" id="Shape" fill="#556080"></path>
                <path d="M42.2413793,19.0086207 C42.0251034,19.0086207 41.8088276,18.9258276 41.6440862,18.7610862 L27.2820172,4.39901724 C26.9516897,4.06868966 26.9516897,3.53475862 27.2820172,3.20443103 C27.6123448,2.87410345 28.1462759,2.87410345 28.4766034,3.20443103 L42.8386724,17.5665 C43.169,17.8968276 43.169,18.4307586 42.8386724,18.7610862 C42.673931,18.9258276 42.4576552,19.0086207 42.2413793,19.0086207 Z" id="Shape" fill="#556080"></path>
                <circle id="Oval" fill="#F9EAB0" cx="24.5" cy="3.80172414" r="3.37931034"></circle>
                <rect id="Rectangle-path" fill="#E64C3C" x="0" y="18.1637931" width="49" height="27.0344828"></rect>
                <path d="M9.29310345,40.9741379 C6.96391379,40.9741379 5.06896552,39.0791897 5.06896552,36.75 L5.06896552,26.612069 C5.06896552,24.2828793 6.96391379,22.387931 9.29310345,22.387931 C11.6222931,22.387931 13.5172414,24.2828793 13.5172414,26.612069 L13.5172414,36.75 C13.5172414,39.0791897 11.6222931,40.9741379 9.29310345,40.9741379 Z M9.29310345,24.0775862 C7.89575862,24.0775862 6.75862069,25.2147241 6.75862069,26.612069 L6.75862069,36.75 C6.75862069,38.1473448 7.89575862,39.2844828 9.29310345,39.2844828 C10.6904483,39.2844828 11.8275862,38.1473448 11.8275862,36.75 L11.8275862,26.612069 C11.8275862,25.2147241 10.6904483,24.0775862 9.29310345,24.0775862 Z" id="Shape" fill="#FFFFFF"></path>
                <path d="M19.4310345,35.0603448 C17.1018448,35.0603448 15.2068966,33.1653966 15.2068966,30.8362069 L15.2068966,26.612069 C15.2068966,24.2828793 17.1018448,22.387931 19.4310345,22.387931 C21.7602241,22.387931 23.6551724,24.2828793 23.6551724,26.612069 L23.6551724,30.8362069 C23.6551724,33.1653966 21.7602241,35.0603448 19.4310345,35.0603448 Z M19.4310345,24.0775862 C18.0336897,24.0775862 16.8965517,25.2147241 16.8965517,26.612069 L16.8965517,30.8362069 C16.8965517,32.2335517 18.0336897,33.3706897 19.4310345,33.3706897 C20.8283793,33.3706897 21.9655172,32.2335517 21.9655172,30.8362069 L21.9655172,26.612069 C21.9655172,25.2147241 20.8283793,24.0775862 19.4310345,24.0775862 Z" id="Shape" fill="#FFFFFF"></path>
                <path d="M26.1896552,40.9741379 C25.7233103,40.9741379 25.3448276,40.5965 25.3448276,40.1293103 L25.3448276,23.2327586 C25.3448276,22.765569 25.7233103,22.387931 26.1896552,22.387931 C26.656,22.387931 27.0344828,22.765569 27.0344828,23.2327586 L27.0344828,40.1293103 C27.0344828,40.5965 26.656,40.9741379 26.1896552,40.9741379 Z" id="Shape" fill="#FFFFFF"></path>
                <path d="M43.0862069,40.9741379 C42.6198621,40.9741379 42.2413793,40.5965 42.2413793,40.1293103 L42.2413793,23.2327586 C42.2413793,22.765569 42.6198621,22.387931 43.0862069,22.387931 C43.5525517,22.387931 43.9310345,22.765569 43.9310345,23.2327586 L43.9310345,40.1293103 C43.9310345,40.5965 43.5525517,40.9741379 43.0862069,40.9741379 Z" id="Shape" fill="#FFFFFF"></path>
                <path d="M36.3275862,40.9741379 C35.8612414,40.9741379 35.4827586,40.5965 35.4827586,40.1293103 L35.4827586,23.2327586 C35.4827586,22.765569 35.8612414,22.387931 36.3275862,22.387931 C36.793931,22.387931 37.1724138,22.765569 37.1724138,23.2327586 L37.1724138,40.1293103 C37.1724138,40.5965 36.793931,40.9741379 36.3275862,40.9741379 Z" id="Shape" fill="#FFFFFF"></path>
                <path d="M16.0517241,40.9741379 C15.5853793,40.9741379 15.2068966,40.5965 15.2068966,40.1293103 L15.2068966,30.8362069 C15.2068966,30.3690172 15.5853793,29.9913793 16.0517241,29.9913793 C16.518069,29.9913793 16.8965517,30.3690172 16.8965517,30.8362069 L16.8965517,40.1293103 C16.8965517,40.5965 16.518069,40.9741379 16.0517241,40.9741379 Z" id="Shape" fill="#FFFFFF"></path>
                <path d="M32.9482759,32.5258621 L26.1896552,32.5258621 C25.7233103,32.5258621 25.3448276,32.1482241 25.3448276,31.6810345 C25.3448276,31.2138448 25.7233103,30.8362069 26.1896552,30.8362069 L32.9482759,30.8362069 C33.4146207,30.8362069 33.7931034,31.2138448 33.7931034,31.6810345 C33.7931034,32.1482241 33.4146207,32.5258621 32.9482759,32.5258621 Z" id="Shape" fill="#FFFFFF"></path>
                <path d="M32.9482759,24.0775862 L26.1896552,24.0775862 C25.7233103,24.0775862 25.3448276,23.6999483 25.3448276,23.2327586 C25.3448276,22.765569 25.7233103,22.387931 26.1896552,22.387931 L32.9482759,22.387931 C33.4146207,22.387931 33.7931034,22.765569 33.7931034,23.2327586 C33.7931034,23.6999483 33.4146207,24.0775862 32.9482759,24.0775862 Z" id="Shape" fill="#FFFFFF"></path>
                <path d="M32.9482759,40.9741379 L26.1896552,40.9741379 C25.7233103,40.9741379 25.3448276,40.5965 25.3448276,40.1293103 C25.3448276,39.6621207 25.7233103,39.2844828 26.1896552,39.2844828 L32.9482759,39.2844828 C33.4146207,39.2844828 33.7931034,39.6621207 33.7931034,40.1293103 C33.7931034,40.5965 33.4146207,40.9741379 32.9482759,40.9741379 Z" id="Shape" fill="#FFFFFF"></path>
                <path d="M43.0862069,40.9741379 C42.7508103,40.9741379 42.434,40.7739138 42.3013621,40.4427414 L35.5427414,23.5461897 C35.3695517,23.1127931 35.5799138,22.6211034 36.0133103,22.4479138 C36.4483966,22.2747241 36.9383966,22.4850862 37.1115862,22.9193276 L43.8702069,39.8158793 C44.0433966,40.2492759 43.8330345,40.7409655 43.3996379,40.9141552 C43.2974138,40.9555517 43.1909655,40.9741379 43.0862069,40.9741379 Z" id="Shape" fill="#FFFFFF"></path>
            </g>
        </g>
    </g>
</svg>