<?xml version="1.0" encoding="UTF-8"?>
<svg width="73px" height="73px" viewBox="0 0 73 73" version="1.1" xmlns="http://www.w3.org/2000/svg" xmlns:xlink="http://www.w3.org/1999/xlink">
    <!-- Generator: Sketch 51.3 (57544) - http://www.bohemiancoding.com/sketch -->
    <title>design-and-ux/color-theory</title>
    <desc>Created with Sketch.</desc>
    <defs></defs>
    <g id="design-and-ux/color-theory" stroke="none" stroke-width="1" fill="none" fill-rule="evenodd">
        <g id="container" transform="translate(2.000000, 2.000000)" fill="#FFFFFF" fill-rule="nonzero" stroke="#10422F" stroke-width="2">
            <rect id="mask" x="-1" y="-1" width="71" height="71" rx="14"></rect>
        </g>
        <g id="rgb" transform="translate(11.000000, 11.000000)" fill-rule="nonzero">
            <path d="M41.1835937,15.234375 C41.1835937,23.6200256 34.3856506,30.4179687 26,30.4179687 C17.6143494,30.4179687 10.8164062,23.6200256 10.8164062,15.234375 C10.8164062,6.84872439 17.6143494,0.05078125 26,0.05078125 C34.3856506,0.05078125 41.1835937,6.84872439 41.1835937,15.234375 Z" id="Shape" fill="#42C0E2"></path>
            <path d="M52,34.8280029 C52,43.2136535 45.2020569,50.0115967 36.8164062,50.0115967 C28.4307556,50.0115967 21.6328125,43.2136535 21.6328125,34.8280029 C21.6328125,26.4423523 28.4307556,19.6444092 36.8164062,19.6444092 C45.2020569,19.6444092 52,26.4423523 52,34.8280029 Z" id="Shape" fill="#FFD061"></path>
            <path d="M22.4195252,29.9922791 C23.5676574,30.2695922 24.7665711,30.4179687 26,30.4179687 C32.6947937,30.4179687 38.377533,26.0849 40.3968811,20.0700989 C39.2487488,19.7923889 38.0498352,19.6444092 36.8164062,19.6444092 C30.1216125,19.6444092 24.4388733,23.9774781 22.4195252,29.9922791 Z" id="Shape" fill="#49BD90"></path>
            <path d="M30.3671875,34.8280029 C30.3671875,43.2136535 23.5692444,50.0115967 15.1835937,50.0115967 C6.79794314,50.0115967 0,43.2136535 0,34.8280029 C0,26.4423523 6.79794314,19.6444092 15.1835937,19.6444092 C23.5692444,19.6444092 30.3671875,26.4423523 30.3671875,34.8280029 Z" id="Shape" fill="#FA70B2"></path>
            <path d="M11.6031189,20.0700989 C13.622467,26.0849 19.3052063,30.4179687 26,30.4179687 C27.2334289,30.4179687 28.4323426,30.2695922 29.5804748,29.9922791 C27.5611267,23.9774781 21.8783875,19.6444092 15.1835937,19.6444092 C13.9501648,19.6444092 12.7512512,19.7923889 11.6031189,20.0700989 Z" id="Shape" fill="#AF7BC6"></path>
            <path d="M21.6328125,34.8280029 C21.6328125,38.9797668 23.2998657,42.7415467 26,45.4825439 C28.7001343,42.7415467 30.3671875,38.9797668 30.3671875,34.8280029 C30.3671875,30.676239 28.7001343,26.9144592 26,24.1734619 C23.2998657,26.9144592 21.6328125,30.676239 21.6328125,34.8280029 Z" id="Shape" fill="#EF6122"></path>
            <path d="M29.5804748,29.9934692 C28.4323426,30.2703857 27.2330322,30.4179687 26,30.4179687 C24.7669678,30.4179687 23.5676574,30.2703857 22.4195252,29.9934692 C23.162201,27.7817078 24.3995972,25.7984619 26,24.1734619 C27.6004028,25.7984619 28.837799,27.7817078 29.5804748,29.9934692 Z" id="Shape" fill="#FFFFFF"></path>
        </g>
    </g>
</svg>