<?xml version="1.0" encoding="UTF-8"?>
<svg width="73px" height="73px" viewBox="0 0 73 73" version="1.1" xmlns="http://www.w3.org/2000/svg" xmlns:xlink="http://www.w3.org/1999/xlink">
    <!-- Generator: Sketch 51.3 (57544) - http://www.bohemiancoding.com/sketch -->
    <title>design-and-ux/contrast</title>
    <desc>Created with Sketch.</desc>
    <defs></defs>
    <g id="design-and-ux/contrast" stroke="none" stroke-width="1" fill="none" fill-rule="evenodd">
        <g id="container" transform="translate(2.000000, 2.000000)" fill="#FFFFFF" fill-rule="nonzero" stroke="#050A43" stroke-width="2">
            <rect id="mask" x="-1" y="-1" width="71" height="71" rx="14"></rect>
        </g>
        <g id="contrast-(1)" transform="translate(12.000000, 12.000000)" fill-rule="nonzero">
            <path d="M44.4587602,44.4586647 L44.4587602,7.58965107 L7.58965107,44.4586647 L44.4587602,44.4586647 Z M28.8982515,31.1210175 L31.1212086,31.1210175 L31.1212086,28.8980604 C31.1212086,27.670386 32.1164912,26.6751033 33.3441657,26.6751033 C34.5718402,26.6751033 35.5671228,27.670386 35.5671228,28.8980604 L35.5671228,31.1210175 L37.7900799,31.1210175 C39.0177544,31.1210175 40.013037,32.1163002 40.013037,33.3439747 C40.013037,34.5716491 39.0177544,35.5669318 37.7900799,35.5669318 L35.5671228,35.5669318 L35.5671228,37.7898889 C35.5671228,39.0175634 34.5718402,40.012846 33.3441657,40.012846 C32.1164912,40.012846 31.1212086,39.0175634 31.1212086,37.7898889 L31.1212086,35.5669318 L28.8982515,35.5669318 C27.670577,35.5669318 26.6752943,34.5716491 26.6752943,33.3439747 C26.6752943,32.1163002 27.670577,31.1210175 28.8982515,31.1210175 Z" id="Shape" fill="#FFFFFF"></path>
            <path d="M11.1147856,17.7834659 L20.0065185,17.7834659 C21.234193,17.7834659 22.2294756,16.7881832 22.2294756,15.5605088 C22.2294756,14.3328343 21.234193,13.3375517 20.0065185,13.3375517 L11.1147856,13.3375517 C9.88711111,13.3375517 8.89182846,14.3328343 8.89182846,15.5605088 C8.89182846,16.7881832 9.88711111,17.7834659 11.1147856,17.7834659 Z" id="SVGCleanerId_0" fill="#FFFFFF"></path>
            <g id="Group" fill="#3D6DEB">
                <path d="M48.9037193,2.20022417 C48.9034327,2.16956335 48.901809,2.13918908 48.9002807,2.10862378 C48.8991345,2.08417154 48.8980838,2.0597193 48.8959825,2.03526706 C48.8935945,2.00565692 48.8897739,1.97623782 48.8862398,1.94691423 C48.8829922,1.92160234 48.8801267,1.89619493 48.8762105,1.87107407 C48.8719123,1.84318324 48.8661813,1.81596101 48.8606413,1.78835673 C48.8554834,1.76180312 48.8504211,1.73534503 48.8442125,1.70888694 C48.8380994,1.68309747 48.8307446,1.65778558 48.8235809,1.63228265 C48.8160351,1.60458285 48.8084893,1.57688304 48.7998928,1.54946979 C48.7921559,1.52549513 48.7834639,1.5017115 48.774963,1.47792788 C48.7650292,1.44994152 48.755,1.42195517 48.7440156,1.39435088 C48.7408635,1.38690058 48.7388577,1.37954581 48.7357057,1.37238207 C48.728924,1.35576218 48.720614,1.34009747 48.7134503,1.32376413 C48.7017018,1.29711501 48.6898577,1.2705614 48.677154,1.2445809 C48.6653099,1.2204152 48.6525107,1.1967271 48.639807,1.17303899 C48.6269123,1.14906433 48.6140175,1.12518519 48.6003587,1.10159259 C48.5860312,1.07733138 48.5710351,1.05345224 48.5557524,1.0295731 C48.541807,1.00779532 48.5278616,0.98611306 48.5135341,0.964812865 C48.4972008,0.941124756 48.4801988,0.918009747 48.4630058,0.894894737 C48.4477232,0.874454191 48.4324405,0.854300195 48.4165848,0.834432749 C48.3988187,0.812177388 48.3802885,0.79039961 48.3614717,0.768908382 C48.3447563,0.749327485 48.3275634,0.729937622 48.3101793,0.711120858 C48.2911715,0.690680312 48.2716862,0.670812865 48.2519142,0.651231969 C48.2330975,0.632415205 48.2140897,0.613693957 48.1946043,0.595641326 C48.1749279,0.577302144 48.1545828,0.559440546 48.1341423,0.541865497 C48.1135107,0.524099415 48.0927836,0.50642885 48.0715789,0.489426901 C48.0505653,0.472807018 48.0291696,0.456569201 48.0075828,0.440522417 C47.9858051,0.424380117 47.9638363,0.408046784 47.9412943,0.392764133 C47.9187524,0.377194932 47.8955419,0.36219883 47.8722359,0.347393762 C47.8499805,0.333352827 47.8274386,0.319120858 47.8048012,0.305939571 C47.7795848,0.291134503 47.7536998,0.277189084 47.7279103,0.263434698 C47.7062281,0.251877193 47.6844503,0.240128655 47.662386,0.229239766 C47.6338265,0.21519883 47.6044074,0.20211306 47.5750838,0.189409357 C47.5605653,0.183009747 47.5469064,0.175750487 47.5322924,0.169732943 C47.5258928,0.16705848 47.5193977,0.165148148 47.5129981,0.162473684 C47.4824327,0.150152047 47.4517719,0.139358674 47.4209201,0.128374269 C47.3996199,0.12082846 47.3785107,0.112996101 47.356924,0.106309942 C47.3270273,0.096662768 47.2969396,0.0885438596 47.2669474,0.0803294347 C47.2438324,0.0739298246 47.2208129,0.0672436647 47.1973158,0.0617037037 C47.1687563,0.0549220273 47.1400058,0.0493820663 47.1110643,0.0437465887 C47.085848,0.0388752437 47.0607271,0.0335263158 47.0352242,0.0294191033 C47.0078109,0.0249298246 46.9803977,0.0218732943 46.9529844,0.0184346979 C46.9257622,0.0149961014 46.8986355,0.0116530214 46.8708402,0.00907407407 C46.8442865,0.00687719298 46.818115,0.00563547758 46.7915614,0.00448927875 C46.7630975,0.00315204678 46.7346335,0.00152826511 46.7060741,0.00133723197 C46.6978596,0.000859649123 46.6900273,0 46.6817173,0 L2.22305263,0 C0.995473684,0 0.000191033138,0.995282651 0.000191033138,2.22295712 L0.000191033138,46.6816218 C0.000191033138,46.6893587 0.00105068226,46.6967135 0.00105068226,46.7042593 C0.00133723197,46.7349201 0.00296101365,46.7651988 0.00448927875,46.7955731 C0.00563547758,46.8202164 0.00668615984,46.8447641 0.00878752437,46.8694074 C0.0111754386,46.898731 0.0149005848,46.9279591 0.0185302144,46.9569961 C0.0217777778,46.9825945 0.0246432749,47.0080975 0.0286549708,47.0337914 C0.0329532164,47.0610136 0.038588694,47.0881404 0.0440331384,47.1154581 C0.0494775828,47.1422982 0.0544444444,47.1691384 0.060748538,47.195883 C0.0668615984,47.2211949 0.0741208577,47.2461248 0.0810935673,47.2711501 C0.0888304094,47.2993275 0.0964717349,47.3275049 0.105259259,47.3553002 C0.112805068,47.3788928 0.121306043,47.4020078 0.129520468,47.4254094 C0.139740741,47.4539688 0.149961014,47.4826238 0.161231969,47.5108967 C0.164001949,47.5179649 0.166294347,47.5252242 0.169255361,47.5323879 C0.176037037,47.5485302 0.184060429,47.5639084 0.191224172,47.5797641 C0.203068226,47.6069864 0.21519883,47.6340175 0.2282846,47.6605712 C0.239842105,47.6842593 0.252259259,47.7073743 0.26477193,47.7307758 C0.277953216,47.7552281 0.291134503,47.7798713 0.305079922,47.803655 C0.319025341,47.8273431 0.333639376,47.8507446 0.348539961,47.8742417 C0.362867446,47.8964971 0.377003899,47.918848 0.392,47.9405302 C0.40785575,47.9636452 0.42457115,47.9864737 0.441382066,48.0088246 C0.456951267,48.0298382 0.472615984,48.0506608 0.488758285,48.0709103 C0.506237817,48.0926881 0.524290448,48.1138928 0.542534113,48.1350975 C0.559918129,48.1550604 0.577206628,48.1751189 0.595163743,48.1944133 C0.613693957,48.2140897 0.632510721,48.233384 0.651614035,48.2526784 C0.671194932,48.2720682 0.690775828,48.2913626 0.710643275,48.3099883 C0.729746589,48.3276589 0.749423002,48.3448519 0.769290448,48.3620448 C0.790590643,48.380575 0.811986355,48.3988187 0.834050682,48.4163938 C0.854204678,48.4324405 0.874836257,48.4479142 0.89537232,48.4631969 C0.91820078,48.4801988 0.941124756,48.4970097 0.964621832,48.513152 C0.985922027,48.5279571 1.00808187,48.5419025 1.0301462,48.5561345 C1.05373879,48.5709396 1.07714035,48.5859357 1.10130604,48.5999766 C1.12499415,48.613922 1.14915984,48.6269123 1.17361209,48.6400936 C1.19691813,48.6525107 1.22031969,48.6650234 1.24419883,48.6766764 C1.27075244,48.6897622 1.29787914,48.7018928 1.32510136,48.7138324 C1.34114815,48.7208051 1.35623977,48.728924 1.37238207,48.7355146 C1.37820858,48.7379025 1.38393957,48.7393353 1.38976608,48.7417232 C1.45175634,48.7667485 1.51422417,48.7894815 1.57755166,48.8086803 C1.58433333,48.8107817 1.59149708,48.8124055 1.59846979,48.8143158 C1.65482456,48.8307446 1.71137037,48.8445945 1.76829825,48.8565341 C1.78826121,48.8606413 1.8084152,48.864271 1.82847368,48.8679006 C1.87489474,48.8762105 1.92141131,48.8829922 1.96792788,48.8883411 C1.98808187,48.890729 2.00823587,48.8934035 2.02838986,48.8951228 C2.09038012,48.9005673 2.15246589,48.9040058 2.21436062,48.9041969 C2.2171306,48.9041969 2.21970955,48.9044834 2.22247953,48.9044834 C2.22295712,48.9044834 2.22353021,48.9044834 2.2240078,48.9044834 L46.6820039,48.9044834 C47.9096784,48.9044834 48.904961,47.9092008 48.904961,46.6815263 L48.904961,2.22295712 C48.9046745,2.21522027 48.9037193,2.20776998 48.9037193,2.20022417 Z M11.1147856,13.3375517 L20.0065185,13.3375517 C21.234193,13.3375517 22.2294756,14.3328343 22.2294756,15.5605088 C22.2294756,16.7881832 21.234193,17.7834659 20.0065185,17.7834659 L11.1147856,17.7834659 C9.88711111,17.7834659 8.89182846,16.7881832 8.89182846,15.5605088 C8.89182846,14.3328343 9.88711111,13.3375517 11.1147856,13.3375517 Z M44.4587602,44.4586647 L7.58965107,44.4586647 L44.4587602,7.58965107 L44.4587602,44.4586647 Z" id="Shape"></path>
                <path d="M28.8982515,35.5669318 L31.1212086,35.5669318 L31.1212086,37.7898889 C31.1212086,39.0175634 32.1164912,40.012846 33.3441657,40.012846 C34.5718402,40.012846 35.5671228,39.0175634 35.5671228,37.7898889 L35.5671228,35.5669318 L37.7900799,35.5669318 C39.0177544,35.5669318 40.013037,34.5716491 40.013037,33.3439747 C40.013037,32.1163002 39.0177544,31.1210175 37.7900799,31.1210175 L35.5671228,31.1210175 L35.5671228,28.8980604 C35.5671228,27.670386 34.5718402,26.6751033 33.3441657,26.6751033 C32.1164912,26.6751033 31.1212086,27.670386 31.1212086,28.8980604 L31.1212086,31.1210175 L28.8982515,31.1210175 C27.670577,31.1210175 26.6752943,32.1163002 26.6752943,33.3439747 C26.6752943,34.5716491 27.670577,35.5669318 28.8982515,35.5669318 Z" id="Shape"></path>
            </g>
            <path d="M48.9037193,2.20022417 C48.9034327,2.16956335 48.901809,2.13918908 48.9002807,2.10862378 C48.8991345,2.08417154 48.8980838,2.0597193 48.8959825,2.03526706 C48.8935945,2.00565692 48.8897739,1.97642885 48.8862398,1.94691423 C48.8830877,1.92160234 48.8801267,1.89619493 48.8762105,1.87107407 C48.8719123,1.84318324 48.8661813,1.81596101 48.8606413,1.78835673 C48.8554834,1.76180312 48.8504211,1.73534503 48.8442125,1.70888694 C48.8380994,1.68309747 48.8307446,1.65778558 48.8235809,1.63228265 C48.8160351,1.60458285 48.8084893,1.57688304 48.7998928,1.54927875 C48.7921559,1.52530409 48.7834639,1.50152047 48.774963,1.47773684 C48.7650292,1.449846 48.755,1.42176413 48.7440156,1.39415984 C48.7408635,1.38670955 48.7388577,1.37935478 48.7357057,1.37219103 C48.728924,1.35557115 48.720614,1.33990643 48.7134503,1.3235731 C48.7017018,1.29692398 48.6898577,1.27037037 48.677154,1.24438986 C48.6653099,1.22022417 48.6525107,1.19653606 48.639807,1.17284795 C48.6269123,1.14887329 48.6140175,1.12499415 48.6003587,1.10159259 C48.5860312,1.07733138 48.5710351,1.05345224 48.5557524,1.0295731 C48.541807,1.00789084 48.5278616,0.98611306 48.5135341,0.964812865 C48.4972008,0.941124756 48.4801988,0.918009747 48.4630058,0.894894737 C48.4477232,0.874454191 48.4324405,0.854300195 48.4165848,0.834432749 C48.3988187,0.812177388 48.3802885,0.79039961 48.3614717,0.768908382 C48.3447563,0.749327485 48.3275634,0.729937622 48.3101793,0.711120858 C48.2911715,0.690680312 48.2716862,0.671003899 48.2519142,0.651231969 C48.2330975,0.632415205 48.2140897,0.613693957 48.1946043,0.595641326 C48.1749279,0.577302144 48.1545828,0.559440546 48.1341423,0.541865497 C48.1135107,0.524099415 48.0927836,0.50642885 48.0715789,0.489426901 C48.0505653,0.472807018 48.0291696,0.456569201 48.0075828,0.440522417 C47.9858051,0.424380117 47.9638363,0.408046784 47.9412943,0.392764133 C47.9187524,0.377194932 47.8955419,0.36219883 47.8722359,0.347393762 C47.8499805,0.333352827 47.8274386,0.319216374 47.8048012,0.305939571 C47.7795848,0.291134503 47.7536998,0.277189084 47.7279103,0.263434698 C47.7062281,0.251877193 47.6844503,0.240128655 47.662386,0.229335283 C47.6338265,0.215294347 47.6044074,0.202208577 47.5750838,0.18931384 C47.5605653,0.18291423 47.5469064,0.175654971 47.5322924,0.169637427 C47.5258928,0.166962963 47.5193977,0.165052632 47.5129981,0.162378168 C47.4824327,0.15005653 47.4517719,0.139263158 47.4209201,0.128278752 C47.3996199,0.120732943 47.3785107,0.112900585 47.356924,0.106214425 C47.3270273,0.0967582846 47.2969396,0.0884483431 47.2669474,0.0802339181 C47.2438324,0.073834308 47.2207173,0.0671481481 47.1973158,0.0616081871 C47.1687563,0.0548265107 47.1400058,0.0492865497 47.1110643,0.0436510721 C47.085848,0.0387797271 47.0607271,0.0334307992 47.0352242,0.0293235867 C47.0076199,0.024834308 46.9803977,0.0217777778 46.9529844,0.0183391813 C46.9257622,0.0150916179 46.8986355,0.0115575049 46.8708402,0.0089785575 C46.8442865,0.00678167641 46.818115,0.00573099415 46.7915614,0.00439376218 C46.7630975,0.00305653021 46.7346335,0.00143274854 46.7060741,0.0012417154 C46.6978596,0.000859649123 46.6900273,0 46.6817173,0 L24.4524327,0 L2.22305263,0 C0.995473684,0 0.000191033138,0.995282651 0.000191033138,2.22295712 L0.000191033138,46.6816218 C0.000191033138,46.6893587 0.00105068226,46.6967135 0.00105068226,46.7042593 C0.00133723197,46.7349201 0.00296101365,46.7651988 0.00448927875,46.7955731 C0.00563547758,46.8202164 0.00668615984,46.8447641 0.00878752437,46.8694074 C0.0111754386,46.898731 0.0149005848,46.9279591 0.0185302144,46.9569961 C0.0216822612,46.9825945 0.0246432749,47.0080975 0.0286549708,47.0337914 C0.0329532164,47.0612047 0.038588694,47.0881404 0.0440331384,47.1154581 C0.0494775828,47.1422982 0.0544444444,47.1691384 0.060748538,47.195883 C0.0668615984,47.2211949 0.0741208577,47.2461248 0.0810935673,47.2711501 C0.0888304094,47.2993275 0.0964717349,47.3275049 0.105259259,47.3553002 C0.112805068,47.3788928 0.121306043,47.4020078 0.129520468,47.4254094 C0.139740741,47.4539688 0.149961014,47.4826238 0.161231969,47.5108967 C0.164192982,47.5179649 0.166294347,47.5252242 0.169255361,47.5323879 C0.176037037,47.5485302 0.184060429,47.5639084 0.191033138,47.5797641 C0.202877193,47.6069864 0.215007797,47.6340175 0.228093567,47.6605712 C0.239651072,47.6842593 0.252068226,47.7073743 0.264580897,47.7307758 C0.277762183,47.7552281 0.29094347,47.7798713 0.304888889,47.803655 C0.318834308,47.8273431 0.333448343,47.8507446 0.348348928,47.8742417 C0.362676413,47.8964971 0.376812865,47.918848 0.391808967,47.9405302 C0.407664717,47.9636452 0.424380117,47.9864737 0.441191033,48.0088246 C0.456760234,48.0298382 0.472424951,48.0506608 0.488567251,48.0709103 C0.506046784,48.0925926 0.524099415,48.1138928 0.54234308,48.1350975 C0.559727096,48.1550604 0.577015595,48.1751189 0.59497271,48.1944133 C0.613502924,48.2140897 0.632319688,48.233384 0.651423002,48.2526784 C0.671003899,48.2720682 0.690584795,48.2913626 0.710452242,48.3099883 C0.729555556,48.3276589 0.749231969,48.3448519 0.769099415,48.3620448 C0.79039961,48.380575 0.811795322,48.3988187 0.833859649,48.4163938 C0.854013645,48.4324405 0.874645224,48.4479142 0.895181287,48.4631969 C0.918009747,48.4801988 0.940933723,48.4971053 0.964430799,48.513152 C0.985922027,48.5279571 1.00789084,48.5419025 1.02995517,48.5561345 C1.05354776,48.5711306 1.07694932,48.5859357 1.10111501,48.5999766 C1.12480312,48.613922 1.14896881,48.6269123 1.17342105,48.6400936 C1.1967271,48.6525107 1.21993762,48.6650234 1.2440078,48.6766764 C1.2705614,48.6897622 1.29768811,48.7018928 1.32491033,48.7138324 C1.34076608,48.7208051 1.35604873,48.728924 1.37219103,48.7355146 C1.37801754,48.7379025 1.38374854,48.7393353 1.38957505,48.7417232 C1.4515653,48.7667485 1.51403314,48.7894815 1.57745614,48.8086803 C1.58423782,48.8107817 1.59140156,48.8122144 1.59837427,48.8143158 C1.65472904,48.8307446 1.71127485,48.8445945 1.76820273,48.8565341 C1.78816569,48.8606413 1.80831969,48.864271 1.82837817,48.8679006 C1.87479922,48.8762105 1.92131579,48.8829922 1.96783236,48.8883411 C1.98798635,48.890729 2.00794932,48.8934035 2.02829435,48.8951228 C2.0902846,48.9005673 2.15237037,48.9040058 2.21426511,48.9042924 C2.21703509,48.9042924 2.21961404,48.9045789 2.22238402,48.9045789 C2.2228616,48.9045789 2.2234347,48.9045789 2.22391228,48.9045789 L24.4526238,48.9045789 L46.6819084,48.9045789 C47.9095828,48.9045789 48.9048655,47.9092963 48.9048655,46.6816218 L48.9048655,2.22295712 C48.9046745,2.21522027 48.9037193,2.20776998 48.9037193,2.20022417 Z M11.1147856,13.3375517 L20.0065185,13.3375517 C21.234193,13.3375517 22.2294756,14.3328343 22.2294756,15.5605088 C22.2294756,16.7881832 21.234193,17.7834659 20.0065185,17.7834659 L11.1147856,17.7834659 C9.88711111,17.7834659 8.89182846,16.7881832 8.89182846,15.5605088 C8.89182846,14.3328343 9.88711111,13.3375517 11.1147856,13.3375517 Z M44.4587602,44.4586647 L24.4524327,44.4586647 L7.58965107,44.4586647 L24.4523372,27.5959786 L44.4587602,7.58955556 L44.4587602,44.4586647 Z" id="Shape" fill="#6E76E5"></path>
            <path d="M44.4587602,44.4586647 L44.4587602,7.58965107 L24.4524327,27.5960741 L24.4524327,44.4586647 L44.4587602,44.4586647 Z M28.8982515,31.1210175 L31.1212086,31.1210175 L31.1212086,28.8980604 C31.1212086,27.670386 32.1164912,26.6751033 33.3441657,26.6751033 C34.5718402,26.6751033 35.5671228,27.670386 35.5671228,28.8980604 L35.5671228,31.1210175 L37.7900799,31.1210175 C39.0177544,31.1210175 40.013037,32.1163002 40.013037,33.3439747 C40.013037,34.5716491 39.0177544,35.5669318 37.7900799,35.5669318 L35.5671228,35.5669318 L35.5671228,37.7898889 C35.5671228,39.0175634 34.5718402,40.012846 33.3441657,40.012846 C32.1164912,40.012846 31.1212086,39.0175634 31.1212086,37.7898889 L31.1212086,35.5669318 L28.8982515,35.5669318 C27.670577,35.5669318 26.6752943,34.5716491 26.6752943,33.3439747 C26.6752943,32.1163002 27.670577,31.1210175 28.8982515,31.1210175 Z" id="Shape" fill="#FFFFFF"></path>
            <path d="M28.8982515,35.5669318 L31.1212086,35.5669318 L31.1212086,37.7898889 C31.1212086,39.0175634 32.1164912,40.012846 33.3441657,40.012846 C34.5718402,40.012846 35.5671228,39.0175634 35.5671228,37.7898889 L35.5671228,35.5669318 L37.7900799,35.5669318 C39.0177544,35.5669318 40.013037,34.5716491 40.013037,33.3439747 C40.013037,32.1163002 39.0177544,31.1210175 37.7900799,31.1210175 L35.5671228,31.1210175 L35.5671228,28.8980604 C35.5671228,27.670386 34.5718402,26.6751033 33.3441657,26.6751033 C32.1164912,26.6751033 31.1212086,27.670386 31.1212086,28.8980604 L31.1212086,31.1210175 L28.8982515,31.1210175 C27.670577,31.1210175 26.6752943,32.1163002 26.6752943,33.3439747 C26.6752943,34.5716491 27.670577,35.5669318 28.8982515,35.5669318 Z" id="Shape" fill="#6E76E5"></path>
            <path d="M11.1147856,17.7834659 L20.0065185,17.7834659 C21.234193,17.7834659 22.2294756,16.7881832 22.2294756,15.5605088 C22.2294756,14.3328343 21.234193,13.3375517 20.0065185,13.3375517 L11.1147856,13.3375517 C9.88711111,13.3375517 8.89182846,14.3328343 8.89182846,15.5605088 C8.89182846,16.7881832 9.88711111,17.7834659 11.1147856,17.7834659 Z" id="SVGCleanerId_0_1_" fill="#FFFFFF"></path>
            <path d="M7.58965107,44.4586647 L24.4523372,27.5959786 L24.4523372,0 L2.22305263,0 C0.995473684,0 0.000191033138,0.995282651 0.000191033138,2.22295712 L0.000191033138,46.6816218 C0.000191033138,46.6893587 0.00105068226,46.6967135 0.00105068226,46.7042593 C0.00133723197,46.7349201 0.00296101365,46.7651988 0.00448927875,46.7955731 C0.00563547758,46.8202164 0.00668615984,46.8447641 0.00878752437,46.8694074 C0.0111754386,46.898731 0.0149005848,46.9279591 0.0185302144,46.9569961 C0.0216822612,46.9825945 0.0246432749,47.0080975 0.0286549708,47.0337914 C0.0329532164,47.0612047 0.038588694,47.0881404 0.0440331384,47.1154581 C0.0494775828,47.1422982 0.0544444444,47.1691384 0.060748538,47.195883 C0.0668615984,47.2211949 0.0741208577,47.2461248 0.0810935673,47.2711501 C0.0888304094,47.2993275 0.0964717349,47.3275049 0.105259259,47.3553002 C0.112805068,47.3788928 0.121306043,47.4020078 0.129520468,47.4254094 C0.139740741,47.4539688 0.149961014,47.4826238 0.161231969,47.5108967 C0.164192982,47.5179649 0.166294347,47.5252242 0.169255361,47.5323879 C0.176037037,47.5485302 0.184060429,47.5639084 0.191033138,47.5797641 C0.202877193,47.6069864 0.215007797,47.6340175 0.228093567,47.6605712 C0.239651072,47.6842593 0.252068226,47.7073743 0.264580897,47.7307758 C0.277762183,47.7552281 0.29094347,47.7798713 0.304888889,47.803655 C0.318834308,47.8273431 0.333448343,47.8507446 0.348348928,47.8742417 C0.362676413,47.8964971 0.376812865,47.918848 0.391808967,47.9405302 C0.407664717,47.9636452 0.424380117,47.9864737 0.441191033,48.0088246 C0.456760234,48.0298382 0.472424951,48.0506608 0.488567251,48.0709103 C0.506046784,48.0925926 0.524099415,48.1138928 0.54234308,48.1350975 C0.559727096,48.1550604 0.577015595,48.1751189 0.59497271,48.1944133 C0.613502924,48.2140897 0.632319688,48.233384 0.651423002,48.2526784 C0.671003899,48.2720682 0.690584795,48.2913626 0.710452242,48.3099883 C0.729555556,48.3276589 0.749231969,48.3448519 0.769099415,48.3620448 C0.79039961,48.380575 0.811795322,48.3988187 0.833859649,48.4163938 C0.854013645,48.4324405 0.874645224,48.4479142 0.895181287,48.4631969 C0.918009747,48.4801988 0.940933723,48.4971053 0.964430799,48.513152 C0.985922027,48.5279571 1.00789084,48.5419025 1.02995517,48.5561345 C1.05354776,48.5711306 1.07694932,48.5859357 1.10111501,48.5999766 C1.12480312,48.613922 1.14896881,48.6269123 1.17342105,48.6400936 C1.1967271,48.6525107 1.21993762,48.6650234 1.2440078,48.6766764 C1.2705614,48.6897622 1.29768811,48.7018928 1.32491033,48.7138324 C1.34076608,48.7208051 1.35604873,48.728924 1.37219103,48.7355146 C1.37801754,48.7379025 1.38374854,48.7393353 1.38957505,48.7417232 C1.4515653,48.7667485 1.51403314,48.7894815 1.57745614,48.8086803 C1.58423782,48.8107817 1.59140156,48.8122144 1.59837427,48.8143158 C1.65472904,48.8307446 1.71127485,48.8445945 1.76820273,48.8565341 C1.78816569,48.8606413 1.80831969,48.864271 1.82837817,48.8679006 C1.87479922,48.8762105 1.92131579,48.8829922 1.96783236,48.8883411 C1.98798635,48.890729 2.00794932,48.8934035 2.02829435,48.8951228 C2.0902846,48.9005673 2.15237037,48.9040058 2.21426511,48.9042924 C2.21703509,48.9042924 2.21961404,48.9045789 2.22238402,48.9045789 C2.2228616,48.9045789 2.2234347,48.9045789 2.22391228,48.9045789 L24.4526238,48.9045789 L24.4526238,44.4587602 L7.58965107,44.4587602 L7.58965107,44.4586647 Z M11.1147856,13.3375517 L20.0065185,13.3375517 C21.234193,13.3375517 22.2294756,14.3328343 22.2294756,15.5605088 C22.2294756,16.7881832 21.234193,17.7834659 20.0065185,17.7834659 L11.1147856,17.7834659 C9.88711111,17.7834659 8.89182846,16.7881832 8.89182846,15.5605088 C8.89182846,14.3328343 9.88711111,13.3375517 11.1147856,13.3375517 Z" id="Shape" fill="#424EDE"></path>
        </g>
    </g>
</svg>