<?xml version="1.0" encoding="UTF-8"?>
<svg width="73px" height="73px" viewBox="0 0 73 73" version="1.1" xmlns="http://www.w3.org/2000/svg" xmlns:xlink="http://www.w3.org/1999/xlink">
    <!-- Generator: Sketch 51.3 (57544) - http://www.bohemiancoding.com/sketch -->
    <title>design-and-ux/crap</title>
    <desc>Created with Sketch.</desc>
    <defs></defs>
    <g id="design-and-ux/crap" stroke="none" stroke-width="1" fill="none" fill-rule="evenodd">
        <g id="container" transform="translate(2.000000, 2.000000)" fill="#FFFFFF" fill-rule="nonzero" stroke="#242D32" stroke-width="2">
            <rect id="mask" x="-1" y="-1" width="71" height="71" rx="14"></rect>
        </g>
        <g id="toilet" transform="translate(14.000000, 15.000000)" fill="#000000" fill-rule="nonzero">
            <path d="M13.1751367,8.20363281 C8.24109766,8.20363281 8.17326563,8.20363281 4.06884375,8.20363281 C1.87072656,8.20363281 0.073671875,9.99188281 0.0626210938,12.1897305 L5.59211152e-17,24.6269805 C-0.004671875,25.5619844 0.749476563,26.3236797 1.68430078,26.3284414 C1.68717578,26.3284414 1.69014063,26.3284414 1.69310547,26.3284414 C2.62415625,26.3284414 3.381,25.576 3.38585156,24.6441406 L3.44838281,12.2068906 C3.44838281,12.2054531 3.44838281,12.2041055 3.44838281,12.202668 C3.45053906,12.0180391 3.60147656,11.869707 3.78610547,11.8707852 C3.97073438,11.8718633 4.119875,12.0219922 4.119875,12.2066211 L4.12059375,40.6652578 C4.12059375,41.7872266 5.03017188,42.6968047 6.15214063,42.6968047 C7.27410938,42.6968047 8.1836875,41.7872266 8.1836875,40.6652578 L8.1836875,24.4274375 L9.06083203,24.4274375 L9.06083203,40.6652578 C9.06083203,41.7872266 9.97032031,42.6967148 11.0922891,42.6967148 C12.2142578,42.6967148 13.1237461,41.7872266 13.1237461,40.6652578 C13.1237461,13.8115 13.0878086,29.1683125 13.0869102,12.231418 C13.0869102,12.0408594 13.2373086,11.8843516 13.4277773,11.8768945 C13.6182461,11.8694375 13.7806836,12.0135469 13.795418,12.2034766 C13.795418,12.2035664 13.795418,12.2036562 13.795418,12.2036562 L13.783918,24.6338984 C13.7830195,25.5688125 14.5403125,26.327543 15.4752266,26.3284414 C15.4758555,26.3284414 15.4762148,26.3284414 15.4768438,26.3284414 C16.4109492,26.3284414 17.1688711,25.571418 17.1696797,24.6371328 L17.1811797,12.1999727 C17.1813594,12.1964687 17.1813594,12.1932344 17.1812695,12.1897305 C17.1702188,9.99188281 15.3730742,8.20363281 13.1751367,8.20363281 Z" id="Shape"></path>
            <circle id="Oval" cx="8.62194531" cy="3.57694922" r="3.50812891"></circle>
            <path d="M45.9048555,21.9981523 C45.8737695,21.9095664 42.7952734,13.1290469 42.3109258,11.7194883 C41.5311719,9.45066406 40.2238555,8.30030469 38.4252734,8.30030469 C35.9074023,8.30030469 35.0848828,8.30030469 32.5716836,8.30030469 C30.7730117,8.30030469 29.4656953,9.45075391 28.6860312,11.7194883 C28.2016836,13.128957 25.1231875,21.9096562 25.0921016,21.9981523 C24.7850156,22.8739492 25.2460937,23.8330313 26.1220703,24.1401172 C26.9987656,24.4473828 27.9571289,23.9851367 28.2639453,23.1103281 C28.3633125,22.8269609 30.2154414,17.6808008 31.2487344,14.7199102 C31.1405625,15.603793 31.4521406,13.769543 28.846582,27.2220273 C28.7346367,27.7998125 29.1799922,28.3342031 29.7630781,28.3342031 C30.1250586,28.3342031 30.5592734,28.3342031 31.045418,28.3342031 L31.045418,40.5240234 C31.045418,41.6377266 31.9482578,42.5406563 33.0620508,42.5406563 C34.1758437,42.5406563 35.0786836,41.6378164 35.0786836,40.5240234 L35.0786836,28.3340234 C35.3686094,28.3340234 35.6595234,28.3340234 35.9494492,28.3340234 L35.9494492,40.5240234 C35.9494492,41.6377266 36.8522891,42.5406563 37.966082,42.5406563 C39.079875,42.5406563 39.9827148,41.6378164 39.9827148,40.5240234 L39.9827148,28.3340234 C40.4688594,28.3340234 40.9031641,28.3340234 41.2650547,28.3340234 C41.8510156,28.3340234 42.2934062,27.7992734 42.1815508,27.2218477 C39.5997109,13.8918203 39.8842461,15.439918 39.7961992,14.7197305 C40.8377578,17.7035312 42.6354414,22.8311836 42.7332812,23.1101484 C43.0406367,23.9866641 44.000168,24.4468437 44.8751562,24.1399375 C45.7508633,23.8328516 46.2119414,22.8739492 45.9048555,21.9981523 Z" id="Shape"></path>
            <circle id="Oval" cx="35.513707" cy="3.70740234" r="3.48297266"></circle>
            <path d="M21.5410273,2.32919922 C20.8250625,2.32919922 20.244582,2.90958984 20.244582,3.62564453 L20.244582,39.1392617 C20.244582,39.8552266 20.8249727,40.4356172 21.5410273,40.4356172 C22.257082,40.4356172 22.8374727,39.8553164 22.8374727,39.1392617 L22.8374727,3.62564453 C22.8374727,2.90958984 22.2569922,2.32919922 21.5410273,2.32919922 Z" id="Shape"></path>
        </g>
    </g>
</svg>