<?xml version="1.0" encoding="UTF-8"?>
<svg width="73px" height="73px" viewBox="0 0 73 73" version="1.1" xmlns="http://www.w3.org/2000/svg" xmlns:xlink="http://www.w3.org/1999/xlink">
    <!-- Generator: Sketch 51.3 (57544) - http://www.bohemiancoding.com/sketch -->
    <title>design-and-ux/font-size</title>
    <desc>Created with Sketch.</desc>
    <defs></defs>
    <g id="design-and-ux/font-size" stroke="none" stroke-width="1" fill="none" fill-rule="evenodd">
        <g id="container" transform="translate(2.000000, 2.000000)" fill="#FFFFFF" fill-rule="nonzero" stroke="#023A5F" stroke-width="2">
            <rect id="mask" x="-1" y="-1" width="71" height="71" rx="14"></rect>
        </g>
        <g id="text" transform="translate(10.000000, 10.000000)" fill-rule="nonzero">
            <path d="M42.5740686,5.85930588 L42.5740686,41.0138941 C42.5740686,41.8743647 41.8757157,42.5727176 41.0152451,42.5727176 L5.86065686,42.5727176 C5.00018627,42.5727176 4.30183333,41.8743647 4.30183333,41.0138941 L4.30183333,5.85930588 C4.30183333,4.99883529 5.00018627,4.30048235 5.86065686,4.30048235 L41.0152451,4.30048235 C41.8757157,4.30048235 42.5740686,4.99883529 42.5740686,5.85930588 Z" id="Shape" fill="#3EC3FF"></path>
            <path d="M42.5740686,5.85930588 L42.5740686,41.0138941 C42.5740686,41.8743647 41.8757157,42.5727176 41.0152451,42.5727176 L23.437951,42.5727176 L23.437951,4.30048235 L41.0152451,4.30048235 C41.8757157,4.30048235 42.5740686,4.99883529 42.5740686,5.85930588 Z" id="Shape" fill="#0789E0"></path>
            <polygon id="Shape" fill="#FFFFFF" points="7.41948039 7.41812941 39.4564216 7.41812941 39.4564216 39.4550706 7.41948039 39.4550706"></polygon>
            <polygon id="Shape" fill="#BFEBFF" points="23.437951 7.41812941 39.4564216 7.41812941 39.4564216 39.4550706 23.437951 39.4550706"></polygon>
            <path d="M32.8958529,15.3743647 L32.8958529,18.599051 C32.8958529,19.4595216 32.1975,20.1578745 31.3370294,20.1578745 C30.4755196,20.1578745 29.7782059,19.4595216 29.7782059,18.599051 L29.7782059,16.9331882 L24.9967745,16.9331882 L24.9967745,29.9400118 L26.0806765,29.9400118 C26.9421863,29.9400118 27.6395,30.6383647 27.6395,31.4988353 C27.6395,32.3593059 26.9421863,33.0576588 26.0806765,33.0576588 L20.7941863,33.0576588 C19.9337157,33.0576588 19.2353627,32.3593059 19.2353627,31.4988353 C19.2353627,30.6383647 19.9337157,29.9400118 20.7941863,29.9400118 L21.8791275,29.9400118 L21.8791275,16.9331882 L17.0976961,16.9331882 L17.0976961,18.599051 C17.0976961,19.4595216 16.3993431,20.1578745 15.5388725,20.1578745 C14.678402,20.1578745 13.980049,19.4595216 13.980049,18.599051 L13.980049,15.3743647 C13.980049,14.5128549 14.678402,13.8155412 15.5388725,13.8155412 L31.3370294,13.8155412 C32.1975,13.8155412 32.8958529,14.5128549 32.8958529,15.3743647 Z" id="Shape" fill="#435D7A"></path>
            <path d="M32.8958529,15.3743647 L32.8958529,18.599051 C32.8958529,19.4595216 32.1975,20.1578745 31.3370294,20.1578745 C30.4755196,20.1578745 29.7782059,19.4595216 29.7782059,18.599051 L29.7782059,16.9331882 L24.9967745,16.9331882 L24.9967745,29.9400118 L26.0806765,29.9400118 C26.9421863,29.9400118 27.6395,30.6383647 27.6395,31.4988353 C27.6395,32.3593059 26.9421863,33.0576588 26.0806765,33.0576588 L23.437951,33.0576588 L23.437951,13.8155412 L31.3370294,13.8155412 C32.1975,13.8155412 32.8958529,14.5128549 32.8958529,15.3743647 Z" id="Shape" fill="#2D3E53"></path>
            <path d="M5.86076078,0 C2.62994314,0 0.00135098039,2.62848824 0.00135098039,5.8594098 C0.00135098039,9.09033137 2.62983922,11.7187157 5.86076078,11.7187157 C9.09168235,11.7187157 11.7200667,9.09022745 11.7200667,5.8594098 C11.7200667,2.62859216 9.09157843,0 5.86076078,0 Z" id="Shape" fill="#FD3186"></path>
            <path d="M8.60210784,5.85930588 C8.60210784,7.37136471 7.37271569,8.60075686 5.86065686,8.60075686 C4.34859804,8.60075686 3.11920588,7.37136471 3.11920588,5.85930588 C3.11920588,4.34724706 4.34859804,3.1178549 5.86065686,3.1178549 C7.37271569,3.1178549 8.60210784,4.34724706 8.60210784,5.85930588 Z" id="Shape" fill="#FFFFFF"></path>
            <path d="M41.0148294,0 C37.7839078,0 35.1554196,2.62848824 35.1554196,5.8594098 C35.1554196,9.09033137 37.7839078,11.7187157 41.0148294,11.7187157 C44.245751,11.7187157 46.8742392,9.09022745 46.8742392,5.8594098 C46.8742392,2.62859216 44.245751,0 41.0148294,0 Z" id="Shape" fill="#C7318B"></path>
            <path d="M43.7566961,5.85930588 C43.7566961,7.37136471 42.5262647,8.60075686 41.0152451,8.60075686 C39.5031863,8.60075686 38.2727549,7.37136471 38.2727549,5.85930588 C38.2727549,4.34724706 39.5031863,3.1178549 41.0152451,3.1178549 C42.5262647,3.1178549 43.7566961,4.34724706 43.7566961,5.85930588 Z" id="Shape" fill="#FFFFFF"></path>
            <path d="M5.86076078,35.1540686 C2.62994314,35.1540686 0.00135098039,37.7825569 0.00135098039,41.0134784 C0.00135098039,44.2444 2.62983922,46.8728882 5.86076078,46.8728882 C9.09168235,46.8728882 11.7200667,44.2444 11.7200667,41.0134784 C11.7200667,37.7825569 9.09157843,35.1540686 5.86076078,35.1540686 Z" id="Shape" fill="#FD3186"></path>
            <path d="M8.60210784,41.0138941 C8.60210784,42.5249137 7.37271569,43.7553451 5.86065686,43.7553451 C4.34859804,43.7553451 3.11920588,42.5249137 3.11920588,41.0138941 C3.11920588,39.5018353 4.34859804,38.2714039 5.86065686,38.2714039 C7.37271569,38.2714039 8.60210784,39.5018353 8.60210784,41.0138941 Z" id="Shape" fill="#FFFFFF"></path>
            <path d="M48.9351078,36.6212333 L46.234602,39.3217392 C45.784102,39.7722392 45.784102,40.5011451 46.234602,40.9516451 L52.6079039,47.3249471 C53.0575725,47.7746157 53.0575725,48.5050804 52.6071765,48.9555804 L50.7802353,50.7823137 L39.4564216,41.5778765 C39.4564216,41.5778765 32.4621882,32.9595569 32.7098333,32.7119118 C32.9574784,32.4642667 33.3168392,32.3268824 33.7025961,32.3878843 L48.2979647,34.6673 C49.228998,34.8120627 49.6022843,35.9539529 48.9351078,36.6212333 Z" id="Shape" fill="#FFA84A"></path>
            <path d="M32.7098333,32.7119118 L50.7802353,50.7823137 L48.953398,52.609151 C48.5037294,53.0588196 47.7732647,53.0588196 47.3234922,52.609151 L40.9501902,46.235849 C40.4997941,45.7854529 39.7700569,45.7861804 39.3202843,46.235849 L36.619051,48.9370824 C35.952602,49.6035314 34.8098804,49.2309725 34.6651176,48.2999392 L32.385598,33.7045706 C32.3248039,33.3189176 32.4621882,32.9595569 32.7098333,32.7119118 Z" id="Shape" fill="#FFEB95"></path>
        </g>
    </g>
</svg>