<?xml version="1.0" encoding="UTF-8"?>
<svg width="73px" height="73px" viewBox="0 0 73 73" version="1.1" xmlns="http://www.w3.org/2000/svg" xmlns:xlink="http://www.w3.org/1999/xlink">
    <!-- Generator: Sketch 51.3 (57544) - http://www.bohemiancoding.com/sketch -->
    <title>design-and-ux/mobile-first</title>
    <desc>Created with Sketch.</desc>
    <defs></defs>
    <g id="design-and-ux/mobile-first" stroke="none" stroke-width="1" fill="none" fill-rule="evenodd">
        <g id="container" transform="translate(2.000000, 2.000000)" fill="#FFFFFF" fill-rule="nonzero" stroke="#273C47" stroke-width="2">
            <rect id="mask" x="-1" y="-1" width="71" height="71" rx="14"></rect>
        </g>
        <g id="emergency-call" transform="translate(16.000000, 11.000000)" fill-rule="nonzero">
            <path d="M9.58125,26.88875 C3.6225,21.5075 0,17.12375 0,11.50625 C0,5.2675 4.2875,1.77635684e-15 10.5,1.77635684e-15 C17.77125,1.77635684e-15 21,6.615 21,6.615 C21,6.615 24.22875,1.77635684e-15 31.5,1.77635684e-15 C37.7125,1.77635684e-15 42,5.2675 42,11.50625 C42,17.12375 38.3775,21.5075 32.41875,26.88875 L9.58125,26.88875 Z" id="Shape" fill="#FF5364"></path>
            <path d="M13.95625,10.5 L12.20625,10.5 C10.7565026,10.5 9.58125,11.6752526 9.58125,13.125 L9.58125,45.5 C9.58047799,45.718268 9.60693221,45.9357801 9.66,46.1475 C9.75595259,46.5396047 9.94504779,46.9027876 10.21125,47.20625 C10.7104423,47.7887856 11.4390862,48.1243453 12.20625,48.125 L29.79375,48.125 C31.2434974,48.125 32.41875,46.9497474 32.41875,45.5 L32.41875,13.125 C32.4216884,12.4988327 32.1979073,11.8927589 31.78875,11.41875 C31.6148538,11.2170358 31.4112733,11.0429597 31.185,10.9025 C30.7689614,10.6387627 30.2863398,10.4991363 29.79375,10.5 L13.95625,10.5 Z" id="Shape" fill="#2980BA"></path>
            <path d="M31.185,10.9025 C26.635,12.6 10.5,20.32625 9.66,44.3975 C9.60693221,44.1857801 9.58047799,43.968268 9.58125,43.75 L9.58125,13.125 C9.58125,11.6752526 10.7565026,10.5 12.20625,10.5 L13.95625,10.5 L16.45875,13.16875 C16.9543287,13.6999477 17.6485235,14.0010825 18.375,14 L23.625,14 C24.3514765,14.0010825 25.0456713,13.6999477 25.54125,13.16875 L28.04375,10.5 L29.79375,10.5 C30.2863398,10.4991363 30.7689614,10.6387627 31.185,10.9025 Z" id="Shape" fill="#3B97D3"></path>
            <path d="M32.41875,43.75 L32.41875,48.125 C32.41875,49.5747474 31.2434974,50.75 29.79375,50.75 L12.20625,50.75 C10.7565026,50.75 9.58125,49.5747474 9.58125,48.125 L9.58125,43.75 C9.58125,45.1997474 10.7565026,46.375 12.20625,46.375 L29.79375,46.375 C31.2434974,46.375 32.41875,45.1997474 32.41875,43.75 Z" id="Shape" fill="#3F5C6C"></path>
            <path d="M28.04375,10.5 L25.54125,13.16875 C25.0456713,13.6999477 24.3514765,14.0010825 23.625,14 L18.375,14 C17.6485235,14.0010825 16.9543287,13.6999477 16.45875,13.16875 L13.95625,10.5 L28.04375,10.5 Z" id="Shape" fill="#3F5C6C"></path>
        </g>
    </g>
</svg>