<?xml version="1.0" encoding="UTF-8"?>
<svg width="73px" height="73px" viewBox="0 0 73 73" version="1.1" xmlns="http://www.w3.org/2000/svg" xmlns:xlink="http://www.w3.org/1999/xlink">
    <!-- Generator: Sketch 51.3 (57544) - http://www.bohemiancoding.com/sketch -->
    <title>design-and-ux/proximity</title>
    <desc>Created with Sketch.</desc>
    <defs></defs>
    <g id="design-and-ux/proximity" stroke="none" stroke-width="1" fill="none" fill-rule="evenodd">
        <g id="container" transform="translate(2.000000, 2.000000)" fill="#FFFFFF" fill-rule="nonzero" stroke="#12250E" stroke-width="2">
            <rect id="mask" x="-1" y="-1" width="71" height="71" rx="14"></rect>
        </g>
        <g id="radar-(2)" transform="translate(11.000000, 11.000000)" fill-rule="nonzero">
            <path d="M25.4900463,0.0664949698 C11.4305674,0.0664949698 0.0329396378,11.462994 0.0329396378,25.5236016 C0.0329396378,39.5820543 11.4304648,50.9794769 25.4900463,50.9794769 C39.5490121,50.9794769 50.9465372,39.5820543 50.9465372,25.5236016 C50.9466398,11.4628913 39.5491147,0.0664949698 25.4900463,0.0664949698 Z" id="Shape" fill="#294C22"></path>
            <path d="M50.944998,25.6522817 C50.9452032,25.6092857 50.9466398,25.5667002 50.9466398,25.5236016 C50.9466398,25.4972294 50.9457163,25.4710624 50.9456137,25.4446901 L49.4461932,25.4446901 L49.4461932,20.8806519 L50.5229396,20.8806519 C50.5101127,20.8112837 50.4964648,20.7422233 50.4831247,20.673163 L49.4461932,20.673163 L49.4461932,16.8958793 C49.3799034,16.7117867 49.3114588,16.5288229 49.2409618,16.3467827 L49.2409618,20.673163 L44.6745634,20.673163 L44.6745634,16.1078934 L49.1478893,16.1078934 C49.1203883,16.0392435 49.0919638,15.9711066 49.0640523,15.902662 L44.674666,15.902662 L44.674666,11.3362636 L46.6297002,11.3362636 C46.5834205,11.2674085 46.5360121,11.1994769 46.4890141,11.1310322 L44.674666,11.1310322 L44.674666,8.79077867 C44.606837,8.71309859 44.5381871,8.63634205 44.4694346,8.5594829 L44.4694346,11.1309296 L39.9030362,11.1309296 L39.9030362,6.56453119 L42.4771509,6.56453119 C42.4003944,6.49577867 42.3234326,6.42723139 42.2458551,6.3592998 L39.9030362,6.3592998 L39.9030362,4.53858954 C39.8345915,4.49148893 39.7667626,4.44367002 39.6978048,4.39718511 L39.6978048,6.3592998 L35.1314064,6.3592998 L35.1314064,1.9575996 C35.0629618,1.92958551 34.9948249,1.90116097 34.9261751,1.87376258 L34.9261751,6.35940241 L30.3608028,6.35940241 L30.3608028,1.79300402 L34.7213541,1.79300402 C34.5406479,1.72271227 34.3592233,1.65406237 34.1765674,1.58777264 L30.3607002,1.58777264 L30.3607002,0.533909457 C30.2916398,0.520569416 30.2226821,0.507024145 30.1534165,0.494197183 L30.1534165,1.58777264 L25.5890704,1.58777264 L25.5890704,0.0677263581 C25.5560282,0.0676237425 25.5231911,0.0664949698 25.4901489,0.0664949698 C25.4538229,0.0664949698 25.4180101,0.0677263581 25.3817867,0.0678289738 L25.3817867,1.58777264 L20.8174406,1.58777264 L20.8174406,0.49594165 C20.7481751,0.508768612 20.6792173,0.522211268 20.6101569,0.535653924 L20.6101569,1.58767002 L16.8033199,1.58767002 C16.6207666,1.65395976 16.4391368,1.72260966 16.2585332,1.79290141 L20.6099517,1.79290141 L20.6099517,6.3592998 L16.0445795,6.3592998 L16.0445795,1.87745674 C15.9759296,1.90495775 15.9076901,1.93327968 15.8393481,1.96129376 L15.8393481,6.35940241 L11.2729497,6.35940241 L11.2729497,4.40313682 C11.203992,4.44962173 11.136163,4.49764588 11.0677183,4.54474648 L11.0677183,6.3592998 L8.73403219,6.3592998 C8.65645473,6.42723139 8.57949296,6.49577867 8.50273642,6.56453119 L11.0679235,6.56453119 L11.0679235,11.1309296 L6.50152515,11.1309296 L6.50152515,8.56953924 C6.43287525,8.64639839 6.36402012,8.72315493 6.29629376,8.80083501 L6.29629376,11.1310322 L4.49077062,11.1310322 C4.44387525,11.1994769 4.39636419,11.2674085 4.35008451,11.3362636 L6.29629376,11.3362636 L6.29629376,15.902662 L1.91573239,15.902662 C1.88782093,15.9711066 1.85929376,16.0392435 1.83189537,16.1078934 L6.29639638,16.1078934 L6.29639638,20.673163 L1.72999799,20.673163 L1.72999799,16.3699738 C1.65950101,16.5526298 1.59105634,16.7362093 1.5247666,16.9209175 L1.5247666,20.6730604 L0.496557344,20.6730604 C0.483217304,20.7422233 0.469569416,20.8112837 0.456742455,20.8805493 L1.52466398,20.8805493 L1.52466398,25.4446901 L0.0340684105,25.4446901 C0.0339657948,25.4710624 0.0330422535,25.4972294 0.0330422535,25.5236016 C0.0330422535,25.5665976 0.0344788732,25.6092857 0.0346841046,25.6522817 L1.5247666,25.6522817 L1.5247666,30.2164225 L0.466490946,30.2164225 C0.479420523,30.2856881 0.492760563,30.3548511 0.506305835,30.4239115 L1.5247666,30.4239115 L1.5247666,34.1252596 C1.59105634,34.3098652 1.65950101,34.4934447 1.72999799,34.6761006 L1.72999799,30.4239115 L6.29639638,30.4239115 L6.29639638,34.9880523 L1.85211066,34.9880523 C1.87991952,35.0574205 1.9085493,35.1264809 1.93687123,35.1955412 L6.29619115,35.1955412 L6.29619115,39.7596821 L4.38312676,39.7596821 C4.43032998,39.8294608 4.47917505,39.8979054 4.52699396,39.967171 L6.29619115,39.967171 L6.29619115,42.2449316 C6.36391751,42.3226117 6.43277264,42.3993682 6.50142254,42.4762274 L6.50142254,39.967171 L11.0678209,39.967171 L11.0678209,44.5324406 L8.56050905,44.5324406 C8.63736821,44.6009879 8.71391952,44.6700483 8.79180483,44.737672 L11.0679235,44.737672 L11.0679235,46.5010201 C11.1363682,46.5481207 11.2041972,46.5961449 11.2731549,46.6426298 L11.2731549,44.737672 L15.8395533,44.737672 L15.8395533,49.0845755 C15.9078954,49.1125895 15.9761348,49.1410141 16.0447847,49.1684125 L16.0447847,44.7375694 L20.6101569,44.7375694 L20.6101569,49.3039678 L16.393165,49.3039678 C16.5772575,49.3744648 16.7623763,49.4429095 16.9485211,49.5091992 L20.6101569,49.5091992 L20.6101569,50.5102153 C20.6792173,50.5235553 20.7481751,50.5371006 20.8174406,50.5499276 L20.8174406,49.5091992 L25.3817867,49.5091992 L25.3817867,50.9780402 C25.4180101,50.9781429 25.4538229,50.9793742 25.4901489,50.9793742 C25.5231911,50.9793742 25.5560282,50.9782455 25.5890704,50.9781429 L25.5890704,49.5091992 L30.1534165,49.5091992 L30.1534165,50.5517746 C30.2226821,50.5389477 30.2916398,50.5254024 30.3607002,50.5120624 L30.3607002,49.5093018 L34.0313662,49.5093018 C34.2175111,49.4430121 34.4026298,49.3745674 34.5867223,49.3040704 L30.3605976,49.3040704 L30.3605976,44.737672 L34.9259698,44.737672 L34.9259698,49.1722093 C34.9946197,49.1448109 35.0627565,49.1163863 35.1312012,49.0883722 L35.1312012,44.7377746 L39.6975996,44.7377746 L39.6975996,46.6486841 C39.7665573,46.6021992 39.8343863,46.5543803 39.902831,46.5072797 L39.902831,44.7377746 L42.1879799,44.7377746 C42.2657626,44.6701509 42.3423139,44.6010905 42.4192757,44.5325433 L39.9029336,44.5325433 L39.9029336,39.967171 L44.469332,39.967171 L44.469332,42.4861811 C44.5380845,42.4093219 44.6067344,42.3325654 44.6745634,42.2548853 L44.6745634,39.967171 L46.4525855,39.967171 C46.500507,39.8979054 46.5493521,39.8293581 46.5964527,39.7596821 L44.6745634,39.7596821 L44.6745634,35.1955412 L49.0427082,35.1955412 C49.0710302,35.1264809 49.0997626,35.0574205 49.1274688,34.9880523 L44.6744608,34.9880523 L44.6744608,30.4239115 L49.2408592,30.4239115 L49.2408592,34.6993944 C49.3113561,34.5173541 49.3798008,34.3343903 49.4460905,34.1502978 L49.4460905,30.4239115 L50.4733763,30.4239115 C50.4869215,30.3548511 50.5002616,30.2856881 50.5131911,30.2164225 L49.4461932,30.2164225 L49.4461932,25.6522817 L50.944998,25.6522817 Z M6.29629376,30.2163199 L1.72989537,30.2163199 L1.72989537,25.6522817 L6.29629376,25.6522817 L6.29629376,30.2163199 Z M6.29629376,25.4446901 L1.72989537,25.4446901 L1.72989537,20.8806519 L6.29629376,20.8806519 L6.29629376,25.4446901 Z M11.0679235,39.7595795 L6.50152515,39.7595795 L6.50152515,35.1955412 L11.0679235,35.1955412 L11.0679235,39.7595795 Z M11.0679235,34.9879497 L6.50152515,34.9879497 L6.50152515,30.4239115 L11.0679235,30.4239115 L11.0679235,34.9879497 Z M11.0679235,30.2163199 L6.50152515,30.2163199 L6.50152515,25.6522817 L11.0679235,25.6522817 L11.0679235,30.2163199 Z M11.0679235,25.4446901 L6.50152515,25.4446901 L6.50152515,20.8806519 L11.0679235,20.8806519 L11.0679235,25.4446901 Z M11.0679235,20.6730604 L6.50152515,20.6730604 L6.50152515,16.1077907 L11.0679235,16.1077907 L11.0679235,20.6730604 Z M11.0679235,15.902662 L6.50152515,15.902662 L6.50152515,11.3362636 L11.0679235,11.3362636 L11.0679235,15.902662 Z M15.8394507,44.5324406 L11.2730523,44.5324406 L11.2730523,39.967171 L15.8394507,39.967171 L15.8394507,44.5324406 Z M15.8394507,39.7595795 L11.2730523,39.7595795 L11.2730523,35.1955412 L15.8394507,35.1955412 L15.8394507,39.7595795 Z M15.8394507,34.9879497 L11.2730523,34.9879497 L11.2730523,30.4239115 L15.8394507,30.4239115 L15.8394507,34.9879497 Z M15.8394507,30.2163199 L11.2730523,30.2163199 L11.2730523,25.6522817 L15.8394507,25.6522817 L15.8394507,30.2163199 Z M15.8394507,25.4446901 L11.2730523,25.4446901 L11.2730523,20.8806519 L15.8394507,20.8806519 L15.8394507,25.4446901 Z M15.8394507,20.6730604 L11.2730523,20.6730604 L11.2730523,16.1077907 L15.8394507,16.1077907 L15.8394507,20.6730604 Z M15.8394507,15.902662 L11.2730523,15.902662 L11.2730523,11.3362636 L15.8394507,11.3362636 L15.8394507,15.902662 Z M15.8394507,11.1310322 L11.2730523,11.1310322 L11.2730523,6.5646338 L15.8394507,6.5646338 L15.8394507,11.1310322 Z M20.6101569,44.5324406 L16.0447847,44.5324406 L16.0447847,39.967171 L20.6101569,39.967171 L20.6101569,44.5324406 Z M20.6101569,39.7595795 L16.0447847,39.7595795 L16.0447847,35.1955412 L20.6101569,35.1955412 L20.6101569,39.7595795 Z M20.6101569,34.9879497 L16.0447847,34.9879497 L16.0447847,30.4239115 L20.6101569,30.4239115 L20.6101569,34.9879497 Z M20.6101569,30.2163199 L16.0447847,30.2163199 L16.0447847,25.6522817 L20.6101569,25.6522817 L20.6101569,30.2163199 Z M20.6101569,25.4446901 L16.0447847,25.4446901 L16.0447847,20.8806519 L20.6101569,20.8806519 L20.6101569,25.4446901 Z M20.6101569,20.6730604 L16.0447847,20.6730604 L16.0447847,16.1077907 L20.6101569,16.1077907 L20.6101569,20.6730604 Z M20.6101569,15.902662 L16.0447847,15.902662 L16.0447847,11.3362636 L20.6101569,11.3362636 L20.6101569,15.902662 Z M20.6101569,11.1310322 L16.0447847,11.1310322 L16.0447847,6.5646338 L20.6101569,6.5646338 L20.6101569,11.1310322 Z M25.3817867,49.3040704 L20.8174406,49.3040704 L20.8174406,44.737672 L25.3817867,44.737672 L25.3817867,49.3040704 Z M25.3817867,44.5324406 L20.8174406,44.5324406 L20.8174406,39.967171 L25.3817867,39.967171 L25.3817867,44.5324406 Z M25.3817867,39.7595795 L20.8174406,39.7595795 L20.8174406,35.1955412 L25.3817867,35.1955412 L25.3817867,39.7595795 Z M25.3817867,34.9879497 L20.8174406,34.9879497 L20.8174406,30.4239115 L25.3817867,30.4239115 L25.3817867,34.9879497 Z M25.3817867,30.2163199 L20.8174406,30.2163199 L20.8174406,25.6522817 L25.3817867,25.6522817 L25.3817867,30.2163199 Z M25.3817867,25.4446901 L20.8174406,25.4446901 L20.8174406,20.8806519 L25.3817867,20.8806519 L25.3817867,25.4446901 Z M25.3817867,20.6730604 L20.8174406,20.6730604 L20.8174406,16.1077907 L25.3817867,16.1077907 L25.3817867,20.6730604 Z M25.3817867,15.902662 L20.8174406,15.902662 L20.8174406,11.3362636 L25.3817867,11.3362636 L25.3817867,15.902662 Z M25.3817867,11.1310322 L20.8174406,11.1310322 L20.8174406,6.5646338 L25.3817867,6.5646338 L25.3817867,11.1310322 Z M25.3817867,6.35940241 L20.8174406,6.35940241 L20.8174406,1.79300402 L25.3817867,1.79300402 L25.3817867,6.35940241 Z M30.1534165,49.3040704 L25.5890704,49.3040704 L25.5890704,44.737672 L30.1534165,44.737672 L30.1534165,49.3040704 Z M30.1534165,44.5324406 L25.5890704,44.5324406 L25.5890704,39.967171 L30.1534165,39.967171 L30.1534165,44.5324406 Z M30.1534165,39.7595795 L25.5890704,39.7595795 L25.5890704,35.1955412 L30.1534165,35.1955412 L30.1534165,39.7595795 Z M30.1534165,34.9879497 L25.5890704,34.9879497 L25.5890704,30.4239115 L30.1534165,30.4239115 L30.1534165,34.9879497 Z M30.1534165,30.2163199 L25.5890704,30.2163199 L25.5890704,25.6522817 L30.1534165,25.6522817 L30.1534165,30.2163199 Z M30.1534165,25.4446901 L25.5890704,25.4446901 L25.5890704,20.8806519 L30.1534165,20.8806519 L30.1534165,25.4446901 Z M30.1534165,20.6730604 L25.5890704,20.6730604 L25.5890704,16.1077907 L30.1534165,16.1077907 L30.1534165,20.6730604 Z M30.1534165,15.902662 L25.5890704,15.902662 L25.5890704,11.3362636 L30.1534165,11.3362636 L30.1534165,15.902662 Z M30.1534165,11.1310322 L25.5890704,11.1310322 L25.5890704,6.5646338 L30.1534165,6.5646338 L30.1534165,11.1310322 Z M30.1534165,6.35940241 L25.5890704,6.35940241 L25.5890704,1.79300402 L30.1534165,1.79300402 L30.1534165,6.35940241 Z M34.9260724,44.5324406 L30.3607002,44.5324406 L30.3607002,39.967171 L34.9260724,39.967171 L34.9260724,44.5324406 Z M34.9260724,39.7595795 L30.3607002,39.7595795 L30.3607002,35.1955412 L34.9260724,35.1955412 L34.9260724,39.7595795 Z M34.9260724,34.9879497 L30.3607002,34.9879497 L30.3607002,30.4239115 L34.9260724,30.4239115 L34.9260724,34.9879497 Z M34.9260724,30.2163199 L30.3607002,30.2163199 L30.3607002,25.6522817 L34.9260724,25.6522817 L34.9260724,30.2163199 Z M34.9260724,25.4446901 L30.3607002,25.4446901 L30.3607002,20.8806519 L34.9260724,20.8806519 L34.9260724,25.4446901 Z M34.9260724,20.6730604 L30.3607002,20.6730604 L30.3607002,16.1077907 L34.9260724,16.1077907 L34.9260724,20.6730604 Z M34.9260724,15.902662 L30.3607002,15.902662 L30.3607002,11.3362636 L34.9260724,11.3362636 L34.9260724,15.902662 Z M34.9260724,11.1310322 L30.3607002,11.1310322 L30.3607002,6.5646338 L34.9260724,6.5646338 L34.9260724,11.1310322 Z M39.6977022,44.5324406 L35.1313038,44.5324406 L35.1313038,39.967171 L39.6977022,39.967171 L39.6977022,44.5324406 Z M39.6977022,39.7595795 L35.1313038,39.7595795 L35.1313038,35.1955412 L39.6977022,35.1955412 L39.6977022,39.7595795 Z M39.6977022,34.9879497 L35.1313038,34.9879497 L35.1313038,30.4239115 L39.6977022,30.4239115 L39.6977022,34.9879497 Z M39.6977022,30.2163199 L35.1313038,30.2163199 L35.1313038,25.6522817 L39.6977022,25.6522817 L39.6977022,30.2163199 Z M39.6977022,25.4446901 L35.1313038,25.4446901 L35.1313038,20.8806519 L39.6977022,20.8806519 L39.6977022,25.4446901 Z M39.6977022,20.6730604 L35.1313038,20.6730604 L35.1313038,16.1077907 L39.6977022,16.1077907 L39.6977022,20.6730604 Z M39.6977022,15.902662 L35.1313038,15.902662 L35.1313038,11.3362636 L39.6977022,11.3362636 L39.6977022,15.902662 Z M39.6977022,11.1310322 L35.1313038,11.1310322 L35.1313038,6.5646338 L39.6977022,6.5646338 L39.6977022,11.1310322 Z M44.469332,39.7595795 L39.9029336,39.7595795 L39.9029336,35.1955412 L44.469332,35.1955412 L44.469332,39.7595795 Z M44.469332,34.9879497 L39.9029336,34.9879497 L39.9029336,30.4239115 L44.469332,30.4239115 L44.469332,34.9879497 Z M44.469332,30.2163199 L39.9029336,30.2163199 L39.9029336,25.6522817 L44.469332,25.6522817 L44.469332,30.2163199 Z M44.469332,25.4446901 L39.9029336,25.4446901 L39.9029336,20.8806519 L44.469332,20.8806519 L44.469332,25.4446901 Z M44.469332,20.6730604 L39.9029336,20.6730604 L39.9029336,16.1077907 L44.469332,16.1077907 L44.469332,20.6730604 Z M44.469332,15.902662 L39.9029336,15.902662 L39.9029336,11.3362636 L44.469332,11.3362636 L44.469332,15.902662 Z M49.2409618,30.2163199 L44.6745634,30.2163199 L44.6745634,25.6522817 L49.2409618,25.6522817 L49.2409618,30.2163199 Z M49.2409618,25.4446901 L44.6745634,25.4446901 L44.6745634,20.8806519 L49.2409618,20.8806519 L49.2409618,25.4446901 Z" id="Shape" fill="#3A682E"></path>
            <g id="Group" transform="translate(23.293763, 23.396378)" fill="#294C22">
                <path d="M0.0914305835,2.28053119 C0.16705835,3.32238833 1.00009256,4.15552515 2.04215493,4.23115292 L2.04215493,2.28053119 L0.0914305835,2.28053119 Z" id="Shape"></path>
                <path d="M0.0914305835,1.9726841 L2.04215493,1.9726841 L2.04215493,0.0220623742 C1.00019517,0.0976901408 0.16705835,0.930826962 0.0914305835,1.9726841 Z" id="Shape"></path>
                <path d="M2.3498994,2.28053119 L2.3498994,4.23115292 C3.39185915,4.15552515 4.22489336,3.32238833 4.30062374,2.28053119 L2.3498994,2.28053119 Z" id="Shape"></path>
                <path d="M2.3498994,0.0220623742 L2.3498994,1.9726841 L4.30062374,1.9726841 C4.22499598,0.930826962 3.39185915,0.0976901408 2.3498994,0.0220623742 Z" id="Shape"></path>
            </g>
            <path d="M50.9446901,25.3690624 L46.5835231,25.3690624 C46.5004044,13.8589678 37.1536539,4.5122173 25.6437646,4.42950905 L25.6437646,0.0683420523 C25.5924567,0.0680342052 25.5414567,0.0663923541 25.4901489,0.0663923541 C25.4386358,0.0663923541 25.3874306,0.0680342052 25.3359175,0.0683420523 L25.3359175,4.42950905 C13.8259256,4.51252515 4.47927767,13.859173 4.39615895,25.3690624 L0.0349919517,25.3690624 C0.0345814889,25.4206781 0.0329396378,25.4718833 0.0329396378,25.5236016 C0.0329396378,25.5749095 0.0345814889,25.6257042 0.0349919517,25.6769095 L4.39615895,25.6769095 C4.47876459,37.1866962 13.8256177,46.5334467 25.3359175,46.6164628 L25.3359175,50.9776298 C25.3874306,50.9779376 25.4386358,50.9795795 25.4901489,50.9795795 C25.5414567,50.9795795 25.5924567,50.9779376 25.6437646,50.9776298 L25.6437646,46.6164628 C37.1540644,46.5337545 46.5009175,37.1869014 46.5835231,25.6769095 L50.9446901,25.6769095 C50.9451006,25.6257042 50.9467425,25.5748068 50.9467425,25.5236016 C50.9466398,25.4718833 50.944998,25.4206781 50.9446901,25.3690624 Z M25.3358149,46.3086157 C13.9952414,46.2255996 4.78650905,37.0169698 4.70390342,25.6769095 L9.52684105,25.6769095 C9.60913883,34.3576841 16.6546298,41.4029698 25.3358149,41.4856781 L25.3358149,46.3086157 Z M25.3358149,41.177831 C16.8244588,41.0952254 9.91698592,34.1879577 9.83468813,25.6769095 L14.4521891,25.6769095 C14.5340765,31.6418571 19.3705594,36.47834 25.3358149,36.5604326 L25.3358149,41.177831 Z M25.3358149,36.2525855 C19.5402857,36.170493 14.8418209,31.4722334 14.7600362,25.6769095 L18.9176137,25.6769095 C18.9986801,29.1805171 21.832002,32.013839 25.3358149,32.095008 L25.3358149,36.2525855 Z M25.3358149,31.787161 C22.001831,31.7060946 19.3064245,29.0106881 19.2254608,25.6769095 L23.0748833,25.6769095 C23.151332,26.889006 24.1238209,27.8612897 25.3358149,27.937841 L25.3358149,31.787161 Z M25.3358149,27.6275312 C24.2938551,27.5519034 23.4608209,26.7187666 23.3850905,25.6769095 L25.3358149,25.6769095 L25.3358149,27.6275312 Z M25.3358149,25.3690624 L23.3850905,25.3690624 C23.4607183,24.3272052 24.2938551,23.4940684 25.3358149,23.4184406 L25.3358149,25.3690624 Z M25.3358149,23.1081308 C24.1237183,23.1846821 23.1514346,24.1569658 23.0748833,25.3690624 L19.2254608,25.3690624 C19.3066298,22.0352837 22.0019336,19.3398773 25.3358149,19.2588109 L25.3358149,23.1081308 Z M25.3358149,18.9509638 C21.8321046,19.0321328 18.9988853,21.8654547 18.9176137,25.3690624 L14.7600362,25.3690624 C14.8422314,19.5737384 19.5404909,14.8754789 25.3358149,14.7933863 L25.3358149,18.9509638 Z M25.3358149,14.4855392 C19.3707646,14.5676318 14.5343843,19.4039095 14.4521891,25.3690624 L9.83479074,25.3690624 C9.91760161,16.8580141 16.824664,9.95074648 25.3359175,9.86814085 L25.3359175,14.4855392 L25.3358149,14.4855392 Z M25.3358149,9.56029376 C16.654835,9.64300201 9.60965191,16.6881851 9.52684105,25.3690624 L4.70390342,25.3690624 C4.78702213,14.0288994 13.9955493,4.82037223 25.3358149,4.73735614 L25.3358149,9.56029376 Z M25.643662,9.86814085 C34.1546076,9.95054125 41.0619779,16.8579115 41.1447887,25.3690624 L36.5272877,25.3690624 C36.4450926,19.4039095 31.6087123,14.5675292 25.643662,14.4855392 L25.643662,9.86814085 Z M25.643662,14.7933863 C31.4389859,14.8753763 36.1372455,19.5736358 36.2194406,25.3690624 L32.0618632,25.3690624 C31.9805915,21.8654547 29.1473722,19.0320302 25.643662,18.9509638 L25.643662,14.7933863 Z M25.643662,19.2588109 C28.9775433,19.3397746 31.6728471,22.0351811 31.7540161,25.3690624 L27.9045936,25.3690624 C27.8280423,24.1569658 26.8556559,23.1846821 25.643662,23.1081308 L25.643662,19.2588109 Z M25.643662,23.4184406 C26.6855191,23.4940684 27.5186559,24.3272052 27.5943863,25.3690624 L25.643662,25.3690624 L25.643662,23.4184406 Z M25.643662,25.6769095 L27.5943863,25.6769095 C27.5187586,26.7187666 26.6857243,27.5519034 25.643662,27.6275312 L25.643662,25.6769095 Z M25.643662,27.937841 C26.8557586,27.8612897 27.8281449,26.889006 27.9045936,25.6769095 L31.7540161,25.6769095 C31.6731549,29.0107907 28.9776459,31.7061972 25.643662,31.787161 L25.643662,27.937841 Z M25.643662,32.095008 C29.1474748,32.0139416 31.9807968,29.1805171 32.0618632,25.6769095 L36.2194406,25.6769095 C36.1376559,31.4722334 31.4391911,36.1705956 25.643662,36.2525855 L25.643662,32.095008 Z M25.643662,36.5604326 C31.6089175,36.4784427 36.4454004,31.6420624 36.5272877,25.6769095 L41.1447887,25.6769095 C41.0624909,34.1880604 34.1550181,41.0954306 25.643662,41.177831 L25.643662,36.5604326 Z M25.643662,46.3086157 L25.643662,41.4856781 C34.3247445,41.4031751 41.370338,34.3577867 41.4526358,25.6769095 L46.2755734,25.6769095 C46.1930704,37.0171751 36.984338,46.2259074 25.643662,46.3086157 Z M41.4527384,25.3690624 C41.3699276,16.6880825 34.3245392,9.64279678 25.643662,9.56029376 L25.643662,4.73735614 C36.9838249,4.82006439 46.1924547,14.0286942 46.2755734,25.3690624 L41.4527384,25.3690624 Z" id="Shape" fill="#54C638"></path>
            <path d="M33.6346539,1.40080684 L25.4340181,25.6256016 L34.8646056,1.8641167 C34.4596841,1.69941851 34.0497344,1.54487928 33.6346539,1.40080684 Z" id="Shape" fill="#6EED4A"></path>
            <g id="Group" opacity="0.6" transform="translate(25.346076, 0.000000)" fill="#6EED4A">
                <path d="M0.0878390342,0 L0.0878390342,25.6256016 L8.28847485,1.40080684 C5.7172334,0.508358149 2.95912877,0.0165211268 0.0878390342,0 Z" id="Shape"></path>
            </g>
            <g id="Group" transform="translate(9.235412, 29.245473)" fill="#6EED4A">
                <circle id="Oval" cx="1.37104829" cy="1.35698994" r="1.33400402"></circle>
                <circle id="Oval" cx="29.1799014" cy="5.46161771" r="1.33400402"></circle>
            </g>
        </g>
    </g>
</svg>