<?xml version="1.0" encoding="UTF-8"?>
<svg width="73px" height="73px" viewBox="0 0 73 73" version="1.1" xmlns="http://www.w3.org/2000/svg" xmlns:xlink="http://www.w3.org/1999/xlink">
    <!-- Generator: Sketch 51.3 (57544) - http://www.bohemiancoding.com/sketch -->
    <title>design-and-ux/repetition</title>
    <desc>Created with Sketch.</desc>
    <defs></defs>
    <g id="design-and-ux/repetition" stroke="none" stroke-width="1" fill="none" fill-rule="evenodd">
        <g id="container" transform="translate(2.000000, 2.000000)" fill="#FFFFFF" fill-rule="nonzero" stroke="#462800" stroke-width="2">
            <rect id="mask" x="-1" y="-1" width="71" height="71" rx="14"></rect>
        </g>
        <g id="pattern" transform="translate(8.000000, 8.000000)" fill-rule="nonzero">
            <path d="M57.4342562,27.7563353 L49.8932139,20.294347 L49.8932139,9.74572067 C49.8932139,8.83019609 49.1132737,8.02729045 48.1973075,8.02729045 L37.6486812,8.02729045 L30.1866929,0.50877193 C29.8819596,0.169590643 29.4407591,0 29,0 C28.5587993,0 28.1180404,0.169590643 27.8128655,0.50877193 L20.3508772,8.02729045 L9.80225088,8.02729045 C8.88628469,8.02729045 8.08382066,8.83019609 8.08382066,9.74572067 L8.08382066,20.294347 L0.565302144,27.7563353 C-0.113060429,28.4006914 -0.113060429,29.4862481 0.565302144,30.1306043 L8.08382066,37.5925926 L8.08382066,48.1412189 C8.08382066,49.0567435 8.88628469,49.8596491 9.80225088,49.8596491 L20.3508772,49.8596491 L27.8128655,57.3781676 C28.1180404,57.7173489 28.5587993,57.8869396 29,57.8869396 C29.4407591,57.8869396 29.8819596,57.7173489 30.1866929,57.3781676 L37.6486812,49.8596491 L48.1973075,49.8596491 C49.1132737,49.8596491 49.8932139,49.0567435 49.8932139,48.1412189 L49.8932139,37.5925926 L57.4342562,30.1306043 C58.1130604,29.4862481 58.1130604,28.4006914 57.4342562,27.7563353 Z" id="Shape" fill="#FFF4CA"></path>
            <path d="M57.4342562,30.1306043 L49.8932139,37.5925926 L49.8932139,48.1412189 C49.8932139,49.0567435 49.1132737,49.8596491 48.1973075,49.8596491 L37.6486812,49.8596491 L30.1866929,57.3781676 C29.8819596,57.7173489 29.4407591,57.8869396 29,57.8869396 L29,0 C29.4407591,0 29.8819596,0.169590643 30.1866929,0.50877193 L37.6491228,8.02729045 L48.1977491,8.02729045 C49.1132737,8.02729045 49.8936556,8.83019609 49.8936556,9.74572067 L49.8936556,20.294347 L57.4346979,27.7563353 C58.1130604,28.4006914 58.1130604,29.4862481 57.4342562,30.1306043 Z" id="Shape" fill="#FFE1BA"></path>
            <path d="M36.7671632,28.9434698 L34.5964912,31.1481481 C34.2573099,31.453323 34.0877193,31.8945236 34.0877193,32.3352827 L34.0877193,34.0311891 L32.3918129,34.0311891 C31.9506122,34.0311891 31.5098532,34.2007797 31.2046784,34.539961 L29,36.7106329 L26.79488,34.539961 C26.4901468,34.2007797 26.0489462,34.0311891 25.6081871,34.0311891 L23.9122807,34.0311891 L23.9122807,32.3352827 C23.9122807,31.8945236 23.7426901,31.453323 23.4030672,31.1481481 L21.2328368,28.9434698 L23.4035088,26.7387914 C23.7426901,26.4336166 23.9122807,25.992416 23.9122807,25.5516569 L23.9122807,23.8557505 L25.6081871,23.8557505 C26.0489462,23.8557505 26.4901468,23.6861598 26.79488,23.3469786 L29,21.1763066 L31.2046784,23.3469786 C31.5098532,23.6861598 31.9506122,23.8557505 32.3918129,23.8557505 L34.0877193,23.8557505 L34.0877193,25.5516569 C34.0877193,25.992416 34.2573099,26.4336166 34.5964912,26.7387914 L36.7671632,28.9434698 Z" id="Shape" fill="#61D7B0"></path>
            <path d="M32.8665784,8.04981423 L32.3918129,8.04981423 C31.102659,8.04981423 29.9159661,8.55858616 29,9.37253295 C28.0840339,8.55858616 26.8968994,8.04981423 25.6081871,8.04981423 L25.1334216,8.04981423 L29,4.10418187 L32.8665784,8.04981423 Z" id="Shape" fill="#61D7B0"></path>
            <path d="M4.15055439,28.9434698 L8.11738548,25.089699 L8.11738548,25.5516569 C8.11738548,26.8593597 8.62704075,28.0411945 9.44054581,28.9434698 C8.62704075,29.845745 8.11738548,31.0275798 8.11738548,32.3352827 L8.11738548,32.7972406 L4.15055439,28.9434698 Z" id="Shape" fill="#61D7B0"></path>
            <path d="M32.8665784,49.8371253 L29,53.7827577 L25.1334216,49.8371253 L25.6081871,49.8371253 C26.9309059,49.8371253 28.0840339,49.3283534 29,48.5144066 C29.9159661,49.3283534 31.0690941,49.8371253 32.3918129,49.8371253 L32.8665784,49.8371253 Z" id="Shape" fill="#61D7B0"></path>
            <path d="M37.4795322,35.0248842 L37.4795322,33.037494 L39.8776499,30.6393762 L44.7944536,30.6393762 C45.7302936,30.6393762 46.5115589,31.3994426 46.5115589,32.3352827 L46.5115589,36.1890534 L43.7663103,38.9135447 C43.1038469,39.5760082 42.030656,39.5760082 41.3681926,38.9135447 L37.4795322,35.0248842 Z" id="Shape" fill="#FF9100"></path>
            <path d="M46.5115589,11.4319109 L46.5115589,16.9016509 L46.1851852,16.5752772 C45.264361,15.654453 44.0560277,15.1606969 42.8485776,15.0944505 C42.7823313,13.8870005 42.2890168,12.6791088 41.3681926,11.7582846 L41.0418189,11.4319109 L46.5115589,11.4319109 Z" id="Shape" fill="#06CCAB"></path>
            <path d="M38.970075,43.7097801 L36.2455836,46.4550287 L32.3918129,46.4550287 C31.4559728,46.4550287 30.6959064,45.6737633 30.6959064,44.7379234 L30.6959064,39.8211197 L33.0940242,37.4230019 L35.0814144,37.4230019 L38.970075,41.3116624 C39.6307718,41.9723593 39.6307718,43.0490832 38.970075,43.7097801 Z" id="Shape" fill="#FF9100"></path>
            <path d="M19.029925,43.7097801 C18.3687865,43.0490832 18.3687865,41.9723593 19.029925,41.3116624 L22.9185856,37.4230019 L24.9059758,37.4230019 L27.3040936,39.8211197 L27.3040936,44.738365 C27.3040936,45.6737633 26.5435856,46.4550287 25.6081871,46.4550287 L21.7539748,46.4550287 L19.029925,43.7097801 Z" id="Shape" fill="#FDBF00"></path>
            <path d="M19.029925,14.1771595 L21.7539748,11.4319109 L25.6081871,11.4319109 C26.5435856,11.4319109 27.3040936,12.2131762 27.3040936,13.1490162 L27.3040936,18.0658199 L24.9059758,20.4639376 L22.9185856,20.4639376 L19.029925,16.5752772 C18.3692282,15.9145803 18.3692282,14.8378563 19.029925,14.1771595 Z" id="Shape" fill="#FDBF00"></path>
            <path d="M38.970075,14.1771595 C39.6307718,14.8378563 39.6307718,15.9145803 38.970075,16.5752772 L35.0814144,20.4639376 L33.0940242,20.4639376 L30.6959064,18.0658199 L30.6959064,13.1485746 C30.6959064,12.2131762 31.4559728,11.4319109 32.3918129,11.4319109 L36.2455836,11.4319109 L38.970075,14.1771595 Z" id="Shape" fill="#FF9100"></path>
            <path d="M20.5204678,22.8620554 L20.5204678,24.8494456 L18.1223501,27.2475634 L13.2051048,27.2475634 C12.2692647,27.2475634 11.4884411,26.487497 11.4884411,25.5516569 L11.4884411,21.6978862 L14.2336897,18.9733948 C14.8961531,18.3109314 15.969344,18.3109314 16.6318074,18.9733948 L20.5204678,22.8620554 Z" id="Shape" fill="#FDBF00"></path>
            <path d="M11.4884411,32.3352827 C11.4884411,31.3994426 12.2692647,30.6393762 13.2051048,30.6393762 L18.1223501,30.6393762 L20.5204678,33.037494 L20.5204678,35.0248842 L16.6318074,38.9135447 C15.969344,39.5760082 14.8961531,39.5760082 14.2336897,38.9135447 L11.4884411,36.1890534 L11.4884411,32.3352827 Z" id="Shape" fill="#FDBF00"></path>
            <path d="M46.5115589,25.5516569 C46.5115589,26.487497 45.7302936,27.2475634 44.7944536,27.2475634 L39.8776499,27.2475634 L37.4795322,24.8494456 L37.4795322,22.8620554 L41.3681926,18.9733948 C42.030656,18.3109314 43.1038469,18.3109314 43.7663103,18.9733948 L46.5115589,21.6978862 L46.5115589,25.5516569 Z" id="Shape" fill="#FF9100"></path>
            <path d="M11.4884411,11.4319109 L16.9577394,11.4319109 L16.6318074,11.7582846 C15.7109832,12.6791088 15.2172271,13.8874421 15.1509807,15.0948922 C13.9435307,15.1611385 12.735639,15.654453 11.8143732,16.5752772 L11.4884411,16.9016509 L11.4884411,11.4319109 Z" id="Shape" fill="#61D7B0"></path>
            <path d="M11.4884411,46.4550287 L11.4884411,40.9852887 L11.8148148,41.3116624 C12.735639,42.2324865 13.9435307,42.7262427 15.1509807,42.7924891 C15.2172271,43.9999391 15.7109832,45.2078308 16.6318074,46.128655 L16.9581811,46.4550287 L11.4884411,46.4550287 Z" id="Shape" fill="#61D7B0"></path>
            <g id="Group" transform="translate(28.943470, 4.070175)" fill="#06CCAB">
                <path d="M17.5680891,42.3848532 L12.0983491,42.3848532 L12.4247228,42.0584795 C13.345547,41.1376554 13.8388615,39.929322 13.9051078,38.7218719 C15.1125579,38.6556256 16.3208912,38.1623111 17.2417154,37.2414869 L17.5680891,36.9151132 L17.5680891,42.3848532 Z" id="Shape"></path>
                <path d="M20.9387031,28.7270651 L20.9387031,28.2651072 C20.9387031,26.9574044 20.4290479,25.7755696 19.6155428,24.8732943 C20.4290479,23.9710191 20.9387031,22.7891843 20.9387031,21.4814815 L20.9387031,21.0195236 L24.9059758,24.8732943 L20.9387031,28.7270651 Z" id="Shape"></path>
                <path d="M3.44834308,45.7669499 L3.92310858,45.7669499 L0.0565302144,49.7125823 L0.0565302144,44.4442312 C0.972496288,45.258178 2.12562436,45.7669499 3.44834308,45.7669499 Z" id="Shape"></path>
                <path d="M3.44834308,3.9796388 C2.15918918,3.9796388 0.972496288,4.48841073 0.0565302144,5.30235751 L0.0565302144,0.0340064288 L3.92310858,3.9796388 L3.44834308,3.9796388 Z" id="Shape"></path>
                <path d="M7.82369338,24.8732943 L5.65302144,27.0779727 C5.31384016,27.3831476 5.14424951,27.8243481 5.14424951,28.2651072 L5.14424951,29.9610136 L3.44834308,29.9610136 C3.00714239,29.9610136 2.56638343,30.1306043 2.26120858,30.4697856 L0.0565302144,32.6404575 L0.0565302144,17.1061312 L2.26120858,19.2768031 C2.56638343,19.6159844 3.00714239,19.785575 3.44834308,19.785575 L5.14424951,19.785575 L5.14424951,21.4814815 C5.14424951,21.9222406 5.31384016,22.3634411 5.65302144,22.668616 L7.82369338,24.8732943 Z" id="Shape"></path>
            </g>
        </g>
    </g>
</svg>