<?xml version="1.0" encoding="UTF-8"?>
<svg width="73px" height="73px" viewBox="0 0 73 73" version="1.1" xmlns="http://www.w3.org/2000/svg" xmlns:xlink="http://www.w3.org/1999/xlink">
    <!-- Generator: Sketch 51.3 (57544) - http://www.bohemiancoding.com/sketch -->
    <title>design-and-ux/typography</title>
    <desc>Created with Sketch.</desc>
    <defs></defs>
    <g id="design-and-ux/typography" stroke="none" stroke-width="1" fill="none" fill-rule="evenodd">
        <g id="container" transform="translate(2.000000, 2.000000)" fill="#FFFFFF" fill-rule="nonzero" stroke="#242D32" stroke-width="2">
            <rect id="mask" x="-1" y="-1" width="71" height="71" rx="14"></rect>
        </g>
        <g id="font" transform="translate(15.000000, 12.000000)" fill-rule="nonzero">
            <path d="M5.46212066,1.58197455 L3.0143684,1.58197455 L3.0143684,0.716196928 C3.0143684,0.320796541 2.69394495,0 2.29817147,0 C1.90277109,0 1.58197455,0.320796541 1.58197455,0.716196928 L1.58197455,1.58197455 L0.716196928,1.58197455 C0.320796541,1.58197455 0,1.90277109 0,2.29817147 C0,2.69394495 0.320796541,3.0143684 0.716196928,3.0143684 L1.58197455,3.0143684 L1.58197455,5.46212066 C1.58197455,5.85789404 1.90277109,6.17831759 2.29817147,6.17831759 C2.69394495,6.17831759 3.0143684,5.85789404 3.0143684,5.46212066 L3.0143684,3.0143684 L5.46212066,3.0143684 C5.85789404,3.0143684 6.17831759,2.69357186 6.17831759,2.29817147 C6.17831759,1.90277109 5.85789404,1.58197455 5.46212066,1.58197455 Z" id="Shape" fill="#393E4D"></path>
            <path d="M37.101985,3.0143684 L39.5497372,3.0143684 L39.5497372,5.46212066 C39.5497372,5.85789404 39.8705338,6.17831759 40.2659341,6.17831759 C40.6617076,6.17831759 40.9821311,5.85789404 40.9821311,5.46212066 L40.9821311,3.0143684 L41.8479088,3.0143684 C42.2436822,3.0143684 42.5641057,2.69394495 42.5641057,2.29817147 C42.5641057,1.90277109 42.2436822,1.58197455 41.8479088,1.58197455 L40.9821311,1.58197455 L40.9821311,0.716196928 C40.9821311,0.320796541 40.6617076,0 40.2659341,0 C39.8705338,0 39.5497372,0.320796541 39.5497372,0.716196928 L39.5497372,1.58197455 L37.101985,1.58197455 C36.7065846,1.58197455 36.3857881,1.90277109 36.3857881,2.29817147 C36.3857881,2.69394495 36.7065846,3.0143684 37.101985,3.0143684 Z" id="Shape" fill="#393E4D"></path>
            <path d="M41.8479088,45.8780086 L40.9821311,45.8780086 L40.9821311,43.4302563 C40.9821311,43.0344829 40.6617076,42.7140594 40.2659341,42.7140594 C39.8705338,42.7140594 39.5497372,43.0344829 39.5497372,43.4302563 L39.5497372,45.8780086 L37.101985,45.8780086 C36.7065846,45.8780086 36.3857881,46.198432 36.3857881,46.5942055 C36.3857881,46.9896059 36.7065846,47.3104024 37.101985,47.3104024 L39.5497372,47.3104024 L39.5497372,48.17618 C39.5497372,48.5715804 39.8705338,48.892377 40.2659341,48.892377 C40.6617076,48.892377 40.9821311,48.5715804 40.9821311,48.17618 L40.9821311,47.3104024 L41.8479088,47.3104024 C42.2436822,47.3104024 42.5641057,46.9896059 42.5641057,46.5942055 C42.5641057,46.198432 42.2436822,45.8780086 41.8479088,45.8780086 Z" id="Shape" fill="#393E4D"></path>
            <path d="M5.46212066,45.8780086 L3.0143684,45.8780086 L3.0143684,43.4302563 C3.0143684,43.0344829 2.69357186,42.7140594 2.29817147,42.7140594 C1.90277109,42.7140594 1.58197455,43.0344829 1.58197455,43.4302563 L1.58197455,45.8780086 L0.716196928,45.8780086 C0.320796541,45.8780086 0,46.198432 0,46.5942055 C0,46.9896059 0.320796541,47.3104024 0.716196928,47.3104024 L1.58197455,47.3104024 L1.58197455,48.17618 C1.58197455,48.5715804 1.90277109,48.892377 2.29817147,48.892377 C2.69357186,48.892377 3.0143684,48.5715804 3.0143684,48.17618 L3.0143684,47.3104024 L5.46212066,47.3104024 C5.85789404,47.3104024 6.17831759,46.9896059 6.17831759,46.5942055 C6.17831759,46.198432 5.85789404,45.8780086 5.46212066,45.8780086 Z" id="Shape" fill="#393E4D"></path>
            <path d="M32.3560613,8.62606975 L9.19902729,8.62606975 C8.88270698,8.62606975 8.62606975,8.88270698 8.62606975,9.19902729 L8.62606975,17.5449597 C8.62606975,17.861653 8.88270698,18.1179172 9.19902729,18.1179172 L11.2170614,18.1179172 C11.5337547,18.1179172 11.7900189,17.861653 11.7900189,17.5449597 L11.7900189,15.5272986 C11.7900189,15.2106053 12.0466562,14.954341 12.3629765,14.954341 L17.5449597,14.954341 C17.861653,14.954341 18.1179172,15.2106053 18.1179172,15.5272986 L18.1179172,36.5290275 C18.1179172,36.8453478 17.861653,37.101985 17.5449597,37.101985 L15.5272986,37.101985 C15.2106053,37.101985 14.954341,37.3582493 14.954341,37.6749426 L14.954341,39.6929766 C14.954341,40.0092969 15.2106053,40.2659341 15.5272986,40.2659341 L27.03718,40.2659341 C27.3535003,40.2659341 27.6101376,40.0092969 27.6101376,39.6929766 L27.6101376,37.6749426 C27.6101376,37.3582493 27.3535003,37.101985 27.03718,37.101985 L25.018773,37.101985 C24.7024527,37.101985 24.4458155,36.8453478 24.4458155,36.5290275 L24.4458155,15.5272986 C24.4458155,15.2106053 24.7024527,14.954341 25.018773,14.954341 L30.2011292,14.954341 C30.5174495,14.954341 30.7740868,15.2106053 30.7740868,15.5272986 L30.7740868,17.5449597 C30.7740868,17.861653 31.030351,18.1179172 31.3470443,18.1179172 L33.3650784,18.1179172 C33.6813987,18.1179172 33.9380359,17.861653 33.9380359,17.5449597 L33.9380359,9.19902729 C33.9380359,8.88270698 33.6813987,8.62606975 33.3650784,8.62606975 L32.3560613,8.62606975 Z" id="Shape" fill="#393E4D"></path>
            <g id="Group" transform="translate(1.527887, 1.527887)" fill="#C3DDF4">
                <path d="M10.2621322,0.054087765 L7.88935684,0.054087765 C7.49395635,0.054087765 7.17315991,0.37451131 7.17315991,0.770284693 C7.17315991,1.16568508 7.49395635,1.48648162 7.88935684,1.48648162 L10.2621322,1.48648162 C10.6579055,1.48648162 10.9783291,1.16568508 10.9783291,0.770284693 C10.9783291,0.37451131 10.6579055,0.054087765 10.2621322,0.054087765 Z" id="Shape"></path>
                <path d="M17.3812042,0.054087765 L15.0080558,0.054087765 C14.6126555,0.054087765 14.2918589,0.37451131 14.2918589,0.770284693 C14.2918589,1.16568508 14.6126555,1.48648162 15.0080558,1.48648162 L17.3812042,1.48648162 C17.7766046,1.48648162 18.0974011,1.16568508 18.0974011,0.770284693 C18.0974011,0.37451131 17.7766046,0.054087765 17.3812042,0.054087765 Z" id="Shape"></path>
                <path d="M31.6189753,0.054087765 L29.2462,0.054087765 C28.8504266,0.054087765 28.5300031,0.37451131 28.5300031,0.770284693 C28.5300031,1.16568508 28.8504266,1.48648162 29.2462,1.48648162 L31.6189753,1.48648162 C32.0147487,1.48648162 32.3351722,1.16568508 32.3351722,0.770284693 C32.3351722,0.37451131 32.0147487,0.054087765 31.6189753,0.054087765 Z" id="Shape"></path>
                <path d="M24.5002762,0.054087765 L22.1271279,0.054087765 C21.7317275,0.054087765 21.410931,0.37451131 21.410931,0.770284693 C21.410931,1.16568508 21.7317275,1.48648162 22.1271279,1.48648162 L24.5002762,1.48648162 C24.8956766,1.48648162 25.2164732,1.16568508 25.2164732,0.770284693 C25.2164732,0.37451131 24.8956766,0.054087765 24.5002762,0.054087765 Z" id="Shape"></path>
                <path d="M10.2621322,44.3497488 L7.88935684,44.3497488 C7.49395635,44.3497488 7.17315991,44.6701722 7.17315991,45.0659457 C7.17315991,45.461346 7.49395635,45.7821426 7.88935684,45.7821426 L10.2621322,45.7821426 C10.6579055,45.7821426 10.9783291,45.461346 10.9783291,45.0659457 C10.9783291,44.6701722 10.6579055,44.3497488 10.2621322,44.3497488 Z" id="Shape"></path>
                <path d="M17.3812042,44.3497488 L15.0080558,44.3497488 C14.6126555,44.3497488 14.2918589,44.6701722 14.2918589,45.0659457 C14.2918589,45.461346 14.6126555,45.7821426 15.0080558,45.7821426 L17.3812042,45.7821426 C17.7766046,45.7821426 18.0974011,45.461346 18.0974011,45.0659457 C18.0974011,44.6701722 17.7766046,44.3497488 17.3812042,44.3497488 Z" id="Shape"></path>
                <path d="M31.6189753,44.3497488 L29.2462,44.3497488 C28.8504266,44.3497488 28.5300031,44.6701722 28.5300031,45.0659457 C28.5300031,45.461346 28.8504266,45.7821426 29.2462,45.7821426 L31.6189753,45.7821426 C32.0147487,45.7821426 32.3351722,45.461346 32.3351722,45.0659457 C32.3351722,44.6701722 32.0147487,44.3497488 31.6189753,44.3497488 Z" id="Shape"></path>
                <path d="M24.5002762,44.3497488 L22.1271279,44.3497488 C21.7317275,44.3497488 21.410931,44.6701722 21.410931,45.0659457 C21.410931,45.461346 21.7317275,45.7821426 22.1271279,45.7821426 L24.5002762,45.7821426 C24.8956766,45.7821426 25.2164732,45.461346 25.2164732,45.0659457 C25.2164732,44.6701722 24.8956766,44.3497488 24.5002762,44.3497488 Z" id="Shape"></path>
                <path d="M38.7380473,6.77738643 C38.3426471,6.77738643 38.0218504,7.09780997 38.0218504,7.49358336 L38.0218504,9.86635868 C38.0218504,10.2621322 38.3426471,10.5825556 38.7380473,10.5825556 C39.1338208,10.5825556 39.4542443,10.2621322 39.4542443,9.86635868 L39.4542443,7.49358336 C39.4542443,7.09780997 39.1338208,6.77738643 38.7380473,6.77738643 Z" id="Shape"></path>
                <path d="M38.7380473,13.8960855 C38.3426471,13.8960855 38.0218504,14.216882 38.0218504,14.6122824 L38.0218504,16.9850578 C38.0218504,17.3808312 38.3426471,17.7012548 38.7380473,17.7012548 C39.1338208,17.7012548 39.4542443,17.3808312 39.4542443,16.9850578 L39.4542443,14.6122824 C39.4542443,14.216882 39.1338208,13.8960855 38.7380473,13.8960855 Z" id="Shape"></path>
                <path d="M38.7380473,28.1342297 C38.3426471,28.1342297 38.0218504,28.4546531 38.0218504,28.8504266 L38.0218504,31.2232019 C38.0218504,31.6186023 38.3426471,31.9393988 38.7380473,31.9393988 C39.1338208,31.9393988 39.4542443,31.6186023 39.4542443,31.2232019 L39.4542443,28.8504266 C39.4542443,28.4546531 39.1338208,28.1342297 38.7380473,28.1342297 Z" id="Shape"></path>
                <path d="M38.7380473,35.2540478 C38.3426471,35.2540478 38.0218504,35.5744713 38.0218504,35.9702447 L38.0218504,38.3430201 C38.0218504,38.7384204 38.3426471,39.059217 38.7380473,39.059217 C39.1338208,39.059217 39.4542443,38.7384204 39.4542443,38.3430201 L39.4542443,35.9702447 C39.4542443,35.5744713 39.1338208,35.2540478 38.7380473,35.2540478 Z" id="Shape"></path>
                <path d="M38.7380473,21.0151575 C38.3426471,21.0151575 38.0218504,21.3359542 38.0218504,21.7313545 L38.0218504,24.1045029 C38.0218504,24.4999033 38.3426471,24.8206998 38.7380473,24.8206998 C39.1338208,24.8206998 39.4542443,24.4999033 39.4542443,24.1045029 L39.4542443,21.7313545 C39.4542443,21.3359542 39.1338208,21.0151575 38.7380473,21.0151575 Z" id="Shape"></path>
                <path d="M0.770284693,6.77738643 C0.37451131,6.77738643 0.054087765,7.09780997 0.054087765,7.49358336 L0.054087765,9.86635868 C0.054087765,10.2621322 0.37451131,10.5825556 0.770284693,10.5825556 C1.16568508,10.5825556 1.48648162,10.2621322 1.48648162,9.86635868 L1.48648162,7.49358336 C1.48648162,7.09780997 1.16568508,6.77738643 0.770284693,6.77738643 Z" id="Shape"></path>
                <path d="M0.770284693,13.8960855 C0.37451131,13.8960855 0.054087765,14.216882 0.054087765,14.6122824 L0.054087765,16.9850578 C0.054087765,17.3808312 0.37451131,17.7012548 0.770284693,17.7012548 C1.16568508,17.7012548 1.48648162,17.3808312 1.48648162,16.9850578 L1.48648162,14.6122824 C1.48648162,14.216882 1.16568508,13.8960855 0.770284693,13.8960855 Z" id="Shape"></path>
                <path d="M0.770284693,28.1342297 C0.37451131,28.1342297 0.054087765,28.4546531 0.054087765,28.8504266 L0.054087765,31.2232019 C0.054087765,31.6186023 0.37451131,31.9393988 0.770284693,31.9393988 C1.16568508,31.9393988 1.48648162,31.6186023 1.48648162,31.2232019 L1.48648162,28.8504266 C1.48648162,28.4546531 1.16568508,28.1342297 0.770284693,28.1342297 Z" id="Shape"></path>
                <path d="M0.770284693,35.2540478 C0.37451131,35.2540478 0.054087765,35.5744713 0.054087765,35.9702447 L0.054087765,38.3430201 C0.054087765,38.7384204 0.37451131,39.059217 0.770284693,39.059217 C1.16568508,39.059217 1.48648162,38.7384204 1.48648162,38.3430201 L1.48648162,35.9702447 C1.48648162,35.5744713 1.16568508,35.2540478 0.770284693,35.2540478 Z" id="Shape"></path>
                <path d="M0.770284693,21.0151575 C0.37451131,21.0151575 0.054087765,21.3359542 0.054087765,21.7313545 L0.054087765,24.1045029 C0.054087765,24.4999033 0.37451131,24.8206998 0.770284693,24.8206998 C1.16568508,24.8206998 1.48648162,24.4999033 1.48648162,24.1045029 L1.48648162,21.7313545 C1.48648162,21.3359542 1.16568508,21.0151575 0.770284693,21.0151575 Z" id="Shape"></path>
            </g>
            <path d="M25.019146,14.954341 L22.7273159,14.954341 C22.4106226,14.954341 22.1543583,15.2106053 22.1543583,15.5272986 L22.1543583,36.5290275 C22.1543583,36.8453478 22.4106226,37.101985 22.7273159,37.101985 L25.019146,37.101985 C24.7024527,37.101985 24.4461885,36.8453478 24.4461885,36.5290275 L24.4461885,15.5272986 C24.4461885,15.2106053 24.7024527,14.954341 25.019146,14.954341 Z" id="Shape" fill="#313542"></path>
            <path d="M27.03718,37.101985 L24.7453499,37.101985 C25.0616702,37.101985 25.3183074,37.3582493 25.3183074,37.6749426 L25.3183074,39.6929766 C25.3183074,40.0092969 25.0616702,40.2659341 24.7453499,40.2659341 L27.03718,40.2659341 C27.3535003,40.2659341 27.6101376,40.0092969 27.6101376,39.6929766 L27.6101376,37.6749426 C27.6101376,37.3582493 27.3535003,37.101985 27.03718,37.101985 Z" id="Shape" fill="#313542"></path>
            <path d="M9.49856176,15.5272986 L9.49856176,17.5449597 C9.49856176,17.8142795 9.31242514,18.0395831 9.06212931,18.1007583 C9.10614553,18.1115758 9.15202692,18.1179172 9.19902729,18.1179172 L11.2170614,18.1179172 C11.5337547,18.1179172 11.7900189,17.861653 11.7900189,17.5449597 L11.7900189,15.5272986 C11.7900189,15.2106053 12.0466562,14.954341 12.3629765,14.954341 L10.0711463,14.954341 C9.754826,14.954341 9.49856176,15.2106053 9.49856176,15.5272986 Z" id="Shape" fill="#313542"></path>
            <path d="M33.3650784,8.62606975 L31.0732482,8.62606975 C31.3899415,8.62606975 31.6462058,8.88270698 31.6462058,9.19902729 L31.6462058,17.5449597 C31.6462058,17.8142795 31.4604422,18.0395831 31.2101462,18.1007583 C31.2541625,18.1115758 31.2996708,18.1179172 31.3470443,18.1179172 L33.3650784,18.1179172 C33.6813987,18.1179172 33.9380359,17.861653 33.9380359,17.5449597 L33.9380359,9.19902729 C33.9380359,8.88270698 33.6813987,8.62606975 33.3650784,8.62606975 Z" id="Shape" fill="#313542"></path>
        </g>
    </g>
</svg>