<?xml version="1.0" encoding="UTF-8"?>
<svg width="73px" height="73px" viewBox="0 0 73 73" version="1.1" xmlns="http://www.w3.org/2000/svg" xmlns:xlink="http://www.w3.org/1999/xlink">
    <!-- Generator: Sketch 51.3 (57544) - http://www.bohemiancoding.com/sketch -->
    <title>web-components/constructible-stylesheets</title>
    <desc>Created with Sketch.</desc>
    <defs>
        <rect id="path-1" x="0" y="0" width="69" height="69" rx="14"></rect>
    </defs>
    <g id="web-components/constructible-stylesheets" stroke="none" stroke-width="1" fill="none" fill-rule="evenodd">
        <g id="container" transform="translate(2.000000, 2.000000)" fill="#FFFFFF" fill-rule="nonzero" stroke="#2C396B" stroke-width="2">
            <rect id="mask" x="-1" y="-1" width="71" height="71" rx="14"></rect>
        </g>
        <g id="shredder" transform="translate(10.000000, 10.000000)" fill-rule="nonzero">
            <polygon id="Shape" fill="#E0F4FF" points="9.41992188 0 43.5800781 0 43.5800781 17.2871094 9.41992188 17.2871094"></polygon>
            <polygon id="Shape" fill="#BBDCFF" points="26.5 0 43.5800781 0 43.5800781 17.2871094 26.5 17.2871094"></polygon>
            <polygon id="Shape" fill="#FF641A" points="53 15.734375 53 40.578125 42.0273438 40.578125 42.0273438 34.3671875 35.8164062 34.3671875 35.8164062 40.578125 29.6054688 40.578125 29.6054688 34.3671875 23.3945312 34.3671875 23.3945312 40.578125 17.1835938 40.578125 17.1835938 34.3671875 10.9726562 34.3671875 10.9726562 40.578125 0 40.578125 0 15.734375"></polygon>
            <polygon id="Shape" fill="#BBDCFF" points="15.6308594 6.41796875 37.3691406 6.41796875 37.3691406 9.5234375 15.6308594 9.5234375"></polygon>
            <polygon id="Shape" fill="#9ABADB" points="26.5 6.41796875 37.3691406 6.41796875 37.3691406 9.5234375 26.5 9.5234375"></polygon>
            <polygon id="Shape" fill="#F03800" points="53 15.734375 53 40.578125 42.0273438 40.578125 42.0273438 34.3671875 35.8164062 34.3671875 35.8164062 40.578125 29.6054688 40.578125 29.6054688 34.3671875 26.5 34.3671875 26.5 15.734375"></polygon>
            <polygon id="Shape" fill="#E0F4FF" points="18.7363281 53 9.41992188 53 9.41992188 32.8144531 18.7363281 32.8144531"></polygon>
            <polygon id="Shape" fill="#E0F4FF" points="21.8417969 32.8144531 21.8417969 53 31.1582031 53 31.1582031 32.8144531"></polygon>
            <g id="Group" transform="translate(26.500000, 21.945312)" fill="#BBDCFF">
                <polygon id="Shape" points="17.0800781 31.0546875 7.76367188 31.0546875 7.76367188 10.8691406 17.0800781 10.8691406"></polygon>
                <polygon id="Shape" points="4.65820312 0 13.9746094 0 13.9746094 3.10546875 4.65820312 3.10546875"></polygon>
                <polygon id="Shape" points="17.0800781 0 20.1855469 0 20.1855469 3.10546875 17.0800781 3.10546875"></polygon>
                <polygon id="Shape" points="0 10.8691406 4.65820312 10.8691406 4.65820312 31.0546875 0 31.0546875"></polygon>
            </g>
            <polygon id="Shape" fill="#61729B" points="6.31445312 31.2617188 46.6855469 31.2617188 46.6855469 34.3671875 6.31445312 34.3671875"></polygon>
            <polygon id="Shape" fill="#47568C" points="26.5 31.2617188 46.6855469 31.2617188 46.6855469 34.3671875 26.5 34.3671875"></polygon>
        </g>
        <g id="Group-2" transform="translate(2.000000, 2.000000)">
            <mask id="mask-2" fill="white">
                <use xlink:href="#path-1"></use>
            </mask>
            <g id="Mask" fill-rule="nonzero"></g>
            <g id="Group-3" mask="url(#mask-2)">
                <g transform="translate(36.179470, 20.534830) rotate(-339.000000) translate(-36.179470, -20.534830) translate(-13.820530, 12.034830)">
                    <rect id="Rectangle-5" stroke="#2C396B" stroke-width="2" fill="#FFFFFF" fill-rule="nonzero" transform="translate(50.136196, 8.394249) rotate(-90.000000) translate(-50.136196, -8.394249) " x="43" y="-40" width="14.2723918" height="96.7884973"></rect>
                    <path d="M19.2,11.1851699 C19.1466664,11.1851699 19.1000002,11.1651701 19.06,11.1251699 C19.0199998,11.0851697 19,11.0385035 19,10.9851699 L19,5.79316989 C19,5.73450293 19.0186665,5.68517009 19.056,5.64516989 C19.0933335,5.60516969 19.141333,5.58516989 19.2,5.58516989 L22.976,5.58516989 C23.034667,5.58516989 23.0839998,5.60516969 23.124,5.64516989 C23.1640002,5.68517009 23.184,5.73450293 23.184,5.79316989 L23.184,6.58516989 C23.184,6.64383685 23.1640002,6.69183637 23.124,6.72916989 C23.0839998,6.76650341 23.034667,6.78516989 22.976,6.78516989 L20.448,6.78516989 L20.448,7.80116989 L22.8,7.80116989 C22.858667,7.80116989 22.9079998,7.82116969 22.948,7.86116989 C22.9880002,7.90117009 23.008,7.95050293 23.008,8.00916989 L23.008,8.73716989 C23.008,8.79583685 22.9880002,8.84516969 22.948,8.88516989 C22.9079998,8.92517009 22.858667,8.94516989 22.8,8.94516989 L20.448,8.94516989 L20.448,9.98516989 L23.04,9.98516989 C23.098667,9.98516989 23.1479998,10.0051697 23.188,10.0451699 C23.2280002,10.0851701 23.248,10.1345029 23.248,10.1931699 L23.248,10.9851699 C23.248,11.0438369 23.2280002,11.0918364 23.188,11.1291699 C23.1479998,11.1665034 23.098667,11.1851699 23.04,11.1851699 L19.2,11.1851699 Z M23.94,11.1851699 C23.8973331,11.1851699 23.8586668,11.1678367 23.824,11.1331699 C23.7893332,11.0985031 23.772,11.0598368 23.772,11.0171699 C23.772,10.9851697 23.7799999,10.9531701 23.796,10.9211699 L25.54,8.32916989 L23.932,5.84916989 C23.9159999,5.81716973 23.908,5.78517005 23.908,5.75316989 C23.908,5.71050301 23.9253332,5.67183673 23.96,5.63716989 C23.9946668,5.60250305 24.0333331,5.58516989 24.076,5.58516989 L25.3,5.58516989 C25.4173339,5.58516989 25.513333,5.64383597 25.588,5.76116989 L26.492,7.15316989 L27.428,5.76116989 C27.502667,5.64383597 27.5959994,5.58516989 27.708,5.58516989 L28.876,5.58516989 C28.9186669,5.58516989 28.9573332,5.60250305 28.992,5.63716989 C29.0266668,5.67183673 29.044,5.71050301 29.044,5.75316989 C29.044,5.78517005 29.0360001,5.81716973 29.02,5.84916989 L27.396,8.31316989 L29.156,10.9211699 C29.1720001,10.9531701 29.18,10.9851697 29.18,11.0171699 C29.18,11.0598368 29.1626668,11.0985031 29.128,11.1331699 C29.0933332,11.1678367 29.0546669,11.1851699 29.012,11.1851699 L27.748,11.1851699 C27.6306661,11.1851699 27.5373337,11.1318371 27.468,11.0251699 L26.444,9.53716989 L25.444,11.0251699 C25.3746663,11.1318371 25.2813339,11.1851699 25.164,11.1851699 L23.94,11.1851699 Z M30.104,11.1851699 C30.0506664,11.1851699 30.0040002,11.1651701 29.964,11.1251699 C29.9239998,11.0851697 29.904,11.0385035 29.904,10.9851699 L29.904,5.79316989 C29.904,5.73450293 29.9226665,5.68517009 29.96,5.64516989 C29.9973335,5.60516969 30.045333,5.58516989 30.104,5.58516989 L32.368,5.58516989 C33.0613368,5.58516989 33.6053314,5.74250165 34,6.05716989 C34.3946686,6.37183813 34.592,6.83316685 34.592,7.44116989 C34.592,8.04917293 34.3946686,8.50383505 34,8.80516989 C33.6053314,9.10650473 33.0613368,9.25716989 32.368,9.25716989 L31.456,9.25716989 L31.456,10.9851699 C31.456,11.0385035 31.4373335,11.0851697 31.4,11.1251699 C31.3626665,11.1651701 31.314667,11.1851699 31.256,11.1851699 L30.104,11.1851699 Z M32.328,8.11316989 C32.5466678,8.11316989 32.718666,8.05583713 32.844,7.94116989 C32.969334,7.82650265 33.032,7.65717101 33.032,7.43316989 C33.032,7.22516885 32.9746672,7.05717053 32.86,6.92916989 C32.7453328,6.80116925 32.5680012,6.73716989 32.328,6.73716989 L31.432,6.73716989 L31.432,8.11316989 L32.328,8.11316989 Z M35.636,11.1851699 C35.5826664,11.1851699 35.5360002,11.1651701 35.496,11.1251699 C35.4559998,11.0851697 35.436,11.0385035 35.436,10.9851699 L35.436,5.79316989 C35.436,5.73450293 35.4546665,5.68517009 35.492,5.64516989 C35.5293335,5.60516969 35.577333,5.58516989 35.636,5.58516989 L39.412,5.58516989 C39.470667,5.58516989 39.5199998,5.60516969 39.56,5.64516989 C39.6000002,5.68517009 39.62,5.73450293 39.62,5.79316989 L39.62,6.58516989 C39.62,6.64383685 39.6000002,6.69183637 39.56,6.72916989 C39.5199998,6.76650341 39.470667,6.78516989 39.412,6.78516989 L36.884,6.78516989 L36.884,7.80116989 L39.236,7.80116989 C39.294667,7.80116989 39.3439998,7.82116969 39.384,7.86116989 C39.4240002,7.90117009 39.444,7.95050293 39.444,8.00916989 L39.444,8.73716989 C39.444,8.79583685 39.4240002,8.84516969 39.384,8.88516989 C39.3439998,8.92517009 39.294667,8.94516989 39.236,8.94516989 L36.884,8.94516989 L36.884,9.98516989 L39.476,9.98516989 C39.534667,9.98516989 39.5839998,10.0051697 39.624,10.0451699 C39.6640002,10.0851701 39.684,10.1345029 39.684,10.1931699 L39.684,10.9851699 C39.684,11.0438369 39.6640002,11.0918364 39.624,11.1291699 C39.5839998,11.1665034 39.534667,11.1851699 39.476,11.1851699 L35.636,11.1851699 Z M40.872,11.1851699 C40.8186664,11.1851699 40.7720002,11.1651701 40.732,11.1251699 C40.6919998,11.0851697 40.672,11.0385035 40.672,10.9851699 L40.672,5.79316989 C40.672,5.73450293 40.6906665,5.68517009 40.728,5.64516989 C40.7653335,5.60516969 40.813333,5.58516989 40.872,5.58516989 L43.072,5.58516989 C43.7760035,5.58516989 44.3266647,5.74516829 44.724,6.06516989 C45.1213353,6.38517149 45.32,6.83583365 45.32,7.41716989 C45.32,7.79050509 45.2333342,8.10783525 45.06,8.36916989 C44.8866658,8.63050453 44.6480015,8.83316917 44.344,8.97716989 L45.424,10.9291699 C45.4400001,10.9611701 45.448,10.9905031 45.448,11.0171699 C45.448,11.0598368 45.4320002,11.0985031 45.4,11.1331699 C45.3679998,11.1678367 45.3280002,11.1851699 45.28,11.1851699 L44.152,11.1851699 C43.9973326,11.1851699 43.8880003,11.1131706 43.824,10.9691699 L42.944,9.23316989 L42.176,9.23316989 L42.176,10.9851699 C42.176,11.0438369 42.1560002,11.0918364 42.116,11.1291699 C42.0759998,11.1665034 42.026667,11.1851699 41.968,11.1851699 L40.872,11.1851699 Z M43.064,8.05716989 C43.2933345,8.05716989 43.4679994,7.99983713 43.588,7.88516989 C43.7080006,7.77050265 43.768,7.61183757 43.768,7.40916989 C43.768,7.20650221 43.7080006,7.04383717 43.588,6.92116989 C43.4679994,6.79850261 43.2933345,6.73716989 43.064,6.73716989 L42.176,6.73716989 L42.176,8.05716989 L43.064,8.05716989 Z M46.532,11.1851699 C46.4786664,11.1851699 46.4320002,11.1651701 46.392,11.1251699 C46.3519998,11.0851697 46.332,11.0385035 46.332,10.9851699 L46.332,5.78516989 C46.332,5.72650293 46.3519998,5.67850341 46.392,5.64116989 C46.4320002,5.60383637 46.4786664,5.58516989 46.532,5.58516989 L47.676,5.58516989 C47.734667,5.58516989 47.7826665,5.60383637 47.82,5.64116989 C47.8573335,5.67850341 47.876,5.72650293 47.876,5.78516989 L47.876,10.9851699 C47.876,11.0385035 47.8573335,11.0851697 47.82,11.1251699 C47.7826665,11.1651701 47.734667,11.1851699 47.676,11.1851699 L46.532,11.1851699 Z M49.272,11.1851699 C49.213333,11.1851699 49.1640002,11.1665034 49.124,11.1291699 C49.0839998,11.0918364 49.064,11.0438369 49.064,10.9851699 L49.064,5.79316989 C49.064,5.73450293 49.0839998,5.68517009 49.124,5.64516989 C49.1640002,5.60516969 49.213333,5.58516989 49.272,5.58516989 L50.176,5.58516989 C50.309334,5.58516989 50.405333,5.64383597 50.464,5.76116989 L51.84,8.22516989 L53.224,5.76116989 C53.282667,5.64383597 53.378666,5.58516989 53.512,5.58516989 L54.416,5.58516989 C54.474667,5.58516989 54.5239998,5.60516969 54.564,5.64516989 C54.6040002,5.68517009 54.624,5.73450293 54.624,5.79316989 L54.624,10.9851699 C54.624,11.0438369 54.6040002,11.0918364 54.564,11.1291699 C54.5239998,11.1665034 54.474667,11.1851699 54.416,11.1851699 L53.4,11.1851699 C53.3466664,11.1851699 53.3000002,11.1651701 53.26,11.1251699 C53.2199998,11.0851697 53.2,11.0385035 53.2,10.9851699 L53.2,8.07316989 L52.336,9.65716989 C52.2666663,9.77983717 52.1733339,9.84116989 52.056,9.84116989 L51.624,9.84116989 C51.5173328,9.84116989 51.4240004,9.77983717 51.344,9.65716989 L50.488,8.07316989 L50.488,10.9851699 C50.488,11.0438369 50.4680002,11.0918364 50.428,11.1291699 C50.3879998,11.1665034 50.338667,11.1851699 50.28,11.1851699 L49.272,11.1851699 Z M56.012,11.1851699 C55.9586664,11.1851699 55.9120002,11.1651701 55.872,11.1251699 C55.8319998,11.0851697 55.812,11.0385035 55.812,10.9851699 L55.812,5.79316989 C55.812,5.73450293 55.8306665,5.68517009 55.868,5.64516989 C55.9053335,5.60516969 55.9533331,5.58516989 56.012,5.58516989 L59.788,5.58516989 C59.846667,5.58516989 59.8959998,5.60516969 59.936,5.64516989 C59.9760002,5.68517009 59.996,5.73450293 59.996,5.79316989 L59.996,6.58516989 C59.996,6.64383685 59.9760002,6.69183637 59.936,6.72916989 C59.8959998,6.76650341 59.846667,6.78516989 59.788,6.78516989 L57.26,6.78516989 L57.26,7.80116989 L59.612,7.80116989 C59.670667,7.80116989 59.7199998,7.82116969 59.76,7.86116989 C59.8000002,7.90117009 59.82,7.95050293 59.82,8.00916989 L59.82,8.73716989 C59.82,8.79583685 59.8000002,8.84516969 59.76,8.88516989 C59.7199998,8.92517009 59.670667,8.94516989 59.612,8.94516989 L57.26,8.94516989 L57.26,9.98516989 L59.852,9.98516989 C59.910667,9.98516989 59.9599998,10.0051697 60,10.0451699 C60.0400002,10.0851701 60.06,10.1345029 60.06,10.1931699 L60.06,10.9851699 C60.06,11.0438369 60.0400002,11.0918364 60,11.1291699 C59.9599998,11.1665034 59.910667,11.1851699 59.852,11.1851699 L56.012,11.1851699 Z M61.248,11.1851699 C61.1946664,11.1851699 61.1480002,11.1651701 61.108,11.1251699 C61.0679998,11.0851697 61.048,11.0385035 61.048,10.9851699 L61.048,5.79316989 C61.048,5.73450293 61.0666665,5.68517009 61.104,5.64516989 C61.1413335,5.60516969 61.1893331,5.58516989 61.248,5.58516989 L62.152,5.58516989 C62.2746673,5.58516989 62.3653331,5.63583605 62.424,5.73716989 L64.312,8.72116989 L64.312,5.79316989 C64.312,5.73450293 64.3306665,5.68517009 64.368,5.64516989 C64.4053335,5.60516969 64.4533331,5.58516989 64.512,5.58516989 L65.528,5.58516989 C65.586667,5.58516989 65.6346665,5.60516969 65.672,5.64516989 C65.7093335,5.68517009 65.728,5.73450293 65.728,5.79316989 L65.728,10.9771699 C65.728,11.0358369 65.7093335,11.0851697 65.672,11.1251699 C65.6346665,11.1651701 65.586667,11.1851699 65.528,11.1851699 L64.624,11.1851699 C64.5013327,11.1851699 64.410667,11.1345037 64.352,11.0331699 L62.472,8.16916989 L62.472,10.9851699 C62.472,11.0438369 62.4520002,11.0918364 62.412,11.1291699 C62.3719998,11.1665034 62.322667,11.1851699 62.264,11.1851699 L61.248,11.1851699 Z M68.356,11.1851699 C68.2973331,11.1851699 68.2480002,11.1665034 68.208,11.1291699 C68.1679998,11.0918364 68.148,11.0438369 68.148,10.9851699 L68.148,6.88916989 L66.74,6.88916989 C66.6813331,6.88916989 66.6320002,6.87050341 66.592,6.83316989 C66.5519998,6.79583637 66.532,6.74783685 66.532,6.68916989 L66.532,5.79316989 C66.532,5.73450293 66.5519998,5.68517009 66.592,5.64516989 C66.6320002,5.60516969 66.6813331,5.58516989 66.74,5.58516989 L71.084,5.58516989 C71.142667,5.58516989 71.1919998,5.60516969 71.232,5.64516989 C71.2720002,5.68517009 71.292,5.73450293 71.292,5.79316989 L71.292,6.68916989 C71.292,6.74783685 71.2720002,6.79583637 71.232,6.83316989 C71.1919998,6.87050341 71.142667,6.88916989 71.084,6.88916989 L69.676,6.88916989 L69.676,10.9851699 C69.676,11.0438369 69.6560002,11.0918364 69.616,11.1291699 C69.5759998,11.1665034 69.526667,11.1851699 69.468,11.1851699 L68.356,11.1851699 Z M71.216,11.1851699 C71.1733331,11.1851699 71.1346669,11.1678367 71.1,11.1331699 C71.0653332,11.0985031 71.048,11.0598368 71.048,11.0171699 C71.048,10.9851697 71.0506667,10.96117 71.056,10.9451699 L72.92,5.81716989 C72.9733336,5.66250245 73.0799992,5.58516989 73.24,5.58516989 L74.488,5.58516989 C74.6480008,5.58516989 74.7546664,5.66250245 74.808,5.81716989 L76.672,10.9451699 C76.6773334,10.96117 76.68,10.9851697 76.68,11.0171699 C76.68,11.0598368 76.6626669,11.0985031 76.628,11.1331699 C76.5933332,11.1678367 76.5546669,11.1851699 76.512,11.1851699 L75.472,11.1851699 C75.3439994,11.1851699 75.2533336,11.1265038 75.2,11.0091699 L74.912,10.2331699 L72.816,10.2331699 L72.528,11.0091699 C72.4746664,11.1265038 72.3840007,11.1851699 72.256,11.1851699 L71.216,11.1851699 Z M73.152,9.03316989 L74.576,9.03316989 L73.864,6.99316989 L73.152,9.03316989 Z M77.588,11.1851699 C77.5346664,11.1851699 77.4880002,11.1651701 77.448,11.1251699 C77.4079998,11.0851697 77.388,11.0385035 77.388,10.9851699 L77.388,5.78516989 C77.388,5.72650293 77.4079998,5.67850341 77.448,5.64116989 C77.4880002,5.60383637 77.5346664,5.58516989 77.588,5.58516989 L78.708,5.58516989 C78.766667,5.58516989 78.8146665,5.60383637 78.852,5.64116989 C78.8893335,5.67850341 78.908,5.72650293 78.908,5.78516989 L78.908,9.92916989 L81.308,9.92916989 C81.366667,9.92916989 81.4159998,9.94916969 81.456,9.98916989 C81.4960002,10.0291701 81.516,10.0785029 81.516,10.1371699 L81.516,10.9851699 C81.516,11.0438369 81.4960002,11.0918364 81.456,11.1291699 C81.4159998,11.1665034 81.366667,11.1851699 81.308,11.1851699 L77.588,11.1851699 Z" id="EXPERIMENTAL" stroke="none" fill="#2C396B" fill-rule="evenodd"></path>
                </g>
            </g>
        </g>
    </g>
</svg>