<?xml version="1.0" encoding="UTF-8"?>
<svg width="73px" height="73px" viewBox="0 0 73 73" version="1.1" xmlns="http://www.w3.org/2000/svg" xmlns:xlink="http://www.w3.org/1999/xlink">
    <!-- Generator: Sketch 51.3 (57544) - http://www.bohemiancoding.com/sketch -->
    <title>web-components/constructible-stylesheets</title>
    <desc>Created with Sketch.</desc>
    <defs>
        <rect id="path-1" x="0" y="0" width="69" height="69" rx="14"></rect>
    </defs>
    <g id="web-components/constructible-stylesheets" stroke="none" stroke-width="1" fill="none" fill-rule="evenodd">
        <g id="container" transform="translate(2.000000, 2.000000)">
            <mask id="mask-2" fill="white">
                <use xlink:href="#path-1"></use>
            </mask>
            <rect stroke="#000000" stroke-width="2" x="-1" y="-1" width="71" height="71" rx="14"></rect>
            <g id="stack-of-paper-outline" mask="url(#mask-2)" fill="#000000" fill-rule="nonzero">
                <g transform="translate(6.000000, 17.000000)" id="Shape">
                    <path d="M57.2810224,11.1315527 L47.5188626,6.99353994 C43.8387348,5.24242173 39.0829201,0.488460064 39.035853,0.440651757 C38.806262,0.210504792 38.4779042,0.106364217 38.1564026,0.160658147 C37.8350863,0.216249201 37.561393,0.424530351 37.4226006,0.720089457 C35.7867412,4.18915655 31.0288882,5.21759105 30.9184473,5.24242173 L0.735469649,13.5399425 C0.347073482,13.6474185 0.0607795527,13.9752204 0.00889456869,14.3734377 C-0.0442875399,14.7720256 0.148242812,15.1639425 0.494019169,15.3672204 L16.635623,24.83623 C16.7905367,24.9270288 16.9654633,24.9739105 17.1418722,24.9739105 C17.2376741,24.9739105 17.3349585,24.9601981 17.4290927,24.9318466 L57.1770671,13.0096038 C57.58177,12.8886006 57.8660256,12.5272588 57.8886326,12.1062492 C57.9121661,11.6852396 57.6688626,11.2957316 57.2810224,11.1315527 Z M17.2719553,22.8905431 L3.55226837,14.841885 L31.3844856,7.18810863 C31.5966581,7.14511821 36.1493802,6.1741278 38.5483195,2.75120128 C40.1821406,4.28736741 43.6676997,7.37823003 46.6988946,8.81896486 L53.9466709,11.8907412 L17.2719553,22.8905431 Z"></path>
                    <path d="M56.603738,15.0959361 L17.2728818,26.893099 L1.50707348,17.6446006 C1.03158466,17.364607 0.417488818,17.5248946 0.138051118,18.000754 C-0.141942492,18.476984 0.0179744409,19.0907093 0.494204473,19.3697764 L17.0121597,29.0596677 L57.1774377,17.012345 C57.7070351,16.8535399 58.0079681,16.2959617 57.8487923,15.7663642 C57.6903578,15.2382492 57.1324089,14.9400958 56.603738,15.0959361 Z"></path>
                    <path d="M56.603738,19.0986773 L17.2728818,30.895655 L1.50707348,21.6466006 C1.03158466,21.3660511 0.417488818,21.5272652 0.138051118,22.0033099 C-0.141942492,22.4791693 0.0179744409,23.0928946 0.494204473,23.3725176 L17.0121597,33.0622236 L57.1774377,21.014901 C57.7070351,20.8560958 58.0079681,20.2987029 57.8487923,19.7689201 C57.6903578,19.2406198 57.1324089,18.9407987 56.603738,19.0986773 Z"></path>
                    <path d="M56.603738,23.1006773 L17.2728818,34.8982109 L1.50707348,25.6491565 C1.03158466,25.368607 0.417488818,25.5307476 0.138051118,26.0056805 C-0.141942492,26.4815399 0.0179744409,27.0954505 0.494204473,27.3748882 L17.0121597,37.0645942 L57.1774377,25.016901 C57.7070351,24.8586518 58.0079681,24.3007029 57.8487923,23.7709201 C57.6903578,23.243361 57.1324089,22.9442812 56.603738,23.1006773 Z"></path>
                    <path d="M56.603738,27.1032332 L17.2728818,38.9007668 L1.50707348,29.6517125 C1.03158466,29.3711629 0.417488818,29.532377 0.138051118,30.0084217 C-0.141942492,30.4842812 0.0179744409,31.0980064 0.494204473,31.3774441 L17.0121597,41.0673355 L57.1774377,29.0194569 C57.7070351,28.8612077 58.0079681,28.3032588 57.8487923,27.773476 C57.6903578,27.2459169 57.1324089,26.9459105 56.603738,27.1032332 Z"></path>
                </g>
            </g>
        </g>
    </g>
</svg>