<?xml version="1.0" encoding="UTF-8"?>
<svg width="73px" height="73px" viewBox="0 0 73 73" version="1.1" xmlns="http://www.w3.org/2000/svg" xmlns:xlink="http://www.w3.org/1999/xlink">
    <!-- Generator: Sketch 51.3 (57544) - http://www.bohemiancoding.com/sketch -->
    <title>web-components/constructible-stylesheets</title>
    <desc>Created with Sketch.</desc>
    <defs>
        <rect id="path-1" x="0" y="0" width="69" height="69" rx="14"></rect>
    </defs>
    <g id="web-components/constructible-stylesheets" stroke="none" stroke-width="1" fill="none" fill-rule="evenodd">
        <g id="container" transform="translate(2.000000, 2.000000)" fill="#FFFFFF" fill-rule="nonzero" stroke="#2C396B" stroke-width="2">
            <rect id="mask" x="-1" y="-1" width="71" height="71" rx="14"></rect>
        </g>
        <g id="shredder" transform="translate(10.000000, 10.000000)" fill-rule="nonzero">
            <polygon id="Shape" fill="#E0F4FF" points="9.41992188 0 43.5800781 0 43.5800781 17.2871094 9.41992188 17.2871094"></polygon>
            <polygon id="Shape" fill="#BBDCFF" points="26.5 0 43.5800781 0 43.5800781 17.2871094 26.5 17.2871094"></polygon>
            <polygon id="Shape" fill="#FF641A" points="53 15.734375 53 40.578125 42.0273438 40.578125 42.0273438 34.3671875 35.8164062 34.3671875 35.8164062 40.578125 29.6054688 40.578125 29.6054688 34.3671875 23.3945312 34.3671875 23.3945312 40.578125 17.1835938 40.578125 17.1835938 34.3671875 10.9726562 34.3671875 10.9726562 40.578125 0 40.578125 0 15.734375"></polygon>
            <polygon id="Shape" fill="#BBDCFF" points="15.6308594 6.41796875 37.3691406 6.41796875 37.3691406 9.5234375 15.6308594 9.5234375"></polygon>
            <polygon id="Shape" fill="#9ABADB" points="26.5 6.41796875 37.3691406 6.41796875 37.3691406 9.5234375 26.5 9.5234375"></polygon>
            <polygon id="Shape" fill="#F03800" points="53 15.734375 53 40.578125 42.0273438 40.578125 42.0273438 34.3671875 35.8164062 34.3671875 35.8164062 40.578125 29.6054688 40.578125 29.6054688 34.3671875 26.5 34.3671875 26.5 15.734375"></polygon>
            <polygon id="Shape" fill="#E0F4FF" points="18.7363281 53 9.41992188 53 9.41992188 32.8144531 18.7363281 32.8144531"></polygon>
            <polygon id="Shape" fill="#E0F4FF" points="21.8417969 32.8144531 21.8417969 53 31.1582031 53 31.1582031 32.8144531"></polygon>
            <g id="Group" transform="translate(26.500000, 21.945312)" fill="#BBDCFF">
                <polygon id="Shape" points="17.0800781 31.0546875 7.76367188 31.0546875 7.76367188 10.8691406 17.0800781 10.8691406"></polygon>
                <polygon id="Shape" points="4.65820312 0 13.9746094 0 13.9746094 3.10546875 4.65820312 3.10546875"></polygon>
                <polygon id="Shape" points="17.0800781 0 20.1855469 0 20.1855469 3.10546875 17.0800781 3.10546875"></polygon>
                <polygon id="Shape" points="0 10.8691406 4.65820312 10.8691406 4.65820312 31.0546875 0 31.0546875"></polygon>
            </g>
            <polygon id="Shape" fill="#61729B" points="6.31445312 31.2617188 46.6855469 31.2617188 46.6855469 34.3671875 6.31445312 34.3671875"></polygon>
            <polygon id="Shape" fill="#47568C" points="26.5 31.2617188 46.6855469 31.2617188 46.6855469 34.3671875 26.5 34.3671875"></polygon>
        </g>
        <g id="Group-2" transform="translate(2.000000, 2.000000)">
            <mask id="mask-2" fill="white">
                <use xlink:href="#path-1"></use>
            </mask>
            <g id="Mask" fill-rule="nonzero"></g>
            <g id="Group-3" mask="url(#mask-2)">
                <g transform="translate(36.179470, 18.534830) rotate(21.000000) translate(-36.179470, -18.534830) translate(-13.820530, 10.034830)">
                    <rect id="Rectangle-5" stroke="#2C396B" stroke-width="2" fill="#FFFFFF" fill-rule="nonzero" transform="translate(50.136196, 8.394249) rotate(-90.000000) translate(-50.136196, -8.394249) " x="43" y="-40" width="14.2723918" height="96.7884973"></rect>
                    <text id="EXPERIMENTAL" stroke="none" fill="none" font-family="Rubik-Bold, Rubik" font-size="8" font-weight="bold" letter-spacing="0.100000001">
                        <tspan x="19.406" y="11" fill="#2C396B">EXPERIMENTA</tspan>
                        <tspan x="77.794" y="11" fill="#2C396B">L</tspan>
                    </text>
                </g>
            </g>
        </g>
    </g>
</svg>