<?xml version="1.0" encoding="UTF-8"?>
<svg width="73px" height="73px" viewBox="0 0 73 73" version="1.1" xmlns="http://www.w3.org/2000/svg" xmlns:xlink="http://www.w3.org/1999/xlink">
    <!-- Generator: Sketch 51.3 (57544) - http://www.bohemiancoding.com/sketch -->
    <title>web-components/custom-elements</title>
    <desc>Created with Sketch.</desc>
    <defs>
        <rect id="path-1" x="0" y="0" width="69" height="69" rx="14"></rect>
    </defs>
    <g id="web-components/custom-elements" stroke="none" stroke-width="1" fill="none" fill-rule="evenodd">
        <g id="container" transform="translate(2.000000, 2.000000)">
            <mask id="mask-2" fill="white">
                <use xlink:href="#path-1"></use>
            </mask>
            <rect stroke="#3E8FC9" stroke-width="2" x="-1" y="-1" width="71" height="71" rx="14"></rect>
            <g id="jigsaw" mask="url(#mask-2)" fill-rule="nonzero">
                <g transform="translate(9.000000, 8.000000)">
                    <path d="M59.8244934,55.7896118 L59.8244934,45.1486648 C59.8244934,43.9833723 59.2556866,42.8913415 58.3011243,42.2225202 L51.5871873,37.5221469 C51.137122,37.2069778 50.6005215,37.038229 50.0504417,37.038229 L44.6447193,37.038229 L44.7340326,52.3161655 C44.7670621,53.9082689 45.8073365,55.3030186 47.3235029,55.7896118 L59.8244934,55.7896118 Z" id="Shape" fill="#FEC9A3"></path>
                    <path d="M54.4669261,55.7896118 L48.2164308,55.7896118 C46.2439225,55.7896118 44.6447193,54.1904086 44.6447193,52.2179002 L44.6447193,48.6461887 L50.8952145,48.6461887 L54.4669261,55.7896118 Z" id="Shape" fill="#FABD91"></path>
                    <path d="M19.6443107,28.4038175 C20.2595234,28.4047436 20.8676363,28.5332602 21.4301664,28.7806212 L21.4301664,21.2603944 L14.8028676,21.2603944 C15.7940608,19.0030711 14.7680889,16.3689441 12.5098395,15.3778538 C10.2515901,14.3866606 7.61838914,15.4126325 6.62729886,17.6708819 C6.12455103,18.8146693 6.12455103,20.1175332 6.62729886,21.2613205 L0,21.2613205 L0,37.3339196 C0,40.2930937 2.3983932,42.6914869 5.35756734,42.6914869 L21.4301664,42.6914869 L21.4301664,36.957116 C19.1728431,37.9483091 16.5387161,36.9223373 15.5476258,34.6640879 C14.5564327,32.4067645 15.5824045,29.7726375 17.840654,28.7815472 C18.4085347,28.5305849 19.0228213,28.4028915 19.6443107,28.4038175 Z" id="Shape" fill="#FDB62F"></path>
                    <path d="M0.000102895585,37.3056658 C0.000102895585,40.2648399 2.39849609,42.6632331 5.35767023,42.6632331 L21.4302693,42.6632331 L21.4302693,36.9288621 C19.1836471,37.9182032 16.5602213,36.899434 15.5708802,34.6528118 C15.3414231,34.131337 15.2137297,33.5697329 15.1958258,33 C10.4088145,35.1349805 5.24057506,36.2842213 0,36.3797084 L0,37.3056658 L0.000102895585,37.3056658 Z" id="Shape" fill="#FFA719"></path>
                    <path d="M53.230224,44.0923388 L47.580639,29.001878 L41.3757265,31.3386367 C43.1052984,33.100415 43.0785456,35.9309696 41.3167674,37.6596155 C39.5549891,39.3883642 36.7244345,39.3624345 34.9957887,37.6006563 C34.115414,36.7033039 33.6527955,35.477303 33.7224558,34.2218739 L27.5183665,36.5586327 L30.1614454,43.6207683 C29.5479819,43.5859896 28.9336953,43.6797275 28.3577887,43.8958082 C26.0522073,44.7904853 24.909346,47.384483 25.8040231,49.6899615 C26.6835746,51.9553107 29.2096612,53.1063007 31.4964127,52.281181 C32.0723193,52.0641742 32.5973955,51.7284259 33.0366567,51.2971905 L35.0512494,56.6825397 L50.0988027,51.0151537 C52.8721474,49.9651043 54.2731737,46.8683588 53.230224,44.0923388 Z" id="Shape" fill="#4398D1"></path>
                    <path d="M50.3166326,36.3104485 C44.1554508,45.5254685 32.6055242,48.7435279 25.840654,49.8516105 C26.7898657,52.1098599 29.3900372,53.1706105 31.6481837,52.2213987 C32.165234,52.0043919 32.6367016,51.6901488 33.0366567,51.2971905 L35.0512494,56.6825397 L50.0988027,51.0151537 C52.8713242,49.9651043 54.2714244,46.8702109 53.2303269,44.095014 L50.3166326,36.3104485 Z" id="Shape" fill="#3E8FC9"></path>
                    <path d="M23.2160222,6.25049523 C22.6008095,6.25142129 21.9926966,6.37993787 21.4301664,6.62729886 L21.4301664,0 L5.35756734,0 C2.3983932,0 0,2.3983932 0,5.35756734 L0,21.4301664 L6.62729886,21.4301664 C5.63610569,19.1728431 6.66207757,16.5387161 8.92032698,15.5476258 C11.1776503,14.5564327 13.8117773,15.5824045 14.8028676,17.840654 C15.3056154,18.9844413 15.3056154,20.2873052 14.8028676,21.4310925 L21.4301664,21.4310925 L21.4301664,14.8037937 C23.6874898,15.7949868 26.3216168,14.7690149 27.3127071,12.5107655 C28.3037973,10.2525161 27.2779284,7.6193152 25.0196789,6.62822492 C24.4517982,6.37726259 23.8375116,6.24956917 23.2160222,6.25049523 Z" id="Shape" fill="#88B337"></path>
                    <rect id="Rectangle" fill="#80A834" x="21" y="3" width="8" height="14"></rect>
                    <path d="M23.2160222,6.01885758 C22.6008095,6.01978364 21.9926966,6.14830022 21.4301664,6.39566121 L21.4301664,5.1 C14.7440113,11.2549052 5.68528978,14.6542667 0,16.3106798 L0,21.1985288 L6.62729886,21.1985288 C5.63610569,18.9412055 6.66207757,16.3070785 8.92032698,15.3159882 C11.1776503,14.324795 13.8117773,15.3507669 14.8028676,17.6090163 C15.3056154,18.7528036 15.3056154,20.0556675 14.8028676,21.1994549 L21.4301664,21.1994549 L21.4301664,14.572156 C23.6874898,15.5633492 26.3216168,14.5373773 27.3127071,12.2791279 C28.3037973,10.0208785 27.2779284,7.38767755 25.0196789,6.39658727 C24.4517982,6.14562494 23.8375116,6.01793152 23.2160222,6.01885758 Z" id="Shape" fill="#80A834"></path>
                    <path d="M37.0736281,0 L21.0009261,0 L21.0009261,6.62729886 C23.2582494,5.63610569 25.8923764,6.66207757 26.8834667,8.92032698 C27.8746598,11.1776503 26.848688,13.8117773 24.5904386,14.8028676 C23.4466512,15.3056154 22.1437873,15.3056154 21,14.8028676 L21,21.4301664 L27.6272989,21.4301664 C26.6361057,23.6874898 27.6620776,26.3216168 29.920327,27.3127071 C32.1776503,28.3039002 34.8117773,27.2779284 35.8028676,25.0196789 C36.3056154,23.8758916 36.3056154,22.5730277 35.8028676,21.4292404 L42.4310925,21.4292404 L42.4310925,5.35756734 C42.4310925,2.3983932 40.0326993,0 37.0736281,0 Z" id="Shape" fill="#E8594A"></path>
                    <path d="M42.4301664,6 C37.3262367,13.1005157 28.1121429,17.1338168 21,19.304605 L21,21.5628544 L27.6272989,21.5628544 C26.6361057,23.8201777 27.6620776,26.4543047 29.920327,27.445395 C32.1776503,28.4365882 34.8117773,27.4106163 35.8028676,25.1523669 C36.3056154,24.0085796 36.3056154,22.7057156 35.8028676,21.5619283 L42.4301664,21.5619283 L42.4301664,6 Z" id="Shape" fill="#D65245"></path>
                    <path d="M49.1255133,44.1977038 C48.2709655,43.3261782 46.8717913,43.3118757 46.0002657,44.1664236 C45.1287401,45.0209714 45.1144376,46.4201456 45.9689855,47.2916712 C45.9796866,47.3023723 45.9895646,47.3130735 46.0002657,47.3229515 L49.1094616,50.4321474 C49.1094616,53.3913215 51.5078548,55.7897147 54.467029,55.7897147 L59.8245963,55.7897147 L59.8245963,54.8967868 L49.1255133,44.1977038 Z" id="Shape" fill="#FEC9A3"></path>
                </g>
            </g>
        </g>
    </g>
</svg>