<?xml version="1.0" encoding="UTF-8"?>
<svg width="73px" height="73px" viewBox="0 0 73 73" version="1.1" xmlns="http://www.w3.org/2000/svg" xmlns:xlink="http://www.w3.org/1999/xlink">
    <!-- Generator: Sketch 51.3 (57544) - http://www.bohemiancoding.com/sketch -->
    <title>web-components/form-participation</title>
    <desc>Created with Sketch.</desc>
    <defs>
        <rect id="path-1" x="0" y="0" width="69" height="69" rx="14"></rect>
    </defs>
    <g id="web-components/form-participation" stroke="none" stroke-width="1" fill="none" fill-rule="evenodd">
        <g id="container" transform="translate(2.000000, 2.000000)" fill="#FFFFFF" fill-rule="nonzero" stroke="#155688" stroke-width="2">
            <rect id="mask" x="-1" y="-1" width="71" height="71" rx="14"></rect>
        </g>
        <g id="participation" transform="translate(9.000000, 9.000000)" fill-rule="nonzero">
            <path d="M37.3333333,12.1333333 L37.3333333,27.0666667 C37.3359682,27.5618845 37.1372016,28.0369029 36.7826667,28.3826667 C36.7031157,28.4621931 36.6189713,28.5369881 36.5306667,28.6066667 C36.2163054,28.8187922 35.8459022,28.9325125 35.4666667,28.9333333 C34.4370116,28.9302582 33.6030751,28.0963217 33.6,27.0666667 L33.6,30.8 C33.6018469,30.8499641 33.5987204,30.899988 33.5906667,30.9493333 C33.5086458,31.9158686 32.7033229,32.6604888 31.7333333,32.6666667 C31.5890229,32.6654882 31.4451935,32.6498545 31.304,32.62 C30.4633396,32.4160903 29.8701944,31.6650299 29.8666667,30.8 L29.8666667,33.6 C29.867607,33.780708 29.8392389,33.9603729 29.7826667,34.132 C29.6042311,34.7336402 29.1336402,35.2042311 28.532,35.3826667 C28.1861754,35.4946667 27.8138246,35.4946667 27.468,35.3826667 C26.8675273,35.2022734 26.3977266,34.7324727 26.2173333,34.132 C26.1607611,33.9603729 26.132393,33.780708 26.1333333,33.6 L26.1333333,30.8 C26.1359682,31.2952178 25.9372016,31.7702362 25.5826667,32.116 C25.3394157,32.3627754 25.0324824,32.5372428 24.696,32.62 C24.5548065,32.6498545 24.4109771,32.6654882 24.2666667,32.6666667 C23.2949311,32.6649224 22.4870707,31.9179561 22.4093333,30.9493333 C22.4012796,30.899988 22.3981531,30.8499641 22.4,30.8 L22.4,22.4 C22.4024277,22.593776 22.3708376,22.7864752 22.3066667,22.9693333 C22.226348,23.2336491 22.0820894,23.47408 21.8866667,23.6693333 C21.8771804,23.6870408 21.8645266,23.7028581 21.8493333,23.716 C21.4903993,24.0807754 20.9959756,24.2799176 20.484415,24.2657567 C19.9728545,24.2515959 19.4902047,24.0254067 19.152,23.6413333 C18.8372154,23.3049821 18.6634971,22.8606641 18.6666667,22.4 L18.6666667,11.2 L22.4,7.46666667 L22.4,5.6 L34.5333333,5.6 L34.5333333,7.46666667 L37.3333333,12.1333333 Z" id="Shape" fill="#FFA733"></path>
            <rect id="Rectangle-path" fill="#FF9811" x="32.6666667" y="20.5333333" width="1.86666667" height="5.14266667" rx="0.933333333"></rect>
            <rect id="Rectangle-path" fill="#FF9811" x="28.9333333" y="20.5333333" width="1.86666667" height="2.55733333" rx="0.933333333"></rect>
            <rect id="Rectangle-path" fill="#FF9811" x="25.2" y="20.5333333" width="1.86666667" height="3.276" rx="0.933333333"></rect>
            <path d="M32.9373333,30.296 C32.9211004,30.7607874 32.7273733,31.2016834 32.396,31.528 L30.6413333,33.2826667 L29.7826667,34.132 L28.532,35.3826667 L28,35.924 L26.4693333,37.4453333 C26.818963,37.1056794 27.2885758,36.9178343 27.776,36.9226667 C27.8517533,36.9181436 27.927691,36.9276358 28,36.9506667 C28.414287,36.9833887 28.8024769,37.1658711 29.092,37.464 C29.4425171,37.8141274 29.6394684,38.2892361 29.6394684,38.7846667 C29.6394684,39.2800973 29.4425171,39.7552059 29.092,40.1053333 L28,41.1973333 L27.0666667,42.1306667 L21.1773333,48.0293333 L15.8946667,48.0293333 L14.5786667,49.3453333 L5.992,40.768 L7.31733333,39.4426667 L8.63333333,34.1693333 L19.152,23.6413333 L19.1893333,23.604 C19.5419783,23.2540072 20.017832,23.0562933 20.5146667,23.0533333 C21.0090838,23.0546996 21.4826154,23.2528441 21.8306667,23.604 C21.851595,23.6237326 21.870367,23.6456333 21.8866667,23.6693333 C22.5615148,24.404195 22.5368126,25.5404933 21.8306667,26.2453333 L22.4,25.676 L24.472,23.604 C24.8227433,23.2511632 25.2998251,23.0529391 25.7973333,23.0533333 C25.9104432,23.0518978 26.0232974,23.0644372 26.1333333,23.0906667 C27.0519507,23.2575198 27.7035111,24.0809642 27.6546667,25.0133333 C27.6384337,25.4781207 27.4447067,25.9190167 27.1133333,26.2453333 L29.092,24.2666667 C29.445238,23.9244765 29.9162257,23.7307369 30.408,23.7253333 C31.1622549,23.7247352 31.8427536,24.1781137 32.1327067,24.8744095 C32.4226598,25.5707054 32.2650834,26.373077 31.7333333,26.908 L30.6413333,28 L29.8666667,28.7746667 L29.7546667,28.8866667 C29.7896515,28.8528408 29.8270866,28.8216449 29.8666667,28.7933333 C30.1761786,28.5177104 30.5724525,28.3592008 30.9866667,28.3453333 C31.0171437,28.337616 31.0485983,28.3344706 31.08,28.336 C31.5900522,28.3379121 32.0771072,28.5484546 32.4279442,28.9186846 C32.7787813,29.2889146 32.9628397,29.7865824 32.9373333,30.296 Z" id="Shape" fill="#FFB655"></path>
            <polygon id="Shape" fill="#3D9AE2" points="51.324 39.4426667 55.2813333 43.4093333 44.7253333 53.9653333 40.768 50.008 41.4213333 49.3453333 50.008 40.768"></polygon>
            <polygon id="Shape" fill="#3D9AE2" points="36.4 0 36.4 5.6 34.5333333 5.6 22.4 5.6 21.4666667 5.6 21.4666667 0"></polygon>
            <polygon id="Shape" fill="#3D9AE2" points="14.5786667 49.3453333 15.232 50.008 11.2746667 53.9653333 0.718666667 43.4093333 4.676 39.4426667 5.992 40.768"></polygon>
            <path d="M50.008,40.768 L41.4213333,49.3453333 L40.1053333,48.0293333 L34.8226667,48.0293333 L28,41.1973333 L26.908,40.1053333 C26.5574829,39.7552059 26.3605316,39.2800973 26.3605316,38.7846667 C26.3605316,38.2892361 26.5574829,37.8141274 26.908,37.464 C27.1975231,37.1658711 27.585713,36.9833887 28,36.9506667 C28.072309,36.9276358 28.1482467,36.9181436 28.224,36.9226667 C28.7114242,36.9178343 29.181037,37.1056794 29.5306667,37.4453333 L28,35.924 L27.468,35.3826667 L26.2173333,34.132 L25.3586667,33.2826667 L23.604,31.528 C23.2726267,31.2016834 23.0788996,30.7607874 23.0626667,30.296 C23.0371603,29.7865824 23.2212187,29.2889146 23.5720558,28.9186846 C23.9228928,28.5484546 24.4099478,28.3379121 24.92,28.336 C24.9514017,28.3344706 24.9828563,28.337616 25.0133333,28.3453333 C25.4275475,28.3592008 25.8238214,28.5177104 26.1333333,28.7933333 C26.1729134,28.8216449 26.2103485,28.8528408 26.2453333,28.8866667 L26.1333333,28.7746667 L25.3586667,28 L24.2666667,26.908 C23.7349166,26.373077 23.5773402,25.5707054 23.8672933,24.8744095 C24.1572464,24.1781137 24.8377451,23.7247352 25.592,23.7253333 C26.0837743,23.7307369 26.554762,23.9244765 26.908,24.2666667 L28.8866667,26.2453333 C28.5552933,25.9190167 28.3615663,25.4781207 28.3453333,25.0133333 C28.2964889,24.0809642 28.9480493,23.2575198 29.8666667,23.0906667 C29.9767026,23.0644372 30.0895568,23.0518978 30.2026667,23.0533333 C30.7001749,23.0529391 31.1772567,23.2511632 31.528,23.604 L33.6,25.676 L34.1693333,26.2453333 C33.6368785,25.7108321 33.4774692,24.9088678 33.7650348,24.2113681 C34.0526005,23.5138685 34.7308903,23.0572714 35.4853333,23.0533333 C35.982168,23.0562933 36.4580217,23.2540072 36.8106667,23.604 L37.3333333,24.1266667 L47.3666667,34.1693333 L48.6826667,39.4426667 L50.008,40.768 Z" id="Shape" fill="#FFC477"></path>
            <rect id="Rectangle-path" fill="#FFA733" transform="translate(19.514665, 28.554176) rotate(-45.000000) translate(-19.514665, -28.554176) " x="16.248492" y="27.6209836" width="6.53234673" height="1.86638478" rx="0.933192389"></rect>
            <rect id="Rectangle-path" fill="#FFA733" transform="translate(21.451307, 31.899445) rotate(-45.000000) translate(-21.451307, -31.899445) " x="19.1813168" y="30.9662523" width="4.53998097" height="1.86638478" rx="0.933192389"></rect>
            <rect id="Rectangle-path" fill="#FFA733" transform="translate(23.918959, 34.714655) rotate(-45.000000) translate(-23.918959, -34.714655) " x="21.8934653" y="33.7814629" width="4.05098816" height="1.86638478" rx="0.933192389"></rect>
            <rect id="Rectangle-path" fill="#FFA733" transform="translate(25.242117, 38.657887) rotate(-44.837919) translate(-25.242117, -38.657887) " x="21.3525552" y="37.7246912" width="7.77912288" height="1.86639225" rx="0.933196123"></rect>
            <g id="Group" transform="translate(3.733333, 5.600000)" fill="#FF9811">
                <path d="M4.886,24.4057333 C3.87714353,17.7137407 6.38671858,10.9740414 11.5266667,6.5716 L12.74,7.99026667 C8.79967017,11.3584262 6.53163034,16.2829716 6.53333333,21.4666667 C6.53303207,22.3573306 6.59917113,23.2467762 6.7312,24.1276 L4.886,24.4057333 Z" id="Shape"></path>
                <path d="M24.2666667,41.0666667 C23.9381333,41.0666667 23.6133333,41.0582667 23.2876,41.0433333 L23.3809333,39.1766667 C23.9689333,39.2056 24.5681333,39.2056 25.1542667,39.1766667 L25.2476,41.0433333 C24.92,41.0582667 24.5952,41.0666667 24.2666667,41.0666667 Z" id="Shape"></path>
                <path d="M43.7733333,23.4266667 L41.916,23.24 C41.9738667,22.6566667 42.0037333,22.0593333 42.0037333,21.4666667 C42.0054363,16.2829716 39.7373965,11.3584262 35.7970667,7.99026667 L37.0104,6.5716 C41.3640998,10.2950548 43.8694644,15.7378964 43.8666667,21.4666667 C43.8666667,22.12 43.834,22.7808 43.7733333,23.4266667 Z" id="Shape"></path>
                <path d="M1.44013333,26.3274667 C-0.82234705,15.6408629 4.61901259,4.81240215 14.5441333,0.250133333 L15.3225333,1.946 C6.19055771,6.14350223 1.18428817,16.1068196 3.26666667,25.9392 L1.44013333,26.3274667 Z" id="Shape"></path>
                <path d="M24.2666667,44.8 C22.9638708,44.8002288 21.6633082,44.6922128 20.3784,44.4770667 L20.6882667,42.6365333 C23.0576092,43.0304051 25.4757241,43.0304051 27.8450667,42.6365333 L28.1549333,44.4770667 C26.8700251,44.6922128 25.5694625,44.8002288 24.2666667,44.8 Z" id="Shape"></path>
                <path d="M47.0932,26.3274667 L45.2666667,25.9392 C47.1941843,16.838822 43.0514559,7.53086456 35,2.87186667 L35.9333333,1.25533333 C44.6842892,6.31952836 49.1872555,16.4360445 47.0932,26.3274667 Z" id="Shape"></path>
            </g>
            <rect id="Rectangle-path" fill="#FFB655" transform="translate(36.467796, 28.554498) rotate(-45.000000) translate(-36.467796, -28.554498) " x="35.534604" y="25.2883246" width="1.86638478" height="6.53234673" rx="0.933192389"></rect>
            <rect id="Rectangle-path" fill="#FFB655" transform="translate(32.509160, 29.875904) rotate(-45.000000) translate(-32.509160, -29.875904) " x="31.5759677" y="24.7433457" width="1.86638478" height="10.2651163" rx="0.933192389"></rect>
            <rect id="Rectangle-path" fill="#FFB655" transform="translate(29.868760, 32.516496) rotate(-45.000000) translate(-29.868760, -32.516496) " x="28.9355677" y="27.383938" width="1.86638478" height="10.2651163" rx="0.933192389"></rect>
            <rect id="Rectangle-path" fill="#FFB655" transform="translate(31.517721, 39.444435) rotate(-45.000000) translate(-31.517721, -39.444435) " x="30.5845288" y="36.6448582" width="1.86638478" height="5.59915434" rx="0.933192389"></rect>
            <path d="M22.4,16.8 C21.8845342,16.8 21.4666667,17.2178676 21.4666667,17.7333333 L21.4666667,21.4666667 C21.4666667,21.9821324 21.8845342,22.4 22.4,22.4 C22.9154658,22.4 23.3333333,21.9821324 23.3333333,21.4666667 L23.3333333,17.7333333 C23.3333333,17.2178676 22.9154658,16.8 22.4,16.8 Z" id="Shape" fill="#FF9811"></path>
        </g>
        <g id="Group-2" transform="translate(2.000000, 2.000000)">
            <g id="Rectangle-5">
                <mask id="mask-2" fill="white">
                    <use xlink:href="#path-1"></use>
                </mask>
                <g id="Mask" fill-rule="nonzero"></g>
                <g id="Group-3" mask="url(#mask-2)">
                    <g transform="translate(48.500000, 14.000000) rotate(-330.000000) translate(-48.500000, -14.000000) translate(6.000000, 6.000000)">
                        <rect id="Rectangle-5" stroke="#155688" stroke-width="2" fill="#FFFFFF" fill-rule="nonzero" transform="translate(42.530445, 8.258053) rotate(-90.000000) translate(-42.530445, -8.258053) " x="36" y="-33" width="13.0608891" height="82.5161056"></rect>
                        <text id="PROPOSAL" stroke="none" fill="none" font-family="Rubik-Bold, Rubik" font-size="8" font-weight="bold">
                            <tspan x="20.124" y="11" fill="#155688">PROPOSAL</tspan>
                        </text>
                    </g>
                </g>
            </g>
        </g>
    </g>
</svg>