<?xml version="1.0" encoding="UTF-8"?>
<svg width="73px" height="73px" viewBox="0 0 73 73" version="1.1" xmlns="http://www.w3.org/2000/svg" xmlns:xlink="http://www.w3.org/1999/xlink">
    <!-- Generator: Sketch 51.3 (57544) - http://www.bohemiancoding.com/sketch -->
    <title>web-components/form-participation</title>
    <desc>Created with Sketch.</desc>
    <defs>
        <rect id="path-1" x="0" y="0" width="69" height="69" rx="14"></rect>
    </defs>
    <g id="web-components/form-participation" stroke="none" stroke-width="1" fill="none" fill-rule="evenodd">
        <g id="container" transform="translate(2.000000, 2.000000)" fill="#FFFFFF" fill-rule="nonzero" stroke="#155688" stroke-width="2">
            <rect id="mask" x="-1" y="-1" width="71" height="71" rx="14"></rect>
        </g>
        <g id="participation" transform="translate(9.000000, 9.000000)" fill-rule="nonzero">
            <path d="M37.3333333,12.1333333 L37.3333333,27.0666667 C37.3359682,27.5618845 37.1372016,28.0369029 36.7826667,28.3826667 C36.7031157,28.4621931 36.6189713,28.5369881 36.5306667,28.6066667 C36.2163054,28.8187922 35.8459022,28.9325125 35.4666667,28.9333333 C34.4370116,28.9302582 33.6030751,28.0963217 33.6,27.0666667 L33.6,30.8 C33.6018469,30.8499641 33.5987204,30.899988 33.5906667,30.9493333 C33.5086458,31.9158686 32.7033229,32.6604888 31.7333333,32.6666667 C31.5890229,32.6654882 31.4451935,32.6498545 31.304,32.62 C30.4633396,32.4160903 29.8701944,31.6650299 29.8666667,30.8 L29.8666667,33.6 C29.867607,33.780708 29.8392389,33.9603729 29.7826667,34.132 C29.6042311,34.7336402 29.1336402,35.2042311 28.532,35.3826667 C28.1861754,35.4946667 27.8138246,35.4946667 27.468,35.3826667 C26.8675273,35.2022734 26.3977266,34.7324727 26.2173333,34.132 C26.1607611,33.9603729 26.132393,33.780708 26.1333333,33.6 L26.1333333,30.8 C26.1359682,31.2952178 25.9372016,31.7702362 25.5826667,32.116 C25.3394157,32.3627754 25.0324824,32.5372428 24.696,32.62 C24.5548065,32.6498545 24.4109771,32.6654882 24.2666667,32.6666667 C23.2949311,32.6649224 22.4870707,31.9179561 22.4093333,30.9493333 C22.4012796,30.899988 22.3981531,30.8499641 22.4,30.8 L22.4,22.4 C22.4024277,22.593776 22.3708376,22.7864752 22.3066667,22.9693333 C22.226348,23.2336491 22.0820894,23.47408 21.8866667,23.6693333 C21.8771804,23.6870408 21.8645266,23.7028581 21.8493333,23.716 C21.4903993,24.0807754 20.9959756,24.2799176 20.484415,24.2657567 C19.9728545,24.2515959 19.4902047,24.0254067 19.152,23.6413333 C18.8372154,23.3049821 18.6634971,22.8606641 18.6666667,22.4 L18.6666667,11.2 L22.4,7.46666667 L22.4,5.6 L34.5333333,5.6 L34.5333333,7.46666667 L37.3333333,12.1333333 Z" id="Shape" fill="#FFA733"></path>
            <rect id="Rectangle-path" fill="#FF9811" x="32.6666667" y="20.5333333" width="1.86666667" height="5.14266667" rx="0.933333333"></rect>
            <rect id="Rectangle-path" fill="#FF9811" x="28.9333333" y="20.5333333" width="1.86666667" height="2.55733333" rx="0.933333333"></rect>
            <rect id="Rectangle-path" fill="#FF9811" x="25.2" y="20.5333333" width="1.86666667" height="3.276" rx="0.933333333"></rect>
            <path d="M32.9373333,30.296 C32.9211004,30.7607874 32.7273733,31.2016834 32.396,31.528 L30.6413333,33.2826667 L29.7826667,34.132 L28.532,35.3826667 L28,35.924 L26.4693333,37.4453333 C26.818963,37.1056794 27.2885758,36.9178343 27.776,36.9226667 C27.8517533,36.9181436 27.927691,36.9276358 28,36.9506667 C28.414287,36.9833887 28.8024769,37.1658711 29.092,37.464 C29.4425171,37.8141274 29.6394684,38.2892361 29.6394684,38.7846667 C29.6394684,39.2800973 29.4425171,39.7552059 29.092,40.1053333 L28,41.1973333 L27.0666667,42.1306667 L21.1773333,48.0293333 L15.8946667,48.0293333 L14.5786667,49.3453333 L5.992,40.768 L7.31733333,39.4426667 L8.63333333,34.1693333 L19.152,23.6413333 L19.1893333,23.604 C19.5419783,23.2540072 20.017832,23.0562933 20.5146667,23.0533333 C21.0090838,23.0546996 21.4826154,23.2528441 21.8306667,23.604 C21.851595,23.6237326 21.870367,23.6456333 21.8866667,23.6693333 C22.5615148,24.404195 22.5368126,25.5404933 21.8306667,26.2453333 L22.4,25.676 L24.472,23.604 C24.8227433,23.2511632 25.2998251,23.0529391 25.7973333,23.0533333 C25.9104432,23.0518978 26.0232974,23.0644372 26.1333333,23.0906667 C27.0519507,23.2575198 27.7035111,24.0809642 27.6546667,25.0133333 C27.6384337,25.4781207 27.4447067,25.9190167 27.1133333,26.2453333 L29.092,24.2666667 C29.445238,23.9244765 29.9162257,23.7307369 30.408,23.7253333 C31.1622549,23.7247352 31.8427536,24.1781137 32.1327067,24.8744095 C32.4226598,25.5707054 32.2650834,26.373077 31.7333333,26.908 L30.6413333,28 L29.8666667,28.7746667 L29.7546667,28.8866667 C29.7896515,28.8528408 29.8270866,28.8216449 29.8666667,28.7933333 C30.1761786,28.5177104 30.5724525,28.3592008 30.9866667,28.3453333 C31.0171437,28.337616 31.0485983,28.3344706 31.08,28.336 C31.5900522,28.3379121 32.0771072,28.5484546 32.4279442,28.9186846 C32.7787813,29.2889146 32.9628397,29.7865824 32.9373333,30.296 Z" id="Shape" fill="#FFB655"></path>
            <polygon id="Shape" fill="#3D9AE2" points="51.324 39.4426667 55.2813333 43.4093333 44.7253333 53.9653333 40.768 50.008 41.4213333 49.3453333 50.008 40.768"></polygon>
            <polygon id="Shape" fill="#3D9AE2" points="36.4 0 36.4 5.6 34.5333333 5.6 22.4 5.6 21.4666667 5.6 21.4666667 0"></polygon>
            <polygon id="Shape" fill="#3D9AE2" points="14.5786667 49.3453333 15.232 50.008 11.2746667 53.9653333 0.718666667 43.4093333 4.676 39.4426667 5.992 40.768"></polygon>
            <path d="M50.008,40.768 L41.4213333,49.3453333 L40.1053333,48.0293333 L34.8226667,48.0293333 L28,41.1973333 L26.908,40.1053333 C26.5574829,39.7552059 26.3605316,39.2800973 26.3605316,38.7846667 C26.3605316,38.2892361 26.5574829,37.8141274 26.908,37.464 C27.1975231,37.1658711 27.585713,36.9833887 28,36.9506667 C28.072309,36.9276358 28.1482467,36.9181436 28.224,36.9226667 C28.7114242,36.9178343 29.181037,37.1056794 29.5306667,37.4453333 L28,35.924 L27.468,35.3826667 L26.2173333,34.132 L25.3586667,33.2826667 L23.604,31.528 C23.2726267,31.2016834 23.0788996,30.7607874 23.0626667,30.296 C23.0371603,29.7865824 23.2212187,29.2889146 23.5720558,28.9186846 C23.9228928,28.5484546 24.4099478,28.3379121 24.92,28.336 C24.9514017,28.3344706 24.9828563,28.337616 25.0133333,28.3453333 C25.4275475,28.3592008 25.8238214,28.5177104 26.1333333,28.7933333 C26.1729134,28.8216449 26.2103485,28.8528408 26.2453333,28.8866667 L26.1333333,28.7746667 L25.3586667,28 L24.2666667,26.908 C23.7349166,26.373077 23.5773402,25.5707054 23.8672933,24.8744095 C24.1572464,24.1781137 24.8377451,23.7247352 25.592,23.7253333 C26.0837743,23.7307369 26.554762,23.9244765 26.908,24.2666667 L28.8866667,26.2453333 C28.5552933,25.9190167 28.3615663,25.4781207 28.3453333,25.0133333 C28.2964889,24.0809642 28.9480493,23.2575198 29.8666667,23.0906667 C29.9767026,23.0644372 30.0895568,23.0518978 30.2026667,23.0533333 C30.7001749,23.0529391 31.1772567,23.2511632 31.528,23.604 L33.6,25.676 L34.1693333,26.2453333 C33.6368785,25.7108321 33.4774692,24.9088678 33.7650348,24.2113681 C34.0526005,23.5138685 34.7308903,23.0572714 35.4853333,23.0533333 C35.982168,23.0562933 36.4580217,23.2540072 36.8106667,23.604 L37.3333333,24.1266667 L47.3666667,34.1693333 L48.6826667,39.4426667 L50.008,40.768 Z" id="Shape" fill="#FFC477"></path>
            <rect id="Rectangle-path" fill="#FFA733" transform="translate(19.514665, 28.554176) rotate(-45.000000) translate(-19.514665, -28.554176) " x="16.248492" y="27.6209836" width="6.53234673" height="1.86638478" rx="0.933192389"></rect>
            <rect id="Rectangle-path" fill="#FFA733" transform="translate(21.451307, 31.899445) rotate(-45.000000) translate(-21.451307, -31.899445) " x="19.1813168" y="30.9662523" width="4.53998097" height="1.86638478" rx="0.933192389"></rect>
            <rect id="Rectangle-path" fill="#FFA733" transform="translate(23.918959, 34.714655) rotate(-45.000000) translate(-23.918959, -34.714655) " x="21.8934653" y="33.7814629" width="4.05098816" height="1.86638478" rx="0.933192389"></rect>
            <rect id="Rectangle-path" fill="#FFA733" transform="translate(25.242117, 38.657887) rotate(-44.837919) translate(-25.242117, -38.657887) " x="21.3525552" y="37.7246912" width="7.77912288" height="1.86639225" rx="0.933196123"></rect>
            <g id="Group" transform="translate(3.733333, 5.600000)" fill="#FF9811">
                <path d="M4.886,24.4057333 C3.87714353,17.7137407 6.38671858,10.9740414 11.5266667,6.5716 L12.74,7.99026667 C8.79967017,11.3584262 6.53163034,16.2829716 6.53333333,21.4666667 C6.53303207,22.3573306 6.59917113,23.2467762 6.7312,24.1276 L4.886,24.4057333 Z" id="Shape"></path>
                <path d="M24.2666667,41.0666667 C23.9381333,41.0666667 23.6133333,41.0582667 23.2876,41.0433333 L23.3809333,39.1766667 C23.9689333,39.2056 24.5681333,39.2056 25.1542667,39.1766667 L25.2476,41.0433333 C24.92,41.0582667 24.5952,41.0666667 24.2666667,41.0666667 Z" id="Shape"></path>
                <path d="M43.7733333,23.4266667 L41.916,23.24 C41.9738667,22.6566667 42.0037333,22.0593333 42.0037333,21.4666667 C42.0054363,16.2829716 39.7373965,11.3584262 35.7970667,7.99026667 L37.0104,6.5716 C41.3640998,10.2950548 43.8694644,15.7378964 43.8666667,21.4666667 C43.8666667,22.12 43.834,22.7808 43.7733333,23.4266667 Z" id="Shape"></path>
                <path d="M1.44013333,26.3274667 C-0.82234705,15.6408629 4.61901259,4.81240215 14.5441333,0.250133333 L15.3225333,1.946 C6.19055771,6.14350223 1.18428817,16.1068196 3.26666667,25.9392 L1.44013333,26.3274667 Z" id="Shape"></path>
                <path d="M24.2666667,44.8 C22.9638708,44.8002288 21.6633082,44.6922128 20.3784,44.4770667 L20.6882667,42.6365333 C23.0576092,43.0304051 25.4757241,43.0304051 27.8450667,42.6365333 L28.1549333,44.4770667 C26.8700251,44.6922128 25.5694625,44.8002288 24.2666667,44.8 Z" id="Shape"></path>
                <path d="M47.0932,26.3274667 L45.2666667,25.9392 C47.1941843,16.838822 43.0514559,7.53086456 35,2.87186667 L35.9333333,1.25533333 C44.6842892,6.31952836 49.1872555,16.4360445 47.0932,26.3274667 Z" id="Shape"></path>
            </g>
            <rect id="Rectangle-path" fill="#FFB655" transform="translate(36.467796, 28.554498) rotate(-45.000000) translate(-36.467796, -28.554498) " x="35.534604" y="25.2883246" width="1.86638478" height="6.53234673" rx="0.933192389"></rect>
            <rect id="Rectangle-path" fill="#FFB655" transform="translate(32.509160, 29.875904) rotate(-45.000000) translate(-32.509160, -29.875904) " x="31.5759677" y="24.7433457" width="1.86638478" height="10.2651163" rx="0.933192389"></rect>
            <rect id="Rectangle-path" fill="#FFB655" transform="translate(29.868760, 32.516496) rotate(-45.000000) translate(-29.868760, -32.516496) " x="28.9355677" y="27.383938" width="1.86638478" height="10.2651163" rx="0.933192389"></rect>
            <rect id="Rectangle-path" fill="#FFB655" transform="translate(31.517721, 39.444435) rotate(-45.000000) translate(-31.517721, -39.444435) " x="30.5845288" y="36.6448582" width="1.86638478" height="5.59915434" rx="0.933192389"></rect>
            <path d="M22.4,16.8 C21.8845342,16.8 21.4666667,17.2178676 21.4666667,17.7333333 L21.4666667,21.4666667 C21.4666667,21.9821324 21.8845342,22.4 22.4,22.4 C22.9154658,22.4 23.3333333,21.9821324 23.3333333,21.4666667 L23.3333333,17.7333333 C23.3333333,17.2178676 22.9154658,16.8 22.4,16.8 Z" id="Shape" fill="#FF9811"></path>
        </g>
        <g id="Group-2" transform="translate(2.000000, 2.000000)">
            <mask id="mask-2" fill="white">
                <use xlink:href="#path-1"></use>
            </mask>
            <g id="Mask" fill-rule="nonzero"></g>
            <g id="Group-3" mask="url(#mask-2)">
                <g transform="translate(36.179470, 20.534830) rotate(-339.000000) translate(-36.179470, -20.534830) translate(-13.820530, 12.034830)">
                    <rect id="Rectangle-5" stroke="#155688" stroke-width="2" fill="#FFFFFF" fill-rule="nonzero" transform="translate(50.136196, 8.394249) rotate(-90.000000) translate(-50.136196, -8.394249) " x="43" y="-40" width="14.2723918" height="96.7884973"></rect>
                    <path d="M19.2,11.1851699 C19.1466664,11.1851699 19.1000002,11.1651701 19.06,11.1251699 C19.0199998,11.0851697 19,11.0385035 19,10.9851699 L19,5.79316989 C19,5.73450293 19.0186665,5.68517009 19.056,5.64516989 C19.0933335,5.60516969 19.141333,5.58516989 19.2,5.58516989 L22.976,5.58516989 C23.034667,5.58516989 23.0839998,5.60516969 23.124,5.64516989 C23.1640002,5.68517009 23.184,5.73450293 23.184,5.79316989 L23.184,6.58516989 C23.184,6.64383685 23.1640002,6.69183637 23.124,6.72916989 C23.0839998,6.76650341 23.034667,6.78516989 22.976,6.78516989 L20.448,6.78516989 L20.448,7.80116989 L22.8,7.80116989 C22.858667,7.80116989 22.9079998,7.82116969 22.948,7.86116989 C22.9880002,7.90117009 23.008,7.95050293 23.008,8.00916989 L23.008,8.73716989 C23.008,8.79583685 22.9880002,8.84516969 22.948,8.88516989 C22.9079998,8.92517009 22.858667,8.94516989 22.8,8.94516989 L20.448,8.94516989 L20.448,9.98516989 L23.04,9.98516989 C23.098667,9.98516989 23.1479998,10.0051697 23.188,10.0451699 C23.2280002,10.0851701 23.248,10.1345029 23.248,10.1931699 L23.248,10.9851699 C23.248,11.0438369 23.2280002,11.0918364 23.188,11.1291699 C23.1479998,11.1665034 23.098667,11.1851699 23.04,11.1851699 L19.2,11.1851699 Z M23.94,11.1851699 C23.8973331,11.1851699 23.8586668,11.1678367 23.824,11.1331699 C23.7893332,11.0985031 23.772,11.0598368 23.772,11.0171699 C23.772,10.9851697 23.7799999,10.9531701 23.796,10.9211699 L25.54,8.32916989 L23.932,5.84916989 C23.9159999,5.81716973 23.908,5.78517005 23.908,5.75316989 C23.908,5.71050301 23.9253332,5.67183673 23.96,5.63716989 C23.9946668,5.60250305 24.0333331,5.58516989 24.076,5.58516989 L25.3,5.58516989 C25.4173339,5.58516989 25.513333,5.64383597 25.588,5.76116989 L26.492,7.15316989 L27.428,5.76116989 C27.502667,5.64383597 27.5959994,5.58516989 27.708,5.58516989 L28.876,5.58516989 C28.9186669,5.58516989 28.9573332,5.60250305 28.992,5.63716989 C29.0266668,5.67183673 29.044,5.71050301 29.044,5.75316989 C29.044,5.78517005 29.0360001,5.81716973 29.02,5.84916989 L27.396,8.31316989 L29.156,10.9211699 C29.1720001,10.9531701 29.18,10.9851697 29.18,11.0171699 C29.18,11.0598368 29.1626668,11.0985031 29.128,11.1331699 C29.0933332,11.1678367 29.0546669,11.1851699 29.012,11.1851699 L27.748,11.1851699 C27.6306661,11.1851699 27.5373337,11.1318371 27.468,11.0251699 L26.444,9.53716989 L25.444,11.0251699 C25.3746663,11.1318371 25.2813339,11.1851699 25.164,11.1851699 L23.94,11.1851699 Z M30.104,11.1851699 C30.0506664,11.1851699 30.0040002,11.1651701 29.964,11.1251699 C29.9239998,11.0851697 29.904,11.0385035 29.904,10.9851699 L29.904,5.79316989 C29.904,5.73450293 29.9226665,5.68517009 29.96,5.64516989 C29.9973335,5.60516969 30.045333,5.58516989 30.104,5.58516989 L32.368,5.58516989 C33.0613368,5.58516989 33.6053314,5.74250165 34,6.05716989 C34.3946686,6.37183813 34.592,6.83316685 34.592,7.44116989 C34.592,8.04917293 34.3946686,8.50383505 34,8.80516989 C33.6053314,9.10650473 33.0613368,9.25716989 32.368,9.25716989 L31.456,9.25716989 L31.456,10.9851699 C31.456,11.0385035 31.4373335,11.0851697 31.4,11.1251699 C31.3626665,11.1651701 31.314667,11.1851699 31.256,11.1851699 L30.104,11.1851699 Z M32.328,8.11316989 C32.5466678,8.11316989 32.718666,8.05583713 32.844,7.94116989 C32.969334,7.82650265 33.032,7.65717101 33.032,7.43316989 C33.032,7.22516885 32.9746672,7.05717053 32.86,6.92916989 C32.7453328,6.80116925 32.5680012,6.73716989 32.328,6.73716989 L31.432,6.73716989 L31.432,8.11316989 L32.328,8.11316989 Z M35.636,11.1851699 C35.5826664,11.1851699 35.5360002,11.1651701 35.496,11.1251699 C35.4559998,11.0851697 35.436,11.0385035 35.436,10.9851699 L35.436,5.79316989 C35.436,5.73450293 35.4546665,5.68517009 35.492,5.64516989 C35.5293335,5.60516969 35.577333,5.58516989 35.636,5.58516989 L39.412,5.58516989 C39.470667,5.58516989 39.5199998,5.60516969 39.56,5.64516989 C39.6000002,5.68517009 39.62,5.73450293 39.62,5.79316989 L39.62,6.58516989 C39.62,6.64383685 39.6000002,6.69183637 39.56,6.72916989 C39.5199998,6.76650341 39.470667,6.78516989 39.412,6.78516989 L36.884,6.78516989 L36.884,7.80116989 L39.236,7.80116989 C39.294667,7.80116989 39.3439998,7.82116969 39.384,7.86116989 C39.4240002,7.90117009 39.444,7.95050293 39.444,8.00916989 L39.444,8.73716989 C39.444,8.79583685 39.4240002,8.84516969 39.384,8.88516989 C39.3439998,8.92517009 39.294667,8.94516989 39.236,8.94516989 L36.884,8.94516989 L36.884,9.98516989 L39.476,9.98516989 C39.534667,9.98516989 39.5839998,10.0051697 39.624,10.0451699 C39.6640002,10.0851701 39.684,10.1345029 39.684,10.1931699 L39.684,10.9851699 C39.684,11.0438369 39.6640002,11.0918364 39.624,11.1291699 C39.5839998,11.1665034 39.534667,11.1851699 39.476,11.1851699 L35.636,11.1851699 Z M40.872,11.1851699 C40.8186664,11.1851699 40.7720002,11.1651701 40.732,11.1251699 C40.6919998,11.0851697 40.672,11.0385035 40.672,10.9851699 L40.672,5.79316989 C40.672,5.73450293 40.6906665,5.68517009 40.728,5.64516989 C40.7653335,5.60516969 40.813333,5.58516989 40.872,5.58516989 L43.072,5.58516989 C43.7760035,5.58516989 44.3266647,5.74516829 44.724,6.06516989 C45.1213353,6.38517149 45.32,6.83583365 45.32,7.41716989 C45.32,7.79050509 45.2333342,8.10783525 45.06,8.36916989 C44.8866658,8.63050453 44.6480015,8.83316917 44.344,8.97716989 L45.424,10.9291699 C45.4400001,10.9611701 45.448,10.9905031 45.448,11.0171699 C45.448,11.0598368 45.4320002,11.0985031 45.4,11.1331699 C45.3679998,11.1678367 45.3280002,11.1851699 45.28,11.1851699 L44.152,11.1851699 C43.9973326,11.1851699 43.8880003,11.1131706 43.824,10.9691699 L42.944,9.23316989 L42.176,9.23316989 L42.176,10.9851699 C42.176,11.0438369 42.1560002,11.0918364 42.116,11.1291699 C42.0759998,11.1665034 42.026667,11.1851699 41.968,11.1851699 L40.872,11.1851699 Z M43.064,8.05716989 C43.2933345,8.05716989 43.4679994,7.99983713 43.588,7.88516989 C43.7080006,7.77050265 43.768,7.61183757 43.768,7.40916989 C43.768,7.20650221 43.7080006,7.04383717 43.588,6.92116989 C43.4679994,6.79850261 43.2933345,6.73716989 43.064,6.73716989 L42.176,6.73716989 L42.176,8.05716989 L43.064,8.05716989 Z M46.532,11.1851699 C46.4786664,11.1851699 46.4320002,11.1651701 46.392,11.1251699 C46.3519998,11.0851697 46.332,11.0385035 46.332,10.9851699 L46.332,5.78516989 C46.332,5.72650293 46.3519998,5.67850341 46.392,5.64116989 C46.4320002,5.60383637 46.4786664,5.58516989 46.532,5.58516989 L47.676,5.58516989 C47.734667,5.58516989 47.7826665,5.60383637 47.82,5.64116989 C47.8573335,5.67850341 47.876,5.72650293 47.876,5.78516989 L47.876,10.9851699 C47.876,11.0385035 47.8573335,11.0851697 47.82,11.1251699 C47.7826665,11.1651701 47.734667,11.1851699 47.676,11.1851699 L46.532,11.1851699 Z M49.272,11.1851699 C49.213333,11.1851699 49.1640002,11.1665034 49.124,11.1291699 C49.0839998,11.0918364 49.064,11.0438369 49.064,10.9851699 L49.064,5.79316989 C49.064,5.73450293 49.0839998,5.68517009 49.124,5.64516989 C49.1640002,5.60516969 49.213333,5.58516989 49.272,5.58516989 L50.176,5.58516989 C50.309334,5.58516989 50.405333,5.64383597 50.464,5.76116989 L51.84,8.22516989 L53.224,5.76116989 C53.282667,5.64383597 53.378666,5.58516989 53.512,5.58516989 L54.416,5.58516989 C54.474667,5.58516989 54.5239998,5.60516969 54.564,5.64516989 C54.6040002,5.68517009 54.624,5.73450293 54.624,5.79316989 L54.624,10.9851699 C54.624,11.0438369 54.6040002,11.0918364 54.564,11.1291699 C54.5239998,11.1665034 54.474667,11.1851699 54.416,11.1851699 L53.4,11.1851699 C53.3466664,11.1851699 53.3000002,11.1651701 53.26,11.1251699 C53.2199998,11.0851697 53.2,11.0385035 53.2,10.9851699 L53.2,8.07316989 L52.336,9.65716989 C52.2666663,9.77983717 52.1733339,9.84116989 52.056,9.84116989 L51.624,9.84116989 C51.5173328,9.84116989 51.4240004,9.77983717 51.344,9.65716989 L50.488,8.07316989 L50.488,10.9851699 C50.488,11.0438369 50.4680002,11.0918364 50.428,11.1291699 C50.3879998,11.1665034 50.338667,11.1851699 50.28,11.1851699 L49.272,11.1851699 Z M56.012,11.1851699 C55.9586664,11.1851699 55.9120002,11.1651701 55.872,11.1251699 C55.8319998,11.0851697 55.812,11.0385035 55.812,10.9851699 L55.812,5.79316989 C55.812,5.73450293 55.8306665,5.68517009 55.868,5.64516989 C55.9053335,5.60516969 55.9533331,5.58516989 56.012,5.58516989 L59.788,5.58516989 C59.846667,5.58516989 59.8959998,5.60516969 59.936,5.64516989 C59.9760002,5.68517009 59.996,5.73450293 59.996,5.79316989 L59.996,6.58516989 C59.996,6.64383685 59.9760002,6.69183637 59.936,6.72916989 C59.8959998,6.76650341 59.846667,6.78516989 59.788,6.78516989 L57.26,6.78516989 L57.26,7.80116989 L59.612,7.80116989 C59.670667,7.80116989 59.7199998,7.82116969 59.76,7.86116989 C59.8000002,7.90117009 59.82,7.95050293 59.82,8.00916989 L59.82,8.73716989 C59.82,8.79583685 59.8000002,8.84516969 59.76,8.88516989 C59.7199998,8.92517009 59.670667,8.94516989 59.612,8.94516989 L57.26,8.94516989 L57.26,9.98516989 L59.852,9.98516989 C59.910667,9.98516989 59.9599998,10.0051697 60,10.0451699 C60.0400002,10.0851701 60.06,10.1345029 60.06,10.1931699 L60.06,10.9851699 C60.06,11.0438369 60.0400002,11.0918364 60,11.1291699 C59.9599998,11.1665034 59.910667,11.1851699 59.852,11.1851699 L56.012,11.1851699 Z M61.248,11.1851699 C61.1946664,11.1851699 61.1480002,11.1651701 61.108,11.1251699 C61.0679998,11.0851697 61.048,11.0385035 61.048,10.9851699 L61.048,5.79316989 C61.048,5.73450293 61.0666665,5.68517009 61.104,5.64516989 C61.1413335,5.60516969 61.1893331,5.58516989 61.248,5.58516989 L62.152,5.58516989 C62.2746673,5.58516989 62.3653331,5.63583605 62.424,5.73716989 L64.312,8.72116989 L64.312,5.79316989 C64.312,5.73450293 64.3306665,5.68517009 64.368,5.64516989 C64.4053335,5.60516969 64.4533331,5.58516989 64.512,5.58516989 L65.528,5.58516989 C65.586667,5.58516989 65.6346665,5.60516969 65.672,5.64516989 C65.7093335,5.68517009 65.728,5.73450293 65.728,5.79316989 L65.728,10.9771699 C65.728,11.0358369 65.7093335,11.0851697 65.672,11.1251699 C65.6346665,11.1651701 65.586667,11.1851699 65.528,11.1851699 L64.624,11.1851699 C64.5013327,11.1851699 64.410667,11.1345037 64.352,11.0331699 L62.472,8.16916989 L62.472,10.9851699 C62.472,11.0438369 62.4520002,11.0918364 62.412,11.1291699 C62.3719998,11.1665034 62.322667,11.1851699 62.264,11.1851699 L61.248,11.1851699 Z M68.356,11.1851699 C68.2973331,11.1851699 68.2480002,11.1665034 68.208,11.1291699 C68.1679998,11.0918364 68.148,11.0438369 68.148,10.9851699 L68.148,6.88916989 L66.74,6.88916989 C66.6813331,6.88916989 66.6320002,6.87050341 66.592,6.83316989 C66.5519998,6.79583637 66.532,6.74783685 66.532,6.68916989 L66.532,5.79316989 C66.532,5.73450293 66.5519998,5.68517009 66.592,5.64516989 C66.6320002,5.60516969 66.6813331,5.58516989 66.74,5.58516989 L71.084,5.58516989 C71.142667,5.58516989 71.1919998,5.60516969 71.232,5.64516989 C71.2720002,5.68517009 71.292,5.73450293 71.292,5.79316989 L71.292,6.68916989 C71.292,6.74783685 71.2720002,6.79583637 71.232,6.83316989 C71.1919998,6.87050341 71.142667,6.88916989 71.084,6.88916989 L69.676,6.88916989 L69.676,10.9851699 C69.676,11.0438369 69.6560002,11.0918364 69.616,11.1291699 C69.5759998,11.1665034 69.526667,11.1851699 69.468,11.1851699 L68.356,11.1851699 Z M71.216,11.1851699 C71.1733331,11.1851699 71.1346669,11.1678367 71.1,11.1331699 C71.0653332,11.0985031 71.048,11.0598368 71.048,11.0171699 C71.048,10.9851697 71.0506667,10.96117 71.056,10.9451699 L72.92,5.81716989 C72.9733336,5.66250245 73.0799992,5.58516989 73.24,5.58516989 L74.488,5.58516989 C74.6480008,5.58516989 74.7546664,5.66250245 74.808,5.81716989 L76.672,10.9451699 C76.6773334,10.96117 76.68,10.9851697 76.68,11.0171699 C76.68,11.0598368 76.6626669,11.0985031 76.628,11.1331699 C76.5933332,11.1678367 76.5546669,11.1851699 76.512,11.1851699 L75.472,11.1851699 C75.3439994,11.1851699 75.2533336,11.1265038 75.2,11.0091699 L74.912,10.2331699 L72.816,10.2331699 L72.528,11.0091699 C72.4746664,11.1265038 72.3840007,11.1851699 72.256,11.1851699 L71.216,11.1851699 Z M73.152,9.03316989 L74.576,9.03316989 L73.864,6.99316989 L73.152,9.03316989 Z M77.588,11.1851699 C77.5346664,11.1851699 77.4880002,11.1651701 77.448,11.1251699 C77.4079998,11.0851697 77.388,11.0385035 77.388,10.9851699 L77.388,5.78516989 C77.388,5.72650293 77.4079998,5.67850341 77.448,5.64116989 C77.4880002,5.60383637 77.5346664,5.58516989 77.588,5.58516989 L78.708,5.58516989 C78.766667,5.58516989 78.8146665,5.60383637 78.852,5.64116989 C78.8893335,5.67850341 78.908,5.72650293 78.908,5.78516989 L78.908,9.92916989 L81.308,9.92916989 C81.366667,9.92916989 81.4159998,9.94916969 81.456,9.98916989 C81.4960002,10.0291701 81.516,10.0785029 81.516,10.1371699 L81.516,10.9851699 C81.516,11.0438369 81.4960002,11.0918364 81.456,11.1291699 C81.4159998,11.1665034 81.366667,11.1851699 81.308,11.1851699 L77.588,11.1851699 Z" id="EXPERIMENTAL" stroke="none" fill="#155688" fill-rule="evenodd"></path>
                </g>
            </g>
        </g>
    </g>
</svg>