<?xml version="1.0" encoding="UTF-8"?>
<svg width="73px" height="73px" viewBox="0 0 73 73" version="1.1" xmlns="http://www.w3.org/2000/svg" xmlns:xlink="http://www.w3.org/1999/xlink">
    <!-- Generator: Sketch 51.3 (57544) - http://www.bohemiancoding.com/sketch -->
    <title>web-components/lit-element</title>
    <desc>Created with Sketch.</desc>
    <defs>
        <rect id="path-1" x="0" y="0" width="69" height="69" rx="14"></rect>
    </defs>
    <g id="web-components/lit-element" stroke="none" stroke-width="1" fill="none" fill-rule="evenodd">
        <g id="container" transform="translate(2.000000, 2.000000)">
            <mask id="mask-2" fill="white">
                <use xlink:href="#path-1"></use>
            </mask>
            <rect stroke="#FF421D" stroke-width="2" x="-1" y="-1" width="71" height="71" rx="14"></rect>
            <g id="fire" mask="url(#mask-2)" fill-rule="nonzero">
                <g transform="translate(13.000000, 8.000000)" id="Shape">
                    <path d="M0.73486052,25.4464945 C0.73486052,25.4464945 2.79626096,28.4749025 7.11676389,31.0383031 C7.11676389,31.0383031 3.98767052,4.59290373 24.3757443,-5.68434189e-14 C19.1522322,19.1710853 31.0201634,24.5776246 35.3462713,14.4491657 C42.5708541,24.0948851 37.0854378,32.5102661 37.0854378,32.5102661 C40.0478092,32.9370579 42.5362053,29.7006552 42.5362053,29.7006552 C42.5584213,30.0993203 42.5708541,30.500737 42.5708541,30.9050071 C42.570956,42.653196 33.0471189,52.1770332 21.298828,52.1770332 C9.55053715,52.1770332 0.0266999662,42.653196 0.0266999662,30.9049052 C0.0266999662,29.0177678 0.273725608,27.1885144 0.73486052,25.4464945 Z" fill="#FF6536"></path>
                    <path d="M42.5363072,29.7006552 C42.5363072,29.7006552 40.0479111,32.9370579 37.0855397,32.5102661 C37.0855397,32.5102661 42.570956,24.0948851 35.3463732,14.4491657 C31.0202653,24.5776246 19.1523342,19.1710853 24.3758462,0 C23.2838992,0.246006559 22.2599249,0.555094335 21.298828,0.91900876 L21.298828,52.1770332 C33.0471189,52.1770332 42.570956,42.653196 42.570956,30.9049052 C42.570956,30.5006351 42.5585232,30.0993203 42.5363072,29.7006552 Z" fill="#FF421D"></path>
                    <path d="M11.9697375,42.8479427 C11.9697375,48.0002209 16.1465498,52.1770332 21.298828,52.1770332 C26.4511062,52.1770332 30.6279185,48.0002209 30.6279185,42.8479427 C30.6279185,40.0902031 29.4314135,37.6119978 27.5290919,35.9041171 C23.9221506,40.8043762 18.7821014,33.3710852 22.7879116,27.9428394 C22.7879116,27.9428394 11.9697375,29.2985251 11.9697375,42.8479427 Z" fill="#FBBF00"></path>
                    <path d="M30.6279185,42.8479427 C30.6279185,40.0902031 29.4314135,37.6119978 27.5290919,35.9041171 C23.9221506,40.8043762 18.7821014,33.3710852 22.7879116,27.9428394 C22.7879116,27.9428394 22.2001047,28.0167229 21.298828,28.3011489 L21.298828,52.1770332 C26.4511062,52.1770332 30.6279185,48.0002209 30.6279185,42.8479427 Z" fill="#FFA900"></path>
                </g>
            </g>
        </g>
    </g>
</svg>