<?xml version="1.0" encoding="UTF-8"?>
<svg width="73px" height="73px" viewBox="0 0 73 73" version="1.1" xmlns="http://www.w3.org/2000/svg" xmlns:xlink="http://www.w3.org/1999/xlink">
    <!-- Generator: Sketch 51.3 (57544) - http://www.bohemiancoding.com/sketch -->
    <title>architecture-and-paradigms/paradigms/currying</title>
    <desc>Created with Sketch.</desc>
    <defs></defs>
    <g id="architecture-and-paradigms/paradigms/currying" stroke="none" stroke-width="1" fill="none" fill-rule="evenodd">
        <g id="container" transform="translate(2.000000, 2.000000)" fill="#FFFFFF" fill-rule="nonzero" stroke="#0C3D5E" stroke-width="2">
            <rect id="mask" x="-1" y="-1" width="71" height="71" rx="14"></rect>
        </g>
        <g id="Group-2" transform="translate(9.000000, 17.000000)" fill-rule="nonzero">
            <g id="matryoshka-doll">
                <path d="M21.7456982,18.8645326 C21.1759963,17.3983254 21.0916762,15.7880299 21.5051321,14.2703414 C21.9525597,12.629747 22.068099,10.9163601 21.8449821,9.23054859 C21.2376031,4.64122923 17.8283512,0.984187546 13.2611229,0.228722599 C7.6141608,-0.732619132 2.25034697,3.04528371 1.25348048,8.68608297 C0.925673158,10.5435783 1.01304717,12.4506035 1.50933396,14.2703414 L1.55057627,14.4527819 C1.87985303,15.8708479 1.77203055,17.3553836 1.24130098,18.7109869 C-0.735977749,23.6672032 -0.29121603,29.3257986 2.50880888,34.0642958 L5.45977558,39.0578066 L17.5552784,39.0578066 L20.5059931,34.0642958 C23.2274369,29.4556404 23.6843707,23.8532709 21.7456982,18.8645326 Z" id="Shape" fill="#FDB62F"></path>
                <path d="M11.507527,32.3380828 C7.42520593,32.3380828 4.11583082,29.0287077 4.11583082,24.9463866 L4.11583082,16.8827181 L18.8992232,16.8827181 L18.8992232,24.9463866 C18.8992232,29.0287077 15.5898481,32.3380828 11.507527,32.3380828 Z" id="Shape" fill="#EAEAE8"></path>
                <path d="M21.8450661,9.23012861 C21.2376031,4.64089324 17.8283512,0.983767564 13.2611229,0.228386613 C7.61406149,-0.732892859 2.25022804,3.04517389 1.25348048,8.68608297 C0.925673158,10.5435783 1.01304717,12.4506035 1.50933396,14.2703414 L1.55057627,14.4527819 C1.8798091,15.8708233 1.77198739,17.3553191 1.24130098,18.7109029 C0.48476749,20.6133298 0.075993487,22.6361466 0.0344385845,24.6830574 C4.64117596,23.8917047 8.7573967,21.3342475 11.507527,17.5546904 C14.2451782,21.3178392 18.3374732,23.8705167 22.9211459,24.6742378 C22.8627547,22.6848905 22.4653186,20.7200944 21.7459502,18.8644486 C21.1762432,17.3982717 21.0919229,15.788001 21.5053841,14.2703414 C21.9527602,12.6295932 22.0682422,10.9160683 21.8450661,9.23012861 Z" id="Shape" fill="#F85542"></path>
                <path d="M11.507527,18.2266628 L10.9867484,18.4870521 C9.64670505,19.1571832 8.05031068,19.0578093 6.80372034,18.2266628 L7.76783271,17.5838372 C8.45365748,17.1266545 9.25946148,16.8827009 10.0837015,16.8827181 L11.507527,16.8827181 L11.507527,18.2266628 Z" id="Shape" fill="#C94536"></path>
                <path d="M11.507527,18.2266628 L12.0283056,18.4870521 C13.3683489,19.1571832 14.9647433,19.0578093 16.2113337,18.2266628 L15.2472213,17.5838372 C14.56139,17.1266683 13.7555903,16.8827159 12.9313525,16.8827181 L11.507527,16.8827181 L11.507527,18.2266628 Z" id="Shape" fill="#C94536"></path>
                <circle id="Oval" fill="#DE4C3B" cx="11.507275" cy="18.8986352" r="1.34394476"></circle>
                <circle id="Oval" fill="#FAD7BE" cx="11.507275" cy="10.1629103" r="7.39169618"></circle>
                <path d="M4.24417755,8.8142617 C7.05688435,8.76552094 9.58637273,7.09091262 10.729719,4.52061019 L11.507527,2.77121409 C7.94666525,2.77249844 4.8931117,5.31303014 4.24417755,8.8142617 Z" id="Shape" fill="#995701"></path>
                <path d="M11.507527,2.77121409 L12.284999,4.52061019 C13.4283618,7.09089862 15.9578401,8.76550023 18.7705405,8.8142617 C18.1216603,5.3131365 15.0682743,2.77262665 11.507527,2.77121409 Z" id="Shape" fill="#995701"></path>
                <circle id="Oval" fill="#844B02" cx="8.14741311" cy="10.1629103" r="1"></circle>
                <circle id="Oval" fill="#844B02" cx="14.8671369" cy="10.1629103" r="1"></circle>
                <path d="M14.5083877,23.8029416 C14.2894081,23.1290035 13.5655743,22.7601672 12.8916221,22.9791035 L12.7404283,23.0281575 L12.7404283,22.869572 C12.7404283,22.1609645 12.1659885,21.5865247 11.4573811,21.5865247 C10.7487736,21.5865247 10.1743338,22.1609645 10.1743338,22.869572 L10.1743338,23.0281575 L10.02314,22.9791035 C9.34920912,22.7601194 8.62535854,23.1289267 8.40637449,23.8028576 C8.18739044,24.4767885 8.55619772,25.2006391 9.23012861,25.4196232 L9.38132239,25.4686771 L9.28808623,25.5970239 C8.87148072,26.170474 8.99862842,26.9730727 9.57207855,27.3896782 C10.1455287,27.8062837 10.9481274,27.679136 11.3647329,27.1056859 L11.457969,26.9774231 L11.5512052,27.1056859 C11.9682636,27.6772933 12.7693543,27.8033601 13.341814,27.3874723 C13.9142736,26.9715844 14.0419795,26.1707533 13.6272639,25.5974439 L13.5340277,25.4690971 L13.6852215,25.4200431 C14.0088407,25.3147887 14.2773845,25.085273 14.4317626,24.7819988 C14.5861407,24.4787245 14.6137041,24.1265406 14.5083877,23.8029416 Z" id="Shape" fill="#69B9E7"></path>
                <circle id="Oval" fill="#4298D1" cx="11.507275" cy="24.6592864" r="1.00795857"></circle>
                <path d="M11.507527,14.5196432 C10.7501926,14.5202221 9.99770236,14.3988911 9.2789306,14.160306 C9.05117672,14.084338 8.88125189,13.8926354 8.83316514,13.6574108 C8.7850784,13.4221862 8.86613526,13.1791757 9.0458024,13.019919 C9.22546954,12.8606623 9.47645124,12.8093544 9.70420512,12.8853224 C10.8751444,13.2731351 12.1399096,13.2731351 13.3108489,12.8853224 C13.6629259,12.7679093 14.0435228,12.9581419 14.1609359,13.3102189 C14.278349,13.6622959 14.0881164,14.0428928 13.7360394,14.160306 C13.0172951,14.398885 12.2648334,14.520216 11.507527,14.5196432 Z" id="Shape" fill="#844B02"></path>
                <polygon id="Shape" fill="#DE4C3B" points="4.78755121 18.8986352 6.13149597 18.8986352 6.13149597 20.24258 4.78755121 20.24258"></polygon>
                <polygon id="Shape" fill="#D1D1D1" points="15.5391093 26.2903314 16.883054 26.2903314 16.883054 27.6342761 15.5391093 27.6342761"></polygon>
                <polygon id="Shape" fill="#D1D1D1" points="6.13149597 26.2903314 7.47544073 26.2903314 7.47544073 27.6342761 6.13149597 27.6342761"></polygon>
                <polygon id="Shape" fill="#D1D1D1" points="10.8353026 28.9782209 12.1792474 28.9782209 12.1792474 30.3221657 10.8353026 30.3221657"></polygon>
                <polygon id="Shape" fill="#FBD98E" points="7.47544073 35.6979447 3.4740972 35.6979447 4.26828456 37.0418894 7.47544073 37.0418894"></polygon>
                <polygon id="Shape" fill="#FBD98E" points="19.5403688 35.6979447 8.81938549 35.6979447 8.81938549 37.0418894 18.7462655 37.0418894"></polygon>
                <g id="Group" transform="translate(2.015917, 17.471282)" fill="#DE4C3B">
                    <polygon id="Shape" points="16.2110817 2.77129809 17.5550264 2.77129809 17.5550264 4.11524285 16.2110817 4.11524285"></polygon>
                    <polygon id="Shape" points="14.8671369 1.42735333 16.2110817 1.42735333 16.2110817 2.77129809 14.8671369 2.77129809"></polygon>
                    <polygon id="Shape" points="16.2110817 0.0834085716 17.5550264 0.0834085716 17.5550264 1.42735333 16.2110817 1.42735333"></polygon>
                    <polygon id="Shape" points="17.5550264 1.42735333 18.8989712 1.42735333 18.8989712 2.77129809 17.5550264 2.77129809"></polygon>
                    <polygon id="Shape" points="0.0837445578 1.42735333 1.42768932 1.42735333 1.42768932 2.77129809 0.0837445578 2.77129809"></polygon>
                    <polygon id="Shape" points="1.42768932 0.0834085716 2.77163408 0.0834085716 2.77163408 1.42735333 1.42768932 1.42735333"></polygon>
                    <polygon id="Shape" points="1.42768932 2.77129809 2.77163408 2.77129809 2.77163408 4.11524285 1.42768932 4.11524285"></polygon>
                </g>
            </g>
            <g id="matryoshka-doll" transform="translate(25.500000, 10.000000)">
                <path d="M16.0766179,13.9465691 C15.6554367,12.8626005 15.5930988,11.6721073 15.8987671,10.5500787 C16.2295508,9.33718545 16.3149692,8.07047666 16.1500186,6.82415443 C15.7009826,3.43126573 13.1805191,0.727610904 9.80396234,0.169094861 C5.62915721,-0.541626106 1.66368392,2.2513815 0.926699456,6.42163042 C0.684351154,7.79487871 0.748946852,9.20474449 1.11585221,10.5500787 L1.14634269,10.6849571 C1.38977735,11.7333348 1.31006408,12.8308536 0.917695139,13.8330526 C-0.544109136,17.4971886 -0.215296322,21.6805942 1.85476508,25.1837703 L4.03641792,28.8754781 L12.9786361,28.8754781 L15.1601026,25.1837703 C17.1720689,21.7765864 17.5098806,17.6347486 16.0766179,13.9465691 Z" id="Shape" fill="#FDB62F"></path>
                <path d="M8.507527,23.9075791 C5.48946267,23.9075791 3.04283812,21.4609546 3.04283812,18.4428903 L3.04283812,12.4814115 L13.9722159,12.4814115 L13.9722159,18.4428903 C13.9722159,21.4609546 11.5255913,23.9075791 8.507527,23.9075791 Z" id="Shape" fill="#EAEAE8"></path>
                <path d="M16.1500807,6.82384394 C15.7009826,3.43101733 13.1805191,0.72730041 9.80396234,0.168846467 C5.62908379,-0.541828474 1.663596,2.25130031 0.926699456,6.42163042 C0.684351154,7.79487871 0.748946852,9.20474449 1.11585221,10.5500787 L1.14634269,10.6849571 C1.38974487,11.7333166 1.31003217,12.8308059 0.917695139,13.8329905 C0.358389123,15.2394567 0.0561820661,16.7349273 0.0254604823,18.2482107 C3.43122634,17.6631628 6.47435273,15.772432 8.507527,12.9782014 C10.5314755,15.7603013 13.5569135,17.6474985 16.9456276,18.2416904 C16.902459,16.7709638 16.608634,15.3183879 16.0768042,13.946507 C15.6556192,12.8625608 15.5932811,11.672086 15.8989534,10.5500787 C16.2296991,9.33707175 16.315075,8.07026095 16.1500807,6.82384394 Z" id="Shape" fill="#F85542"></path>
                <path d="M8.507527,13.4749913 L8.12251483,13.6674974 C7.13181935,14.162926 5.95160328,14.0894588 5.02999772,13.4749913 L5.74276702,12.9997497 C6.249798,12.661754 6.84552976,12.4813988 7.45489131,12.4814115 L8.507527,12.4814115 L8.507527,13.4749913 Z" id="Shape" fill="#C94536"></path>
                <path d="M8.507527,13.4749913 L8.89253917,13.6674974 C9.88323465,14.162926 11.0634507,14.0894588 11.9850563,13.4749913 L11.272287,12.9997497 C10.7652512,12.6617642 10.1695226,12.4814099 9.56016269,12.4814115 L8.507527,12.4814115 L8.507527,13.4749913 Z" id="Shape" fill="#C94536"></path>
                <circle id="Oval" fill="#DE4C3B" cx="8.5073407" cy="13.9717812" r="1"></circle>
                <circle id="Oval" fill="#FAD7BE" cx="8.5073407" cy="7.51345041" r="5.46468888"></circle>
                <path d="M3.13772499,6.51639309 C5.21716214,6.48035899 7.0872156,5.24231927 7.93249269,3.34209194 L8.507527,2.04876154 C5.87497811,2.04971106 3.6174827,3.92792885 3.13772499,6.51639309 Z" id="Shape" fill="#995701"></path>
                <path d="M8.507527,2.04876154 L9.08231291,3.34209194 C9.92760224,5.24230892 11.7976482,6.48034368 13.8770806,6.51639309 C13.3973628,3.92800749 11.1399913,2.04980585 8.507527,2.04876154 Z" id="Shape" fill="#995701"></path>
                <circle id="Oval" fill="#844B02" cx="6.02339121" cy="7.51345041" r="1"></circle>
                <circle id="Oval" fill="#844B02" cx="10.9912902" cy="7.51345041" r="1"></circle>
                <path d="M10.7260665,17.5975402 C10.5641746,17.099297 10.0290435,16.8266159 9.53078999,16.9884757 L9.41901227,17.0247414 L9.41901227,16.907499 C9.41901227,16.3836248 8.99432829,15.9589408 8.47045405,15.9589408 C7.94657982,15.9589408 7.52189584,16.3836248 7.52189584,16.907499 L7.52189584,17.0247414 L7.41011812,16.9884757 C6.91188028,16.8265806 6.37673678,17.0992402 6.21484164,17.5974781 C6.05294649,18.0957159 6.32560611,18.6308594 6.82384394,18.7927546 L6.93562166,18.8290202 L6.86669207,18.9239071 C6.55869517,19.3478594 6.6526956,19.9412214 7.0766479,20.2492183 C7.50060019,20.5572152 8.09396225,20.4632148 8.40195915,20.0392625 L8.47088875,19.9444377 L8.53981834,20.0392625 C8.84815009,20.4618525 9.4403973,20.5550538 9.86361732,20.2475875 C10.2868373,19.9401211 10.3812504,19.3480659 10.0746507,18.9242176 L10.0057211,18.8293307 L10.1174989,18.793065 C10.3567509,18.7152503 10.5552856,18.5455691 10.6694175,18.3213581 C10.7835494,18.0971472 10.8039271,17.8367773 10.7260665,17.5975402 Z" id="Shape" fill="#69B9E7"></path>
                <circle id="Oval" fill="#4298D1" cx="8.5073407" cy="18.2306368" r="1"></circle>
                <path d="M8.507527,10.7343877 C7.94762888,10.7348157 7.39131203,10.6451156 6.8599233,10.4687293 C6.69154462,10.4125661 6.565919,10.2708402 6.53036842,10.0969384 C6.49481784,9.92303656 6.55474327,9.74337864 6.68757138,9.62564002 C6.82039948,9.5079014 7.00595052,9.46996938 7.17432921,9.52613259 C8.04000583,9.81284299 8.97504817,9.81284299 9.84072479,9.52613259 C10.1010157,9.43932895 10.3823914,9.57996816 10.469195,9.84025905 C10.5559987,10.1005499 10.4153595,10.3819257 10.1550686,10.4687293 C9.62370016,10.6451111 9.06740446,10.7348112 8.507527,10.7343877 Z" id="Shape" fill="#844B02"></path>
                <polygon id="Shape" fill="#DE4C3B" points="3.53944173 13.9717812 4.53302152 13.9717812 4.53302152 14.965361 3.53944173 14.965361"></polygon>
                <polygon id="Shape" fill="#D1D1D1" points="11.4880801 19.4364701 12.4816599 19.4364701 12.4816599 20.4300499 11.4880801 20.4300499"></polygon>
                <polygon id="Shape" fill="#D1D1D1" points="4.53302152 19.4364701 5.52660132 19.4364701 5.52660132 20.4300499 4.53302152 20.4300499"></polygon>
                <polygon id="Shape" fill="#D1D1D1" points="8.01055081 21.4236297 9.0041306 21.4236297 9.0041306 22.4172094 8.01055081 22.4172094"></polygon>
                <polygon id="Shape" fill="#FBD98E" points="5.52660132 26.3915286 2.56840377 26.3915286 3.15554733 27.3851084 5.52660132 27.3851084"></polygon>
                <polygon id="Shape" fill="#FBD98E" points="14.4462155 26.3915286 6.52018111 26.3915286 6.52018111 27.3851084 13.8591341 27.3851084"></polygon>
                <g id="Group" transform="translate(1.490370, 12.916537)" fill="#DE4C3B">
                    <polygon id="Shape" points="11.98487 2.04882364 12.9784498 2.04882364 12.9784498 3.04240343 11.98487 3.04240343"></polygon>
                    <polygon id="Shape" points="10.9912902 1.05524384 11.98487 1.05524384 11.98487 2.04882364 10.9912902 2.04882364"></polygon>
                    <polygon id="Shape" points="11.98487 0.0616640461 12.9784498 0.0616640461 12.9784498 1.05524384 11.98487 1.05524384"></polygon>
                    <polygon id="Shape" points="12.9784498 1.05524384 13.9720296 1.05524384 13.9720296 2.04882364 12.9784498 2.04882364"></polygon>
                    <polygon id="Shape" points="0.061912441 1.05524384 1.05549224 1.05524384 1.05549224 2.04882364 0.061912441 2.04882364"></polygon>
                    <polygon id="Shape" points="1.05549224 0.0616640461 2.04907203 0.0616640461 2.04907203 1.05524384 1.05549224 1.05524384"></polygon>
                    <polygon id="Shape" points="1.05549224 2.04882364 2.04907203 2.04882364 2.04907203 3.04240343 1.05549224 3.04240343"></polygon>
                </g>
            </g>
            <g id="matryoshka-doll" transform="translate(45.000000, 20.000000)">
                <path d="M10.4075376,9.02860559 C10.1348771,8.32687568 10.0945213,7.55618481 10.2924021,6.82981589 C10.5065419,6.04462389 10.5618393,5.22459325 10.4550551,4.41776027 C10.1643622,2.22130222 8.53268696,0.471034262 6.34680175,0.109467124 C3.64415362,-0.350633081 1.07702087,1.45747929 0.599918434,4.15717786 C0.44302915,5.0461791 0.484846537,5.95888544 0.722370457,6.82981589 L0.742109113,6.9171323 C0.899701673,7.5958217 0.848097606,8.30632365 0.594089299,8.9551183 C-0.352240522,11.327174 -0.139376614,14.0353898 1.20072129,16.3032447 L2.61306026,18.6931497 L8.40199374,18.6931497 L9.81421211,16.3032447 C11.1167009,14.0975324 11.3353904,11.4162264 10.4075376,9.02860559 Z" id="Shape" fill="#FDB62F"></path>
                <path d="M5.507527,15.4770755 C3.55371942,15.4770755 1.96984542,13.8932015 1.96984542,11.9393939 L1.96984542,8.08010492 L9.04520858,8.08010492 L9.04520858,11.9393939 C9.04520858,13.8932015 7.46133458,15.4770755 5.507527,15.4770755 Z" id="Shape" fill="#EAEAE8"></path>
                <path d="M10.4550953,4.41755927 C10.1643622,2.22114142 8.53268696,0.470833257 6.34680175,0.109306321 C3.64410609,-0.350764088 1.07696395,1.45742673 0.599918434,4.15717786 C0.44302915,5.0461791 0.484846537,5.95888544 0.722370457,6.82981589 L0.742109113,6.9171323 C0.899680648,7.59580993 0.84807695,8.30629279 0.594089299,8.9550781 C0.232010756,9.86558366 0.0363706452,10.8337081 0.0164823801,11.813364 C2.22127673,11.4346209 4.19130876,10.2106164 5.507527,8.40171234 C6.81777272,10.2027634 8.77635382,11.4244803 10.9701094,11.8091429 C10.9421632,10.857037 10.7519495,9.91668144 10.4076582,9.02856539 C10.1349952,8.32684999 10.0946393,7.55617102 10.2925227,6.82981589 C10.5066379,6.04455028 10.5619078,5.2244536 10.4550953,4.41755927 Z" id="Shape" fill="#F85542"></path>
                <path d="M5.507527,8.72331975 L5.25828125,8.84794263 C4.61693364,9.16866881 3.85289588,9.12110823 3.25627509,8.72331975 L3.71770133,8.41566206 C4.04593852,8.19685343 4.43159804,8.08009669 4.82608109,8.08010492 L5.507527,8.08010492 L5.507527,8.72331975 Z" id="Shape" fill="#C94536"></path>
                <path d="M5.507527,8.72331975 L5.75677275,8.84794263 C6.39812036,9.16866881 7.16215812,9.12110823 7.75877891,8.72331975 L7.29735267,8.41566206 C6.96911237,8.19686002 6.58345489,8.0801039 6.18897291,8.08010492 L5.507527,8.08010492 L5.507527,8.72331975 Z" id="Shape" fill="#C94536"></path>
                <circle id="Oval" fill="#DE4C3B" cx="5.5074064" cy="9.04492717" r="1"></circle>
                <circle id="Oval" fill="#FAD7BE" cx="5.5074064" cy="4.86399056" r="3.53768158"></circle>
                <path d="M2.03127244,4.21852448 C3.37743992,4.19519704 4.58805846,3.39372593 5.13526642,2.16357369 L5.507527,1.32630898 C3.80329096,1.32692367 2.34185371,2.54282757 2.03127244,4.21852448 Z" id="Shape" fill="#995701"></path>
                <path d="M5.507527,1.32630898 L5.87962678,2.16357369 C6.42684265,3.39371922 7.63745635,4.19518713 8.98362076,4.21852448 C8.67306533,2.54287848 7.21170825,1.32698504 5.507527,1.32630898 Z" id="Shape" fill="#995701"></path>
                <circle id="Oval" fill="#844B02" cx="3.89936932" cy="4.86399056" r="1"></circle>
                <circle id="Oval" fill="#844B02" cx="7.11544348" cy="4.86399056" r="1"></circle>
                <path d="M6.94374532,11.3921387 C6.83894122,11.0695905 6.49251282,10.8930646 6.16995788,10.997848 L6.09759621,11.0213253 L6.09759621,10.945426 C6.09759621,10.606285 5.82266808,10.3313568 5.48352705,10.3313568 C5.14438601,10.3313568 4.86945789,10.606285 4.86945789,10.945426 L4.86945789,11.0213253 L4.79709622,10.997848 C4.47455145,10.8930418 4.12811502,11.0695537 4.02330878,11.3920985 C3.91850255,11.7146433 4.0950145,12.0610797 4.41755927,12.1658859 L4.48992093,12.1893633 L4.44529791,12.2507903 C4.24590962,12.5252448 4.30676278,12.9093702 4.58121724,13.1087585 C4.8556717,13.3081468 5.23979714,13.2472936 5.43918542,12.9728391 L5.48380845,12.9114523 L5.52843148,12.9728391 C5.72803654,13.2464117 6.11144026,13.3067475 6.38542066,13.1077027 C6.65940106,12.9086579 6.72052137,12.5253784 6.52203759,12.2509913 L6.47741456,12.1895643 L6.54977623,12.1660869 C6.70466107,12.1157119 6.83318671,12.0058652 6.90707241,11.8607175 C6.98095812,11.7155698 6.99415,11.5470139 6.94374532,11.3921387 Z" id="Shape" fill="#69B9E7"></path>
                <circle id="Oval" fill="#4298D1" cx="5.5074064" cy="11.8019871" r="1"></circle>
                <path d="M5.507527,6.94913224 C5.14506515,6.94940929 4.7849217,6.89134003 4.440916,6.77715268 C4.33191251,6.74079424 4.25058612,6.64904499 4.2275717,6.53646598 C4.20455728,6.42388696 4.24335127,6.30758162 4.32934035,6.23136104 C4.41532943,6.15514046 4.5354498,6.13058437 4.6444533,6.16694281 C5.20486731,6.35255083 5.81018669,6.35255083 6.3706007,6.16694281 C6.5391055,6.11074864 6.72126,6.2017944 6.77745417,6.3702992 C6.83364834,6.538804 6.74260259,6.7209585 6.57409779,6.77715268 C6.23010523,6.89133713 5.86997548,6.94940637 5.507527,6.94913224 Z" id="Shape" fill="#844B02"></path>
                <polygon id="Shape" fill="#DE4C3B" points="2.29133224 9.04492717 2.93454707 9.04492717 2.93454707 9.688142 2.29133224 9.688142"></polygon>
                <polygon id="Shape" fill="#D1D1D1" points="7.43705089 12.5826087 8.08026573 12.5826087 8.08026573 13.2258236 7.43705089 13.2258236"></polygon>
                <polygon id="Shape" fill="#D1D1D1" points="2.93454707 12.5826087 3.5777619 12.5826087 3.5777619 13.2258236 2.93454707 13.2258236"></polygon>
                <polygon id="Shape" fill="#D1D1D1" points="5.18579898 13.8690384 5.82901381 13.8690384 5.82901381 14.5122532 5.18579898 14.5122532"></polygon>
                <polygon id="Shape" fill="#FBD98E" points="3.5777619 17.0851126 1.66271034 17.0851126 2.04281011 17.7283274 3.5777619 17.7283274"></polygon>
                <polygon id="Shape" fill="#FBD98E" points="9.35206225 17.0851126 4.22097673 17.0851126 4.22097673 17.7283274 8.97200269 17.7283274"></polygon>
                <g id="Group" transform="translate(0.964822, 8.361793)" fill="#DE4C3B">
                    <polygon id="Shape" points="7.75865831 1.32634918 8.40187314 1.32634918 8.40187314 1.96956402 7.75865831 1.96956402"></polygon>
                    <polygon id="Shape" points="7.11544348 0.683134353 7.75865831 0.683134353 7.75865831 1.32634918 7.11544348 1.32634918"></polygon>
                    <polygon id="Shape" points="7.75865831 0.0399195205 8.40187314 0.0399195205 8.40187314 0.683134353 7.75865831 0.683134353"></polygon>
                    <polygon id="Shape" points="8.40187314 0.683134353 9.04508797 0.683134353 9.04508797 1.32634918 8.40187314 1.32634918"></polygon>
                    <polygon id="Shape" points="0.0400803242 0.683134353 0.683295156 0.683134353 0.683295156 1.32634918 0.0400803242 1.32634918"></polygon>
                    <polygon id="Shape" points="0.683295156 0.0399195205 1.32650999 0.0399195205 1.32650999 0.683134353 0.683295156 0.683134353"></polygon>
                    <polygon id="Shape" points="0.683295156 1.32634918 1.32650999 1.32634918 1.32650999 1.96956402 0.683295156 1.96956402"></polygon>
                </g>
            </g>
        </g>
    </g>
</svg>