<?xml version="1.0" encoding="UTF-8"?>
<svg width="73px" height="73px" viewBox="0 0 73 73" version="1.1" xmlns="http://www.w3.org/2000/svg" xmlns:xlink="http://www.w3.org/1999/xlink">
    <!-- Generator: Sketch 51.3 (57544) - http://www.bohemiancoding.com/sketch -->
    <title>architecture-and-paradigms/paradigms/higher-order-functions</title>
    <desc>Created with Sketch.</desc>
    <defs></defs>
    <g id="architecture-and-paradigms/paradigms/higher-order-functions" stroke="none" stroke-width="1" fill="none" fill-rule="evenodd">
        <g id="container" transform="translate(2.000000, 2.000000)" fill="#FFFFFF" fill-rule="nonzero" stroke="#630E06" stroke-width="2">
            <rect id="mask" x="-1" y="-1" width="71" height="71" rx="14"></rect>
        </g>
        <g id="crowns" transform="translate(10.000000, 16.000000)" fill-rule="nonzero">
            <polygon id="Shape" fill="#FF9F00" points="9.41992188 31.0546875 9.41992188 40.3710938 43.5800781 40.3710938 43.5800781 31.0546875"></polygon>
            <polygon id="Shape" fill="#FF7816" points="26.5 31.0546875 43.5800781 31.0546875 43.5800781 40.3710938 26.5 40.3710938"></polygon>
            <path d="M43.7353516,17.5147629 L41.219841,22.4212417 L11.780159,22.4212417 L9.26464844,17.5147629 C12.9600754,12.3907395 19.3885574,9.31640625 26.5,9.31640625 C33.6114426,9.31640625 40.0399246,12.3907395 43.7353516,17.5147629 Z" id="Shape" fill="#FF4B00"></path>
            <path d="M43.7353516,17.5147629 L41.219841,22.4212417 L26.5,22.4212417 L26.5,9.31640625 C33.6114426,9.31640625 40.0399246,12.3907395 43.7353516,17.5147629 Z" id="Shape" fill="#CC1E0D"></path>
            <path d="M49.3874664,14.4092942 L43.5800781,34.1601562 L9.41992188,34.1601562 L3.61253362,14.4092942 L7.52550509,12.9188308 C9.29578397,16.3037109 12.6806641,18.2911301 15.4444504,18.6328125 L17.0594558,18.6328125 C20.6307449,18.0739898 23.3011245,12.608284 24.3884429,7.39085393 L28.6119614,7.39085393 C29.6988755,12.608284 32.3696594,18.0739898 35.9405442,18.6328125 L37.5555496,18.6328125 C40.3193359,18.2911301 43.704216,16.3037109 45.4744949,12.9188308 L49.3874664,14.4092942 Z" id="Shape" fill="#FDBF00"></path>
            <path d="M49.3874664,14.4092942 L43.5800781,34.1601562 L26.5,34.1601562 L26.5,7.39085393 L28.6115571,7.39085393 C29.6988755,12.608284 32.3692551,18.0739898 35.9405442,18.6328125 L37.5555496,18.6328125 C40.3193359,18.2911301 43.704216,16.3037109 45.4744949,12.9188308 L49.3874664,14.4092942 Z" id="Shape" fill="#FF9F00"></path>
            <path d="M4.76171875,15.5273437 C2.1932373,15.5273437 0,13.4376221 0,10.8691406 C0,8.30065918 2.1932373,6.2109375 4.76171875,6.2109375 C7.3302002,6.2109375 9.41992188,8.30065918 9.41992188,10.8691406 C9.41992188,13.4376221 7.3302002,15.5273437 4.76171875,15.5273437 Z" id="Shape" fill="#FF9F00"></path>
            <path d="M48.2382812,15.5273437 C45.6697998,15.5273437 43.5800781,13.4376221 43.5800781,10.8691406 C43.5800781,8.30065918 45.6697998,6.2109375 48.2382812,6.2109375 C50.8067627,6.2109375 53,8.30065918 53,10.8691406 C53,13.4376221 50.8067627,15.5273437 48.2382812,15.5273437 Z" id="Shape" fill="#FF7816"></path>
            <path d="M26.5,0 C23.9222183,0 21.8417969,2.08042142 21.8417969,4.65820312 C21.8417969,7.2355805 23.9222183,9.31640625 26.5,9.31640625 C29.0777817,9.31640625 31.1582031,7.2355805 31.1582031,4.65820312 C31.1582031,2.08042142 29.0777817,0 26.5,0 Z" id="Shape" fill="#FF9F00"></path>
            <polygon id="Shape" fill="#FF4B00" points="26.5 17.9805832 21.1895676 23.2910156 26.5 28.601448 31.8104324 23.2910156"></polygon>
            <polygon id="Shape" fill="#CC1E0D" points="35.8164062 24.2004165 38.0120698 26.39608 35.8164062 28.5917434 33.6207427 26.39608"></polygon>
            <polygon id="Shape" fill="#FF4B00" points="17.1835938 24.2004165 19.3792573 26.39608 17.1835938 28.5917434 14.9879302 26.39608"></polygon>
            <path d="M26.5,9.31640625 L26.5,0 C29.0777817,0 31.1582031,2.08042142 31.1582031,4.65820312 C31.1582031,7.2355805 29.0777817,9.31640625 26.5,9.31640625 Z" id="Shape" fill="#FF7816"></path>
            <polygon id="Shape" fill="#CC1E0D" points="31.8104324 23.2910156 26.5 28.601448 26.5 17.9805832"></polygon>
        </g>
    </g>
</svg>