<?xml version="1.0" encoding="UTF-8"?>
<svg width="73px" height="73px" viewBox="0 0 73 73" version="1.1" xmlns="http://www.w3.org/2000/svg" xmlns:xlink="http://www.w3.org/1999/xlink">
    <!-- Generator: Sketch 51.3 (57544) - http://www.bohemiancoding.com/sketch -->
    <title>architecture-and-paradigms/paradigms/monads</title>
    <desc>Created with Sketch.</desc>
    <defs>
        <rect id="path-1" x="0" y="2" width="69" height="69" rx="14"></rect>
    </defs>
    <g id="architecture-and-paradigms/paradigms/monads" stroke="none" stroke-width="1" fill="none" fill-rule="evenodd">
        <g id="container" transform="translate(2.000000, 0.000000)">
            <rect id="mask" stroke="#092D44" stroke-width="2" fill="#FFFFFF" fill-rule="nonzero" x="-1" y="1" width="71" height="71" rx="14"></rect>
            <mask id="mask-2" fill="white">
                <use xlink:href="#path-1"></use>
            </mask>
            <rect stroke="#092D44" stroke-width="2" x="-1" y="1" width="71" height="71" rx="14"></rect>
            <g id="gauge" mask="url(#mask-2)">
                <g transform="translate(8.000000, 0.000000)">
                    <polygon id="Shape" fill="#87CEE9" fill-rule="nonzero" points="14.8645161 0 27.8709677 0 27.8709677 23.0064516 14.8645161 23.0064516"></polygon>
                    <polygon id="Shape" fill="#195C85" fill-rule="nonzero" points="40.8774194 36.9419355 44.5935484 36.9419355 44.5935484 42.516129 40.8774194 42.516129"></polygon>
                    <polygon id="Shape" fill="#50B3C9" fill-rule="nonzero" points="39.0193548 42.516129 46.4516129 42.516129 46.4516129 49.9483871 39.0193548 49.9483871"></polygon>
                    <polygon id="Shape" fill="#AABECE" fill-rule="nonzero" points="46.4516129 45.3032258 50.1677419 45.3032258 50.1677419 47.1612903 46.4516129 47.1612903"></polygon>
                    <polygon id="Shape" fill="#FFD782" fill-rule="nonzero" points="49.2387097 43.4451613 51.0967742 43.4451613 51.0967742 49.0193548 49.2387097 49.0193548"></polygon>
                    <polygon id="Shape" fill="#195C85" fill-rule="nonzero" points="27.8709677 53.6645161 33.4451613 53.6645161 33.4451613 57.3806452 27.8709677 57.3806452"></polygon>
                    <path d="M40.8774194,49.9483871 L40.8774194,52.7354839 C40.8774194,53.2485383 40.4614416,53.6645161 39.9483871,53.6645161 L33.4451613,53.6645161 L33.4451613,57.3806452 L40.8774194,57.3806452 C42.9296371,57.3806452 44.5935484,55.7167339 44.5935484,53.6645161 L44.5935484,49.9483871 L40.8774194,49.9483871 Z" id="Shape" fill="#195C85" fill-rule="nonzero"></path>
                    <polygon id="Shape" fill="#50B3C9" fill-rule="nonzero" points="32.516129 50.8774194 34.3741935 50.8774194 34.3741935 60.1677419 32.516129 60.1677419"></polygon>
                    <path d="M1.85806452,29.5096774 C2.88417345,29.5096774 3.71612903,30.341633 3.71612903,31.3677419 L3.71612903,40.6580645 C3.71612903,41.6841734 2.88417345,42.516129 1.85806452,42.516129 C0.831955587,42.516129 0,41.6841734 0,40.6580645 L0,31.3677419 C0,30.341633 0.831955587,29.5096774 1.85806452,29.5096774 Z" id="Shape" fill="#DD3E46" fill-rule="nonzero"></path>
                    <polygon id="Shape" fill="#AABECE" fill-rule="nonzero" points="3.71612903 34.1548387 11.1483871 34.1548387 11.1483871 37.8709677 3.71612903 37.8709677"></polygon>
                    <polygon id="Shape" fill="#7D8D9C" fill-rule="nonzero" points="11.1483871 32.2967742 14.8645161 32.2967742 14.8645161 39.7290323 11.1483871 39.7290323"></polygon>
                    <polygon id="Shape" fill="#87CEE9" fill-rule="nonzero" points="14.8645161 26.7225806 27.8709677 26.7225806 27.8709677 45.3032258 14.8645161 45.3032258"></polygon>
                    <polygon id="Shape" fill="#2D75BB" fill-rule="nonzero" points="14.8645161 23.0064516 27.8709677 23.0064516 27.8709677 26.7225806 14.8645161 26.7225806"></polygon>
                    <polygon id="Shape" fill="#87CEE9" fill-rule="nonzero" points="27.8709677 73.883871 14.8645161 73.883871 14.8645161 49.0193548 27.8709677 49.0193548"></polygon>
                    <polygon id="Shape" fill="#2D75BB" fill-rule="nonzero" points="27.8709677 49.0193548 14.8645161 49.0193548 14.8645161 45.3032258 27.8709677 45.3032258"></polygon>
                    <g id="Group" stroke-width="1" fill="none" fill-rule="evenodd" transform="translate(17.651613, 10.000000)">
                        <polygon id="Shape" fill="#CDEEF6" fill-rule="nonzero" points="0 0 1.85806452 0 1.85806452 9.29032258 0 9.29032258"></polygon>
                        <polygon id="Shape" fill="#CDEEF6" fill-rule="nonzero" points="0 19.5096774 1.85806452 19.5096774 1.85806452 21.3677419 0 21.3677419"></polygon>
                        <polygon id="Shape" fill="#CDEEF6" fill-rule="nonzero" points="3.71612903 51.0967742 0 51.0967742 0 45.5225806 1.85806452 45.5225806 1.85806452 49.2387097 3.71612903 49.2387097"></polygon>
                    </g>
                    <path d="M53.883871,26.7225806 C53.8888609,27.9990928 53.6688509,29.2665323 53.233367,30.4668347 C53.0333165,31.0556452 52.7779233,31.6249496 52.4717238,32.1665826 C50.4970767,35.6894658 46.7736896,37.8709677 42.7354839,37.8709677 C38.6972782,37.8709677 34.9738911,35.6894658 32.9992439,32.1665826 C32.6930444,31.6249496 32.4376512,31.0556452 32.2376007,30.4668347 C31.5090726,28.4332158 31.3897681,26.2313004 31.89375,24.1305444 C32.0321068,23.5231351 32.2248993,22.9293347 32.4698588,22.3559476 C33.3267641,20.337752 34.7620464,18.6180444 36.5947077,17.4136593 C38.1515625,16.3816532 39.9447581,15.7615423 41.8064516,15.6113911 C42.1131048,15.5837197 42.4197581,15.5741935 42.7354839,15.5741935 C43.0512097,15.5741935 43.3578629,15.5837197 43.6645161,15.6113911 C45.5230342,15.7633568 47.3130545,16.3834677 48.8671875,17.4136593 C49.3929435,17.7529738 49.8873993,18.1385584 50.3442036,18.565877 C51.6964717,19.8378529 52.7144154,21.4237399 53.307762,23.1829133 C53.5141633,23.7839717 53.6634072,24.4027218 53.7536794,25.0319052 C53.839869,25.5912298 53.8834174,26.1564516 53.883871,26.7225806 Z" id="Shape" fill="#FFD782" fill-rule="nonzero"></path>
                    <polygon id="Shape" fill="#5A6470" fill-rule="nonzero" points="38.3629536 29.7814012 41.150504 26.9938509 42.4642137 28.3075605 39.6771169 31.0951109"></polygon>
                    <polygon id="Shape" fill="#5A6470" fill-rule="nonzero" points="43.0081149 25.1366935 45.7956653 22.3495968 47.1093749 23.6633065 44.3222782 26.4508568"></polygon>
                    <polygon id="Shape" fill="#FCF05A" fill-rule="nonzero" points="41.8064516 32.2967742 43.6645161 32.2967742 43.6645161 34.1548387 41.8064516 34.1548387"></polygon>
                    <path d="M50.7157258,29.2030242 L53.233367,30.4668347 L52.4717238,32.1665826 L49.9726814,30.912752 C49.5167842,31.6925403 48.9397681,32.3947581 48.2634072,32.9935484 L47.0367943,31.6 C49.0654233,29.8108871 49.7748993,26.9534778 48.8186491,24.4235887 C47.8623993,21.8932459 45.4400201,20.2193548 42.7354839,20.2193548 C40.0309476,20.2193548 37.6085685,21.8932459 36.6523186,24.4235887 C35.6960685,26.9534778 36.4055444,29.8108871 38.4341734,31.6 L37.2075605,32.9935484 C36.5311996,32.3947581 35.9541835,31.6925403 35.4982863,30.912752 L32.9992439,32.1665826 C32.6930444,31.6249496 32.4376512,31.0556452 32.2376007,30.4668347 L34.7552419,29.2030242 C34.3438004,27.9024697 34.2639617,26.5198084 34.5229839,25.1802419 L31.89375,24.1305444 C32.0321068,23.5231351 32.2248993,22.9293347 32.4698588,22.3559476 L35.0709677,23.3965726 C35.5422883,22.3146674 36.2390625,21.345262 37.1150201,20.5536794 L35.1267641,18.565877 C35.5831149,18.1412803 36.0739416,17.7561491 36.5947077,17.4136593 L38.6292339,19.4481855 C39.6068045,18.8915826 40.6882561,18.5409274 41.8064516,18.4170867 L41.8064516,15.6113911 C42.1131048,15.5837197 42.4197581,15.5741935 42.7354839,15.5741935 C43.0512097,15.5741935 43.3578629,15.5837197 43.6645161,15.6113911 L43.6645161,18.4170867 C44.7827117,18.5409274 45.8641633,18.8915826 46.8417339,19.4481855 L48.8671875,17.4136593 L50.3442036,18.565877 L48.3559476,20.5536794 C49.5117943,21.6015625 50.3491935,22.9538306 50.7715222,24.4557964 L53.307762,23.1829133 L53.7536794,25.0319052 L51.0781754,26.3787298 C51.0877016,26.4903226 51.0967742,26.6019154 51.0967742,26.7225806 C51.0935988,27.5636089 50.9652218,28.3996471 50.7157258,29.2030242 Z" id="Shape" fill="#DD3E46" fill-rule="nonzero"></path>
                    <path d="M44.5935484,26.7225806 C44.5935484,27.7486896 43.7615928,28.5806452 42.7354839,28.5806452 C41.7093749,28.5806452 40.8774194,27.7486896 40.8774194,26.7225806 C40.8774194,25.6964717 41.7093749,24.8645161 42.7354839,24.8645161 C43.7615928,24.8645161 44.5935484,25.6964717 44.5935484,26.7225806 Z" id="Shape" fill="#E97424" fill-rule="nonzero"></path>
                </g>
            </g>
        </g>
    </g>
</svg>