<?xml version="1.0" encoding="UTF-8"?>
<svg width="73px" height="73px" viewBox="0 0 73 73" version="1.1" xmlns="http://www.w3.org/2000/svg" xmlns:xlink="http://www.w3.org/1999/xlink">
    <!-- Generator: Sketch 51.3 (57544) - http://www.bohemiancoding.com/sketch -->
    <title>architecture-and-paradigms/paradigms/object-oriented-programming</title>
    <desc>Created with Sketch.</desc>
    <defs></defs>
    <g id="architecture-and-paradigms/paradigms/object-oriented-programming" stroke="none" stroke-width="1" fill="none" fill-rule="evenodd">
        <g id="container" transform="translate(2.000000, 2.000000)" fill="#FFFFFF" fill-rule="nonzero" stroke="#2A292F" stroke-width="2">
            <rect id="mask" x="-1" y="-1" width="71" height="71" rx="14"></rect>
        </g>
        <g id="rock" transform="translate(14.000000, 11.000000)" fill-rule="nonzero">
            <polygon id="Shape" fill="#77767E" points="22.8529393 0 0.0802247705 13.2454273 0.0802247705 37.5907658 23.0097152 50.8354981 45.7908692 37.5900708 45.7908692 13.2447323"></polygon>
            <polygon id="Shape" fill="#ACABB1" points="45.7908692 13.2447323 23.0097152 26.4901596 3.7215159 15.3485475 0.0802247705 13.2454273 22.8529393 0 38.1172905 5.60193289"></polygon>
            <polygon id="Shape" fill="#77767E" points="45.7908692 13.2447323 45.7908692 37.5900708 23.0097152 50.8354981 23.0097152 26.4901596 29.7693471 22.5599402 38.4167434 13.567915"></polygon>
            <g id="Group" transform="translate(0.000000, 12.411010)" fill="#898890">
                <polygon id="Shape" points="23.0097152 14.0791494 23.0097152 38.4244878 0.0802247705 25.1797555 0.0802247705 0.834417043 9.03392474 0.0592749851"></polygon>
                <path d="M42.0195107,8.3469505 C43.553313,7.46140009 44.7993784,7.45991077 44.8020592,8.3469505 C44.8045414,9.23210375 43.5624475,10.6671144 42.0286452,11.5526648 C40.4948429,12.4382152 39.2487775,12.4397045 39.2460967,11.5546506 C39.2436145,10.6676108 40.4857084,9.23260019 42.0195107,8.3469505" id="Shape"></path>
            </g>
            <path d="M35.1261377,28.9727588 C36.1725348,28.3685909 37.0244266,28.3887463 37.0262138,29.019325 C37.028001,29.6499036 36.1789886,30.6520182 35.1325915,31.2560869 C34.0844072,31.8612477 33.2343026,31.8400994 33.2325154,31.2095208 C33.2307282,30.5789421 34.0779535,29.5778204 35.1261377,28.9727588" id="Shape" fill="#57565C"></path>
            <g id="Group" transform="translate(1.489321, 29.587849)" fill="#77767E">
                <path d="M12.8073683,0.498724037 C13.8537654,1.10289202 14.7010899,2.10401375 14.6992034,2.73459236 C14.6974162,3.36517097 13.8472124,3.38433357 12.8008153,2.78016559 C11.7527303,2.17500473 10.9054058,1.17586876 10.907193,0.545389436 C10.9090795,-0.0852884627 11.7592833,-0.106436824 12.8073683,0.498724037" id="Shape"></path>
                <path d="M1.66128819,3.66114874 C2.56252611,4.26531673 3.29239281,5.26643846 3.2908042,5.89701707 C3.28921559,6.52759568 2.55696598,6.54675828 1.65572806,5.9425903 C0.752901528,5.33742944 0.0231341232,4.33829347 0.0247227325,3.70781414 C0.0264106299,3.07713625 0.758660236,3.05598788 1.66128819,3.66114874" id="Shape"></path>
            </g>
            <g id="Group" transform="translate(3.177219, 20.850497)" fill="#57565C">
                <path d="M14.9797915,21.0559243 C15.0874198,21.1180787 15.1972324,21.1902611 15.3084351,21.2725709 C16.2691466,21.9861544 16.9639646,23.1855544 16.8593149,23.952952 C16.7667784,24.6333732 16.0806978,24.7483488 15.2586918,24.2738511 C15.1511628,24.211796 15.0412509,24.1395143 14.9301475,24.0572045 C13.969436,23.343621 13.274618,22.144221 13.3792677,21.3748376 C13.4717049,20.6962036 14.1578848,20.5813273 14.9797915,21.0559243" id="Shape"></path>
                <path d="M0.752206511,0.131060269 C0.800659095,0.15896022 0.85010456,0.191526711 0.900145754,0.228561165 C1.33264464,0.549758111 1.64550139,1.08978599 1.59833955,1.43520923 C1.55673784,1.74151296 1.24775333,1.79334134 0.877706647,1.57967339 C0.829353351,1.55177344 0.779808598,1.51920695 0.729767405,1.48217249 C0.297268518,1.16097555 -0.0155882289,0.620947666 0.0315736102,0.274531547 C0.0732746047,-0.0308785936 0.382060541,-0.0825083964 0.752206511,0.131060269" id="Shape"></path>
            </g>
            <path d="M6.62182007,29.5389988 C7.10584947,29.8183954 7.4980374,30.5569002 7.4963495,31.1874788 C7.49456231,31.8160717 7.09939575,32.0999363 6.61546563,31.8204403 C6.13143623,31.5410437 5.7409362,30.8036311 5.74272339,30.1750382 C5.74441129,29.5443603 6.13788996,29.2596021 6.62182007,29.5389988" id="Shape" fill="#ACABB1"></path>
            <path d="M28.4960768,40.757162 C29.4266047,40.2199142 30.1829813,40.2912031 30.1847685,40.9159237 C30.1865556,41.5425308 29.4330584,42.4856683 28.5025305,43.0229161 C27.5720026,43.5602632 26.8172146,43.4877829 26.8155267,42.8611758 C26.8136402,42.2364552 27.5655489,41.2944098 28.4960768,40.757162" id="Shape" fill="#57565C"></path>
            <g id="Group" transform="translate(25.914189, 29.587849)" fill="#898890">
                <path d="M14.9725435,2.71483403 C15.9030714,2.17758622 16.6577601,2.24013771 16.659448,2.85502881 C16.6612352,3.4699199 15.9093266,4.40422075 14.9787987,4.94146857 C14.0482708,5.47871638 13.2918941,5.41517201 13.290107,4.80028091 C13.2884191,4.18538982 14.0420156,3.25208185 14.9725435,2.71483403" id="Shape"></path>
                <path d="M0.980966253,0.212377208 C1.47691022,-0.0739696213 1.87853052,0.0883663932 1.87992055,0.575970165 C1.88131058,1.06158818 1.48197392,1.68650737 0.986029945,1.97285419 C0.491773871,2.25820814 0.0901535787,2.09577284 0.0888628336,1.61015483 C0.0873735124,1.12255106 0.486809467,0.497631868 0.980966253,0.212377208" id="Shape"></path>
            </g>
        </g>
    </g>
</svg>