<?xml version="1.0" encoding="UTF-8"?>
<svg width="73px" height="73px" viewBox="0 0 73 73" version="1.1" xmlns="http://www.w3.org/2000/svg" xmlns:xlink="http://www.w3.org/1999/xlink">
    <!-- Generator: Sketch 51.3 (57544) - http://www.bohemiancoding.com/sketch -->
    <title>architecture-and-paradigms/paradigms/programming-paradigms</title>
    <desc>Created with Sketch.</desc>
    <defs></defs>
    <g id="architecture-and-paradigms/paradigms/programming-paradigms" stroke="none" stroke-width="1" fill="none" fill-rule="evenodd">
        <g id="container" transform="translate(2.000000, 2.000000)" fill="#FFFFFF" fill-rule="nonzero" stroke="#47361F" stroke-width="2">
            <rect id="mask" x="-1" y="-1" width="71" height="71" rx="14"></rect>
        </g>
        <g id="periodic-table" transform="translate(11.000000, 20.000000)" fill-rule="nonzero">
            <path d="M32.9446897,0.860689655 L50.6964138,0.860689655 C51.1866141,0.860689655 51.584,1.25807554 51.584,1.74827586 L51.584,33.7013793 C51.584,34.1915796 51.1866141,34.5889655 50.6964138,34.5889655 L0.991586207,34.5889655 C0.501385881,34.5889655 0.104,34.1915796 0.104,33.7013793 L0.104,1.74827586 C0.104,1.25807554 0.501385881,0.860689655 0.991586207,0.860689655 L32.9446897,0.860689655 Z" id="Shape" fill="#CBB292"></path>
            <polygon id="Rectangle-path" fill="#7D6599" points="43.5957241 16.8372414 48.0336552 16.8372414 48.0336552 21.2751724 43.5957241 21.2751724"></polygon>
            <polygon id="Rectangle-path" fill="#2980BA" points="39.1577931 16.8372414 43.5957241 16.8372414 43.5957241 21.2751724 39.1577931 21.2751724"></polygon>
            <polygon id="Rectangle-path" fill="#F0C419" points="30.281931 16.8372414 34.7198621 16.8372414 34.7198621 21.2751724 30.281931 21.2751724"></polygon>
            <polygon id="Rectangle-path" fill="#F3D55B" points="25.844 16.8372414 30.281931 16.8372414 30.281931 21.2751724 25.844 21.2751724"></polygon>
            <polygon id="Rectangle-path" fill="#F0C419" points="21.406069 16.8372414 25.844 16.8372414 25.844 21.2751724 21.406069 21.2751724"></polygon>
            <polygon id="Rectangle-path" fill="#E57E25" points="12.5302069 16.8372414 16.9681379 16.8372414 16.9681379 21.2751724 12.5302069 21.2751724"></polygon>
            <polygon id="Rectangle-path" fill="#C03A2B" points="3.65434483 16.8372414 8.09227586 16.8372414 8.09227586 21.2751724 3.65434483 21.2751724"></polygon>
            <polygon id="Rectangle-path" fill="#F29C1F" points="16.9681379 16.8372414 21.406069 16.8372414 21.406069 21.2751724 16.9681379 21.2751724"></polygon>
            <polygon id="Rectangle-path" fill="#5D4C72" points="43.5957241 21.2751724 48.0336552 21.2751724 48.0336552 25.7131034 43.5957241 25.7131034"></polygon>
            <polygon id="Rectangle-path" fill="#3B97D3" points="39.1577931 21.2751724 43.5957241 21.2751724 43.5957241 25.7131034 39.1577931 25.7131034"></polygon>
            <polygon id="Rectangle-path" fill="#14A085" points="34.7198621 21.2751724 39.1577931 21.2751724 39.1577931 25.7131034 34.7198621 25.7131034"></polygon>
            <polygon id="Rectangle-path" fill="#F3D55B" points="30.281931 21.2751724 34.7198621 21.2751724 34.7198621 25.7131034 30.281931 25.7131034"></polygon>
            <polygon id="Rectangle-path" fill="#F0C419" points="25.844 21.2751724 30.281931 21.2751724 30.281931 25.7131034 25.844 25.7131034"></polygon>
            <polygon id="Rectangle-path" fill="#F3D55B" points="21.406069 21.2751724 25.844 21.2751724 25.844 25.7131034 21.406069 25.7131034"></polygon>
            <polygon id="Rectangle-path" fill="#E57E25" points="16.9681379 21.2751724 21.406069 21.2751724 21.406069 25.7131034 16.9681379 25.7131034"></polygon>
            <polygon id="Rectangle-path" fill="#F29C1F" points="12.5302069 21.2751724 16.9681379 21.2751724 16.9681379 25.7131034 12.5302069 25.7131034"></polygon>
            <polygon id="Rectangle-path" fill="#E64C3C" points="3.65434483 21.2751724 8.09227586 21.2751724 8.09227586 25.7131034 3.65434483 25.7131034"></polygon>
            <path d="M48.0336552,25.7131034 L48.0336552,29.2634483 C48.0336552,29.7536486 47.6362692,30.1510345 47.146069,30.1510345 L43.5957241,30.1510345 L43.5957241,25.7131034 L48.0336552,25.7131034 Z" id="Shape" fill="#7D6599"></path>
            <polygon id="Rectangle-path" fill="#2980BA" points="39.1577931 25.7131034 43.5957241 25.7131034 43.5957241 30.1510345 39.1577931 30.1510345"></polygon>
            <polygon id="Rectangle-path" fill="#26B99A" points="34.7198621 25.7131034 39.1577931 25.7131034 39.1577931 30.1510345 34.7198621 30.1510345"></polygon>
            <polygon id="Rectangle-path" fill="#F0C419" points="30.281931 25.7131034 34.7198621 25.7131034 34.7198621 30.1510345 30.281931 30.1510345"></polygon>
            <polygon id="Rectangle-path" fill="#F3D55B" points="25.844 25.7131034 30.281931 25.7131034 30.281931 30.1510345 25.844 30.1510345"></polygon>
            <polygon id="Rectangle-path" fill="#F0C419" points="21.406069 25.7131034 25.844 25.7131034 25.844 30.1510345 21.406069 30.1510345"></polygon>
            <polygon id="Rectangle-path" fill="#E57E25" points="12.5302069 25.7131034 16.9681379 25.7131034 16.9681379 30.1510345 12.5302069 30.1510345"></polygon>
            <polygon id="Rectangle-path" fill="#F29C1F" points="8.09227586 25.7131034 12.5302069 25.7131034 12.5302069 30.1510345 8.09227586 30.1510345"></polygon>
            <path d="M8.09227586,25.7131034 L8.09227586,30.1510345 L4.54193103,30.1510345 C4.05173071,30.1510345 3.65434483,29.7536486 3.65434483,29.2634483 L3.65434483,25.7131034 L8.09227586,25.7131034 Z" id="Shape" fill="#C03A2B"></path>
            <polygon id="Rectangle-path" fill="#F29C1F" points="16.9681379 25.7131034 21.406069 25.7131034 21.406069 30.1510345 16.9681379 30.1510345"></polygon>
            <path d="M12.5302069,13.2868966 L12.5302069,16.8372414 L8.09227586,16.8372414 L8.09227586,12.3993103 L11.6426207,12.3993103 C12.132821,12.3993103 12.5302069,12.7966963 12.5302069,13.2868966 Z" id="Shape" fill="#E57E25"></path>
            <polygon id="Rectangle-path" fill="#E64C3C" points="3.65434483 12.3993103 8.09227586 12.3993103 8.09227586 16.8372414 3.65434483 16.8372414"></polygon>
            <polygon id="Rectangle-path" fill="#5D4C72" points="43.5957241 12.3993103 48.0336552 12.3993103 48.0336552 16.8372414 43.5957241 16.8372414"></polygon>
            <polygon id="Rectangle-path" fill="#3B97D3" points="39.1577931 12.3993103 43.5957241 12.3993103 43.5957241 16.8372414 39.1577931 16.8372414"></polygon>
            <path d="M39.1577931,12.3993103 L39.1577931,16.8372414 L34.7198621,16.8372414 L34.7198621,13.2868966 C34.7198621,12.7966963 35.117248,12.3993103 35.6074483,12.3993103 L39.1577931,12.3993103 Z" id="Shape" fill="#14A085"></path>
            <path d="M48.0336552,8.84896552 L48.0336552,12.3993103 L43.5957241,12.3993103 L43.5957241,8.84896552 C43.5957241,8.35876524 43.9931101,7.96137931 44.4833103,7.96137931 L47.146069,7.96137931 C47.6362692,7.96137931 48.0336552,8.35876524 48.0336552,8.84896552 Z" id="Shape" fill="#7D6599"></path>
            <path d="M8.09227586,8.84896552 L8.09227586,12.3993103 L3.65434483,12.3993103 L3.65434483,8.84896552 C3.65434483,8.35876524 4.05173071,7.96137931 4.54193103,7.96137931 L7.20468966,7.96137931 C7.69488998,7.96137931 8.09227586,8.35876524 8.09227586,8.84896552 Z" id="Shape" fill="#C03A2B"></path>
            <polygon id="Rectangle-path" fill="#E57E25" points="8.09227586 21.2751724 12.5302069 21.2751724 12.5302069 25.7131034 8.09227586 25.7131034"></polygon>
            <polygon id="Rectangle-path" fill="#F29C1F" points="8.09227586 16.8372414 12.5302069 16.8372414 12.5302069 21.2751724 8.09227586 21.2751724"></polygon>
            <polygon id="Rectangle-path" fill="#26B99A" points="34.7198621 16.8372414 39.1577931 16.8372414 39.1577931 21.2751724 34.7198621 21.2751724"></polygon>
            <path d="M4.54193103,5.29862069 L3.65434483,5.29862069 C3.1641445,5.29862069 2.76675862,4.90123476 2.76675862,4.41103448 C2.76675862,3.9208342 3.1641445,3.52344828 3.65434483,3.52344828 L4.54193103,3.52344828 C5.03213136,3.52344828 5.42951724,3.9208342 5.42951724,4.41103448 C5.42951724,4.90123476 5.03213136,5.29862069 4.54193103,5.29862069 Z" id="Shape" fill="#F5EFCA"></path>
            <path d="M15.1929655,5.29862069 L8.09227586,5.29862069 C7.60207554,5.29862069 7.20468966,4.90123476 7.20468966,4.41103448 C7.20468966,3.9208342 7.60207554,3.52344828 8.09227586,3.52344828 L15.1929655,3.52344828 C15.6831658,3.52344828 16.0805517,3.9208342 16.0805517,4.41103448 C16.0805517,4.90123476 15.6831658,5.29862069 15.1929655,5.29862069 Z" id="Shape" fill="#F5EFCA"></path>
        </g>
    </g>
</svg>