<?xml version="1.0" encoding="UTF-8"?>
<svg width="73px" height="73px" viewBox="0 0 73 73" version="1.1" xmlns="http://www.w3.org/2000/svg" xmlns:xlink="http://www.w3.org/1999/xlink">
    <!-- Generator: Sketch 51.3 (57544) - http://www.bohemiancoding.com/sketch -->
    <title>architecture-and-paradigms/paradigms/recursion</title>
    <desc>Created with Sketch.</desc>
    <defs></defs>
    <g id="architecture-and-paradigms/paradigms/recursion" stroke="none" stroke-width="1" fill="none" fill-rule="evenodd">
        <g id="container" transform="translate(2.000000, 2.000000)" fill="#FFFFFF" fill-rule="nonzero" stroke="#000000" stroke-width="2">
            <rect id="mask" x="-1" y="-1" width="71" height="71" rx="14"></rect>
        </g>
        <g id="infinite-mathematical-symbol" transform="translate(7.000000, 22.000000)" fill="#000000" fill-rule="nonzero">
            <path d="M45.2795695,0.246549669 C36.9523642,0.246549669 31.4415298,7.05499338 26.5796954,13.0632252 C22.4258609,18.1958344 18.5033377,23.0424305 13.7259007,23.0424305 C8.76013245,23.0424305 5.71127815,17.9387351 5.71127815,14.2799536 C5.71127815,10.887649 9.05591391,5.95782781 14.2979272,5.95782781 C19.3844305,5.95782781 22.034351,10.0288278 22.1679801,10.2374768 C22.9920265,11.5710331 24.7417086,11.9906755 26.0819073,11.1732715 C27.4287483,10.3527417 27.8554238,8.59563576 27.0345033,7.2487947 C26.8602384,6.96356291 22.6712384,0.246940397 14.2979272,0.246940397 C5.87225828,0.246940397 0,7.64343046 0,14.2803444 C0,21.126298 5.63703974,28.7540993 13.7255099,28.7540993 C21.227106,28.7540993 26.2053775,22.6040331 31.0187616,16.6559735 C35.4715033,11.155298 39.6776954,5.95821854 45.2795695,5.95821854 C48.6124834,5.95821854 50.8025166,7.08898675 51.9731391,9.41225828 C52.9874702,11.4284172 52.9866887,13.7098808 52.9859073,14.5003245 C52.9859073,14.9535695 52.7463907,17.2268278 51.6375033,19.2738543 C50.373106,21.6057219 48.5780993,22.6911656 45.984053,22.6911656 C40.760404,22.6911656 37.9381722,19.2957351 36.8753907,18.0168808 C36.5991457,17.6839801 36.4002649,17.4444636 36.1345695,17.2170596 C34.9381589,16.1921788 33.1345563,16.3297152 32.1077219,17.5276887 C31.1176159,18.6830728 31.2129536,20.4007152 32.2944901,21.4404437 C32.3460662,21.499053 32.4081921,21.5760265 32.4820397,21.6655033 C33.8671722,23.332351 38.0788344,28.4016623 45.9828808,28.4016623 C55.5893311,28.4016623 58.6960132,19.0347285 58.6960132,14.4612517 C58.6967947,11.5483709 58.1513377,8.98597351 57.0729272,6.84360927 C55.5588543,3.835 52.2829868,0.246549669 45.2795695,0.246549669 Z" id="Shape"></path>
        </g>
    </g>
</svg>