<?xml version="1.0" encoding="UTF-8"?>
<svg width="73px" height="73px" viewBox="0 0 73 73" version="1.1" xmlns="http://www.w3.org/2000/svg" xmlns:xlink="http://www.w3.org/1999/xlink">
    <!-- Generator: Sketch 51.3 (57544) - http://www.bohemiancoding.com/sketch -->
    <title>architecture-and-paradigms/paradigms/solid</title>
    <desc>Created with Sketch.</desc>
    <defs>
        <rect id="path-1" x="0" y="0" width="69" height="69" rx="14"></rect>
    </defs>
    <g id="architecture-and-paradigms/paradigms/solid" stroke="none" stroke-width="1" fill="none" fill-rule="evenodd">
        <g id="container" transform="translate(2.000000, 2.000000)">
            <rect id="mask" stroke="#5B361C" stroke-width="2" fill="#FFFFFF" fill-rule="nonzero" x="-1" y="-1" width="71" height="71" rx="14"></rect>
            <mask id="mask-2" fill="white">
                <use xlink:href="#path-1"></use>
            </mask>
            <rect stroke="#5B361C" stroke-width="2" x="-1" y="-1" width="71" height="71" rx="14"></rect>
            <g id="great-wall-of-china" mask="url(#mask-2)">
                <g transform="translate(5.000000, 12.000000)">
                    <polygon id="Shape" fill="#976947" fill-rule="nonzero" points="15.1666667 24.5 16.8333333 24.5 16.8333333 29.5 15.1666667 29.5"></polygon>
                    <path d="M39.3333333,32.8333333 L39.3333333,27 C36.2,27 33.2633333,25.4708333 31.4658333,22.9041667 C29.6075,20.2483333 26.5691667,18.6666667 23.3275,18.6666667 L22.6666667,18.6666667 C26.21,18.6666667 29.4175,20.7641667 30.8383333,24.0108333 L32.8425,28.5925 C33.7483333,30.6625 35.7933333,32 38.0525,32 L39.3333333,32 L39.3333333,32.8333333 Z" id="Shape" fill="#8892A0" fill-rule="nonzero"></path>
                    <path d="M39.3333333,32 C36.2958333,32 33.5466667,30.2016667 32.3291667,27.4191667 L30.5041667,23.2475 C29.2866667,20.465 26.5375,18.6666667 23.5,18.6666667 L22.6666667,18.6666667 L22.6666667,22 C25.6216667,22 28.2141667,23.97 29.005,26.8175 L30.495,32.1825 C31.2858333,35.03 33.8783333,37 36.8333333,37 L39.3333333,37" id="Shape" fill="#4D5D7A" fill-rule="nonzero"></path>
                    <polyline id="Shape" fill="#976947" fill-rule="nonzero" points="39.3333333 52 39.3333333 27 42.6666667 27 42.6666667 30.3333333 46 30.3333333 46 27 49.3333333 27 49.3333333 30.3333333 52.6666667 30.3333333 52.6666667 27 56 27 56 52 51 52"></polyline>
                    <path d="M51.8333333,32 C51.8333333,31.4358333 51.7975,30.8808333 51.7383333,30.3333333 L49.3333333,30.3333333 L49.3333333,27 L46,27 L46,30.3333333 L42.6666667,30.3333333 L42.6666667,27 L39.3333333,27 L39.3333333,46.8291667 C46.3975,45.7875 51.8333333,39.555 51.8333333,32 Z" id="Shape" fill="#C18E59" fill-rule="nonzero"></path>
                    <path d="M44.3333333,42 C41.7416667,46.1475 37.1958333,48.6666667 32.305,48.6666667 L24.3333333,48.6666667 L24.3333333,52 L36,52 C42.56,52 48.4766667,48.0558333 51,42" id="Shape" fill="#8892A0" fill-rule="nonzero"></path>
                    <path d="M24.3333333,52 L36,52 C42.56,52 48.4766667,48.0558333 51,42 L51,52 C46.11,55.26 40.3633333,57 34.4858333,57 L24.3333333,57" id="Shape" fill="#4D5D7A" fill-rule="nonzero"></path>
                    <path d="M22.6666667,38.6666667 L22.6666667,32 C20.0133333,31.4691667 17.7058333,29.8433333 16.3141667,27.5233333 L16,27 L15.6858333,27.5233333 C14.2941667,29.8433333 11.9866667,31.4691667 9.33333333,32 L9.33333333,38.6666667" id="Shape" fill="#C18E59" fill-rule="nonzero"></path>
                    <polyline id="Shape" fill="#976947" fill-rule="nonzero" points="24.3333333 42 24.3333333 35.3333333 21 35.3333333 21 38.6666667 17.6666667 38.6666667 17.6666667 35.3333333 14.3333333 35.3333333 14.3333333 38.6666667 11 38.6666667 11 35.3333333 7.66666667 35.3333333 7.66666667 42"></polyline>
                    <polygon id="Shape" fill="#C18E59" fill-rule="nonzero" points="26 42 6 42 7.66666667 45.3333333 24.3333333 45.3333333"></polygon>
                    <polygon id="Shape" fill="#976947" fill-rule="nonzero" points="7.66666667 45.3333333 24.3333333 45.3333333 24.3333333 57 7.66666667 57"></polygon>
                    <polygon id="Shape" fill="#976947" fill-rule="nonzero" points="22.6666667 22 22.6666667 7 19.3333333 7 19.3333333 10.3333333 16 10.3333333 16 7 12.6666667 7 12.6666667 10.3333333 9.33333333 10.3333333 9.33333333 7 6 7 6 22"></polygon>
                    <path d="M6,7 L6,18.2108333 C6.92666667,18.5025 7.90333333,18.6666667 8.91666667,18.6666667 C13.7341667,18.6666667 17.7758333,15.13 18.9675,10.3333333 L16,10.3333333 L16,7 L12.6666667,7 L12.6666667,10.3333333 L9.33333333,10.3333333 L9.33333333,7 L6,7 Z" id="Shape" fill="#C18E59" fill-rule="nonzero"></path>
                    <g id="Group" stroke-width="1" fill="none" fill-rule="evenodd" transform="translate(11.000000, 15.333333)">
                        <path d="M1.66666667,41.6666667 L1.66666667,38.3333333 C1.66666667,36.4925 3.15916667,35 5,35 C6.84083333,35 8.33333333,36.4925 8.33333333,38.3333333 L8.33333333,41.6666667" id="Shape" fill="#674025" fill-rule="nonzero"></path>
                        <path d="M33.3333333,26.6666667 L33.3333333,23.3333333 C33.3333333,21.4925 34.8258333,20 36.6666667,20 C38.5075,20 40,21.4925 40,23.3333333 L40,26.6666667 L33.3333333,26.6666667 Z" id="Shape" fill="#674025" fill-rule="nonzero"></path>
                        <path d="M0,6.66666667 L0,3.33333333 C0,1.4925 1.4925,0 3.33333333,0 C5.17416667,0 6.66666667,1.4925 6.66666667,3.33333333 L6.66666667,6.66666667" id="Shape" fill="#674025" fill-rule="nonzero"></path>
                    </g>
                    <path d="M56.5,3.33333333 C56.4716667,3.33333333 56.445,3.34083333 56.4166667,3.34166667 C56.0341667,1.43583333 54.3516667,0 52.3333333,0 C50.315,0 48.6325,1.43583333 48.25,3.34166667 C48.2216667,3.34083333 48.195,3.33333333 48.1666667,3.33333333 C46.7858333,3.33333333 45.6666667,4.4525 45.6666667,5.83333333 C45.6666667,7.21416667 46.7858333,8.33333333 48.1666667,8.33333333 C48.8675,8.33333333 49.4983333,8.04333333 49.9525,7.57916667 C50.6283333,8.05166667 51.4466667,8.33333333 52.3333333,8.33333333 C53.22,8.33333333 54.0383333,8.05166667 54.7141667,7.57916667 C55.1683333,8.04333333 55.7991667,8.33333333 56.5,8.33333333 C57.8808333,8.33333333 59,7.21416667 59,5.83333333 C59,4.4525 57.8808333,3.33333333 56.5,3.33333333 Z" id="Shape" fill="#A1CDFB" fill-rule="nonzero"></path>
                    <path d="M39.8333333,3.33333333 C39.805,3.33333333 39.7783333,3.34083333 39.75,3.34166667 C39.3675,1.43583333 37.685,0 35.6666667,0 C33.6483333,0 31.9658333,1.43583333 31.5833333,3.34166667 C31.555,3.34083333 31.5283333,3.33333333 31.5,3.33333333 C30.1191667,3.33333333 29,4.4525 29,5.83333333 C29,7.21416667 30.1191667,8.33333333 31.5,8.33333333 C32.2008333,8.33333333 32.8316667,8.04333333 33.2858333,7.57916667 C33.9616667,8.05166667 34.78,8.33333333 35.6666667,8.33333333 C36.5533333,8.33333333 37.3716667,8.05166667 38.0475,7.57916667 C38.5016667,8.04333333 39.1325,8.33333333 39.8333333,8.33333333 C41.2141667,8.33333333 42.3333333,7.21416667 42.3333333,5.83333333 C42.3333333,4.4525 41.2141667,3.33333333 39.8333333,3.33333333 Z" id="Shape" fill="#A1CDFB" fill-rule="nonzero"></path>
                    <polygon id="Shape" fill="#8892A0" fill-rule="nonzero" points="0.25 55.3333333 61.75 55.3333333 61.75 57 0.25 57"></polygon>
                </g>
            </g>
        </g>
    </g>
</svg>