<?xml version="1.0" encoding="UTF-8"?>
<svg width="73px" height="73px" viewBox="0 0 73 73" version="1.1" xmlns="http://www.w3.org/2000/svg" xmlns:xlink="http://www.w3.org/1999/xlink">
    <!-- Generator: Sketch 51.3 (57544) - http://www.bohemiancoding.com/sketch -->
    <title>build-tools/babel</title>
    <desc>Created with Sketch.</desc>
    <defs></defs>
    <g id="build-tools/babel" stroke="none" stroke-width="1" fill="none" fill-rule="evenodd">
        <g id="container" transform="translate(2.000000, 2.000000)" fill-rule="nonzero">
            <rect id="mask" stroke="#000000" stroke-width="2" fill="#F5DA55" x="-1" y="-1" width="71" height="71" rx="14"></rect>
            <g id="Babel-starter_cleaned" transform="translate(4.000000, 14.000000)" fill="#000000">
                <g id="Group" transform="translate(30.465659, 19.993718) rotate(-20.000044) translate(-30.465659, -19.993718) translate(2.020695, 9.069987)">
                    <path d="M50.3930117,0.674026676 C50.2448383,1.34805335 50.0040836,1.84675955 49.6799408,2.17912219 L49.4484875,2.03138142 C49.6985436,1.39423586 49.818921,1.02488395 49.8096196,0.932518934 L49.7448343,0.830960679 C49.6614462,0.840153918 49.5503702,1.06176506 49.4114982,1.50498735 L49.2911209,1.51418059 C49.2818195,1.43111697 49.2633248,1.36643983 49.2263356,1.30176269 L49.1707435,1.31095593 C48.0783704,4.34905113 47.5872351,5.76156532 46.5779256,8.09783782 C46.3927629,8.69799411 46.2352881,9.03046491 46.0964161,9.09514205 C46.1057175,9.15981919 46.1427068,9.1967003 46.2167935,9.18750707 C46.2445895,9.48298859 46.1705028,9.76927688 46.013028,10.0559978 C45.5407119,11.3948579 45.2351718,12.1335617 45.0778052,12.262916 L45.1796879,12.9000616 C45.1889893,12.9647387 45.1518919,13.0109212 45.0778052,13.0109212 L44.9667293,13.0201145 C44.9482346,12.8446858 44.8833412,12.761514 44.7722652,12.7708154 L44.7166731,12.7800087 C44.5778012,13.0016198 44.466617,13.2602202 44.3925303,13.5557018 L44.5036063,13.5465085 C44.6517797,13.4541435 44.716565,13.343392 44.7073717,13.2048445 L44.9296318,13.1863499 L45.0500092,13.2325324 C44.9481265,13.3894664 44.9018358,13.5188207 44.9111372,13.6110775 L44.9667293,13.7126358 L44.8278573,14.0451066 L44.8371587,14.1004823 C44.9668374,14.0912891 45.1057094,14.1281702 45.2538828,14.2205352 C45.3557655,14.211342 45.4668415,14.1651595 45.5872188,14.0912891 C45.7168976,14.0820958 46.1799124,14.0727944 46.9943252,14.0727944 L47.401748,13.9342469 C47.901752,13.9250537 47.9758387,13.9434402 48.4110575,13.906559 L48.5870269,13.8880644 L48.6796082,13.8233873 L48.6889096,13.878763 C49.1334298,13.8417737 49.170419,13.8695698 49.5223579,13.9157523 L49.5316593,13.971128 L49.2816032,13.9896227 L49.2909046,14.0911809 C49.3649913,14.0819877 49.4297766,14.063493 49.4853686,14.0173105 C49.5501539,14.0081173 49.5872513,14.0449984 49.5964446,14.1188688 C49.4945619,14.128062 49.3834859,14.1558581 49.2538071,14.1927392 L49.1427312,14.1557499 C48.9667618,14.2019324 49.0038592,14.2111257 48.8926751,14.220427 L48.7167056,14.1834378 C48.7167056,14.2111257 48.7074043,14.2296203 48.6797164,14.2388135 C48.6890178,14.3034907 48.7167056,14.3403718 48.7815991,14.3311785 L48.9945578,14.3126839 L48.9019765,14.2756946 C48.9019765,14.3033825 48.9204711,14.3218771 48.9575685,14.3218771 L49.8742967,14.2388135 L50.2261274,14.1649431 C50.2261274,14.192631 50.244622,14.2111257 50.2724181,14.2111257 L50.4390861,14.1464485 L50.7539275,14.1187606 C51.0039836,14.100266 50.9946822,14.0817714 51.5224823,13.9987077 C51.5224823,13.9710199 51.5317837,13.9525252 51.5594716,13.9525252 L51.5594716,13.9987077 C52.5687811,13.8324723 52.4761998,13.8417737 52.6891584,13.7679034 L52.6428678,13.6570437 C52.3558224,13.7217209 52.3650156,13.6847316 52.2169504,13.7032262 L51.4483956,13.7402155 L51.4390942,13.6848397 L51.8650116,13.629464 L52.0224864,13.6202708 L52.1058744,13.5555936 L52.1151758,13.6109694 C52.7170626,13.5555936 52.9300213,13.7125276 55.7359061,13.1215646 C55.8840795,13.1123713 55.8747781,12.983017 55.9673594,12.7245248 C55.9117674,12.7245248 55.8654767,12.7153315 55.819186,12.6875355 C55.5877327,12.7799005 55.4673554,12.733718 55.0228352,12.8075884 C54.9858459,12.8075884 54.9580499,12.7799005 54.9394471,12.7060301 L54.9394471,12.6598476 L55.3653645,12.6783423 C55.4394512,12.669149 55.6061192,12.6598476 55.8283793,12.5306015 C55.8746699,12.5582894 55.79139,12.5859773 55.8376807,12.576784 L55.9117674,12.5675908 C55.958058,12.5675908 55.9765527,12.5306015 55.9765527,12.4567311 L55.930262,12.3551729 C55.6432166,12.3828607 55.5043446,12.3921621 55.2727832,12.5214083 L55.2634818,12.4660325 L54.9116511,12.5030218 C54.9023497,12.3921621 54.8746618,12.3460878 54.828263,12.3460878 L54.6431003,12.3645824 C54.4301417,12.3830771 54.3282589,12.3737757 54.2263762,12.4569474 C54.2263762,12.4199582 54.2078816,12.4015717 54.1893869,12.4015717 L53.9856215,12.4200663 L53.8652441,12.4847435 C53.8652441,12.4477542 53.8467495,12.4293677 53.8282549,12.4293677 L53.7541682,12.4940449 L53.7448668,12.4386691 L53.4670146,12.4201745 L53.4022293,12.4293677 L53.4115307,12.530926 L53.5597041,12.5679152 L53.6893829,12.558722 C53.7356735,12.5864099 53.7912656,12.5957113 53.8468577,12.5957113 L53.967235,12.5403355 L53.967235,12.586518 C53.3097562,12.7527534 53.3097562,12.7157642 52.8560428,12.7989359 C52.8004507,12.7619467 52.7634614,12.7527534 52.7449668,12.7527534 C52.6986761,12.7989359 52.8005589,12.7619467 52.7727628,12.7619467 C52.6986761,12.7711399 52.6616869,12.7342588 52.6523855,12.6695817 L52.8838388,12.6418938 C52.9023334,12.6418938 52.9116348,12.6603884 53.0413136,12.6880763 C53.2264762,12.5957113 53.2357776,12.5588302 53.3376604,12.5495288 L53.328359,12.4479705 C52.6801815,12.5772166 52.9394309,12.494153 52.1245854,12.5588302 L52.0875961,12.5588302 L52.0782947,12.4572719 C53.1247017,12.3280258 52.7727628,12.4018962 53.1247017,12.3003379 C53.1247017,12.3373272 53.1431963,12.3557136 53.1616909,12.3557136 C53.1986802,12.3187244 53.2542723,12.2910365 53.3098643,12.2910365 L53.383951,12.2818433 C53.7450831,12.2541554 53.8747618,12.3280258 54.597026,12.1249093 L54.597026,12.1710918 L54.7174033,12.115716 L54.8284793,12.1065228 C54.8191779,11.9956631 54.9859541,11.9864699 55.0322448,11.9772767 L55.0229434,11.866417 C53.7542763,12.1250174 53.4209403,12.051147 53.0685688,12.1527053 L53.0685688,12.1065228 C52.7352328,12.1711999 52.7259314,12.1342107 52.6426515,12.1435121 C52.6148554,12.1435121 52.5778662,12.1711999 52.5407687,12.2081892 C52.5407687,12.1711999 52.5222741,12.1528134 52.4944781,12.1528134 C52.438886,12.1528134 52.466682,12.1713081 52.4203914,12.2174906 L52.4944781,12.1528134 L51.3924791,12.3282421 C51.3924791,12.3005542 51.3739844,12.2820596 51.3461884,12.2820596 C50.7905923,12.4021125 50.9387657,12.4206071 50.1887055,12.4851761 C50.1517162,12.4851761 50.1053174,12.5036707 50.0498335,12.5405518 C50.0498335,12.512864 50.0313389,12.4943693 49.9942414,12.4943693 L49.5312267,12.5313586 L49.2256866,12.605229 C49.2256866,12.5775411 49.207192,12.5590465 49.1700946,12.5590465 C48.9941252,12.605229 48.8459518,12.6329169 48.7255744,12.6421101 L48.716273,12.6421101 C48.6421863,12.6513033 48.7532623,12.6236155 48.6977784,12.5959276 L48.6051971,12.6513033 C48.4663251,12.6604966 48.5404118,12.6421101 48.077397,12.6513033 C47.2625515,12.7528616 47.3551328,12.762163 47.2625515,12.7713562 L46.9570115,12.7528616 C46.9570115,12.7805495 46.9477101,12.7990441 46.9107208,12.8082373 C46.5680834,12.7620548 46.392114,12.7066791 46.3829207,12.6420019 C46.4292114,12.3188325 46.5032981,12.1525971 46.6236754,12.1341025 L46.6792675,12.1249093 L46.6236754,12.2357689 L46.6792675,12.2265757 C46.7903435,12.1711999 46.8367423,12.115716 46.8367423,12.0603403 L46.8274409,11.9494806 L46.7163649,11.9586739 L46.7070635,11.8571156 C46.6977621,11.774052 46.7070635,11.7093748 46.7348596,11.6446977 L46.9849157,11.2476579 L46.9942171,11.3492162 L47.1145944,11.3400229 L47.105293,11.2384647 L47.0405077,11.1369064 C47.1238958,11.063036 47.1979825,11.0168535 47.2534664,11.0168535 L47.244165,10.9614778 L47.0866902,10.970671 L47.0773888,10.813737 C47.3922303,10.1489036 47.549705,9.76105704 47.5404036,9.65949879 L47.6514796,9.7056813 C47.7255663,9.69648806 47.7625556,9.65949879 47.7533623,9.58562841 L47.6422864,9.59482164 L47.6422864,9.54863914 C47.632985,9.46557552 47.6515878,9.39170513 47.6792756,9.32702799 C47.855245,9.15159935 47.9293317,8.96686932 47.910729,8.77294605 C47.9477182,8.77294605 47.966321,8.79144068 47.966321,8.8283218 C48.1144944,8.74525818 48.2255704,8.52364703 48.3089584,8.15429512 C48.5682078,7.68338496 48.9386413,6.74178094 49.4201507,5.33791922 C50.3461803,2.85401411 50.3090829,2.58622045 50.4387616,2.00455879 L50.3276856,2.01375203 C50.336987,2.08762242 50.3183843,2.1614928 50.281395,2.22616994 C50.2073083,2.19848207 50.142523,2.17998743 50.1054256,2.17998743 L50.1054256,2.13380492 C50.0869309,1.92138702 50.1795123,1.66289476 50.3832777,1.35811184 L50.4295684,1.35811184 L50.5221497,1.71827051 L50.6332257,1.70907727 C50.6332257,1.68138939 50.6610217,1.54284187 50.7166137,1.27537268 C50.7073124,1.21999694 50.6703231,1.19230906 50.586935,1.18300767 L50.4850523,1.24768481 C50.4757509,1.17381443 50.4850523,0.979891156 50.4943537,0.656721755 L50.3924709,0.675216389 M49.0590186,2.27267692 L49.1146107,2.26348368 C49.0312226,2.41122444 48.9664373,2.49428806 48.901652,2.50358946 L48.8923506,2.34665545 C48.9386413,2.33746221 48.9942333,2.31896758 49.0590186,2.27278507 M48.5960038,3.3808408 C48.7070798,2.92842527 48.8182639,2.66982485 48.9201466,2.60514771 L48.929448,2.66052346 C48.873856,3.08525112 48.7812746,3.29766902 48.6515959,3.31594734 L48.6700905,3.583741 C48.5682078,3.72228852 48.5219171,3.83304002 48.5312185,3.91621179 L48.4756265,3.92540503 L48.4478304,3.55605312 C48.5034225,3.54685989 48.5589064,3.49137598 48.5960038,3.38062449 M48.4200344,3.98078078 C48.4293358,4.04545792 48.3830451,4.19319869 48.2996571,4.41448537 L48.244065,4.42367861 L48.2347636,4.2667446 C48.2995489,4.08201457 48.3644423,3.98975771 48.4199263,3.98045631 M45.3731786,10.6936841 L45.4287706,10.7952424 C45.5121587,10.7860491 45.549148,10.7490599 45.5398466,10.6843827 L45.5305452,10.629007 L45.4749532,10.6382002 L45.3730704,10.693576 M46.8362015,11.90319 L46.8362015,11.9493725 C46.9195896,11.9401792 47.0028695,11.7924385 47.0769562,11.5061502 L46.9658803,11.4691609 C46.8732989,11.7184599 46.8362015,11.8570075 46.8362015,11.9028655 M56.2078978,12.2260349 L56.2078978,12.2722174 L56.1153165,12.3830771 L56.2912859,12.3183999 L56.3097805,12.3183999 L56.3004792,12.2168417 L56.2634899,12.2168417 L56.1987046,12.2722174 C56.1987046,12.2445295 56.3931686,12.1891538 56.2449953,12.1613578 C56.2171992,12.2075403 56.2912859,12.2167335 56.208006,12.2260349 M56.5691381,12.5585057 L56.8191942,12.5400111 C56.8098928,12.4753339 56.6525261,12.4569474 56.5969341,12.4569474 L56.5599448,12.4569474 L56.5692462,12.5585057 M52.1429719,12.6508707 L52.2170586,12.7432357 C52.2170586,12.7155478 52.22636,12.6970532 52.2540478,12.6970532 L52.3096399,12.7986115 L52.0781866,12.7709236 C52.0596919,12.6970532 52.087488,12.6600639 52.1429719,12.6508707 M51.3837185,12.7339343 C51.4671065,12.7247411 51.5225904,12.7801168 51.5225904,12.8539872 L51.2633411,12.8539872 L51.2633411,12.8078047 C51.2911371,12.7986115 51.3374278,12.7801168 51.3837185,12.7339343 M51.976412,12.7062465 L51.9857134,12.7616222 L51.7727547,12.7801168 L51.7634533,12.7247411 L51.976412,12.7062465 M49.8281142,12.9278576 C49.8281142,12.9555455 49.8466088,12.9740401 49.8837063,12.9740401 C50.2263437,12.909363 50.1892463,12.9001697 50.3560225,12.8816751 C50.4116145,12.8724819 50.4394105,12.909363 50.4486038,12.9740401 L49.4947782,13.0571037 L49.5873595,13.1032862 L49.5780581,13.0479105 L49.216926,13.0755984 L49.2076246,13.0202226 L49.5317674,12.9925347 L49.8281142,12.9278576 M50.8101685,12.844794 L50.8101685,12.8909765 C50.7823724,12.8909765 50.9027498,12.9001697 50.8471577,12.9463522 C50.6433923,12.9278576 50.6341991,12.909363 50.4860257,12.9186644 L50.4860257,12.8724819 L50.8101685,12.844794 M51.0509232,12.8171061 L51.0509232,12.8632886 L50.8749538,12.8817832 L50.8749538,12.8356007 L51.0509232,12.8171061 M45.1244203,13.7589264 L45.1337217,13.9158604 C45.0781297,13.9250537 45.031839,13.8881726 45.0133444,13.8143022 L45.0133444,13.7681197 L45.1244203,13.7589264 M53.0511558,13.6203789 L53.0604572,13.7219372 L53.2456198,13.7034425 L53.1715331,13.65726 L53.1808345,13.7126358 L53.3659972,13.6387654 C54.6346642,13.5002179 54.7828376,13.5557018 54.7642348,13.407961 L54.7642348,13.3617785 C53.4863745,13.6480668 53.3197065,13.5925829 53.0511558,13.6203789 M55.0327855,13.4449503 L55.2179482,13.4819395 L55.2086468,13.3803813 L55.0234841,13.343392 L55.0327855,13.4449503 M49.5508028,13.8051089 C49.6063949,13.8327968 49.4860175,13.8604847 49.5601042,13.8512915 L50.2082817,13.7959157 L50.2175831,13.8512915 C50.0324204,13.8697861 49.9120431,13.897474 49.8749456,13.9343551 C49.8749456,13.8973658 49.856451,13.8789793 49.8193536,13.8789793 L49.5415015,13.9066672 L49.5322001,13.8512915 C49.6062867,13.8420982 49.4952108,13.8420982 49.5506947,13.8051089 M52.5509354,13.7312386 L52.6065274,13.8327968 C52.8194861,13.7866143 52.6991088,13.7958075 52.7547008,13.7497332 C52.7547008,13.7867225 52.7731955,13.8051089 52.7916901,13.8051089 L52.9398635,13.7959157 L52.9305621,13.6850561 L52.541634,13.6758628 L52.5509354,13.7312386 M48.8839144,14.1282783 L48.8469252,14.1282783 L48.8376238,14.0267201 L48.8746131,14.0267201 L48.8839144,14.1282783 M45.9855565,14.4791356 L45.9948579,14.5345114 L47.6987437,14.3959638 L47.6894423,14.2944056 L46.3281939,14.4052652 L46.0411485,14.368276 L45.9855565,14.4791356 M47.8839063,14.3775774 L47.902401,14.3775774 L47.8930996,14.2760191 L47.8746049,14.2760191 L47.8839063,14.3775774" id="Shape"></path>
                    <path d="M21.9556186,5.45753948 C20.751845,6.88876461 20.1313555,7.67365094 20.0850648,7.83058494 C19.594254,8.33848437 19.3534993,8.64315914 19.3812953,8.7447174 C19.2516165,8.82778102 19.1961326,8.9109528 19.2146273,9.00331781 C19.177638,9.01251105 19.149842,8.99412457 19.1405406,8.9571353 C18.9275819,9.29879934 18.6219337,9.51121724 18.2053177,9.61255919 L17.7705316,9.71411744 C17.7149395,9.72331068 17.6871435,9.76949319 17.6871435,9.84336357 L17.6964449,9.89873932 L17.8631129,9.86175005 L17.8724143,9.90793256 L17.5019809,10.0464801 L16.844502,10.1942208 L16.5018646,10.2127155 C16.4555739,10.258898 16.7704153,10.2035222 16.650038,10.2404034 L16.2241206,10.3419616 C15.9648712,10.4066388 15.8166979,10.3789509 15.7982032,10.2772845 L15.7519126,10.2864777 C15.7797086,10.388036 15.7519126,10.4527131 15.6778259,10.4712077 L15.761214,10.4527131 L15.7242247,10.2957791 L14.9463685,10.4805091 L15.0297566,10.5174984 C15.0204552,10.4805091 14.9834659,10.4713159 14.9093792,10.4898105 L14.8074965,10.5728742 L14.6871191,10.5451863 C14.5760432,10.6098634 14.5019565,10.6467445 14.4833537,10.6467445 L14.3629763,10.6190567 C14.0388335,10.8037867 14.2795882,10.8037867 14.2610936,10.8037867 L14.2888896,10.9053449 L14.4740523,10.8591624 L14.7610977,10.8406678 L14.7333016,10.9607207 C13.6777015,11.2377076 14.4462563,11.0807736 14.1592109,11.1454507 L14.1036188,11.154644 L14.1314149,11.2562022 L14.2980829,11.219213 L14.3073843,11.2745887 C14.0944256,11.3207712 13.9740482,11.3669537 13.9369508,11.4131362 L13.9276494,11.3577605 C13.6497973,11.4224376 13.3720533,11.6347474 13.0942012,11.9857128 C13.1404918,12.1888293 12.538605,12.4381283 15.3719614,11.7825963 C15.5664254,11.7734031 15.6775014,11.7734031 15.7052974,11.7641017 C15.695996,11.7271124 15.7145988,11.7087259 15.7515881,11.6994245 C16.0664295,11.6624352 15.9182561,11.7179191 16.1127202,11.6717366 L16.7239083,11.5331891 L16.5942296,11.6070595 C16.5849282,11.5793716 16.603531,11.560877 16.6312189,11.5516838 C16.7053056,11.5701784 16.7793923,11.560877 16.8626722,11.5424905 L16.8996615,11.6994245 L14.4828129,15.5227305 L13.9457114,16.187564 L13.6864621,17.0648153 L13.7327527,17.0556221 L13.9920021,16.9447624 L13.908614,17.2864264 L13.93641,17.3879847 L14.0104967,17.4803497 C13.9735075,17.4895429 13.9642061,17.5080376 13.9735075,17.5450269 L13.9828089,17.6004026 L14.0938848,17.5727147 C14.2513596,17.4341672 14.3161449,17.3049211 14.2976503,17.1941696 C14.4736197,17.2218575 14.5846956,17.2311588 14.6402877,17.2218575 L14.6495891,17.2772332 C14.5477064,17.3049211 14.4921143,17.3880929 14.4829211,17.5265322 L14.4922225,17.581908 L14.5478145,17.5727147 C15.4275534,16.621593 17.566658,13.362103 19.2889303,11.1460997 C19.2333382,10.9059939 20.1315718,10.5736312 21.983631,10.1487954 L22.039223,10.1396022 C22.1040083,10.4258905 21.9651363,11.127605 21.6133056,12.2449622 C21.3818523,12.9189888 21.2799696,13.2883407 21.2891628,13.3438246 C20.9928161,14.2394625 20.8543767,14.719674 20.8724387,14.7935444 L20.2149599,16.9357855 C19.7890425,18.034648 19.4648997,19.1888862 19.2426396,20.4075853 C19.2796289,20.398392 19.3445223,20.4075853 19.418609,20.4260799 L19.5111904,20.3430163 C19.5204917,20.3800055 19.5389864,20.3891988 19.585277,20.3891988 L19.5482878,20.2322648 L19.8353332,20.2230715 C19.9187212,20.2045769 19.9928079,20.0938254 20.0482918,19.8999021 C20.0389904,19.6136139 20.0945825,19.4566799 20.2242613,19.4196906 C20.4002307,18.7363625 20.5113066,18.3855052 20.5484041,18.376312 C20.7150721,17.6929839 20.8354494,17.3051374 20.9188375,17.2035791 C21.1688936,16.3171345 21.3447549,15.8554176 21.4650241,15.8277297 L21.4928201,15.9385894 L21.3168507,16.4094996 C21.0020093,17.8038436 20.6778665,18.9122238 20.3538319,19.7244735 L20.4464132,20.1308147 L20.5020052,20.1216214 C21.2891628,18.4410973 22.4095483,15.1172546 23.8818726,10.1485791 C23.9281633,9.71487453 24.1319287,9.37288603 24.5115555,9.13288841 L24.4281674,9.04982479 L24.418866,9.00364228 C24.585534,8.96665301 24.7059113,8.90208402 24.7706966,8.80971901 C24.7613953,8.77272974 24.6132219,8.71735399 24.3261765,8.64348361 L25.1968303,4.93157804 C25.4560797,3.82352231 25.6316165,2.85401411 25.7246304,2.00488326 L25.715329,1.94950751 C25.5393596,1.83864786 25.3634983,1.68171386 25.2060236,1.47859735 L25.2060236,1.2569862 L25.1967222,1.2108037 L25.1504315,1.21999694 C24.61333,2.03257114 23.539127,3.44530163 21.9557268,5.45862104 M23.1872964,6.29888311 C23.233587,6.49280639 23.1595003,6.85296506 22.9743377,7.37925097 C22.9187456,8.04408441 22.6779909,8.42262955 22.2612668,8.52429596 L22.2519654,8.46892022 L21.8815319,8.60746774 L21.7148639,8.64445701 C21.6314758,8.66295165 21.5573891,8.66295165 21.4834106,8.63526377 L21.4464213,8.48752301 C21.4371199,8.43214726 21.9650282,7.69344344 23.0577258,6.28060479 L23.1874045,6.29909943 M22.3354616,8.6075759 L22.455839,8.57988802 L22.483635,8.68144628 C21.9002429,8.85687492 21.5761001,8.94923993 21.5113148,8.96773457 C21.4743255,8.97692781 21.4187334,9.00472384 21.35384,9.06009958 C21.3445386,9.02311031 21.2704519,9.02311031 21.1223867,9.05090634 C21.0945906,8.94934809 21.5020134,8.80160733 22.3354616,8.60768405 M16.58482,10.1589621 L16.7144988,10.1312742 L16.6867028,10.0204145 L16.557024,10.0481024 L16.58482,10.1589621 M18.2794044,9.71573978 L18.3072005,9.81729804 L18.0293483,9.83579267 L18.0200469,9.78041692 L18.2792963,9.71573978 M15.0383009,10.777613 L15.0476023,10.8329887 L14.8716329,10.869978 L14.8623315,10.8146023 L15.0383009,10.777613 M14.7141581,11.4516397 L14.7234595,11.4978222 L14.5105008,11.5440047 L14.4827048,11.4424464 L14.7141581,11.4516397 M15.2234635,11.34078 L15.2327649,11.3869625 L14.8438368,11.4793275 L14.8345354,11.433145 L15.2234635,11.34078 M15.899437,11.2299204 L15.9087384,11.2852961 L14.8901275,11.5161005 L14.8623315,11.4145423 C15.455025,11.312984 15.3901316,11.3498651 15.899437,11.2298122 M21.0022256,10.0478861 L21.0856137,10.1402511 C20.9652363,10.167939 20.872655,10.2049283 20.8263644,10.2511108 L20.705987,10.2326161 C20.5208243,10.3064865 20.3541563,10.3618623 20.2244776,10.3895501 L20.1134016,10.417238 C20.0486163,10.4357327 20.0023256,10.4080448 19.9745296,10.3433676 L20.7430844,10.167939 L21.0023338,10.0478861 M21.5485203,9.92783322 L22.0947069,9.79858709 L22.1040083,9.85396284 C21.8076615,9.91863998 21.5762082,9.99251036 21.4095402,10.075574 L21.4002388,10.0201982 C21.4465295,10.011005 21.4928201,9.97401573 21.5484122,9.92783322 M15.8075046,11.4791112 L16.066754,11.4237355 L16.09455,11.5252937 C15.983474,11.5529816 16.066754,11.5529816 15.927882,11.6176588 C15.6593312,11.6453466 15.7149233,11.6084655 15.2888978,11.7100238 L15.2795964,11.654648 L15.8073965,11.4792194 M16.511166,11.3591665 C16.5852527,11.3406719 16.6315433,11.3683597 16.6408447,11.4422301 L16.4833699,11.4792194 C16.4185846,11.497714 16.372294,11.4700262 16.344498,11.3961558 L16.511166,11.3591665 M13.612808,17.1949267 L13.6221094,17.2503024 C13.6961961,17.2318078 13.7239921,17.1949267 13.7054975,17.1210563 L13.6961961,17.0656805 C13.6314108,17.0841752 13.6036148,17.1210563 13.612808,17.1949267 M13.8350681,18.1183605 C13.8535627,18.1830377 13.8906601,18.2107255 13.9647468,18.1922309 C14.0388335,18.1737363 14.0666296,18.1368552 14.0481349,18.0629848 L14.0388335,18.007609 L13.9277576,18.0352969 L13.8351762,18.1183605 M19.7430763,19.7066278 C19.817163,19.6881332 19.8541523,19.715821 19.872755,19.7804982 L19.8820564,19.8358739 L19.6690978,19.8820564 C19.6875924,19.8081861 19.6875924,19.7528103 19.6783992,19.715821 L19.7431845,19.7066278" id="Shape"></path>
                    <path d="M28.3173402,2.6227771 C27.8358308,2.96444114 27.2894279,3.31529841 26.6787805,3.65696245 L26.6880819,3.7585207 C26.7250712,3.7585207 26.7806632,3.73083283 26.8547499,3.68465032 C26.9288366,3.67545708 26.9658259,3.71233819 26.9751273,3.77701534 L27.07701,3.72163959 L27.1233007,3.72163959 L27.1233007,3.7678221 C27.1326021,3.82319784 26.743674,4.11867937 25.9843124,4.65426668 L26.0399045,4.76512633 L25.9936138,4.76512633 L25.8732364,4.71894382 C25.8732364,4.75593309 25.8269458,4.78362096 25.7157616,4.7928142 L25.7157616,4.83899671 L25.836139,4.98673747 C25.7991497,4.98673747 25.7342563,4.97754424 25.6601696,4.94055497 C25.4101135,4.9590496 25.1693588,5.14367148 24.9286041,5.47614227 L24.9841961,5.57770053 C25.1971548,5.38377726 25.3175322,5.282219 25.3546296,5.282219 L25.363931,5.439153 C25.3269417,5.439153 25.2713496,5.46684088 25.197263,5.51302339 L25.3361349,5.70694666 C25.5861911,5.42995977 25.863935,5.19904722 26.1602818,5.00512395 C26.3084552,5.05130646 26.3917351,5.09748897 26.3917351,5.14367148 L26.5028111,5.13447824 C27.3362594,4.52502055 28.1511048,4.09109965 28.9567571,3.82363047 L28.9660584,3.92518872 C28.8178851,4.14679987 28.7160023,4.25765952 28.6605184,4.26685276 C28.6698198,4.34072314 28.6883145,4.40540028 28.7253037,4.46996927 C28.7346051,4.60851679 28.3734731,5.53184249 27.6329306,7.24016267 C25.9383462,11.2014754 24.5215058,14.137796 23.3737569,16.039715 C23.3737569,16.0767043 23.4015529,16.13208 23.4478436,16.196649 C23.734889,16.1319719 23.9108584,16.0581015 23.9849451,15.9935325 L24.0312357,15.9935325 L24.0405371,16.0950908 L24.1609145,16.0858975 L24.2627972,16.0305218 C24.2627972,16.0582097 24.2997865,16.0767043 24.3738732,16.0675111 L24.3831746,16.1783707 C24.392476,16.279929 24.3275825,16.4369711 24.2072052,16.6585823 C24.0868278,16.7878284 23.957149,17.0649234 23.8275784,17.4803497 L23.8368798,17.5357255 L23.9479558,17.5265322 C24.4109706,17.0094395 24.753608,16.5108415 24.9943628,16.0123516 C26.3371165,15.6153118 27.3557274,15.2366585 28.0686901,14.8581134 C28.7909543,14.7934362 29.3280558,14.6088144 29.6985974,14.3040314 L29.689296,14.2486557 L29.4114439,14.3317193 L29.3558518,14.3409126 L29.3465504,14.2855368 C29.8743505,14.2116664 30.2354826,14.0916135 30.4302711,13.9346795 C31.448882,13.1497932 32.2174368,12.5958194 32.7453451,12.2725419 C34.3566495,11.0906158 35.1159029,9.9640654 35.0231053,8.87450431 C35.0138039,8.76364465 34.6619732,8.32042236 33.9582037,7.54483743 C33.9489023,7.39709667 34.189657,7.18467876 34.6804679,6.90769187 L36.0875743,5.68877649 C36.4024157,5.29173671 36.5875783,4.64539791 36.6431704,3.74965193 L36.6246757,3.54653542 C36.5690837,2.92788449 36.1153703,2.42928645 35.2634274,2.04143991 C34.7541219,1.69977587 33.846587,1.515154 32.541147,1.47816473 C31.4855468,1.55203511 30.0687064,1.93988165 28.3187462,2.62320972 M35.8561209,2.69708011 L35.8005289,2.80793976 L34.2448165,2.15251587 C35.2912234,2.19869838 35.8283249,2.37412702 35.8561209,2.69762088 M29.5409063,7.0190923 C29.6519823,6.43732248 29.7723596,6.11415308 29.9020384,6.0402827 L31.0781241,3.4175056 C31.0688227,3.2605716 31.3095774,3.13121731 31.8188828,3.03896045 L31.9855509,3.02046582 L31.9948523,3.17739982 C32.4948563,3.0943362 32.8005045,3.04815369 32.9300751,3.0388523 C33.8561047,2.95578868 34.3371815,3.14971195 34.3746034,3.59293424 L34.4856793,3.583741 L34.4671847,3.33444198 L34.5782607,3.32524874 C34.8468114,3.4729895 34.9856834,3.64841814 35.004178,3.86083605 C35.0134794,4.00857681 34.9393927,4.19330684 34.781918,4.41491799 C34.7078313,4.42411123 34.670842,4.36873548 34.6615406,4.26717723 L34.5504646,4.27637046 L34.5134754,4.59034663 C34.0411592,5.30136257 33.7078231,5.66152124 33.4948645,5.6794751 C33.3097018,5.93807551 33.1893244,6.06732164 33.1337324,6.06732164 C32.985559,6.24275028 32.5875458,6.5475332 31.9299588,6.96295946 C31.7076987,6.9814541 30.9020465,7.29543026 29.5038089,7.90477979 C29.4390236,7.87709192 29.3556355,7.86779052 29.2815488,7.87709192 L29.2722474,7.77553366 C29.2537528,7.58161039 29.3463341,7.33231137 29.5407981,7.01844336 M36.0042943,3.7866412 L36.0135957,3.89750085 C35.9580037,3.89750085 35.8561209,3.73126545 35.6894529,3.39890281 L35.6801515,3.29734455 C35.7820342,3.28815132 35.8931102,3.45427856 36.0042943,3.78674935 M25.7446392,5.04254584 L25.7539406,5.09792159 C25.7169514,5.09792159 25.6613593,5.12560947 25.5872726,5.16259873 L25.5409819,5.16259873 L25.5316806,5.06104048 L25.7446392,5.04254584 M29.1431094,4.95948222 L29.1524108,5.11641623 C29.0968188,5.11641623 29.0320335,5.19947985 28.9486454,5.33802737 L28.939344,5.23646912 C29.0319253,5.11641623 29.078216,5.02405121 29.078216,4.95948222 L29.1430013,4.95948222 M28.6152012,6.04861069 L28.6336958,6.2517272 L28.5781038,6.26092044 L28.5596091,6.05780393 L28.6152012,6.04861069 M28.4855224,6.42715584 C28.476221,6.60258448 28.4299304,6.6949495 28.3466504,6.70414274 L28.2910584,6.71333597 C28.3558437,6.59328308 28.3836397,6.50091807 28.3744465,6.43634908 L28.4855224,6.42715584 M28.2447677,6.97226086 L28.2540691,7.0276366 L28.1614878,7.193872 L28.0504118,7.20306524 L28.0411104,7.14768949 C28.1521864,7.13849625 28.2077784,7.08301235 28.1985852,6.97226086 L28.2448759,6.97226086 M28.0134225,7.46166566 L27.9764333,7.72945931 L27.9301426,7.72945931 L27.911648,7.46166566 L28.0135307,7.46166566 M33.7177735,7.65558893 L33.9492268,7.79413645 C33.9585282,7.85881359 33.9214308,7.9049961 33.8473441,7.9049961 C33.7454613,7.84031896 33.6713746,7.81263109 33.6158907,7.82193248 L33.6158907,7.66499848 L33.7177735,7.65580524 M29.2541854,8.24676829 L29.2634868,8.34832655 L29.0412267,8.36682118 L29.0319253,8.26526293 L29.2541854,8.24676829 M32.8568536,8.62531344 C33.0143284,8.69918382 33.088307,8.76386097 33.0976084,8.81923671 L33.0976084,8.86541922 C32.949435,8.87461246 32.810563,8.80074208 32.6808842,8.63461484 L32.8568536,8.6254216 M28.2175125,9.7611652 C28.8471953,9.70578945 29.8380102,9.41030792 31.1992585,8.87472062 L31.541896,8.84703274 C32.2271708,8.791657 32.7359355,8.92090312 33.0791137,9.24407253 L33.0976084,9.44718904 C32.8475522,10.1673982 32.5698083,10.592234 32.2641601,10.7214802 L30.8659225,11.8480305 C29.8195155,12.5313586 29.254618,12.8730226 29.1620367,12.8822159 C27.4952483,13.7963483 26.4581428,14.2672585 26.0506119,14.3042478 L25.9950198,14.313441 C26.0320091,14.1195177 26.772876,12.605229 28.2174043,9.7611652 M29.726826,9.1610089 L29.7361274,9.21638465 L29.5138674,9.23487929 L29.504566,9.17950354 L29.726826,9.1610089 M34.77359,8.93020452 L34.8105792,9.35493218 C34.7549872,9.45649043 34.7086965,9.51186618 34.6531044,9.52116757 L34.5883192,8.80095839 C34.7086965,8.83794766 34.7734818,8.88402201 34.7734818,8.93020452 M26.2259324,12.5498532 C26.1518457,12.9007105 26.077759,13.0854405 26.0036723,13.0854405 L26.0036723,13.039258 C25.9758762,12.8730226 26.0499629,12.7067872 26.2259324,12.5498532 M27.62417,14.5258589 C28.0315927,14.4519885 29.1524108,13.870435 30.9856509,12.7714644 L30.9949523,12.8730226 C30.9949523,12.9192051 30.8467789,13.0577527 30.5226361,13.2793638 C29.5966065,13.7410807 29.0410104,14.0457555 28.8743424,14.2027977 C27.8650328,14.5536549 27.3649206,14.7752661 27.374222,14.8582215 C26.4759885,15.2090788 25.8925963,15.4676792 25.6055509,15.6339146 C25.5407656,15.6431079 25.4388829,15.61542 25.3185056,15.550851 C25.3000109,15.366121 25.3832909,15.2276816 25.5592603,15.1171464 C25.7167351,15.1079532 25.8648003,15.1263397 26.0037804,15.1818236 C26.1704485,15.0987599 26.4574938,15.0063949 26.8744343,14.8955353 L26.8651329,14.793977 L26.5224954,14.8216649 C26.5594847,14.7569878 26.8836275,14.609247 27.4855143,14.3692494 L27.6521823,14.3507547 L27.6521823,14.3969372 C27.3651369,14.4246251 27.2076622,14.5077969 27.1706729,14.6555377 C27.1799743,14.7202148 27.2169636,14.7570959 27.2910502,14.7479027 C27.5225036,14.637043 27.6243863,14.5539794 27.6243863,14.5262915 M25.8928126,13.2613018 L25.8928126,13.3074843 C25.902114,13.3813547 25.8650166,13.4275372 25.7909299,13.4275372 L25.7816285,13.3721614 C25.7816285,13.3259789 25.8186178,13.2797964 25.8927045,13.2613018 M28.5226198,13.981511 C28.3929411,13.9907042 28.1429931,14.1015639 27.7725597,14.3046804 L27.7169676,14.3138736 L27.7076662,14.2123154 C27.976217,14.1846275 28.2169717,14.0830692 28.4021343,13.8983392 C28.476221,13.889146 28.5132103,13.9168338 28.5225117,13.9814028 M25.8002313,14.7384931 L25.9668993,14.7199985 L25.9762007,14.7753742 C25.9392114,14.7753742 25.8836194,14.8030621 25.8095327,14.8400514 L25.6984567,14.8492446 C25.6891553,14.7938689 25.7262528,14.7568796 25.8003395,14.738385 M24.6798458,15.3570359 L24.7909218,15.4032184 C24.7539325,15.7263878 24.6520498,15.8926232 24.5038764,15.9018164 C24.3741976,15.8464407 24.2631217,15.8187528 24.161239,15.8279461 L24.1519376,15.6710121 C24.1426362,15.6156363 24.1797336,15.578647 24.2538203,15.5601524 C24.327907,15.5509592 24.3648962,15.6063349 24.3741976,15.7078932 C24.5593603,15.4770888 24.661243,15.3570359 24.6797377,15.3570359" id="Shape"></path>
                    <path d="M6.51962901,2.16073571 C5.8899462,2.62245263 5.16768206,3.07486816 4.36202982,3.51809045 L4.37133122,3.65663798 C4.42692328,3.65663798 4.49170858,3.61964871 4.5842899,3.57357436 C4.67687123,3.56438112 4.73246329,3.60126223 4.73246329,3.69362725 L4.88063668,3.61056363 L4.95472337,3.60137039 L4.96402477,3.66604753 C4.97332616,3.73072467 4.4640207,4.12776445 3.45460302,4.8387804 L3.53799111,4.96802653 L3.46390442,4.97721977 L3.30642964,4.92184402 C3.30642964,4.96802653 3.24164434,4.9957144 3.09347095,5.00490764 L3.10277235,5.07877802 L3.26944037,5.26350806 C3.21384831,5.26350806 3.13976162,5.25431482 3.04718029,5.21732555 C2.72303749,5.24501342 2.39900284,5.4851192 2.08416143,5.92834149 L2.16754952,6.05758762 C2.44540166,5.8082886 2.60233566,5.67904247 2.64905895,5.67904247 L2.66755358,5.88215898 C2.62126292,5.88215898 2.54717623,5.91914825 2.4545949,5.96522261 L2.63056431,6.22382302 C2.96390036,5.86366435 3.32503243,5.55898958 3.73256332,5.30969056 C3.93632877,5.36506631 4.03810333,5.42055021 4.03810333,5.4944206 L4.18627672,5.48522736 C5.2699974,4.6818464 6.34387591,4.10937798 7.40877749,3.74932746 L7.41807889,3.88787499 C7.22361483,4.18335651 7.08474284,4.33109728 7.01065615,4.34029052 C7.01995754,4.44184877 7.05694681,4.52502055 7.11253887,4.60808417 C7.13103351,4.7928142 6.64952408,6.00242819 5.66801059,8.25542075 C3.42702331,13.4815069 1.55701027,17.3415859 0.0471559099,19.8529625 C0.0471559099,19.8991451 0.0841451787,19.9730154 0.130543998,20.0560791 C0.500977465,19.963714 0.74173218,19.8806504 0.843614902,19.7882854 L0.927002991,19.7790922 L0.936304386,19.9176397 L1.07517638,19.9084464 L1.22334976,19.8253828 C1.22334976,19.8715653 1.27894182,19.89006 1.37152315,19.8807586 L1.38082455,20.0193061 C1.39012594,20.1578536 1.31603925,20.3701634 1.14006983,20.6564517 C0.98259505,20.8318803 0.825228424,21.192039 0.649259008,21.7368195 L0.658560403,21.8014967 L0.797432394,21.7923034 C1.39931918,21.1182767 1.86233397,20.4534433 2.17717538,19.8069963 C3.94584647,19.2899037 5.28860019,18.7820042 6.22382302,18.2830817 C7.15904585,18.2000181 7.88141815,17.9599123 8.36292758,17.5535712 L8.35362618,17.4797008 L8.0017955,17.581259 L7.91840742,17.5904523 L7.90910602,17.5165819 C8.5943809,17.4150236 9.07589032,17.2579815 9.33513967,17.054865 C10.6778934,16.0206796 11.6872029,15.291169 12.3721533,14.8572481 C14.4927632,13.3059701 15.4927714,11.8105005 15.372394,10.3882523 C15.3630926,10.2405115 14.8908846,9.6587417 13.9741564,8.64261836 C13.9556618,8.44869509 14.2796964,8.1717082 14.927982,7.80235629 L16.7709561,6.18640113 C17.1783788,5.66011522 17.4284349,4.81055175 17.5117149,3.63781888 L17.4839189,3.36083198 C17.4098322,2.53906454 16.8171386,1.87423111 15.6874517,1.36633167 C15.0206715,0.913916144 13.8261993,0.673810364 12.1042515,0.646122491 C10.6874111,0.77536862 8.81696544,1.27407481 6.5203861,2.16030308 M16.4469215,2.28035597 L16.3913294,2.4189035 L14.3352885,1.56014679 C15.7057301,1.61552254 16.4097159,1.85562832 16.446597,2.28035597 M8.13104163,7.96837538 C8.26991363,7.21128508 8.42738841,6.77758049 8.60335782,6.67558962 L10.1405756,3.23136954 C10.122081,3.01895164 10.4461156,2.85282439 11.1226299,2.74196474 L11.3448899,2.72347011 L11.3633846,2.91739338 C12.0301648,2.81583513 12.4375876,2.76045938 12.5949542,2.74196474 C13.8173305,2.64040649 14.4465807,2.88051227 14.5024973,3.48066856 L14.6413693,3.47147532 L14.6135732,3.12061805 L14.7617466,3.11142481 C15.1228787,3.30534808 15.3173427,3.54512939 15.3358374,3.83163399 C15.354332,4.02555726 15.2524493,4.26533858 15.020996,4.55184318 C14.9284146,4.56103642 14.8728226,4.49646743 14.8635212,4.35791991 L14.7153478,4.36711314 L14.6783585,4.78264756 C14.0579771,5.70608141 13.6134569,6.17699158 13.3356048,6.20467945 C13.0855487,6.54634349 12.9281821,6.72177212 12.8632886,6.73096536 C12.6688246,6.96176975 12.1410245,7.35891769 11.2705869,7.91289147 C10.9835416,7.94057935 9.91863998,8.34659606 8.0758822,9.15019333 C7.98330087,9.10401082 7.89071954,9.09481758 7.77953542,9.10401082 L7.77023403,8.97476469 C7.75173939,8.70697104 7.86281536,8.3746084 8.1313661,7.96826722 M16.641061,3.72099065 L16.6503624,3.85023678 C16.5762757,3.85943002 16.4374037,3.63781888 16.2336383,3.1948129 L16.2243369,3.06556677 C16.3540157,3.04707213 16.4928877,3.26868328 16.641061,3.72099065 M3.12159145,5.36463369 L3.13089285,5.42931083 C3.08460218,5.42931083 3.01051549,5.4663001 2.91793416,5.51237445 L2.84384747,5.52156769 L2.83454607,5.39232156 L3.12159145,5.36463369 M7.59383199,5.25377404 L7.61232662,5.45689055 C7.54754133,5.46608379 7.45485184,5.5584488 7.34377588,5.75237208 L7.33447449,5.61382455 C7.46415324,5.45689055 7.52893854,5.33683766 7.52893854,5.25366588 L7.59372383,5.25366588 M6.90844896,6.69419241 L6.93624499,6.9711793 L6.8621583,6.98037254 L6.83436227,6.70338564 L6.90844896,6.69419241 M6.73247954,7.19279044 C6.71398491,7.42359483 6.65839285,7.54364772 6.53801549,7.55294911 L6.4639288,7.56214235 C6.54731689,7.40520835 6.59360755,7.2943487 6.58430616,7.21128508 L6.73247954,7.19279044 M6.42693953,7.91299963 L6.43624093,7.97767677 L6.30656217,8.19928792 L6.16769018,8.20848116 L6.15838879,8.14380401 C6.29726078,8.13461077 6.36215423,8.06074039 6.35285284,7.92219287 L6.42693953,7.91299963 M6.11209812,8.55933843 L6.07510885,8.90100247 L6.00102216,8.9101957 L5.97322613,8.56853167 L6.11209812,8.55933843 M13.6224339,8.80863745 L13.9279739,8.99336748 C13.9372753,9.0857325 13.8909846,9.14110825 13.7982951,9.15030148 C13.6686164,9.06723786 13.5668418,9.03024859 13.4927551,9.03024859 L13.4742605,8.82713208 L13.6224339,8.80863745 M7.74200538,9.59352378 L7.75130677,9.7227699 L7.46426139,9.75045778 L7.45496,9.62121165 L7.74200538,9.59352378 M12.4831211,10.0737353 C12.6868866,10.1661004 12.7886611,10.2584654 12.7979625,10.3323357 L12.8072639,10.3970129 C12.6127999,10.4155075 12.4368305,10.3139493 12.2701624,10.0923381 L12.4831211,10.0738435 M6.37123932,11.5697458 C7.20468758,11.4958754 8.51953711,11.1080288 10.3070273,10.4063143 L10.7418134,10.369325 C11.6493484,10.2954546 12.3253219,10.46169 12.7697339,10.8864177 L12.7975299,11.1634046 C12.4641939,12.1237195 12.0937604,12.6775852 11.6955309,12.8532301 L9.84390435,14.3214445 C8.46416136,15.2263837 7.72329443,15.6787993 7.61221847,15.6881007 C5.41763001,16.8977146 4.04708026,17.5163656 3.51928017,17.5625481 L3.43589208,17.5717413 C3.50997877,17.3131409 4.48229903,15.3186406 6.37123932,11.5701784 M8.37147188,10.7852921 L8.38077328,10.8499692 L8.0844265,10.8776571 L8.07512511,10.8129799 L8.37147188,10.7852921 M15.0198062,10.4898105 L15.0660969,11.0349155 C15.0013116,11.1826563 14.9364182,11.2565267 14.8623315,11.2565267 L14.7789434,10.2962117 C14.9364182,10.3608889 15.0103967,10.4254579 15.0196981,10.490135 M3.74986824,15.2543961 C3.65728691,15.7253062 3.55540419,15.965412 3.45352147,15.9746053 L3.44422007,15.9099281 C3.42572544,15.6698223 3.52760816,15.4575126 3.74976009,15.2545042 M5.60138664,17.8588949 C6.13848813,17.7573366 7.61081244,16.9816435 10.027661,15.5504184 L10.0369624,15.6796645 C10.0462638,15.7350403 9.83319693,15.9104689 9.41658096,16.2152518 C8.18501136,16.8154081 7.46220643,17.2309425 7.25022115,17.4433604 C5.91676883,17.9050774 5.25928998,18.1912575 5.26859138,18.3021172 C4.08331244,18.7730273 3.30556439,19.1146914 2.93502277,19.3271093 C2.85163468,19.3363025 2.72206408,19.2994214 2.55539606,19.225551 C2.53690143,18.9854452 2.63878415,18.7918464 2.87953887,18.6345879 C3.08330431,18.6160933 3.2869616,18.6437812 3.47223241,18.726953 C3.69449249,18.6160933 4.0741192,18.4868472 4.62052208,18.3576011 L4.61122069,18.2190535 L4.17643455,18.2560428 C4.2320266,18.1821724 4.64875073,17.9882491 5.44510157,17.6650797 L5.66736165,17.6465851 L5.67666305,17.7112623 C5.30622958,17.7389501 5.09327089,17.859003 5.04698023,18.0529263 C5.05628163,18.1359899 5.10257229,18.1821724 5.19515362,18.1729792 C5.46370436,17.9882491 5.60257635,17.8866909 5.60257635,17.859003 M3.32481612,16.1876721 L3.33411751,16.2523492 C3.34341891,16.3447143 3.29712824,16.40009 3.20443876,16.4092833 L3.19513736,16.3446061 C3.18583597,16.2615425 3.23212663,16.2060586 3.32481612,16.1876721 M6.78796345,17.1294924 C6.61199403,17.1479871 6.28795938,17.2864264 5.79714856,17.563197 L5.72306187,17.5723903 L5.71376047,17.4338427 C6.06559115,17.4061549 6.37123932,17.2676073 6.62129543,17.0183083 C6.72317815,16.9998137 6.77877021,17.0459962 6.78796345,17.129168 M3.19502921,18.1264722 L3.41728929,18.1079776 L3.42659068,18.1818479 C3.37099863,18.1818479 3.30621333,18.2188372 3.213632,18.2649116 L3.07476001,18.2741048 C3.06545861,18.2094277 3.10255604,18.1540519 3.19513736,18.126364 M1.72281305,18.9481315 L1.88028783,19.0128086 C1.82469577,19.428343 1.70431841,19.640761 1.49135973,19.6591474 C1.32469171,19.585277 1.17651832,19.5575892 1.03764633,19.5667824 L1.0191517,19.3636659 C1.0098503,19.2806023 1.05614096,19.2344198 1.15802369,19.2067319 C1.25060501,19.1975387 1.30619707,19.2621076 1.31549847,19.4006552 C1.56555458,19.0959804 1.70442657,18.9482396 1.7229212,18.9482396" id="Shape"></path>
                    <path d="M42.8004776,0.803380961 L42.6801002,0.757198453 L40.7076637,1.06187322 C40.633577,1.02488395 40.5409957,1.00649747 40.439113,1.01569071 C40.328037,1.02488395 40.1612608,1.06187322 39.9113129,1.12655036 L38.9574873,1.52359014 L39.0315739,1.64364303 C39.0778646,1.64364303 39.1426499,1.61595516 39.226038,1.56977265 L39.559374,1.59746053 L39.5130834,1.91143669 C39.2075434,2.04998421 39.0222726,2.25310072 38.9759819,2.52089438 C38.5129671,2.72401089 38.2815138,2.87175165 38.2815138,2.96411667 L38.2908152,3.01949242 L38.3649019,3.01029918 L38.4945806,2.94562203 L38.642754,3.12105067 L38.6612486,3.36115645 C38.67055,3.43502683 37.8833924,5.08786311 36.3091854,8.31047203 C34.947937,11.4130281 34.234758,13.1125876 34.1608876,13.4165053 C33.6978728,13.5457514 33.4201288,13.7396747 33.3460421,13.9889737 C33.3553435,14.0720373 33.4942155,14.1182199 33.7627663,14.1459077 L33.7720677,14.2659606 L33.6516903,14.4690771 L33.6701849,14.7091829 C33.6794863,14.838429 34.0220156,14.9307941 34.6887958,15.0046644 C34.6887958,14.9584819 34.7072905,14.9399873 34.7535811,14.9307941 C34.7628825,15.0785348 34.7257851,15.3740163 34.6239024,15.8172386 L34.6979891,15.8080454 C34.9758412,15.4295003 35.1054118,15.1708998 35.0962186,15.0231591 L35.1518106,15.0139658 C35.2165959,15.0047726 35.2906826,15.0878362 35.3740707,15.2540716 C35.2906826,15.2910609 34.994444,15.9558943 34.4943318,17.2577652 L34.5684185,17.3778181 L34.6425052,17.3686248 C35.2628866,15.8081536 35.6518147,14.9400955 35.8092895,14.7739682 C36.624135,14.7000978 38.0224807,14.5615503 40.0226051,14.3492406 L40.1429825,14.2753702 C40.1429825,14.3215527 40.1707785,14.3400473 40.2170692,14.3307459 L40.3467479,14.3215527 L40.4671253,14.2476823 C40.4671253,14.2938648 40.4949213,14.3123594 40.541212,14.303058 L42.0506337,14.1738119 C42.4488632,14.1368226 42.6433273,14.0168779 42.6247245,13.8136532 C42.6154231,13.7582775 42.8561778,13.6936004 43.3377954,13.6289232 C43.3840861,13.6289232 43.4488714,13.6381165 43.5415608,13.6659125 C43.5415608,13.6289232 43.7730142,13.5920421 44.2546318,13.5458596 C44.2639331,13.2965606 44.3472131,13.158013 44.4953865,13.1488198 L44.4860851,13.0287669 C44.3564063,13.0379602 44.1990397,13.0749494 44.0230703,13.1303252 C43.7082289,13.1118305 43.5044634,13.0933359 43.4211835,13.0564548 C43.3377954,13.1026373 43.2730101,13.1303252 43.2267194,13.1303252 L42.1711193,13.1673144 L42.0414405,13.2319916 C42.0414405,13.1950023 42.0136445,13.1766158 41.9673538,13.1858091 L41.9117617,13.1950023 L41.7728898,13.2596795 C41.7728898,13.2226902 41.6618138,13.1950023 41.4395537,13.1673144 L41.309875,13.2411848 L41.0506256,13.2596795 L41.0413242,13.1950023 C42.3932712,13.0472616 43.0692447,12.8625315 43.05075,12.6409204 C43.1341381,12.6317271 43.1804288,12.6779096 43.189622,12.7609733 L43.5878515,12.659415 L43.5785501,12.5393621 L40.3375547,12.6317271 C40.3375547,12.6779096 40.3190601,12.6964043 40.2727694,12.7055975 L39.8745399,12.6686083 C39.7726572,12.6778015 39.6893773,12.7055975 39.6244838,12.7609733 L39.4763104,12.7055975 C39.0688877,12.7425868 38.7632395,12.7886611 38.5595822,12.8533383 C38.2817301,12.8348436 37.9761901,12.8348436 37.6335526,12.8625315 L36.9019871,12.9272087 L36.5686511,12.8902194 C36.5501564,12.6778015 36.9668806,11.6252297 37.8280167,9.7320713 C38.0780728,9.09492574 38.3095261,8.69788595 38.5224848,8.55014519 C38.5687755,8.55014519 38.6335608,8.55933843 38.7262502,8.5963277 L39.2448571,8.42089906 L39.5134078,8.46708157 C39.957928,8.4300923 40.4764267,8.30084617 41.0691202,8.08853642 C41.2172936,8.07934318 41.3283696,8.08853642 41.4024563,8.11622429 L41.8006858,8.02385928 L42.9767715,7.92230102 C43.4767755,7.87611851 44.0231784,7.76536702 44.6066787,7.58983023 L44.5973773,7.46977734 C44.3751173,7.48827197 44.2640413,7.4512827 44.2547399,7.36821908 C44.2362453,7.20198368 44.0787705,7.1374147 43.7732305,7.16510257 L43.7639291,7.04504968 L44.0880719,6.95268466 L44.9400148,6.87881428 L44.9307134,6.75876139 C44.8937241,6.75876139 44.7269479,6.75876139 44.4029133,6.74956815 L44.3936119,6.62032202 L44.7269479,6.59263415 C44.810336,6.58344091 44.8566267,6.5372584 44.8473253,6.46338802 C44.4028051,6.47258126 44.1805451,6.45419478 44.1805451,6.39871088 C41.0969163,6.54645164 39.5598067,6.57413952 39.5505053,6.4817745 C39.5042146,6.4817745 39.4394293,6.50946237 39.3560412,6.56483812 L39.2726531,6.43559199 C40.0874986,4.70888534 40.5691162,3.83120137 40.7079882,3.82254891 C40.7172896,3.88722605 40.6801921,3.99797755 40.6061055,4.14571831 L40.6154068,4.20109406 L40.7450856,4.19190082 C41.0692284,3.41620773 41.3377791,3.01916795 41.5692325,3.00110594 C42.5322513,2.91804232 41.4303605,2.85336517 43.5045716,2.53019577 C43.5879597,2.56718504 43.652745,2.58557152 43.6897342,2.57637828 C44.5045797,2.41014288 45.6343747,2.24390748 47.0882044,2.06847885 L47.078903,1.94842596 L46.3010468,2.02229634 L46.2917454,1.90224345 C46.3843268,1.89305021 46.4584134,1.86525418 46.5231987,1.80987843 L46.5325001,1.87455558 C46.5787908,1.87455558 46.6343829,1.8468677 46.7084696,1.79149195 C46.8381483,1.78229871 46.9399229,1.79149195 47.0140096,1.82848122 C47.2825603,1.75461084 47.495519,1.71762157 47.662187,1.69923509 L48.1436965,1.65305259 C48.2640738,1.5791822 48.3196659,1.51450506 48.3103645,1.44993607 L48.3103645,1.39456033 C48.1899871,1.40375357 48.0511151,1.39456033 47.8844471,1.36687245 C47.8751457,1.30219531 47.9122431,1.2560128 47.9955231,1.23762632 L48.8937566,1.1545627 L49.3104808,1.05300445 C49.3104808,1.09918696 49.3382768,1.11768159 49.3660728,1.11768159 C49.4123635,1.11768159 49.4679555,1.08999372 49.5420422,1.03461797 C49.7550009,1.06230584 49.8846797,1.07160724 49.9124757,1.06230584 C50.0791437,0.905371839 50.2736078,0.776017554 50.4865665,0.692953933 C50.3939851,0.600588917 50.3476945,0.526718535 50.3383931,0.462149548 L49.7365063,0.517525296 C49.7365063,0.471342788 49.7087103,0.41596704 49.671721,0.332795263 C49.671721,0.277419516 49.8013997,0.221935613 50.0791437,0.166559865 L50.1995211,0.212742373 L50.310597,0.148065231 C50.310597,0.1850545 50.3383931,0.203440978 50.3753823,0.194247739 L50.4864583,0.129570597 C50.4864583,0.166559865 50.5142543,0.184946344 50.5512436,0.175753105 L50.6068357,0.166559865 L50.5975343,0.0465069754 C50.5141462,0.0557002147 50.2919942,0.0557002147 49.9400554,0.0465069754 L49.8289795,0.120377357 L49.8196781,0.0557002147 C46.9957312,0.2865046 45.3934037,0.415858885 45.0132362,0.452739998 C44.9669456,0.452739998 44.7631801,0.452739998 44.4205427,0.443546758 C44.4205427,0.489729266 44.3835534,0.51741714 44.3001653,0.51741714 L44.179788,0.462041393 L43.7630638,0.563599648 C43.6704825,0.572792888 43.5038145,0.563599648 43.272253,0.545105014 C43.2074677,0.591287522 43.133381,0.628168635 43.0407997,0.63747003 C42.9482184,0.646663269 45.281787,0.508223901 45.2071595,0.471234632 L44.8460274,0.572792888 L44.7904354,0.581986127 C44.642262,0.591179366 44.4570993,0.591179366 44.2348392,0.563491492 C44.1700539,0.609674001 44.0773645,0.646555114 43.9384925,0.655856509 C43.8459111,0.665049748 43.7625231,0.646663269 43.6977378,0.609674001 C43.595855,0.637361874 43.2995083,0.711232256 42.7995042,0.803597272 M42.9476776,1.17294918 C42.9476776,1.21913169 42.9939683,1.23762632 43.0680549,1.22832493 L43.0773563,1.34837782 L42.956979,1.35757106 C42.8643977,1.3667643 42.7810096,1.34837782 42.7162243,1.31138855 C42.651439,1.3667643 42.5680509,1.39445217 42.4847709,1.40375357 L42.5217602,1.40375357 L42.1884242,1.3667643 L42.1791228,1.31138855 C42.5865455,1.28370068 42.7162243,1.23751817 42.9476776,1.17284103 M43.2532176,1.14515315 L43.3180029,1.13595991 L43.3273043,1.2560128 L43.1421416,1.27450744 C43.1421416,1.20983029 43.1699377,1.16364779 43.2532176,1.14526131 M43.9662885,1.07139093 L43.9755899,1.13606807 C43.8367179,1.14526131 43.6607485,1.18225058 43.4477898,1.24692772 L43.3830045,1.25612096 L43.4385966,1.12687483 L43.9663967,1.07149908 M38.7066741,1.67165538 L38.9104395,1.65316074 L38.9011381,1.53310785 L38.6973727,1.55160249 L38.7066741,1.67165538 M40.1605037,1.54240925 L40.2345904,1.53321601 L40.3734624,1.58859175 C40.3827638,1.67165538 40.3364732,1.71783788 40.2530851,1.71783788 L40.0493196,1.73633252 L40.0400182,1.67165538 C40.0307168,1.60697823 40.0770075,1.57009712 40.1603956,1.54240925 M44.818664,1.8102029 L44.818664,1.86557865 L44.4019399,1.90256792 L44.4019399,1.84719217 L44.818664,1.8102029 M43.6246245,1.98563154 L43.6339259,2.05030868 L43.3931711,2.06880331 L43.3838698,2.00412617 L43.6246245,1.98563154 M44.7729141,2.07799655 L45.6063624,1.93944903 L46.0322798,1.95794366 L46.0415812,2.02262081 C45.8378157,2.04111544 45.6619545,2.07799655 45.5137811,2.13348046 C45.5137811,2.08729795 45.430393,2.05041684 45.263725,2.0319222 L44.6062461,2.21665223 C44.4765674,2.14278185 44.4117821,2.0874061 44.4117821,2.05041684 L44.7729141,2.07810471 M43.9487673,2.26283474 C44.0321554,2.2536415 44.0691446,2.29052262 44.078446,2.37369439 L43.7266153,2.41068366 L43.717314,2.29063077 L43.9487673,2.2629429 M43.2172017,2.22595363 L43.2265031,2.29063077 L45.3928629,2.18907252 L45.3835615,2.12439537 L43.2172017,2.22595363 M43.3468805,2.39218903 L43.3468805,2.44756477 L42.8745643,2.49374728 L42.8745643,2.43837153 L43.3468805,2.39218903 M40.2447571,4.83910487 L40.2540585,4.90378201 L40.3929305,4.89458877 C40.3929305,4.84840626 40.4022319,4.78372912 40.4392211,4.7006655 L40.4299197,4.58061261 C40.355833,4.58980585 40.2910477,4.67297762 40.2447571,4.83921302 M35.4761698,11.7461478 L35.4854712,11.8015235 C35.4947725,11.8845872 35.4484819,11.9307697 35.3557924,11.9400711 L35.346491,11.8846953 C35.3371896,11.8108249 35.3834803,11.7738357 35.4761698,11.7461478 M35.3557924,12.0047482 C35.3650938,12.1248011 35.2817057,12.4202826 35.1150377,12.900386 L34.9112722,12.9188807 C34.9019708,12.8358171 35.013155,12.5403355 35.2261136,12.0232429 L35.3557924,12.0047482 M37.5874783,13.9345714 C37.5967797,13.9992485 37.4855956,14.0731189 37.2726369,14.1469893 L36.8652141,14.1193014 L36.7355354,14.1284947 L36.726234,14.0084418 L37.5873701,13.9345714 M37.9855996,13.9715607 L37.994901,14.0269364 L37.661565,14.0546243 L37.6522636,13.9992485 L37.9855996,13.9715607" id="Shape"></path>
                </g>
            </g>
        </g>
    </g>
</svg>