<?xml version="1.0" encoding="UTF-8"?>
<svg width="73px" height="73px" viewBox="0 0 73 73" version="1.1" xmlns="http://www.w3.org/2000/svg" xmlns:xlink="http://www.w3.org/1999/xlink">
    <!-- Generator: Sketch 51.3 (57544) - http://www.bohemiancoding.com/sketch -->
    <title>build-tools/eslint</title>
    <desc>Created with Sketch.</desc>
    <defs></defs>
    <g id="build-tools/eslint" stroke="none" stroke-width="1" fill="none" fill-rule="evenodd">
        <g id="container" transform="translate(2.000000, 2.000000)" fill="#FFFFFF" fill-rule="nonzero" stroke="#4B32C3" stroke-width="2">
            <rect id="mask" x="-1" y="-1" width="71" height="71" rx="14"></rect>
        </g>
        <g id="logo" transform="translate(13.000000, 16.000000)" fill-rule="nonzero">
            <path d="M14.324168,15.057625 L23.2159805,9.92397656 C23.4384961,9.79546094 23.7127852,9.79546094 23.9353008,9.92397656 L32.8272969,15.057625 C33.0496289,15.1861406 33.186957,15.4235273 33.186957,15.6805586 L33.186957,25.9478555 C33.186957,26.2047031 33.0496289,26.4422734 32.8272969,26.5709727 L23.9353008,31.7046211 C23.7127852,31.8331367 23.4384961,31.8331367 23.2159805,31.7046211 L14.324168,26.5709727 C14.1016523,26.442457 13.9645078,26.2048867 13.9645078,25.9478555 L13.9645078,15.6805586 C13.9646914,15.4235273 14.1018359,15.1861406 14.324168,15.057625" id="Shape" fill="#8080F2"></path>
            <path d="M46.6945,19.734125 L36.0704805,1.251375 C35.6845664,0.58309375 34.9716719,0.0901445312 34.2000273,0.0901445312 L12.9516211,0.0901445312 C12.179793,0.0901445312 11.4667148,0.58309375 11.0808008,1.251375 L0.45678125,19.6933672 C0.0708671875,20.361832 0.0708671875,21.2054453 0.45678125,21.8739102 L11.0808008,40.2051953 C11.4667148,40.8734766 12.179793,41.2151445 12.9516211,41.2151445 L34.1998437,41.2151445 C34.9714883,41.2151445 35.6845664,40.8837578 36.0702969,40.215293 L46.6943164,21.854082 C47.0805977,21.1859844 47.0805977,20.4024062 46.6945,19.734125 Z M37.8972383,28.6218984 C37.8972383,28.8936172 37.7336563,29.144957 37.4981055,29.281 L23.9654102,37.0886914 C23.730043,37.2245508 23.4351914,37.2245508 23.1998242,37.0886914 L9.65666406,29.281 C9.42129688,29.144957 9.25661328,28.8938008 9.25661328,28.6218984 L9.25661328,13.006332 C9.25661328,12.7344297 9.41891016,12.4832734 9.65446094,12.3472305 L23.1866055,4.53953906 C23.4219727,4.40349609 23.716457,4.40349609 23.9518242,4.53953906 L37.4959023,12.3472305 C37.7314531,12.4832734 37.8972383,12.7344297 37.8972383,13.006332 L37.8972383,28.6218984 Z" id="Shape" fill="#4B32C3"></path>
        </g>
    </g>
</svg>