<?xml version="1.0" encoding="UTF-8"?>
<svg width="73px" height="73px" viewBox="0 0 73 73" version="1.1" xmlns="http://www.w3.org/2000/svg" xmlns:xlink="http://www.w3.org/1999/xlink">
    <!-- Generator: Sketch 51.3 (57544) - http://www.bohemiancoding.com/sketch -->
    <title>build-tools/linters-and-formatters</title>
    <desc>Created with Sketch.</desc>
    <defs></defs>
    <g id="build-tools/linters-and-formatters" stroke="none" stroke-width="1" fill="none" fill-rule="evenodd">
        <g id="container" transform="translate(2.000000, 2.000000)" fill="#FFFFFF" fill-rule="nonzero" stroke="#000000" stroke-width="2">
            <rect id="mask" x="-1" y="-1" width="71" height="71" rx="14"></rect>
        </g>
        <g id="highlighter" transform="translate(15.000000, 15.000000)" fill-rule="nonzero">
            <g id="Group" fill="#FC3952">
                <path d="M5.76498712,40.0406244 L2.4867472,42.7637231 L0.416270943,41.7284849 C0.0457235132,41.5432112 -0.104365194,41.0923502 0.0816734129,40.7217178 C0.120682879,40.6436988 0.173205427,40.5731589 0.236181493,40.5131574 L3.23685079,37.5124881 L5.76498712,40.0406244 Z" id="Shape"></path>
                <path d="M42.658593,9.53105782 L18.3154966,37.6625768 L5.56246085,24.9096261 L33.4464099,0.363918371 C34.0443001,-0.151448514 34.939988,-0.115413626 35.4943644,0.446441663 L42.5534629,7.50554018 C43.1086891,8.0516727 43.1544126,8.93087297 42.658593,9.53105782 Z" id="Shape"></path>
            </g>
            <path d="M18.3154116,37.6625768 L17.2576516,38.7278157 C16.6717448,39.3137225 15.7220895,39.3144874 15.1361826,38.7293454 C15.1354177,38.7285805 15.1354177,38.7285805 15.1346528,38.7278157 C14.1691898,38.4982632 13.1789103,38.3849743 12.1865061,38.3902435 C9.97800941,38.3189387 7.81447135,39.0316475 6.08012241,40.4007183 C5.78232466,40.6392795 5.35322053,40.6167577 5.08236396,40.3481958 L2.91432154,38.1726744 C2.64796933,37.9048774 2.62179304,37.4802776 2.85432006,37.1824799 C5.99003519,33.431622 4.53470166,28.1278645 4.53470166,28.1278645 C4.25415646,27.8450246 4.0973537,27.461729 4.09956339,27.0626256 C4.09956339,26.6664968 4.25560125,26.2861758 4.53470166,26.0048657 L5.59246159,24.9396268 L18.3154116,37.6625768 Z" id="Shape" fill="#000000"></path>
            <path d="M26.4922715,43.5139116 L2.4867472,43.5139116 C2.07268595,43.5139116 1.73655863,43.1778693 1.73655863,42.7637231 C1.73655863,42.3496618 2.07260096,42.0135345 2.4867472,42.0135345 L26.4922715,42.0135345 C26.9063328,42.0135345 27.2424601,42.3495768 27.2424601,42.7637231 C27.2424601,43.1778693 26.9064178,43.5139116 26.4922715,43.5139116 Z" id="Shape" fill="#FC3952"></path>
        </g>
    </g>
</svg>