<?xml version="1.0" encoding="UTF-8"?>
<svg width="73px" height="73px" viewBox="0 0 73 73" version="1.1" xmlns="http://www.w3.org/2000/svg" xmlns:xlink="http://www.w3.org/1999/xlink">
    <!-- Generator: Sketch 51.3 (57544) - http://www.bohemiancoding.com/sketch -->
    <title>build-tools/nodejs</title>
    <desc>Created with Sketch.</desc>
    <defs>
        <linearGradient x1="72.7239724%" y1="9.24034743%" x2="27.2694696%" y2="90.7531095%" id="linearGradient-1">
            <stop stop-color="#3E863D" offset="30%"></stop>
            <stop stop-color="#55934F" offset="50%"></stop>
            <stop stop-color="#5AAD45" offset="80%"></stop>
        </linearGradient>
        <linearGradient x1="3.99429901%" y1="80.0991447%" x2="97.3074113%" y2="20.905776%" id="linearGradient-2">
            <stop stop-color="#3E863D" offset="57%"></stop>
            <stop stop-color="#619857" offset="72%"></stop>
            <stop stop-color="#76AC64" offset="100%"></stop>
        </linearGradient>
        <linearGradient x1="0%" y1="49.9998971%" x2="100%" y2="49.9998971%" id="linearGradient-3">
            <stop stop-color="#6BBF47" offset="16%"></stop>
            <stop stop-color="#79B461" offset="38%"></stop>
            <stop stop-color="#75AC64" offset="47%"></stop>
            <stop stop-color="#659E5A" offset="70%"></stop>
            <stop stop-color="#3E863D" offset="90%"></stop>
        </linearGradient>
    </defs>
    <g id="build-tools/nodejs" stroke="none" stroke-width="1" fill="none" fill-rule="evenodd">
        <g id="container" transform="translate(2.000000, 2.000000)">
            <rect id="mask" stroke="#000000" stroke-width="2" fill="#FFFFFF" fill-rule="nonzero" x="-1" y="-1" width="71" height="71" rx="14"></rect>
            <g id="Node.js_logo-(1)" transform="translate(7.000000, 23.000000)">
                <path d="M54.8153499,7.90510158 L54.9847404,7.90510158 C55.1237923,7.90510158 55.1503386,7.80776524 55.1503386,7.75088036 C55.1503386,7.60171558 55.0479458,7.60171558 54.9910609,7.60171558 L54.816614,7.60171558 L54.8153499,7.90510158 Z M54.6093002,7.42726862 L54.9847404,7.42726862 C55.1136795,7.42726862 55.3665011,7.42726862 55.3665011,7.71548533 C55.3665011,7.91647856 55.2375621,7.95819413 55.1604515,7.9834763 C55.3108804,7.99358916 55.3209932,8.09218962 55.341219,8.23124153 C55.3513318,8.31846501 55.3677652,8.46889391 55.3981038,8.51945824 L55.166772,8.51945824 C55.1604515,8.46889391 55.1250564,8.19079007 55.1250564,8.17562077 C55.1098871,8.11367946 55.0883973,8.08334086 55.0112867,8.08334086 L54.8204063,8.08334086 L54.8204063,8.52072235 L54.6093002,8.52072235 L54.6093002,7.42726862 Z M54.1580135,7.97083521 C54.1580135,8.423386 54.5233409,8.78997743 54.9720993,8.78997743 C55.4246501,8.78997743 55.7899774,8.41580135 55.7899774,7.97083521 C55.7899774,7.51702032 55.4195937,7.15674944 54.9708352,7.15674944 C54.5283973,7.15674944 54.1567494,7.51196388 54.1567494,7.96957111 L54.1580135,7.97083521 Z M55.9467269,7.97336343 C55.9467269,8.50934537 55.5080813,8.94672686 54.9733634,8.94672686 C54.4424379,8.94672686 54,8.51440181 54,7.97336343 C54,7.42221219 54.4525508,7 54.9733634,7 C55.4979684,7 55.9454628,7.4234763 55.9454628,7.97336343 L55.9467269,7.97336343 Z" id="Shape" fill="#689F63" fill-rule="nonzero"></path>
                <path d="M12.0009391,11.4465011 C12.0009391,11.2139052 11.8783205,11.0002709 11.6775801,10.884605 L6.3233228,7.80397291 C6.23293905,7.75088036 6.13168397,7.72306998 6.02903837,7.71927765 L5.97367043,7.71927765 C5.87102483,7.72306998 5.76976975,7.75088036 5.67786907,7.80397291 L0.32386456,10.884605 C0.124388262,11.0009029 0,11.2145372 0,11.4471332 L0.0117562077,19.7447404 C0.0117562077,19.8597743 0.0711693002,19.9672235 0.172297968,20.0241084 C0.27089842,20.0847856 0.394781038,20.0847856 0.49338149,20.0241084 L3.67640632,18.2012641 C3.87739955,18.0816795 4.00001806,17.8703205 4.00001806,17.64 L4.00001806,13.7636117 C4.00001806,13.5322799 4.12263657,13.3186456 4.32299774,13.2036117 L5.6781219,12.4231512 C5.77874492,12.3650023 5.88922799,12.3361806 6.00173363,12.3361806 C6.11246953,12.3361806 6.22548081,12.3647494 6.3233228,12.4230248 L7.6778149,13.2032325 C7.87830248,13.3182664 8.00142664,13.5319007 8.00142664,13.7632325 L8.00142664,17.6393679 C8.00142664,17.8694357 8.12568849,18.0818059 8.32567043,18.2006321 L11.5066727,20.0222122 C11.6065372,20.0816253 11.7307991,20.0816253 11.8302844,20.0222122 C11.9283792,19.9653273 11.9905734,19.8578781 11.9905734,19.7428442 L12.0009391,11.4465011 Z M37.2664199,15.7667178 C37.2664199,15.8244876 37.235702,15.8779594 37.1855169,15.9065282 L35.3464921,16.9666095 C35.2965598,16.9953047 35.2348713,16.9953047 35.1850655,16.9666095 L33.3457878,15.9065282 C33.2952235,15.877833 33.2648849,15.8243612 33.2648849,15.7667178 L33.2648849,13.6435214 C33.2648849,13.5856253 33.2952235,13.5322799 33.3445237,13.5032054 L35.1825372,12.4413544 C35.2331016,12.4122799 35.2950429,12.4122799 35.3456072,12.4413544 L37.1848849,13.5032054 C37.2354492,13.5322799 37.2657878,13.5856253 37.2657878,13.6435214 L37.2664199,15.7667178 Z M37.7632144,0.0409571106 C37.6628442,-0.0149164786 37.5407314,-0.0133995485 37.4416253,0.0443702032 C37.3430248,0.102519187 37.2820948,0.208704289 37.2820948,0.323738149 L37.2820948,8.54044244 C37.2820948,8.62134537 37.2391151,8.69592777 37.1690835,8.73637923 C37.0995576,8.7768307 37.0129661,8.7768307 36.9428081,8.73637923 L35.6015892,7.96388262 C35.40186,7.84834312 35.1558646,7.84834312 34.955377,7.96388262 L29.5993499,11.0550068 C29.3992415,11.1700406 29.2757381,11.3836749 29.2757381,11.6137427 L29.2757381,17.7977607 C29.2757381,18.0290926 29.3992415,18.2414628 29.5993499,18.3577607 L34.955377,21.4510339 C35.1553589,21.5660677 35.4016072,21.5660677 35.6022212,21.4510339 L40.9582483,18.3564966 C41.1579774,18.2401986 41.28186,18.0278284 41.28186,17.7964966 L41.28186,2.38448758 C41.28186,2.14986907 41.1541851,1.93408578 40.9493995,1.81943115 L37.7632144,0.0409571106 Z M55.5988984,13.5876479 C55.7978691,13.4721084 55.9203612,13.2587269 55.9203612,13.0286591 L55.9203612,11.5299323 C55.9203612,11.2993589 55.7977427,11.0866095 55.5983928,10.9705643 L50.2764966,7.88108352 C50.0755034,7.76478555 49.8290023,7.76478555 49.628009,7.88108352 L44.273246,10.9718284 C44.0722528,11.0881264 43.9496343,11.3004966 43.9496343,11.5318284 L43.9496343,17.7133183 C43.9496343,17.9459142 44.074781,18.1608126 44.2757743,18.2758465 L49.5964063,21.3084424 C49.7923431,21.4209481 50.0325237,21.4222122 50.2309887,21.3122348 L53.4494086,19.5235214 C53.5505372,19.4666366 53.6150068,19.3591874 53.6150068,19.2428894 C53.6150068,19.1265914 53.5530655,19.0178781 53.4519368,18.9609932 L48.064307,15.8689842 C47.9631783,15.8120993 47.901237,15.7046501 47.901237,15.5896163 L47.901237,13.650474 C47.901237,13.5346817 47.9619142,13.427991 48.0630429,13.3703476 L49.7392506,12.4033047 C49.8391151,12.3451558 49.9617336,12.3451558 50.0615982,12.4033047 L51.73907,13.3703476 C51.8389345,13.4272325 51.9008758,13.5346817 51.9008758,13.6497156 L51.9008758,15.1742302 C51.9008758,15.2892641 51.9628172,15.3967133 52.0626817,15.4548623 C52.1625463,15.5117472 52.2864289,15.5117472 52.3862935,15.4535982 L55.5988984,13.5876479 Z" id="Shape" fill="#333333"></path>
                <path d="M49.8738781,13.2984199 C49.9118014,13.2760451 49.9593318,13.2760451 49.9977607,13.2984199 L51.0254808,13.8912867 C51.0639097,13.913535 51.0874221,13.9544921 51.0874221,13.9987359 L51.0874221,15.1857336 C51.0874221,15.2299774 51.0639097,15.2709345 51.0254808,15.2931828 L49.9977607,15.8860497 C49.9593318,15.9084244 49.9118014,15.9084244 49.8738781,15.8860497 L48.8467901,15.2931828 C48.8076027,15.2709345 48.7835847,15.2299774 48.7835847,15.1857336 L48.7835847,13.9987359 C48.7835847,13.9544921 48.8063386,13.913535 48.845526,13.8912867 L49.8738781,13.2984199 Z" id="Shape" fill="#689F63"></path>
                <g id="nd-gr-nodejs-icon" transform="translate(14.500000, 8.500000)" fill-rule="nonzero">
                    <path d="M5.89320014,0.0896883294 L0.335849824,3.29734446 C0.128034599,3.4170902 -2.08951043e-05,3.63869262 -1.93000907e-16,3.87853884 L-1.93000907e-16,10.2983151 C-5.70905583e-05,10.538171 0.128008119,10.7597902 0.335849824,10.8795095 L5.89363778,14.0896456 C6.10145824,14.2092981 6.35725438,14.2092981 6.56507484,14.0896456 L12.1218416,10.8795095 C12.3291136,10.7593277 12.4567516,10.5379092 12.4568745,10.2983151 L12.4568745,3.87853884 C12.4567933,3.63859015 12.3285349,3.4169639 12.1205287,3.29734446 L6.56449132,0.0896883294 C6.35618334,-0.0298942512 6.10004929,-0.0298942512 5.89174132,0.0896883294" id="Shape" fill="url(#linearGradient-1)"></path>
                    <path d="M0.137712724,10.7059097 C0.191587541,10.7762495 0.258834432,10.8352467 0.335587237,10.8795095 L5.10278162,13.6331221 L5.89687637,14.0895289 C6.01414903,14.1569709 6.14901045,14.1875422 6.28390164,14.1772624 C6.32855281,14.1735282 6.37273187,14.165437 6.41580826,14.1531043 L12.2770894,3.42093579 C12.2315577,3.37198703 12.1789054,3.33018382 12.120908,3.29693599 L8.48205347,1.19562071 L6.55853932,0.088900566 C6.50390277,0.0578517532 6.44533523,0.0342991209 6.38441442,0.0188771468 L0.137712724,10.7059097 Z" id="Shape" fill="url(#linearGradient-2)"></path>
                    <path d="M6.16176913,0.00370540593 C6.06725907,0.0132447772 5.97580854,0.0425387678 5.89334602,0.0896883294 L0.351809329,3.28818306 L6.32731616,14.1719815 C6.41141953,14.1600018 6.49245747,14.1320549 6.56606684,14.0896456 L12.1234172,10.8795095 C12.2931976,10.7812267 12.4116884,10.6138033 12.4479173,10.421002 L6.35631753,0.0145882123 C6.31156335,0.00568970425 6.26604399,0.00120421975 6.22041374,0.00119623341 C6.20193534,0.00119623341 6.18345693,0.00207152615 6.16497853,0.00382211163" id="Shape" fill="url(#linearGradient-3)"></path>
                </g>
            </g>
        </g>
    </g>
</svg>