<?xml version="1.0" encoding="UTF-8"?>
<svg width="73px" height="73px" viewBox="0 0 73 73" version="1.1" xmlns="http://www.w3.org/2000/svg" xmlns:xlink="http://www.w3.org/1999/xlink">
    <!-- Generator: Sketch 51.3 (57544) - http://www.bohemiancoding.com/sketch -->
    <title>build-tools/npm-scripts</title>
    <desc>Created with Sketch.</desc>
    <defs></defs>
    <g id="build-tools/npm-scripts" stroke="none" stroke-width="1" fill="none" fill-rule="evenodd">
        <g id="container" transform="translate(2.000000, 2.000000)" fill="#FFFFFF" fill-rule="nonzero" stroke="#38454F" stroke-width="2">
            <rect id="mask" x="-1" y="-1" width="71" height="71" rx="14"></rect>
        </g>
        <g id="coding-(1)" transform="translate(14.000000, 16.000000)" fill-rule="nonzero">
            <path d="M31.7483333,41.8723684 L13.1639474,41.8723684 C13.1639474,40.1618421 14.5507895,38.775 16.2613158,38.775 L28.6508772,38.775 C30.3614912,38.7749123 31.7483333,40.1618421 31.7483333,41.8723684" id="Shape" fill="#E8EDEE"></path>
            <polygon id="Shape" fill="#B0B6BB" points="27.8765789 38.7749123 17.0357018 38.7749123 18.584386 32.5801754 26.3278947 32.5801754"></polygon>
            <path d="M44.9123684,26.3853509 L0,26.3853509 L0,2.7677193 C0,1.27087719 1.21342105,0.0574561404 2.71026316,0.0574561404 L42.2021053,0.0574561404 C43.6989474,0.0574561404 44.9123684,1.27087719 44.9123684,2.7677193 L44.9123684,26.3853509 Z" id="Shape" fill="#38454F"></path>
            <path d="M42.2020175,32.5801754 L2.71026316,32.5801754 C1.21342105,32.5801754 0,31.3667544 0,29.8699123 L0,26.3853509 L44.9122807,26.3853509 L44.9122807,29.8699123 C44.9122807,31.3667544 43.6988596,32.5801754 42.2020175,32.5801754" id="Shape" fill="#E8EDEE"></path>
            <g id="Group" transform="translate(6.140351, 3.070175)" fill="#EA6148">
                <path d="M31.802807,20.217807 L20.1875439,20.217807 C19.7592982,20.217807 19.4131579,19.8708772 19.4131579,19.4434211 C19.4131579,19.0159649 19.7592982,18.6690351 20.1875439,18.6690351 L31.802807,18.6690351 C32.2310526,18.6690351 32.577193,19.0159649 32.577193,19.4434211 C32.5771053,19.8708772 32.2309649,20.217807 31.802807,20.217807" id="Shape"></path>
                <path d="M8.5722807,15.5716667 L0.82877193,15.5716667 C0.400526316,15.5716667 0.0543859649,15.2247368 0.0543859649,14.7972807 C0.0543859649,14.3698246 0.400526316,14.0228947 0.82877193,14.0228947 L8.5722807,14.0228947 C9.00052632,14.0228947 9.34666667,14.3698246 9.34666667,14.7972807 C9.34666667,15.2247368 9.00052632,15.5716667 8.5722807,15.5716667" id="Shape"></path>
                <path d="M27.9310526,15.5716667 L16.3157895,15.5716667 C15.8875439,15.5716667 15.5414035,15.2247368 15.5414035,14.7972807 C15.5414035,14.3698246 15.8875439,14.0228947 16.3157895,14.0228947 L27.9310526,14.0228947 C28.3592982,14.0228947 28.7054386,14.3698246 28.7054386,14.7972807 C28.7053509,15.2247368 28.3592105,15.5716667 27.9310526,15.5716667" id="Shape"></path>
                <path d="M12.4440351,15.5716667 C12.3433333,15.5716667 12.2427193,15.5484211 12.1498246,15.5097368 C12.0491228,15.4710526 11.9717544,15.4168421 11.8942982,15.3471053 C11.7541228,15.2 11.6697368,15.0064035 11.6697368,14.7972807 C11.6697368,14.5881579 11.7541228,14.3946491 11.8942982,14.2474561 C11.9717544,14.177807 12.0492105,14.1235965 12.1498246,14.0848246 C12.427807,13.9686842 12.7770175,14.030614 12.9938596,14.2474561 C13.1332456,14.3945614 13.2184211,14.5958772 13.2184211,14.7972807 C13.2184211,14.9985965 13.1332456,15.1999123 12.9938596,15.3471053 C12.8466667,15.4864912 12.6453509,15.5716667 12.4440351,15.5716667" id="Shape"></path>
                <path d="M16.3157895,20.217807 L4.70052632,20.217807 C4.2722807,20.217807 3.92614035,19.8708772 3.92614035,19.4434211 C3.92614035,19.0159649 4.2722807,18.6690351 4.70052632,18.6690351 L16.3157895,18.6690351 C16.7440351,18.6690351 17.0901754,19.0159649 17.0901754,19.4434211 C17.0901754,19.8708772 16.7440351,20.217807 16.3157895,20.217807" id="Shape"></path>
                <path d="M0.82877193,20.217807 C0.728070175,20.217807 0.62745614,20.1945614 0.534561404,20.1558772 C0.441666667,20.117193 0.356491228,20.0629825 0.279035088,19.9932456 C0.138859649,19.8461404 0.0544736842,19.6525439 0.0544736842,19.4434211 C0.0544736842,19.3427193 0.0777192982,19.2421053 0.116403509,19.1492105 C0.155087719,19.0485088 0.209298246,18.9711404 0.279035088,18.8936842 C0.464912281,18.715614 0.728157895,18.6381579 0.975175439,18.6846491 C1.03017544,18.6923684 1.07587719,18.7078947 1.12307018,18.7311404 C1.16877193,18.7466667 1.21596491,18.7698246 1.25473684,18.8007895 C1.3004386,18.8317544 1.33991228,18.8627193 1.37859649,18.8936842 C1.44824561,18.9711404 1.50245614,19.0485965 1.54122807,19.1492105 C1.57991228,19.2421053 1.60315789,19.342807 1.60315789,19.4434211 C1.60315789,19.6524561 1.51798246,19.8460526 1.37859649,19.9932456 C1.33991228,20.0242105 1.30035088,20.0551754 1.25473684,20.0861404 C1.21605263,20.1171053 1.16877193,20.1403509 1.12307018,20.1557895 C1.07587719,20.1790351 1.03017544,20.1944737 0.975175439,20.2022807 C0.929473684,20.21 0.875263158,20.217807 0.82877193,20.217807" id="Shape"></path>
                <path d="M31.802807,15.5716667 C31.755614,15.5716667 31.7021053,15.5639474 31.6557018,15.5561404 C31.6014912,15.5484211 31.555,15.5328947 31.5085965,15.5096491 C31.4621053,15.4941228 31.4157018,15.4709649 31.3684211,15.44 C31.3304386,15.4090351 31.2917544,15.3780702 31.2530702,15.3471053 C31.1128947,15.2 31.0285088,14.9986842 31.0285088,14.7972807 C31.0285088,14.5959649 31.1128947,14.3946491 31.2530702,14.2474561 L31.3684211,14.1545614 C31.4157018,14.1235965 31.4621053,14.1003509 31.5085965,14.0849123 C31.5550877,14.0616667 31.6014912,14.0462281 31.6557018,14.0384211 C31.9035088,13.9842105 32.1737719,14.069386 32.3526316,14.2474561 C32.3835965,14.2861404 32.4145614,14.3249123 32.4455263,14.3713158 C32.4764912,14.41 32.4989474,14.4564912 32.5151754,14.5029825 C32.5384211,14.5494737 32.5538596,14.5958772 32.5608772,14.6500877 C32.569386,14.6965789 32.5771053,14.7507895 32.5771053,14.797193 C32.5771053,14.8435965 32.569386,14.8978947 32.5608772,14.9521053 C32.5539474,14.9985965 32.5384211,15.045 32.5151754,15.0914912 C32.4989474,15.1379825 32.4764912,15.184386 32.4455263,15.2308772 C32.4145614,15.2695614 32.3835965,15.3083333 32.3526316,15.3470175 C32.3139474,15.3779825 32.274386,15.4089474 32.2364912,15.4399123 C32.19,15.4708772 32.142807,15.4941228 32.0971053,15.5095614 C32.0499123,15.532807 32.0042105,15.5482456 31.9492105,15.5560526 C31.9034211,15.5639474 31.8492105,15.5716667 31.802807,15.5716667" id="Shape"></path>
                <path d="M31.802807,6.27947368 L20.1875439,6.27947368 C19.7592982,6.27947368 19.4131579,5.93254386 19.4131579,5.50508772 C19.4131579,5.07763158 19.7592982,4.73070175 20.1875439,4.73070175 L31.802807,4.73070175 C32.2310526,4.73070175 32.577193,5.07763158 32.577193,5.50508772 C32.577193,5.93254386 32.2309649,6.27947368 31.802807,6.27947368" id="Shape"></path>
                <path d="M31.802807,10.925614 L24.0592982,10.925614 C23.6310526,10.925614 23.2849123,10.5786842 23.2849123,10.1512281 C23.2849123,9.72377193 23.6310526,9.37684211 24.0592982,9.37684211 L31.802807,9.37684211 C32.2310526,9.37684211 32.577193,9.72377193 32.577193,10.1512281 C32.577193,10.5786842 32.2309649,10.925614 31.802807,10.925614" id="Shape"></path>
                <path d="M17.8644737,10.925614 L16.3157895,10.925614 C15.8875439,10.925614 15.5414035,10.5786842 15.5414035,10.1512281 C15.5414035,9.72377193 15.8875439,9.37684211 16.3157895,9.37684211 L17.8644737,9.37684211 C18.2927193,9.37684211 18.6388596,9.72377193 18.6388596,10.1512281 C18.6388596,10.5786842 18.2927193,10.925614 17.8644737,10.925614" id="Shape"></path>
                <path d="M27.9310526,1.63342105 L16.3157895,1.63342105 C15.8875439,1.63342105 15.5414035,1.28649123 15.5414035,0.859035088 C15.5414035,0.431578947 15.8875439,0.0846491228 16.3157895,0.0846491228 L27.9310526,0.0846491228 C28.3592982,0.0846491228 28.7054386,0.431578947 28.7054386,0.859035088 C28.7054386,1.28649123 28.3592105,1.63342105 27.9310526,1.63342105" id="Shape"></path>
                <path d="M31.802807,1.63342105 C31.755614,1.63342105 31.7021053,1.62570175 31.6557018,1.61789474 C31.6014912,1.61017544 31.555,1.59464912 31.5085965,1.57140351 C31.4621053,1.55587719 31.4157018,1.5327193 31.3684211,1.50175439 C31.3304386,1.47078947 31.2917544,1.43982456 31.2530702,1.40885965 C31.1128947,1.26175439 31.0285088,1.0604386 31.0285088,0.859035088 C31.0285088,0.657719298 31.1128947,0.456403509 31.2530702,0.309210526 L31.3684211,0.216315789 C31.4157018,0.185350877 31.4621053,0.162105263 31.5085965,0.146666667 C31.5550877,0.123421053 31.6014912,0.107982456 31.6557018,0.100175439 C31.9035088,0.0459649123 32.1737719,0.131140351 32.3526316,0.309210526 C32.3835965,0.347894737 32.4145614,0.386666667 32.4455263,0.433070175 C32.4764912,0.471754386 32.4989474,0.518245614 32.5151754,0.564736842 C32.5384211,0.61122807 32.5538596,0.657631579 32.5608772,0.711842105 C32.569386,0.758333333 32.5771053,0.81254386 32.5771053,0.858947368 C32.5771053,0.905350877 32.569386,0.959649123 32.5608772,1.01385965 C32.5539474,1.06035088 32.5384211,1.10675439 32.5151754,1.15324561 C32.4989474,1.19973684 32.4764912,1.24614035 32.4455263,1.29263158 C32.4145614,1.33131579 32.3835965,1.37008772 32.3526316,1.40877193 C32.3139474,1.43973684 32.274386,1.47070175 32.2364912,1.50166667 C32.19,1.53263158 32.142807,1.55587719 32.0971053,1.57131579 C32.0499123,1.5945614 32.0042105,1.61 31.9492105,1.61780702 C31.9034211,1.62561404 31.8492105,1.63342105 31.802807,1.63342105" id="Shape"></path>
                <path d="M17.0901754,6.27947368 C16.8888596,6.27947368 16.6867544,6.19429825 16.5403509,6.05491228 C16.4707018,5.97745614 16.4164912,5.8922807 16.3777193,5.79938596 C16.3389474,5.70649123 16.3157895,5.60578947 16.3157895,5.50517544 C16.3157895,5.40447368 16.3390351,5.30385965 16.3777193,5.21096491 C16.4164035,5.11807018 16.470614,5.03289474 16.5403509,4.9554386 C16.7184211,4.77736842 16.9894737,4.69991228 17.2364912,4.74640351 C17.2914912,4.75412281 17.337193,4.76964912 17.384386,4.79289474 C17.4300877,4.80842105 17.4772807,4.83157895 17.5160526,4.86254386 C17.5617544,4.89350877 17.6012281,4.92447368 17.632193,4.9554386 C17.7096491,5.03289474 17.7638596,5.11807018 17.8025439,5.21096491 C17.8412281,5.30385965 17.8644737,5.4045614 17.8644737,5.50517544 C17.8644737,5.60587719 17.8412281,5.70649123 17.8025439,5.79938596 C17.7638596,5.8922807 17.7096491,5.97745614 17.632193,6.05491228 C17.6012281,6.08587719 17.5617544,6.11684211 17.5160526,6.14780702 C17.4773684,6.17877193 17.4300877,6.20201754 17.384386,6.21745614 C17.337193,6.24070175 17.2914912,6.25614035 17.2364912,6.26394737 C17.1907895,6.27175439 17.1365789,6.27947368 17.0901754,6.27947368" id="Shape"></path>
                <path d="M20.9619298,10.925614 C20.7521053,10.925614 20.5585088,10.8404386 20.4121053,10.7010526 C20.2719298,10.5539474 20.1875439,10.3526316 20.1875439,10.1512281 C20.1875439,9.94991228 20.2719298,9.74859649 20.4121053,9.60140351 C20.6985965,9.31491228 21.2251754,9.31491228 21.5116667,9.60140351 C21.6510526,9.74850877 21.7362281,9.94982456 21.7362281,10.1512281 C21.7362281,10.2054386 21.7285088,10.2519298 21.72,10.3061404 C21.7130702,10.3526316 21.6975439,10.3990351 21.6742982,10.4455263 C21.6580702,10.4920175 21.635614,10.5384211 21.6046491,10.5849123 C21.5736842,10.6235965 21.5427193,10.6623684 21.5117544,10.7010526 C21.3645614,10.8404386 21.1709649,10.925614 20.9619298,10.925614" id="Shape"></path>
            </g>
            <polygon id="Shape" fill="#ECBA16" points="6.96912281 13.9957895 17.81 13.9957895 17.81 3.15491228 6.96912281 3.15491228"></polygon>
        </g>
    </g>
</svg>