<?xml version="1.0" encoding="UTF-8"?>
<svg width="74px" height="73px" viewBox="0 0 74 73" version="1.1" xmlns="http://www.w3.org/2000/svg" xmlns:xlink="http://www.w3.org/1999/xlink">
    <!-- Generator: Sketch 51.3 (57544) - http://www.bohemiancoding.com/sketch -->
    <title>build-tools/npm</title>
    <desc>Created with Sketch.</desc>
    <defs>
        <rect id="path-1" x="0" y="0" width="69" height="69" rx="14"></rect>
    </defs>
    <g id="build-tools/npm" stroke="none" stroke-width="1" fill="none" fill-rule="evenodd">
        <g id="container" transform="translate(2.000000, 2.000000)">
            <mask id="mask-2" fill="white">
                <use xlink:href="#path-1"></use>
            </mask>
            <rect stroke="#5B0403" stroke-width="2" x="-1" y="-1" width="71" height="71" rx="14"></rect>
            <g id="Npm-logo" mask="url(#mask-2)" fill-rule="nonzero">
                <g transform="translate(10.000000, 25.000000)" id="Shape">
                    <path d="M0,0 L50,0 L50,16.6666667 L25,16.6666667 L25,19.4444444 L13.8888889,19.4444444 L13.8888889,16.6666667 L0,16.6666667 L0,0 Z M2.77777778,13.8888889 L8.33333333,13.8888889 L8.33333333,5.55555556 L11.1111111,5.55555556 L11.1111111,13.8888889 L13.8888889,13.8888889 L13.8888889,2.77777778 L2.77777778,2.77777778 L2.77777778,13.8888889 Z M16.6666667,2.77777778 L16.6666667,16.6666667 L22.2222222,16.6666667 L22.2222222,13.8888889 L27.7777778,13.8888889 L27.7777778,2.77777778 L16.6666667,2.77777778 Z M22.2222222,5.55555556 L25,5.55555556 L25,11.1111111 L22.2222222,11.1111111 L22.2222222,5.55555556 Z M30.5555556,2.77777778 L30.5555556,13.8888889 L36.1111111,13.8888889 L36.1111111,5.55555556 L38.8888889,5.55555556 L38.8888889,13.8888889 L41.6666667,13.8888889 L41.6666667,5.55555556 L44.4444444,5.55555556 L44.4444444,13.8888889 L47.2222222,13.8888889 L47.2222222,2.77777778 L30.5555556,2.77777778 Z" fill="#CB3837"></path>
                    <polygon fill="#FFFFFF" points="2.77777778 13.8888889 8.33333333 13.8888889 8.33333333 5.55555556 11.1111111 5.55555556 11.1111111 13.8888889 13.8888889 13.8888889 13.8888889 2.77777778 2.77777778 2.77777778"></polygon>
                    <path d="M16.6666667,2.77777778 L16.6666667,16.6666667 L22.2222222,16.6666667 L22.2222222,13.8888889 L27.7777778,13.8888889 L27.7777778,2.77777778 L16.6666667,2.77777778 Z M25,11.1111111 L22.2222222,11.1111111 L22.2222222,5.55555556 L25,5.55555556 L25,11.1111111 Z" fill="#FFFFFF"></path>
                    <polygon fill="#FFFFFF" points="30.5555556 2.77777778 30.5555556 13.8888889 36.1111111 13.8888889 36.1111111 5.55555556 38.8888889 5.55555556 38.8888889 13.8888889 41.6666667 13.8888889 41.6666667 5.55555556 44.4444444 5.55555556 44.4444444 13.8888889 47.2222222 13.8888889 47.2222222 2.77777778"></polygon>
                </g>
            </g>
        </g>
    </g>
</svg>