<?xml version="1.0" encoding="UTF-8"?>
<svg width="73px" height="73px" viewBox="0 0 73 73" version="1.1" xmlns="http://www.w3.org/2000/svg" xmlns:xlink="http://www.w3.org/1999/xlink">
    <!-- Generator: Sketch 51.3 (57544) - http://www.bohemiancoding.com/sketch -->
    <title>build-tools/package-managers</title>
    <desc>Created with Sketch.</desc>
    <defs></defs>
    <g id="build-tools/package-managers" stroke="none" stroke-width="1" fill="none" fill-rule="evenodd">
        <g id="container" transform="translate(2.000000, 2.000000)" fill="#FFFFFF" fill-rule="nonzero" stroke="#5B5D6E" stroke-width="2">
            <rect id="mask" x="-1" y="-1" width="71" height="71" rx="14"></rect>
        </g>
        <g id="packing" transform="translate(14.000000, 15.000000)" fill-rule="nonzero">
            <path d="M24.8276074,18.6418652 L7.75863281,18.6418652 C7.33016602,18.6418652 6.98273437,18.9892969 6.98273437,19.4177637 L6.98273437,36.4867383 C6.98273437,36.9152051 7.33016602,37.2626367 7.75863281,37.2626367 L24.8276074,37.2626367 C25.2560742,37.2626367 25.6035059,36.9152051 25.6035059,36.4867383 L25.6035059,19.4177637 C25.603418,18.9892969 25.2560742,18.6418652 24.8276074,18.6418652 Z" id="Shape" fill="#EBD2AF"></path>
            <rect id="Rectangle-path" fill="#DEC3A1" x="9.3103418" y="20.9694727" width="13.9655566" height="13.9655566"></rect>
            <g id="Group" transform="translate(9.228516, 23.291016)" fill="#D2B493">
                <rect id="Rectangle-path" x="0.0818261719" y="0.00606445313" width="13.9655566" height="1.55170898"></rect>
                <rect id="Rectangle-path" x="0.0818261719" y="7.76469727" width="13.9655566" height="1.55170898"></rect>
                <rect id="Rectangle-path" x="0.0818261719" y="3.88538086" width="13.9655566" height="1.55170898"></rect>
            </g>
            <path d="M25.603418,17.8660547 L25.603418,0.797080078 C25.603418,0.368613281 25.2559863,0.0211816406 24.8275195,0.0211816406 L7.75863281,0.0211816406 C7.33016602,0.0211816406 6.98273437,0.368613281 6.98273437,0.797080078 L6.98273437,17.8660547 C6.98273437,18.2945215 7.33016602,18.6419531 7.75863281,18.6419531 L24.8276074,18.6419531 C25.2560742,18.6418652 25.603418,18.2945215 25.603418,17.8660547 Z" id="Shape" fill="#F0DCBE"></path>
            <rect id="Rectangle-path" fill="#EBD2AF" x="9.3103418" y="2.34878906" width="13.9655566" height="13.9655566"></rect>
            <g id="Group" transform="translate(11.601562, 2.285156)" fill="#D2B493">
                <rect id="Rectangle-path" x="7.79501953" y="0.0636328125" width="1.55170898" height="13.9655566"></rect>
                <rect id="Rectangle-path" x="0.0363867187" y="0.0636328125" width="1.55170898" height="13.9655566"></rect>
                <rect id="Rectangle-path" x="3.91570312" y="0.0636328125" width="1.55170898" height="13.9655566"></rect>
            </g>
            <circle id="Oval" fill="#5B5D6E" cx="41.5086328" cy="40.7540039" r="1.9396582"></circle>
            <path d="M41.5086328,41.3843555 C41.119541,41.3843555 40.7845898,41.1096973 40.7082129,40.7281641 L40.1702344,38.0384473 L42.8469434,38.0384473 L42.3089648,40.7281641 C42.2326758,41.1096973 41.8977246,41.3843555 41.5086328,41.3843555 Z" id="Shape" fill="#C7CFE2"></path>
            <path d="M44.2241016,38.8143457 L4.65521484,38.8143457 C4.22639648,38.8143457 3.87931641,38.4673535 3.87931641,38.0384473 L3.87931641,10.6173633 C3.87931641,9.99527344 3.63682617,9.41044922 3.19746094,8.9709082 L0.227285156,6.00082031 C-0.0757617187,5.69777344 -0.0757617187,5.20681641 0.227285156,4.90376953 C0.530332031,4.60072266 1.02128906,4.60072266 1.32433594,4.90376953 L4.29442383,7.87385742 C5.02716797,8.60642578 5.4309375,9.58086914 5.4309375,10.6173633 L5.4309375,37.2626367 L44.2240137,37.2626367 C44.652832,37.2626367 44.9999121,37.6096289 44.9999121,38.0385352 C45,38.4673535 44.6530078,38.8143457 44.2241016,38.8143457 Z" id="Shape" fill="#A2AAC2"></path>
            <circle id="Oval" fill="#5B5D6E" cx="3.87931641" cy="38.8143457" r="3.87931641"></circle>
            <g id="Group" transform="translate(0.000000, 4.658203)" fill="#FF6464">
                <circle id="Oval" cx="3.87931641" cy="34.1561426" r="2.32760742"></circle>
                <path d="M3.10341797,3.89750977 C2.90487305,3.89750977 2.70632812,3.82174805 2.55489258,3.67022461 L0.227285156,1.34261719 C-0.0757617187,1.03957031 -0.0757617187,0.548613281 0.227285156,0.245566406 C0.530332031,-0.0574804687 1.02128906,-0.0574804687 1.32433594,0.245566406 L3.65194336,2.57317383 C3.95499023,2.8762207 3.95499023,3.36726562 3.65194336,3.6703125 C3.50050781,3.82174805 3.30196289,3.89750977 3.10341797,3.89750977 Z" id="Shape"></path>
            </g>
            <path d="M38.0172656,36.4867383 L38.0172656,11.6591309 C38.0172656,11.2306641 37.669834,10.8832324 37.2413672,10.8832324 L26.3793164,10.8832324 C25.9508496,10.8832324 25.603418,11.2306641 25.603418,11.6591309 L25.603418,36.4867383 C25.603418,36.9152051 25.9508496,37.2626367 26.3793164,37.2626367 L37.2413672,37.2626367 C37.669834,37.2626367 38.0172656,36.9152051 38.0172656,36.4867383 Z" id="Shape" fill="#F0DCBE"></path>
            <rect id="Rectangle-path" fill="#EBD2AF" x="27.9310254" y="13.2108398" width="7.75863281" height="21.7241016"></rect>
            <g id="Group" transform="translate(27.861328, 15.468750)" fill="#D2B493">
                <rect id="Rectangle-path" x="0.0696972656" y="0.0696972656" width="7.75863281" height="1.55170898"></rect>
                <rect id="Rectangle-path" x="0.0696972656" y="3.94901367" width="7.75863281" height="1.55170898"></rect>
                <rect id="Rectangle-path" x="0.0696972656" y="7.82833008" width="7.75863281" height="1.55170898"></rect>
                <rect id="Rectangle-path" x="0.0696972656" y="11.7076465" width="7.75863281" height="1.55170898"></rect>
                <rect id="Rectangle-path" x="0.0696972656" y="15.5869629" width="7.75863281" height="1.55170898"></rect>
            </g>
            <circle id="Oval" fill="#D2555A" cx="3.87931641" cy="38.8143457" r="1"></circle>
        </g>
    </g>
</svg>