<?xml version="1.0" encoding="UTF-8"?>
<svg width="73px" height="73px" viewBox="0 0 73 73" version="1.1" xmlns="http://www.w3.org/2000/svg" xmlns:xlink="http://www.w3.org/1999/xlink">
    <!-- Generator: Sketch 51.3 (57544) - http://www.bohemiancoding.com/sketch -->
    <title>build-tools/pika</title>
    <desc>Created with Sketch.</desc>
    <defs>
        <polygon id="path-1" points="0 47.5 47.5 47.5 47.5 0 0 0"></polygon>
    </defs>
    <g id="build-tools/pika" stroke="none" stroke-width="1" fill="none" fill-rule="evenodd">
        <g id="container" transform="translate(2.000000, 2.000000)" fill="#FFFFFF" fill-rule="nonzero" stroke="#0D2D4E" stroke-width="2">
            <rect id="mask" x="-1" y="-1" width="71" height="71" rx="14"></rect>
        </g>
        <g id="logo5" transform="translate(13.000000, 13.000000)">
            <g id="g10" transform="translate(23.750000, 23.750000) scale(-1, 1) rotate(-180.000000) translate(-23.750000, -23.750000) ">
                <g id="g12">
                    <g id="g14-Clipped">
                        <mask id="mask-2" fill="white">
                            <use xlink:href="#path-1"></use>
                        </mask>
                        <g id="path18"></g>
                        <g id="g14" mask="url(#mask-2)" fill-rule="nonzero">
                            <g id="g20" transform="translate(1.250000, 23.125000)" fill="#4DA7FF">
                                <path d="M21.25,11.25 C21.25,5.38125 16.49375,0.625 10.625,0.625 C4.75625,0.625 0,5.38125 0,11.25 C0,17.11875 4.75625,21.875 10.625,21.875 C16.49375,21.875 21.25,17.11875 21.25,11.25" id="path22"></path>
                            </g>
                            <g id="g24" transform="translate(25.000000, 23.125000)" fill="#4DA7FF">
                                <path d="M21.25,11.25 C21.25,5.38125 16.4925,0.625 10.625,0.625 C4.7575,0.625 0,5.38125 0,11.25 C0,17.11875 4.7575,21.875 10.625,21.875 C16.4925,21.875 21.25,17.11875 21.25,11.25" id="path26"></path>
                            </g>
                            <g id="g28" transform="translate(2.390125, 25.182500)" fill="#1A4876">
                                <path d="M16.25,13.75 C14.67,15.77625 12.21375,17.08375 9.44625,17.08375 C4.67875,17.08375 0.8125,13.2175 0.8125,8.45 C0.8125,4.98375 2.86125,2.00375 5.8075,0.63 C6.695,5.875 10.7875,11.47125 16.25,13.75" id="path30"></path>
                            </g>
                            <g id="g32" transform="translate(28.164125, 24.765625)" fill="#1A4876">
                                <path d="M7.5,17.5 C4.7325,17.5 2.275,16.1925 0.69625,14.16625 C6.1575,11.8875 10.25,6.29125 11.1375,1.04625 C14.085,2.42 16.1325,5.40125 16.1325,8.8675 C16.1325,13.63375 12.26625,17.5 7.5,17.5" id="path34"></path>
                            </g>
                            <g id="g36" transform="translate(2.500000, 0.509000)" fill="#B6E9FF">
                                <path d="M41.25,17.5 C38.75,30.05625 27.08375,25.625 21.25,25.625 C15.41625,25.625 3.75,30.05625 1.25,17.5 C-0.36875,9.37 5.9925,5.15125 12.54,3.26625 C14.6025,1.72625 17.7375,0.74125 21.25,0.74125 C24.76375,0.74125 27.8975,1.72625 29.96125,3.2675 C36.5075,5.1525 42.86875,9.37 41.25,17.5" id="path38"></path>
                            </g>
                            <g id="g40" transform="translate(6.999500, 13.750000)" fill="#4DA7FF">
                                <path d="M32.5,10 C32.5,-3.75 25.44875,2.5 16.75,2.5 C8.05125,2.5 1,-3.75 1,10 C1,17.24875 8.05125,26.25 16.75,26.25 C25.44875,26.25 32.5,17.24875 32.5,10" id="path42"></path>
                            </g>
                            <g id="g44" transform="translate(19.881625, 6.304875)" fill="#FF3860">
                                <path d="M7.5,5 C7.5,2.995 4.985,0.81 3.86875,0.81 C2.75125,0.81 0.23625,2.995 0.23625,5 C0.23625,7.00625 2.47125,7.445 3.86875,7.445 C5.265,7.445 7.5,7.00625 7.5,5" id="path46"></path>
                            </g>
                            <g id="g48" transform="translate(28.143250, 2.121625)" fill="#1458AB">
                                <path d="M17.5,6.25 C10.94375,10.1825 2.05625,8.96875 1.68,8.91625 C1.6625,8.91375 1.65,8.9025 1.63375,8.9 C1.5325,8.88125 1.44125,8.84 1.34875,8.79875 C1.29125,8.7725 1.2325,8.755 1.18125,8.7225 C1.10625,8.6725 1.0475,8.6075 0.98375,8.5425 C0.9325,8.49125 0.87875,8.4475 0.8375,8.38875 C0.7925,8.32375 0.7675,8.25 0.735,8.17625 C0.70125,8.09875 0.6625,8.025 0.64625,7.94 C0.64125,7.92 0.6275,7.90375 0.62375,7.88375 C0.6125,7.815 0.63125,7.75125 0.63125,7.68375 C0.63,7.62375 0.61125,7.56625 0.62,7.5025 C0.6225,7.4825 0.635,7.46875 0.63875,7.45 C0.65375,7.36375 0.69,7.2875 0.7225,7.20875 C0.75375,7.13375 0.7775,7.0575 0.82125,6.9925 C0.8575,6.9375 0.90625,6.8975 0.94875,6.84875 C1.015,6.77625 1.0775,6.705 1.15875,6.65 C1.20625,6.6175 1.2625,6.59875 1.315,6.57375 C1.4075,6.52875 1.4975,6.485 1.6,6.465 C1.61875,6.46125 1.63375,6.44875 1.65125,6.445 C1.72125,6.4325 8.69625,5.225 12.1075,0.67875 C12.3525,0.35 12.7275,0.17875 13.1075,0.17875 C13.36875,0.17875 13.63125,0.26 13.85625,0.42875 C14.40875,0.8425 14.52125,1.62625 14.10625,2.1775 C12.72125,4.02625 10.89,5.38625 9.075,6.38875 C11.425,6.08625 14.0025,5.43375 16.21375,4.10625 C16.415,3.985 16.6375,3.92875 16.855,3.92875 C17.28,3.92875 17.69375,4.14375 17.92875,4.535 C18.28375,5.1275 18.0925,5.895 17.5,6.25" id="path50"></path>
                            </g>
                            <g id="g52" transform="translate(1.036375, 1.616250)" fill="#1458AB">
                                <path d="M17.5,7.5 C17.5425,7.565 17.56625,7.63875 17.59625,7.71125 C17.63,7.79125 17.665,7.86625 17.68125,7.9525 C17.685,7.9725 17.6975,7.98875 17.70125,8.0075 C17.71,8.07375 17.69,8.13625 17.69,8.20125 C17.68875,8.26375 17.7075,8.325 17.69625,8.39 C17.6925,8.41 17.68,8.42375 17.67625,8.44375 C17.65625,8.53 17.61875,8.6075 17.5825,8.68625 C17.55125,8.7575 17.52625,8.83 17.4825,8.8925 C17.4425,8.95125 17.38875,8.995 17.33875,9.04625 C17.275,9.1125 17.215,9.17875 17.13875,9.22875 C17.0875,9.26 17.03,9.2775 16.975,9.3025 C16.88125,9.34625 16.79125,9.38625 16.6875,9.40375 C16.67,9.4075 16.6575,9.41875 16.64125,9.42125 C16.26375,9.47375 7.375,10.68875 0.82,6.755 C0.22875,6.4 0.03625,5.6325 0.39125,5.04 C0.62625,4.65 1.04,4.43375 1.465,4.43375 C1.68375,4.43375 1.905,4.49125 2.1075,4.61125 C4.3175,5.9375 6.895,6.59 9.24375,6.89375 C7.42875,5.89125 5.59875,4.53125 4.21375,2.6825 C3.8,2.13125 3.91125,1.3475 4.46375,0.93375 C4.68875,0.765 4.95125,0.68375 5.2125,0.68375 C5.5925,0.68375 5.9675,0.85625 6.21375,1.18375 C9.61,5.71125 16.6,6.93875 16.67,6.95125 C16.68875,6.95375 16.7025,6.965 16.72,6.97 C16.81625,6.99 16.90125,7.03125 16.98875,7.0725 C17.04875,7.10125 17.11125,7.12125 17.165,7.16 C17.23875,7.21 17.295,7.275 17.35625,7.33875 C17.40625,7.3925 17.46,7.43875 17.5,7.5" id="path54"></path>
                            </g>
                            <g id="g56" transform="translate(13.750000, 16.250000)" fill="#272B2B">
                                <path d="M0,5 C0,5 0,7.5 2.5,7.5 C5,7.5 5,5 5,5 L5,2.5 C5,2.5 5,0 2.5,0 C0,0 0,2.5 0,2.5 L0,5 Z" id="path58"></path>
                            </g>
                            <g id="g60" transform="translate(28.750000, 16.250000)" fill="#272B2B">
                                <path d="M0,5 C0,5 0,7.5 2.5,7.5 C5,7.5 5,5 5,5 L5,2.5 C5,2.5 5,0 2.5,0 C0,0 0,2.5 0,2.5 L0,5 Z" id="path62"></path>
                            </g>
                        </g>
                    </g>
                </g>
            </g>
        </g>
    </g>
</svg>