<?xml version="1.0" encoding="UTF-8"?>
<svg width="73px" height="73px" viewBox="0 0 73 73" version="1.1" xmlns="http://www.w3.org/2000/svg" xmlns:xlink="http://www.w3.org/1999/xlink">
    <!-- Generator: Sketch 51.3 (57544) - http://www.bohemiancoding.com/sketch -->
    <title>build-tools/postcss</title>
    <desc>Created with Sketch.</desc>
    <defs></defs>
    <g id="build-tools/postcss" stroke="none" stroke-width="1" fill="none" fill-rule="evenodd">
        <g id="container" transform="translate(2.000000, 2.000000)" fill-rule="nonzero">
            <rect id="mask" stroke="#861E00" stroke-width="2" fill="#FFFFFF" x="-1" y="-1" width="71" height="71" rx="14"></rect>
            <g id="postcss" transform="translate(10.000000, 10.000000)">
                <path d="M9.57275104,20.2169908 C9.63844092,20.2665681 9.75246864,20.2987933 9.63844092,20.3967084 C9.55663843,20.5107361 9.45872332,20.6086512 9.39365315,20.7394113 C9.32858299,20.8540587 9.27962543,20.886284 9.18171033,20.8051012 C9.31185066,20.5925386 9.44199099,20.3960887 9.57213132,20.2163711 L9.57275104,20.2169908 Z M42.352622,37.331684 C42.352622,37.3800218 42.3687346,37.4122471 42.3687346,37.4618243 C42.4015795,37.3967542 42.4015795,37.3639092 42.4183119,37.331684 L42.352622,37.331684 Z M42.352622,37.4779369 L42.352622,37.4618243 L42.352622,37.4779369 Z M39.0259872,43.8467569 L36.1876885,28.1047344 C36.1393507,28.0892415 36.0742805,28.0570163 35.9596331,28.0241713 C35.992478,28.0892415 36.0092103,28.1381991 36.0253229,28.1871566 C36.105886,28.171044 36.1393507,28.171044 36.1715759,28.1549314 C36.1715759,28.1388188 36.1715759,28.1227062 36.1883082,28.1053541 L39.0266069,43.8486161 L39.0259872,43.8467569 Z M36.0903931,24.5611991 C36.0742805,24.6095369 36.0742805,24.6591142 36.0742805,24.7080717 C36.0742805,24.6584945 36.0742805,24.6089172 36.0916325,24.5605793 L36.0903931,24.5611991 Z M36.1065057,24.8871696 C36.0903931,24.8871696 36.0903931,24.8871696 36.0742805,24.8698176 L36.0742805,24.8859302 C36.0916325,24.9020428 36.0916325,24.9020428 36.1077451,24.8859302 L36.1065057,24.8871696 Z M36.0742805,25.0173099 L36.0742805,24.9026625 C36.0265624,24.9187751 35.9776048,24.9187751 35.9119149,24.9355074 C35.9937174,24.9664932 36.0755199,24.9838453 36.0755199,25.0160705 L36.0742805,25.0173099 Z" id="Shape" fill="#DD3735"></path>
                <path d="M48.7778361,21.0498889 C48.7456109,20.412821 48.7294983,19.7757531 48.6638084,19.1393049 C48.5497807,18.2735619 48.4357529,17.3917062 48.2399227,16.5426954 C48.0930501,15.8405573 47.8495017,15.1706445 47.6040942,14.5013514 C47.2942363,13.7174108 46.9843784,12.9173576 46.5927179,12.166262 C45.9568895,10.957816 45.1252308,9.8795104 44.3586422,8.75286694 C43.8517147,8.03399653 43.1997736,7.44650589 42.710198,6.71152287 C42.433185,6.2870175 42.025412,5.92820201 41.6176389,5.60223146 C40.9650781,5.07857155 40.2802921,4.60448891 39.5955061,4.14775832 C39.0737053,3.78832311 38.5519045,3.44562024 37.9966391,3.13514258 C37.5566409,2.88911538 37.0837976,2.69328517 36.627067,2.48072263 C36.1052663,2.23593486 35.5995781,1.94156982 35.0127072,1.8275421 C34.8652148,1.79655631 34.7350745,1.74697904 34.5882018,1.69740177 C34.2132737,1.56726143 33.8544582,1.42038877 33.4789104,1.30574134 C32.9087718,1.12602374 32.3541261,0.914080908 31.7666355,0.766588531 C31.1977363,0.61971587 30.6102457,0.522420478 30.022755,0.439998267 C29.3708139,0.343942308 28.7027602,0.309857935 28.0495797,0.2460272 C27.625694,0.196449931 27.2018084,0.148112093 26.7940353,0.13199948 C26.1743195,0.099774255 25.538491,0.099774255 24.9187751,0.0836616424 C24.6089172,0.0669293139 24.2829466,0.0340843728 23.9730887,0.0508167013 C23.5002455,0.0669293139 23.0274023,0.115886868 22.5539394,0.180957034 C22.0978285,0.230534304 21.6410979,0.311097367 21.2010996,0.377406965 C20.663806,0.442477131 20.1258926,0.475322072 19.5873595,0.541011954 C19.0816713,0.606701836 18.5598706,0.704616944 18.0548021,0.786419439 C17.8750845,0.81926438 17.6953669,0.884334546 17.5156493,0.916559771 C17.1252283,0.998362266 16.7174553,1.03120721 16.3257949,1.16196726 C15.6255159,1.37514951 14.9233779,1.620557 14.2385918,1.88083766 C13.6021436,2.14235776 12.9824278,2.41999047 12.3794442,2.74658073 C11.7597283,3.08866389 11.1722377,3.49643694 10.5853668,3.8893368 C10.0301014,4.26488462 9.47607536,4.65654505 8.93692256,5.08105042 C8.41636123,5.49006289 7.92678569,5.94679349 7.45332277,6.4041438 C7.1930421,6.66442446 6.98047956,6.97552183 6.73569179,7.26926715 C6.32853846,7.74334979 5.92076542,8.20008039 5.52910499,8.69027564 C5.20437387,9.09928812 4.90938912,9.52317377 4.59953119,9.94829886 C4.04612491,10.6981551 3.5732817,11.498828 3.13328344,12.2995009 C2.95356584,12.6260911 2.79058056,12.9526814 2.62759529,13.2786519 C2.38280752,13.7682275 2.12190714,14.2423101 1.8938517,14.748618 C1.73024671,15.0919406 1.60010638,15.4674884 1.50219127,15.8430362 C1.27475554,16.6437091 1.04608039,17.4604946 0.834137561,18.2599281 C0.638307346,18.9787985 0.589349792,19.7298941 0.573856895,20.4648772 C0.557124567,21.1180577 0.622194733,21.7551256 0.6872649,22.4083061 C0.703997228,22.5719111 0.606701836,22.7677413 0.80129262,22.8978817 C0.736222453,23.0775993 0.785180007,23.1767538 0.881855683,23.2077396 C0.769067394,23.3874572 0.931432952,23.5027244 0.866982502,23.6663293 C0.850250173,23.6985546 0.916559771,23.7636247 0.947545565,23.8125823 C0.947545565,23.8621596 0.932052668,23.9272297 0.947545565,23.9761873 C0.964897609,24.1230599 1.02996778,24.2699326 1.02996778,24.4335376 C1.02996778,24.5475653 1.12726317,24.6783254 1.16010811,24.7929728 C1.17622072,24.8413106 1.16010811,24.9231131 1.12726317,24.9559581 C1.02934806,25.0699858 1.04546067,25.1679009 1.19233333,25.2335908 C1.27475554,25.4455336 1.2419106,25.5434487 1.22579799,25.6426033 C1.25802322,25.7888562 1.20906566,25.8378138 1.22579799,25.8706587 C1.35593832,26.1321788 1.40551559,26.4259241 1.42100849,26.7196694 C1.42100849,26.7853593 1.45385343,26.8510492 1.48669837,26.932232 C1.50281098,26.932232 1.48669837,27.2420899 1.48669837,27.2420899 C1.56726143,27.1937521 1.63357103,27.1776395 1.71475381,27.1447945 C1.76433108,27.3567374 1.81266892,27.553807 1.87773909,27.7335246 C1.95954158,27.8636649 1.95954158,27.9281154 1.92731635,27.944228 C1.99238652,28.2379733 2.02461175,28.515606 2.13801975,28.7932387 C2.13801975,28.4833808 2.10703396,28.1735229 2.05745669,27.8791578 C2.28551213,27.9609603 2.48134234,28.0421431 2.61210239,28.0421431 C2.62883472,27.9925658 2.64494733,27.9281154 2.66167966,27.8952704 C2.56376455,27.7979751 2.48196206,27.6511024 2.38404695,27.5531873 C2.41689189,27.6833276 2.38404695,27.7329049 2.38404695,27.7824822 C2.31897678,27.7490175 2.23717429,27.7161726 2.15599151,27.6833276 C2.22106168,27.6027646 2.28613184,27.5203423 2.38404695,27.423047 C2.38404695,27.2755546 2.30348389,27.1441748 2.07418902,27.1609071 C2.17210412,27.1286819 2.27001923,27.0803441 2.38404695,27.0468794 C2.56376455,26.949584 2.36793434,26.7698664 2.36793434,26.5411913 C2.38404695,26.2641783 2.22106168,25.9865456 2.17210412,25.6921805 C2.09030163,25.2354499 2.10703396,24.5494245 2.0580764,24.0920742 C1.9601613,24.0102717 1.8783588,24.2222145 1.86224619,24.2389468 C1.91182346,24.6306072 1.9601613,25.0222677 1.99238652,25.4145478 C1.89509113,25.0879576 1.82940125,24.7285223 1.74821847,24.3362422 C1.73148614,24.4508896 1.71537353,24.4998472 1.71537353,24.5655371 C1.63481046,24.6461001 1.69926091,24.7452547 1.74821847,24.8592824 C1.63419075,24.8097051 1.5034307,24.8270572 1.5034307,24.8270572 L1.5034307,25.2844075 C1.34106514,25.1208025 1.2927273,24.9906622 1.21030509,24.875395 C1.17807987,24.7452547 1.16072782,24.6151143 1.12974203,24.484974 C1.16072782,24.4025518 1.12974203,24.3535942 1.12974203,24.3052564 C1.11238999,24.1899893 1.09627737,24.0598489 1.08016476,23.9123565 C1.09627737,23.8962439 1.06405215,23.6520759 1.06405215,23.6520759 C1.19419248,23.6675688 1.27661469,23.6830617 1.35779747,23.6830617 C1.1948122,23.4723583 1.3082202,23.3409785 1.3745298,23.2102185 C1.40737474,23.1445286 1.52140246,23.1296554 1.5542474,23.0627261 C1.68438773,22.8179383 1.89695028,22.6227278 1.89695028,22.3116305 C1.89695028,22.1647578 1.94652755,22.0017725 1.96202044,21.8542801 C1.99486538,21.5766474 2.02709061,21.2990147 2.04258351,21.021382 C2.07604816,20.6619468 2.04258351,20.3025116 2.12500572,19.9598087 C2.25638548,19.3896701 2.41937076,18.8176724 2.59846864,18.2456746 C2.72860897,17.8366622 2.87610135,17.4462412 3.03846691,17.0372287 C3.28325468,16.4001608 3.51192983,15.7630929 3.82178777,15.1594896 C4.26178604,14.2770142 4.76747419,13.4280035 5.25704972,12.5628801 C5.56690766,12.0237273 5.89287821,11.5174194 6.2362008,10.994999 C6.56155163,10.4886911 6.88690246,9.96627062 7.26306999,9.49218798 C7.78549047,8.82289484 8.35624879,8.20193954 8.99207727,7.64667412 C9.64463808,7.05918347 10.264354,6.4549605 10.9652526,5.91580769 C11.8774744,5.21181046 12.8405128,4.59209459 13.8667623,4.05294179 C14.6990407,3.61294352 15.5629246,3.2683815 16.4274283,2.94179123 C16.982074,2.72984841 17.5850575,2.6319333 18.1564356,2.4522157 C18.8083766,2.23965315 19.4609375,2.14235776 20.1457235,2.12562543 C20.5857218,2.1088931 21.0102271,2.05993555 21.4502254,2.010978 C21.8418858,1.9799922 22.2329265,1.94652755 22.6574319,1.89756999 C22.6078546,1.96264016 22.591742,1.9954851 22.5756294,2.02771033 C22.3971512,2.28923042 22.201321,2.55075052 22.0216034,2.8116509 C21.8747308,3.02421344 21.7117455,3.2528886 21.5648728,3.46483143 C21.3033527,3.80877374 21.02572,4.15147661 20.781552,4.51091182 C20.4066239,5.05006462 20.063921,5.60533004 19.6722606,6.14386313 C19.2818396,6.66628361 18.8573342,7.15647886 18.4495612,7.66216701 C17.9116478,8.36492481 17.4059596,9.0831755 16.8680463,9.78531358 C16.3784707,10.4546067 15.8579094,11.0929141 15.3844465,11.7622072 C14.9605608,12.3490781 14.585013,12.9706532 14.17724,13.5736367 C13.5742564,14.4722247 12.9706532,15.3534607 12.3676696,16.2520487 C11.8942067,16.9374544 11.4213635,17.6073673 10.9324077,18.2933928 C10.8995627,18.34297 10.8506052,18.3578432 10.8022673,18.3906881 C10.672127,18.602631 10.672127,18.7172784 10.6225497,18.8151935 C10.4924094,19.0599813 10.3622691,19.3047691 10.2147767,19.5340639 C10.1329742,19.6642043 10.0189465,19.778232 9.92103136,19.908992 C9.90491875,19.7131618 10.181312,19.6152467 10.0511717,19.3698392 C9.97060863,19.501219 9.88818642,19.6152467 9.80700364,19.7460068 L9.61117342,20.1364278 C9.67624359,20.186005 9.79089103,20.21885 9.67624359,20.3161454 C9.62666632,20.3985676 9.57832848,20.495863 9.52937093,20.5782852 C9.61117342,20.5287079 9.65951126,20.4803701 9.70908853,20.4146802 C9.70908853,20.5943978 9.61117342,20.7406507 9.52937093,20.8875234 C9.46430076,21.0176637 9.30131549,21.1168183 9.18728777,21.2141137 C9.20340038,21.230846 9.3174281,21.2798035 9.33416043,21.2959161 C9.48103309,21.2463389 9.52999064,21.1657758 9.54672297,21.2141137 C9.59630024,21.1490435 9.64463808,21.1000859 9.66075069,21.0511284 C9.72520114,20.8875234 9.82311625,20.7573831 9.98610152,20.6916932 C10.0517914,20.6588482 10.1001292,20.6098907 10.1490868,20.5615528 C10.6386623,20.0546253 11.1443505,19.5650497 11.5843488,19.0258969 C12.2697545,18.1923791 12.8894704,17.3278754 13.5426509,16.4788647 C13.8190442,16.1194295 14.1456344,15.7599943 14.43876,15.4166717 C14.4870979,15.7922195 14.4548727,16.151035 14.43876,16.4949773 C14.3891828,17.0985806 14.3569576,17.7034233 14.3086197,18.3231391 C14.2918874,18.5679269 14.3086197,18.8127147 14.2918874,19.0581221 C14.2918874,19.1231923 14.2423101,19.1721499 14.2423101,19.2378397 C14.2423101,19.400825 14.2918874,19.5805426 14.2918874,19.7441476 C14.2423101,20.3483706 14.1766202,20.9358612 14.1276627,21.5400842 C14.1109304,21.6702245 14.1760005,21.8016043 14.2082257,21.9162517 C14.1276627,22.7974877 14.3073803,23.7289207 14.1598879,24.6597339 C14.2739156,24.4800163 14.3067606,24.3659886 14.3067606,24.2519608 C14.3222535,24.1540457 14.3067606,24.0561306 14.3067606,23.9421029 L14.3067606,23.7784979 C14.3222535,23.4841329 14.3873236,23.1742749 14.3550984,22.8799099 C14.3222535,22.5533196 14.3222535,22.2434617 14.3879433,21.9329841 C14.4207883,21.8028437 14.3718307,21.6392387 14.4536332,21.4756337 L14.4536332,21.7204215 C14.4375206,22.6499953 14.4703656,23.5814283 14.3402252,24.5122415 C14.3234929,24.594044 14.3898025,24.7415364 14.2100849,24.7248041 C14.0625925,25.0185494 14.2423101,25.2311119 14.0799446,25.3940972 C14.0464799,25.4269421 14.1109304,25.5738148 14.1276627,25.6717299 C14.0619728,25.8681798 14.0619728,25.8681798 14.1598879,25.8842924 C14.1760005,26.2437277 14.2094652,26.5696982 14.2249581,26.9130208 C14.4852387,26.2933049 14.3550984,25.6549976 14.4703656,25.0179297 C14.4864782,25.2794498 14.5032105,25.5409699 14.4864782,25.8173631 C14.4864782,26.2431079 14.4703656,26.650881 14.4542529,27.0753863 C14.4542529,27.1571888 14.4375206,27.2389913 14.421408,27.3207938 C14.3718307,27.5500887 14.3563378,27.7781441 14.2745353,27.990087 C14.2094652,28.153692 14.2423101,28.3990994 14.2423101,28.5943099 L14.2423101,29.215885 C14.3073803,29.4935177 14.2255778,29.6403903 14.2745353,29.8033756 C14.2249581,29.9676003 14.2094652,30.0165579 14.2249581,30.0655154 L14.2745353,30.3103032 C14.6011256,30.2774582 14.4542529,30.5228657 14.5843933,30.6530061 C14.4864782,30.7843858 14.5193231,30.8327237 14.5193231,30.8990333 C14.5193231,31.0459059 14.5038302,31.176666 14.4870979,31.3235386 C14.4870979,31.6990865 14.4709853,32.0746343 14.4709853,32.4340695 C14.4709853,32.4836467 14.4870979,32.5313649 14.4870979,32.5803224 C14.4870979,32.6137871 14.4709853,33.0389122 14.4709853,33.0389122 C14.5038302,33.08725 14.4709853,33.1362076 14.421408,33.1851651 C14.4059151,33.1851651 14.3569576,31.1109761 14.3569576,31.1109761 L14.1121698,31.1109761 C14.0799446,32.0901272 14.1617471,32.9719828 13.9820295,33.8873032 C13.7861992,33.9027961 13.7217488,33.935641 13.5085665,33.935641 C13.0028784,33.935641 12.4971902,33.935641 11.9915021,33.9517536 C11.3878988,33.9517536 10.8016476,33.9678663 10.1974246,33.9678663 C9.90491875,33.9678663 9.59506081,34.0013309 9.30131549,34.0013309 C8.90965506,34.0013309 8.50188202,33.9517536 8.11146102,33.9517536 C7.50723805,33.9517536 6.92036712,34.0013309 6.31676386,34.0174435 C5.87676559,34.0335561 5.43676733,34.0335561 4.99676906,34.0502885 C4.70240402,34.0657814 4.40803898,34.0812743 4.11553309,34.1147389 C3.98539276,34.1308515 3.87074532,34.1798091 3.70776005,34.2287666 C3.65818278,34.2287666 3.54477477,34.212654 3.44747938,34.2287666 C3.28325468,34.2616116 3.13762145,34.358907 2.97339674,34.3923716 C2.72860897,34.4419489 2.66353881,34.5063993 2.69576403,34.7518068 L2.69576403,34.9147921 C2.67965142,34.9470173 3.05519924,34.8652148 3.05519924,34.8652148 C3.02173458,34.8652148 3.00562197,34.9631299 2.9560447,35.0449324 C3.08742446,34.9953552 3.16860724,34.9631299 3.25040974,34.9309047 C3.49519751,35.0455521 3.70714033,34.980482 3.90235083,35.0300593 C4.53817931,35.1924248 5.19012041,35.2593541 5.8420615,35.3231849 C6.26656687,35.3560298 6.67433992,35.3727621 7.09822557,35.388255 C7.70120911,35.4211 8.30481237,35.4539449 8.90779591,35.4539449 C9.41348406,35.4539449 9.9030596,35.4043676 10.4075083,35.4043676 C11.1077872,35.4043676 11.810545,35.4365929 12.5114437,35.4539449 C12.6583164,35.4539449 12.8213016,35.4365929 12.9842869,35.4365929 L14.1741414,35.4365929 C15.2350949,35.4043676 16.2948091,35.3870156 17.3551429,35.3560298 C17.9593659,35.3386778 18.5790818,35.3064525 19.1820653,35.2897202 L21.0412129,35.2401429 C21.7588439,35.2240303 22.4764749,35.2240303 23.1779932,35.2091571 C23.7159066,35.2091571 24.2377074,35.1905657 24.7768602,35.1750728 C25.379224,35.1589602 25.9989399,35.1100026 26.6025431,35.0777774 C26.9291334,35.061045 27.2557237,35.0282001 27.5816942,34.9959749 C27.9733546,34.9637497 28.3811277,34.9154118 28.7715487,34.8986795 C29.3590393,34.8652148 29.9626426,34.8491022 30.5501332,34.8162573 C31.2838768,34.7679194 32.0176204,34.7028493 32.7674766,34.6861169 C33.4528824,34.6538917 34.153781,34.6700043 34.8391868,34.6538917 C35.44279,34.6371594 36.0463933,34.6043144 36.6661091,34.5882018 L37.6948375,34.5386246 C37.6948375,34.5386246 38.3790038,34.522512 38.7217067,34.4890473 C39.3085776,34.4568221 39.8954485,34.3917519 40.4829392,34.3756393 C40.8572476,34.358907 41.2327954,34.3756393 41.6077235,34.358907 C42.210707,34.3427944 42.8304229,34.3093297 43.4340262,34.3093297 C43.6614619,34.3093297 43.9062497,34.3427944 44.199995,34.358907 C44.0698546,34.4735544 43.9880521,34.5386246 43.890137,34.6204271 C43.9552072,34.6365397 44.0202774,34.6700043 44.0859673,34.7022296 C43.9880521,34.7672997 43.9062497,34.7827926 43.8256866,34.7827926 C43.7922219,34.8652148 43.759377,34.8980598 43.7265321,35.0616648 L44.0202774,35.0616648 C43.9062497,35.0616648 43.8083345,35.2085374 43.6943068,35.3064525 C43.5641665,35.2729879 43.4495191,35.3064525 43.3844489,35.4861701 C43.4984766,35.5506206 43.482364,35.5995781 43.4662514,35.6658877 C43.2704212,35.7303382 43.1235485,35.7960281 43.2059707,36.0079709 C43.1396611,36.0401961 43.0584783,36.0730411 42.9766758,36.1219986 C42.8961128,36.2521389 42.7486204,36.2849839 42.7808456,36.4647015 C42.8465355,36.4801944 42.910986,36.5142788 42.9605632,36.5291519 C42.8787607,36.5619969 42.797578,36.6109544 42.7157755,36.6431797 C42.4226499,36.8228973 42.5534099,36.9046998 42.6184801,36.9865023 C42.5689028,37.0193472 42.520565,37.0515724 42.4716074,37.0683047 C42.5038326,37.2151774 42.5521705,37.2480223 42.5689028,37.2480223 C42.5038326,37.2963602 42.4220301,37.3620501 42.324115,37.4438526 C42.2745378,37.5907252 42.2094676,37.6557954 42.1443974,37.7537105 C42.0793273,37.8516256 42.0464823,37.9830054 41.9646798,38.0803008 C41.6225967,38.4564683 41.3778089,38.8983257 40.9378106,39.1914513 C40.7742056,39.3060988 40.6279527,39.4529714 40.48108,39.6004638 C40.1873347,39.8774768 39.9264343,40.1879544 39.6165764,40.4494745 C39.2094231,40.7921774 38.7861571,41.1020353 38.3449194,41.412513 C37.8076258,41.7880608 37.2697124,42.1636086 36.7311793,42.5230438 C36.437434,42.7182543 36.1114634,42.865127 35.8016055,43.0448446 C35.4917476,43.2245622 35.1980023,43.3881672 34.8881443,43.5672651 C34.6923141,43.6974054 34.5125965,43.877123 34.3006537,43.9762775 C33.7627403,44.2055724 33.1913623,44.4007829 32.6373363,44.6133455 C32.0981835,44.8426403 31.7077625,45.0378508 31.2999894,45.1847235 C30.9250613,45.3148638 30.5334009,45.4140184 30.1423602,45.4945814 C30.0122199,45.5280461 29.8647275,45.4945814 29.7178548,45.5113138 C29.4402221,45.560891 29.1632091,45.6265809 28.8855764,45.6588061 C28.1679454,45.7567212 27.4503144,45.8224111 26.7333032,45.9203262 C26.3087978,45.9699035 25.9010248,46.0504666 25.4771391,46.1000438 C25.1840135,46.1161564 24.8741556,46.0839312 24.5804103,46.0839312 C24.3684674,46.0839312 24.140412,46.1335085 23.9278494,46.1006635 C23.5857663,46.0510863 23.2430634,45.9705232 22.9003605,45.9048333 C22.8197975,45.8887207 22.7045303,45.8552561 22.6400799,45.8887207 C22.5099395,45.9544106 22.3946724,45.8564955 22.2639123,45.8887207 C22.1833493,45.905453 22.1015468,45.8391435 22.0197443,45.8391435 C21.9540544,45.8236506 21.8722519,45.8564955 21.7904494,45.8391435 C21.6107318,45.7908056 21.4483663,45.7257354 21.2512966,45.7418481 C21.0573255,45.7579607 20.8608756,45.6600456 20.6501722,45.6117077 C20.3558072,45.5460178 20.0800336,45.4815674 19.7850489,45.4152578 C19.6716409,45.3824129 19.5743455,45.3334553 19.459698,45.2683851 C19.0351927,45.2683851 18.7575599,45.2522725 18.4966596,45.1537377 C18.2686041,45.0731746 18.0566613,44.9585272 17.8118735,44.9913721 C17.7474231,45.0074848 17.6984655,44.9752595 17.6321559,44.9752595 C17.5825787,44.9095696 17.5348605,44.7788096 17.4865227,44.7788096 C17.1605521,44.7955419 16.9647219,44.5185289 16.6870892,44.4361067 C16.5408363,44.3865295 16.4268086,44.2235442 16.2799359,44.1745866 C15.9205007,44.027714 15.6279948,43.717856 15.2202218,43.6688985 C15.0900814,43.6521661 14.9599411,43.587096 14.8124487,43.5387581 C14.862026,43.6032086 14.8930118,43.6521661 14.9425891,43.7011237 C14.4697458,43.4718288 14.0297476,43.2115482 13.5891296,42.9661407 C13.5246791,42.9500281 13.4757216,42.8855776 13.426764,42.852113 L12.9867658,42.5583676 C12.741978,42.6079449 12.6440629,42.5087904 12.5777533,42.4765651 C12.137755,42.1667072 11.6326866,41.9702573 11.2081812,41.6275544 C11.0284636,41.480062 10.8177602,41.3821469 10.6876199,41.2024293 C10.458325,40.9247966 10.181312,40.7289664 9.87145409,40.5659811 C9.62728604,40.4358408 9.3992306,40.2883484 9.17117516,40.1414757 C9.05652772,40.0596733 8.94188028,39.9617581 8.94188028,39.7820405 C8.94188028,39.6673931 8.89354245,39.5527457 8.74666979,39.6184356 C8.68159962,39.5205204 8.61652945,39.4064927 8.53472696,39.3736478 C8.33889674,39.2930847 8.20875641,39.1443529 8.06188375,39.0142126 C7.91501109,38.8840722 7.80160308,38.7043546 7.62188548,38.6392845 C7.29529522,38.5091441 7.099465,38.2315114 6.9042545,38.0028363 C6.44690419,37.4636835 6.03913115,36.8749534 5.6152455,36.3048148 C5.58240055,36.2552375 5.51733039,36.2223926 5.46837283,36.173435 C5.533443,36.3531526 5.6152455,36.5000253 5.69642827,36.6630106 C5.53406272,36.5979404 5.420035,36.483293 5.32211989,36.3692652 C5.30538756,36.3859976 6.44690419,38.2637367 6.44690419,38.2637367 C6.54605873,38.4106093 6.62662179,38.5581017 6.7245369,38.7049744 C6.47974913,38.721087 6.31676386,38.5903269 6.23496137,38.4434543 C6.08870842,38.1831736 5.92510343,38.0195686 5.59913288,38.0530333 C5.56690766,37.9377661 5.53406272,37.8070061 5.51856982,37.6935981 C5.45226022,37.6935981 5.40392238,37.6935981 5.28927495,37.6768657 C5.51856982,38.0363009 5.71378032,38.3461589 5.92572315,38.7055941 C5.84330094,38.6560168 5.79558281,38.6237916 5.76149844,38.607679 C6.05462405,38.9175369 6.26656687,39.309817 6.64149498,39.506267 C6.72329747,39.8811951 7.14718313,40.0609127 7.24509823,40.4203479 C7.16453517,40.4036156 7.09760586,40.3875029 7.01580336,40.3707706 C6.88566303,40.2077853 6.73879037,40.0448001 6.59253742,39.8650825 C6.62476265,39.9791102 6.67310049,40.0770253 6.73879037,40.1588278 C6.93462058,40.4036156 7.11433818,40.6484033 7.34239362,40.8609659 C7.42419612,40.9440078 7.53822384,40.9768527 7.53822384,41.1237254 C7.66836417,41.1887956 7.71794144,41.2042885 7.76627928,41.2042885 C7.79974394,41.303443 7.75078638,41.4503157 7.94599688,41.4174707 C8.07613721,41.6622585 8.20627755,41.6622585 8.38599515,41.5810757 C8.59855769,41.7936383 8.71320513,41.8103706 8.85945807,41.6802302 C8.85945807,41.7607933 8.87557069,41.8425958 8.87557069,41.9082857 C8.94064085,41.8754407 8.92514796,41.8264832 8.92514796,41.7446807 C9.00571102,41.8097509 9.05528829,41.8425958 9.08751351,41.874821 C9.25049879,42.1041159 9.39737145,42.3160587 9.62542689,42.4957763 C9.93528482,42.7572964 10.2129175,43.0349291 10.5054234,43.2797169 C11.0768015,43.7537995 11.7138694,44.1460797 12.3490781,44.5048952 C13.132399,44.9461329 13.8828749,45.4195958 14.6816887,45.8434815 C15.6434877,46.350409 16.6709766,46.6937316 17.7306907,46.9385194 C18.1223512,47.0203219 18.4972793,47.1015047 18.8895594,47.1988001 C19.2304032,47.2979546 19.5737257,47.4448273 19.9164286,47.52601 C20.4382294,47.6406575 20.9761428,47.7385726 21.4979435,47.835868 C21.6113515,47.8526003 21.7272384,47.8693326 21.8573787,47.8854453 C22.003012,47.9182902 22.1821098,47.8526003 22.2149548,47.9021776 C22.2967573,48.0323179 22.3618274,47.966628 22.4597426,47.9505154 C22.5737703,47.9176705 22.7045303,47.9176705 22.8346707,47.9176705 C23.2914012,47.9337831 23.7313995,48.0316982 24.1881301,47.999473 C24.2872847,47.999473 24.4335376,47.9170508 24.5153401,48.080036 C24.661593,48.0149659 24.7433955,48.0149659 24.8084657,47.999473 C24.8258177,48.1457259 24.8084657,48.1457259 24.7774799,48.1618385 C24.7440152,48.1779511 24.6950577,48.1946835 24.6299875,48.243641 C25.2168585,48.3576687 25.7715042,48.3737814 26.2598403,48.243641 C27.108851,48.3087112 27.8425946,48.2107961 28.544113,47.9660083 C28.6091831,48.0478108 28.6581407,48.1618385 28.7560558,47.9988533 C28.788281,47.949276 28.8700835,47.9325437 28.9357734,47.916431 C29.0820263,47.8835861 29.2617439,47.8185159 29.3918843,47.8668538 C29.5393766,47.916431 29.5883342,47.7862907 29.7017422,47.7862907 C29.8981921,47.7862907 30.07729,47.7695584 30.2570076,47.7367134 C30.3549227,47.7206008 30.4528378,47.6716433 30.5668656,47.6387983 C30.4367252,47.5724887 30.3065849,47.5563761 30.2074304,47.5563761 C30.4038803,47.458461 30.5829782,47.3766585 30.7626958,47.2960955 C30.7298508,47.3444333 30.6970059,47.4095035 30.6325554,47.4095035 L30.8599912,47.4095035 C30.8104139,47.4095035 30.7453437,47.5563761 30.6641609,47.6542912 C31.2504122,47.5074186 31.7883255,47.3766585 32.310746,47.2452788 C32.1310284,46.9031956 32.5059565,47.017843 32.6367166,46.8213931 C32.4737313,46.8709704 32.310746,46.9193082 32.147141,46.9515334 C32.7017867,46.6745204 33.272545,46.4297327 33.826571,46.1849449 C33.746008,46.28286 33.6468534,46.3318176 33.5012202,46.4142398 C33.5991353,46.4297327 33.6642055,46.4297327 33.713163,46.4452256 C33.9734437,46.5276478 33.9089932,46.28286 33.990176,46.1353676 C34.300034,46.1353676 34.4301743,46.0870298 34.577047,46.0374525 C34.7400322,45.9878753 34.9030175,45.9395374 35.0666225,45.8744673 C35.3269032,45.7604395 35.5716909,45.6141866 35.8325913,45.4840463 C35.8821686,45.4666942 35.9627316,45.4840463 36.0284215,45.4840463 C36.2081391,45.3687791 36.2725896,45.270864 36.3215471,45.2869766 C36.550842,45.3198216 36.7119681,45.2373993 36.777658,45.0266959 C36.8916857,44.9442737 36.9734882,44.8792036 37.054671,44.8296263 C37.4128668,44.6337961 37.7549499,44.4379659 38.1143851,44.2421357 C38.2445255,44.2421357 38.3102153,44.2421357 38.3424406,44.2254033 C38.5556228,44.1262488 38.751453,44.0134605 38.9466635,43.8988131 C38.8970863,43.8827005 38.7836783,43.81825 38.7836783,43.81825 C38.9460438,43.7847853 38.9943817,43.7686727 39.0935362,43.7358278 C39.4839572,43.277238 40.02311,42.9673801 40.4302633,42.6079449 C40.6099809,42.5918323 40.6099809,42.5428747 40.6099809,42.5106495 C40.6744314,42.428847 40.7401213,42.3309319 40.8206843,42.265242 C41.1801195,41.9386518 41.5705405,41.6610191 41.8971308,41.3183162 C42.369974,40.8436138 42.8267046,40.3534186 43.2505903,39.8471107 C43.6410113,39.3897604 44.0339111,38.9330298 44.3598817,38.4267219 C44.8166123,37.7245839 45.207653,37.0057134 45.615426,36.2701107 C45.9091713,35.7483099 46.1700717,35.2258895 46.4644368,34.703469 C46.4954226,34.6538917 46.5617322,34.5888216 46.6106897,34.5888216 C47.050688,34.5392443 47.4919257,34.5082585 47.9158113,34.4586812 C48.0137264,34.4425686 48.1277542,34.3781182 48.2256693,34.3285409 C48.176092,34.2467384 48.1438668,34.1488233 48.0955289,34.0670208 C48.0298391,33.9678663 47.9319239,33.8873032 47.8662341,33.7881486 C47.8017836,33.7075856 47.7528261,33.608431 47.7038685,33.5111357 C47.6542912,33.4305726 47.6059534,33.3648827 47.5569958,33.2818408 C47.4578413,33.1021232 47.3605459,32.9224056 47.2781237,32.7278148 C47.2620111,32.6782375 47.2285464,32.5976745 47.2458985,32.5480972 C47.5396438,31.911649 47.6536715,31.2256235 47.9306845,30.5885556 C48.2076975,29.9353751 48.2901197,29.2003921 48.42026,28.498254 C48.5342878,27.8289608 48.5999777,27.1596677 48.6805407,26.4903746 C48.730118,26.0169116 48.7951881,25.5595613 48.810681,25.0860984 C48.9098356,24.3350028 48.8763709,23.632245 48.8602583,22.9294872 C48.8441457,22.3097713 48.810681,21.6727034 48.7796953,21.0517481 L48.7778361,21.0498889 Z M7.86109581,41.1522323 C7.74706809,41.022092 7.64915298,40.8745996 7.53512526,40.7444593 L7.58470253,40.694882 C7.76256098,40.8913319 7.94227859,41.0871622 8.12137647,41.2997247 C8.02346137,41.2501474 7.90943365,41.2179222 7.86109581,41.1522323 Z M8.12137647,41.2997247 C8.17095374,41.2829924 8.22053101,41.2829924 8.26886885,41.2668798 C8.31844612,41.3486823 8.35067134,41.4465974 8.39900918,41.5445125 C8.17095374,41.5277801 8.05692602,41.429865 8.12199619,41.2997247 L8.12137647,41.2997247 Z M25.0829998,48.0440925 L25.0829998,47.9945152 C25.3928578,47.96229 25.6859834,47.9294451 25.9958413,47.8972199 L25.9958413,47.944938 C25.6859834,47.9945152 25.3928578,48.025501 25.0829998,48.0428531 L25.0829998,48.0440925 Z M29.191716,47.6195871 C28.9642803,47.6691644 28.7194926,47.7020094 28.4914371,47.7348543 C28.4096346,47.7509669 28.3117195,47.8327694 28.2794943,47.685277 C28.2466493,47.7020094 28.2138044,47.7020094 28.1815792,47.7187417 C28.2621422,47.9629097 28.4585922,47.7670795 28.6215774,47.8649946 C28.2621422,47.9145719 27.9212985,47.9467971 27.5779759,47.995135 L27.5779759,47.9629097 C27.6771305,47.9467971 27.7905385,47.9300648 27.8878339,47.9133325 L27.8878339,47.8649946 C27.7254683,47.8482623 27.562483,47.8321497 27.3982583,47.8321497 C27.3505402,47.8321497 27.2848503,47.8978396 27.2358928,47.9139522 C27.1708226,47.9300648 27.1057524,47.9467971 27.0239499,47.9467971 C26.7469369,47.9629097 26.4699239,47.9629097 26.2084038,47.9790223 C26.1916715,47.9790223 26.1588266,47.9629097 26.142714,47.9629097 L26.142714,47.9133325 C27.235273,47.7670795 28.3117195,47.6202069 29.4042786,47.4733342 C29.4210109,47.5055594 29.4210109,47.5384044 29.4371235,47.5706296 C29.3392084,47.5706296 29.2741383,47.604714 29.1923358,47.6202069 L29.191716,47.6195871 Z M29.4371235,47.4572216 C29.8126713,47.4076443 30.1559939,47.3754191 30.5141897,47.3270813 C29.7643335,47.5390241 29.5195457,47.5712493 29.4377432,47.4572216 L29.4371235,47.4572216 Z M15.2326161,14.4852387 C15.7531774,13.7663683 16.2923302,13.0474979 16.814131,12.3131346 C16.9771163,12.0993326 17.1072566,11.8706575 17.2702419,11.6587147 C17.3198191,11.5930248 17.3848893,11.5607995 17.4660721,11.4951097 L17.4499595,11.4641239 C17.5150296,11.3817017 17.5800998,11.3153921 17.6129447,11.2509416 C17.6959867,11.1208013 17.7449442,10.9733089 17.8100144,10.8264362 C17.826127,10.7954505 17.8750845,10.7626055 17.8750845,10.7626055 C18.1043794,10.8766332 18.1043794,10.6324652 18.1849425,10.550043 C18.3318151,10.386438 18.4786878,10.2073401 18.6088281,10.0437351 C18.7067432,9.91359477 18.8046584,9.79894733 18.8864608,9.65207467 C18.9025735,9.6024974 18.8536159,9.52193434 18.8368836,9.45562474 L18.7885457,9.45562474 C18.838123,9.42339951 18.8864608,9.37506168 18.9354184,9.34159702 C18.951531,9.34159702 18.951531,9.34159702 18.9676436,9.32548441 C19.0655587,9.17799203 19.1634738,9.03111937 19.2613889,8.90035932 C19.4565994,8.64007866 19.6685423,8.37855856 19.8965977,8.15050312 C19.8643725,8.23106618 19.8315275,8.31348839 19.7986826,8.37855856 C19.8154149,8.37855856 19.8154149,8.39529089 19.8315275,8.39529089 C20.0273578,8.13377079 20.2393006,7.88898302 20.4351308,7.62684321 C20.4183985,7.61135031 20.4022859,7.59461798 20.3855535,7.59461798 C20.3049905,7.67642048 20.2393006,7.75822297 20.1574981,7.84002547 C20.1413855,7.82329314 20.1252729,7.80718053 20.1079208,7.80718053 C20.2721455,7.59461798 20.4351308,7.38267516 20.5974964,7.13788739 C20.6303413,7.18746466 20.6631862,7.25191511 20.7276367,7.38267516 C20.7939463,7.21968988 20.8590165,7.10566216 20.9073543,6.99101473 C20.8590165,7.040592 20.7939463,7.08892983 20.7449887,7.1385071 L20.6954115,7.08892983 L20.9891568,6.64893157 C21.2990147,6.20769387 21.6088727,5.75034356 21.9187306,5.30910586 C22.033378,5.14612058 22.1790113,5.01536053 22.2781658,4.85175554 C22.5880237,4.23203967 23.0775993,3.74122471 23.4519077,3.16984667 C23.5337102,3.05581895 23.6477379,2.95790385 23.745653,2.85998874 C23.826216,2.7608342 23.8925256,2.79429886 23.9575958,2.87610135 C24.3975941,3.43136677 24.8375923,4.0027448 25.2775906,4.55801022 C25.6048006,4.9670227 25.9307711,5.35744369 26.2406291,5.78256878 C26.6155572,6.30560897 26.9743727,6.82802945 27.3499205,7.35044993 C27.7738061,7.9546729 28.1976918,8.55889588 28.6054648,9.17861175 C29.2251807,10.0939321 29.8120516,11.0086327 30.4317675,11.9227136 C30.8884981,12.5920068 31.3452287,13.245807 31.785227,13.9151001 L30.9523288,13.9151001 C30.18636,13.8996072 29.4030392,13.8345371 28.6370703,13.8667623 C27.5934688,13.9163396 26.5337547,14.0303673 25.4901532,14.1121698 C24.1689189,14.2268172 22.8315721,14.2423101 21.5115773,14.2423101 C21.0374946,14.2423101 20.5646514,14.3086197 20.0924279,14.3414647 C19.5210499,14.3736899 18.9664042,14.4065348 18.3956459,14.4220277 C17.7263527,14.4554924 17.0756511,14.471605 16.4063579,14.4883373 C16.0308101,14.5044499 15.6397694,14.4883373 15.2319964,14.4883373 L15.2326161,14.4852387 Z M33.9375002,21.9961951 L33.9375002,22.1436875 C33.9213876,22.1436875 33.9052749,22.1604198 33.87243,22.1604198 C33.8073598,21.9311249 33.7422897,21.6857174 33.6604872,21.4570423 C33.4975019,20.9829596 33.3177843,20.508877 33.024039,20.0849913 C32.696829,19.6282607 32.4043231,19.1554175 32.0771131,18.6813349 C31.9965501,18.5666875 31.8812829,18.4687723 31.7833678,18.371477 C31.4406649,17.9953094 31.0979621,17.6030293 30.6579638,17.3260163 C30.005403,16.9170038 29.3367296,16.5743009 28.6190986,16.2799359 C28.4232684,16.1993728 28.2441705,16.1002183 28.04896,15.9861906 L28.439381,15.9861906 L31.2281024,15.9366133 C31.8317056,15.9211204 32.4191963,15.9211204 33.0221798,15.8882755 C33.1684328,15.8882755 33.2502353,15.9378527 33.3320378,16.0679931 C33.4782907,16.3127808 33.6251634,16.5575686 33.7881486,16.8029761 C33.804881,16.8352013 33.8377259,16.8835392 33.8377259,16.9331164 C33.8377259,17.2925516 33.8377259,17.6680994 33.8538385,18.0275347 C33.8693314,18.4030825 33.9034158,18.7625177 33.918289,19.1380655 C33.918289,19.5136133 33.885444,19.9052737 33.9021764,20.2969342 C33.9189087,20.8528193 33.9350213,21.424817 33.9350213,21.9949556 L33.9375002,21.9961951 Z M16.3896256,16.5278222 C17.1562141,16.4949773 17.889338,16.4460198 18.6404336,16.4131748 C19.2260651,16.3803299 19.8302881,16.3635975 20.4165393,16.3313723 C20.6613271,16.3158794 20.8900023,16.3003865 21.1341703,16.3313723 C20.8738896,16.4627521 20.6123695,16.5935121 20.3843141,16.7564974 C20.0905688,16.9523276 19.8141755,17.213228 19.5198105,17.4257905 C19.2254454,17.6377334 18.964545,17.8992535 18.720377,18.1768862 C18.4105191,18.5518143 18.0678162,18.8784045 17.7412259,19.2378397 C17.511931,19.4993598 17.2516504,19.7441476 17.0564399,20.0217803 C16.7794269,20.3812155 16.5346391,20.7716365 16.2737387,21.180649 C16.3555412,19.6288805 16.4534563,18.094464 16.3877665,16.5265828 L16.3896256,16.5278222 Z M27.0394428,32.2376195 C26.5170223,32.3677599 25.9797287,32.5152523 25.4405759,32.5803224 C24.984465,32.6460123 24.5110021,32.6298997 24.0381589,32.6298997 C23.6130338,32.6298997 23.2052607,32.6137871 22.7813751,32.5803224 C22.3085319,32.5319846 21.8356887,32.483027 21.3789581,32.2704645 C20.9866779,32.0907469 20.5795246,31.9277616 20.1891036,31.7313117 C19.7962037,31.5354815 19.405163,31.307426 19.110798,30.9479908 C18.9000946,30.685851 18.6057296,30.4739082 18.3448292,30.245233 C18.3944064,30.4410632 18.5078144,30.6046682 18.6875321,30.7186959 C18.6057296,30.8166111 18.4917018,30.7682732 18.3280968,30.5061334 C18.279759,30.5389783 18.2308015,30.5557107 18.1979565,30.5718233 C18.2475338,30.4571758 18.2958716,30.3425284 18.3448292,30.245233 C18.279759,30.1150927 18.1979565,29.9676003 18.1328863,29.8362205 C18.002746,29.6242777 17.8726057,29.3962223 17.7579582,29.1836597 C17.7251133,29.1340825 17.7251133,29.0857446 17.6928881,29.0367871 C17.6110856,28.938872 17.5292831,28.8403371 17.4635932,28.742422 C17.3334529,28.5472115 17.2194252,28.3352687 17.0564399,28.1388188 C17.0564399,28.188396 17.0731722,28.2367339 17.0731722,28.3024238 C17.0564399,28.3024238 17.0403273,28.3185364 17.0403273,28.3185364 L16.6970047,27.4856383 C16.6808921,27.4856383 16.6808921,27.4856383 16.6647795,27.5017509 L16.9579051,28.5800565 C16.9417924,28.5800565 16.9256798,28.5955494 16.9083278,28.5955494 C16.8606097,28.5310989 16.8116521,28.465409 16.7781875,28.384846 C16.7459622,28.2534662 16.6480471,28.2534662 16.5674841,28.3024238 C16.5179068,28.3352687 16.4850619,28.4492964 16.5017942,28.498254 C16.6164416,28.7758867 16.7465819,29.0535194 16.877342,29.3311521 C16.9095672,29.4290672 16.9424122,29.5108697 16.9913697,29.6087848 C17.008102,29.6416298 17.0570596,29.673855 17.0570596,29.7228125 C17.1227495,29.8529529 17.171707,29.9830932 17.2528898,30.0983604 C17.3997625,30.2941906 17.5627477,30.4900208 17.7096204,30.685851 C17.8552536,30.8816812 17.985394,31.0948635 18.116154,31.290074 C18.1322666,31.3229189 18.1812242,31.3229189 18.1967171,31.3396512 C18.2791393,31.584439 18.5561523,31.7635369 18.7519825,31.6656218 C18.8015598,32.0411696 19.2087131,32.1719297 19.3716984,32.5313649 C19.1758682,32.4495624 19.0296152,32.3844922 18.8988552,32.3188023 C18.8821228,32.3349149 18.8821228,32.3510275 18.8653905,32.3838725 C19.0612207,32.4817876 19.2570509,32.5797027 19.4355291,32.6937304 C19.5997538,32.792885 19.7627391,32.8901804 19.9096117,33.0035884 C20.105442,33.183306 20.3341171,33.2824605 20.6098907,33.3469109 C20.5950175,33.2973337 20.5789049,33.2806014 20.5789049,33.2806014 C21.0350158,33.4931639 21.5084787,33.7218391 21.8666745,33.9003172 C20.1705121,33.9337819 18.3603221,33.9666268 16.4844421,33.9994718 C16.4844421,33.6896138 16.4683295,33.3952488 16.4683295,33.0847711 C16.4683295,32.9546308 16.5005547,32.8399834 16.4838224,32.7092233 C16.4342451,31.9593671 16.4342451,31.2070321 16.3369498,30.472049 C16.2396544,29.6887282 16.2396544,28.9209002 16.2563867,28.1357202 C16.2718796,27.7124543 16.2396544,27.2718363 16.222922,26.8467112 C16.222922,26.2753332 16.222922,25.7188283 16.2402741,25.1486897 C16.2402741,25.0668872 16.273119,25.001817 16.305964,24.9193948 L16.3555412,24.9193948 C16.3710341,24.9528595 16.3555412,25.001817 16.386527,25.0185494 C16.4361043,25.0681266 16.5179068,25.1486897 16.5507517,25.1325771 C16.6480471,25.0668872 16.7949198,25.0024368 16.8277647,24.9032822 C16.9083278,24.7080717 16.9417924,24.4955092 16.9417924,24.299679 C16.9417924,24.153426 17.0074823,24.0555109 17.0719328,23.9569761 C17.1053974,23.9073988 17.12151,23.859061 17.154355,23.7939908 C17.0892848,23.7444135 17.0242147,23.7121883 16.9424122,23.6471182 C17.008102,23.4674006 16.9919894,23.254838 17.2367772,23.1575426 C17.2690024,23.1408103 17.2690024,23.0583881 17.2863545,23.0100502 C17.3018474,22.8780508 17.3173403,22.7311781 17.3346923,22.6010378 C17.3669175,22.650615 17.3842696,22.6661079 17.4152554,22.6983332 C17.4326074,22.6661079 17.44872,22.6487559 17.44872,22.6487559 C17.44872,22.5843054 17.4326074,22.4535454 17.44872,22.4535454 C17.6445502,22.4207005 17.5627477,22.2087576 17.6606629,22.1108425 C17.6761558,22.0934905 17.6439305,22.0445329 17.6439305,22.011688 C17.6439305,21.9794628 17.6439305,21.9311249 17.6600431,21.9311249 C17.8874789,21.8815476 17.8552536,21.6367599 18.0021263,21.5221124 C18.0517036,21.4892675 18.0671965,21.4415494 18.1322666,21.3591272 C18.262407,21.5871826 18.0343515,21.70183 18.0182389,21.8648153 C18.2946322,21.70183 18.3764347,21.3101696 18.2134494,21.1955222 C18.2785196,21.1459449 18.3435897,21.0814945 18.393167,21.0158046 C18.5728846,20.8199744 18.7674754,20.6402568 18.9310804,20.4444265 C19.0457278,20.2981736 19.110798,20.118456 19.2248257,19.9715833 C19.2905156,19.8897808 19.4206559,19.8247107 19.518571,19.7751334 C19.8123164,19.6127678 20.0887096,19.4330502 20.2684272,19.1554175 C20.3012722,19.1225726 20.3502297,19.0903474 20.3985676,19.0575024 C20.4481448,19.0246575 20.5460599,19.0246575 20.5621726,18.9756999 C20.5789049,18.9434747 20.5299473,18.8616722 20.4971024,18.8127147 C20.5615528,18.7798697 20.6272427,18.7147995 20.7573831,18.6491097 C20.7078058,18.7470248 20.6923129,18.8127147 20.6594679,18.8784045 L20.740031,18.9589676 C20.8875234,18.8449399 21.1155788,18.7147995 21.2624515,18.6168844 C21.2624515,18.6013915 21.180649,18.5363214 21.180649,18.5363214 C21.0833536,18.5858986 20.9364809,18.6664617 20.790228,18.7321516 C20.8212138,18.6825743 20.8212138,18.6503491 20.8398053,18.6342365 C21.067241,18.4873638 21.2952964,18.3404912 21.5400842,18.225224 C22.1102228,17.9649433 22.6816008,17.7034233 23.2523591,17.4586355 C23.3502743,17.4090582 23.481654,17.4425229 23.595062,17.4425229 C23.6433999,17.4425229 23.6756251,17.4425229 23.7252024,17.4264103 C23.985483,17.3446078 24.2470031,17.2628053 24.5079035,17.1971154 C24.6213115,17.1648902 24.7514518,17.1487775 24.8673387,17.1487775 C25.3550551,17.1642704 25.8446306,17.1642704 26.3335865,17.1971154 C26.5455293,17.213228 26.7413595,17.2621856 26.9371897,17.3272557 C27.1813578,17.4096779 27.4422581,17.5237056 27.6709333,17.6371137 C27.9479463,17.7858455 28.2088467,17.948211 28.4703668,18.1279286 C28.94321,18.4377866 29.3832082,18.7811091 29.8560515,19.0587419 C30.3127821,19.3363746 30.6715975,19.7119224 30.9653429,20.1370475 C31.3247781,20.6427356 31.7319314,21.1000859 31.8949167,21.7204215 L32.1390847,22.7987271 C32.188662,22.9945573 32.3026897,23.1903876 32.2537322,23.418443 C32.1713099,23.8274555 32.1062398,24.2519608 32.0411696,24.6603536 C32.0089444,24.8245783 31.9760994,24.988803 31.9928318,25.1499291 C32.0238176,25.6580962 31.8286071,26.0980944 31.6333966,26.5554447 C31.5677067,26.7023174 31.4697916,26.8498098 31.3886088,27.012795 C31.4047214,27.0289077 31.5026365,27.0784849 31.5187491,27.0784849 L31.6656218,26.7847396 C31.6823541,26.7847396 31.6823541,26.7847396 31.6984667,26.8014719 C31.6166642,27.0295274 31.5515941,27.2749349 31.4691719,27.50361 C31.2745811,28.0099179 31.0787509,28.5323384 30.8339631,29.0219139 C30.7038228,29.2995466 30.4745279,29.5282218 30.3121623,29.7903616 C30.1497968,30.018417 30.0190367,30.2632048 29.8560515,30.4757673 C29.7091788,30.6554849 29.5629258,30.8352025 29.3664759,30.9653429 C28.9264777,31.2919331 28.4697471,31.6185234 27.9969038,31.8800435 C27.7037782,32.0597611 27.3610754,32.1576762 27.0351048,32.2394787 L27.0394428,32.2376195 Z M18.3466883,31.3700173 L18.3305757,31.3867497 C18.2964913,31.370637 18.2475338,31.3545244 18.2153086,31.3216795 L17.8236481,30.7329494 C17.7914229,30.6846116 17.7740709,30.635654 17.7914229,30.5705839 C17.9711405,30.8482166 18.1508581,31.1097367 18.3460686,31.3700173 L18.3466883,31.3700173 Z M28.4914371,33.6071916 C29.224561,33.2973337 29.8281642,32.8573354 30.3815705,32.3504078 C30.4639927,32.2686053 30.5451755,32.1874226 30.6430906,32.121113 C31.3284964,31.6972273 31.8329451,31.1091169 32.2902954,30.4559364 C32.8120962,29.7048408 33.154799,28.85583 33.5793044,28.0557769 C33.6115296,27.990087 33.6437549,27.9256365 33.6765998,27.8760593 C33.6437549,29.7376857 33.8563174,31.5664673 34.1004854,33.4119811 C32.2580702,33.4770513 30.3821902,33.5421214 28.4908174,33.6078113 L28.4914371,33.6071916 Z M45.0273157,33.1176161 C45.011203,33.150461 44.9777384,33.183306 44.9622455,33.2167706 C44.9455132,33.183306 44.9455132,33.1343484 44.9294006,33.0680388 C44.8314854,33.3301786 44.6195426,33.1994186 44.47267,33.1994186 C43.5926734,33.2161509 42.6953248,33.2161509 41.8140889,33.2161509 C40.9663176,33.2161509 40.1024336,33.2161509 39.2546623,33.2310241 C38.9770296,33.2310241 38.6832843,33.2960942 38.4056516,33.3128266 C37.7375979,33.3450518 37.0689245,33.3624038 36.400251,33.3778967 C36.3506738,33.3778967 36.3023359,33.2973337 36.2205334,33.2316438 C36.2044208,33.2644887 36.1709562,33.3134463 36.1226183,33.3785165 C36.1052663,33.3462912 36.0730411,33.314066 36.0401961,33.2651085 C36.0240835,33.3146857 36.0073512,33.3630236 35.9906188,33.3952488 L35.9435204,33.3952488 C35.9106755,33.1671933 35.8456053,32.9552505 35.8456053,32.7259556 C35.8456053,32.2363801 35.8951826,31.7468046 35.9106755,31.2559896 C35.9274078,31.0279342 35.9106755,30.8159913 35.9106755,30.6028091 C35.9763654,30.6523863 36.0253229,30.6852313 36.0903931,30.7329494 C36.1226183,30.6691187 36.1554633,30.6201611 36.1883082,30.5718233 C36.1883082,30.5718233 36.1554633,30.5544712 36.1226183,30.522246 C36.1536041,30.5055137 36.1870688,30.4726687 36.1870688,30.4565561 C36.2031814,30.4069789 36.236646,30.358641 36.236646,30.3264158 C36.236646,30.2117684 36.2031814,30.1138533 36.1870688,30.0165579 C36.2031814,30.0165579 36.219294,30.0165579 36.236646,29.9992058 L36.3339414,30.4887814 L36.3835187,30.4887814 C36.3178288,30.3753734 36.5297717,30.2768385 36.3506738,30.1466982 C36.3345612,30.1299659 36.3667864,30.0320508 36.3667864,29.9830932 C36.3172091,29.8857978 36.2862233,29.7878827 36.236646,29.6571227 C36.2527587,29.64101 36.3017162,29.6242777 36.3506738,29.6075454 C36.2856036,29.5753202 36.236646,29.5430949 36.1876885,29.5269823 C36.3506738,29.37949 36.3506738,29.2976875 36.2038011,29.1347022 C36.2372658,29.1192093 36.269491,29.1192093 36.269491,29.1037164 C36.269491,28.956224 36.269491,28.8093514 36.2372658,28.6637181 C36.2044208,28.4988737 36.286843,28.3042829 36.0414356,28.2051284 C36.0575482,28.2547056 36.0742805,28.2869309 36.1065057,28.3352687 C36.1065057,28.3352687 36.0569284,28.352001 36.0085906,28.384846 C35.7966478,28.188396 35.9280275,27.9262562 35.8784503,27.6331306 C35.992478,27.6659756 36.0742805,27.6988205 36.1554633,27.7322852 C36.1226183,27.617018 36.0414356,27.486258 35.992478,27.3393853 L35.9261684,27.3393853 L35.9261684,26.2610797 C35.9261684,26.277812 36.0401961,26.277812 36.105886,26.2945444 C36.105886,26.277812 36.1213789,26.2616994 36.1213789,26.2449671 C36.0718016,26.1798969 36.0067315,26.1148267 35.9416613,26.0330243 L35.9745062,26.0001793 C35.8443659,25.8378138 35.9094361,25.6097583 35.9094361,25.560181 L35.9094361,24.4168053 C36.0730411,24.5804103 35.828873,24.7923531 36.0730411,24.8902682 L36.0730411,24.7272829 L36.0563087,24.7272829 C36.0401961,24.4824951 36.0401961,24.2377074 36.0240835,23.9922999 L35.9918583,23.9922999 C35.975126,24.0257646 35.975126,24.0418772 35.9583936,24.0747221 L35.9261684,24.0747221 L36.0240835,20.1717516 C36.1870688,20.3836944 36.3661667,20.580764 36.4801944,20.7914674 C36.8557422,21.4781126 37.344698,22.066223 37.8014286,22.6865586 C38.1930891,23.2257114 38.5512848,23.813202 38.91072,24.3684674 C39.3507183,25.0377606 39.774604,25.7070537 40.2152219,26.3763468 C40.5411925,26.8832744 40.8845151,27.3895823 41.2253588,27.8797775 C41.5352167,28.3197758 41.8624267,28.7449009 42.1883973,29.170026 C42.4647905,29.5455738 42.7585359,29.9211216 43.0355489,30.2966694 C43.3621391,30.7540198 43.6881097,31.2107503 44.0146999,31.651988 C44.1770655,31.8800435 44.3567831,32.1087186 44.5352613,32.3373938 C44.6344158,32.4675341 44.7806687,32.5666887 44.8785839,32.6472517 C44.863091,32.6472517 44.8463586,32.6472517 44.8141334,32.6311391 C44.8637107,32.6962093 44.8946965,32.7451668 44.9281611,32.7780118 C45.1078787,32.8759269 45.1239913,32.973842 45.0260762,33.1213344 L45.0273157,33.1176161 Z M45.8589744,29.0361674 L45.8589744,28.9215199 C45.8589744,28.9537451 45.875087,29.002083 45.8589744,29.0355476 L45.8589744,29.0361674 Z M46.4136201,21.835069 C46.3968877,21.835069 46.2995923,21.7359144 46.2834797,21.7198018 C46.2667474,21.7693791 46.2834797,21.8177169 46.2506348,21.8834068 C46.2339025,21.835069 46.1204945,21.8511816 46.1204945,21.8028437 C46.1037621,22.0308992 46.2177898,22.2595743 46.2010575,22.4882495 C46.2506348,22.4554045 46.4458453,22.4386722 46.4948028,22.3903344 C46.5115352,22.406447 46.5443801,22.4225596 46.5604927,22.4225596 C46.2339025,22.6679671 46.315705,22.9121351 46.4625776,23.1910073 C46.4948028,23.2554577 46.5927179,23.3862178 46.4948028,23.5169778 C46.4625776,23.5498228 46.5115352,23.6471182 46.5276478,23.7295404 L46.5753659,23.7295404 L46.5753659,23.7605262 L46.4284932,23.8101034 C46.396268,23.7605262 46.2010575,23.6638505 46.2010575,23.5808086 L46.2010575,24.4149461 C46.3640428,24.4645234 46.3640428,24.6925788 46.429113,24.8072263 C46.4631973,24.757649 46.4786902,24.7248041 46.4954226,24.6770859 L46.5121549,24.6919591 C46.4954226,24.7898742 46.4793099,24.8877893 46.446465,24.9863242 C46.4142398,25.1325771 46.3813948,25.2633371 46.3659019,25.4102098 C46.3659019,25.4263224 46.3968877,25.4597871 46.3968877,25.47528 C46.2184096,25.8842924 46.3163247,26.3404033 46.2512545,26.764289 C46.2016772,27.0741469 46.2512545,27.4025963 46.2184096,27.7285669 C46.1849449,28.0061996 46.119255,28.2999449 46.0548046,28.5775776 C46.0380722,28.6271549 46.0052273,28.6426478 45.9246642,28.6754927 C45.9568895,28.4796625 45.9407769,28.3489025 45.9079319,28.1691849 C45.8905799,28.1691849 45.678637,28.0551571 45.6619047,28.0551571 C45.6619047,28.284452 45.792045,28.5943099 45.8416223,28.8545906 C45.792045,28.838478 45.5968345,28.7244503 45.5813416,28.7244503 C45.547877,28.9202805 45.547877,29.1818006 45.5317644,29.3937434 C45.5150321,29.5573484 45.3687791,29.7036014 45.3520468,29.883319 C45.3520468,29.9824735 45.4660745,30.0469239 45.4499619,30.2105289 L45.5801022,30.2105289 C45.5801022,29.8845584 45.7275946,29.5908131 45.7275946,29.2474905 L45.7759324,29.2474905 C45.7926648,29.2803354 45.8416223,29.3131804 45.8255097,29.329293 C45.7926648,29.5090106 45.7263552,29.7048408 45.7437072,29.8845584 C45.7437072,29.9824735 45.8242703,30.0803886 45.7932845,30.1944163 C45.7598198,30.2935709 45.7437072,30.3908663 45.7269749,30.5377389 C45.7102426,30.4559364 45.6941299,30.4237112 45.6941299,30.3747536 C45.6780173,30.3747536 45.5311447,30.3580213 45.5144123,30.3580213 C45.4982997,30.4559364 45.6290598,30.5538515 45.6123274,30.635654 C45.5962148,30.6517666 45.5801022,30.6517666 45.5472573,30.668499 L45.0093439,29.8839387 C44.5842188,29.2642228 44.1603332,28.6426478 43.7364475,28.0061996 C43.6218001,27.8425946 43.523885,27.6796093 43.4420825,27.516624 C42.937014,26.6502613 42.3823683,25.8173631 41.7626525,25.0173099 C41.290429,24.4137067 40.9136417,23.7592867 40.4736435,23.124078 C40.0671098,22.519855 39.6593368,21.9317446 39.2515638,21.3269019 C39.1046911,21.1316914 38.9255932,20.9519738 38.7948332,20.7394113 C38.3715672,20.0701182 37.9953997,19.3840927 37.5727535,18.7147995 C37.2133183,18.1589144 36.8228973,17.6197616 36.4473494,17.0812285 C36.3172091,16.9015109 36.1870688,16.705061 36.055689,16.5092308 C36.0395764,16.478245 36.0234638,16.4454 36.0234638,16.3964425 C35.9906188,16.0370073 35.9577739,15.6775721 35.9416613,15.3348692 C35.9416613,15.0082789 35.9745062,14.6816887 35.9745062,14.3383661 L35.9745062,14.0446208 C35.9745062,13.9628183 35.9899991,13.8977481 35.9899991,13.8153259 C36.005492,13.799833 36.0222244,13.766988 36.038337,13.7508754 C35.5654938,13.7508754 35.0759182,13.7335234 34.603075,13.7508754 C34.2932171,13.7663683 34.1302318,13.6356083 33.918289,13.4069331 C33.2985731,12.704795 32.8418425,11.9047419 32.3039291,11.1536462 C31.798241,10.4347758 31.2764402,9.73201802 30.7546395,9.02987994 C30.3301341,8.45850191 29.9056287,7.90323649 29.4823628,7.33185845 C29.0088999,6.67867793 28.552789,6.0254974 28.0632134,5.37231687 C27.4757228,4.58899602 26.8721195,3.80443572 26.269136,3.02111486 C25.9902639,2.66167966 25.6804059,2.31897678 25.370548,1.94280925 C25.5831105,1.97627391 25.7795605,2.00849913 25.974771,2.02523146 L26.7580918,2.07480873 C27.3449628,2.12252685 27.9318337,2.15537179 28.5180849,2.23593486 C29.0076604,2.30224446 29.497236,2.40015956 30.0029241,2.48134234 C31.0799903,2.66105994 32.1397044,2.95542498 33.1671933,3.29812786 C33.7707966,3.49395807 34.3570478,3.75547817 34.9457779,4.00026594 C36.2657727,4.53941875 37.5219368,5.19259927 38.7613685,5.87800502 C39.1517895,6.09056757 39.3810844,6.43327044 39.6735903,6.74374809 C40.0980956,7.18498579 40.522601,7.62560378 40.9297543,8.08233437 C41.4019778,8.62148718 41.8419761,9.1767526 42.2993264,9.73201802 C42.7064797,10.2215936 43.1297457,10.7111691 43.5387581,11.2019841 C43.6688985,11.3488567 43.768053,11.5285743 43.8808413,11.6915596 C44.141122,12.0838397 44.435487,12.4600073 44.6635424,12.8838929 C44.825908,13.1949903 44.9238231,13.5544255 45.0378508,13.8971284 C45.2002164,14.4034362 45.3638214,14.8930118 45.5274264,15.3993196 C45.6408344,15.7748675 45.7381298,16.1677673 45.8199323,16.5581883 C45.8856221,16.8203281 45.8695095,17.0973411 45.9500726,17.3576218 C46.0492271,17.7021838 45.9500726,18.0764922 46.0492271,18.4204345 C46.06472,18.4532795 46.0802129,18.502237 46.097565,18.5350819 C46.1626351,18.5995324 46.2115927,18.6652223 46.1136776,18.7631374 C46.0981847,18.77925 46.0981847,18.8437005 46.1136776,18.8932777 C46.1471422,18.8610525 46.1632549,18.8282076 46.1960998,18.77925 C46.1960998,18.8120949 46.2115927,18.8288273 46.2115927,18.8443202 C46.2115927,18.9087706 46.1948604,18.9744605 46.2115927,19.0395307 C46.2115927,19.0717559 46.2438179,19.1200937 46.2599305,19.1535584 C46.2927755,19.1200937 46.3250007,19.1039811 46.3900709,19.0544038 C46.5369435,19.610289 46.5536758,20.1655544 46.5536758,20.7369324 C46.5536758,21.2760852 46.6509712,21.815238 46.4235355,22.3376585 C46.4718734,22.1579409 46.3578456,21.9937162 46.4068032,21.8307309 L46.4136201,21.835069 Z" id="Shape" fill="#DD3A0A"></path>
                <path d="M35.9930977,28.1859172 C36.0085906,28.1859172 36.0253229,28.2026495 36.0253229,28.2026495 L36.0085906,28.184058 C36.0085906,28.1685651 36.0085906,28.1685651 35.992478,28.184058 L35.9930977,28.1859172 Z M38.5692566,44.3208396 C38.389539,44.4509799 38.2098214,44.5656273 37.9817659,44.6145849 C37.9644139,44.5984723 37.9644139,44.58174 37.9483013,44.5650076 C38.1280189,44.4509799 38.3232294,44.3369522 38.502947,44.2223047 C38.5196793,44.2532905 38.5525243,44.2867552 38.5686369,44.3196001 L38.5692566,44.3208396 Z M7.99123614,22.1920253 C8.17095374,21.9645896 8.35067134,21.7359144 8.54526213,21.5072393 C8.56075502,21.5233519 8.69089536,21.5568165 8.70762769,21.5723094 C8.52791008,21.8016043 8.28312231,22.1114622 8.10402443,22.35625 C8.07055977,22.3234051 8.02160222,22.2093773 7.98937699,22.192645 L7.99123614,22.1920253 Z M3.35886001,30.1956558 C3.22871968,29.918023 3.09857935,29.623658 2.96843902,29.346645 C2.98455163,29.3299127 3.09857935,29.2809551 3.11469196,29.2809551 C3.29440956,29.5412358 3.37497263,29.8510937 3.50635239,30.1299659 C3.50635239,30.1299659 3.37621206,30.195036 3.35947973,30.195036 L3.35886001,30.1956558 Z M7.51839293,22.35625 C7.42047782,22.5037424 7.32256272,22.6673474 7.22464761,22.8148397 C7.208535,22.7974877 7.02881739,22.8792902 7.01270478,22.8631776 C7.11061989,22.7163049 7.35478794,22.4541651 7.45270305,22.3079122 C7.46943538,22.3240248 7.48554799,22.3407571 7.51839293,22.3574894 L7.51839293,22.35625 Z M36.8247564,44.9913721 C36.8402493,44.9913721 36.8402493,44.9752595 36.8569816,44.9752595 C36.9710094,44.9913721 37.1011497,45.0074848 37.2319097,45.0074848 C37.0187275,45.1543574 36.8879674,45.1376251 36.8228973,44.9913721 L36.8247564,44.9913721 Z M7.54937872,23.0422755 C7.56673077,22.9926982 7.59895599,22.9443604 7.63180094,22.8954028 C7.66402616,22.8954028 7.712364,22.8786705 7.712364,22.8786705 C7.7786736,22.7646428 7.7786736,22.6828403 7.84374376,22.5849252 C7.82763115,22.5688125 7.81089882,22.5688125 7.79416649,22.5520802 C7.6968711,22.6190095 7.59895599,22.700812 7.50104089,22.7658822 C7.53388583,22.7981074 7.53388583,22.8154595 7.53388583,22.8476847 C7.4037455,22.8309524 7.35416823,22.897262 7.28909806,23.0757401 C7.27298545,23.1253174 7.19118295,23.14143 7.10938046,23.2058805 C7.09326784,23.2393451 7.07715523,23.3211476 7.04431029,23.4023304 L7.06104262,23.4196824 C7.02819768,23.4525274 6.97924012,23.4692597 6.97924012,23.4692597 C6.88132502,23.5665551 6.7672973,23.6489773 6.66938219,23.7462727 C6.65326958,23.79585 6.63715696,23.8441878 6.63715696,23.8931454 C6.7518044,23.7791176 6.9470149,23.5665551 7.09388756,23.435795 L7.11061989,23.4525274 C7.17569006,23.3546123 7.22464761,23.2566972 7.29033749,23.1587821 C7.30583039,23.1748947 7.30583039,23.1910073 7.32256272,23.2083593 C7.27298545,23.3384997 7.22464761,23.4847526 7.17569006,23.6155126 C7.14160568,23.6316253 7.09264813,23.6650899 7.09264813,23.6483576 C7.02757796,23.6979349 6.97862041,23.7623853 6.91293053,23.8113429 L6.61980492,24.0071731 C6.45681965,24.1540457 6.29383437,24.2841861 6.11411677,24.4316784 C6.00008905,24.611396 5.88606133,24.7743813 5.75468157,24.9869439 C5.9511315,24.9373666 6.00008905,25.0197888 5.98397644,25.1833938 C6.21203188,25.215619 6.22876421,25.0365211 6.29383437,24.9057611 C6.30994699,24.8722964 6.32667931,24.8066065 6.35890454,24.7904939 C6.5057772,24.6603536 6.66876247,24.5463259 6.83174775,24.4155658 C6.86459269,24.3827209 6.86459269,24.3164113 6.86459269,24.2680735 C6.86459269,24.2519608 6.78217048,24.2519608 6.73321292,24.2352285 C6.88008559,24.0716235 7.09264813,23.7952302 7.23890107,23.6155126 C7.32070357,23.5659354 7.40188635,23.5002455 7.40188635,23.4512879 C7.38577374,23.2715703 7.49980146,23.2232325 7.63118122,23.1575426 C7.56549134,23.1079653 7.54875901,23.0602472 7.54875901,23.0441346 L7.54937872,23.0422755 Z" id="Shape" fill="#DD3735"></path>
                <path d="M7.8765887,22.8625579 C7.81151854,22.9765856 7.74644837,23.0745007 7.68137821,23.1891481 L7.5834631,23.1395709 C7.51839293,23.514499 7.28971778,23.8410892 7.06166234,23.9061594 C7.1267325,23.9390043 7.19180267,23.9718493 7.24137994,23.9557367 C7.28971778,23.9390043 7.321943,23.8565821 7.35478794,23.8082443 L7.79478621,23.1711764 L7.94227859,22.9257689 L7.87720842,22.8606987 L7.8765887,22.8625579 Z M2.44663825,30.031431 C2.52844075,30.031431 2.61024324,30.0475437 2.70691892,30.0475437 C2.70691892,29.9824735 2.78934113,29.9979664 2.78934113,29.9335159 L2.8389184,29.9335159 C2.8389184,30.0153184 2.85503101,30.0803886 2.85503101,30.1628108 L2.51294785,30.1628108 C2.49621552,30.1460785 2.43114536,30.0475437 2.44725797,30.031431 L2.44663825,30.031431 Z M2.31649792,29.2803354 C2.26692065,29.2307581 2.18635759,29.1824203 2.18635759,29.1334628 C2.16962526,29.0690123 2.21858281,28.9878295 2.26692065,28.906027 C2.30038531,29.0200547 2.31649792,29.1179699 2.34872315,29.2326173 C2.33199082,29.2481102 2.31587821,29.2648425 2.31587821,29.2809551 L2.31649792,29.2803354 Z M2.72427096,28.2348747 C2.78934113,28.3997192 2.8544113,28.5794368 2.92010118,28.7430418 C2.90398857,28.7430418 2.80607346,28.792619 2.78996085,28.8081119 C2.72489068,28.6445069 2.64308818,28.4647893 2.57801802,28.3018041 C2.59413063,28.2856914 2.69204574,28.2361142 2.72489068,28.2361142 L2.72427096,28.2348747 Z M39.0272266,43.8479964 C39.1077897,43.8157711 39.2057048,43.7984191 39.3370845,43.7674333 C39.1895922,43.8808413 39.0755644,43.9626438 38.9776493,44.0605589 C38.960917,44.0444463 38.9448044,44.027714 38.9280721,44.027714 C38.960917,43.9626438 38.993762,43.9136862 39.0272266,43.8479964 Z M18.9818971,9.34159702 C19.0791925,9.27590714 19.1616147,9.22694958 19.2589101,9.16187942 L19.2911353,9.19410464 C19.1919808,9.32424498 19.1114177,9.45438531 18.9967703,9.61861001 C18.9806577,9.50520201 18.9806577,9.43889241 18.9639253,9.35832935 C18.9478127,9.35832935 18.9639253,9.35832935 18.9806577,9.34221674 L18.9818971,9.34159702 Z M23.7599064,17.6042687 C23.9067791,17.5385788 24.0536518,17.4741284 24.2327497,17.3917062 C24.216637,17.4896213 24.216637,17.5553112 24.216637,17.621001 C24.1670598,17.6042687 24.1019896,17.5875364 24.0530321,17.5875364 C23.9551169,17.6042687 23.7753993,17.7350288 23.6935968,17.7511414 C23.678104,17.7511414 23.7592867,17.621001 23.7592867,17.6042687 L23.7599064,17.6042687 Z M35.9930977,31.4524395 C36.0253229,31.6154248 36.3351809,31.6972273 36.0253229,31.8602126 C36.0749002,31.894297 36.1226183,31.9097898 36.1715759,31.9432545 C36.1715759,31.9599868 36.1554633,31.9928318 36.1393507,32.0089444 C36.1065057,32.0244373 36.0414356,32.0572822 36.0092103,32.0399302 C35.992478,32.0399302 35.9596331,31.9754797 35.9596331,31.9426348 C35.9596331,31.7957621 35.9763654,31.6488895 35.992478,31.4530593 L35.9930977,31.4524395 Z" id="Shape" fill="#DD3735"></path>
            </g>
        </g>
    </g>
</svg>