<?xml version="1.0" encoding="UTF-8"?>
<svg width="73px" height="73px" viewBox="0 0 73 73" version="1.1" xmlns="http://www.w3.org/2000/svg" xmlns:xlink="http://www.w3.org/1999/xlink">
    <!-- Generator: Sketch 51.3 (57544) - http://www.bohemiancoding.com/sketch -->
    <title>build-tools/rollup</title>
    <desc>Created with Sketch.</desc>
    <defs>
        <linearGradient x1="26.8242921%" y1="48.2236445%" x2="67.5758137%" y2="55.339338%" id="linearGradient-1">
            <stop stop-color="#FF6533" offset="0%"></stop>
            <stop stop-color="#FF5633" offset="15.7%"></stop>
            <stop stop-color="#FF4333" offset="43.4%"></stop>
            <stop stop-color="#FF3733" offset="71.4%"></stop>
            <stop stop-color="#FF3333" offset="100%"></stop>
        </linearGradient>
        <linearGradient x1="20.4503837%" y1="38.1333935%" x2="93.4858428%" y2="80.4322382%" id="linearGradient-2">
            <stop stop-color="#BF3338" offset="0%"></stop>
            <stop stop-color="#FF3333" offset="100%"></stop>
        </linearGradient>
        <linearGradient x1="32.2926113%" y1="39.496861%" x2="45.5563705%" y2="48.9139013%" id="linearGradient-3">
            <stop stop-color="#FF6533" offset="0%"></stop>
            <stop stop-color="#FF5633" offset="15.7%"></stop>
            <stop stop-color="#FF4333" offset="43.4%"></stop>
            <stop stop-color="#FF3733" offset="71.4%"></stop>
            <stop stop-color="#FF3333" offset="100%"></stop>
        </linearGradient>
        <linearGradient x1="51.5641026%" y1="78.3444231%" x2="48.5176441%" y2="41.6628279%" id="linearGradient-4">
            <stop stop-color="#FF6533" offset="0%"></stop>
            <stop stop-color="#FF5633" offset="15.7%"></stop>
            <stop stop-color="#FF4333" offset="43.4%"></stop>
            <stop stop-color="#FF3733" offset="71.4%"></stop>
            <stop stop-color="#FF3333" offset="100%"></stop>
        </linearGradient>
        <linearGradient x1="40.2012262%" y1="47.2148639%" x2="53.9750044%" y2="54.5349876%" id="linearGradient-5">
            <stop stop-color="#FBB040" offset="0%"></stop>
            <stop stop-color="#FB8840" offset="100%"></stop>
        </linearGradient>
        <linearGradient x1="55.2222794%" y1="5.88782542%" x2="40.9262994%" y2="128.016462%" id="linearGradient-6">
            <stop stop-color="#FFFFFF" offset="0%"></stop>
            <stop stop-color="#FFFFFF" stop-opacity="0" offset="100%"></stop>
        </linearGradient>
    </defs>
    <g id="build-tools/rollup" stroke="none" stroke-width="1" fill="none" fill-rule="evenodd">
        <g id="container" transform="translate(2.000000, 2.000000)" fill="#FFFFFF" fill-rule="nonzero" stroke="#E83334" stroke-width="2">
            <rect id="mask" x="-1" y="-1" width="71" height="71" rx="14"></rect>
        </g>
        <g id="download" transform="translate(21.000000, 16.000000)" fill-rule="nonzero">
            <g id="XMLID_14_" transform="translate(4.167621, 4.238259)" fill="url(#linearGradient-1)">
                <path d="M26.7010299,9.0416186 C26.7010299,6.66819372 26.0794186,4.44310789 24.9845351,2.51470017 C22.0813279,-0.473272224 15.7663224,-1.16552115 14.1981667,2.50057264 C12.5876284,6.25849537 16.9035885,10.440244 18.7896137,10.108247 C21.1912936,9.68442117 18.3657878,4.17468484 18.3657878,4.17468484 C22.0389453,11.0971741 21.1912936,8.97804472 14.5513549,15.3354328 C7.91141627,21.6928209 1.13020232,35.1069097 0.141275291,35.6720109 C0.0988927034,35.7002659 0.0565101162,35.7214572 0.00706376453,35.7426485 L26.0511636,35.7426485 C26.5103083,35.7426485 26.8069864,35.2552488 26.6021372,34.8455504 L19.7926682,21.3678877 C19.6443292,21.0782734 19.7502856,20.7180214 20.0328362,20.5555548 C24.0167994,18.2668951 26.7010299,13.9721262 26.7010299,9.0416186 Z" id="XMLID_15_"></path>
            </g>
            <g id="XMLID_2_" transform="translate(4.167621, 4.238259)" fill="url(#linearGradient-2)">
                <path d="M26.7010299,9.0416186 C26.7010299,6.66819372 26.0794186,4.44310789 24.9845351,2.51470017 C22.0813279,-0.473272224 15.7663224,-1.16552115 14.1981667,2.50057264 C12.5876284,6.25849537 16.9035885,10.440244 18.7896137,10.108247 C21.1912936,9.68442117 18.3657878,4.17468484 18.3657878,4.17468484 C22.0389453,11.0971741 21.1912936,8.97804472 14.5513549,15.3354328 C7.91141627,21.6928209 1.13020232,35.1069097 0.141275291,35.6720109 C0.0988927034,35.7002659 0.0565101162,35.7214572 0.00706376453,35.7426485 L26.0511636,35.7426485 C26.5103083,35.7426485 26.8069864,35.2552488 26.6021372,34.8455504 L19.7926682,21.3678877 C19.6443292,21.0782734 19.7502856,20.7180214 20.0328362,20.5555548 C24.0167994,18.2668951 26.7010299,13.9721262 26.7010299,9.0416186 Z" id="XMLID_10_"></path>
            </g>
            <path d="M4.30889636,39.9102696 C5.2978234,39.3451684 12.0790373,25.9240158 18.718976,19.5666278 C25.3589147,13.2092397 26.2065664,15.328369 22.5334089,8.40587979 C22.5334089,8.40587979 8.47651744,28.1137828 3.39060697,37.8617779" id="XMLID_3_" fill="url(#linearGradient-3)"></path>
            <g id="XMLID_7_" transform="translate(1.059565, 0.000000)" fill="url(#linearGradient-4)">
                <path d="M5.22718575,22.2508583 C14.7208853,4.79629612 15.9641078,3.03741875 20.908743,3.03741875 C23.5082084,3.03741875 26.128865,4.21000366 27.8241685,6.2938142 C25.5143175,2.57121029 21.4243978,0.0777014098 16.7411219,0.00706376453 L0.614547514,0.00706376453 C0.275486817,0.00706376453 0,0.282550581 0,0.621611279 L0,33.1290556 C0.960671976,30.6496743 2.59240158,27.1036645 5.22718575,22.2508583 Z" id="XMLID_12_"></path>
            </g>
            <path d="M18.718976,19.5666278 C12.0790373,25.9240158 5.2978234,39.3451684 4.30889636,39.9102696 C3.31996933,40.4753708 1.65998466,40.5460084 0.777014098,39.5570814 C-0.162466584,38.5045805 -1.62466584,36.8022132 6.28675043,22.2508583 C15.78045,4.79629612 17.0236725,3.03741875 21.9683077,3.03741875 C24.567773,3.03741875 27.1884297,4.21000366 28.8837332,6.2938142 C28.9755621,6.44215325 29.067391,6.59755607 29.15922,6.75295889 C26.2560128,3.76498649 19.9410073,3.07273757 18.3728515,6.73883136 C16.7623132,10.4967541 21.0782734,14.6785027 22.9642985,14.3465058 C25.3659784,13.9226799 22.5404726,8.41294356 22.5404726,8.41294356 C26.2065664,15.328369 25.3589147,13.2092397 18.718976,19.5666278 Z" id="XMLID_6_" fill="url(#linearGradient-5)"></path>
            <path d="M7.06376453,23.0278724 C16.5574641,5.57331021 17.8006866,3.81443285 22.7453218,3.81443285 C24.8856424,3.81443285 27.0400906,4.61263824 28.678884,6.0536462 C26.9835805,4.11817472 24.4688803,3.03741875 21.9683077,3.03741875 C17.0236725,3.03741875 15.78045,4.79629612 6.28675043,22.2508583 C-1.62466584,36.8022132 -0.162466584,38.5045805 0.777014098,39.5570814 C0.911225624,39.7054204 1.06662844,39.8325682 1.22909503,39.9385247 C0.402634578,38.7376847 0.0353188227,35.9474977 7.06376453,23.0278724 Z" id="XMLID_13_" fill="url(#linearGradient-6)" opacity="0.3"></path>
        </g>
    </g>
</svg>