<?xml version="1.0" encoding="UTF-8"?>
<svg width="73px" height="73px" viewBox="0 0 73 73" version="1.1" xmlns="http://www.w3.org/2000/svg" xmlns:xlink="http://www.w3.org/1999/xlink">
    <!-- Generator: Sketch 51.3 (57544) - http://www.bohemiancoding.com/sketch -->
    <title>build-tools/sass</title>
    <desc>Created with Sketch.</desc>
    <defs></defs>
    <g id="build-tools/sass" stroke="none" stroke-width="1" fill="none" fill-rule="evenodd">
        <g id="container" transform="translate(2.000000, 2.000000)" fill="#FFFFFF" fill-rule="nonzero" stroke="#87305C" stroke-width="2">
            <rect id="mask" x="-1" y="-1" width="71" height="71" rx="14"></rect>
        </g>
        <g id="sass-logo" transform="translate(10.000000, 10.000000)">
            <path d="M26.5,0 C41.1317121,0 53,11.8682879 53,26.5 C53,41.1317121 41.1317121,53 26.5,53 C11.8682879,53 0,41.1317121 0,26.5 C0,11.8682879 11.8682879,0 26.5,0 Z" id="Shape" fill="#CC6699"></path>
            <path d="M43.1321012,11.3733463 C41.9359922,6.67140078 34.1303502,5.12470817 26.7371595,7.74377432 C22.3445525,9.30077821 17.5807393,11.7548638 14.157393,14.9616732 C10.0844358,18.766537 9.44513619,22.0764591 9.70291829,23.4581712 C10.6412451,28.3457198 17.3332685,31.5319066 20.0863813,33.9035019 L20.0863813,33.9138132 C19.2717899,34.3159533 13.3428016,37.316537 11.9507782,40.3892996 C10.4865759,43.6270428 12.1879377,45.957393 13.3118677,46.2667315 C16.7970817,47.2359922 20.3750973,45.4933852 22.2929961,42.6268482 C24.1490272,39.8634241 23.994358,36.2854086 23.1900778,34.5118677 C24.3036965,34.2231518 25.6029183,34.0891051 27.2424125,34.2747082 C31.8928016,34.8212062 32.8001946,37.718677 32.6249027,38.9354086 C32.4496109,40.1521401 31.4803502,40.8223735 31.1503891,41.0182879 C30.820428,41.2245136 30.7276265,41.2863813 30.748249,41.4410506 C30.7894942,41.6575875 30.9338521,41.6472763 31.2122568,41.6060311 C31.5937743,41.5441634 33.6560311,40.6161479 33.7385214,38.3785992 C33.8519455,35.5326848 31.1194553,32.3464981 26.2937743,32.4289883 C24.3036965,32.4599222 23.0560311,32.6558366 22.1486381,32.9857977 C22.0867704,32.9136187 22.0145914,32.8311284 21.9424125,32.7589494 C18.9521401,29.5727626 13.4356031,27.3145914 13.6727626,23.0354086 C13.7552529,21.4784047 14.301751,17.3745136 24.2830739,12.4044747 C32.4599222,8.33151751 39.0075875,9.45544747 40.1418288,11.9404669 C41.7607004,15.4875486 36.6463035,22.0867704 28.1498054,23.0457198 C24.9120623,23.4066148 23.2107004,22.1589494 22.7879377,21.6846304 C22.3445525,21.1896887 22.2723735,21.1690661 22.107393,21.2618677 C21.8392996,21.416537 22.0042802,21.8496109 22.107393,22.107393 C22.3651751,22.7673152 23.3963035,23.9324903 25.1801556,24.5202335 C26.7371595,25.0357977 30.5420233,25.3142023 35.1305447,23.5406615 C40.2964981,21.5299611 44.3075875,15.9928016 43.1321012,11.3733463 Z M21.2412451,35.357393 C21.6227626,36.7803502 21.5815175,38.1105058 21.1896887,39.3169261 C21.1484436,39.4509728 21.0968872,39.5850195 21.0453307,39.7087549 C20.9937743,39.8428016 20.9319066,39.966537 20.8700389,40.1005837 C20.5607004,40.7398833 20.148249,41.3379377 19.6429961,41.8844358 C18.1066148,43.5651751 15.9515564,44.1941634 15.0338521,43.6682879 C14.0336576,43.090856 14.5389105,40.7192607 16.3227626,38.8322957 C18.2406615,36.8009728 21.0040856,35.501751 21.0040856,35.501751 L21.0040856,35.4914397 C21.0762646,35.4398833 21.1587549,35.3986381 21.2412451,35.357393 Z" id="Shape" fill="#FFFFFF" fill-rule="nonzero"></path>
        </g>
    </g>
</svg>