<?xml version="1.0" encoding="UTF-8"?>
<svg width="73px" height="73px" viewBox="0 0 73 73" version="1.1" xmlns="http://www.w3.org/2000/svg" xmlns:xlink="http://www.w3.org/1999/xlink">
    <!-- Generator: Sketch 51.3 (57544) - http://www.bohemiancoding.com/sketch -->
    <title>build-tools/task-runners</title>
    <desc>Created with Sketch.</desc>
    <defs></defs>
    <g id="build-tools/task-runners" stroke="none" stroke-width="1" fill="none" fill-rule="evenodd">
        <g id="container" transform="translate(2.000000, 2.000000)" fill="#FFFFFF" fill-rule="nonzero" stroke="#383856" stroke-width="2">
            <rect id="mask" x="-1" y="-1" width="71" height="71" rx="14"></rect>
        </g>
        <g id="running-man" transform="translate(14.000000, 16.000000)" fill-rule="nonzero">
            <path d="M35.0666667,0.0151754386 L38.5348246,0.0151754386 L38.5348246,2.3272807 C36.077807,2.32807018 33.7210526,3.29991228 31.9785088,5.03166667 C31.7319298,4.5522807 31.6016667,4.02201754 31.5985965,3.48333333 C31.5985088,1.56815789 33.1514912,0.0151754386 35.0666667,0.0151754386 Z" id="Shape" fill="#383856"></path>
            <path d="M38.5347368,3.48333333 C38.539386,5.39385965 36.9949123,6.94605263 35.0850877,6.95149123 C33.7687719,6.9545614 32.5649123,6.21087719 31.9784211,5.03166667 C33.7209649,3.30070175 36.0777193,2.32807018 38.5347473,2.3272807 L38.5347368,3.48333333 Z" id="Shape" fill="#FFD33F"></path>
            <path d="M17.7259649,26.9895614 L11.3569298,32.7220175 C10.5992982,33.4033333 10.4875439,34.5500877 11.0987719,35.3655263 C11.7515789,36.235614 12.9862281,36.4113158 13.8555263,35.7585965 C13.8771053,35.7424561 13.8986842,35.7254386 13.9202632,35.7077193 L20.8087719,30.0723684 L25.4329825,25.4481579 L31.5985088,30.0723684 L30.3654386,38.6995614 C30.2174561,39.7353509 30.9380702,40.6957018 31.9738596,40.8428947 C32.0617544,40.8552632 32.1511404,40.862193 32.2405263,40.862193 L32.2875439,40.862193 C33.2262281,40.8668421 34.0339474,40.2001754 34.2081579,39.2776316 C34.8355263,35.9490351 36.2227193,28.5310526 36.2227193,28.5310526 L30.057193,23.1362281 L23.1209649,19.2827193 L17.7259649,26.9895614 Z" id="Shape" fill="#EA3836"></path>
            <polygon id="Shape" fill="#91CECE" points="40.7405263 15.4814912 39.3055263 16.1997368 34.6813158 10.0342105 30.0571053 6.95140351 20.0380702 5.41008772 15.7144737 9.71754386 18.0342982 12.367193 21.5794737 9.26359649 26.9742982 10.805 23.1207895 19.2826316 30.0570175 23.1361404 33.1398246 14.6585088 38.5347368 20.8240351 42.2764912 19.169386"></polygon>
            <g id="Group" transform="translate(13.771930, 9.649123)" fill="#FFD33F">
                <path d="M30.9985088,6.34026316 L30.9785088,6.29166667 C30.5677193,5.24964912 29.3900877,4.73868421 28.3481579,5.14947368 C28.2926316,5.17184211 28.237193,5.19570175 28.1840351,5.2227193 L26.9686842,5.83236842 L28.5046491,9.52017544 L29.9689474,8.87359649 C30.9376316,8.44429825 31.3931579,7.32447368 30.9985088,6.34026316 Z" id="Shape"></path>
                <path d="M0.520614035,1.48491228 C-0.149122807,2.14 -0.160701754,3.21280702 0.493684211,3.88254386 C1.12640351,4.52991228 2.15605263,4.56535088 2.8327193,3.96421053 L4.26236842,2.71798246 L1.94254386,0.0683333333 L0.520614035,1.48491228 Z" id="Shape"></path>
            </g>
            <g id="Group" transform="translate(0.000000, 3.859649)" fill="#383856">
                <rect id="Rectangle-path" x="4.62421053" y="0.00903508772" width="10.0190351" height="1.54140351"></rect>
                <rect id="Rectangle-path" x="1.54140351" y="0.00903508772" width="1.54140351" height="1.54140351"></rect>
                <rect id="Rectangle-path" x="7.70692982" y="6.1745614" width="1.54140351" height="1.54140351"></rect>
                <rect id="Rectangle-path" x="0" y="6.1745614" width="6.16552632" height="1.54140351"></rect>
                <rect id="Rectangle-path" x="3.85350877" y="12.3401754" width="7.70692982" height="1.54140351"></rect>
                <rect id="Rectangle-path" x="1.54140351" y="18.5057018" width="13.1018421" height="1.54140351"></rect>
                <rect id="Rectangle-path" x="3.08280702" y="24.6713158" width="6.16552632" height="1.54140351"></rect>
                <rect id="Rectangle-path" x="0" y="24.6713158" width="1.54140351" height="1.54140351"></rect>
                <rect id="Rectangle-path" x="1.54140351" y="30.8368421" width="5.39491228" height="1.54140351"></rect>
            </g>
            <path d="M14.3811404,13.6118421 C15.0192982,14.1675439 15.9695614,14.1675439 16.6077193,13.6118421 L18.0342982,12.367193 L17.1457018,11.3514035 L14.3811404,13.6118421 Z" id="Shape" fill="#FFAC3E"></path>
            <g id="Group" transform="translate(17.105263, 7.719298)" fill="#83B2B7">
                <polygon id="Shape" points="4.47421053 0.00289473684 0.0388596491 3.63210526 0.92745614 4.64780702 4.47421053 1.54421053 9.86912281 3.08561404 10.6397368 1.54421053"></polygon>
                <polygon id="Shape" points="21.9035088 11.2242105 16.8053509 5.3977193 16.0346491 6.93912281 21.4294737 13.1046491 25.1712281 11.45 24.577807 10.0242105"></polygon>
            </g>
            <path d="M41.6830702,17.7412281 L42.2764912,19.1670175 L43.7407895,18.5204386 C44.5916667,18.1435965 45.0617544,17.2225439 44.8675439,16.3123684 L41.6830702,17.7412281 Z" id="Shape" fill="#FFAC3E"></path>
            <polygon id="Shape" fill="#83B2B7" points="26.525 21.1738596 30.0571053 23.1360526 33.1399123 14.6584211 33.910614 13.1170175"></polygon>
            <g id="Group" transform="translate(30.350877, 39.035088)" fill="#EA3836">
                <path d="M0.679964912,1.27649123 C0.508464912,1.11346057 0.345964912,0.947481794 0.200964912,0.776491228 C0.346464912,0.9398167 0.508964912,1.11316576 0.679964912,1.27649123 Z" id="Shape"></path>
                <path d="M1.1372807,1.84070175 C0.962266473,1.68589146 0.79465122,1.51922479 0.637280702,1.34070175 C0.797212404,1.51922479 0.962266473,1.68589146 1.1372807,1.84070175 Z" id="Shape"></path>
                <path d="M0.894473684,1.58175439 C0.714786184,1.42236977 0.567464756,1.25190823 0.394473684,1.08175439 C0.554815946,1.26267746 0.714786184,1.42236977 0.894473684,1.58175439 Z" id="Shape"></path>
                <path d="M0.356929825,0.932807018 C0.255929825,0.767729544 0.145929825,0.602950045 0.0669298246,0.432807018 C0.145929825,0.605631809 0.255929825,0.767729544 0.356929825,0.932807018 Z" id="Shape"></path>
                <path d="M0.107692982,0.559035088 C0.0766929825,0.392368421 0.0196929825,0.228750535 0.00219298246,0.0590350877 C0.0196929825,0.228411781 0.0726929825,0.392368421 0.107692982,0.559035088 Z" id="Shape"></path>
                <path d="M1.43412281,2.04263158 C1.24912281,1.93501697 1.07342105,1.76621355 0.911578947,1.54263158 C1.07342105,1.76776755 1.24921053,1.93676522 1.43412281,2.04263158 Z" id="Shape"></path>
            </g>
            <g id="Group" transform="translate(11.140351, 21.140351)" fill="#D62121">
                <path d="M19.8028333,18.9747368 C19.6228333,18.8120136 19.4643333,18.6452726 19.3283333,18.4747368 C19.4643333,18.6452726 19.6228333,18.8120136 19.8028333,18.9747368 Z" id="Shape"></path>
                <path d="M20.2228947,19.6190351 C20.0522234,19.4570155 19.8783718,19.2878369 19.7228947,19.1190351 C19.8907393,19.2946191 20.0522234,19.4532476 20.2228947,19.6190351 Z" id="Shape"></path>
                <path d="M20.5018421,19.7779123 C20.3351754,19.6419123 20.1590266,19.5229123 20.0018421,19.3649123 C20.1590266,19.5229123 20.3355401,19.6414123 20.5018421,19.7779123 Z" id="Shape"></path>
                <path d="M19.4947281,18.5832456 C19.3762281,18.4191523 19.2882281,18.2520068 19.2312281,18.0832456 C19.2882281,18.2520068 19.3762281,18.4191523 19.4947281,18.5832456 Z" id="Shape"></path>
                <path d="M19.2370857,18.0592105 C19.1845857,17.8922474 19.2065857,17.7251732 19.3075857,17.5592105 C19.2065857,17.7251732 19.1800857,17.8931367 19.2370857,18.0592105 Z" id="Shape"></path>
                <path d="M19.9955263,19.3223684 C19.8160391,19.1624367 19.6505744,18.9948215 19.4955263,18.8223684 C19.6682026,18.9896991 19.8160391,19.1573144 19.9955263,19.3223684 Z" id="Shape"></path>
                <polygon id="Shape" points="20.6536491 19.6631579 20.6536491 19.6631579 20.6446491 19.6631579"></polygon>
                <path d="M18.9167544,1.99570175 L15.4485965,0.0689473684 L23.5408772,8.16122807 L20.8496491,19.6939474 C20.9321053,19.709386 21.0161404,19.7185965 21.1000877,19.7216667 L21.1471053,19.7216667 C22.0857895,19.7263158 22.8935088,19.0596491 23.0677193,18.1371053 C23.6950877,14.8085088 25.0822807,7.39052632 25.0822807,7.39052632 L18.9167544,1.99570175 Z" id="Shape"></path>
                <path d="M8.12701754,8.16131579 L0.0571052632,14.3322807 C0.752280702,15.1337719 1.95763158,15.237807 2.78,14.5680702 L9.66850877,8.93201754 L14.2927193,4.30780702 L12.7513158,3.53710526 L8.12701754,8.16131579 Z" id="Shape"></path>
            </g>
            <path d="M37.7640351,2.36508772 L37.7640351,2.71263158 C37.7640351,4.62780702 36.2110526,6.18078947 34.2958772,6.18078947 C33.5691228,6.18 32.8615789,5.94570175 32.2774561,5.51333333 C33.3895614,7.06245614 35.5467544,7.41614035 37.0958772,6.30403509 C38.0037719,5.65201754 38.5401754,4.60078947 38.5347368,3.48333333 L38.5347778,2.3272807 C38.2765789,2.3272807 38.0199123,2.34421053 37.7640351,2.36508772 Z" id="Shape" fill="#FFAC3E"></path>
            <path d="M38.5347368,0.0151754386 C38.5686842,0.866052632 38.2950877,1.69991228 37.7640351,2.365 C38.0199123,2.34421053 38.2765789,2.32719298 38.5347368,2.32719298 L38.5347368,0.0151754386 Z" id="Shape" fill="#202033"></path>
        </g>
    </g>
</svg>