<?xml version="1.0" encoding="UTF-8"?>
<svg width="73px" height="73px" viewBox="0 0 73 73" version="1.1" xmlns="http://www.w3.org/2000/svg" xmlns:xlink="http://www.w3.org/1999/xlink">
    <!-- Generator: Sketch 51.3 (57544) - http://www.bohemiancoding.com/sketch -->
    <title>build-tools/transpilers</title>
    <desc>Created with Sketch.</desc>
    <defs>
        <rect id="path-1" x="0" y="0" width="69" height="69" rx="14"></rect>
    </defs>
    <g id="build-tools/transpilers" stroke="none" stroke-width="1" fill="none" fill-rule="evenodd">
        <g id="container" transform="translate(2.000000, 2.000000)">
            <rect id="mask" stroke="#2D2003" stroke-width="2" fill="#FFFFFF" fill-rule="nonzero" x="-1" y="-1" width="71" height="71" rx="14"></rect>
            <mask id="mask-2" fill="white">
                <use xlink:href="#path-1"></use>
            </mask>
            <rect stroke="#2D2003" stroke-width="2" x="-1" y="-1" width="71" height="71" rx="14"></rect>
            <g id="harvester" mask="url(#mask-2)">
                <g transform="translate(-2.000000, 5.000000)">
                    <path d="M13.65,34.9667012 L12.7667012,34.9667012 C12.5317207,34.9643203 12.3056426,35.0566563 12.1395,35.2227988 C11.9733574,35.3889414 11.8810215,35.6150195 11.8834023,35.85 L11.8834023,41.15 C11.8834023,41.6378691 12.2789355,42.0332988 12.7667012,42.0332988 C13.2544668,42.0332988 13.65,41.6377656 13.65,41.15 L13.65,36.7332988 L15.1605,38.2437988 C15.3255039,38.4063184 15.5472344,38.4981367 15.7787988,38.5 L26.9,38.5 L26.9,34.9665977 L13.65,34.9667012 Z" id="Shape" fill="#24AE5F" fill-rule="nonzero"></path>
                    <path d="M41.0332988,24.3667012 C42.4968027,24.3667012 43.6832988,25.5531973 43.6832988,27.0167012 L43.6832988,28.7834023 L38.3832988,28.7834023 L38.3832988,27.0167012 C38.3832988,25.5530938 39.5697949,24.3667012 41.0332988,24.3667012 Z" id="Shape" fill="#BDC3C7" fill-rule="nonzero"></path>
                    <g id="Group" stroke-width="1" fill="none" fill-rule="evenodd" transform="translate(31.289062, 27.837891)">
                        <path d="M19.4609375,7.12881055 L19.4609375,0.945511719 C19.4609375,0.457642578 19.0654043,0.0622128906 18.5776387,0.0622128906 L0.9109375,0.0622128906 C0.423068359,0.0622128906 0.0276386719,0.457746094 0.0276386719,0.945511719 L0.0276386719,7.12881055 L19.4609375,7.12881055 Z" id="Shape" fill="#24AE5F" fill-rule="nonzero"></path>
                        <path d="M27.4109375,22.1454082 C27.1005977,22.1456152 26.8128242,21.9829922 26.6529961,21.716957 L24.0029961,17.3002559 C23.833541,17.029459 23.8235,16.688375 23.9765996,16.4081582 C24.1296992,16.1279414 24.4222344,15.9520684 24.7415801,15.9484453 C25.0609258,15.9448223 25.3573945,16.1137598 25.5169121,16.390457 L28.1669121,20.8071582 C28.3307773,21.0798184 28.335332,21.4196602 28.1788164,21.6965645 C28.0224043,21.9736758 27.729041,22.1450977 27.4109375,22.1454082 Z" id="Shape" fill="#24AE5F" fill-rule="nonzero"></path>
                    </g>
                    <g id="Group" stroke-width="1" fill="none" fill-rule="evenodd" transform="translate(24.146484, 32.289062)">
                        <path d="M38.0868145,20.3442363 L33.6701133,20.3442363 L33.6701133,16.6042168 C33.6703203,16.2862168 33.8415352,15.9928535 34.1183359,15.8362344 C34.3951367,15.6796152 34.734668,15.6837559 35.0075352,15.847207 L37.6575352,17.437207 C37.9236738,17.5966211 38.0866074,17.8839805 38.0868145,18.1942168 L38.0868145,20.3442363 Z" id="Shape" fill="#4FBA6F" fill-rule="nonzero"></path>
                        <path d="M32.7868145,0.0275351562 L32.7868145,12.3943398 C32.7868145,12.882209 32.3912812,13.2776387 31.9035156,13.2776387 L26.6035156,13.2776387 L19.5368145,16.8109375 L11.5868145,16.8109375 L3.63681445,14.1609375 L0.62109375,11.1452168 C0.289740234,10.8139668 0.103515625,10.364709 0.103412109,9.89619727 L0.103412109,1.79423633 C0.103412109,0.818498047 0.894375,0.0275351562 1.87011328,0.0275351562 L32.7868145,0.0275351562 Z" id="Shape" fill="#4FBA6F" fill-rule="nonzero"></path>
                    </g>
                    <polygon id="Shape" fill="#24AE5F" fill-rule="nonzero" points="50.75 45.5667012 43.6832988 49.1 35.7332988 49.1 27.7832988 46.45 26.9 45.5667012"></polygon>
                    <g id="Group" stroke-width="1" fill="none" fill-rule="evenodd" transform="translate(24.250000, 35.808594)">
                        <path d="M20.3167012,0.924705078 C20.3167012,1.41257422 19.921168,1.80800391 19.4334023,1.80800391 L0,1.80800391 L0,0.04140625 L19.4332988,0.04140625 C19.921168,0.04140625 20.3167012,0.436939453 20.3167012,0.924705078 Z" id="Shape" fill="#71C285" fill-rule="nonzero"></path>
                        <path d="M27.3832988,1.80810742 L22.9665977,1.80810742 C22.4787285,1.80810742 22.0832988,1.41257422 22.0832988,0.924808594 C22.0832988,0.436939453 22.478832,0.0415097656 22.9665977,0.0415097656 L27.3832988,0.0415097656 C27.871168,0.0415097656 28.2665977,0.437042969 28.2665977,0.924808594 C28.2667012,1.41257422 27.871168,1.80810742 27.3832988,1.80810742 Z" id="Shape" fill="#71C285" fill-rule="nonzero"></path>
                    </g>
                    <g id="Group-2" stroke-width="1" fill="none" fill-rule="evenodd" transform="translate(8.000000, 0.000000)">
                        <circle id="Oval" fill="#F29C1F" fill-rule="nonzero" cx="9.71670117" cy="9.71670117" r="4.41670117"></circle>
                        <g id="Group" fill="#F0C419" fill-rule="nonzero">
                            <path d="M9.71670117,0 C9.22883203,0 8.83340234,0.395533203 8.83340234,0.883298828 L8.83340234,1.76659766 C8.83340234,2.2544668 9.22893555,2.64989648 9.71670117,2.64989648 C10.2045703,2.64989648 10.6,2.25436328 10.6,1.76659766 L10.6,0.883298828 C10.6,0.395533203 10.2044668,0 9.71670117,0 Z" id="Shape"></path>
                            <path d="M4.09518164,2.84605859 C3.74861133,2.51128906 3.19759766,2.51605078 2.85692773,2.85682422 C2.51625781,3.19759766 2.51139258,3.74850781 2.84616211,4.09507813 L3.47067187,4.71958789 C3.69250586,4.94918555 4.02085742,5.04131445 4.32974805,4.96046875 C4.63863867,4.87962305 4.87972656,4.63843164 4.96057227,4.32964453 C5.04141797,4.02075391 4.94928906,3.69240234 4.71969141,3.47056836 L4.09518164,2.84605859 Z" id="Shape"></path>
                            <path d="M1.76670117,8.83329883 L0.883298828,8.83329883 C0.395533203,8.83329883 0,9.22883203 0,9.71670117 C0,10.2045703 0.395533203,10.6 0.883298828,10.6 L1.76659766,10.6 C2.2544668,10.6 2.64989648,10.2044668 2.64989648,9.71670117 C2.65,9.22883203 2.2544668,8.83329883 1.76670117,8.83329883 Z" id="Shape"></path>
                            <path d="M3.47056836,14.7137109 L2.84605859,15.3382207 C2.61646094,15.5600547 2.52433203,15.8884062 2.60517773,16.1972969 C2.68602344,16.506084 2.92721484,16.7472754 3.23600195,16.8281211 C3.54489258,16.9089668 3.87324414,16.8168379 4.09507812,16.5872402 L4.71958789,15.9627305 C4.94918555,15.7408965 5.04131445,15.4125449 4.96046875,15.1036543 C4.87962305,14.7947637 4.63843164,14.5536758 4.32964453,14.4728301 C4.02085742,14.3919844 3.69240234,14.4840098 3.47056836,14.7137109 Z" id="Shape"></path>
                            <path d="M9.71670117,16.7832988 C9.22883203,16.7832988 8.83340234,17.178832 8.83340234,17.6665977 L8.83340234,18.5498965 C8.83340234,19.0377656 9.22893555,19.4331953 9.71670117,19.4331953 C10.2045703,19.4331953 10.6,19.0377656 10.6,18.5498965 L10.6,17.6665977 C10.6,17.178832 10.2044668,16.7832988 9.71670117,16.7832988 Z" id="Shape"></path>
                            <path d="M15.9627305,14.7137109 C15.6161602,14.3789414 15.0651465,14.3837031 14.7244766,14.7244766 C14.3837031,15.06525 14.3789414,15.6161602 14.7137109,15.9627305 L15.3382207,16.5872402 C15.684791,16.9220098 16.2358047,16.917248 16.5764746,16.5764746 C16.9171445,16.2357012 16.9220098,15.684791 16.5872402,15.3382207 L15.9627305,14.7137109 Z" id="Shape"></path>
                            <path d="M18.55,8.83329883 L17.6667012,8.83329883 C17.178832,8.83329883 16.7834023,9.22883203 16.7834023,9.71659766 C16.7834023,10.2044668 17.1789355,10.5998965 17.6667012,10.5998965 L18.55,10.5998965 C19.0378691,10.5998965 19.4332988,10.2043633 19.4332988,9.71659766 C19.4332988,9.22883203 19.0378691,8.83329883 18.55,8.83329883 Z" id="Shape"></path>
                            <path d="M15.3382207,4.97848047 C15.5724766,4.97848047 15.7971055,4.88531641 15.9627305,4.71969141 L16.5872402,4.09518164 C16.9220098,3.74861133 16.917248,3.19759766 16.5764746,2.85692773 C16.2357012,2.51625781 15.684791,2.51139258 15.3382207,2.84616211 L14.7137109,3.47067187 C14.4611328,3.72325 14.3856699,4.10315234 14.5223105,4.43316016 C14.6589512,4.76316797 14.9809883,4.97837695 15.3382207,4.97848047 Z" id="Shape"></path>
                        </g>
                    </g>
                    <path d="M51.6332988,32.3167012 L51.6332988,39.3834023 C51.6332988,39.8712715 52.0287285,40.2667012 52.5165977,40.2667012 L57.179666,40.2667012 C57.5600859,40.2668047 57.8977539,40.0233359 58.0179355,39.6624805 L60.4664941,32.3167012 L51.6332988,32.3167012 Z" id="Shape" fill="#B0D3F0" fill-rule="nonzero"></path>
                    <path d="M63.1167012,31.4332988 C63.1167012,31.921168 62.721168,32.3165977 62.2334023,32.3165977 L50.75,32.3165977 L50.75,30.55 L62.2332988,30.55 C62.721168,30.55 63.1167012,30.9455332 63.1167012,31.4332988 Z" id="Shape" fill="#547580" fill-rule="nonzero"></path>
                    <circle id="Oval" fill="#5E5F62" fill-rule="nonzero" cx="48.1" cy="49.1" r="4.41670117"></circle>
                    <circle id="Oval" fill="#FF5364" fill-rule="nonzero" cx="48.1" cy="49.1" r="1.76670117"></circle>
                    <circle id="Oval" fill="#5E5F62" fill-rule="nonzero" cx="31.3167012" cy="49.1" r="4.41670117"></circle>
                    <circle id="Oval" fill="#FF5364" fill-rule="nonzero" cx="31.3167012" cy="49.1" r="1.76670117"></circle>
                    <rect id="Rectangle-path" fill="#B19046" fill-rule="nonzero" x="0.941649414" y="53.5167012" width="73.1165977" height="10.6"></rect>
                    <g id="Group" stroke-width="1" fill="none" fill-rule="evenodd" transform="translate(1.000000, 52.578125)">
                        <path d="M1.18328942,1.821875 L69.8167106,1.821875 C70.4702724,1.821875 71,1.4263418 71,0.938576172 C71,0.450810547 70.4702724,0.0552773437 69.8167106,0.0552773437 L1.18328942,0.0552773437 C0.529727597,0.0552773437 0,0.450707031 0,0.938576172 C0,1.42644531 0.529866269,1.821875 1.18328942,1.821875 Z" id="Shape" fill="#E4C05C" fill-rule="nonzero"></path>
                        <path d="M62.1167012,10.6551738 L10.8832988,10.6551738 C10.3954297,10.6551738 10,11.050707 10,11.5384727 C10,12.0264453 10.3955332,12.421875 10.8832988,12.421875 L62.1165977,12.421875 C62.6044668,12.421875 62.9998965,12.0264453 62.9998965,11.5385762 C63,11.050707 62.6045703,10.6551738 62.1167012,10.6551738 Z" id="Shape" fill="#E4C05C" fill-rule="nonzero"></path>
                        <path d="M56.1167012,3.58857617 L46.4,3.58857617 C45.9121309,3.58857617 45.5167012,3.98400586 45.5167012,4.471875 C45.5167012,4.95974414 45.9122344,5.35517383 46.4,5.35517383 L56.1167012,5.35517383 C56.6045703,5.35517383 57,4.95964062 57,4.471875 C57,3.98410938 56.6045703,3.58857617 56.1167012,3.58857617 Z" id="Shape" fill="#E4C05C" fill-rule="nonzero"></path>
                        <path d="M64.1167012,7.121875 L54.4,7.121875 C53.9121309,7.121875 53.5167012,7.5174082 53.5167012,8.00517383 C53.5167012,8.49304297 53.9122344,8.88847266 54.4,8.88847266 L64.1167012,8.88847266 C64.6045703,8.88847266 65,8.49293945 65,8.00517383 C65,7.5174082 64.6045703,7.121875 64.1167012,7.121875 Z" id="Shape" fill="#E4C05C" fill-rule="nonzero"></path>
                        <path d="M0.883298828,5.35517383 L38.8665977,5.35517383 C39.3544668,5.35517383 39.7498965,4.95964062 39.7498965,4.471875 C39.7498965,3.98410938 39.3543633,3.58857617 38.8665977,3.58857617 L0.883298828,3.58857617 C0.395429688,3.58857617 0,3.98400586 0,4.471875 C0,4.95974414 0.395533203,5.35517383 0.883298828,5.35517383 Z" id="Shape" fill="#E4C05C" fill-rule="nonzero"></path>
                        <path d="M1.88329883,8.88857617 L11.6,8.88857617 C12.0878691,8.88857617 12.4832988,8.49304297 12.4832988,8.00527734 C12.4832988,7.5174082 12.0877656,7.12197852 11.6,7.12197852 L1.88329883,7.12197852 C1.3955332,7.121875 1,7.5174082 1,8.00517383 C1,8.49304297 1.3955332,8.88857617 1.88329883,8.88857617 Z" id="Shape" fill="#E4C05C" fill-rule="nonzero"></path>
                        <path d="M42.8667012,7.121875 L18.1332988,7.121875 C17.6454297,7.121875 17.25,7.5174082 17.25,8.00517383 C17.25,8.49304297 17.6455332,8.88847266 18.1332988,8.88847266 L42.8665977,8.88847266 C43.3544668,8.88847266 43.7498965,8.49293945 43.7498965,8.00517383 C43.75,7.5174082 43.3545703,7.121875 42.8667012,7.121875 Z" id="Shape" fill="#E4C05C" fill-rule="nonzero"></path>
                    </g>
                </g>
            </g>
        </g>
    </g>
</svg>