<?xml version="1.0" encoding="UTF-8"?>
<svg width="73px" height="73px" viewBox="0 0 73 73" version="1.1" xmlns="http://www.w3.org/2000/svg" xmlns:xlink="http://www.w3.org/1999/xlink">
    <!-- Generator: Sketch 51.3 (57544) - http://www.bohemiancoding.com/sketch -->
    <title>build-tools/typescript</title>
    <desc>Created with Sketch.</desc>
    <defs>
        <rect id="path-1" x="4" y="4" width="69" height="69" rx="14"></rect>
    </defs>
    <g id="build-tools/typescript" stroke="none" stroke-width="1" fill="none" fill-rule="evenodd">
        <g id="container" transform="translate(-2.000000, -2.000000)">
            <rect id="mask" stroke="#003355" stroke-width="2" fill="#FFFFFF" fill-rule="nonzero" x="3" y="3" width="71" height="71" rx="14"></rect>
            <mask id="mask-2" fill="white">
                <use xlink:href="#path-1"></use>
            </mask>
            <rect stroke="#003355" stroke-width="2" x="3" y="3" width="71" height="71" rx="14"></rect>
            <g id="logo" mask="url(#mask-2)" fill="#007ACC" fill-rule="nonzero">
                <g id="Group" transform="translate(36.500000, 36.500000) scale(-1, 1) rotate(-180.000000) translate(-36.500000, -36.500000) ">
                    <path d="M0,36.5 L0,0 L36.5,0 L73,0 L73,36.5 L73,73 L36.5,73 L0,73 L0,36.5 Z M58.8287302,39.4084127 C60.6826984,38.9449206 62.0963492,38.1222222 63.394127,36.7780952 C64.0661905,36.0596825 65.0626984,34.7503175 65.1438095,34.4374603 C65.1669841,34.3447619 61.9920635,32.2126984 60.0685714,31.0192063 C59.9990476,30.9728571 59.7209524,31.274127 59.4080952,31.737619 C58.4695238,33.1049206 57.4846032,33.695873 55.978254,33.8001587 C53.7650794,33.9507937 52.3398413,32.7920635 52.3514286,30.8569841 C52.3514286,30.2892063 52.4325397,29.9531746 52.6642857,29.4896825 C53.1509524,28.4815873 54.0547619,27.8790476 56.8936508,26.6507937 C62.1195238,24.4028571 64.355873,22.9196825 65.7463492,20.8107937 C67.2990476,18.4585714 67.6466667,14.7042857 66.5922222,11.911746 C65.4334921,8.87587302 62.5598413,6.81333333 58.515873,6.12968254 C57.2644444,5.90952381 54.2980952,5.94428571 52.9539683,6.18761905 C50.022381,6.70904762 47.2414286,8.15746032 45.5265079,10.0577778 C44.8544444,10.7993651 43.5450794,12.7344444 43.6261905,12.8734921 C43.6609524,12.9198413 43.9622222,13.1052381 44.298254,13.3022222 C44.6226984,13.487619 45.8509524,14.1944444 47.0096825,14.8665079 L49.1069841,16.0831746 L49.5473016,15.4342857 C50.1614286,14.4957143 51.5055556,13.2095238 52.3166667,12.7807937 C54.6457143,11.5525397 57.8438095,11.7263492 59.4196825,13.14 C60.091746,13.754127 60.3698413,14.3914286 60.3698413,15.33 C60.3698413,16.175873 60.2655556,16.5466667 59.8252381,17.1839683 C59.2574603,17.9950794 58.0987302,18.6787302 54.8079365,20.1039683 C51.0420635,21.7261905 49.4198413,22.7342857 47.9366667,24.3333333 C47.0792063,25.2603175 46.2680952,26.7434921 45.9320635,27.9833333 C45.6539683,29.0146032 45.5844444,31.5985714 45.8046032,32.6414286 C46.5809524,36.2798413 49.3271429,38.8174603 53.29,39.5706349 C54.5761905,39.8139683 57.5657143,39.7212698 58.8287302,39.4084127 Z M41.6911111,36.3609524 L41.7142857,33.3714286 L36.9634921,33.3714286 L32.2126984,33.3714286 L32.2126984,19.8722222 L32.2126984,6.37301587 L28.852381,6.37301587 L25.4920635,6.37301587 L25.4920635,19.8722222 L25.4920635,33.3714286 L20.7412698,33.3714286 L15.9904762,33.3714286 L15.9904762,36.3030159 C15.9904762,37.9252381 16.0252381,39.2809524 16.0715873,39.3157143 C16.1063492,39.3620635 21.8884127,39.3852381 28.8987302,39.3736508 L41.6563492,39.3388889 L41.6911111,36.3609524 Z" id="Shape"></path>
                </g>
            </g>
        </g>
    </g>
</svg>