<?xml version="1.0" encoding="UTF-8"?>
<svg width="73px" height="73px" viewBox="0 0 73 73" version="1.1" xmlns="http://www.w3.org/2000/svg" xmlns:xlink="http://www.w3.org/1999/xlink">
    <!-- Generator: Sketch 51.3 (57544) - http://www.bohemiancoding.com/sketch -->
    <title>build-tools/yarn</title>
    <desc>Created with Sketch.</desc>
    <defs></defs>
    <g id="build-tools/yarn" stroke="none" stroke-width="1" fill="none" fill-rule="evenodd">
        <g id="container" transform="translate(2.000000, 2.000000)" fill-rule="nonzero">
            <rect id="mask" stroke="#054665" stroke-width="2" fill="#117CAD" x="-1" y="-1" width="71" height="71" rx="14"></rect>
            <g id="gpr-yarn-logo" transform="translate(16.000000, 16.000000)">
                <path d="M27.9920398,23.0218905 C26.8507463,23.0218905 25.8199005,23.6477612 24.9731343,24.1631841 C23.3532338,25.1572139 22.5800995,25.0835821 22.5800995,25.0835821 C22.5800995,25.0835821 22.5800995,25.0835821 22.5432836,25.0467662 C22.4328358,24.8626866 23.0587065,23.279602 22.359204,21.3651741 C21.5860697,19.2666667 20.4079602,18.7512438 20.518408,18.6039801 C20.9233831,17.9044776 21.9542289,16.8 22.359204,14.7751244 C22.6169154,13.5233831 22.5432836,11.4985075 21.9910448,10.4308458 C21.880597,10.2467662 20.9970149,10.7621891 20.9970149,10.7621891 C20.9970149,10.7621891 20.1502488,8.88457711 19.8925373,8.70049751 C19.119403,8.22189055 18.3094527,10.7253731 18.3094527,10.7253731 C18.3094527,10.7253731 16.5054726,10.4676617 15.1432836,11.9402985 C14.8855721,12.2348259 14.480597,12.4189055 14.1124378,12.5661692 C14.00199,12.6029851 13.8547264,12.6029851 13.5233831,13.4865672 C13.0079602,14.8487562 14.3701493,16.3950249 14.3701493,16.3950249 C14.3701493,16.3950249 12.7502488,17.5363184 12.1243781,19.0089552 C11.4616915,20.5920398 11.6457711,22.1383085 11.6457711,22.1383085 C11.6457711,22.1383085 10.4676617,23.1323383 10.3940299,24.2 C10.320398,25.120398 10.5781095,25.8567164 10.8726368,26.2985075 C11.2039801,26.7771144 11.5721393,26.5562189 11.5721393,26.5562189 C11.5721393,26.5562189 10.8358209,27.3661692 11.5721393,27.7343284 C12.2348259,28.0656716 13.3393035,28.2865672 13.9283582,27.6975124 C14.3701493,27.2557214 14.4437811,26.2985075 14.5910448,25.9303483 C14.6278607,25.8567164 14.7751244,26.0776119 14.8855721,26.1880597 C15.0328358,26.2985075 15.2537313,26.4457711 15.2537313,26.4457711 C15.2537313,26.4457711 14.2228856,26.8875622 14.6278607,27.918408 C14.7751244,28.2497512 15.2905473,28.4706468 16.1004975,28.4706468 C16.3950249,28.4706468 19.7820896,28.2865672 20.6656716,28.0656716 C21.1810945,27.9552239 21.3651741,27.6606965 21.3651741,27.6606965 C21.3651741,27.6606965 23.5373134,27.0716418 25.4885572,25.7830846 C26.7402985,24.9731343 27.2557214,24.7522388 28.2865672,24.4945274 C29.1701493,24.3104478 29.0965174,23.0218905 27.9920398,23.0218905 Z" id="Shape" fill="#117CAD"></path>
                <path d="M18.5671642,0 C8.3345937,0 2.84217094e-14,8.3345937 2.84217094e-14,18.5671642 C2.84217094e-14,28.7997347 8.3345937,37.1343284 18.5671642,37.1343284 C28.7997347,37.1343284 37.1343284,28.7997347 37.1343284,18.5671642 C37.1343284,8.3345937 28.7997347,0 18.5671642,0 Z M29.7487231,26.2828524 C28.7584743,26.5304146 28.2633499,26.6954561 26.9430182,27.6031841 C25.0450415,28.840995 23.0232836,29.5424212 22.280597,29.7487231 C22.0330348,29.9550249 21.7029519,30.1613267 21.2078275,30.2851078 C20.0525373,30.5739303 16.174063,30.7802322 15.8439801,30.7802322 L15.7614594,30.7802322 C14.5649088,30.7802322 13.8634826,30.4088889 13.5333997,30.0375456 C12.5018905,30.53267 11.1815589,30.3263682 10.2325705,29.8312438 C9.7374461,29.5836816 9.44862355,29.1710779 9.32484245,28.6759536 C9.28358209,28.4696517 9.28358209,28.2633499 9.32484245,28.0570481 C9.24232172,27.9745274 9.159801,27.8507463 9.07728027,27.7682255 C8.82971808,27.3968823 8.25207297,26.3241128 8.37585406,24.7562189 C8.45837479,23.6421891 9.24232172,22.6519403 9.7374461,22.1155556 C9.69618574,21.372869 9.77870647,20.0112769 10.3563516,18.6084245 C10.8102156,17.4943947 11.7179436,16.5041459 12.4193698,15.9265008 C11.9242454,15.1012935 11.4291211,13.8222222 11.9242454,12.5018905 C12.2955887,11.5529022 12.5431509,11.0577778 13.2033167,10.851476 C13.4921393,10.7276949 13.8222222,10.6039138 13.9460033,10.4388723 C15.1425539,9.11854063 16.5866667,8.78845771 17.4943947,8.74719735 C17.5356551,8.62341625 17.6181758,8.45837479 17.7006965,8.29333333 C18.1958209,7.26182421 18.6909453,6.6841791 19.2685904,6.47787728 C19.7224544,6.31283582 20.1763184,6.35409619 20.5889221,6.64291874 C20.7952239,6.76669983 21.0427861,6.93174129 21.7442123,8.41711443 C22.2393367,8.29333333 22.4868988,8.3345937 22.6106799,8.37585406 C22.9407629,8.45837479 23.188325,8.66467662 23.3121061,8.95349917 C24.0547927,10.3563516 24.1373134,12.9144942 23.8484909,14.5236484 C23.4771476,16.4216252 22.6932007,17.6594362 22.1155556,18.5259038 C22.6106799,19.0210282 23.3121061,19.9287562 23.8484909,21.3316086 C24.2610945,22.5281592 24.3436153,23.6009287 24.2610945,24.4673964 C24.5086567,24.3436153 24.8387396,24.1785738 25.2100829,23.972272 C26.1178109,23.3946269 27.5206633,22.5694196 29.1710779,22.5281592 C30.2851078,22.5281592 31.1515755,23.2295854 31.2753566,24.2198342 C31.3166169,25.1688226 30.6977114,26.0765506 29.7487231,26.2828524 Z" id="Shape" fill="#FFFFFF"></path>
            </g>
        </g>
    </g>
</svg>