<?xml version="1.0" encoding="UTF-8"?>
<svg width="73px" height="73px" viewBox="0 0 73 73" version="1.1" xmlns="http://www.w3.org/2000/svg" xmlns:xlink="http://www.w3.org/1999/xlink">
    <!-- Generator: Sketch 51.3 (57544) - http://www.bohemiancoding.com/sketch -->
    <title>progressive-webapps/apis/add-to-homescreen</title>
    <desc>Created with Sketch.</desc>
    <defs></defs>
    <g id="progressive-webapps/apis/add-to-homescreen" stroke="none" stroke-width="1" fill="none" fill-rule="evenodd">
        <g id="container" transform="translate(2.000000, 2.000000)" fill="#FFFFFF" fill-rule="nonzero" stroke="#30303C" stroke-width="2">
            <rect id="mask" x="-1" y="-1" width="71" height="71" rx="14"></rect>
        </g>
        <g id="smartphone" transform="translate(24.000000, 11.000000)" fill-rule="nonzero">
            <path d="M23.3541579,0 L2.64584211,0 C1.21623308,0 0.0572781955,1.15895489 0.0572781955,2.58856391 L0.0572781955,47.4565489 C0.0572781955,48.8861579 1.21623308,50.0451128 2.64584211,50.0451128 L23.3541579,50.0451128 C24.7837669,50.0451128 25.9427218,48.8861579 25.9427218,47.4565489 L25.9427218,2.58856391 C25.9427218,1.15895489 24.7837669,0 23.3541579,0 Z M9.54864662,3.45135338 C9.54864662,2.97484962 9.93503008,2.58846617 10.4115338,2.58846617 L15.5886617,2.58846617 C16.0651654,2.58846617 16.4515489,2.97484962 16.4515489,3.45135338 C16.4515489,3.92785714 16.0651654,4.3142406 15.5886617,4.3142406 L10.4115338,4.3142406 C9.93493233,4.3142406 9.54864662,3.92785714 9.54864662,3.45135338 Z M6.96008271,2.58856391 C7.43658647,2.58856391 7.82296992,2.97494737 7.82296992,3.45145113 C7.82296992,3.92795489 7.43658647,4.31433835 6.96008271,4.31433835 C6.48357895,4.31433835 6.09719549,3.92795489 6.09719549,3.45145113 C6.09719549,2.97494737 6.48357895,2.58856391 6.96008271,2.58856391 Z M13,48.3194361 C12.0468947,48.3194361 11.2743233,47.5467669 11.2743233,46.5937594 C11.2743233,45.6406541 12.0468947,44.8680827 13,44.8680827 C13.9531053,44.8680827 14.7256767,45.6406541 14.7256767,46.5937594 C14.7256767,47.5467669 13.9531053,48.3194361 13,48.3194361 Z M24.2170451,32.7881504 L24.2170451,43.1423083 L1.78295489,43.1423083 L1.78295489,32.7881504 L1.78295489,6.90280451 L24.2170451,6.90280451 L24.2169474,32.7881504 L24.2170451,32.7881504 Z" id="Shape" fill="#707384"></path>
            <path d="M1.78295489,32.7881504 L8.6857594,32.7881504 C8.6857594,32.3116466 9.07214286,31.9252632 9.54864662,31.9252632 C10.0251504,31.9252632 10.4115338,32.3116466 10.4115338,32.7881504 L12.1372105,32.7881504 C12.1372105,32.3116466 12.523594,31.9252632 13.0000977,31.9252632 C13.4766015,31.9252632 13.862985,32.3116466 13.862985,32.7881504 L15.5886617,32.7881504 C15.5886617,32.3116466 15.9750451,31.9252632 16.4515489,31.9252632 C16.9280526,31.9252632 17.3144361,32.3116466 17.3144361,32.7881504 L24.2172406,32.7881504 L24.2172406,6.90280451 L1.78295489,6.90280451 L1.78295489,32.7881504 Z M17.3142406,11.2170451 C17.3142406,10.7405414 17.7006241,10.3541579 18.1771278,10.3541579 L21.6284812,10.3541579 C22.104985,10.3541579 22.4913684,10.7405414 22.4913684,11.2170451 L22.4913684,14.6683985 C22.4913684,15.1449023 22.104985,15.5312857 21.6284812,15.5312857 L18.1771278,15.5312857 C17.7006241,15.5312857 17.3142406,15.1449023 17.3142406,14.6683985 L17.3142406,11.2170451 Z M17.3142406,18.1197519 C17.3142406,17.6432481 17.7006241,17.2568647 18.1771278,17.2568647 L21.6284812,17.2568647 C22.104985,17.2568647 22.4913684,17.6432481 22.4913684,18.1197519 L22.4913684,21.5711053 C22.4913684,22.047609 22.104985,22.4339925 21.6284812,22.4339925 L18.1771278,22.4339925 C17.7006241,22.4339925 17.3142406,22.047609 17.3142406,21.5711053 L17.3142406,18.1197519 Z M17.3142406,25.0225564 C17.3142406,24.5460526 17.7006241,24.1596692 18.1771278,24.1596692 L21.6284812,24.1596692 C22.104985,24.1596692 22.4913684,24.5460526 22.4913684,25.0225564 L22.4913684,28.4739098 C22.4913684,28.9504135 22.104985,29.336797 21.6284812,29.336797 L18.1771278,29.336797 C17.7006241,29.336797 17.3142406,28.9504135 17.3142406,28.4739098 L17.3142406,25.0225564 Z M10.4114361,11.2170451 C10.4114361,10.7405414 10.7978195,10.3541579 11.2743233,10.3541579 L14.7256767,10.3541579 C15.2021805,10.3541579 15.5885639,10.7405414 15.5885639,11.2170451 L15.5885639,14.6683985 C15.5885639,15.1449023 15.2021805,15.5312857 14.7256767,15.5312857 L11.2743233,15.5312857 C10.7978195,15.5312857 10.4114361,15.1449023 10.4114361,14.6683985 L10.4114361,11.2170451 Z M10.4114361,18.1197519 C10.4114361,17.6432481 10.7978195,17.2568647 11.2743233,17.2568647 L14.7256767,17.2568647 C15.2021805,17.2568647 15.5885639,17.6432481 15.5885639,18.1197519 L15.5885639,21.5711053 C15.5885639,22.047609 15.2021805,22.4339925 14.7256767,22.4339925 L11.2743233,22.4339925 C10.7978195,22.4339925 10.4114361,22.047609 10.4114361,21.5711053 L10.4114361,18.1197519 Z M10.4114361,25.0225564 C10.4114361,24.5460526 10.7978195,24.1596692 11.2743233,24.1596692 L14.7256767,24.1596692 C15.2021805,24.1596692 15.5885639,24.5460526 15.5885639,25.0225564 L15.5885639,28.4739098 C15.5885639,28.9504135 15.2021805,29.336797 14.7256767,29.336797 L11.2743233,29.336797 C10.7978195,29.336797 10.4114361,28.9504135 10.4114361,28.4739098 L10.4114361,25.0225564 Z M3.50872932,11.2170451 C3.50872932,10.7405414 3.89511278,10.3541579 4.37161654,10.3541579 L7.82296992,10.3541579 C8.29947368,10.3541579 8.68585714,10.7405414 8.68585714,11.2170451 L8.68585714,14.6683985 C8.68585714,15.1449023 8.29947368,15.5312857 7.82296992,15.5312857 L4.37161654,15.5312857 C3.89511278,15.5312857 3.50872932,15.1449023 3.50872932,14.6683985 L3.50872932,11.2170451 Z M3.50872932,18.1197519 C3.50872932,17.6432481 3.89511278,17.2568647 4.37161654,17.2568647 L7.82296992,17.2568647 C8.29947368,17.2568647 8.68585714,17.6432481 8.68585714,18.1197519 L8.68585714,21.5711053 C8.68585714,22.047609 8.29947368,22.4339925 7.82296992,22.4339925 L4.37161654,22.4339925 C3.89511278,22.4339925 3.50872932,22.047609 3.50872932,21.5711053 L3.50872932,18.1197519 Z M3.50872932,25.0225564 C3.50872932,24.5460526 3.89511278,24.1596692 4.37161654,24.1596692 L7.82296992,24.1596692 C8.29947368,24.1596692 8.68585714,24.5460526 8.68585714,25.0225564 L8.68585714,28.4739098 C8.68585714,28.9504135 8.29947368,29.336797 7.82296992,29.336797 L4.37161654,29.336797 C3.89511278,29.336797 3.50872932,28.9504135 3.50872932,28.4739098 L3.50872932,25.0225564 Z" id="Shape" fill="#63AFDB"></path>
            <path d="M16.4513534,33.6510376 C15.9748496,33.6510376 15.5884662,33.2646541 15.5884662,32.7881504 L13.8627895,32.7881504 C13.8627895,33.2646541 13.476406,33.6510376 12.9999023,33.6510376 C12.5233985,33.6510376 12.137015,33.2646541 12.137015,32.7881504 L10.4113383,32.7881504 C10.4113383,33.2646541 10.0249549,33.6510376 9.54845113,33.6510376 C9.07194737,33.6510376 8.68556391,33.2646541 8.68556391,32.7881504 L1.7827594,32.7881504 L1.7827594,43.1423083 L24.2167519,43.1423083 L24.2167519,32.7881504 L17.3139474,32.7881504 C17.3142406,33.2646541 16.9278571,33.6510376 16.4513534,33.6510376 Z M8.6857594,39.6909549 C8.6857594,40.1674586 8.29937594,40.5538421 7.82287218,40.5538421 L4.3715188,40.5538421 C3.89501504,40.5538421 3.50863158,40.1674586 3.50863158,39.6909549 L3.50863158,36.2396015 C3.50863158,35.7630977 3.89501504,35.3767143 4.3715188,35.3767143 L7.82287218,35.3767143 C8.29937594,35.3767143 8.6857594,35.7630977 8.6857594,36.2396015 L8.6857594,39.6909549 Z M15.5885639,39.6909549 C15.5885639,40.1674586 15.2021805,40.5538421 14.7256767,40.5538421 L11.2743233,40.5538421 C10.7978195,40.5538421 10.4114361,40.1674586 10.4114361,39.6909549 L10.4114361,36.2396015 C10.4114361,35.7630977 10.7978195,35.3767143 11.2743233,35.3767143 L14.7256767,35.3767143 C15.2021805,35.3767143 15.5885639,35.7630977 15.5885639,36.2396015 L15.5885639,39.6909549 Z M18.1771278,35.3767143 L21.6284812,35.3767143 C22.104985,35.3767143 22.4913684,35.7630977 22.4913684,36.2396015 L22.4913684,39.6909549 C22.4913684,40.1674586 22.104985,40.5538421 21.6284812,40.5538421 L18.1771278,40.5538421 C17.7006241,40.5538421 17.3142406,40.1674586 17.3142406,39.6909549 L17.3142406,36.2396015 C17.3142406,35.7630977 17.7005263,35.3767143 18.1771278,35.3767143 Z" id="Shape" fill="#468CBE"></path>
            <g id="Group" transform="translate(6.060150, 2.541353)" fill="#464655">
                <path d="M4.35128571,1.77288722 L9.52841353,1.77288722 C10.0049173,1.77288722 10.3913008,1.38650376 10.3913008,0.91 C10.3913008,0.433496241 10.0049173,0.047112782 9.52841353,0.047112782 L4.35128571,0.047112782 C3.87478195,0.047112782 3.4883985,0.433496241 3.4883985,0.91 C3.48849624,1.38650376 3.87478195,1.77288722 4.35128571,1.77288722 Z" id="Shape"></path>
                <circle id="Oval" cx="0.899932331" cy="0.91" r="1"></circle>
                <circle id="Oval" cx="6.93984962" cy="44.052406" r="1.72567669"></circle>
            </g>
            <path d="M14.7256767,35.3767143 L11.2743233,35.3767143 C10.7978195,35.3767143 10.4114361,35.7630977 10.4114361,36.2396015 L10.4114361,39.6909549 C10.4114361,40.1674586 10.7978195,40.5538421 11.2743233,40.5538421 L14.7256767,40.5538421 C15.2021805,40.5538421 15.5885639,40.1674586 15.5885639,39.6909549 L15.5885639,36.2396015 C15.5885639,35.7630977 15.2021805,35.3767143 14.7256767,35.3767143 Z M13,39.6909549 C12.0468947,39.6909549 11.2743233,38.9182857 11.2743233,37.9652782 C11.2743233,37.0121729 12.0468947,36.2396015 13,36.2396015 C13.9531053,36.2396015 14.7256767,37.0121729 14.7256767,37.9652782 C14.7256767,38.9182857 13.9531053,39.6909549 13,39.6909549 Z" id="Shape" fill="#63AFDB"></path>
            <path d="M17.3142406,39.6909549 C17.3142406,40.1674586 17.7006241,40.5538421 18.1771278,40.5538421 L21.6284812,40.5538421 C22.104985,40.5538421 22.4913684,40.1674586 22.4913684,39.6909549 L22.4913684,36.2396015 C22.4913684,35.7630977 22.104985,35.3767143 21.6284812,35.3767143 L18.1771278,35.3767143 C17.7006241,35.3767143 17.3142406,35.7630977 17.3142406,36.2396015 L17.3142406,39.6909549 Z" id="Shape" fill="#FF6469"></path>
            <path d="M7.82287218,35.3767143 L4.3715188,35.3767143 C3.89501504,35.3767143 3.50863158,35.7630977 3.50863158,36.2396015 L3.50863158,39.6909549 C3.50863158,40.1674586 3.89501504,40.5538421 4.3715188,40.5538421 L7.82287218,40.5538421 C8.29937594,40.5538421 8.6857594,40.1674586 8.6857594,39.6909549 L8.6857594,36.2396015 C8.6857594,35.7630977 8.29947368,35.3767143 7.82287218,35.3767143 Z" id="Shape" fill="#00DCCD"></path>
            <path d="M11.2743233,29.336797 L14.7256767,29.336797 C15.2021805,29.336797 15.5885639,28.9504135 15.5885639,28.4739098 L15.5885639,25.0225564 C15.5885639,24.5460526 15.2021805,24.1596692 14.7256767,24.1596692 L11.2743233,24.1596692 C10.7978195,24.1596692 10.4114361,24.5460526 10.4114361,25.0225564 L10.4114361,28.4739098 C10.4114361,28.9504135 10.7978195,29.336797 11.2743233,29.336797 Z" id="Shape" fill="#FFDC69"></path>
            <path d="M18.1771278,29.336797 L21.6284812,29.336797 C22.104985,29.336797 22.4913684,28.9504135 22.4913684,28.4739098 L22.4913684,25.0225564 C22.4913684,24.5460526 22.104985,24.1596692 21.6284812,24.1596692 L18.1771278,24.1596692 C17.7006241,24.1596692 17.3142406,24.5460526 17.3142406,25.0225564 L17.3142406,28.4739098 C17.3142406,28.9504135 17.7005263,29.336797 18.1771278,29.336797 Z M18.1771278,26.7482331 C18.1771278,26.2717293 18.5635113,25.8853459 19.040015,25.8853459 L20.7656917,25.8853459 C21.2421955,25.8853459 21.6285789,26.2717293 21.6285789,26.7482331 C21.6285789,27.2247368 21.2421955,27.6111203 20.7656917,27.6111203 L19.040015,27.6111203 C18.5634135,27.6111203 18.1771278,27.2247368 18.1771278,26.7482331 Z" id="Shape" fill="#FFFFFF"></path>
            <path d="M4.3715188,29.336797 L7.82287218,29.336797 C8.29937594,29.336797 8.6857594,28.9504135 8.6857594,28.4739098 L8.6857594,25.0225564 C8.6857594,24.5460526 8.29937594,24.1596692 7.82287218,24.1596692 L4.3715188,24.1596692 C3.89501504,24.1596692 3.50863158,24.5460526 3.50863158,25.0225564 L3.50863158,28.4739098 C3.50872932,28.9504135 3.89501504,29.336797 4.3715188,29.336797 Z M4.3715188,26.7482331 C4.3715188,26.2717293 4.75790226,25.8853459 5.23440602,25.8853459 L6.96008271,25.8853459 C7.43658647,25.8853459 7.82296992,26.2717293 7.82296992,26.7482331 C7.82296992,27.2247368 7.43658647,27.6111203 6.96008271,27.6111203 L5.23440602,27.6111203 C4.75790226,27.6111203 4.3715188,27.2247368 4.3715188,26.7482331 Z" id="Shape" fill="#468CBE"></path>
            <path d="M11.2743233,22.4339925 L14.7256767,22.4339925 C15.2021805,22.4339925 15.5885639,22.047609 15.5885639,21.5711053 L15.5885639,18.1197519 C15.5885639,17.6432481 15.2021805,17.2568647 14.7256767,17.2568647 L11.2743233,17.2568647 C10.7978195,17.2568647 10.4114361,17.6432481 10.4114361,18.1197519 L10.4114361,21.5711053 C10.4114361,22.0477068 10.7978195,22.4339925 11.2743233,22.4339925 Z M11.2743233,19.8454286 C11.2743233,19.3689248 11.6607068,18.9825414 12.1372105,18.9825414 L13.8628872,18.9825414 C14.339391,18.9825414 14.7257744,19.3689248 14.7257744,19.8454286 C14.7257744,20.3219323 14.339391,20.7083158 13.8628872,20.7083158 L12.1372105,20.7083158 C11.660609,20.7083158 11.2743233,20.3220301 11.2743233,19.8454286 Z" id="Shape" fill="#464655"></path>
            <path d="M18.1771278,22.4339925 L21.6284812,22.4339925 C22.104985,22.4339925 22.4913684,22.047609 22.4913684,21.5711053 L22.4913684,18.1197519 C22.4913684,17.6432481 22.104985,17.2568647 21.6284812,17.2568647 L18.1771278,17.2568647 C17.7006241,17.2568647 17.3142406,17.6432481 17.3142406,18.1197519 L17.3142406,21.5711053 C17.3142406,22.0477068 17.7005263,22.4339925 18.1771278,22.4339925 Z" id="Shape" fill="#FFA055"></path>
            <path d="M4.3715188,22.4339925 L7.82287218,22.4339925 C8.29937594,22.4339925 8.6857594,22.047609 8.6857594,21.5711053 L8.6857594,18.1197519 C8.6857594,17.6432481 8.29937594,17.2568647 7.82287218,17.2568647 L4.3715188,17.2568647 C3.89501504,17.2568647 3.50863158,17.6432481 3.50863158,18.1197519 L3.50863158,21.5711053 C3.50872932,22.0477068 3.89501504,22.4339925 4.3715188,22.4339925 Z M6.09719549,18.1197519 C7.05030075,18.1197519 7.82287218,18.8923233 7.82287218,19.8454286 C7.82287218,20.7984361 7.05030075,21.5711053 6.09719549,21.5711053 C5.14409023,21.5711053 4.3715188,20.7984361 4.3715188,19.8454286 C4.3715188,18.8923233 5.14409023,18.1197519 6.09719549,18.1197519 Z" id="Shape" fill="#A0D778"></path>
            <path d="M11.2743233,15.5312857 L14.7256767,15.5312857 C15.2021805,15.5312857 15.5885639,15.1449023 15.5885639,14.6683985 L15.5885639,11.2170451 C15.5885639,10.7405414 15.2021805,10.3541579 14.7256767,10.3541579 L11.2743233,10.3541579 C10.7978195,10.3541579 10.4114361,10.7405414 10.4114361,11.2170451 L10.4114361,14.6683985 C10.4114361,15.1449023 10.7978195,15.5312857 11.2743233,15.5312857 Z" id="Shape" fill="#FF6469"></path>
            <path d="M18.1771278,15.5312857 L21.6284812,15.5312857 C22.104985,15.5312857 22.4913684,15.1449023 22.4913684,14.6683985 L22.4913684,11.2170451 C22.4913684,10.7405414 22.104985,10.3541579 21.6284812,10.3541579 L18.1771278,10.3541579 C17.7006241,10.3541579 17.3142406,10.7405414 17.3142406,11.2170451 L17.3142406,14.6683985 C17.3142406,15.1449023 17.7005263,15.5312857 18.1771278,15.5312857 Z M19.9028045,11.2170451 C20.8559098,11.2170451 21.6284812,11.9896165 21.6284812,12.9427218 C21.6284812,13.8957293 20.8559098,14.6683985 19.9028045,14.6683985 C18.9496992,14.6683985 18.1771278,13.8957293 18.1771278,12.9427218 C18.1771278,11.9896165 18.9496992,11.2170451 19.9028045,11.2170451 Z" id="Shape" fill="#00DCCD"></path>
            <g id="Group" transform="translate(3.421053, 10.263158)" fill="#FFDC69">
                <path d="M0.950466165,5.26812782 L4.40181955,5.26812782 C4.87832331,5.26812782 5.26470677,4.88174436 5.26470677,4.4052406 L5.26470677,0.953887218 C5.26470677,0.477383459 4.87832331,0.091 4.40181955,0.091 L0.950466165,0.091 C0.473962406,0.091 0.0875789474,0.477383459 0.0875789474,0.953887218 L0.0875789474,4.4052406 C0.0876766917,4.88174436 0.473962406,5.26812782 0.950466165,5.26812782 Z" id="Shape"></path>
                <circle id="Oval" cx="2.67614286" cy="9.58227068" r="1.72567669"></circle>
                <circle id="Oval" cx="9.57894737" cy="27.7021203" r="1.72567669"></circle>
            </g>
            <circle id="Oval" fill="#FF6469" cx="19.9028045" cy="12.9427218" r="1.72567669"></circle>
            <path d="M12.1371128,20.7083158 L13.8627895,20.7083158 C14.3392932,20.7083158 14.7256767,20.3219323 14.7256767,19.8454286 C14.7256767,19.3689248 14.3392932,18.9825414 13.8627895,18.9825414 L12.1371128,18.9825414 C11.660609,18.9825414 11.2742256,19.3689248 11.2742256,19.8454286 C11.2743233,20.3220301 11.660609,20.7083158 12.1371128,20.7083158 Z" id="Shape" fill="#468CBE"></path>
            <path d="M19.0399173,27.6111203 L20.765594,27.6111203 C21.2420977,27.6111203 21.6284812,27.2247368 21.6284812,26.7482331 C21.6284812,26.2717293 21.2420977,25.8853459 20.765594,25.8853459 L19.0399173,25.8853459 C18.5634135,25.8853459 18.1770301,26.2717293 18.1770301,26.7482331 C18.1771278,27.2247368 18.5634135,27.6111203 19.0399173,27.6111203 Z" id="Shape" fill="#FF6469"></path>
            <path d="M5.23440602,27.6111203 L6.96008271,27.6111203 C7.43658647,27.6111203 7.82296992,27.2247368 7.82296992,26.7482331 C7.82296992,26.2717293 7.43658647,25.8853459 6.96008271,25.8853459 L5.23440602,25.8853459 C4.75790226,25.8853459 4.3715188,26.2717293 4.3715188,26.7482331 C4.3715188,27.2247368 4.75790226,27.6111203 5.23440602,27.6111203 Z" id="Shape" fill="#FFFFFF"></path>
            <circle id="Oval" fill="#464655" cx="9.54864662" cy="32.7881504" r="1"></circle>
            <g id="Group" transform="translate(12.120301, 31.864662)" fill="#FFFFFF">
                <circle id="Oval" cx="0.879699248" cy="0.923488722" r="1"></circle>
                <circle id="Oval" cx="4.33105263" cy="0.923488722" r="1"></circle>
            </g>
        </g>
    </g>
</svg>