<?xml version="1.0" encoding="UTF-8"?>
<svg width="73px" height="73px" viewBox="0 0 73 73" version="1.1" xmlns="http://www.w3.org/2000/svg" xmlns:xlink="http://www.w3.org/1999/xlink">
    <!-- Generator: Sketch 51.3 (57544) - http://www.bohemiancoding.com/sketch -->
    <title>progressive-webapps/apis/history-api</title>
    <desc>Created with Sketch.</desc>
    <defs></defs>
    <g id="progressive-webapps/apis/history-api" stroke="none" stroke-width="1" fill="none" fill-rule="evenodd">
        <g id="container" transform="translate(2.000000, 2.000000)" fill="#FFFFFF" fill-rule="nonzero" stroke="#5A3535" stroke-width="2">
            <rect id="mask" x="-1" y="-1" width="71" height="71" rx="14"></rect>
        </g>
        <g id="manuscript" transform="translate(10.000000, 19.000000)" fill-rule="nonzero">
            <path d="M52.8966862,5.04812086 L52.8966862,1.22034308 C52.8966862,0.591678363 52.387039,0.0821345029 51.7584776,0.0821345029 L1.13820858,0.0821345029 C0.509647173,0.0821345029 0,0.591678363 0,1.22034308 L0,3.21915595 C0,3.86869006 0.303432749,4.47007992 0.795103314,4.89469981 C1.36539571,5.38719688 1.73443275,6.17227875 1.73443275,7.05685185 C1.73443275,7.94142495 1.36539571,8.72650682 0.795103314,9.2190039 C0.303536062,9.64362378 0,10.2450136 0,10.8945478 L0,11.0211072 C0,11.4020253 0.0938089669,11.7780877 0.280807018,12.1099318 C0.458920078,12.4260721 0.562750487,12.8026511 0.562750487,13.207848 C0.562750487,13.6130448 0.458920078,13.9896238 0.280807018,14.3057641 C0.0938089669,14.6376082 0,15.0136706 0,15.3945887 L0,34.2247758 C0,34.8534405 0.509647173,35.3629844 1.13820858,35.3629844 L32.2321618,35.3629844 C32.6494464,35.3629844 33.0499942,35.1637953 33.2757349,34.8127349 C33.5954912,34.3152788 34.1079279,33.9926296 34.6863821,33.9926296 C35.2649396,33.9926296 35.7772729,34.3152788 36.0970292,34.8127349 C36.3226667,35.1637953 36.7232144,35.3629844 37.1406023,35.3629844 L51.7585809,35.3629844 C52.3872456,35.3629844 52.8967895,34.8533372 52.8967895,34.2247758 L52.8967895,22.98423 C52.8967895,22.5787232 52.7365497,22.185614 52.439729,21.9092495 C51.7500058,21.267154 51.3087524,20.2844327 51.3087524,19.1827973 C51.3087524,18.0812651 51.7499025,17.0985439 52.439729,16.4564483 C52.7365497,16.1800838 52.8967895,15.787078 52.8967895,15.3814678 L52.8967895,10.4159981 C52.8967895,10.0043957 52.7336569,9.60374464 52.4271248,9.32903314 C52.0141793,8.95896296 51.7481462,8.38185185 51.7481462,7.7320078 C51.7481462,7.08216374 52.014076,6.50505263 52.4271248,6.13498246 C52.7335536,5.86037427 52.8966862,5.4597232 52.8966862,5.04812086 Z" id="Shape" fill="#845151"></path>
            <path d="M52.4270214,6.13508577 C52.7335536,5.86037427 52.8966862,5.4597232 52.8966862,5.04812086 L52.8966862,1.22034308 C52.8966862,0.591678363 52.3871423,0.0821345029 51.7584776,0.0821345029 L49.0305789,0.0821345029 L49.0305789,1.18201365 C49.0305789,1.59361598 48.8674464,1.99426706 48.5609142,2.26897856 C48.1479688,2.63904873 47.8819357,3.21615984 47.8819357,3.8660039 C47.8819357,4.51584795 48.1478655,5.09295906 48.5609142,5.46302924 C48.8674464,5.73774074 49.0305789,6.13839181 49.0305789,6.54999415 L49.0305789,11.5154639 C49.0305789,11.9209708 48.8703392,12.3140799 48.5735185,12.5904444 C47.8837953,13.23254 47.4425419,14.2152612 47.4425419,15.3167934 C47.4425419,16.4183255 47.883692,17.4010468 48.5735185,18.0431423 C48.8703392,18.3195068 49.0305789,18.7125127 49.0305789,19.1181228 L49.0305789,30.3586686 C49.0305789,30.9873333 48.5210351,31.4968772 47.8923704,31.4968772 L33.2743918,31.4968772 C32.8571072,31.4968772 32.4565595,31.2976881 32.2308187,30.9466277 C31.9110624,30.4491715 31.3986257,30.1265224 30.8201715,30.1265224 C30.2417173,30.1265224 29.7292807,30.4491715 29.4095244,30.9466277 C29.1838869,31.2976881 28.7833392,31.4968772 28.3659513,31.4968772 L5.68434189e-14,31.4968772 L5.68434189e-14,34.2247758 C5.68434189e-14,34.8534405 0.50954386,35.3629844 1.13820858,35.3629844 L32.2321618,35.3629844 C32.6494464,35.3629844 33.0499942,35.1637953 33.2757349,34.8127349 C33.5955945,34.3152788 34.1079279,33.9926296 34.6863821,33.9926296 C35.2648363,33.9926296 35.7772729,34.3152788 36.0970292,34.8127349 C36.3226667,35.1637953 36.7232144,35.3629844 37.1406023,35.3629844 L51.7585809,35.3629844 C52.3872456,35.3629844 52.8967895,34.8534405 52.8967895,34.2247758 L52.8967895,22.98423 C52.8967895,22.5787232 52.736653,22.185614 52.439729,21.9092495 C51.7500058,21.267154 51.3087524,20.2844327 51.3087524,19.1829006 C51.3087524,18.0813684 51.7499025,17.0986472 52.4396257,16.4565517 C52.7364464,16.1801871 52.8966862,15.7871813 52.8966862,15.3815712 L52.8966862,10.4161014 C52.8966862,10.004499 52.7335536,9.60384795 52.4270214,9.32913645 C52.014076,8.95906628 51.7480429,8.38195517 51.7480429,7.73211111 C51.7480429,7.08226706 52.014076,6.50515595 52.4270214,6.13508577 Z" id="Shape" fill="#5A3535"></path>
            <path d="M40.4257758,34.0700117 L40.4089357,34.0801365 C39.2822982,34.7581852 38.5934016,35.9769786 38.5934016,37.2918538 L38.5934016,40.5116296 C38.5934016,40.688193 38.7370078,40.831076 38.9136745,40.8301462 L40.7187739,40.8206413 C40.8940975,40.8197115 41.0356374,40.677345 41.0356374,40.5021248 L41.0356374,37.2802827 C41.0356374,36.8303509 41.2756355,36.407384 41.6636823,36.1754444 L41.6805224,36.1653197 C42.8201774,35.4841715 43.4989493,34.2849045 43.4960565,32.9572183 C43.4932671,31.6229201 42.8025107,30.4212768 41.6495283,29.7469474 C41.2631345,29.5208967 41.0356374,29.0971033 41.0356374,28.6494444 L41.0356374,27.8664288 L38.5935049,27.8664288 L38.5935049,28.6503743 C38.5935049,29.9767173 39.3139123,31.1770175 40.4439591,31.8713899 C40.9926589,32.2085029 41.0535107,32.7453216 41.053924,32.9625906 C41.0543372,33.1823392 40.9943119,33.7303158 40.4257758,34.0700117 Z" id="Shape" fill="#FA6931"></path>
            <path d="M41.6495283,29.7468441 C41.2631345,29.5207934 41.0355341,29.097 41.0355341,28.6493411 L41.0355341,27.8663255 L39.9029045,27.8663255 L39.9029045,28.6493411 C39.9029045,29.097 40.1304016,29.5207934 40.5168986,29.7468441 C41.6698811,30.4211735 42.3606374,31.6228168 42.3634269,32.957115 C42.3663197,34.2848012 41.6875478,35.4841715 40.5478928,36.1652164 L40.5310526,36.1753411 C40.1429025,36.4072807 39.9030078,36.8301442 39.9030078,37.2801793 L39.9030078,40.5173119 C39.9030078,40.6841637 39.7681832,40.8197115 39.6013314,40.820538 L38.8392885,40.8245673 C38.8584016,40.8281832 38.8780312,40.8303528 38.8982807,40.8302495 L40.7187739,40.8206413 C40.8940975,40.8197115 41.0356374,40.677345 41.0356374,40.5021248 L41.0356374,37.2802827 C41.0356374,36.8303509 41.2756355,36.407384 41.6636823,36.1754444 L41.6805224,36.1653197 C42.8201774,35.4841715 43.4989493,34.2849045 43.4960565,32.9572183 C43.4932671,31.6228168 42.8025107,30.4211735 41.6495283,29.7468441 Z" id="Shape" fill="#FC5327"></path>
            <path d="M45.7030468,6.37849318 L39.9145789,6.37849318 C39.6837758,6.37849318 39.4681598,6.49337817 39.3394308,6.68481871 L38.4995926,7.93367641 C38.4152885,8.05909942 38.2306667,8.05909942 38.1463626,7.93367641 L37.3065244,6.68481871 C37.1777953,6.49337817 36.962076,6.37849318 36.7313762,6.37849318 L30.0606082,6.37849318 C28.5868363,6.37849318 27.293037,7.14590838 26.5544464,8.30219688 C25.8158558,7.14590838 24.5221598,6.37849318 23.0482846,6.37849318 L7.40594932,6.37849318 C7.18082846,6.37849318 6.9982729,6.56104873 6.9982729,6.78616959 L6.9982729,28.5278441 C6.9982729,28.7529649 7.18082846,28.9355205 7.40594932,28.9355205 L11.1750448,28.9355205 C11.4515127,28.9355205 11.7099006,28.7979064 11.8642515,28.5684464 L13.0171306,26.8540565 C13.1013314,26.7289435 13.2854366,26.7289435 13.3695341,26.8540565 L14.5224133,28.5684464 C14.6766608,28.7979064 14.9350487,28.9355205 15.2116199,28.9355205 L45.7031501,28.9355205 C45.928271,28.9355205 46.1108265,28.7529649 46.1108265,28.5278441 L46.1108265,6.7862729 C46.1107232,6.56104873 45.928271,6.37849318 45.7030468,6.37849318 Z" id="Shape" fill="#EEDFDA"></path>
            <path d="M26.5545497,8.30219688 C25.8159591,7.14590838 24.5222632,6.37849318 23.0483879,6.37849318 L7.40594932,6.37849318 C7.18082846,6.37849318 6.9982729,6.56104873 6.9982729,6.78616959 L6.9982729,28.5278441 C6.9982729,28.7529649 7.18082846,28.9355205 7.40594932,28.9355205 L11.1750448,28.9355205 C11.4515127,28.9355205 11.7099006,28.7979064 11.8642515,28.5684464 L13.0171306,26.8540565 C13.1013314,26.7289435 13.2854366,26.7289435 13.3695341,26.8540565 L14.5224133,28.5684464 C14.6766608,28.7979064 14.9350487,28.9355205 15.2116199,28.9355205 L26.5545497,28.9355205 L26.5545497,8.30219688 Z" id="Shape" fill="#EEDFDA"></path>
            <path d="M45.7030468,6.37849318 L44.3410604,6.37849318 L44.3410604,25.7007641 C44.3410604,26.5803782 43.6279883,27.2934503 42.7483743,27.2934503 L13.6650117,27.2934503 L14.5225166,28.5684464 C14.6767641,28.7979064 14.935152,28.9355205 15.2117232,28.9355205 L45.7031501,28.9355205 C45.928271,28.9355205 46.1108265,28.7529649 46.1108265,28.5278441 L46.1108265,6.7862729 C46.1107232,6.56104873 45.928271,6.37849318 45.7030468,6.37849318 Z" id="Shape" fill="#DED0CB"></path>
            <path d="M6.9982729,27.2935536 L6.9982729,28.5279474 C6.9982729,28.7530682 7.18082846,28.9356238 7.40594932,28.9356238 L11.1750448,28.9356238 C11.4515127,28.9356238 11.7099006,28.7980097 11.8642515,28.5685497 L12.7217563,27.2934503 L6.9982729,27.2934503 L6.9982729,27.2935536 Z" id="Shape" fill="#DED0CB"></path>
            <path d="M6.9982729,27.2935536 L6.9982729,28.5279474 C6.9982729,28.7530682 7.18082846,28.9356238 7.40594932,28.9356238 L11.1750448,28.9356238 C11.4515127,28.9356238 11.7099006,28.7980097 11.8642515,28.5685497 L12.7217563,27.2934503 L6.9982729,27.2934503 L6.9982729,27.2935536 Z" id="Shape" fill="#DED0CB"></path>
            <path d="M24.7847836,6.75951462 L24.7847836,25.7008674 C24.7847836,26.5804815 24.0717115,27.2935536 23.1920975,27.2935536 L13.6650117,27.2935536 L14.5225166,28.568653 C14.6767641,28.7981131 14.935152,28.9357271 15.2117232,28.9357271 L26.554653,28.9357271 L26.554653,8.30219688 C26.1267271,7.63251657 25.5121131,7.09476803 24.7847836,6.75951462 Z" id="Shape" fill="#DED0CB"></path>
            <path d="M20.3949786,16.3412534 C21.085115,15.7432729 21.5230624,14.861386 21.5230624,13.8785614 C21.5230624,12.0815205 20.0610682,10.6195263 18.2640273,10.6195263 L15.3547096,10.6195263 C14.7094113,10.6195263 14.1844737,10.0944854 14.1844737,9.44929045 C14.1844737,9.00948343 13.8279376,8.65294737 13.3881306,8.65294737 C12.9483236,8.65294737 12.5917875,9.00948343 12.5917875,9.44929045 C12.5917875,10.9727563 13.8312437,12.2123158 15.3548129,12.2123158 L18.2641306,12.2123158 C19.1829006,12.2123158 19.9304795,12.9597914 19.9304795,13.8786647 C19.9304795,14.797538 19.1830039,15.5450136 18.2641306,15.5450136 L17.0692027,15.5450136 C16.6293957,15.5450136 16.2728596,15.9015497 16.2728596,16.3413567 C16.2728596,16.7811637 16.6293957,17.1376998 17.0692027,17.1376998 L18.2641306,17.1376998 C19.1829006,17.1376998 19.9304795,17.8851754 19.9304795,18.8040487 C19.9304795,19.722922 19.1830039,20.4703977 18.2641306,20.4703977 L14.9632534,20.4703977 L14.9632534,14.638538 C14.9632534,14.198731 14.6067173,13.8421949 14.1669103,13.8421949 C13.7271033,13.8421949 13.3705673,14.198731 13.3705673,14.638538 L13.3705673,21.0714776 C12.8929474,21.5009532 12.5918908,22.1231092 12.5918908,22.8144854 L12.5918908,23.4066803 C12.5918908,23.8464873 12.9484269,24.2030234 13.3882339,24.2030234 C13.8280409,24.2030234 14.184577,23.8464873 14.184577,23.4066803 L14.184577,22.8144854 C14.184577,22.4000936 14.5216901,22.0629805 14.9360819,22.0629805 L18.2641306,22.0629805 C20.0611715,22.0629805 21.5231657,20.6009864 21.5231657,18.8039454 C21.5229591,17.8212242 21.085115,16.9393372 20.3949786,16.3412534 Z" id="Shape" fill="#F1562E"></path>
            <g id="Group" transform="translate(30.167641, 11.674464)" fill="#C8C1C9">
                <path d="M6.15564522,1.66262963 L0.846553606,1.66262963 C0.406643275,1.66262963 0.0502105263,1.30609357 0.0502105263,0.86628655 C0.0502105263,0.426479532 0.406746589,0.0699434698 0.846553606,0.0699434698 L6.15564522,0.0699434698 C6.59555556,0.0699434698 6.9519883,0.426479532 6.9519883,0.86628655 C6.9519883,1.30609357 6.59545224,1.66262963 6.15564522,1.66262963 Z" id="Shape"></path>
                <path d="M6.15564522,10.5327427 L0.846553606,10.5327427 C0.406643275,10.5327427 0.0502105263,10.1762066 0.0502105263,9.73639961 C0.0502105263,9.29659259 0.406746589,8.94005653 0.846553606,8.94005653 L6.15564522,8.94005653 C6.59555556,8.94005653 6.9519883,9.29659259 6.9519883,9.73639961 C6.9519883,10.1762066 6.59545224,10.5327427 6.15564522,10.5327427 Z" id="Shape"></path>
                <path d="M10.119694,1.66262963 L8.84552437,1.66262963 C8.40561404,1.66262963 8.04918129,1.30609357 8.04918129,0.86628655 C8.04918129,0.426479532 8.40571735,0.0699434698 8.84552437,0.0699434698 L10.119694,0.0699434698 C10.5596043,0.0699434698 10.916037,0.426479532 10.916037,0.86628655 C10.916037,1.30609357 10.5596043,1.66262963 10.119694,1.66262963 Z" id="Shape"></path>
                <path d="M8.00475634,4.66245029 L6.21773684,4.66245029 C5.77782651,4.66245029 5.42139376,4.30591423 5.42139376,3.86610721 C5.42139376,3.42630019 5.77792982,3.06976413 6.21773684,3.06976413 L8.00475634,3.06976413 C8.44466667,3.06976413 8.80109942,3.42630019 8.80109942,3.86610721 C8.80109942,4.30591423 8.44466667,4.66245029 8.00475634,4.66245029 Z" id="Shape"></path>
                <path d="M3.50109942,4.66245029 L0.881990253,4.66245029 C0.442079922,4.66245029 0.0856471735,4.30591423 0.0856471735,3.86610721 C0.0856471735,3.42630019 0.442183236,3.06976413 0.881990253,3.06976413 L3.50109942,3.06976413 C3.94100975,3.06976413 4.2974425,3.42630019 4.2974425,3.86610721 C4.2974425,4.30591423 3.94090643,4.66245029 3.50109942,4.66245029 Z" id="Shape"></path>
                <path d="M3.50109942,7.59759649 L0.881990253,7.59759649 C0.442079922,7.59759649 0.0856471735,7.24106043 0.0856471735,6.80125341 C0.0856471735,6.36144639 0.442183236,6.00491033 0.881990253,6.00491033 L3.50109942,6.00491033 C3.94100975,6.00491033 4.2974425,6.36144639 4.2974425,6.80125341 C4.2974425,7.24095712 3.94090643,7.59759649 3.50109942,7.59759649 Z" id="Shape"></path>
                <path d="M12.5264932,7.59759649 L6.15554191,7.59759649 C5.71563158,7.59759649 5.35919883,7.24106043 5.35919883,6.80125341 C5.35919883,6.36144639 5.71573489,6.00491033 6.15554191,6.00491033 L12.5264932,6.00491033 C12.9664035,6.00491033 13.3228363,6.36144639 13.3228363,6.80125341 C13.3229396,7.24095712 12.9664035,7.59759649 12.5264932,7.59759649 Z" id="Shape"></path>
                <path d="M12.5264932,4.66245029 L10.6950487,4.66245029 C10.2551384,4.66245029 9.89870565,4.30591423 9.89870565,3.86610721 C9.89870565,3.42630019 10.2552417,3.06976413 10.6950487,3.06976413 L12.5264932,3.06976413 C12.9664035,3.06976413 13.3228363,3.42630019 13.3228363,3.86610721 C13.3229396,4.30591423 12.9664035,4.66245029 12.5264932,4.66245029 Z" id="Shape"></path>
            </g>
        </g>
    </g>
</svg>