<?xml version="1.0" encoding="UTF-8"?>
<svg width="73px" height="73px" viewBox="0 0 73 73" version="1.1" xmlns="http://www.w3.org/2000/svg" xmlns:xlink="http://www.w3.org/1999/xlink">
    <!-- Generator: Sketch 51.3 (57544) - http://www.bohemiancoding.com/sketch -->
    <title>progressive-webapps/apis/offline-first</title>
    <desc>Created with Sketch.</desc>
    <defs></defs>
    <g id="progressive-webapps/apis/offline-first" stroke="none" stroke-width="1" fill="none" fill-rule="evenodd">
        <g id="container" transform="translate(2.000000, 2.000000)" fill="#FFFFFF" fill-rule="nonzero" stroke="#8F222F" stroke-width="2">
            <rect id="mask" x="-1" y="-1" width="71" height="71" rx="14"></rect>
        </g>
        <g id="offline" transform="translate(11.000000, 11.000000)" fill-rule="nonzero">
            <path d="M49.8821182,25.5498047 C49.8821182,39.0278092 38.9558259,49.9541016 25.4778214,49.9541016 C11.9994278,49.9541016 1.0735245,39.0278092 1.0735245,25.5498047 C1.0735245,12.0718002 11.9994278,1.14550781 25.4778214,1.14550781 C38.9558259,1.14550781 49.8821182,12.0718002 49.8821182,25.5498047 Z" id="Shape" fill="#EF3A50"></path>
            <path d="M24.3541031,5.75360873 C24.7074051,5.90185547 25.0953369,5.98395541 25.5023346,5.98395541 C25.8941574,5.98395541 26.2676925,5.90730291 26.6100998,5.76917269 L33.0461883,16.9172516 L34.7714539,16.9172516 L27.8174744,4.871521 C28.2248612,4.36374667 28.4692154,3.71900945 28.4692154,3.01668546 C28.4692154,1.37818914 27.140831,0.0498046875 25.5023346,0.0498046875 C23.863449,0.0498046875 22.5350647,1.37818914 22.5350647,3.01668546 C22.5350647,3.70266724 22.7681351,4.33339689 23.1587906,4.83572388 L16.1837997,16.9172516 L17.9090653,16.9172516 L24.3541031,5.75360873 Z" id="Shape" fill="#6843AF"></path>
            <path d="M28.4692154,3.01668546 C28.4692154,4.65557096 27.140831,5.98395541 25.5023346,5.98395541 C23.863449,5.98395541 22.5350647,4.65557096 22.5350647,3.01668546 C22.5350647,1.37818914 23.863449,0.0498046875 25.5023346,0.0498046875 C27.140831,0.0498046875 28.4692154,1.37818914 28.4692154,3.01668546 Z" id="Shape" fill="#71A2EA"></path>
            <path d="M24.385231,3.01668546 C24.385231,1.70114136 25.2416382,0.5863724 26.4272232,0.197662354 C26.1361771,0.102333094 25.8252869,0.0498046875 25.5023346,0.0498046875 C23.863449,0.0498046875 22.5350647,1.37818914 22.5350647,3.01668546 C22.5350647,4.65557096 23.863449,5.98395541 25.5023346,5.98395541 C25.8252869,5.98395541 26.1361771,5.931427 26.4272232,5.83609774 C25.2416382,5.4473877 24.385231,4.33222966 24.385231,3.01668546 Z" id="Shape" fill="#578DCE"></path>
            <polygon id="Shape" fill="#50309E" points="19.9934692 13.3064118 18.2682038 13.3064118 16.1837997 16.9172516 17.9090653 16.9172516"></polygon>
            <polygon id="Shape" fill="#50309E" points="32.6870499 13.3064118 30.9617843 13.3064118 33.0465775 16.9172516 34.7714539 16.9172516"></polygon>
            <path d="M49.5058594,35.2986832 L1.49414062,35.2986832 C0.668861414,35.2986832 0,34.6294327 0,33.8045426 L0,17.2950668 C0,16.4701767 0.668861414,15.8009262 1.49414062,15.8009262 L49.5058594,15.8009262 C50.3311386,15.8009262 51,16.4701767 51,17.2950668 L51,33.8045426 C51,34.6294327 50.3311386,35.2986832 49.5058594,35.2986832 Z" id="Shape" fill="#EF3A50"></path>
            <path d="M49.5058594,35.2986832 L1.49414062,35.2986832 C0.668861414,35.2986832 0,34.6294327 0,33.8045426 L0,17.2950668 C0,16.4701767 0.668861414,15.8009262 1.49414062,15.8009262 L49.5058594,15.8009262 C50.3311386,15.8009262 51,16.4701767 51,17.2950668 L51,33.8045426 C51,34.6294327 50.3311386,35.2986832 49.5058594,35.2986832 Z" id="Shape" fill="#FDD33A"></path>
            <path d="M49.5058594,33.8286667 L7.64929965,33.8286667 C6.82440951,33.8286667 6.1555481,33.1601944 6.15515902,32.3349152 C6.15476985,28.2672729 6.1539917,17.2954559 6.1539917,17.2954559 C6.1539917,16.4701767 6.82324219,15.8013153 7.64813232,15.8013153 L1.49414062,15.8013153 C0.668861414,15.8013153 0,16.4701767 0,17.2954559 L0,33.8045426 C0,34.6294327 0.668861414,35.2986832 1.49414062,35.2986832 L49.5058594,35.2986832 C50.3311386,35.2986832 51,34.6294327 51,33.8045426 L51,32.334526 C51,33.1594162 50.3311386,33.8286667 49.5058594,33.8286667 Z" id="Shape" fill="#E0AF24"></path>
            <g id="Group" transform="translate(8.666016, 20.519531)" fill="#FFFFFF">
                <path d="M0.796875,8.290535 C0.286766027,7.78470614 0.0315170039,7.17265315 0.0315170039,6.45476529 L0.0315170039,2.63536832 C0.0315170039,1.92137141 0.286766027,1.30931852 0.796875,0.799209645 C1.30270386,0.293380688 1.91475675,0.0404663086 2.63303378,0.0404663086 C3.35092163,0.0404663086 3.96297452,0.293380688 4.46919255,0.799209645 C4.97891235,1.30931852 5.23416138,1.92137141 5.23416138,2.63536832 L5.23416138,6.45476529 C5.23416138,7.17304232 4.97891235,7.78470614 4.46919255,8.29092407 C3.96297452,8.80103304 3.35092163,9.05589289 2.63303378,9.05589289 C1.91475675,9.05589289 1.30270386,8.80064387 0.796875,8.290535 Z M1.60464478,1.60736849 C1.31904607,1.8929672 1.17624667,2.2357635 1.17624667,2.6357575 L1.17624667,6.45476529 C1.17624667,6.85475919 1.31904607,7.19755549 1.60464478,7.48276522 C1.88635254,7.76836393 2.22914884,7.91116333 2.6326447,7.91116333 C3.0326385,7.91116333 3.3754349,7.76836393 3.66103361,7.48276522 C3.94663241,7.19755549 4.08943181,6.85437012 4.08943181,6.45476529 L4.08943181,2.6357575 C4.08943181,2.2357635 3.94663241,1.8929672 3.66103361,1.60736849 C3.3754349,1.3260498 3.0326385,1.18519597 2.6326447,1.18519597 C2.22914884,1.18519597 1.88635254,1.32566073 1.60464478,1.60736849 Z" id="Shape"></path>
                <path d="M7.54151921,1.39920044 L7.54151921,3.7738724 L9.62242121,3.7738724 C9.78156283,3.7738724 9.91813655,3.82912443 10.0325317,3.9392395 C10.1426468,4.04935458 10.1975098,4.18398282 10.1975098,4.34312434 C10.1975098,4.50226596 10.1426468,4.6368942 10.0325317,4.74700928 C9.91813655,4.86140447 9.78117366,4.91860196 9.62242121,4.91860196 L7.54151921,4.91860196 L7.54151921,8.48080444 C7.54151921,8.63994596 7.48626709,8.77651978 7.37615201,8.89052579 C7.26175692,9.00064087 7.12712858,9.05589289 6.97226718,9.05589289 C6.81312566,9.05589289 6.67616277,9.00064087 6.56215665,8.89052579 C6.45204168,8.77651978 6.39678955,8.63955688 6.39678955,8.48080444 L6.39678955,0.824111988 C6.39678955,0.669250488 6.45204168,0.534622242 6.56215665,0.420227051 C6.67616277,0.310111975 6.81312566,0.254859949 6.97226718,0.254859949 L9.98934171,0.254859949 C10.1488724,0.254859949 10.2831116,0.310111975 10.3936157,0.420227051 C10.5076217,0.534233068 10.5648193,0.669250488 10.5648193,0.824111988 C10.5648193,0.983253504 10.5076217,1.11788175 10.3936157,1.22799683 C10.2835006,1.34239192 10.1488724,1.39958951 9.98934171,1.39958951 L7.54151921,1.39958951 L7.54151921,1.39920044 Z" id="Shape"></path>
                <path d="M12.6885223,1.39920044 L12.6885223,3.7738724 L14.7694245,3.7738724 C14.928566,3.7738724 15.0651398,3.82912443 15.1795349,3.9392395 C15.28965,4.04935458 15.344902,4.18398282 15.344902,4.34312434 C15.344902,4.50226596 15.28965,4.6368942 15.1795349,4.74700928 C15.0651398,4.86140447 14.928566,4.91860196 14.7694245,4.91860196 L12.6885223,4.91860196 L12.6885223,8.48080444 C12.6885223,8.63994596 12.6332703,8.77651978 12.5235443,8.89052579 C12.4091492,9.00064087 12.2745208,9.05589289 12.1192703,9.05589289 C11.9601287,9.05589289 11.823555,9.00064087 11.709549,8.89052579 C11.5990448,8.77651978 11.5441818,8.63955688 11.5441818,8.48080444 L11.5441818,0.824111988 C11.5441818,0.669250488 11.5990448,0.534622242 11.709549,0.420227051 C11.823555,0.310111975 11.9601287,0.254859949 12.1192703,0.254859949 L15.1367341,0.254859949 C15.2958756,0.254859949 15.4305038,0.310111975 15.5406189,0.420227051 C15.6546249,0.534233068 15.7122116,0.669250488 15.7122116,0.824111988 C15.7122116,0.983253504 15.655014,1.11788175 15.5406189,1.22799683 C15.4305038,1.34239192 15.2958756,1.39958951 15.1367341,1.39958951 L12.6885223,1.39958951 L12.6885223,1.39920044 Z" id="Shape"></path>
                <path d="M20.5716706,7.91116333 C20.7308121,7.91116333 20.8654403,7.96641536 20.9755554,8.07653043 C21.0895614,8.19092562 21.146759,8.32555387 21.146759,8.48041537 C21.146759,8.63955688 21.0895614,8.77651978 20.9755554,8.89052579 C20.8654403,9.00064087 20.7308121,9.05589289 20.5716706,9.05589289 L17.2666626,9.05589289 C17.107132,9.05589289 16.9705582,9.00064087 16.8565521,8.89052579 C16.7464371,8.77651978 16.691185,8.63955688 16.691185,8.48041537 L16.691185,0.719833324 C16.691185,0.560691809 16.7464371,0.426063562 16.8565521,0.315948486 C16.9705582,0.201942469 17.1075211,0.144744873 17.2666626,0.144744873 C17.4215241,0.144744873 17.5561523,0.201942469 17.6705475,0.315948486 C17.7806625,0.426063562 17.8359146,0.560691809 17.8359146,0.719833324 L17.8359146,7.91116333 L20.5716706,7.91116333 Z" id="Shape"></path>
                <path d="M22.2914886,8.89052579 C22.1813736,8.77651978 22.1261215,8.63955688 22.1261215,8.48041537 L22.1261215,0.609718348 C22.1261215,0.450576832 22.1813736,0.315948486 22.2914886,0.20583341 C22.4054947,0.0957184336 22.5424576,0.0404663086 22.70121,0.0404663086 C22.8564606,0.0404663086 22.9910889,0.0957184336 23.1054841,0.20583341 C23.215599,0.315948486 23.2704621,0.450576832 23.2704621,0.609718348 L23.2704621,8.48041537 C23.2704621,8.63955688 23.215599,8.77651978 23.1054841,8.89052579 C22.9910889,9.00064087 22.8564606,9.05589289 22.70121,9.05589289 C22.5424576,9.05589289 22.4054947,9.00064087 22.2914886,8.89052579 Z" id="Shape"></path>
                <path d="M29.6847611,8.51115412 C29.6847611,8.53566739 29.6824264,8.55784602 29.6785355,8.57846835 L29.6785355,8.59053045 C29.641571,8.77418523 29.5415726,8.90686801 29.37854,8.98857877 C29.2357406,9.06172941 29.0909958,9.07418058 28.9439163,9.02515414 C28.7929459,8.9761276 28.6808853,8.88235474 28.6073455,8.74344638 L25.7614746,3.03964233 L25.7614746,8.48041537 C25.7614746,8.63955688 25.7062225,8.77418523 25.5964966,8.88430021 C25.4821014,8.9986954 25.3474731,9.05589289 25.1922226,9.05589289 C25.0330811,9.05589289 24.8965072,8.9986954 24.7825012,8.88430021 C24.6719971,8.77418523 24.6171341,8.63955688 24.6171341,8.48041537 L24.6171341,0.609718348 C24.6171341,0.450576832 24.6719971,0.315948486 24.7825012,0.20583341 C24.8965072,0.0914383184 25.0330811,0.0342407227 25.1922226,0.0342407227 C25.3719864,0.0342407227 25.5206222,0.107780432 25.6389084,0.254470875 L25.6389084,0.260696461 C25.6552506,0.277038574 25.6696472,0.299606273 25.6820984,0.328010584 C25.6859894,0.328010584 25.6898804,0.330345129 25.6941605,0.33423617 C25.6941605,0.342407227 25.696106,0.346687342 25.7003861,0.346687342 L28.546257,6.05049138 L28.546257,0.609718348 C28.546257,0.450576832 28.6015091,0.315948486 28.7116242,0.20583341 C28.8217392,0.0918273926 28.9563675,0.0342407227 29.115509,0.0342407227 C29.2746505,0.0342407227 29.4092789,0.0914383184 29.5193939,0.20583341 C29.6334,0.315948486 29.6909867,0.450576832 29.6909867,0.609718348 L29.6909867,8.48041537 C29.6909867,8.46835327 29.6909867,8.46212769 29.6909867,8.46212769 C29.6909867,8.46212769 29.688652,8.4784699 29.6847611,8.51115413 Z" id="Shape"></path>
                <path d="M34.6298218,7.91116333 C34.7889633,7.91116333 34.9235916,7.96641536 35.0337067,8.07653043 C35.1481018,8.19092562 35.2052994,8.32555387 35.2052994,8.48041537 C35.2052994,8.63955688 35.1481018,8.77651978 35.0337067,8.89052579 C34.9235916,9.00064087 34.7889633,9.05589289 34.6298218,9.05589289 L31.6123581,9.05589289 C31.4532166,9.05589289 31.3166427,9.00064087 31.2026367,8.89052579 C31.0925216,8.77651978 31.0372696,8.63955688 31.0372696,8.48041537 L31.0372696,0.824111988 C31.0372696,0.668861414 31.0925216,0.534233068 31.2026367,0.420227051 C31.3166427,0.3097229 31.4536056,0.254859949 31.6123581,0.254859949 L34.6298218,0.254859949 C34.7889633,0.254859949 34.9235916,0.3097229 35.0337067,0.420227051 C35.1481018,0.534233068 35.2052994,0.668861414 35.2052994,0.824111988 C35.2052994,0.983253504 35.1481018,1.11788175 35.0337067,1.22799683 C34.9235916,1.34239192 34.7889633,1.39958951 34.6298218,1.39958951 L32.1816101,1.39958951 L32.1816101,3.77426147 L34.2629013,3.77426147 C34.4216537,3.77426147 34.5586166,3.82912443 34.6726227,3.9392395 C34.7827377,4.04935458 34.8379898,4.18398282 34.8379898,4.34312434 C34.8379898,4.50226596 34.7827377,4.6368942 34.6726227,4.74739835 C34.5586166,4.86140447 34.4216537,4.91860196 34.2629013,4.91860196 L32.1816101,4.91860196 L32.1816101,7.9115524 L34.6298218,7.9115524 L34.6298218,7.91116333 Z" id="Shape"></path>
            </g>
            <path d="M46.8051224,37.417717 L34.4784622,37.417717 C33.9975357,37.417717 33.6080475,37.8072053 33.6080475,38.2881317 L33.6080475,38.3745117 C33.6080475,38.8550492 33.9975357,39.2445374 34.4784622,39.2445374 L36.3480835,39.2445374 C36.852745,39.2445374 37.2616882,39.6534806 37.2616882,40.1581421 C37.2616882,40.6083297 36.935234,40.9818649 36.5064469,41.0569611 L30.6917496,41.0569611 C30.0147171,41.0569611 29.4656982,41.6055908 29.4656982,42.2826233 C29.4656982,42.9596558 30.0147171,43.5082855 30.6917496,43.5082855 L35.9383621,43.5082855 C36.4605331,43.5082855 36.883873,43.9316253 36.883873,44.4541855 C36.883873,44.9763565 36.4605331,45.4000854 35.9383621,45.4000854 L33.971077,45.4000854 C33.4905396,45.4000854 33.1006623,45.7895736 33.1006623,46.2701111 L33.1006623,46.4214706 C33.1006623,46.9020081 33.4905396,47.2914963 33.971077,47.2914963 L36.5733719,47.2914963 C40.8845902,45.0868607 44.4518509,41.6371078 46.8051224,37.417717 Z" id="Shape" fill="#F94E6B"></path>
            <path d="M13.0005798,11.5472946 L13.0005798,11.4068298 C13.0005798,10.960144 12.6387176,10.5978927 12.1920319,10.5978927 L10.3632659,10.5978927 C9.87767024,10.5978927 9.48390203,10.2041244 9.48390203,9.7189178 C9.48390203,9.23332209 9.87767024,8.83955388 10.3632659,8.83955388 L15.2402344,8.83955388 C15.8694076,8.83955388 16.3795166,8.32944491 16.3795166,7.70027166 C16.3795166,7.0710983 15.8694076,6.56060026 15.2402344,6.56060026 L10.1500397,6.56060026 C8.12166593,8.19987483 6.36060336,10.1566544 4.94428256,12.3562317 L12.1920319,12.3562317 C12.6387176,12.3562317 13.0005798,11.9939804 13.0005798,11.5472946 Z" id="Shape" fill="#F94E6B"></path>
            <path d="M14.0853882,44.0370712 L14.0853882,43.8845443 C14.0853882,43.4008942 13.6931763,43.0086823 13.209526,43.0086823 L11.2290116,43.0086823 C10.7033386,43.0086823 10.2772751,42.5822297 10.2772751,42.0565567 C10.2772751,41.5308838 10.7033386,41.1044312 11.2290116,41.1044312 L16.510643,41.1044312 C17.1923446,41.1044312 17.7448654,40.5522995 17.7448654,39.8705978 C17.7448654,39.1892853 17.1923446,38.6367645 16.510643,38.6367645 L4.87619019,38.6367645 C6.41274259,41.0507355 8.36212924,43.1752166 10.6243515,44.9129333 L13.209526,44.9129333 C13.6931763,44.9129333 14.0853882,44.5207214 14.0853882,44.0370712 Z" id="Shape" fill="#F94E6B"></path>
        </g>
    </g>
</svg>