<?xml version="1.0" encoding="UTF-8"?>
<svg width="73px" height="73px" viewBox="0 0 73 73" version="1.1" xmlns="http://www.w3.org/2000/svg" xmlns:xlink="http://www.w3.org/1999/xlink">
    <!-- Generator: Sketch 51.3 (57544) - http://www.bohemiancoding.com/sketch -->
    <title>progressive-webapps/apis/routing</title>
    <desc>Created with Sketch.</desc>
    <defs></defs>
    <g id="progressive-webapps/apis/routing" stroke="none" stroke-width="1" fill="none" fill-rule="evenodd">
        <g id="container" transform="translate(2.000000, 2.000000)" fill="#FFFFFF" fill-rule="nonzero" stroke="#3083C9" stroke-width="2">
            <rect id="mask" x="-1" y="-1" width="71" height="71" rx="14"></rect>
        </g>
        <g id="route" transform="translate(14.000000, 14.000000)" fill-rule="nonzero">
            <path d="M34.3754237,45 C33.9536441,45 33.6127119,44.6590678 33.6127119,44.2372881 C33.6127119,43.8155085 33.9536441,43.4745763 34.3754237,43.4745763 L35.8474576,43.4745763 C36.2692373,43.4745763 36.6368644,43.8155085 36.6368644,44.2365254 C36.6368644,44.6583051 36.3226271,44.9992373 35.9008475,44.9992373 L35.9008475,44.2365254 L35.8787288,44.9992373 L34.3754237,45 Z M31.3245763,45 L29.7991525,45 C29.3773729,45 29.0364407,44.6590678 29.0364407,44.2372881 C29.0364407,43.8155085 29.3773729,43.4745763 29.7991525,43.4745763 L31.3245763,43.4745763 C31.7463559,43.4745763 32.0872881,43.8155085 32.0872881,44.2372881 C32.0872881,44.6590678 31.7463559,45 31.3245763,45 Z M26.7483051,45 L25.2228814,45 C24.8011017,45 24.4601695,44.6590678 24.4601695,44.2372881 C24.4601695,43.8155085 24.8011017,43.4745763 25.2228814,43.4745763 L26.7483051,43.4745763 C27.1700847,43.4745763 27.5110169,43.8155085 27.5110169,44.2372881 C27.5110169,44.6590678 27.1700847,45 26.7483051,45 Z M22.1720339,45 L20.6466102,45 C20.2248305,45 19.8838983,44.6590678 19.8838983,44.2372881 C19.8838983,43.8155085 20.2248305,43.4745763 20.6466102,43.4745763 L22.1720339,43.4745763 C22.5938136,43.4745763 22.9347458,43.8155085 22.9347458,44.2372881 C22.9347458,44.6590678 22.5938136,45 22.1720339,45 Z M17.5957627,45 L16.070339,45 C15.6485593,45 15.3076271,44.6590678 15.3076271,44.2372881 C15.3076271,43.8155085 15.6485593,43.4745763 16.070339,43.4745763 L17.5957627,43.4745763 C18.0175424,43.4745763 18.3584746,43.8155085 18.3584746,44.2372881 C18.3584746,44.6590678 18.0175424,45 17.5957627,45 Z M13.0194915,45 L11.4940678,45 C11.0722881,45 10.7313559,44.6590678 10.7313559,44.2372881 C10.7313559,43.8155085 11.0722881,43.4745763 11.4940678,43.4745763 L13.0194915,43.4745763 C13.4412712,43.4745763 13.7822034,43.8155085 13.7822034,44.2372881 C13.7822034,44.6590678 13.4412712,45 13.0194915,45 Z M38.5451695,43.689661 C38.3804237,43.689661 38.2141525,43.6362712 38.0745763,43.5264407 C37.7427966,43.2655932 37.6863559,42.7858475 37.9464407,42.4555932 C38.194322,42.1405932 38.3644068,41.7828814 38.4521186,41.3938983 C38.5444068,40.9827966 38.9524576,40.725 39.3635593,40.8172881 C39.774661,40.9095763 40.0324576,41.3176271 39.9401695,41.7287288 C39.8044068,42.3327966 39.5298305,42.9101695 39.1454237,43.3975424 C38.9951695,43.5897458 38.7716949,43.689661 38.5451695,43.689661 Z M38.5459322,39.4466949 C38.3194068,39.4466949 38.0959322,39.3467797 37.945678,39.155339 C37.7016102,38.8449153 37.3858475,38.5878814 37.0327119,38.4124576 C36.6559322,38.2248305 36.5018644,37.7672034 36.6894915,37.389661 C36.8771186,37.0128814 37.3332203,36.8580508 37.7122881,37.0464407 C38.2667797,37.3217797 38.7617797,37.7252542 39.1454237,38.2118644 C39.4055085,38.5428814 39.3490678,39.0226271 39.0172881,39.2827119 C38.8777119,39.3925424 38.710678,39.4466949 38.5459322,39.4466949 Z M34.3761864,38.1355932 L32.8507627,38.1355932 C32.4289831,38.1355932 32.0880508,37.794661 32.0880508,37.3728814 C32.0880508,36.9511017 32.4289831,36.6101695 32.8507627,36.6101695 L34.3761864,36.6101695 C34.7979661,36.6101695 35.1388983,36.9511017 35.1388983,37.3728814 C35.1388983,37.794661 34.7979661,38.1355932 34.3761864,38.1355932 Z M29.7999153,38.1355932 L28.2744915,38.1355932 C27.8527119,38.1355932 27.5117797,37.794661 27.5117797,37.3728814 C27.5117797,36.9511017 27.8527119,36.6101695 28.2744915,36.6101695 L29.7999153,36.6101695 C30.2216949,36.6101695 30.5626271,36.9511017 30.5626271,37.3728814 C30.5626271,37.794661 30.2216949,38.1355932 29.7999153,38.1355932 Z M25.2678814,37.8259322 C25.1618644,37.8259322 25.054322,37.8038136 24.9513559,37.7565254 C24.39,37.5002542 23.8820339,37.1127966 23.4816102,36.6376271 C23.2108475,36.315 23.2520339,35.8337288 23.574661,35.5629661 C23.8972881,35.2922034 24.3777966,35.3333898 24.649322,35.6560169 C24.9040678,35.9588136 25.2282203,36.2059322 25.5859322,36.3699153 C25.9688136,36.5445763 26.1373729,36.9968644 25.9619492,37.3805085 C25.8338136,37.6604237 25.5577119,37.8259322 25.2678814,37.8259322 Z M23.3237288,34.0550847 C23.275678,34.0550847 23.2276271,34.0505085 23.1795763,34.0413559 C22.7654237,33.9620339 22.4954237,33.5616102 22.5739831,33.1482203 C22.6922034,32.5311864 22.9423729,31.9614407 23.3161017,31.4534746 C23.5662712,31.1140678 24.0429661,31.0423729 24.3823729,31.2910169 C24.7217797,31.5411864 24.7942373,32.0186441 24.5448305,32.3572881 C24.3061017,32.680678 24.1474576,33.0429661 24.0727119,33.435 C24.0017797,33.8011017 23.6822034,34.0550847 23.3237288,34.0550847 Z M26.5301695,31.275 C26.1236441,31.275 25.785,30.9538983 25.7689831,30.5435593 C25.7522034,30.1225424 26.0786441,29.7671186 26.499661,29.750339 C26.5644915,29.7472881 26.629322,29.7457627 26.6949153,29.7457627 L28.0563559,29.7457627 C28.4781356,29.7457627 28.8190678,30.0866949 28.8190678,30.5084746 C28.8190678,30.9302542 28.4781356,31.2711864 28.0563559,31.2711864 L26.5622034,31.2742373 C26.5515254,31.275 26.5408475,31.275 26.5301695,31.275 Z M40.4237288,31.2711864 L40.2597458,31.2711864 C39.8379661,31.2711864 39.4970339,30.9302542 39.4970339,30.5084746 C39.4970339,30.0866949 39.8379661,29.7457627 40.2597458,29.7457627 L40.4237288,29.7457627 C40.7814407,29.7457627 41.1277119,29.6763559 41.4549153,29.5390678 C41.8400847,29.3750847 42.2900847,29.5581356 42.4533051,29.9471186 C42.6165254,30.335339 42.4342373,30.7822881 42.0452542,30.9455085 C41.5304237,31.1613559 40.9850847,31.2711864 40.4237288,31.2711864 Z M37.2088983,31.2711864 L35.6834746,31.2711864 C35.2616949,31.2711864 34.9207627,30.9302542 34.9207627,30.5084746 C34.9207627,30.0866949 35.2616949,29.7457627 35.6834746,29.7457627 L37.2088983,29.7457627 C37.630678,29.7457627 37.9716102,30.0866949 37.9716102,30.5084746 C37.9716102,30.9302542 37.630678,31.2711864 37.2088983,31.2711864 Z M32.6326271,31.2711864 L31.1072034,31.2711864 C30.6854237,31.2711864 30.3444915,30.9302542 30.3444915,30.5084746 C30.3444915,30.0866949 30.6854237,29.7457627 31.1072034,29.7457627 L32.6326271,29.7457627 C33.0544068,29.7457627 33.395339,30.0866949 33.395339,30.5084746 C33.395339,30.9302542 33.0544068,31.2711864 32.6326271,31.2711864 Z M43.7171186,28.8076271 C43.6461864,28.8076271 43.5737288,28.7977119 43.5027966,28.7771186 C43.0985593,28.6588983 42.8666949,28.2348305 42.9849153,27.8305932 C43.0566102,27.5865254 43.0932203,27.3333051 43.0932203,27.0770339 C43.0947458,26.9305932 43.0825424,26.7917797 43.0611864,26.6560169 C42.9940678,26.240339 43.2770339,25.8483051 43.6934746,25.7819492 C44.1076271,25.7133051 44.5004237,25.9977966 44.5675424,26.4142373 C44.6033898,26.6377119 44.6201695,26.8627119 44.6186441,27.0823729 C44.6186441,27.4782203 44.5622034,27.8755932 44.449322,28.2592373 C44.3516949,28.5917797 44.0473729,28.8076271 43.7171186,28.8076271 Z M42.1398305,24.8674576 C42.0101695,24.8674576 41.8782203,24.834661 41.7577119,24.7644915 C41.4122034,24.5638983 41.0354237,24.4464407 40.6365254,24.4151695 C40.2162712,24.3823729 39.9027966,24.0155085 39.9355932,23.5952542 C39.9683898,23.1742373 40.3367797,22.8638136 40.7555085,22.894322 C41.3832203,22.9431356 41.9788983,23.1292373 42.5227119,23.445 C42.8872881,23.6562712 43.0116102,24.1238136 42.7995763,24.4876271 C42.6592373,24.7309322 42.4029661,24.8674576 42.1398305,24.8674576 Z M37.6451695,24.4067797 L36.1197458,24.4067797 C35.6979661,24.4067797 35.3570339,24.0658475 35.3570339,23.6440678 C35.3570339,23.2222881 35.6979661,22.8813559 36.1197458,22.8813559 L37.6451695,22.8813559 C38.0669492,22.8813559 38.4078814,23.2222881 38.4078814,23.6440678 C38.4078814,24.0658475 38.0669492,24.4067797 37.6451695,24.4067797 Z M33.0688983,24.4067797 L31.5434746,24.4067797 C31.1216949,24.4067797 30.7807627,24.0658475 30.7807627,23.6440678 C30.7807627,23.2222881 31.1216949,22.8813559 31.5434746,22.8813559 L33.0688983,22.8813559 C33.490678,22.8813559 33.8316102,23.2222881 33.8316102,23.6440678 C33.8316102,24.0658475 33.490678,24.4067797 33.0688983,24.4067797 Z M28.4926271,24.4067797 L26.9672034,24.4067797 C26.5454237,24.4067797 26.2044915,24.0658475 26.2044915,23.6440678 C26.2044915,23.2222881 26.5454237,22.8813559 26.9672034,22.8813559 L28.4926271,22.8813559 C28.9144068,22.8813559 29.255339,23.2222881 29.255339,23.6440678 C29.255339,24.0658475 28.9144068,24.4067797 28.4926271,24.4067797 Z M23.9163559,24.4067797 L23.6440678,24.4067797 C23.1269492,24.4060169 22.624322,24.3129661 22.1468644,24.1314407 C21.7533051,23.9811864 21.5565254,23.540339 21.7060169,23.1467797 C21.8570339,22.7524576 22.3001695,22.5572034 22.690678,22.7059322 C22.9942373,22.8218644 23.315339,22.8805932 23.6455932,22.8813559 L23.9163559,22.8813559 C24.3381356,22.8813559 24.6790678,23.2222881 24.6790678,23.6440678 C24.6790678,24.0658475 24.3381356,24.4067797 23.9163559,24.4067797 Z M20.3827119,22.0461864 C20.0623729,22.0461864 19.7633898,21.8425424 19.6581356,21.5214407 C19.519322,21.1004237 19.4499153,20.6595763 19.4499153,20.2111017 C19.450678,20.0295763 19.4621186,19.8533898 19.4834746,19.6817797 C19.535339,19.265339 19.9044915,18.9716949 20.3354237,19.0205085 C20.7533898,19.0723729 21.0500847,19.4544915 20.9966949,19.8724576 C20.9822034,19.9845763 20.9761017,20.0997458 20.975339,20.2149153 C20.975339,20.4971186 21.020339,20.7770339 21.1080508,21.0447458 C21.2392373,21.4444068 21.0218644,21.8761017 20.6214407,22.0080508 C20.5421186,22.0347458 20.4612712,22.0461864 20.3827119,22.0461864 Z M21.8349153,18.0579661 C21.5801695,18.0579661 21.3315254,17.9305932 21.1866102,17.6987288 C20.9638983,17.3410169 21.0729661,16.8704237 21.4299153,16.6477119 C21.9638136,16.3144068 22.5526271,16.1115254 23.1795763,16.0421186 C23.6013559,15.9986441 23.9750847,16.2983898 24.0216102,16.7171186 C24.0681356,17.1358475 23.765339,17.5126271 23.3466102,17.5591525 C22.9492373,17.6033898 22.5755085,17.7322881 22.2376271,17.9427966 C22.1117797,18.0205932 21.9729661,18.0579661 21.8349153,18.0579661 Z M32.4152542,17.5423729 L30.8898305,17.5423729 C30.4680508,17.5423729 30.1271186,17.2014407 30.1271186,16.779661 C30.1271186,16.3578814 30.4680508,16.0169492 30.8898305,16.0169492 L32.4152542,16.0169492 C32.8370339,16.0169492 33.1779661,16.3578814 33.1779661,16.779661 C33.1779661,17.2014407 32.8370339,17.5423729 32.4152542,17.5423729 Z M27.8389831,17.5423729 L26.3135593,17.5423729 C25.8917797,17.5423729 25.5508475,17.2014407 25.5508475,16.779661 C25.5508475,16.3578814 25.8917797,16.0169492 26.3135593,16.0169492 L27.8389831,16.0169492 C28.2607627,16.0169492 28.6016949,16.3578814 28.6016949,16.779661 C28.6016949,17.2014407 28.2607627,17.5423729 27.8389831,17.5423729 Z" id="Shape" fill="#ED8A19"></path>
            <path d="M40.7822034,2.03567797 C38.374322,-0.678813559 34.47,-0.678813559 32.0621186,2.03567797 C29.6542373,4.75016949 29.6542373,9.15025424 32.0621186,11.8647458 L36.4217797,16.779661 L40.7814407,11.8647458 C43.1900847,9.15101695 43.1900847,4.75016949 40.7822034,2.03567797 Z M36.6101695,9.91525424 C34.7148305,9.91525424 33.1779661,8.37838983 33.1779661,6.48305085 C33.1779661,4.58771186 34.7148305,3.05084746 36.6101695,3.05084746 C38.5055085,3.05084746 40.0423729,4.58771186 40.0423729,6.48305085 C40.0423729,8.37838983 38.5055085,9.91525424 36.6101695,9.91525424 Z" id="Shape" fill="#26B99A"></path>
            <path d="M14.7035593,21.8440678 C11.4269492,18.1426271 6.11466102,18.1426271 2.83881356,21.8440678 C-0.43779661,25.5455085 -0.43779661,31.5465254 2.83881356,35.2472034 L8.77118644,41.9491525 L14.7035593,35.2472034 C17.9801695,31.5457627 17.9801695,25.5447458 14.7035593,21.8440678 Z M8.77118644,31.2711864 C6.66533898,31.2711864 4.95762712,29.5634746 4.95762712,27.4576271 C4.95762712,25.3517797 6.66533898,23.6440678 8.77118644,23.6440678 C10.8770339,23.6440678 12.5847458,25.3517797 12.5847458,27.4576271 C12.5847458,29.5634746 10.8770339,31.2711864 8.77118644,31.2711864 Z" id="Shape" fill="#3083C9"></path>
        </g>
    </g>
</svg>