<?xml version="1.0" encoding="UTF-8"?>
<svg width="73px" height="73px" viewBox="0 0 73 73" version="1.1" xmlns="http://www.w3.org/2000/svg" xmlns:xlink="http://www.w3.org/1999/xlink">
    <!-- Generator: Sketch 51.3 (57544) - http://www.bohemiancoding.com/sketch -->
    <title>progressive-webapps/apis/service-workers</title>
    <desc>Created with Sketch.</desc>
    <defs></defs>
    <g id="progressive-webapps/apis/service-workers" stroke="none" stroke-width="1" fill="none" fill-rule="evenodd">
        <g id="container" transform="translate(2.000000, 2.000000)" fill-rule="nonzero">
            <rect id="mask" stroke="#515262" stroke-width="2" fill="#FFFFFF" x="-1" y="-1" width="71" height="71" rx="14"></rect>
            <g id="customer-service" transform="translate(13.000000, 10.000000)">
                <path d="M10.0541236,23.3527715 L8.84721686,22.7492709 C8.56473927,22.6080321 8.38627768,22.3193192 8.38627768,22.0033978 L8.38627768,18.86459 C8.38627768,18.5487631 8.56473927,18.2599557 8.84721686,18.1187169 L10.0541236,17.5152163 L10.0541236,23.3527715 Z" id="Shape" fill="#707487"></path>
                <polygon id="Shape" fill="#E6AF78" points="29.234635 34.1938644 29.234635 28.3564037 14.2238329 28.3564037 14.2238329 34.1938644 21.7292339 40.8653426"></polygon>
                <path d="M40.8398346,36.9245441 L30.5205221,34.496465 C30.3646399,34.459809 30.2213226,34.3975506 30.0871694,34.3220658 L21.7291395,39.1975911 L13.6970452,34.0862584 C13.4891077,34.2820088 13.2310044,34.4274989 12.9378513,34.4965595 L2.61853887,36.9246385 C1.11167684,37.2791999 0.0467646838,38.6237554 0.0467646838,40.1717137 L0.0467646838,46.7030867 C0.0467646838,47.6243037 0.793488039,48.3709326 1.7146106,48.3709326 L41.7434794,48.3709326 C42.6646964,48.3709326 43.4113253,47.6242092 43.4113253,46.7030867 L43.4113253,40.1717137 C43.4115143,38.6236609 42.3466021,37.2790109 40.8398346,36.9245441 Z" id="Shape" fill="#B4E1FA"></path>
                <path d="M14.2238329,28.3564037 L14.2238329,34.5154543 C23.6786127,37.9219072 29.234635,29.3963747 29.234635,29.3963747 L29.234635,28.3563093 L14.2238329,28.3563093 L14.2238329,28.3564037 Z" id="Shape" fill="#D29B6E"></path>
                <path d="M10.8880466,9.17598676 L11.6147414,25.1636512 C11.6825738,26.6571924 12.4149371,28.0422773 13.6109793,28.939309 L17.0590953,31.5254432 C17.925234,32.1749527 18.9786203,32.5262075 20.0612936,32.5262075 L23.3970799,32.5262075 C24.4797531,32.5262075 25.5331395,32.1750472 26.3992781,31.5254432 L29.8473941,28.939309 C31.0434363,28.0421828 31.7757996,26.6572869 31.843632,25.1636512 L32.5703269,9.17598676 C32.5703269,9.17598676 10.8880466,9.17598676 10.8880466,9.17598676 Z" id="Shape" fill="#F0C087"></path>
                <path d="M19.2274651,12.5116786 C22.5632514,12.5116786 27.5667891,11.6777556 28.7535729,9.17589228 L10.8880466,9.17589228 L11.6147414,25.1635567 C11.6825738,26.6570979 12.4149371,28.0420884 13.6110738,28.9392145 L17.0591898,31.5253488 C17.9253284,32.1748583 18.9787147,32.526113 20.061388,32.526113 L21.7292339,32.526113 C20.061388,32.526113 16.7256017,29.1903267 16.7256017,25.0207119 C16.7256017,22.9813938 16.7256017,17.5153108 16.7256017,15.0134475 C16.7256017,14.1795245 17.5595247,12.5116786 19.2274651,12.5116786 Z" id="Shape" fill="#E6AF78"></path>
                <g id="Group" transform="translate(0.000000, 38.073066)" fill="#A0D2F0">
                    <path d="M6.1691593,4.88563406 L0.765334755,0.0313654041 C0.312520352,0.60472877 0.0470481061,1.32622754 0.0470481061,2.09864785 L0.0470481061,8.63002088 C0.0470481061,9.55123792 0.793771461,10.2978668 1.71489402,10.2978668 L7.5524492,10.2978668 L7.5524492,7.98759694 C7.55235472,6.80411978 7.04946904,5.67638235 6.1691593,4.88563406 Z" id="Shape"></path>
                    <path d="M37.2894031,4.88563406 L42.6932276,0.0313654041 C43.146042,0.60472877 43.4115143,1.32622754 43.4115143,2.09864785 L43.4115143,8.63002088 C43.4115143,9.55123792 42.6647909,10.2978668 41.7436683,10.2978668 L35.9061132,10.2978668 L35.9061132,7.98759694 C35.9061132,6.80411978 36.4089989,5.67638235 37.2894031,4.88563406 Z" id="Shape"></path>
                </g>
                <polygon id="Shape" fill="#5B5D6E" points="23.8140886 48.3708381 19.6443793 48.3708381 20.165593 40.8653426 23.2928749 40.8653426"></polygon>
                <path d="M23.8140886,39.1974966 L19.6443793,39.1974966 L19.6443793,40.766995 C19.6443793,41.2819734 20.0617659,41.69936 20.5767443,41.69936 L22.8816291,41.69936 C23.3966075,41.69936 23.8139941,41.2819734 23.8139941,40.766995 L23.8139941,39.1974966 L23.8140886,39.1974966 Z" id="Shape" fill="#515262"></path>
                <g id="Group" transform="translate(11.714789, 32.121197)" fill="#A0D2F0">
                    <path d="M2.39198996,0.216062287 L10.0145389,7.07629969 C10.0145389,7.07629969 7.87980198,8.15396585 5.24548594,10.3260201 C4.70207086,10.7740163 3.88005164,10.5925315 3.58859902,9.95133577 L0.00736898048,2.07276194 L1.14030249,0.373456152 C1.42221323,-0.0497878553 2.01399905,-0.124044505 2.39198996,0.216062287 Z" id="Shape"></path>
                    <path d="M17.6369935,0.216062287 L10.0144445,7.07629969 C10.0144445,7.07629969 12.1491814,8.15396585 14.7834975,10.3260201 C15.3269126,10.7740163 16.1489318,10.5925315 16.4403844,9.95133577 L20.0216144,2.07276194 L18.8886809,0.373456152 C18.6066757,-0.0497878553 18.0148899,-0.124044505 17.6369935,0.216062287 Z" id="Shape"></path>
                </g>
                <path d="M26.7849214,3.65114088 L27.5666947,9.17598676 C31.1354541,9.88973865 31.6497712,15.4903528 31.7238389,17.0899884 C31.7372542,17.3803073 31.8299333,17.660612 31.9874216,17.9048276 L33.3490769,20.0170797 C33.3490769,20.0170797 32.8830362,16.5249387 35.0169229,14.1795245 C35.0170173,14.1795245 35.7497585,0.315354575 26.7849214,3.65114088 Z" id="Shape" fill="#785550"></path>
                <path d="M11.6872975,2.15693838 L12.9207515,2.99955295 C7.34385037,7.1171125 8.38618321,14.1795245 8.38618321,14.1795245 C10.0540291,15.8473704 10.0540291,20.0170797 10.0540291,20.0170797 L11.721875,18.3492338 C11.721875,18.3492338 11.0782229,13.5312432 14.2236439,11.6777556 C17.1424215,9.95776 19.6963401,10.8438327 22.3024084,10.8438327 C29.2865958,10.8438327 31.2411706,8.21168953 30.9023865,5.00627749 C30.7270425,3.34769004 28.1911685,-0.107228113 21.7291395,0.00264527504 C19.1212762,0.046953632 14.2238329,0.836568232 11.6872975,2.15693838 Z" id="Shape" fill="#694B4B"></path>
                <path d="M11.2007559,10.1141147 C11.2007559,10.1141147 10.3146832,6.6219737 12.9207515,2.99964743 C7.34385037,7.11720698 8.38618321,14.179619 8.38618321,14.179619 C10.0540291,15.8474649 10.0540291,20.0171742 10.0540291,20.0171742 L11.721875,18.3493282 C11.721875,18.3493282 11.0782229,13.5313376 14.2236439,11.6778501 C17.1424215,9.95785448 19.6963401,10.8439271 22.3024084,10.8439271 C23.4382706,10.8439271 24.4280758,10.7678755 25.3097082,10.6375012 C19.9311082,10.8177578 16.7604627,6.74356188 11.2007559,10.1141147 Z" id="Shape" fill="#5A4146"></path>
                <path d="M11.3050553,24.1866945 L10.0541236,24.1866945 C9.59356232,24.1866945 9.22020064,23.8133328 9.22020064,23.3527715 L9.22020064,17.5152163 C9.22020064,17.054655 9.59356232,16.6812934 10.0541236,16.6812934 L11.3050553,16.6812934 C11.5352887,16.6812934 11.722064,16.8679742 11.722064,17.0983021 L11.722064,23.7696857 C11.7219695,24.0001081 11.5352887,24.1866945 11.3050553,24.1866945 Z" id="Shape" fill="#5B5D6E"></path>
                <path d="M25.0650203,28.9818223 L25.0650203,27.7308907 C30.7091869,27.7308907 31.9450027,24.5704483 31.9450027,23.3527715 L33.1959344,23.3527715 C33.1958399,24.9184909 31.7351757,28.9818223 25.0650203,28.9818223 Z" id="Shape" fill="#464655"></path>
                <path d="M25.0650203,29.1903267 L24.2310973,29.1903267 C23.770536,29.1903267 23.3971743,28.816965 23.3971743,28.3564037 C23.3971743,27.8958424 23.770536,27.5224808 24.2310973,27.5224808 L25.0650203,27.5224808 C25.5255815,27.5224808 25.8989432,27.8958424 25.8989432,28.3564037 C25.8989432,28.816965 25.5254871,29.1903267 25.0650203,29.1903267 Z" id="Shape" fill="#5B5D6E"></path>
                <path d="M33.4043443,23.3527715 L34.611251,22.7492709 C34.8937286,22.6080321 35.0721902,22.3193192 35.0721902,22.0033978 L35.0721902,18.86459 C35.0721902,18.5487631 34.8937286,18.2599557 34.611251,18.1187169 L33.4043443,17.5152163 L33.4043443,23.3527715 Z" id="Shape" fill="#707487"></path>
                <path d="M32.1534126,24.1866945 L33.4043443,24.1866945 C33.8649056,24.1866945 34.2382673,23.8133328 34.2382673,23.3527715 L34.2382673,17.5152163 C34.2382673,17.054655 33.8649056,16.6812934 33.4043443,16.6812934 L32.1534126,16.6812934 C31.9231792,16.6812934 31.7364039,16.8679742 31.7364039,17.0983021 L31.7364039,23.7696857 C31.7364984,24.0001081 31.9231792,24.1866945 32.1534126,24.1866945 Z" id="Shape" fill="#5B5D6E"></path>
                <path d="M32.5704213,46.7028977 L26.7328662,46.7028977 C26.2723049,46.7028977 25.8989432,47.0762594 25.8989432,47.5368207 L25.8989432,48.3707437 L33.4043443,48.3707437 L33.4043443,47.5368207 C33.4043443,47.0763539 33.0308881,46.7028977 32.5704213,46.7028977 Z" id="Shape" fill="#A0D2F0"></path>
            </g>
        </g>
    </g>
</svg>