<?xml version="1.0" encoding="UTF-8"?>
<svg width="73px" height="73px" viewBox="0 0 73 73" version="1.1" xmlns="http://www.w3.org/2000/svg" xmlns:xlink="http://www.w3.org/1999/xlink">
    <!-- Generator: Sketch 51.3 (57544) - http://www.bohemiancoding.com/sketch -->
    <title>progressive-webapps/apis/web-app-manifest</title>
    <desc>Created with Sketch.</desc>
    <defs></defs>
    <g id="progressive-webapps/apis/web-app-manifest" stroke="none" stroke-width="1" fill="none" fill-rule="evenodd">
        <g id="container" transform="translate(2.000000, 2.000000)" fill="#FFFFFF" fill-rule="nonzero" stroke="#55585E" stroke-width="2">
            <rect id="mask" x="-1" y="-1" width="71" height="71" rx="14"></rect>
        </g>
        <g id="document-(1)" transform="translate(16.000000, 14.000000)" fill-rule="nonzero">
            <path d="M35.1155992,1.52676518 C35.1129899,0.684733286 34.4308659,0.00260922261 33.588834,0 L9.92397368,0 L9.92397368,7.6338259 C9.92397368,8.47697606 9.24035865,9.16059109 8.3972085,9.16059109 L0,9.16059109 L0,42.7494251 C0.00260922261,43.591457 0.684733286,44.273581 1.52676518,44.2761902 L33.588834,44.2761902 C34.4308659,44.273581 35.1129899,43.591457 35.1155992,42.7494251 L35.1155992,1.52676518 Z" id="Shape" fill="#FFE9CC"></path>
            <polygon id="Shape" fill="#939598" points="11.6974964 40.213638 12.7765942 32.6565977 17.6349579 34.2758038 19.2549094 39.1341674"></polygon>
            <path d="M9.92397368,44.2761902 L33.588834,44.2761902 C34.4319841,44.2761902 35.1155992,43.5925752 35.1155992,42.7494251 L35.1155992,20.6806605 C30.9456963,32.102698 21.5938868,40.8618423 9.92397368,44.2761902 Z" id="Shape" fill="#FFE2BD"></path>
            <polygon id="Shape" fill="#ACABB1" points="28.9712639 16.4626736 31.1302053 14.3037322 37.607775 20.7813018 35.4488336 22.9402432"></polygon>
            <path d="M34.9583006,11.9088429 C34.699988,11.9341896 34.4446574,11.9826466 34.194918,12.0538409 C33.4445815,12.2674241 32.7613392,12.6692436 32.2100487,13.2216523 L31.1339328,14.3059687 L37.6074022,20.7794381 L38.6835182,19.7029494 C40.0574577,18.3301281 40.4160388,16.2401445 39.5784799,14.4878684 C38.740921,12.7355923 36.8894946,11.7019692 34.9583006,11.9088429 Z" id="Shape" fill="#C6C5CA"></path>
            <path d="M28.9749914,16.4585734 L12.7758488,32.6573432 L17.0996955,34.8147936 L26.8123225,25.0984392 L17.0996955,34.8147936 L18.0744247,36.7638794 L19.2608733,39.1300671 L34.9627736,23.4289125 L35.4514427,22.9402432 L34.1978999,21.6870732 L28.9749914,16.4585734 Z M29.044322,22.8664396 L30.1245381,21.7869689 L29.044322,22.8664396 Z" id="Shape" fill="#FFD733"></path>
            <path d="M9.92397368,7.6338259 L9.92397368,0 L0,9.16059109 L8.3972085,9.16059109 C9.24035865,9.16059109 9.92397368,8.47697606 9.92397368,7.6338259 Z" id="Shape" fill="#FFA993"></path>
            <path d="M19.142713,33.5321767 C18.8337071,33.5325494 18.5548936,33.3465495 18.4367333,33.0610265 C18.3185729,32.7755035 18.3841761,32.4467421 18.6029777,32.2283133 L26.7948035,24.0390967 C26.9819217,23.8240226 27.2734086,23.7315818 27.5503584,23.7990487 C27.8273083,23.8661428 28.0438733,24.0823352 28.1113402,24.359285 C28.1791799,24.6362349 28.0871118,24.9277217 27.8727832,25.1152127 L19.6824484,33.3085294 C19.5393142,33.4516637 19.3451138,33.5321767 19.142713,33.5321767 Z" id="Shape" fill="#F1F2F2"></path>
            <path d="M29.4916165,23.1825277 C29.1829833,23.182155 28.9049152,22.9965278 28.7867549,22.7110048 C28.6685946,22.4258546 28.7338251,22.0974659 28.9518811,21.8794098 L30.0313518,20.7999391 C30.3310391,20.5106886 30.807035,20.5147889 31.1015039,20.8092578 C31.3959727,21.1037266 31.400073,21.5797226 31.1108225,21.8794098 L30.0313518,22.9588805 C29.8885903,23.1023875 29.69439,23.1829005 29.4916165,23.1825277 Z" id="Shape" fill="#F1F2F2"></path>
            <path d="M21.3747125,20.6113299 L5.34367813,20.6113299 C4.92210306,20.6113299 4.58029554,20.2695224 4.58029554,19.8479474 C4.58029554,19.4263723 4.92210306,19.0845648 5.34367813,19.0845648 L21.3747125,19.0845648 C21.7962876,19.0845648 22.1380951,19.4263723 22.1380951,19.8479474 C22.1380951,20.2695224 21.7962876,20.6113299 21.3747125,20.6113299 Z" id="Shape" fill="#FF7956"></path>
            <path d="M16.794417,25.1916255 L5.34367813,25.1916255 C4.92210306,25.1916255 4.58029554,24.849818 4.58029554,24.4282429 C4.58029554,24.0066678 4.92210306,23.6648603 5.34367813,23.6648603 L16.794417,23.6648603 C17.2159921,23.6648603 17.5577996,24.0066678 17.5577996,24.4282429 C17.5577996,24.849818 17.2159921,25.1916255 16.794417,25.1916255 Z" id="Shape" fill="#FF7956"></path>
            <path d="M12.2141214,29.771921 L5.34367813,29.771921 C4.92210306,29.771921 4.58029554,29.4301135 4.58029554,29.0085384 C4.58029554,28.5869634 4.92210306,28.2451558 5.34367813,28.2451558 L12.2141214,28.2451558 C12.6356965,28.2451558 12.977504,28.5869634 12.977504,29.0085384 C12.977504,29.4301135 12.6356965,29.771921 12.2141214,29.771921 Z" id="Shape" fill="#FF7956"></path>
            <path d="M25.9550081,16.0310344 L11.4507389,16.0310344 C11.0291638,16.0310344 10.6873563,15.6892269 10.6873563,15.2676518 C10.6873563,14.8460767 11.0291638,14.5042692 11.4507389,14.5042692 L25.9550081,14.5042692 C26.3765832,14.5042692 26.7183907,14.8460767 26.7183907,15.2676518 C26.7183907,15.6892269 26.3765832,16.0310344 25.9550081,16.0310344 Z" id="Shape" fill="#FF7956"></path>
            <path d="M8.3972085,16.0310344 L5.34367813,16.0310344 C4.92210306,16.0310344 4.58029554,15.6892269 4.58029554,15.2676518 C4.58029554,14.8460767 4.92210306,14.5042692 5.34367813,14.5042692 L8.3972085,14.5042692 C8.81878357,14.5042692 9.16059109,14.8460767 9.16059109,15.2676518 C9.16059109,15.6892269 8.81878357,16.0310344 8.3972085,16.0310344 Z" id="Shape" fill="#FF7956"></path>
        </g>
    </g>
</svg>