<?xml version="1.0" encoding="UTF-8"?>
<svg width="73px" height="73px" viewBox="0 0 73 73" version="1.1" xmlns="http://www.w3.org/2000/svg" xmlns:xlink="http://www.w3.org/1999/xlink">
    <!-- Generator: Sketch 51.3 (57544) - http://www.bohemiancoding.com/sketch -->
    <title>algorithms-and-data-structures/algorithms/hashing</title>
    <desc>Created with Sketch.</desc>
    <defs></defs>
    <g id="algorithms-and-data-structures/algorithms/hashing" stroke="none" stroke-width="1" fill="none" fill-rule="evenodd">
        <g id="container" transform="translate(2.000000, 2.000000)" fill="#FFFFFF" fill-rule="nonzero" stroke="#242D32" stroke-width="2">
            <rect id="mask" x="-1" y="-1" width="71" height="71" rx="14"></rect>
        </g>
        <g id="hash" transform="translate(13.000000, 13.000000)" fill-rule="nonzero">
            <g id="Group" transform="translate(2.350000, 2.350000)" fill="#657B88">
                <rect id="Rectangle-path" x="17.2333333" y="0" width="1.56666667" height="12.5333333"></rect>
                <path d="M30.8257333,5.43398333 C31.13045,5.31883333 31.3333333,5.02665 31.3333333,4.7 L31.3333333,0 L29.7666667,0 L29.7666667,4.15715 L25.0666667,5.91965 L25.0666667,3.13333333 L23.5,3.13333333 L23.5,12.5333333 L25.0666667,12.5333333 L25.0666667,7.59285 L30.8257333,5.43398333 Z" id="Shape"></path>
                <rect id="Rectangle-path" x="26.6333333" y="17.2333333" width="15.6666667" height="1.56666667"></rect>
                <path d="M39.1666667,10.9666667 C38.9583,10.9666667 38.7593333,11.0489167 38.61285,11.1961833 L35.7090333,14.1 L25.85,14.1 L25.85,15.6666667 L36.0333333,15.6666667 C36.2417,15.6666667 36.4406667,15.5844167 36.58715,15.43715 L39.4909667,12.5333333 L42.3,12.5333333 L42.3,10.9666667 L39.1666667,10.9666667 Z" id="Shape"></path>
                <path d="M36.38035,25.0666667 L39.1666667,25.0666667 L39.1666667,23.5 L28.2,23.5 L28.2,25.0666667 L34.70715,25.0666667 L36.8668,30.82495 C36.9811667,31.13045 37.27335,31.3333333 37.6,31.3333333 L42.3,31.3333333 L42.3,29.7666667 L38.14285,29.7666667 L36.38035,25.0666667 Z" id="Shape"></path>
                <rect id="Rectangle-path" x="23.5" y="30.55" width="1.56666667" height="11.75"></rect>
                <path d="M28.2,35.7090333 L28.2,30.55 L26.6333333,30.55 L26.6333333,36.0333333 C26.6333333,36.2409167 26.7155833,36.4406667 26.86285,36.58715 L29.7666667,39.4909667 L29.7666667,42.3 L31.3333333,42.3 L31.3333333,39.1666667 C31.3333333,38.9590833 31.2510833,38.7593333 31.1038167,38.61285 L28.2,35.7090333 Z" id="Shape"></path>
                <path d="M17.2333333,34.70715 L11.4742667,36.8668 C11.16955,36.9811667 10.9666667,37.27335 10.9666667,37.6 L10.9666667,42.3 L12.5333333,42.3 L12.5333333,38.14285 L17.2333333,36.38035 L17.2333333,39.1666667 L18.8,39.1666667 L18.8,30.55 L17.2333333,30.55 L17.2333333,34.70715 Z" id="Shape"></path>
                <rect id="Rectangle-path" x="0" y="23.5" width="14.1" height="1.56666667"></rect>
                <path d="M14.1,26.6333333 L6.26666667,26.6333333 C6.0583,26.6333333 5.85933333,26.7155833 5.71285,26.86285 L2.80903333,29.7666667 L0,29.7666667 L0,31.3333333 L3.13333333,31.3333333 C3.3417,31.3333333 3.54066667,31.2510833 3.68715,31.1038167 L6.59096667,28.2 L14.1,28.2 L14.1,26.6333333 Z" id="Shape"></path>
                <path d="M5.91965,17.2333333 L3.13333333,17.2333333 L3.13333333,18.8 L15.6666667,18.8 L15.6666667,18.0166667 L15.6666667,17.2333333 L15.6666667,6.26666667 C15.6666667,6.05908333 15.5844167,5.85933333 15.43715,5.71285 L12.5333333,2.80903333 L12.5333333,0 L10.9666667,0 L10.9666667,3.13333333 C10.9666667,3.34091667 11.0489167,3.54066667 11.1961833,3.68715 L14.1,6.59096667 L14.1,17.2333333 L7.59285,17.2333333 L5.4332,11.47505 C5.31883333,11.16955 5.02665,10.9666667 4.7,10.9666667 L0,10.9666667 L0,12.5333333 L4.15715,12.5333333 L5.91965,17.2333333 Z" id="Shape"></path>
            </g>
            <rect id="Rectangle-path" fill="#9D8980" x="15.6666667" y="24.2833333" width="15.6666667" height="9.4"></rect>
            <path d="M26.6333333,25.4583333 C26.6333333,25.05805 26.59495,24.66795 26.5401167,24.2833333 L15.6666667,24.2833333 L15.6666667,33.2055 C16.5252,33.5094333 17.4456167,33.6833333 18.4083333,33.6833333 C22.9508833,33.6833333 26.6333333,30.0008833 26.6333333,25.4583333 Z" id="Shape" fill="#B9ABA5"></path>
            <circle id="Oval" fill="#7B909B" cx="23.5" cy="28.9833333" r="1.56666667"></circle>
            <path d="M26.6333333,24.2833333 L26.6333333,19.5833333 C26.6333333,17.85295 25.2303833,16.45 23.5,16.45 C21.7696167,16.45 20.3666667,17.85295 20.3666667,19.5833333 L20.3666667,24.2833333 L17.2333333,24.2833333 L17.2333333,19.5833333 C17.2333333,16.1225667 20.0392333,13.3166667 23.5,13.3166667 C26.9607667,13.3166667 29.7666667,16.1225667 29.7666667,19.5833333 L29.7666667,24.2833333 L26.6333333,24.2833333 Z" id="Shape" fill="#7B909B"></path>
            <circle id="Oval" fill="#EBB652" cx="14.1" cy="1.56666667" r="1.56666667"></circle>
            <circle id="Oval" fill="#EBB652" cx="20.3666667" cy="1.56666667" r="1.56666667"></circle>
            <circle id="Oval" fill="#EBB652" cx="26.6333333" cy="4.7" r="1.56666667"></circle>
            <circle id="Oval" fill="#EBB652" cx="32.9" cy="1.56666667" r="1.56666667"></circle>
            <circle id="Oval" fill="#EBB652" cx="45.4333333" cy="14.1" r="1.56666667"></circle>
            <circle id="Oval" fill="#EBB652" cx="45.4333333" cy="20.3666667" r="1.56666667"></circle>
            <circle id="Oval" fill="#EBB652" cx="42.3" cy="26.6333333" r="1.56666667"></circle>
            <circle id="Oval" fill="#EBB652" cx="45.4333333" cy="32.9" r="1.56666667"></circle>
            <circle id="Oval" fill="#EBB652" cx="32.9" cy="45.4333333" r="1.56666667"></circle>
            <circle id="Oval" fill="#EBB652" cx="26.6333333" cy="45.4333333" r="1.56666667"></circle>
            <circle id="Oval" fill="#EBB652" cx="20.3666667" cy="42.3" r="1.56666667"></circle>
            <circle id="Oval" fill="#EBB652" cx="14.1" cy="45.4333333" r="1.56666667"></circle>
            <circle id="Oval" fill="#EBB652" cx="1.56666667" cy="32.9" r="1.56666667"></circle>
            <circle id="Oval" fill="#EBB652" cx="1.56666667" cy="26.6333333" r="1.56666667"></circle>
            <circle id="Oval" fill="#EBB652" cx="4.7" cy="20.3666667" r="1.56666667"></circle>
            <circle id="Oval" fill="#EBB652" cx="1.56666667" cy="14.1" r="1.56666667"></circle>
        </g>
    </g>
</svg>