<?xml version="1.0" encoding="UTF-8"?>
<svg width="73px" height="73px" viewBox="0 0 73 73" version="1.1" xmlns="http://www.w3.org/2000/svg" xmlns:xlink="http://www.w3.org/1999/xlink">
    <!-- Generator: Sketch 51.3 (57544) - http://www.bohemiancoding.com/sketch -->
    <title>algorithms-and-data-structures/algorithms/mergesort</title>
    <desc>Created with Sketch.</desc>
    <defs></defs>
    <g id="algorithms-and-data-structures/algorithms/mergesort" stroke="none" stroke-width="1" fill="none" fill-rule="evenodd">
        <g id="container" transform="translate(2.000000, 2.000000)" fill="#FFFFFF" fill-rule="nonzero" stroke="#09374C" stroke-width="2">
            <rect id="mask" x="-1" y="-1" width="71" height="71" rx="14"></rect>
        </g>
        <g id="spot-lights" transform="translate(14.000000, 16.000000)" fill-rule="nonzero">
            <g id="Group" transform="translate(3.766082, 6.097466)" fill="#FFE6A1">
                <polygon id="Shape" points="0.0457309942 2.74681871 4.59668226 30.7054932 33.7814854 30.7054932 4.13157115 0.0627680312"></polygon>
                <polygon id="Shape" points="38.3324366 2.74681871 33.7814854 30.7054932 4.59668226 30.7054932 34.2465965 0.0627680312"></polygon>
            </g>
            <polygon id="Shape" fill="#FFD550" points="8.36276413 36.8029591 37.5475673 36.8029591 22.9551657 21.7218635"></polygon>
            <ellipse id="Oval" fill="#F7CB52" cx="22.9551657" cy="36.8034074" rx="14.5926706" ry="3.52487329"></ellipse>
            <path d="M3.72591033,8.58164522 L0.256272904,3.29989474 C-0.216729045,2.57994542 -0.0164093567,1.6128694 0.703539961,1.13986745 L2.01404678,0.279048733 C2.7339961,-0.193953216 3.70107212,0.00636647173 4.17407407,0.726315789 L7.6437115,6.00806628 L3.72591033,8.58164522 Z" id="Shape" fill="#1E608B"></path>
            <path d="M2.07340741,1.60910331 L5.7605809,7.2451345 L7.6437115,6.00806628 L4.17407407,0.726226121 C3.70107212,0.00627680312 2.7339961,-0.194042885 2.01404678,0.278959064 L1.02527096,0.928518519 C1.43927096,0.997473684 1.82475634,1.23061209 2.07340741,1.60910331 Z" id="Shape" fill="#135370"></path>
            <path d="M9.83288109,4.30122417 C9.77549318,3.92766472 9.42533723,3.67076413 9.05240546,3.72860039 L6.66641326,4.09507602 C6.56939181,4.10996101 6.4765848,4.14564912 6.39453801,4.19953996 L2.55681092,6.7205731 C2.47476413,6.77446394 2.40518129,6.84539181 2.35299415,6.92860429 L1.05844834,8.98990643 C0.857411306,9.31002339 0.953894737,9.73254191 1.2740117,9.93357895 C1.38717349,10.0045965 1.51306823,10.0384912 1.6374386,10.0384912 C1.86501754,10.0384912 2.08766472,9.92497076 2.21768421,9.71801559 L2.55932164,9.1739961 L2.74672904,9.95169201 C2.78994932,10.1311189 2.99807018,10.213345 3.15230019,10.1120195 L9.27603899,6.08930604 C9.43026901,5.98798051 9.43735283,5.76434698 9.28993762,5.6534269 L8.65355945,5.17477583 L9.26043665,5.08161014 C9.63390643,5.02422222 9.89026901,4.67487329 9.83288109,4.30122417 Z" id="Shape" fill="#FEC93E"></path>
            <path d="M6.2851423,8.05403509 L9.27603899,6.08930604 C9.43026901,5.98798051 9.43735283,5.76434698 9.28993762,5.6534269 L8.65355945,5.17477583 L9.26043665,5.08161014 C9.6339961,5.02422222 9.89044834,4.67487329 9.83306043,4.3011345 C9.77567251,3.92757505 9.42551657,3.67067446 9.0525848,3.72851072 L6.66659259,4.09498635 C6.56957115,4.10987135 6.47676413,4.14555945 6.39471735,4.19945029 L4.55561404,5.40746589 L6.2851423,8.05403509 Z" id="Shape" fill="#EFB73A"></path>
            <path d="M42.1844211,8.58164522 L45.6540585,3.29989474 C46.1270604,2.57994542 45.9267407,1.6128694 45.2067914,1.13986745 L43.8962846,0.279048733 C43.1763353,-0.193953216 42.2092593,0.00636647173 41.7362573,0.726315789 L38.2666199,6.00806628 L42.1844211,8.58164522 Z" id="Shape" fill="#135370"></path>
            <path d="M43.836924,1.60910331 L40.1497505,7.2451345 L38.2666199,6.00806628 L41.7362573,0.726315789 C42.2092593,0.00636647173 43.1763353,-0.193953216 43.8962846,0.279048733 L44.8850604,0.928608187 C44.4710604,0.997473684 44.085575,1.23061209 43.836924,1.60910331 Z" id="Shape" fill="#1E608B"></path>
            <path d="M36.0774503,4.30122417 C36.1348382,3.92766472 36.4849942,3.67076413 36.8578363,3.72860039 L39.2438285,4.09507602 C39.3408499,4.10996101 39.4336569,4.14564912 39.5157037,4.19953996 L43.3534308,6.7205731 C43.4354776,6.77446394 43.5050604,6.84539181 43.5572476,6.92860429 L44.8517934,8.98990643 C45.0528304,9.31002339 44.956347,9.73254191 44.63623,9.93357895 C44.5230682,10.0045965 44.3971735,10.0384912 44.2728031,10.0384912 C44.0452242,10.0384912 43.822577,9.92497076 43.6925575,9.71801559 L43.3509201,9.1739961 L43.1635127,9.95169201 C43.1202924,10.1311189 42.9121715,10.213345 42.7579415,10.1120195 L36.6342027,6.08930604 C36.4799727,5.98798051 36.4728889,5.76434698 36.6203041,5.6534269 L37.2566823,5.17477583 L36.6498051,5.08161014 C36.276425,5.02422222 36.0200624,4.67487329 36.0774503,4.30122417 Z" id="Shape" fill="#EFB73A"></path>
            <path d="M39.6251891,8.05403509 L36.6342924,6.08930604 C36.4800624,5.98798051 36.4729786,5.76434698 36.6203938,5.6534269 L37.2567719,5.17477583 L36.6498947,5.08161014 C36.2763353,5.02422222 36.019883,4.67487329 36.077271,4.3011345 C36.1346589,3.92757505 36.4848148,3.67067446 36.8576569,3.72851072 L39.2436491,4.09498635 C39.3406706,4.10987135 39.4334776,4.14555945 39.5155244,4.19945029 L41.3544483,5.40746589 L39.6251891,8.05403509 Z" id="Shape" fill="#FEC93E"></path>
        </g>
    </g>
</svg>