<?xml version="1.0" encoding="UTF-8"?>
<svg width="73px" height="73px" viewBox="0 0 73 73" version="1.1" xmlns="http://www.w3.org/2000/svg" xmlns:xlink="http://www.w3.org/1999/xlink">
    <!-- Generator: Sketch 51.3 (57544) - http://www.bohemiancoding.com/sketch -->
    <title>algorithms-and-data-structures/algorithms/searching</title>
    <desc>Created with Sketch.</desc>
    <defs></defs>
    <g id="algorithms-and-data-structures/algorithms/searching" stroke="none" stroke-width="1" fill="none" fill-rule="evenodd">
        <g id="container" transform="translate(2.000000, 2.000000)" fill="#FFFFFF" fill-rule="nonzero" stroke="#2E2839" stroke-width="2">
            <rect id="mask" x="-1" y="-1" width="71" height="71" rx="14"></rect>
        </g>
        <g id="binoculars" transform="translate(15.000000, 22.000000)" fill-rule="nonzero">
            <path d="M16.5,0 C15.3371797,0 14.2945,0.736828125 13.9070938,1.83321875 C13.7801641,2.1910625 13.9675078,2.58414062 14.3260391,2.71072656 C14.5609063,2.79511719 14.8067734,2.7314375 14.9873281,2.58173437 L17.875,6.04939844 L17.875,6.875 C17.875,7.25467187 18.1824844,7.5625 18.5625,7.5625 C18.9425156,7.5625 19.25,7.25467187 19.25,6.875 L19.25,2.75 C19.25,1.23363281 18.016625,0 16.5,0 Z" id="Shape" fill="#B9BBC1"></path>
            <path d="M14.4375,1.375 C13.1773125,1.375 11.9863047,1.85874219 11.05775,2.765125 L2.24314062,12.3880625 L3.25694531,13.3166172 L3.49507812,13.0564844 L17.875,16.9989531 L17.875,17.1875 C17.875,17.5671719 18.1824844,17.875 18.5625,17.875 C18.9425156,17.875 19.25,17.5671719 19.25,17.1875 L19.25,6.1875 C19.25,3.53383594 17.0908203,1.375 14.4375,1.375 Z" id="Shape" fill="#8B8996"></path>
            <path d="M27.5,0 C28.6628203,0 29.7055,0.736828125 30.0929063,1.83321875 C30.2198359,2.1910625 30.0324922,2.58414062 29.6739609,2.71072656 C29.4390938,2.79511719 29.1932266,2.7314375 29.0126719,2.58173437 L26.125,6.04939844 L26.125,6.875 C26.125,7.25467187 25.8175156,7.5625 25.4375,7.5625 C25.0574844,7.5625 24.75,7.25467187 24.75,6.875 L24.75,2.75 C24.75,1.23363281 25.9832891,0 27.5,0 Z" id="Shape" fill="#B9BBC1"></path>
            <path d="M29.5625,1.375 C30.8226875,1.375 32.0136953,1.85874219 32.94225,2.765125 L41.7568594,12.3881484 L40.7430547,13.3167031 L40.5049219,13.0565703 L26.125,16.9989531 L26.125,17.1875 C26.125,17.5671719 25.8175156,17.875 25.4375,17.875 C25.0574844,17.875 24.75,17.5671719 24.75,17.1875 L24.75,6.1875 C24.75,3.53383594 26.9091797,1.375 29.5625,1.375 Z" id="Shape" fill="#8B8996"></path>
            <circle id="Oval" fill="#53DCFF" cx="9.625" cy="18.5625" r="7.5625"></circle>
            <path d="M9.625,8.9375 C4.31767187,8.9375 0,13.2551719 0,18.5625 C0,23.8698281 4.31767187,28.1875 9.625,28.1875 C14.9323281,28.1875 19.25,23.8698281 19.25,18.5625 C19.25,13.2551719 14.9323281,8.9375 9.625,8.9375 Z M9.625,25.4375 C5.83421094,25.4375 2.75,22.3532891 2.75,18.5625 C2.75,14.7717109 5.83421094,11.6875 9.625,11.6875 C13.4157891,11.6875 16.5,14.7717109 16.5,18.5625 C16.5,22.3532891 13.4157891,25.4375 9.625,25.4375 Z" id="Shape" fill="#5C546A"></path>
            <path d="M16.5,9.625 L27.5,9.625 L27.6057031,9.62353906 C26.2677422,10.9338281 25.4375,12.7606016 25.4375,14.78125 L25.4375,17.1875 L18.5625,17.1875 L18.5625,14.78125 C18.5625,12.7606016 17.7322578,10.9338281 16.3942969,9.62353906" id="Shape" fill="#5C546A"></path>
            <circle id="Oval" fill="#FFFFFF" cx="11" cy="17.1875" r="2.75"></circle>
            <circle id="Oval" fill="#53DCFF" cx="34.375" cy="18.5625" r="7.5625"></circle>
            <path d="M34.375,8.9375 C29.0676719,8.9375 24.75,13.2551719 24.75,18.5625 C24.75,23.8698281 29.0676719,28.1875 34.375,28.1875 C39.6823281,28.1875 44,23.8698281 44,18.5625 C44,13.2551719 39.6823281,8.9375 34.375,8.9375 Z M34.375,25.4375 C30.5842109,25.4375 27.5,22.3532891 27.5,18.5625 C27.5,14.7717109 30.5842109,11.6875 34.375,11.6875 C38.1657891,11.6875 41.25,14.7717109 41.25,18.5625 C41.25,22.3532891 38.1657891,25.4375 34.375,25.4375 Z" id="Shape" fill="#5C546A"></path>
            <circle id="Oval" fill="#FFFFFF" cx="35.75" cy="17.1875" r="2.75"></circle>
            <rect id="Rectangle-path" fill="#8B8996" x="16.5" y="8.25" width="11" height="1.375"></rect>
        </g>
    </g>
</svg>