<?xml version="1.0" encoding="UTF-8"?>
<svg width="73px" height="73px" viewBox="0 0 73 73" version="1.1" xmlns="http://www.w3.org/2000/svg" xmlns:xlink="http://www.w3.org/1999/xlink">
    <!-- Generator: Sketch 51.3 (57544) - http://www.bohemiancoding.com/sketch -->
    <title>databases-and-servers/databases/acid</title>
    <desc>Created with Sketch.</desc>
    <defs></defs>
    <g id="databases-and-servers/databases/acid" stroke="none" stroke-width="1" fill="none" fill-rule="evenodd">
        <g id="container" transform="translate(2.000000, 2.000000)" fill="#FFFFFF" fill-rule="nonzero" stroke="#3F2303" stroke-width="2">
            <rect id="mask" x="-1" y="-1" width="71" height="71" rx="14"></rect>
        </g>
        <g id="lemon" transform="translate(14.000000, 16.000000)" fill-rule="nonzero">
            <path d="M31.2572186,31.2568683 C37.6513615,24.8630757 38.958912,15.434911 34.9676078,8.45757184 C34.4905427,7.62393401 34.6180403,6.57663255 35.29721,5.89781315 L35.3262823,5.86839055 C36.4198191,4.7748538 36.4198191,3.00144674 35.3262823,1.90790999 C34.2323952,0.814022904 32.4593385,0.814022904 31.3654514,1.90790999 L31.3363791,1.93698217 C30.6572094,2.61580166 29.6102583,2.74329922 28.7766204,2.26658445 C21.7989309,-1.72507003 12.3707664,-0.417519493 5.97697368,5.97662344 C-0.417169248,12.370416 -1.72471979,21.7989309 2.26658445,28.7762701 C2.74364947,29.609908 2.6161519,30.6568592 1.93698217,31.3360289 L1.90790999,31.3651011 C0.814022904,32.4589882 0.814022904,34.232045 1.90790999,35.3259321 C3.00179698,36.4194688 4.7748538,36.4194688 5.86874088,35.3259321 L5.89781315,35.2965095 C6.5769828,34.6176901 7.62393401,34.4901925 8.45757184,34.9669073 C15.4352614,38.958912 24.8634259,37.6510112 31.2572186,31.2568683 Z" id="Shape" fill="#FFE671"></path>
            <path d="M9.01309698,5.97662344 C2.61965463,12.3700658 1.312104,21.7992812 5.30375857,28.7762701 C5.7801231,29.609908 5.65297578,30.6572094 4.9734558,31.3360289 L4.94438353,31.3651011 C3.85084669,32.4582877 3.85084669,34.2323952 4.94438353,35.3259321 C5.08764313,35.4691917 5.24281189,35.5935367 5.40708758,35.6986172 C4.94613485,35.9973959 4.41723016,36.1462597 3.88797515,36.1462597 C3.1713268,36.1462597 2.45537885,35.8719999 1.90826023,35.3259321 C0.813672659,34.2323952 0.813672659,32.4582877 1.90826023,31.3651011 L1.9373325,31.3360289 C2.61580166,30.6572094 2.74399971,29.609908 2.26658445,28.7762701 C-1.72507003,21.7989309 -0.417519493,12.3700658 5.97697368,5.97662344 C10.3451663,1.6084308 16.1308936,-0.386345661 21.5824653,0.0619974191 C17.0836227,0.42872807 12.5774245,2.41334669 9.01309698,5.97662344 Z" id="Shape" fill="#FFCB6F"></path>
            <path d="M45.0136452,23.5961562 C45.52959,23.5961562 45.9366015,24.0304886 45.9092806,24.5460831 C45.4157529,33.815226 37.7431317,41.1796114 28.3510447,41.1796114 C18.9586075,41.1796114 11.2863365,33.815226 10.7928088,24.5460831 C10.765488,24.0304886 11.1721491,23.5961562 11.6884442,23.5961562 L45.0136452,23.5961562 Z" id="Shape" fill="#FFF0D0"></path>
            <path d="M42.3298915,25.9594146 C41.9838268,28.0186404 41.1813627,30.016219 39.9224994,31.7892757 C39.1897386,32.8218658 37.7067038,32.9521655 36.8114188,32.0568805 L28.3506944,23.5961562 L40.3151498,23.5961562 C41.5708608,23.5961562 42.538301,24.7212171 42.3298915,25.9594146 Z" id="Shape" fill="#FFAE4D"></path>
            <path d="M36.5644798,35.1521991 C34.8635783,36.3634259 32.883513,37.2082724 30.7398727,37.5718506 C29.4915174,37.7837628 28.3510447,36.827531 28.3510447,35.5613122 L28.3510447,23.5961562 L36.8110685,32.05618 C37.6989979,32.9441095 37.5872625,34.4236416 36.5644798,35.1521991 Z" id="Shape" fill="#FFCB6F"></path>
            <path d="M28.3510447,23.5961562 L28.3510447,35.5613122 C28.3510447,36.827531 27.2102217,37.7837628 25.9618665,37.5718506 C23.8182261,37.2082724 21.838161,36.3634259 20.1372594,35.1518488 C19.1144768,34.4236416 19.0027412,32.9441095 19.8906707,32.05618 L28.3510447,23.5961562 Z" id="Shape" fill="#FFAE4D"></path>
            <path d="M28.3510447,23.5961562 L19.8899701,32.0568805 C18.994685,32.9521655 17.5120005,32.8218658 16.7792398,31.789626 C15.5203765,30.0165692 14.7179124,28.0189906 14.3718476,25.9597648 C14.1634381,24.7212171 15.1308785,23.5961562 16.3862391,23.5961562 L28.3510447,23.5961562 Z" id="Shape" fill="#FFCB6F"></path>
            <path d="M32.3178301,23.5961562 C32.3178301,25.7870827 30.5419712,27.5629417 28.3510447,27.5629417 C26.1597679,27.5629417 24.383909,25.7870827 24.383909,23.5961562 L32.3178301,23.5961562 Z" id="Shape" fill="#FFF0D0"></path>
            <g id="Group" transform="translate(15.512671, 4.304094)" fill="#FFCB6F">
                <path d="M0.698784745,3.14225453 C0.317693127,3.14225453 0.00805618713,2.83436891 0.00630477973,2.45292704 C0.00455346199,2.07008411 0.313139665,1.75869576 0.6959826,1.7565942 L0.705790105,1.7565942 L0.708942495,1.7565942 C1.09003411,1.7565942 1.4000213,2.06483007 1.40177262,2.44627193 C1.40352402,2.82876462 1.09458758,3.14050321 0.712094885,3.14225453 L0.701937135,3.14225453 C0.700886308,3.14225453 0.699835571,3.14225453 0.698784745,3.14225453 Z" id="Shape"></path>
                <path d="M3.77343748,1.43960165 C3.39234586,1.43960165 3.08235867,1.13136579 3.0809576,0.749923832 C3.07920628,0.367080897 3.3877924,0.0556926394 3.77063533,0.053941232 L3.78044284,0.053941232 C4.16083396,0.0490375244 4.47467412,0.360776117 4.47642544,0.743268717 C4.47817676,1.12611174 4.1692404,1.4375 3.78674771,1.43925132 L3.7769402,1.43960165 C3.77588938,1.43960165 3.77483855,1.43960165 3.77343748,1.43960165 Z" id="Shape"></path>
                <path d="M4.37239586,3.95662768 C3.99130424,3.95662768 3.6816673,3.64874206 3.67991589,3.26694995 C3.67816457,2.88445726 3.98710102,2.57271867 4.36959371,2.57096735 L4.37940122,2.57096735 L4.38255361,2.57096735 C4.76364522,2.57096735 5.07363241,2.87920322 5.07538373,3.26064508 C5.07713513,3.64313777 4.76819869,3.95487636 4.385706,3.95662768 L4.37589849,3.95662768 C4.37449742,3.95662768 4.37344668,3.95662768 4.37239586,3.95662768 Z" id="Shape"></path>
            </g>
        </g>
    </g>
</svg>