<?xml version="1.0" encoding="UTF-8"?>
<svg width="73px" height="73px" viewBox="0 0 73 73" version="1.1" xmlns="http://www.w3.org/2000/svg" xmlns:xlink="http://www.w3.org/1999/xlink">
    <!-- Generator: Sketch 51.3 (57544) - http://www.bohemiancoding.com/sketch -->
    <title>databases-and-servers/databases/data-modelling</title>
    <desc>Created with Sketch.</desc>
    <defs></defs>
    <g id="databases-and-servers/databases/data-modelling" stroke="none" stroke-width="1" fill="none" fill-rule="evenodd">
        <g id="container" transform="translate(2.000000, 2.000000)" fill="#FFFFFF" fill-rule="nonzero" stroke="#323E44" stroke-width="2">
            <rect id="mask" x="-1" y="-1" width="71" height="71" rx="14"></rect>
        </g>
        <g id="clay" transform="translate(11.000000, 11.000000)" fill-rule="nonzero">
            <path d="M35.1566619,51 L11.4134445,51 C10.822403,51 10.5605392,50.2564316 11.0208435,49.8863983 L20.7740021,42.0409928 L25.7961044,42.0409928 L35.549263,49.8863983 C36.0095672,50.2564316 35.7477035,51 35.1566619,51 Z" id="Shape" fill="#DD9666"></path>
            <path d="M35.549263,49.8863983 L25.7961044,42.0409928 L20.7740021,42.0409928 L19.8175964,42.8102417 L29.998764,51 L35.1566619,51 C35.7477035,51 36.0095672,50.2564316 35.549263,49.8863983 Z" id="Shape" fill="#C97E4B"></path>
            <path d="M26.4918136,6.9493103 C26.4918136,6.29484553 26.6867523,5.65555575 27.0513382,5.11237338 L28.840805,2.44937899 C29.3357391,1.71281428 29.1236801,0.71282959 28.3723298,0.240852381 C28.1217498,0.0836563359 27.831871,0 27.5357666,0 L19.0343399,0 C18.7382355,0 18.4483566,0.0836563359 18.1977768,0.240852381 C17.4464264,0.71282959 17.2343673,1.71281428 17.7293014,2.44937899 L19.5187683,5.11237338 C19.8837433,5.65555575 20.0782928,6.29484553 20.0782928,6.9493103 C20.0782928,8.0559082 19.5249939,9.09091187 18.5993271,9.69790649 C15.8320541,11.5122757 10.3379745,16.439827 12.4865799,26.0466842 C15.3157196,38.6955185 15.7301102,38.6955185 15.7301102,38.6955185 L30.8399963,38.6955185 C30.8399963,38.6955185 31.2539978,38.6955185 34.0835266,26.0466842 C36.232132,16.439827 30.7376632,11.5122757 27.9703903,9.69790649 C27.0451126,9.09091187 26.4918136,8.0559082 26.4918136,6.9493103 Z" id="Shape" fill="#465058"></path>
            <path d="M27.9707795,9.69790649 C27.0451126,9.09091187 26.4914246,8.0559082 26.4914246,6.9493103 C26.4914246,6.29484553 26.6863632,5.65555575 27.0513382,5.11237338 L28.840805,2.44937899 C29.3357391,1.71281428 29.1236801,0.71282959 28.3723298,0.240852381 C28.1217498,0.0836563359 27.831871,0 27.5357666,0 L24.5295867,0 L22.6918717,3.87425992 C21.4736023,6.44309237 22.0035553,9.51775358 24.0506058,11.490097 C26.716713,14.0593185 29.5676423,18.6755905 27.9190292,26.0462952 C25.0898895,38.6951294 24.6754989,38.6951294 24.6754989,38.6951294 L30.8399963,38.6951294 C30.8399963,38.6951294 31.2543869,38.6951294 34.0835266,26.0462952 C36.2325211,16.439827 30.7380524,11.5122757 27.9707795,9.69790649 Z" id="Shape" fill="#323E44"></path>
            <path d="M12.9534989,16.5585022 L33.6166077,16.5585022 C33.405716,16.0133744 33.1671982,15.5005417 32.9080582,15.0192261 L13.6620483,15.0192261 C13.4029084,15.5005417 13.1643905,16.0133744 12.9534989,16.5585022 Z" id="Shape" fill="#323E44"></path>
            <path d="M44.6829757,38.5924072 L1.88713069,38.5924072 C1.19920344,38.5924072 0.605438232,39.0752792 0.464973475,39.7488098 L0.0311279297,41.8304901 C-0.156806971,42.7328109 0.531509449,43.5794906 1.45289617,43.5794906 L45.1172104,43.5794906 C46.0385971,43.5794906 46.7269134,42.7328109 46.5389786,41.8304901 L46.1051331,39.7488098 C45.9646683,39.0752792 45.3712922,38.5924072 44.6829757,38.5924072 Z" id="Shape" fill="#FF8C51"></path>
            <path d="M46.5389786,41.8304901 L46.1051331,39.7488098 C45.9646683,39.0752792 45.370903,38.5924072 44.6829757,38.5924072 L39.8021164,38.5924072 L40.8417892,43.5794906 L45.1168213,43.5794906 C46.0385971,43.5794906 46.7269134,42.7328109 46.5389786,41.8304901 Z" id="Shape" fill="#F26E3B"></path>
            <path d="M46.5701065,23.0299988 C43.1697693,22.791092 42.4880676,22.3370133 41.971344,21.7125091 C41.6752396,21.3549271 41.3215485,21.0487061 40.9242782,20.8078537 L33.0668106,16.0351639 C32.2640991,15.549179 31.2197571,15.8055954 30.7337723,16.6079178 C30.2473984,17.4102401 30.5042038,18.4549714 31.3065262,18.9409561 L34.3854675,20.8109665 C34.5535583,20.9132996 34.4811859,21.1720505 34.2843018,21.1720505 L23.6759033,21.1720505 C22.7549057,21.1720505 21.9704818,21.888382 21.9374084,22.8086014 C21.9031677,23.7751236 22.6763077,24.5692749 23.6350479,24.5692749 L20.5572738,24.5692749 C19.5985336,24.5692749 18.8250046,25.3638153 18.8596344,26.3303376 C18.8923187,27.250557 19.6767425,27.9668884 20.5977401,27.9668884 L22.0222321,27.9668884 C21.0841141,27.9668884 20.3238144,28.7275772 20.3238144,29.6656951 C20.3238144,30.6038131 21.0841141,31.364502 22.0222321,31.364502 L25.4754867,31.364502 C24.5369797,31.364502 23.77668,32.1248016 23.77668,33.0633088 C23.77668,34.0014267 24.5369797,34.7617264 25.4754867,34.7617264 L33.4640808,34.7617264 C35.8574295,34.7617264 38.2375488,34.3998642 40.5227279,33.6882019 L46.5701065,32.9259567 L46.5701065,23.0299988 Z" id="Shape" fill="#FFE1CC"></path>
            <path d="M46.5701065,23.0299988 C43.1697693,22.791092 42.4880676,22.3370133 41.971344,21.7125091 C41.6752396,21.3549271 41.3215485,21.0487061 40.9242782,20.8078537 L33.0668106,16.0351639 C32.2640991,15.549179 31.2197571,15.8055954 30.7337723,16.6079178 C30.2473984,17.4102401 30.5042038,18.4549714 31.3065262,18.9409561 L34.3854675,20.8109665 C34.5535583,20.9132996 34.4811859,21.1720505 34.2843018,21.1720505 L23.6759033,21.1720505 C22.7549057,21.1720505 21.9704818,21.888382 21.9374084,22.8086014 C21.9031677,23.7751236 22.6763077,24.5692749 23.6350479,24.5692749 L20.5572738,24.5692749 C19.5985336,24.5692749 18.8250046,25.3638153 18.8596344,26.3303376 C18.8923187,27.250557 19.6767425,27.9668884 20.5977401,27.9668884 L22.0222321,27.9668884 C21.0841141,27.9668884 20.3238144,28.7275772 20.3238144,29.6656951 C20.3238144,30.6038131 21.0841141,31.364502 22.0222321,31.364502 L25.4754867,31.364502 C24.5369797,31.364502 23.77668,32.1248016 23.77668,33.0633088 C23.77668,34.0014267 24.5369797,34.7617264 25.4754867,34.7617264 L33.4640808,34.7617264 C35.8574295,34.7617264 38.2375488,34.3998642 40.5227279,33.6882019 L46.5701065,32.9259567 L46.5701065,23.0299988 Z" id="Shape" fill="#FFE1CC"></path>
            <path d="M46.5701065,23.0299988 C43.1697693,22.791092 42.4880676,22.3370133 41.971344,21.7125091 C41.6752396,21.3549271 41.3215485,21.0487061 40.9242782,20.8078537 L33.0668106,16.0351639 C32.2640991,15.549179 31.2197571,15.8055954 30.7337723,16.6079178 C30.2473984,17.4102401 30.5042038,18.4549714 31.3065262,18.9409561 L34.3854675,20.8109665 C34.5535583,20.9132996 34.4811859,21.1720505 34.2843018,21.1720505 L23.6759033,21.1720505 C22.7549057,21.1720505 21.9704818,21.888382 21.9374084,22.8086014 C21.9031677,23.7751236 22.6763077,24.5692749 23.6350479,24.5692749 L20.5572738,24.5692749 C19.5985336,24.5692749 18.8250046,25.3638153 18.8596344,26.3303376 C18.8923187,27.250557 19.6767425,27.9668884 20.5977401,27.9668884 L22.0222321,27.9668884 C21.0841141,27.9668884 20.3238144,28.7275772 20.3238144,29.6656951 C20.3238144,30.6038131 21.0841141,31.364502 22.0222321,31.364502 L25.4754867,31.364502 C24.5369797,31.364502 23.77668,32.1248016 23.77668,33.0633088 C23.77668,34.0014267 24.5369797,34.7617264 25.4754867,34.7617264 L33.4640808,34.7617264 C35.8574295,34.7617264 38.2375488,34.3998642 40.5227279,33.6882019 L46.5701065,32.9259567 L46.5701065,23.0299988 Z" id="Shape" fill="#FFE1CC"></path>
            <path d="M50.0579911,33.9286652 L46.9265213,33.9286652 C46.4300308,33.9286652 46.0273132,33.5259476 46.0273132,33.0294571 L46.0273132,23.0887528 C46.0273132,22.5922623 46.4300308,22.1895447 46.9265213,22.1895447 L50.0579911,22.1895447 C50.5544815,22.1895447 50.957199,22.5918732 50.957199,23.0887528 L50.957199,33.0294571 C50.957199,33.5259476 50.5544815,33.9286652 50.0579911,33.9286652 Z" id="Shape" fill="#45748C"></path>
            <path d="M46.0277023,33.0294571 C46.0277023,33.5259476 46.4300308,33.9286652 46.9265213,33.9286652 L50.0579911,33.9286652 C50.5544815,33.9286652 50.957199,33.5259476 50.957199,33.0294571 L50.957199,27.8155289 L46.0277023,27.8155289 L46.0277023,33.0294571 Z" id="Shape" fill="#236575"></path>
            <path d="M31.6006851,13.0227585 C31.1473846,12.4445572 30.6750183,11.9328918 30.2080994,11.4834823 L16.3620072,11.4834823 C15.8950882,11.9328918 15.4227218,12.4445572 14.9698105,13.0227585 L31.6006851,13.0227585 Z" id="Shape" fill="#323E44"></path>
            <polygon id="Shape" fill="#323E44" points="19.3607941 4.87696843 27.2097015 4.87696843 28.243927 3.33769221 18.3261795 3.33769221"></polygon>
            <g id="Group" transform="translate(18.826172, 22.013672)" fill="#EFCDB6">
                <path d="M4.80887606,0.857185389 C4.18242643,0.857185389 3.63496404,0.517501781 3.34041593,0.0128402461 C3.20423129,0.243576 3.12174227,0.509719898 3.11123657,0.794929529 C3.07699585,1.76145175 3.85013583,2.55560303 4.80887606,2.55560303 L15.5343933,2.55560303 C15.5129928,1.61164861 14.7414094,0.857185389 13.7970658,0.857185389 L4.80887606,0.857185389 Z" id="Shape"></path>
                <path d="M0.306610107,3.32874301 C0.118286133,3.61823275 0.0155639648,3.96842196 0.0346297969,4.34312434 C0.0809326172,5.25400546 0.866523768,5.95321655 1.77857211,5.95321655 L15.7445068,5.95321655 C15.7445068,4.93688965 14.9203948,4.11277766 13.904068,4.11277766 L1.77156827,4.11277766 C1.16574097,4.11277766 0.619056727,3.80305486 0.306610107,3.32874301 Z" id="Shape"></path>
                <path d="M1.72487638,6.80261996 C1.58013151,7.05242154 1.49764249,7.34268954 1.49764249,7.65202327 C1.49764249,8.59014127 2.25794222,9.35083008 3.19606023,9.35083008 L15.7445068,9.35083008 C15.7445068,8.412323 14.983818,7.65202327 14.0457,7.65202327 L3.19606023,7.65202327 C2.56727605,7.65202327 2.01864624,7.31039429 1.72487638,6.80261996 Z" id="Shape"></path>
                <path d="M6.64931486,11.0496369 C6.02053068,11.0496369 5.47151189,10.7076187 5.17774203,10.2002335 C5.03299716,10.4500351 4.95050814,10.7399139 4.95050814,11.0496369 C4.95050814,11.9877548 5.71080778,12.7480545 6.64931486,12.7480545 L14.6379089,12.7480545 C15.007164,12.7480545 15.3760299,12.7394943 15.7445068,12.7223739 C15.7445068,11.7986527 14.9954911,11.0496369 14.0713806,11.0496369 L6.64931486,11.0496369 Z" id="Shape"></path>
            </g>
        </g>
    </g>
</svg>