<?xml version="1.0" encoding="UTF-8"?>
<svg width="73px" height="73px" viewBox="0 0 73 73" version="1.1" xmlns="http://www.w3.org/2000/svg" xmlns:xlink="http://www.w3.org/1999/xlink">
    <!-- Generator: Sketch 51.3 (57544) - http://www.bohemiancoding.com/sketch -->
    <title>databases-and-servers/databases/data-integrity</title>
    <desc>Created with Sketch.</desc>
    <defs></defs>
    <g id="databases-and-servers/databases/data-integrity" stroke="none" stroke-width="1" fill="none" fill-rule="evenodd">
        <g id="container" transform="translate(2.000000, 2.000000)" fill-rule="nonzero">
            <rect id="mask" stroke="#263535" stroke-width="2" fill="#FFFFFF" x="-1" y="-1" width="71" height="71" rx="14"></rect>
            <g id="folder-(1)" transform="translate(9.000000, 13.000000)">
                <path d="M50.5674961,33.0073594 L50.5665,33.0083555 C50.4269473,34.8892793 50.2514355,36.769207 50.0421563,38.6502305 C49.8430371,40.4419043 48.392127,41.8354395 46.5952734,41.9790762 C32.5327207,43.1109375 18.4680762,43.1109375 4.40542383,41.9790762 C2.59940625,41.8343437 1.15556836,40.4275605 0.955453125,38.6276191 C-0.3283125,27.0966387 -0.318052734,15.5655586 0.984140625,4.03457812 C1.17598828,2.33733398 2.49362109,0.983742187 4.18369336,0.735416016 C10.6495371,-0.216849609 16.4412246,-0.239460938 22.0020176,0.668677734 C23.6634023,0.939615234 24.9450762,2.28493945 25.1338359,3.95648437 C25.1584395,4.17303516 25.1820469,4.38948633 25.2056543,4.60603711 C25.4150332,6.52501172 27.0393633,7.97492578 28.9695938,7.96566211 C35.0434746,7.93697461 41.1173555,8.11955859 47.1912363,8.51261719 C49.0896914,8.63573437 50.5970801,10.1534824 50.7130254,12.0529336 C51.1390547,19.0381406 51.0908438,26.022252 50.5674961,33.0073594 Z" id="Shape" fill="#F1D333"></path>
                <path d="M50.5665,33.0083555 C50.4269473,34.8892793 50.2514355,36.769207 50.0421562,38.6502305 C49.8430371,40.4419043 48.392127,41.8354395 46.5952734,41.9790762 C32.5327207,43.1109375 18.4680762,43.1109375 4.40542383,41.9790762 C2.59940625,41.8343438 1.15556836,40.4275605 0.955453125,38.6276191 C-0.3283125,27.0966387 -0.318052734,15.5655586 0.984140625,4.03457812 C1.17598828,2.33733398 2.49362109,0.983742187 4.18369336,0.735416016 C4.18369336,8.50245703 2.4012832,34.3792793 10.6259297,36.1843008 C18.8496797,37.9894219 44.1415957,39.4300723 50.5665,33.0083555 Z" id="Shape" fill="#EAB14D"></path>
                <g id="Group" transform="translate(14.044922, 5.179688)">
                    <path d="M12.448582,27.8595469 C11.3012812,27.8595469 10.1328633,27.816416 8.97560156,27.73125 C5.67962695,27.4887012 3.10910742,24.8211621 2.99634961,21.5263828 C2.82452344,16.5039785 2.82432422,11.4164297 2.99575195,6.40508203 C3.10860937,3.11000391 5.67922852,0.442664062 8.97540234,0.200414062 C10.1328633,0.115347656 11.3013809,0.0723164062 12.4484824,0.0723164062 C13.595584,0.0723164062 14.7641016,0.115447266 15.9215625,0.200414062 C19.2177363,0.442664062 21.7883555,3.11010352 21.9012129,6.40508203 C22.0727402,11.4165293 22.072541,16.5040781 21.9006152,21.5264824 C21.7878574,24.8212617 19.2173379,27.4888008 15.9213633,27.7313496 C14.7643008,27.816416 13.5958828,27.8595469 12.448582,27.8595469 Z M12.448582,4.31278711 C11.4046758,4.31278711 10.3406484,4.3520332 9.2862832,4.4295293 C8.15491992,4.51270313 7.27258008,5.42432812 7.23403125,6.55011328 C7.06589063,11.4651387 7.06599023,16.4551699 7.23462891,21.381252 C7.27317773,22.5070371 8.15551758,23.4187617 9.28688086,23.5020352 C10.3409473,23.5796309 11.4046758,23.618877 12.448582,23.618877 C13.4924883,23.618877 14.5562168,23.5795313 15.6102832,23.5020352 C16.7417461,23.4187617 17.6240859,22.5070371 17.6625352,21.381252 C17.8311738,16.4550703 17.8312734,11.4651387 17.6631328,6.55001367 C17.624584,5.42422852 16.7422441,4.51260352 15.6108809,4.4295293 C14.5565156,4.35213281 13.4924883,4.31278711 12.448582,4.31278711 Z" id="Shape" fill="#617881"></path>
                    <g transform="translate(2.789062, 0.000000)" fill="#475959" id="Shape">
                        <path d="M12.8216191,23.5020352 C12.1254492,23.5532344 11.4253945,23.5861055 10.7292246,23.6037363 C11.0870215,23.6128008 11.4441211,23.6189766 11.7985312,23.6189766 C12.8424375,23.6189766 13.906166,23.5796309 14.9602324,23.5021348 C16.0916953,23.4188613 16.9740352,22.5071367 17.0124844,21.3813516 C17.181123,16.4551699 17.1812227,11.4652383 17.013082,6.55011328 C16.9745332,5.42432813 16.0921934,4.51270313 14.9608301,4.42962891 C13.9064648,4.35213281 12.8424375,4.31288672 11.7985312,4.31288672 C11.4441211,4.31288672 11.0870215,4.3190625 10.7292246,4.32812695 C11.4254941,4.3456582 12.125748,4.3785293 12.8222168,4.42962891 C13.9536797,4.51280273 14.8359199,5.42442773 14.8744687,6.55011328 C15.0426094,11.4652383 15.0425098,16.4551699 14.8738711,21.3813516 C14.8354219,22.5070371 13.953082,23.4187617 12.8216191,23.5020352 Z"></path>
                        <path d="M8.32565039,27.73125 C5.02967578,27.4887012 2.45915625,24.8211621 2.34639844,21.5263828 C2.17457227,16.5039785 2.17437305,11.4164297 2.34580078,6.40508203 C2.4586582,3.11000391 5.02927734,0.442664062 8.32545117,0.200414062 C9.12511523,0.141644531 9.92966016,0.104390625 10.7292246,0.0860625 C10.3715273,0.0778945312 10.0145273,0.0723164062 9.65991797,0.0723164062 C8.51281641,0.0723164062 7.34419922,0.115447266 6.18683789,0.200414062 C2.89076367,0.442664062 0.320044922,3.11010352 0.2071875,6.40508203 C0.0356601562,11.4164297 0.035859375,16.5039785 0.207785156,21.5263828 C0.320542969,24.8211621 2.8910625,27.4887012 6.18703711,27.73125 C7.34429883,27.816416 8.5127168,27.8595469 9.66001758,27.8595469 C10.014627,27.8595469 10.371627,27.8539688 10.7293242,27.8458008 C9.92966016,27.8274727 9.12511523,27.7901191 8.32565039,27.73125 Z"></path>
                    </g>
                    <path d="M12.448582,32.9597461 C9.64208789,32.9597461 6.81188672,32.8783652 3.98636719,32.7167988 C1.95573047,32.6007539 0.331998047,30.9850898 0.203501953,28.9551504 C-0.0492070313,24.9633047 -0.0496054688,20.9577129 0.202605469,16.9727402 C0.331101562,14.9429004 1.95483398,13.3273359 3.98537109,13.2113906 C6.80830078,13.050123 9.64228711,12.9687422 12.448582,12.9687422 C15.254877,12.9687422 18.0888633,13.050123 20.911793,13.2113906 C22.9423301,13.3273359 24.5661621,14.9429004 24.6945586,16.9727402 C24.9467695,20.9578125 24.9462715,24.9633047 24.6936621,28.9551504 C24.565166,30.9850898 22.9414336,32.6007539 20.9107969,32.7167988 C18.0852773,32.8782656 15.2550762,32.9597461 12.448582,32.9597461 Z" id="Shape" fill="#80B4FB"></path>
                    <path d="M4.94889258,32.7676992 C4.62765234,32.7528574 4.30641211,32.7348281 3.98626758,32.7167988 C1.9560293,32.601252 0.331898437,30.9855879 0.203601562,28.9553496 C-0.0487089844,24.9628066 -0.0498046875,20.9575137 0.202505859,16.9724414 C0.330802734,14.9432988 1.95493359,13.3276348 3.98517187,13.2109922 C4.30641211,13.1929629 4.62655664,13.1749336 4.94779687,13.1600918 C3.75517383,13.859748 2.93240039,15.1203047 2.84016211,16.5843633 C2.57091797,20.8281211 2.57191406,25.0931953 2.84125781,29.3433281 C2.93349609,30.8074863 3.75616992,32.0679434 4.94889258,32.7676992 Z" id="Shape" fill="#5EA5EC"></path>
                    <path d="M15.9066211,26.5853437 L14.209875,23.6464687 C15.3269941,23.0001035 16.056832,21.7588711 15.9635977,20.3552754 C15.844166,18.5591191 14.3482324,17.1242461 12.5487891,17.0743418 C10.5573984,17.0190586 8.92559766,18.6169922 8.92559766,20.5959316 C8.92559766,21.8998184 9.63441797,23.0373574 10.6872891,23.6465684 L8.99054297,26.5854434 C8.40802734,27.5943867 9.13617188,28.8554414 10.3011035,28.8554414 L14.5959609,28.8554414 C15.7609922,28.8554414 16.4891367,27.5942871 15.9066211,26.5853437 Z" id="Shape" fill="#475959"></path>
                </g>
            </g>
        </g>
    </g>
</svg>