<?xml version="1.0" encoding="UTF-8"?>
<svg width="73px" height="73px" viewBox="0 0 73 73" version="1.1" xmlns="http://www.w3.org/2000/svg" xmlns:xlink="http://www.w3.org/1999/xlink">
    <!-- Generator: Sketch 51.3 (57544) - http://www.bohemiancoding.com/sketch -->
    <title>databases-and-servers/databases/deadlocks</title>
    <desc>Created with Sketch.</desc>
    <defs>
        <rect id="path-1" x="4" y="0" width="69" height="69" rx="14"></rect>
    </defs>
    <g id="databases-and-servers/databases/deadlocks" stroke="none" stroke-width="1" fill="none" fill-rule="evenodd">
        <g id="container" transform="translate(-2.000000, 2.000000)">
            <rect id="mask" stroke="#19232E" stroke-width="2" fill="#FFFFFF" fill-rule="nonzero" x="3" y="-1" width="71" height="71" rx="14"></rect>
            <mask id="mask-2" fill="white">
                <use xlink:href="#path-1"></use>
            </mask>
            <rect stroke="#19232E" stroke-width="2" x="3" y="-1" width="71" height="71" rx="14"></rect>
            <g id="gravestone" mask="url(#mask-2)">
                <g transform="translate(0.000000, 10.000000)">
                    <polygon id="Shape" fill="#71C285" fill-rule="nonzero" points="4 44.6273804 74 44.6273804 74 64.6274566 4 64.6274566"></polygon>
                    <path d="M48.9998475,25 L48.9998606,45.0000763 L22.3332062,45.0000763 L22.3332062,25 C24.1741791,25 25.6664887,23.5076904 25.6664887,21.6667176 C25.6664887,19.8257446 24.1741791,18.3334351 22.3332062,18.3334351 L22.3332062,13.6749268 C22.2687378,6.27059941 28.1559601,0.183105469 35.5583801,7.52285536e-16 L35.6667176,7.52285536e-16 C39.2044678,-0.00457763672 42.5984039,1.39846797 45.1000824,3.90014648 C47.6013794,6.40144346 49.0048065,9.79576113 48.9998475,13.3335113 L48.9998475,18.3334351 C47.1588745,18.3334351 45.6665649,19.8257446 45.6665649,21.6667176 C45.6665649,23.5076904 47.1588745,25 48.9998475,25 Z" id="Shape" fill="#95A5A5" fill-rule="nonzero"></path>
                    <path d="M56.4999237,13.3335113 L56.4999349,18.3334351 L48.9998475,18.3334351 L48.9998475,13.3335113 C49.0048065,9.79576113 47.6013794,6.40144346 45.1000824,3.90014648 C42.5984039,1.39846797 39.2044678,-0.00457763672 35.6667176,-1.11662967e-05 L43.1667938,1.41667954e-16 C46.7041626,-0.00457763672 50.0984803,1.39846797 52.5997772,3.90014648 C55.1014557,6.40144346 56.5045014,9.79576113 56.4999237,13.3335113 Z" id="Shape" fill="#7F8C8D" fill-rule="nonzero"></path>
                    <path d="M56.4999237,25 L48.9998475,25 C47.1588745,25 45.6665649,23.5076904 45.6665649,21.6667176 C45.6665649,19.8257446 47.1588745,18.3334351 48.9998475,18.3334351 L56.4999237,18.3334351 C54.6589508,18.3334351 53.1666412,19.8257446 53.1666412,21.6667176 C53.1666412,23.5076904 54.6589508,25 56.4999237,25 Z" id="Shape" fill="#35495E" fill-rule="nonzero"></path>
                    <polygon id="Shape" fill="#7F8C8D" fill-rule="nonzero" points="48.9998475 25 56.4999237 25 56.4999237 45.0000763 48.9998475 45.0000763"></polygon>
                    <g id="Group" stroke-width="1" fill="none" fill-rule="evenodd" transform="translate(0.101562, 43.140625)">
                        <path d="M48.898285,2.69258115 L29.7317199,2.69258115 C29.2716675,2.69258115 28.89859,2.31950381 28.89859,1.85945127 C28.89859,1.39901738 29.2716675,1.02593994 29.7317199,1.02593994 L48.898285,1.02593994 C49.3587188,1.02593994 49.7317963,1.39901738 49.7317963,1.85945127 C49.7317963,2.31950381 49.3587188,2.69258115 48.898285,2.69258115 Z" id="Shape" fill="#4C8056" fill-rule="nonzero"></path>
                        <path d="M21.3985138,6.02624512 C21.1360626,6.02624512 20.8892518,5.90264893 20.7317047,5.69284063 L18.2319336,2.35955811 C18.0530243,2.12113955 18.0152588,1.80566406 18.1319885,1.53215029 C18.2490997,1.25825498 18.5031586,1.06752012 18.7987977,1.03204346 C19.0944366,0.996566797 19.3866425,1.12130742 19.5651703,1.35934453 L22.0649414,4.69262695 C22.2545318,4.94515996 22.2850494,5.28314209 22.1439057,5.56542969 C22.0027618,5.84771729 21.7139893,6.02624512 21.3985138,6.02624512 Z" id="Shape" fill="#4C8056" fill-rule="nonzero"></path>
                        <path d="M25.5649262,6.02624512 C25.3028564,6.02624512 25.0556641,5.90264893 24.8984985,5.69284062 L22.3983459,2.35955811 C22.1221619,1.9910584 22.1969299,1.46882627 22.5650482,1.19264219 C22.9331665,0.916458105 23.4557801,0.991226172 23.7319641,1.35934453 L26.2317353,4.69262695 C26.4213257,4.94515996 26.4514618,5.28314209 26.310318,5.56542969 C26.1691742,5.84771729 25.8807831,6.02624512 25.5649262,6.02624512 Z" id="Shape" fill="#4C8056" fill-rule="nonzero"></path>
                        <path d="M12.3985138,6.02624512 C12.1360626,6.02624512 11.8892518,5.90264893 11.7317047,5.69284063 L9.23193359,2.35955811 C9.05302432,2.12113955 9.01525879,1.80566406 9.13198848,1.53215029 C9.24909971,1.25825498 9.50315859,1.06752012 9.79879766,1.03204346 C10.0944366,0.996566797 10.3866425,1.12130742 10.5651703,1.35934453 L13.0649414,4.69262695 C13.2545318,4.94515996 13.2850494,5.28314209 13.1439057,5.56542969 C13.0027618,5.84771729 12.7139893,6.02624512 12.3985138,6.02624512 Z" id="Shape" fill="#4C8056" fill-rule="nonzero"></path>
                        <path d="M8.39851377,6.02624512 C8.1360626,6.02624512 7.88925176,5.90264893 7.73170469,5.69284063 L5.23193359,2.35955811 C5.05302432,2.12113955 5.01525879,1.80566406 5.13198848,1.53215029 C5.24909971,1.25825498 5.50315859,1.06752012 5.79879766,1.03204346 C6.09443662,0.996566797 6.38664248,1.12130742 6.56517031,1.35934453 L9.06494141,4.69262695 C9.25453184,4.94515996 9.28504941,5.28314209 9.14390566,5.56542969 C9.00276182,5.84771729 8.71398926,6.02624512 8.39851377,6.02624512 Z" id="Shape" fill="#4C8056" fill-rule="nonzero"></path>
                        <path d="M16.5649262,6.02624512 C16.3028564,6.02624512 16.0556641,5.90264893 15.8984985,5.69284062 L13.3983459,2.35955811 C13.1221619,1.9910584 13.1969299,1.46882627 13.5650482,1.19264219 C13.9331665,0.916458105 14.4557801,0.991226172 14.7319641,1.35934453 L17.2317353,4.69262695 C17.4213257,4.94515996 17.4514618,5.28314209 17.310318,5.56542969 C17.1691742,5.84771729 16.8807831,6.02624512 16.5649262,6.02624512 Z" id="Shape" fill="#4C8056" fill-rule="nonzero"></path>
                        <path d="M29.7317199,6.02624512 C29.4696503,6.02624512 29.2224579,5.90264893 29.0652924,5.69284063 L26.5651397,2.35955811 C26.3866119,2.12113955 26.3484649,1.80566406 26.4655762,1.53215029 C26.5823059,1.25825498 26.8363647,1.06752012 27.1320038,1.03204346 C27.4276428,0.996566797 27.7198486,1.12130742 27.8983765,1.35934453 L30.3985291,4.69262695 C30.5877381,4.94515996 30.6182557,5.28314209 30.4771118,5.56542969 C30.335968,5.84771729 30.047577,6.02624512 29.7317199,6.02624512 Z" id="Shape" fill="#4C8056" fill-rule="nonzero"></path>
                        <path d="M33.8985138,6.02624512 C33.6360626,6.02624512 33.3892518,5.90264893 33.2317047,5.69284062 L30.7319336,2.35955811 C30.4557495,1.9910584 30.5301361,1.46882627 30.8982544,1.19264219 C31.2667541,0.916458105 31.7889862,0.991226172 32.0651703,1.35934453 L34.5649414,4.69262695 C34.7545318,4.94515996 34.7850494,5.28314209 34.6439057,5.56542969 C34.5027618,5.84771729 34.2139893,6.02624512 33.8985138,6.02624512 Z" id="Shape" fill="#4C8056" fill-rule="nonzero"></path>
                        <path d="M38.0649262,6.02624512 C37.8028564,6.02624512 37.5556641,5.90264893 37.3984985,5.69284063 L34.8983459,2.35955811 C34.7198182,2.12113955 34.6816711,1.80566406 34.7987823,1.53215029 C34.9158936,1.25825498 35.1699523,1.06752012 35.4655914,1.03204346 C35.760849,0.996566797 36.0530548,1.12130742 36.2319641,1.35934453 L38.7317353,4.69262695 C38.9213257,4.94515996 38.9514618,5.28314209 38.810318,5.56542969 C38.6691742,5.84771729 38.3807831,6.02624512 38.0649262,6.02624512 Z" id="Shape" fill="#4C8056" fill-rule="nonzero"></path>
                        <path d="M42.2317199,6.02624512 C41.9696503,6.02624512 41.7224579,5.90264893 41.5652924,5.69284062 L39.0651397,2.35955811 C38.7889557,1.9910584 38.8637237,1.46882627 39.231842,1.19264219 C39.5999604,0.916458105 40.1221924,0.991226172 40.3983765,1.35934453 L42.8985291,4.69262695 C43.0877381,4.94515996 43.1182557,5.28314209 42.9771118,5.56542969 C42.835968,5.84771729 42.547577,6.02624512 42.2317199,6.02624512 Z" id="Shape" fill="#4C8056" fill-rule="nonzero"></path>
                        <path d="M46.3985138,6.02624512 C46.1360626,6.02624512 45.8892518,5.90264893 45.7317047,5.69284062 L43.2319336,2.35955811 C42.9557495,1.9910584 43.0301361,1.46882627 43.3982544,1.19264219 C43.7667541,0.916458105 44.2889862,0.991226172 44.5651703,1.35934453 L47.0649414,4.69262695 C47.2545318,4.94515996 47.2850494,5.28314209 47.1439057,5.56542969 C47.0027618,5.84771729 46.7139893,6.02624512 46.3985138,6.02624512 Z" id="Shape" fill="#4C8056" fill-rule="nonzero"></path>
                        <path d="M50.5649262,6.02624512 C50.3028564,6.02624512 50.0556641,5.90264893 49.8984985,5.69284063 L47.3983459,2.35955811 C47.2198182,2.12113955 47.1816711,1.80566406 47.2987823,1.53215029 C47.4158936,1.25825498 47.6699523,1.06752012 47.9655914,1.03204346 C48.260849,0.996566797 48.5530548,1.12130742 48.7319641,1.35934453 L51.2317353,4.69262695 C51.4213257,4.94515996 51.4514618,5.28314209 51.310318,5.56542969 C51.1691742,5.84771729 50.8807831,6.02624512 50.5649262,6.02624512 Z" id="Shape" fill="#4C8056" fill-rule="nonzero"></path>
                        <path d="M54.7317199,6.02624512 C54.4696503,6.02624512 54.2224579,5.90264893 54.0652924,5.69284063 L51.5651397,2.35955811 C51.3866119,2.12113955 51.3484649,1.80566406 51.4655762,1.53215029 C51.5823059,1.25825498 51.8363647,1.06752012 52.1320038,1.03204346 C52.4276428,0.996566797 52.7198486,1.12130742 52.8983765,1.35934453 L55.3985291,4.69262695 C55.5877381,4.94515996 55.6182557,5.28314209 55.4771118,5.56542969 C55.335968,5.84771729 55.047577,6.02624512 54.7317199,6.02624512 Z" id="Shape" fill="#4C8056" fill-rule="nonzero"></path>
                        <path d="M58.8985138,6.02624512 C58.6360626,6.02624512 58.3892518,5.90264893 58.2317047,5.69284063 L55.7319336,2.35955811 C55.5530243,2.12113955 55.5152588,1.80566406 55.6319885,1.53215029 C55.7490997,1.25825498 56.0031586,1.06752012 56.2987977,1.03204346 C56.5944366,0.996566797 56.8866425,1.12130742 57.0651703,1.35934453 L59.5649414,4.69262695 C59.7545318,4.94515996 59.7850494,5.28314209 59.6439057,5.56542969 C59.5027618,5.84771729 59.2139893,6.02624512 58.8985138,6.02624512 Z" id="Shape" fill="#4C8056" fill-rule="nonzero"></path>
                        <path d="M63.0649262,6.02624512 C62.8028564,6.02624512 62.5556641,5.90264893 62.3984985,5.69284062 L59.8983459,2.35955811 C59.6221619,1.9910584 59.6969299,1.46882627 60.0650482,1.19264219 C60.4331665,0.916458105 60.9557801,0.991226172 61.2319641,1.35934453 L63.7317353,4.69262695 C63.9213257,4.94515996 63.9514618,5.28314209 63.810318,5.56542969 C63.6691742,5.84771729 63.3807831,6.02624512 63.0649262,6.02624512 Z" id="Shape" fill="#4C8056" fill-rule="nonzero"></path>
                        <path d="M67.0649262,6.02624512 C66.8028564,6.02624512 66.5556641,5.90264893 66.3984985,5.69284062 L63.8983459,2.35955811 C63.6221619,1.9910584 63.6969299,1.46882627 64.0650482,1.19264219 C64.4331665,0.916458105 64.9557801,0.991226172 65.2319641,1.35934453 L67.7317353,4.69262695 C67.9213257,4.94515996 67.9514618,5.28314209 67.810318,5.56542969 C67.6691742,5.84771729 67.3807831,6.02624512 67.0649262,6.02624512 Z" id="Shape" fill="#4C8056" fill-rule="nonzero"></path>
                        <path d="M72.0649262,6.02624512 C71.8028564,6.02624512 71.5556641,5.90264893 71.3984985,5.69284062 L68.8983459,2.35955811 C68.6221619,1.9910584 68.6969299,1.46882627 69.0650482,1.19264219 C69.4331665,0.916458105 69.9557801,0.991226172 70.2319641,1.35934453 L72.7317353,4.69262695 C72.9213257,4.94515996 72.9514618,5.28314209 72.810318,5.56542969 C72.6691742,5.84771729 72.3807831,6.02624512 72.0649262,6.02624512 Z" id="Shape" fill="#4C8056" fill-rule="nonzero"></path>
                        <rect id="Rectangle" fill="#548E61" fill-rule="nonzero" x="0.8984375" y="0.859375" width="73" height="2"></rect>
                    </g>
                    <path d="M22.3332062,45.8332062 C22.1123352,45.8332062 21.9002381,45.7454682 21.7442169,45.5890655 L17.577423,41.4226532 C17.2615662,41.0957336 17.2661437,40.5757904 17.5877228,40.2542114 C17.9089203,39.9330139 18.4288635,39.9284363 18.7557831,40.2442932 L22.2641602,43.7526703 L25.0141754,40.3125763 C25.3018036,39.9532318 25.8263244,39.894867 26.1856689,40.1824951 C26.5453949,40.4701232 26.6033783,40.9946441 26.3157501,41.3543701 L22.9824677,45.5207824 C22.8344574,45.7057953 22.6147309,45.8190918 22.3782196,45.8324433 L22.3332062,45.8332062 Z" id="Shape" fill="#71C285" fill-rule="nonzero"></path>
                    <path d="M48.9998475,45.8332062 C48.7789765,45.8332062 48.5672607,45.7454682 48.4108582,45.5890655 L44.2440644,41.4226532 C43.9282074,41.0957336 43.9327851,40.5757904 44.2543641,40.2542114 C44.575943,39.9330139 45.0955048,39.9284363 45.4224243,40.2442932 L48.9308014,43.7526703 L51.6808166,40.3125763 C51.8669738,40.0798798 52.1629943,39.9642944 52.4574891,40.0093078 C52.7516021,40.0543213 52.999939,40.2526855 53.1082764,40.5300141 C53.2166138,40.807724 53.1685486,41.1216736 52.9823914,41.3543701 L49.6491089,45.5207824 C49.5010986,45.7057953 49.2813721,45.8190918 49.0448608,45.8324433 L48.9998475,45.8332062 Z" id="Shape" fill="#71C285" fill-rule="nonzero"></path>
                    <path d="M42.3332824,12.5 L39,12.5 C38.5399475,12.5 38.1664887,12.1269227 38.1664887,11.6668701 L38.1664887,7.50007627 C38.1664887,7.03964238 37.7934112,6.66656494 37.3333588,6.66656494 L34.0000763,6.66656494 C33.5396424,6.66656494 33.1665649,7.03964238 33.1665649,7.50007627 L33.1665649,11.6668701 C33.1665649,12.1269227 32.7934875,12.5 32.3334351,12.5 L29.0001525,12.5 C28.5397187,12.5 28.1666412,12.8730773 28.1666412,13.3335113 L28.1666412,16.6667938 C28.1666412,17.1268463 28.5397187,17.4999237 29.0001525,17.4999237 L32.3334351,17.4999237 C32.7934875,17.4999237 33.1665649,17.8730011 33.1665649,18.3334351 L33.1665649,29.1667938 C33.1665649,29.6268463 33.5396424,29.9999237 34.0000763,29.9999237 L37.3333588,29.9999237 C37.7934112,29.9999237 38.1664887,29.6268463 38.1664887,29.1667938 L38.1664887,18.3334351 C38.1664887,17.8730011 38.5399475,17.4999237 39,17.4999237 L42.3332824,17.4999237 C42.7937164,17.4999237 43.1667938,17.1268463 43.1667938,16.6667938 L43.1667938,13.3335113 C43.1667938,12.8730773 42.7937164,12.5 42.3332824,12.5 Z" id="Shape" fill="#35495E" fill-rule="nonzero"></path>
                </g>
            </g>
        </g>
    </g>
</svg>