<?xml version="1.0" encoding="UTF-8"?>
<svg width="73px" height="73px" viewBox="0 0 73 73" version="1.1" xmlns="http://www.w3.org/2000/svg" xmlns:xlink="http://www.w3.org/1999/xlink">
    <!-- Generator: Sketch 51.3 (57544) - http://www.bohemiancoding.com/sketch -->
    <title>databases-and-servers/databases/keys</title>
    <desc>Created with Sketch.</desc>
    <defs></defs>
    <g id="databases-and-servers/databases/keys" stroke="none" stroke-width="1" fill="none" fill-rule="evenodd">
        <g id="container" transform="translate(2.000000, 2.000000)" fill="#FFFFFF" fill-rule="nonzero" stroke="#42434D" stroke-width="2">
            <rect id="mask" x="-1" y="-1" width="71" height="71" rx="14"></rect>
        </g>
        <g id="binary" transform="translate(15.000000, 10.000000)" fill-rule="nonzero">
            <path d="M20.8094045,10.3736207 C20.8094045,14.9489494 17.8432323,18.8318154 13.7300035,20.2032088 C13.0355321,20.4347345 12.5632831,21.0793064 12.5632831,21.8114139 L12.5632831,50.3355935 C12.5632831,51.5291667 11.5748057,52.4912142 10.3717177,52.4489264 C9.22571831,52.4076958 8.33450288,51.4319048 8.33450288,50.2848482 L8.33450288,48.3269229 C8.33450288,47.9765685 8.05054029,47.6926059 7.70018586,47.6926059 L3.04852764,47.6926059 C2.46463882,47.6926059 1.99133259,47.2192997 1.99133259,46.6354109 L1.99133259,44.2038622 C1.99133259,43.6199734 2.46463882,43.1466672 3.04852764,43.1466672 L7.70018586,43.1466672 C8.05054029,43.1466672 8.33450288,42.8627046 8.33450288,42.5123502 L8.33450288,40.9265576 C8.33450288,40.5762032 8.05054029,40.2922406 7.70018586,40.2922406 L5.16291774,40.2922406 C4.57902891,40.2922406 4.10572269,39.8189343 4.10572269,39.2350455 L4.10572269,36.8034969 C4.10572269,36.2196081 4.57902891,35.7463019 5.16291774,35.7463019 L7.70018586,35.7463019 C8.05054029,35.7463019 8.33450288,35.4623393 8.33450288,35.1119848 L8.33450288,21.8103567 C8.33450288,21.0819493 7.86722267,20.4360032 7.17581711,20.2065918 C2.96078045,18.803694 -0.0511682403,14.7673233 0.0936674813,10.0480046 C0.258589909,4.66688182 4.91764849,0.0892272621 10.3008857,0.0141664137 C16.091143,-0.06618041 20.8094045,4.60239292 20.8094045,10.3736207 Z M14.8891122,7.41347456 C14.8891122,6.36262268 14.037013,5.51052347 12.9861611,5.51052347 L7.91162487,5.51052347 C6.86087871,5.51052347 6.00867378,6.36262268 6.00867378,7.41347456 C6.00867378,8.46432644 6.86077299,9.31642565 7.91162487,9.31642565 L12.9861611,9.31642565 C14.0369073,9.31642565 14.8891122,8.46432644 14.8891122,7.41347456 Z" id="Shape" fill="#FEDF84"></path>
            <path d="M13.7304264,20.2034203 C13.0358493,20.434946 12.5632831,21.079835 12.5632831,21.8114139 L12.5632831,50.3355935 C12.5632831,52.4497722 9.78412874,53.2596893 8.66223335,51.438248 C10.1491782,51.0553319 10.7106545,49.9451714 10.7311641,48.397755 C10.7707032,20.9284446 10.6487028,22.010378 11.0636519,20.4958404 C11.1312067,20.2490911 11.4796582,19.0650326 12.3169566,17.8797055 C13.8806538,15.6661505 15.797877,15.3722503 17.1797367,14.2852424 C18.5989153,13.1688444 19.9335184,10.8380465 19.6042021,5.52109542 C22.5897209,11.1353297 19.8221957,18.1760373 13.7304264,20.2034203 Z" id="Shape" fill="#FED66B"></path>
            <path d="M8.32921691,35.1891601 C8.30257559,35.6022062 8.30712153,36.1112456 7.79533341,36.5899435 C7.50883355,36.8602683 7.10953098,37.0329082 6.67576385,37.0329082 C5.77186209,37.0329082 5.03922592,37.7655444 5.03922592,38.6694462 L5.03922592,40.2848402 C4.51379998,40.2235229 4.10572269,39.7763294 4.10572269,39.2350455 L4.10572269,36.8034969 C4.10572269,36.2199252 4.57934607,35.7463019 5.16291774,35.7463019 L7.70018586,35.7463019 C8.02263035,35.7463019 8.29158077,35.5040985 8.32921691,35.1891601 Z" id="Shape" fill="#FEE59B"></path>
            <path d="M14.340428,0.770060873 C6.41125365,-0.104133712 -0.124960455,6.08024588 0.823132065,14.2122959 C-2.49593179,5.89417955 5.94407916,-2.63992176 14.340428,0.770060873 Z" id="Shape" fill="#FEE59B"></path>
            <path d="M8.32710252,42.6043261 C8.28005734,43.6172247 7.44413321,44.4332736 6.40829351,44.4332736 L4.81087179,44.4332736 C3.74944796,44.4332736 2.88994838,45.2927731 2.88994838,46.3531398 L2.88994838,47.6799196 C2.38143757,47.6038015 1.99133259,47.1650656 1.99133259,46.6354109 L1.99133259,44.2038622 C1.99133259,43.6202906 2.46495598,43.1466672 3.04852764,43.1466672 C7.99197169,43.1466672 7.71773529,43.1478301 7.7340161,43.1445528 C8.03743108,43.1297521 8.28481472,42.8992836 8.32710252,42.6043261 Z" id="Shape" fill="#FEE59B"></path>
            <path d="M14.0433561,13.7566448 L6.85442982,13.7566448 C6.38736104,13.7566448 6.00867378,13.3779576 6.00867378,12.9108888 C6.00867378,12.44382 6.38736104,12.0651328 6.85442982,12.0651328 L14.0433561,12.0651328 C14.5104249,12.0651328 14.8891122,12.44382 14.8891122,12.9108888 C14.8891122,13.3779576 14.5104249,13.7566448 14.0433561,13.7566448 Z" id="Shape" fill="#FFC673"></path>
            <path d="M12.4575636,17.0339495 L8.44022239,17.0339495 C7.97315362,17.0339495 7.59446635,16.6552622 7.59446635,16.1881935 C7.59446635,15.7211247 7.97315362,15.3424374 8.44022239,15.3424374 L12.4575636,15.3424374 C12.9246323,15.3424374 13.3033196,15.7211247 13.3033196,16.1881935 C13.3033196,16.6552622 12.9246323,17.0339495 12.4575636,17.0339495 Z" id="Shape" fill="#FFC673"></path>
            <g id="Group" transform="translate(16.915121, 2.008671)" fill="#42434D">
                <path d="M11.3475088,10.0564622 C10.88044,10.0564622 10.5017527,9.67777491 10.5017527,9.21070614 L10.5017527,2.95348581 L10.0954727,3.35987158 C9.76509922,3.6900336 9.22973565,3.6900336 8.8993622,3.35987158 C8.56909447,3.02949813 8.56909447,2.49413456 8.8993622,2.16376111 L10.7494535,0.313669771 C11.2801654,-0.217253582 12.1932648,0.158896416 12.1932648,0.91172501 L12.1932648,9.21070614 C12.1932648,9.67777491 11.8145775,10.0564622 11.3475088,10.0564622 Z" id="Shape"></path>
                <path d="M25.7253614,10.0564622 C25.2582927,10.0564622 24.8796054,9.67777491 24.8796054,9.21070614 L24.8796054,2.95348581 L24.4733253,3.35987158 C24.1429519,3.6900336 23.6075883,3.6900336 23.2772149,3.35987158 C22.9469471,3.02949813 22.9469471,2.49413456 23.2772149,2.16376111 L25.1273062,0.313669771 C25.6582295,-0.217253582 26.5711175,0.158896416 26.5711175,0.91172501 L26.5711175,9.21070614 C26.5711175,9.67777491 26.1924302,10.0564622 25.7253614,10.0564622 Z" id="Shape"></path>
                <path d="M17.9549778,10.0564622 C16.2061658,10.0564622 14.7833927,8.63368908 14.7833927,6.88487703 L14.7833927,3.18469436 C14.7833927,0.378052949 18.2057445,-1.05085188 20.1980286,0.941749349 C20.7967181,1.54033319 21.126563,2.33692965 21.126563,3.18469436 L21.126563,6.88487703 C21.126563,8.63368908 19.7037899,10.0564622 17.9549778,10.0564622 Z M17.9549778,1.7046213 C17.1388232,1.7046213 16.4749048,2.36853979 16.4749048,3.18469436 L16.4749048,6.88487703 C16.4749048,7.70103161 17.1388232,8.3649501 17.9549778,8.3649501 C18.7711324,8.3649501 19.4350509,7.70103161 19.4350509,6.88487703 L19.4350509,3.18469436 C19.4350509,2.3658968 18.7740926,1.7046213 17.9549778,1.7046213 Z" id="Shape"></path>
                <path d="M11.3475088,23.7999978 C10.88044,23.7999978 10.5017527,23.4213105 10.5017527,22.9542418 L10.5017527,16.6970214 L10.0954727,17.1034072 C9.76509922,17.4335692 9.22973565,17.4335692 8.8993622,17.1034072 C8.56909447,16.7730338 8.56909447,16.2376702 8.8993622,15.9072967 L10.7494535,14.0572054 C11.2801654,13.5261763 12.1932648,13.902432 12.1932648,14.6552606 L12.1932648,22.9542418 C12.1932648,23.4213105 11.8145775,23.7999978 11.3475088,23.7999978 Z" id="Shape"></path>
                <path d="M25.7253614,23.7999978 C25.2582927,23.7999978 24.8796054,23.4213105 24.8796054,22.9542418 L24.8796054,16.6970214 L24.4733253,17.1034072 C24.1429519,17.4335692 23.6075883,17.4335692 23.2772149,17.1034072 C22.9469471,16.7730338 22.9469471,16.2376702 23.2772149,15.9072967 L25.1273062,14.0572054 C25.6582295,13.526282 26.5711175,13.902432 26.5711175,14.6552606 L26.5711175,22.9542418 C26.5711175,23.4213105 26.1924302,23.7999978 25.7253614,23.7999978 Z" id="Shape"></path>
                <path d="M17.9549778,23.7999978 C16.2061658,23.7999978 14.7833927,22.3772247 14.7833927,20.6284127 L14.7833927,16.92823 C14.7833927,14.1215886 18.2057445,12.6926838 20.1980286,14.685285 C20.7967181,15.2838688 21.126563,16.0804653 21.126563,16.92823 L21.126563,20.6284127 C21.126563,22.3772247 19.7037899,23.7999978 17.9549778,23.7999978 Z M17.9549778,15.4481569 C17.1388232,15.4481569 16.4749048,16.1120754 16.4749048,16.92823 L16.4749048,20.6284127 C16.4749048,21.4445672 17.1388232,22.1084857 17.9549778,22.1084857 C18.7711324,22.1084857 19.4350509,21.4445672 19.4350509,20.6284127 L19.4350509,16.92823 C19.4350509,16.1094324 18.7740926,15.4481569 17.9549778,15.4481569 Z" id="Shape"></path>
                <path d="M11.3475088,37.5435334 C10.88044,37.5435334 10.5017527,37.1648462 10.5017527,36.6977774 L10.5017527,30.4405571 L10.0954727,30.8469428 C9.76509922,31.1771049 9.22973565,31.1771049 8.8993622,30.8469428 C8.56909447,30.5165694 8.56909447,29.9812058 8.8993622,29.6508324 L10.7494535,27.800741 C11.2801654,27.2698177 12.1932648,27.6459677 12.1932648,28.3987963 L12.1932648,36.6977774 C12.1932648,37.1648462 11.8145775,37.5435334 11.3475088,37.5435334 Z" id="Shape"></path>
                <path d="M25.7253614,37.5435334 C25.2582927,37.5435334 24.8796054,37.1648462 24.8796054,36.6977774 L24.8796054,30.4405571 L24.4733253,30.8469428 C24.1429519,31.1771049 23.6075883,31.1771049 23.2772149,30.8469428 C22.9469471,30.5165694 22.9469471,29.9812058 23.2772149,29.6508324 L25.1273062,27.800741 C25.6582295,27.2698177 26.5711175,27.6459677 26.5711175,28.3987963 L26.5711175,36.6977774 C26.5711175,37.1648462 26.1924302,37.5435334 25.7253614,37.5435334 Z" id="Shape"></path>
                <path d="M17.9549778,37.5435334 C16.2061658,37.5435334 14.7833927,36.1207603 14.7833927,34.3719483 L14.7833927,30.6717656 C14.7833927,27.8651242 18.2057445,26.4362194 20.1980286,28.4288206 C20.7967181,29.0274044 21.126563,29.8240009 21.126563,30.6717656 L21.126563,34.3719483 C21.126563,36.1207603 19.7037899,37.5435334 17.9549778,37.5435334 Z M17.9549778,29.1916926 C17.1388232,29.1916926 16.4749048,29.855611 16.4749048,30.6717656 L16.4749048,34.3719483 C16.4749048,35.1881029 17.1388232,35.8520214 17.9549778,35.8520214 C18.7711324,35.8520214 19.4350509,35.1881029 19.4350509,34.3719483 L19.4350509,30.6717656 C19.4350509,29.8529681 18.7740926,29.1916926 17.9549778,29.1916926 Z" id="Shape"></path>
                <path d="M11.3475088,51.2870691 C10.88044,51.2870691 10.5017527,50.9083818 10.5017527,50.441313 L10.5017527,44.1840927 L10.0954727,44.5904785 C9.76509922,44.9206405 9.22973565,44.9206405 8.8993622,44.5904785 C8.56909447,44.260105 8.56909447,43.7247415 8.8993622,43.394368 L10.7494535,41.5442767 C11.2801654,41.0133533 12.1932648,41.3895033 12.1932648,42.1423319 L12.1932648,50.441313 C12.1932648,50.9083818 11.8145775,51.2870691 11.3475088,51.2870691 Z" id="Shape"></path>
                <path d="M11.3677012,51.2733255 C10.9006324,51.2733255 10.5219452,50.8946383 10.5219452,50.4275695 L10.5219452,44.1978362 L10.1220083,44.5978788 C9.79163482,44.9280409 9.25627125,44.9280409 8.92589779,44.5978788 C8.59563006,44.2675054 8.59563006,43.7321418 8.92589779,43.4017684 L10.769646,41.5580202 C11.3016265,41.0262511 12.2134572,41.4045155 12.2134572,42.1560754 L12.2134572,50.4275695 C12.2134572,50.8946383 11.83477,51.2733255 11.3677012,51.2733255 Z" id="Shape"></path>
                <path d="M25.7253614,51.2870691 C25.2582927,51.2870691 24.8796054,50.9083818 24.8796054,50.441313 L24.8796054,44.1840927 L24.4733253,44.5904785 C24.1429519,44.9206405 23.6075883,44.9206405 23.2772149,44.5904785 C22.9469471,44.260105 22.9469471,43.7247415 23.2772149,43.394368 L25.1273062,41.5442767 C25.6582295,41.0133533 26.5711175,41.3895033 26.5711175,42.1423319 L26.5711175,50.441313 C26.5711175,50.9083818 26.1924302,51.2870691 25.7253614,51.2870691 Z" id="Shape"></path>
                <path d="M25.6989316,51.2733255 C25.2318628,51.2733255 24.8531755,50.8946383 24.8531755,50.4275695 L24.8531755,44.1978362 L24.4532386,44.5978788 C24.1228652,44.9280409 23.5875016,44.9280409 23.2571282,44.5978788 C22.9268604,44.2675054 22.9268604,43.7321418 23.2571282,43.4017684 L25.1008763,41.5580202 C25.6328569,41.0262511 26.5446876,41.4045155 26.5446876,42.1560754 L26.5446876,50.4275695 C26.5446876,50.8946383 26.1660003,51.2733255 25.6989316,51.2733255 Z" id="Shape"></path>
                <path d="M17.9549778,51.2870691 C16.2061658,51.2870691 14.7833927,49.864296 14.7833927,48.1154839 L14.7833927,44.4153013 C14.7833927,41.6086598 18.2057445,40.179755 20.1980286,42.1723562 C20.7967181,42.7709401 21.126563,43.5675365 21.126563,44.4153013 L21.126563,48.1154839 C21.126563,49.864296 19.7037899,51.2870691 17.9549778,51.2870691 Z M17.9549778,42.9352282 C17.1388232,42.9352282 16.4749048,43.5991467 16.4749048,44.4153013 L16.4749048,48.1154839 C16.4749048,48.9316385 17.1388232,49.595557 17.9549778,49.595557 C18.7711324,49.595557 19.4350509,48.9316385 19.4350509,48.1154839 L19.4350509,44.4153013 C19.4350509,43.5965037 18.7740926,42.9352282 17.9549778,42.9352282 Z" id="Shape"></path>
                <path d="M17.9540264,51.2733255 C16.2092316,51.2733255 14.7897359,49.8538297 14.7897359,48.1091408 L14.7897359,44.4215387 C14.7897359,41.621029 18.2038415,40.1961415 20.1917911,42.1837739 C20.7894235,42.7829921 21.1182111,43.5774742 21.1182111,44.4215387 L21.1182111,48.1091408 C21.1181054,49.8538297 19.6987153,51.2733255 17.9540264,51.2733255 Z M17.9540264,42.9489717 C17.1418891,42.9489717 16.4812479,43.6096129 16.4812479,44.4216444 L16.4812479,48.1092465 C16.4812479,48.921278 17.1418891,49.5819192 17.9540264,49.5819192 C18.7660579,49.5819192 19.4266991,48.921278 19.4266991,48.1092465 L19.4266991,44.4216444 C19.4265933,43.6124673 18.7736697,42.9489717 17.9540264,42.9489717 Z" id="Shape"></path>
                <path d="M3.25996665,37.5435334 C1.5111546,37.5435334 0.0883815061,36.1207603 0.0883815061,34.3719483 L0.0883815061,30.6717656 C0.0883815061,27.8651242 3.51073332,26.4362194 5.50301739,28.4288206 C6.10170694,29.0274044 6.4315518,29.8240009 6.4315518,30.6717656 L6.4315518,34.3719483 C6.4315518,36.1207603 5.0087787,37.5435334 3.25996665,37.5435334 Z M3.25996665,29.1916926 C2.44381207,29.1916926 1.77989358,29.855611 1.77989358,30.6717656 L1.77989358,34.3719483 C1.77989358,35.1881029 2.44381207,35.8520214 3.25996665,35.8520214 C4.07612123,35.8520214 4.74003972,35.1881029 4.74003972,34.3719483 L4.74003972,30.6717656 C4.74003972,29.8529681 4.07908138,29.1916926 3.25996665,29.1916926 Z" id="Shape"></path>
                <path d="M3.25996665,51.2870691 C1.5111546,51.2870691 0.0883815061,49.864296 0.0883815061,48.1154839 L0.0883815061,44.4153013 C0.0883815061,41.6086598 3.51073332,40.179755 5.50301739,42.1723562 C6.10170694,42.7709401 6.4315518,43.5675365 6.4315518,44.4153013 L6.4315518,48.1154839 C6.4315518,49.864296 5.0087787,51.2870691 3.25996665,51.2870691 Z M3.25996665,42.9352282 C2.44381207,42.9352282 1.77989358,43.5991467 1.77989358,44.4153013 L1.77989358,48.1154839 C1.77989358,48.9316385 2.44381207,49.595557 3.25996665,49.595557 C4.07612123,49.595557 4.74003972,48.9316385 4.74003972,48.1154839 L4.74003972,44.4153013 C4.74003972,43.5965037 4.07908138,42.9352282 3.25996665,42.9352282 Z" id="Shape"></path>
                <path d="M3.25901518,51.2733255 C1.51422047,51.2733255 0.0947246763,49.8538297 0.0947246763,48.1091408 L0.0947246763,44.4215387 C0.0947246763,41.621029 3.50883037,40.1961415 5.49677994,42.1837739 C6.0944123,42.7829921 6.42319996,43.5774742 6.42319996,44.4215387 L6.42319996,48.1091408 C6.42309424,49.8538297 5.00370416,51.2733255 3.25901518,51.2733255 Z M3.25901518,42.9489717 C2.44687794,42.9489717 1.78623675,43.6096129 1.78623675,44.4216444 L1.78623675,48.1092465 C1.78623675,48.921278 2.44687794,49.5819192 3.25901518,49.5819192 C4.07104669,49.5819192 4.73168788,48.921278 4.73168788,48.1092465 L4.73168788,44.4216444 C4.73158216,43.6124673 4.0786585,42.9489717 3.25901518,42.9489717 Z" id="Shape"></path>
            </g>
        </g>
    </g>
</svg>