<?xml version="1.0" encoding="UTF-8"?>
<svg width="73px" height="73px" viewBox="0 0 73 73" version="1.1" xmlns="http://www.w3.org/2000/svg" xmlns:xlink="http://www.w3.org/1999/xlink">
    <!-- Generator: Sketch 51.3 (57544) - http://www.bohemiancoding.com/sketch -->
    <title>databases-and-servers/databases/locks</title>
    <desc>Created with Sketch.</desc>
    <defs>
        <rect id="path-1" x="0" y="0" width="69" height="69" rx="14"></rect>
    </defs>
    <g id="databases-and-servers/databases/locks" stroke="none" stroke-width="1" fill="none" fill-rule="evenodd">
        <g id="container" transform="translate(2.000000, 2.000000)">
            <rect id="mask" stroke="#293A4B" stroke-width="2" fill="#FFFFFF" fill-rule="nonzero" x="-1" y="-1" width="71" height="71" rx="14"></rect>
            <mask id="mask-2" fill="white">
                <use xlink:href="#path-1"></use>
            </mask>
            <rect stroke="#293A4B" stroke-width="2" x="-1" y="-1" width="71" height="71" rx="14"></rect>
            <g id="lock-(1)" mask="url(#mask-2)">
                <g transform="translate(1.000000, 1.000000)">
                    <path d="M21.2165984,30.1497956 L45.7834016,30.1497956 C47.0168534,30.1497956 48.0167008,31.1496429 48.0167008,32.3830948 L48.0167008,52.4832992 C48.0167008,53.7167512 47.0168534,54.7165984 45.7834016,54.7165984 L21.2165984,54.7165984 C19.9831466,54.7165984 18.9832992,53.7167512 18.9832992,52.4832992 L18.9832992,32.3830948 C18.9832992,31.1496429 19.9831466,30.1497956 21.2165984,30.1497956 Z" id="Shape" fill="#E4C05C" fill-rule="nonzero"></path>
                    <g id="Group" stroke-width="1" fill="none" fill-rule="evenodd" transform="translate(18.974609, 35.724609)">
                        <path d="M29.0420914,0.00868984766 L29.0420914,2.24198907 L23.4585876,2.24198907 C22.8421174,2.24198907 22.3421936,1.74206543 22.3421936,1.12559503 C22.3421936,0.508613619 22.8421174,0.00868984766 23.4585876,0.00868984766 L29.0420914,0.00868984766 Z" id="Shape" fill="#B19046" fill-rule="nonzero"></path>
                        <path d="M29.0420914,5.5921936 L29.0420914,7.82549283 L23.4585876,7.82549283 C22.8421174,7.82549283 22.3421936,7.32556919 22.3421936,6.70858765 C22.3421936,6.09211737 22.8421174,5.5921936 23.4585876,5.5921936 L29.0420914,5.5921936 Z" id="Shape" fill="#B19046" fill-rule="nonzero"></path>
                        <path d="M29.0420914,12.2920914 L29.0420914,14.5253906 L23.4585876,14.5253906 C22.8421174,14.5253906 22.3421936,14.025467 22.3421936,13.4084854 C22.3421936,12.792015 22.8421174,12.2920914 23.4585876,12.2920914 L29.0420914,12.2920914 Z" id="Shape" fill="#B19046" fill-rule="nonzero"></path>
                        <path d="M6.70858765,1.12559503 C6.70858765,1.74206543 6.20866387,2.24198907 5.5921936,2.24198907 L0.00868984766,2.24198907 L0.00868984766,0.00868984766 L5.5921936,0.00868984766 C6.20866387,0.00868984766 6.70858765,0.508613619 6.70858765,1.12559503 Z" id="Shape" fill="#B19046" fill-rule="nonzero"></path>
                        <path d="M6.70858765,6.70858765 C6.70858765,7.32556919 6.20866387,7.82549283 5.5921936,7.82549283 L0.00868984766,7.82549283 L0.00868984766,5.5921936 L5.5921936,5.5921936 C6.20866387,5.5921936 6.70858765,6.09211737 6.70858765,6.70858765 Z" id="Shape" fill="#B19046" fill-rule="nonzero"></path>
                        <path d="M6.70858765,13.4084854 C6.70858765,14.025467 6.20866387,14.5253906 5.5921936,14.5253906 L0.00868984766,14.5253906 L0.00868984766,12.2920914 L5.5921936,12.2920914 C6.20866387,12.2920914 6.70858765,12.792015 6.70858765,13.4084854 Z" id="Shape" fill="#B19046" fill-rule="nonzero"></path>
                    </g>
                    <path d="M37.3199691,40.610878 C37.2903214,38.6576995 35.7936173,37.0403596 33.8486175,36.8599167 C31.9036178,36.6794739 30.1349716,37.9931794 29.7459717,39.9075089 C29.5415039,41.0331039 29.8742752,42.1893692 30.6456299,43.0343323 C31.0330964,43.4534912 31.2534103,43.9999313 31.2667008,44.5703964 L31.2667008,48.0253906 C31.2667008,48.6372604 31.7625351,49.1330948 32.374405,49.1330948 L34.625595,49.1330948 C34.9195175,49.1330948 35.2011719,49.0165482 35.4087067,48.8090133 C35.6167526,48.6009675 35.7332992,48.3193131 35.7332992,48.0253906 L35.7332992,44.5550614 C35.7460784,43.9845963 35.9684372,43.4391785 36.3574372,43.0220642 C36.9621505,42.3626556 37.3046341,41.5054245 37.3199691,40.610878 Z" id="Shape" fill="#464F5D" fill-rule="nonzero"></path>
                    <path d="M40.1998978,30.1497956 L40.1998978,23.2576981 C40.1998978,19.5578537 37.2003556,16.5578003 33.5,16.5578003 C29.7996444,16.5578003 26.8001022,19.5578537 26.8001022,23.2576981 L26.8001022,30.1497956 L22.3335038,30.1497956 L22.3335038,23.2576981 C22.3335038,17.09095 27.3327408,12.0912018 33.5,12.0912018 C39.6672592,12.0912018 44.6664962,17.09095 44.6664962,23.2576981 L44.6664962,30.1497956 L40.1998978,30.1497956 Z" id="Shape" fill="#A5A5A4" fill-rule="nonzero"></path>
                    <path d="M52.4832992,20.1002044 C51.866829,20.1002044 51.3669052,19.6002808 51.3669052,18.9832992 L51.3669052,12.2834016 C51.3669052,11.66642 51.866829,11.1664962 52.4832992,11.1664962 C53.1002808,11.1664962 53.6002044,11.66642 53.6002044,12.2834016 L53.6002044,18.9832992 C53.6002044,19.6002808 53.1002808,20.1002044 52.4832992,20.1002044 Z" id="Shape" fill="#804169" fill-rule="nonzero"></path>
                    <path d="M48.0167008,20.1002044 C47.3997192,20.1002044 46.8997956,19.6002808 46.8997956,18.9832992 L46.8997956,12.2834016 C46.8997956,11.66642 47.3997192,11.1664962 48.0167008,11.1664962 C48.633171,11.1664962 49.1330948,11.66642 49.1330948,12.2834016 L49.1330948,18.9832992 C49.1330948,19.6002808 48.633171,20.1002044 48.0167008,20.1002044 Z" id="Shape" fill="#804169" fill-rule="nonzero"></path>
                    <path d="M56.9498978,20.1002044 C56.3334274,20.1002044 55.8335038,19.6002808 55.8335038,18.9832992 L55.8335038,12.2834016 C55.8335038,11.66642 56.3334274,11.1664962 56.9498978,11.1664962 C57.5668792,11.1664962 58.066803,11.66642 58.066803,12.2834016 L58.066803,18.9832992 C58.066803,19.6002808 57.5668792,20.1002044 56.9498978,20.1002044 Z" id="Shape" fill="#804169" fill-rule="nonzero"></path>
                    <path d="M52.4832992,43.5501022 C51.866829,43.5501022 51.3669052,43.0501786 51.3669052,42.433197 L51.3669052,35.7332992 C51.3669052,35.116829 51.866829,34.6169052 52.4832992,34.6169052 C53.1002808,34.6169052 53.6002044,35.116829 53.6002044,35.7332992 L53.6002044,42.433197 C53.6002044,43.0501786 53.1002808,43.5501022 52.4832992,43.5501022 Z" id="Shape" fill="#804169" fill-rule="nonzero"></path>
                    <path d="M59.183197,43.5501022 C58.5667267,43.5501022 58.066803,43.0501786 58.066803,42.433197 L58.066803,35.7332992 C58.066803,35.116829 58.5667267,34.6169052 59.183197,34.6169052 C59.8001786,34.6169052 60.3001022,35.116829 60.3001022,35.7332992 L60.3001022,42.433197 C60.3001022,43.0501786 59.8001786,43.5501022 59.183197,43.5501022 Z" id="Shape" fill="#804169" fill-rule="nonzero"></path>
                    <path d="M65.8830948,43.5501022 C65.2666244,43.5501022 64.7667008,43.0501786 64.7667008,42.433197 L64.7667008,35.7332992 C64.7667008,35.116829 65.2666244,34.6169052 65.8830948,34.6169052 C66.5000764,34.6169052 67,35.116829 67,35.7332992 L67,42.433197 C67,43.0501786 66.5000764,43.5501022 65.8830948,43.5501022 Z" id="Shape" fill="#804169" fill-rule="nonzero"></path>
                    <path d="M64.7667008,20.1002044 L62.5334016,20.1002044 C61.2999496,20.1002044 60.3001022,19.1003571 60.3001022,17.8669052 L60.3001022,13.3997956 C60.3001022,12.1663437 61.2999496,11.1664962 62.5334016,11.1664962 L64.7667008,11.1664962 C66.0001526,11.1664962 67,12.1663437 67,13.3997956 L67,17.8669052 C67,19.1003571 66.0001526,20.1002044 64.7667008,20.1002044 Z M62.5334016,13.3997956 L62.5334016,17.8669052 L64.7667008,17.8669052 L64.7667008,13.3997956 L62.5334016,13.3997956 Z" id="Shape" fill="#3D324C" fill-rule="nonzero"></path>
                    <path d="M65.8830948,32.3830948 C65.2666244,32.3830948 64.7667008,31.883171 64.7667008,31.2667008 L64.7667008,24.566803 C64.7667008,23.9498214 65.2666244,23.4498978 65.8830948,23.4498978 C66.5000764,23.4498978 67,23.9498214 67,24.566803 L67,31.2667008 C67,31.883171 66.5000764,32.3830948 65.8830948,32.3830948 Z" id="Shape" fill="#804169" fill-rule="nonzero"></path>
                    <path d="M61.4164962,32.3830948 C60.800026,32.3830948 60.3001022,31.883171 60.3001022,31.2667008 L60.3001022,24.566803 C60.3001022,23.9498214 60.800026,23.4498978 61.4164962,23.4498978 C62.0334778,23.4498978 62.5334016,23.9498214 62.5334016,24.566803 L62.5334016,31.2667008 C62.5334016,31.883171 62.0334778,32.3830948 61.4164962,32.3830948 Z" id="Shape" fill="#804169" fill-rule="nonzero"></path>
                    <path d="M55.8335038,32.3830948 L53.6002044,32.3830948 C52.3667526,32.3830948 51.3669052,31.3832474 51.3669052,30.1497956 L51.3669052,25.683197 C51.3669052,24.4497452 52.3667526,23.4498978 53.6002044,23.4498978 L55.8335038,23.4498978 C57.0669556,23.4498978 58.066803,24.4497452 58.066803,25.683197 L58.066803,30.1497956 C58.066803,31.3832474 57.0669556,32.3830948 55.8335038,32.3830948 Z M53.6002044,25.683197 L53.6002044,30.1497956 L55.8335038,30.1497956 L55.8335038,25.683197 L53.6002044,25.683197 Z" id="Shape" fill="#3D324C" fill-rule="nonzero"></path>
                    <path d="M52.4832992,55.8335038 C51.866829,55.8335038 51.3669052,55.33358 51.3669052,54.7165984 L51.3669052,48.0167008 C51.3669052,47.3997192 51.866829,46.8997956 52.4832992,46.8997956 C53.1002808,46.8997956 53.6002044,47.3997192 53.6002044,48.0167008 L53.6002044,54.7165984 C53.6002044,55.33358 53.1002808,55.8335038 52.4832992,55.8335038 Z" id="Shape" fill="#804169" fill-rule="nonzero"></path>
                    <path d="M56.9498978,55.8335038 C56.3334274,55.8335038 55.8335038,55.33358 55.8335038,54.7165984 L55.8335038,48.0167008 C55.8335038,47.3997192 56.3334274,46.8997956 56.9498978,46.8997956 C57.5668792,46.8997956 58.066803,47.3997192 58.066803,48.0167008 L58.066803,54.7165984 C58.066803,55.33358 57.5668792,55.8335038 56.9498978,55.8335038 Z" id="Shape" fill="#804169" fill-rule="nonzero"></path>
                    <path d="M64.7667008,55.8335038 L62.5334016,55.8335038 C61.2999496,55.8335038 60.3001022,54.8336563 60.3001022,53.6002044 L60.3001022,49.1330948 C60.3001022,47.8996429 61.2999496,46.8997956 62.5334016,46.8997956 L64.7667008,46.8997956 C66.0001526,46.8997956 67,47.8996429 67,49.1330948 L67,53.6002044 C67,54.8336563 66.0001526,55.8335038 64.7667008,55.8335038 Z M62.5334016,49.1330948 L62.5334016,53.6002044 L64.7667008,53.6002044 L64.7667008,49.1330948 L62.5334016,49.1330948 Z" id="Shape" fill="#3D324C" fill-rule="nonzero"></path>
                    <path d="M14.5167008,20.1002044 C13.8997192,20.1002044 13.3997956,19.6002808 13.3997956,18.9832992 L13.3997956,12.2834016 C13.3997956,11.66642 13.8997192,11.1664962 14.5167008,11.1664962 C15.133171,11.1664962 15.6330948,11.66642 15.6330948,12.2834016 L15.6330948,18.9832992 C15.6330948,19.6002808 15.133171,20.1002044 14.5167008,20.1002044 Z" id="Shape" fill="#804169" fill-rule="nonzero"></path>
                    <path d="M18.9832992,20.1002044 C18.366829,20.1002044 17.8669052,19.6002808 17.8669052,18.9832992 L17.8669052,12.2834016 C17.8669052,11.66642 18.366829,11.1664962 18.9832992,11.1664962 C19.6002808,11.1664962 20.1002044,11.66642 20.1002044,12.2834016 L20.1002044,18.9832992 C20.1002044,19.6002808 19.6002808,20.1002044 18.9832992,20.1002044 Z" id="Shape" fill="#804169" fill-rule="nonzero"></path>
                    <path d="M10.0501022,20.1002044 C9.43312079,20.1002044 8.93319702,19.6002808 8.93319702,18.9832992 L8.93319702,12.2834016 C8.93319702,11.66642 9.43312079,11.1664962 10.0501022,11.1664962 C10.6665726,11.1664962 11.1664962,11.66642 11.1664962,12.2834016 L11.1664962,18.9832992 C11.1664962,19.6002808 10.6665726,20.1002044 10.0501022,20.1002044 Z" id="Shape" fill="#804169" fill-rule="nonzero"></path>
                    <path d="M14.5167008,43.5501022 C13.8997192,43.5501022 13.3997956,43.0501786 13.3997956,42.433197 L13.3997956,35.7332992 C13.3997956,35.116829 13.8997192,34.6169052 14.5167008,34.6169052 C15.133171,34.6169052 15.6330948,35.116829 15.6330948,35.7332992 L15.6330948,42.433197 C15.6330948,43.0501786 15.133171,43.5501022 14.5167008,43.5501022 Z" id="Shape" fill="#804169" fill-rule="nonzero"></path>
                    <path d="M7.81680298,43.5501022 C7.19982144,43.5501022 6.6998978,43.0501786 6.6998978,42.433197 L6.6998978,35.7332992 C6.6998978,35.116829 7.19982144,34.6169052 7.81680298,34.6169052 C8.43327325,34.6169052 8.93319702,35.116829 8.93319702,35.7332992 L8.93319702,42.433197 C8.93319702,43.0501786 8.43327325,43.5501022 7.81680298,43.5501022 Z" id="Shape" fill="#804169" fill-rule="nonzero"></path>
                    <path d="M1.11690518,43.5501022 C0.499923641,43.5501022 0,43.0501786 0,42.433197 L0,35.7332992 C0,35.116829 0.499923641,34.6169052 1.11690518,34.6169052 C1.73337558,34.6169052 2.23329922,35.116829 2.23329922,35.7332992 L2.23329922,42.433197 C2.23329922,43.0501786 1.73337558,43.5501022 1.11690518,43.5501022 Z" id="Shape" fill="#804169" fill-rule="nonzero"></path>
                    <path d="M4.46659845,20.1002044 L2.23329922,20.1002044 C0.999847412,20.1002044 0,19.1003571 0,17.8669052 L0,13.3997956 C0,12.1663437 0.999847412,11.1664962 2.23329922,11.1664962 L4.46659845,11.1664962 C5.70005039,11.1664962 6.6998978,12.1663437 6.6998978,13.3997956 L6.6998978,17.8669052 C6.6998978,19.1003571 5.70005039,20.1002044 4.46659845,20.1002044 Z M2.23329922,13.3997956 L2.23329922,17.8669052 L4.46659845,17.8669052 L4.46659845,13.3997956 L2.23329922,13.3997956 Z" id="Shape" fill="#3D324C" fill-rule="nonzero"></path>
                    <path d="M1.11690518,32.3830948 C0.499923641,32.3830948 0,31.883171 0,31.2667008 L0,24.566803 C0,23.9498214 0.499923641,23.4498978 1.11690518,23.4498978 C1.73337558,23.4498978 2.23329922,23.9498214 2.23329922,24.566803 L2.23329922,31.2667008 C2.23329922,31.883171 1.73337558,32.3830948 1.11690518,32.3830948 Z" id="Shape" fill="#804169" fill-rule="nonzero"></path>
                    <path d="M5.58350376,32.3830948 C4.96652222,32.3830948 4.46659845,31.883171 4.46659845,31.2667008 L4.46659845,24.566803 C4.46659845,23.9498214 4.96652222,23.4498978 5.58350376,23.4498978 C6.19997403,23.4498978 6.6998978,23.9498214 6.6998978,24.566803 L6.6998978,31.2667008 C6.6998978,31.883171 6.19997403,32.3830948 5.58350376,32.3830948 Z" id="Shape" fill="#804169" fill-rule="nonzero"></path>
                    <path d="M13.3997956,32.3830948 L11.1664962,32.3830948 C9.93304443,32.3830948 8.93319702,31.3832474 8.93319702,30.1497956 L8.93319702,25.683197 C8.93319702,24.4497452 9.93304443,23.4498978 11.1664962,23.4498978 L13.3997956,23.4498978 C14.6332474,23.4498978 15.6330948,24.4497452 15.6330948,25.683197 L15.6330948,30.1497956 C15.6330948,31.3832474 14.6332474,32.3830948 13.3997956,32.3830948 Z M11.1664962,25.683197 L11.1664962,30.1497956 L13.3997956,30.1497956 L13.3997956,25.683197 L11.1664962,25.683197 Z" id="Shape" fill="#3D324C" fill-rule="nonzero"></path>
                    <path d="M14.5167008,55.8335038 C13.8997192,55.8335038 13.3997956,55.33358 13.3997956,54.7165984 L13.3997956,48.0167008 C13.3997956,47.3997192 13.8997192,46.8997956 14.5167008,46.8997956 C15.133171,46.8997956 15.6330948,47.3997192 15.6330948,48.0167008 L15.6330948,54.7165984 C15.6330948,55.33358 15.133171,55.8335038 14.5167008,55.8335038 Z" id="Shape" fill="#804169" fill-rule="nonzero"></path>
                    <path d="M10.0501022,55.8335038 C9.43312079,55.8335038 8.93319702,55.33358 8.93319702,54.7165984 L8.93319702,48.0167008 C8.93319702,47.3997192 9.43312079,46.8997956 10.0501022,46.8997956 C10.6665726,46.8997956 11.1664962,47.3997192 11.1664962,48.0167008 L11.1664962,54.7165984 C11.1664962,55.33358 10.6665726,55.8335038 10.0501022,55.8335038 Z" id="Shape" fill="#804169" fill-rule="nonzero"></path>
                    <path d="M4.46659845,55.8335038 L2.23329922,55.8335038 C0.999847412,55.8335038 0,54.8336563 0,53.6002044 L0,49.1330948 C0,47.8996429 0.999847412,46.8997956 2.23329922,46.8997956 L4.46659845,46.8997956 C5.70005039,46.8997956 6.6998978,47.8996429 6.6998978,49.1330948 L6.6998978,53.6002044 C6.6998978,54.8336563 5.70005039,55.8335038 4.46659845,55.8335038 Z M2.23329922,49.1330948 L2.23329922,53.6002044 L4.46659845,53.6002044 L4.46659845,49.1330948 L2.23329922,49.1330948 Z" id="Shape" fill="#3D324C" fill-rule="nonzero"></path>
                    <path d="M64.7667008,8.93319702 C64.1497192,8.93319702 63.6497956,8.43327325 63.6497956,7.81680298 L63.6497956,1.11690518 C63.6497956,0.499923641 64.1497192,0 64.7667008,0 C65.383171,0 65.8830948,0.499923641 65.8830948,1.11690518 L65.8830948,7.81680298 C65.8830948,8.43327325 65.383171,8.93319702 64.7667008,8.93319702 Z" id="Shape" fill="#804169" fill-rule="nonzero"></path>
                    <path d="M60.3001022,8.93319702 C59.6831208,8.93319702 59.183197,8.43327325 59.183197,7.81680298 L59.183197,1.11690518 C59.183197,0.499923641 59.6831208,0 60.3001022,0 C60.9165726,0 61.4164962,0.499923641 61.4164962,1.11690518 L61.4164962,7.81680298 C61.4164962,8.43327325 60.9165726,8.93319702 60.3001022,8.93319702 Z" id="Shape" fill="#804169" fill-rule="nonzero"></path>
                    <path d="M46.8997956,8.93319702 C46.2833252,8.93319702 45.7834016,8.43327325 45.7834016,7.81680298 L45.7834016,1.11690518 C45.7834016,0.499923641 46.2833252,0 46.8997956,0 C47.516777,0 48.0167008,0.499923641 48.0167008,1.11690518 L48.0167008,7.81680298 C48.0167008,8.43327325 47.516777,8.93319702 46.8997956,8.93319702 Z" id="Shape" fill="#000000" fill-rule="nonzero"></path>
                    <path d="M46.8997956,8.93319702 C46.2833252,8.93319702 45.7834016,8.43327325 45.7834016,7.81680298 L45.7834016,1.11690518 C45.7834016,0.499923641 46.2833252,0 46.8997956,0 C47.516777,0 48.0167008,0.499923641 48.0167008,1.11690518 L48.0167008,7.81680298 C48.0167008,8.43327325 47.516777,8.93319702 46.8997956,8.93319702 Z" id="Shape" fill="#804169" fill-rule="nonzero"></path>
                    <path d="M33.5,8.93319702 C32.8835296,8.93319702 32.3830948,8.43327325 32.3830948,7.81680298 L32.3830948,1.11690518 C32.3830948,0.499923641 32.8835296,0 33.5,0 C34.1164704,0 34.6169052,0.499923641 34.6169052,1.11690518 L34.6169052,7.81680298 C34.6169052,8.43327325 34.1164704,8.93319702 33.5,8.93319702 Z" id="Shape" fill="#000000" fill-rule="nonzero"></path>
                    <path d="M54.7165984,8.93319702 L52.4832992,8.93319702 C51.2498474,8.93319702 50.25,7.93334961 50.25,6.6998978 L50.25,2.23329922 C50.25,0.999847412 51.2498474,0 52.4832992,0 L54.7165984,0 C55.9500504,0 56.9498978,0.999847412 56.9498978,2.23329922 L56.9498978,6.6998978 C56.9498978,7.93334961 55.9500504,8.93319702 54.7165984,8.93319702 Z M52.4832992,2.23329922 L52.4832992,6.6998978 L54.7165984,6.6998978 L54.7165984,2.23329922 L52.4832992,2.23329922 Z" id="Shape" fill="#3D324C" fill-rule="nonzero"></path>
                    <path d="M41.316803,8.93319702 L39.0835038,8.93319702 C37.8500519,8.93319702 36.8502044,7.93334961 36.8502044,6.6998978 L36.8502044,2.23329922 C36.8502044,0.999847412 37.8500519,0 39.0835038,0 L41.316803,0 C42.5502548,0 43.5501022,0.999847412 43.5501022,2.23329922 L43.5501022,6.6998978 C43.5501022,7.93334961 42.5502548,8.93319702 41.316803,8.93319702 Z M39.0835038,2.23329922 L39.0835038,6.6998978 L41.316803,6.6998978 L41.316803,2.23329922 L39.0835038,2.23329922 Z" id="Shape" fill="#3D324C" fill-rule="nonzero"></path>
                    <path d="M33.5,8.93319702 C32.8835296,8.93319702 32.3830948,8.43327325 32.3830948,7.81680298 L32.3830948,1.11690518 C32.3830948,0.499923641 32.8835296,0 33.5,0 C34.1164704,0 34.6169052,0.499923641 34.6169052,1.11690518 L34.6169052,7.81680298 C34.6169052,8.43327325 34.1164704,8.93319702 33.5,8.93319702 Z" id="Shape" fill="#804169" fill-rule="nonzero"></path>
                    <path d="M29.0334016,8.93319702 C28.41642,8.93319702 27.9164962,8.43327325 27.9164962,7.81680298 L27.9164962,1.11690518 C27.9164962,0.499923641 28.41642,0 29.0334016,0 C29.6498718,0 30.1497956,0.499923641 30.1497956,1.11690518 L30.1497956,7.81680298 C30.1497956,8.43327325 29.6498718,8.93319702 29.0334016,8.93319702 Z" id="Shape" fill="#804169" fill-rule="nonzero"></path>
                    <path d="M2.23329922,8.93319702 C1.61682895,8.93319702 1.11690518,8.43327325 1.11690518,7.81680298 L1.11690518,1.11690518 C1.11690518,0.499923641 1.61682895,0 2.23329922,0 C2.85028076,0 3.3502044,0.499923641 3.3502044,1.11690518 L3.3502044,7.81680298 C3.3502044,8.43327325 2.85028076,8.93319702 2.23329922,8.93319702 Z" id="Shape" fill="#000000" fill-rule="nonzero"></path>
                    <path d="M2.23329922,8.93319702 C1.61682895,8.93319702 1.11690518,8.43327325 1.11690518,7.81680298 L1.11690518,1.11690518 C1.11690518,0.499923641 1.61682895,0 2.23329922,0 C2.85028076,0 3.3502044,0.499923641 3.3502044,1.11690518 L3.3502044,7.81680298 C3.3502044,8.43327325 2.85028076,8.93319702 2.23329922,8.93319702 Z" id="Shape" fill="#804169" fill-rule="nonzero"></path>
                    <path d="M15.6330948,8.93319702 C15.0166244,8.93319702 14.5167008,8.43327325 14.5167008,7.81680298 L14.5167008,1.11690518 C14.5167008,0.499923641 15.0166244,0 15.6330948,0 C16.2500764,0 16.75,0.499923641 16.75,1.11690518 L16.75,7.81680298 C16.75,8.43327325 16.2500764,8.93319702 15.6330948,8.93319702 Z" id="Shape" fill="#000000" fill-rule="nonzero"></path>
                    <path d="M15.6330948,8.93319702 C15.0166244,8.93319702 14.5167008,8.43327325 14.5167008,7.81680298 L14.5167008,1.11690518 C14.5167008,0.499923641 15.0166244,0 15.6330948,0 C16.2500764,0 16.75,0.499923641 16.75,1.11690518 L16.75,7.81680298 C16.75,8.43327325 16.2500764,8.93319702 15.6330948,8.93319702 Z" id="Shape" fill="#804169" fill-rule="nonzero"></path>
                    <path d="M23.4498978,8.93319702 L21.2165984,8.93319702 C19.9831466,8.93319702 18.9832992,7.93334961 18.9832992,6.6998978 L18.9832992,2.23329922 C18.9832992,0.999847412 19.9831466,0 21.2165984,0 L23.4498978,0 C24.6833496,0 25.683197,0.999847412 25.683197,2.23329922 L25.683197,6.6998978 C25.683197,7.93334961 24.6833496,8.93319702 23.4498978,8.93319702 Z M21.2165984,2.23329922 L21.2165984,6.6998978 L23.4498978,6.6998978 L23.4498978,2.23329922 L21.2165984,2.23329922 Z" id="Shape" fill="#3D324C" fill-rule="nonzero"></path>
                    <path d="M10.0501022,8.93319702 L7.81680298,8.93319702 C6.58335117,8.93319702 5.58350376,7.93334961 5.58350376,6.6998978 L5.58350376,2.23329922 C5.58350376,0.999847412 6.58335117,0 7.81680298,0 L10.0501022,0 C11.283554,0 12.2834016,0.999847412 12.2834016,2.23329922 L12.2834016,6.6998978 C12.2834016,7.93334961 11.283554,8.93319702 10.0501022,8.93319702 Z M7.81680298,2.23329922 L7.81680298,6.6998978 L10.0501022,6.6998978 L10.0501022,2.23329922 L7.81680298,2.23329922 Z" id="Shape" fill="#3D324C" fill-rule="nonzero"></path>
                    <path d="M2.23329922,67 C1.61682895,67 1.11690518,66.5000764 1.11690518,65.8830948 L1.11690518,59.183197 C1.11690518,58.5667267 1.61682895,58.066803 2.23329922,58.066803 C2.85028076,58.066803 3.3502044,58.5667267 3.3502044,59.183197 L3.3502044,65.8830948 C3.3502044,66.5000764 2.85028076,67 2.23329922,67 Z" id="Shape" fill="#804169" fill-rule="nonzero"></path>
                    <path d="M6.6998978,67 C6.0834274,67 5.58350376,66.5000764 5.58350376,65.8830948 L5.58350376,59.183197 C5.58350376,58.5667267 6.0834274,58.066803 6.6998978,58.066803 C7.31687921,58.066803 7.81680298,58.5667267 7.81680298,59.183197 L7.81680298,65.8830948 C7.81680298,66.5000764 7.31687921,67 6.6998978,67 Z" id="Shape" fill="#804169" fill-rule="nonzero"></path>
                    <path d="M20.1002044,67 C19.483223,67 18.9832992,66.5000764 18.9832992,65.8830948 L18.9832992,59.183197 C18.9832992,58.5667267 19.483223,58.066803 20.1002044,58.066803 C20.7166748,58.066803 21.2165984,58.5667267 21.2165984,59.183197 L21.2165984,65.8830948 C21.2165984,66.5000764 20.7166748,67 20.1002044,67 Z" id="Shape" fill="#000000" fill-rule="nonzero"></path>
                    <path d="M20.1002044,67 C19.483223,67 18.9832992,66.5000764 18.9832992,65.8830948 L18.9832992,59.183197 C18.9832992,58.5667267 19.483223,58.066803 20.1002044,58.066803 C20.7166748,58.066803 21.2165984,58.5667267 21.2165984,59.183197 L21.2165984,65.8830948 C21.2165984,66.5000764 20.7166748,67 20.1002044,67 Z" id="Shape" fill="#804169" fill-rule="nonzero"></path>
                    <path d="M33.5,67 C32.8835296,67 32.3830948,66.5000764 32.3830948,65.8830948 L32.3830948,59.183197 C32.3830948,58.5667267 32.8835296,58.066803 33.5,58.066803 C34.1164704,58.066803 34.6169052,58.5667267 34.6169052,59.183197 L34.6169052,65.8830948 C34.6169052,66.5000764 34.1164704,67 33.5,67 Z" id="Shape" fill="#000000" fill-rule="nonzero"></path>
                    <path d="M14.5167008,67 L12.2834016,67 C11.0499496,67 10.0501022,66.0001526 10.0501022,64.7667008 L10.0501022,60.3001022 C10.0501022,59.0666504 11.0499496,58.066803 12.2834016,58.066803 L14.5167008,58.066803 C15.7501526,58.066803 16.75,59.0666504 16.75,60.3001022 L16.75,64.7667008 C16.75,66.0001526 15.7501526,67 14.5167008,67 Z M12.2834016,60.3001022 L12.2834016,64.7667008 L14.5167008,64.7667008 L14.5167008,60.3001022 L12.2834016,60.3001022 Z" id="Shape" fill="#3D324C" fill-rule="nonzero"></path>
                    <path d="M27.9164962,67 L25.683197,67 C24.4497452,67 23.4498978,66.0001526 23.4498978,64.7667008 L23.4498978,60.3001022 C23.4498978,59.0666504 24.4497452,58.066803 25.683197,58.066803 L27.9164962,58.066803 C29.1499481,58.066803 30.1497956,59.0666504 30.1497956,60.3001022 L30.1497956,64.7667008 C30.1497956,66.0001526 29.1499481,67 27.9164962,67 Z M25.683197,60.3001022 L25.683197,64.7667008 L27.9164962,64.7667008 L27.9164962,60.3001022 L25.683197,60.3001022 Z" id="Shape" fill="#3D324C" fill-rule="nonzero"></path>
                    <path d="M33.5,67 C32.8835296,67 32.3830948,66.5000764 32.3830948,65.8830948 L32.3830948,59.183197 C32.3830948,58.5667267 32.8835296,58.066803 33.5,58.066803 C34.1164704,58.066803 34.6169052,58.5667267 34.6169052,59.183197 L34.6169052,65.8830948 C34.6169052,66.5000764 34.1164704,67 33.5,67 Z" id="Shape" fill="#804169" fill-rule="nonzero"></path>
                    <path d="M37.9665984,67 C37.3501282,67 36.8502044,66.5000764 36.8502044,65.8830948 L36.8502044,59.183197 C36.8502044,58.5667267 37.3501282,58.066803 37.9665984,58.066803 C38.58358,58.066803 39.0835038,58.5667267 39.0835038,59.183197 L39.0835038,65.8830948 C39.0835038,66.5000764 38.58358,67 37.9665984,67 Z" id="Shape" fill="#804169" fill-rule="nonzero"></path>
                    <path d="M64.7667008,67 C64.1497192,67 63.6497956,66.5000764 63.6497956,65.8830948 L63.6497956,59.183197 C63.6497956,58.5667267 64.1497192,58.066803 64.7667008,58.066803 C65.383171,58.066803 65.8830948,58.5667267 65.8830948,59.183197 L65.8830948,65.8830948 C65.8830948,66.5000764 65.383171,67 64.7667008,67 Z" id="Shape" fill="#000000" fill-rule="nonzero"></path>
                    <path d="M64.7667008,67 C64.1497192,67 63.6497956,66.5000764 63.6497956,65.8830948 L63.6497956,59.183197 C63.6497956,58.5667267 64.1497192,58.066803 64.7667008,58.066803 C65.383171,58.066803 65.8830948,58.5667267 65.8830948,59.183197 L65.8830948,65.8830948 C65.8830948,66.5000764 65.383171,67 64.7667008,67 Z" id="Shape" fill="#804169" fill-rule="nonzero"></path>
                    <path d="M51.3669052,67 C50.7499236,67 50.25,66.5000764 50.25,65.8830948 L50.25,59.183197 C50.25,58.5667267 50.7499236,58.066803 51.3669052,58.066803 C51.9833756,58.066803 52.4832992,58.5667267 52.4832992,59.183197 L52.4832992,65.8830948 C52.4832992,66.5000764 51.9833756,67 51.3669052,67 Z" id="Shape" fill="#000000" fill-rule="nonzero"></path>
                    <path d="M51.3669052,67 C50.7499236,67 50.25,66.5000764 50.25,65.8830948 L50.25,59.183197 C50.25,58.5667267 50.7499236,58.066803 51.3669052,58.066803 C51.9833756,58.066803 52.4832992,58.5667267 52.4832992,59.183197 L52.4832992,65.8830948 C52.4832992,66.5000764 51.9833756,67 51.3669052,67 Z" id="Shape" fill="#804169" fill-rule="nonzero"></path>
                    <path d="M45.7834016,67 L43.5501022,67 C42.3166504,67 41.316803,66.0001526 41.316803,64.7667008 L41.316803,60.3001022 C41.316803,59.0666504 42.3166504,58.066803 43.5501022,58.066803 L45.7834016,58.066803 C47.0168534,58.066803 48.0167008,59.0666504 48.0167008,60.3001022 L48.0167008,64.7667008 C48.0167008,66.0001526 47.0168534,67 45.7834016,67 Z M43.5501022,60.3001022 L43.5501022,64.7667008 L45.7834016,64.7667008 L45.7834016,60.3001022 L43.5501022,60.3001022 Z" id="Shape" fill="#3D324C" fill-rule="nonzero"></path>
                    <path d="M59.183197,67 L56.9498978,67 C55.716446,67 54.7165984,66.0001526 54.7165984,64.7667008 L54.7165984,60.3001022 C54.7165984,59.0666504 55.716446,58.066803 56.9498978,58.066803 L59.183197,58.066803 C60.4166488,58.066803 61.4164962,59.0666504 61.4164962,60.3001022 L61.4164962,64.7667008 C61.4164962,66.0001526 60.4166488,67 59.183197,67 Z M56.9498978,60.3001022 L56.9498978,64.7667008 L59.183197,64.7667008 L59.183197,60.3001022 L56.9498978,60.3001022 Z" id="Shape" fill="#3D324C" fill-rule="nonzero"></path>
                </g>
            </g>
        </g>
    </g>
</svg>