<?xml version="1.0" encoding="UTF-8"?>
<svg width="73px" height="73px" viewBox="0 0 73 73" version="1.1" xmlns="http://www.w3.org/2000/svg" xmlns:xlink="http://www.w3.org/1999/xlink">
    <!-- Generator: Sketch 51.3 (57544) - http://www.bohemiancoding.com/sketch -->
    <title>databases-and-servers/databases/mysql</title>
    <desc>Created with Sketch.</desc>
    <defs></defs>
    <g id="databases-and-servers/databases/mysql" stroke="none" stroke-width="1" fill="none" fill-rule="evenodd">
        <g id="container" transform="translate(2.000000, 2.000000)" fill="#FFFFFF" fill-rule="nonzero" stroke="#013247" stroke-width="2">
            <rect id="mask" x="-1" y="-1" width="71" height="71" rx="14"></rect>
        </g>
        <g id="MySQL" transform="translate(14.000000, 16.000000)" fill="#00618A">
            <g id="Group" transform="translate(0.786008, 0.109629)" fill-rule="nonzero">
                <path d="M40.8827605,33.7385756 C38.4614916,33.672937 36.6119538,33.8980714 35.0307983,34.5648866 C34.5814496,34.7544412 33.8649454,34.7593487 33.7916387,35.3224916 C34.0385504,35.5813655 34.0768908,35.9678361 34.2731933,36.2862143 C34.6507689,36.8972059 35.2881387,37.7158487 35.8568025,38.1452605 C36.4782227,38.6142395 37.1186597,39.1160378 37.7848613,39.5221387 C38.9697311,40.2447773 40.2926261,40.6573193 41.4336345,41.3811849 C42.1059706,41.8078361 42.7740126,42.3452143 43.4300924,42.8267689 C43.7542983,43.0647857 43.9723782,43.435 44.3938151,43.5840672 C44.3938151,43.5613697 44.3938151,43.5383655 44.3938151,43.5153613 C44.1723613,43.2334832 44.1153109,42.8457857 43.9119538,42.5513319 C43.6138193,42.2531975 43.3153782,41.9547563 43.016937,41.6563151 C42.1418571,40.4947563 41.0309076,39.4745966 39.8500252,38.6271218 C38.9083866,37.951105 36.8005882,37.0379916 36.4076765,35.9420714 C36.3846723,35.9190672 36.3619748,35.896063 36.3386639,35.8730588 C37.0063992,35.7979118 37.7882353,35.5562143 38.4044412,35.3911975 C39.4396303,35.1136134 40.3647059,35.1853866 41.4336345,34.9093361 C41.9154958,34.7716176 42.3973571,34.6335924 42.8795252,34.4961807 C42.8795252,34.4041639 42.8795252,34.3127605 42.8795252,34.2207437 C42.3390798,33.6661891 41.9538361,32.9325084 41.3646218,32.4307101 C39.8230336,31.117937 38.1403529,29.8063908 36.4076765,28.7127403 C35.4467143,28.1061655 34.259084,27.7119962 33.2407647,27.1979903 C32.8981555,27.0251521 32.2963655,26.9352824 32.0700042,26.6471471 C31.5350798,25.9650878 31.2436933,25.1006513 30.8311513,24.3062702 C29.9668067,22.6420849 29.118105,20.8245076 28.3525252,19.0737345 C27.8301765,17.8797857 27.4891008,16.702308 26.8379286,15.631171 C23.7118109,10.4914803 20.3467563,7.38919496 15.1340042,4.33994202 C14.024895,3.69146891 12.6894244,3.43535546 11.2781933,3.10078235 C10.5212017,3.05495798 9.76359664,3.00882689 9.00629832,2.96300252 C8.54406723,2.7697979 8.06312605,2.20426261 7.62942017,1.93020588 C5.90257143,0.839294496 1.47318908,-1.53361345 0.194155462,1.58603235 C-0.613445378,3.55516134 1.40110924,5.47668697 2.12160084,6.47442521 C2.62738655,7.17442773 3.27487815,7.9592084 3.63619748,8.74638151 C3.87390756,9.2637 3.9150084,9.78249076 4.11836555,10.3300214 C4.61893697,11.6785277 5.05417647,13.1456437 5.70166807,14.3920113 C6.02894118,15.0225412 6.38964706,15.6869025 6.80341597,16.2509042 C7.05707563,16.5968874 7.49170168,16.7493286 7.56040756,17.2837008 C7.13528992,17.8785895 7.11105882,18.8020395 6.87212185,19.5556878 C5.79613866,22.9485008 6.20193277,27.1656311 7.76713866,29.6766471 C8.24746639,30.4474412 9.37865966,32.1006765 10.9340504,31.4666807 C12.2946723,30.9124328 11.9907101,29.1950924 12.3799412,27.6799437 C12.4679706,27.3363529 12.4139874,27.0838588 12.5863655,26.8538168 C12.5863655,26.8765756 12.5863655,26.8996412 12.5863655,26.9227067 C12.999521,27.7488336 13.4126765,28.5749298 13.8258319,29.4009034 C14.7429328,30.8780798 16.3707101,32.4218151 17.750042,33.4634454 C18.4653193,34.003584 19.0284622,34.9375546 19.9532311,35.253479 C19.9532311,35.2304748 19.9532311,35.2077773 19.9532311,35.1844664 C19.9299202,35.1844664 19.9072227,35.1844664 19.8842185,35.1844664 C19.7050924,34.905042 19.4247479,34.7894076 19.1959328,34.5648866 C18.657021,34.0367101 18.0579916,33.3800168 17.6123235,32.7748529 C16.3578277,31.0716218 15.2490252,29.2073613 14.2389874,27.2668803 C13.7565126,26.3404244 13.3372227,25.3181176 12.9305084,24.3751601 C12.7737731,24.0115403 12.7756134,23.4618933 12.4489538,23.2735042 C12.0035924,23.9645197 11.3475126,24.5231538 11.003063,25.3390668 C10.4521891,26.6432517 10.3810294,28.2337622 10.1770588,29.8830714 C10.0562101,29.9263193 10.1098866,29.8965672 10.0390336,29.9517773 C9.08021849,29.7205084 8.74313025,28.7333828 8.38702521,27.8866134 C7.48556723,25.7449529 7.31809664,22.2964084 8.11128151,19.8312475 C8.31647899,19.1935403 9.2440084,17.1845681 8.86857983,16.5953845 C8.68945378,16.0073971 8.09809244,15.6674256 7.76713866,15.2181382 C7.35766387,14.6627861 6.94880252,13.9316206 6.66539076,13.2903248 C5.92772269,11.6204345 5.58327311,9.74592941 4.80665126,8.05806513 C4.43551681,7.2511084 3.80765546,6.43458193 3.29205462,5.71721891 C2.7212437,4.92256176 2.08203361,4.33724286 1.6397395,3.37606597 C1.48239076,3.0345916 1.26860504,2.48791975 1.50202101,2.13687563 C1.5762479,1.89993235 1.68084034,1.8011063 1.91517647,1.72381218 C2.31452941,1.41589634 3.42670588,1.82625756 3.84262185,1.9990958 C4.94682353,2.45767689 5.86821849,2.89438866 6.80341597,3.5138458 C7.25245798,3.81158151 7.70640756,4.38726933 8.249,4.54664244 C8.45542437,4.54664244 8.66215546,4.54664244 8.86857983,4.54664244 C9.83782353,4.76947647 10.9236218,4.61583908 11.8290672,4.89078529 C13.4295462,5.37724748 14.8637815,6.13387101 16.1664328,6.95637857 C20.1348109,9.46199622 23.3793235,13.0288437 25.5987689,17.2837008 C25.9557941,17.9687353 26.1103824,18.6226374 26.4247731,19.3492941 C27.0593824,20.8146311 27.8587017,22.3224798 28.489937,23.7554269 C29.1199454,25.1851227 29.7340042,26.6279769 30.6244202,27.8177235 C31.0927857,28.4431311 32.900916,28.7786244 33.7226261,29.1257731 C34.2986513,29.3693109 35.242437,29.6229706 35.7880966,29.9517773 C36.8303403,30.5805588 37.8400714,31.3289622 38.8175966,32.0175546 C39.3062059,32.3616975 40.8079202,33.116542 40.8827605,33.7385756 Z" id="Shape"></path>
            </g>
            <g id="Group" transform="translate(9.654588, 7.607551)">
                <path d="M1.23946639,0.00929369748 C0.73460084,5.20417043e-18 0.37757563,0.0644117647 0,0.146797479 C0,0.169832353 0,0.192897899 0,0.215687395 C0.0230042017,0.215687395 0.0460084034,0.215687395 0.069012605,0.215687395 C0.309789916,0.710492437 0.734907563,1.02890126 1.03273529,1.45515378 C1.26216387,1.93710714 1.49159244,2.4190605 1.72132773,2.90070714 C1.74402521,2.87791765 1.76733613,2.85488277 1.79003361,2.83209328 C2.21637815,2.5316584 2.4117605,2.05093193 2.40961345,1.31737395 C2.23876891,1.13763445 2.21361765,0.912101261 2.06547059,0.697610084 C1.86855462,0.411867227 1.48760504,0.249518908 1.23946639,0.00929369748 Z" id="Shape"></path>
            </g>
        </g>
    </g>
</svg>