<?xml version="1.0" encoding="UTF-8"?>
<svg width="73px" height="73px" viewBox="0 0 73 73" version="1.1" xmlns="http://www.w3.org/2000/svg" xmlns:xlink="http://www.w3.org/1999/xlink">
    <!-- Generator: Sketch 51.3 (57544) - http://www.bohemiancoding.com/sketch -->
    <title>databases-and-servers/databases/non-relational-databases</title>
    <desc>Created with Sketch.</desc>
    <defs></defs>
    <g id="databases-and-servers/databases/non-relational-databases" stroke="none" stroke-width="1" fill="none" fill-rule="evenodd">
        <g id="container" transform="translate(2.000000, 2.000000)" fill="#FFFFFF" fill-rule="nonzero" stroke="#03232E" stroke-width="2">
            <rect id="mask" x="-1" y="-1" width="71" height="71" rx="14"></rect>
        </g>
        <g id="server-(1)" transform="translate(14.000000, 14.000000)" fill-rule="nonzero">
            <polygon id="Shape" fill="#03232E" points="42.197113 11.2627029 20.7408142 9.50351713 20.7408142 35.4964829 42.197113 33.7372971"></polygon>
            <g id="Group" transform="translate(2.724609, 0.000000)" fill="#07485E">
                <polygon id="Shape" points="0.0786208887 11.2627029 0.0786208887 33.7372971 19.7757339 35.4964829 19.7757339 9.50351713"></polygon>
                <polygon id="Shape" points="42.2753906 0 19.7757339 0 18.0162048 5.63117977 19.7757339 11.2627029 42.2753906 11.2627029"></polygon>
                <polygon id="Shape" points="42.2753906 28.1311798 42.2753906 16.8688202 19.7757339 16.8688202 18.0162048 22.5 19.7757339 28.1311798"></polygon>
                <polygon id="Shape" points="42.2753906 45 42.2753906 33.7372971 19.7757339 33.7372971 18.0162048 39.3688202 19.7757339 45"></polygon>
            </g>
            <polygon id="Shape" fill="#0B799D" points="0 0 22.5003433 0 22.5003433 11.2627029 0 11.2627029"></polygon>
            <polygon id="Shape" fill="#0B799D" points="0 16.8688202 22.5003433 16.8688202 22.5003433 28.1311798 0 28.1311798"></polygon>
            <polygon id="Shape" fill="#0B799D" points="0 33.7372971 22.5003433 33.7372971 22.5003433 45 0 45"></polygon>
            <polygon id="Shape" fill="#B4D2D7" points="28.6585235 4.31282039 40.7953262 4.31282039 40.7953262 6.94953914 28.6585235 6.94953914"></polygon>
            <polygon id="Shape" fill="#B4D2D7" points="28.6585235 21.1816406 40.7953262 21.1816406 40.7953262 23.8183594 28.6585235 23.8183594"></polygon>
            <polygon id="Shape" fill="#B4D2D7" points="28.6585235 38.0504609 40.7953262 38.0504609 40.7953262 40.6871796 28.6585235 40.6871796"></polygon>
            <polygon id="Shape" fill="#00FF94" points="4.20467379 4.31282039 7.00756075 4.31282039 7.00756075 6.94953914 4.20467379 6.94953914"></polygon>
            <polygon id="Shape" fill="#FFD422" points="9.81079102 4.31282039 12.6140213 4.31282039 12.6140213 6.94953914 9.81079102 6.94953914"></polygon>
            <polygon id="Shape" fill="#00FF94" points="4.20467379 21.1816406 7.00756075 21.1816406 7.00756075 23.8183594 4.20467379 23.8183594"></polygon>
            <polygon id="Shape" fill="#FFD422" points="9.81079102 21.1816406 12.6140213 21.1816406 12.6140213 23.8183594 9.81079102 23.8183594"></polygon>
            <polygon id="Shape" fill="#00FF94" points="4.20467379 38.0504609 7.00756075 38.0504609 7.00756075 40.6871796 4.20467379 40.6871796"></polygon>
            <polygon id="Shape" fill="#FFD422" points="9.81079102 38.0504609 12.6140213 38.0504609 12.6140213 40.6871796 9.81079102 40.6871796"></polygon>
        </g>
    </g>
</svg>