<?xml version="1.0" encoding="UTF-8"?>
<svg width="73px" height="73px" viewBox="0 0 73 73" version="1.1" xmlns="http://www.w3.org/2000/svg" xmlns:xlink="http://www.w3.org/1999/xlink">
    <!-- Generator: Sketch 51.3 (57544) - http://www.bohemiancoding.com/sketch -->
    <title>databases-and-servers/databases/precedence-graph</title>
    <desc>Created with Sketch.</desc>
    <defs></defs>
    <g id="databases-and-servers/databases/precedence-graph" stroke="none" stroke-width="1" fill="none" fill-rule="evenodd">
        <g id="container" transform="translate(2.000000, 2.000000)" fill="#FFFFFF" fill-rule="nonzero" stroke="#28272C" stroke-width="2">
            <rect id="mask" x="-1" y="-1" width="71" height="71" rx="14"></rect>
        </g>
        <g id="data-(2)" transform="translate(13.000000, 13.000000)" fill-rule="nonzero">
            <path d="M3.24137931,0 L43.7586207,0 C45.5486598,0 47,1.45134025 47,3.24137931 L47,32.4137931 C47,34.2038322 45.5486598,35.6551724 43.7586207,35.6551724 L3.24137931,35.6551724 C1.45134025,35.6551724 0,34.2038322 0,32.4137931 L0,3.24137931 C0,1.45134025 1.45134025,0 3.24137931,0 Z" id="Shape" fill="#A7A9AC"></path>
            <polygon id="Shape" fill="#787680" points="17.0172414 35.6551724 29.9827586 35.6551724 29.9827586 42.137931 17.0172414 42.137931"></polygon>
            <path d="M12.1551724,42.137931 C10.3651334,42.137931 8.9137931,43.5892713 8.9137931,45.3793103 L8.9137931,47 L38.0862069,47 L38.0862069,45.3793103 C38.0862069,43.5892713 36.6348666,42.137931 34.8448276,42.137931 L12.1551724,42.137931 Z" id="Shape" fill="#57565C"></path>
            <polygon id="Shape" fill="#BDDBFF" points="3.24137931 3.24137931 43.7586207 3.24137931 43.7586207 29.1724138 3.24137931 29.1724138"></polygon>
            <path d="M25.1206897,32.4137931 C25.1206897,33.3088127 24.3950196,34.0344828 23.5,34.0344828 C22.6049804,34.0344828 21.8793103,33.3088127 21.8793103,32.4137931 C21.8793103,31.5187735 22.6049804,30.7931034 23.5,30.7931034 C24.3950196,30.7931034 25.1206897,31.5187735 25.1206897,32.4137931 Z" id="Shape" fill="#ED1C24"></path>
            <polygon id="Shape" fill="#7ED63E" points="23.5 11.3448276 27.5517241 11.3448276 27.5517241 6.48275862 19.4482759 6.48275862 19.4482759 11.3448276"></polygon>
            <polygon id="Shape" fill="#ED1C24" points="23.5 19.4482759 19.4482759 19.4482759 19.4482759 24.3103448 27.5517241 24.3103448 27.5517241 19.4482759"></polygon>
            <polygon id="Shape" fill="#006DF0" points="32.4137931 19.4482759 32.4137931 24.3103448 40.5172414 24.3103448 40.5172414 19.4482759"></polygon>
            <path d="M3.24137931,12.1551724 L3.24137931,29.1724138 L23.5,29.1724138 C12.3027596,29.1724138 3.24137931,21.560791 3.24137931,12.1551724 Z" id="Shape" fill="#9BC9FF"></path>
            <polygon id="Shape" fill="#FFCD00" points="10.5344828 19.4482759 6.48275862 19.4482759 6.48275862 24.3103448 14.5862069 24.3103448 14.5862069 19.4482759"></polygon>
            <g id="Group" transform="translate(9.724138, 8.103448)" fill="#F1F2F2">
                <polygon id="Shape" points="12.9655172 3.24137931 14.5862069 3.24137931 14.5862069 11.3448276 12.9655172 11.3448276"></polygon>
                <polygon id="Shape" points="4.86206897 12.9655172 9.72413793 12.9655172 9.72413793 14.5862069 4.86206897 14.5862069"></polygon>
                <polygon id="Shape" points="17.8275862 12.9655172 22.6896552 12.9655172 22.6896552 14.5862069 17.8275862 14.5862069"></polygon>
                <path d="M27.5517241,11.3448276 L25.9310345,11.3448276 L25.9310345,4.05172414 C25.9310345,2.70919487 24.8425293,1.62068966 23.5,1.62068966 L17.8275862,1.62068966 L17.8275862,0 L23.5,0 C25.7367575,0.00276975862 27.5489544,1.81496669 27.5517241,4.05172414 L27.5517241,11.3448276 Z" id="Shape"></path>
                <path d="M1.62068966,11.3448276 L0,11.3448276 L0,4.05172414 C0.00276975862,1.81496669 1.81496669,0.00276975862 4.05172414,0 L9.72413793,0 L9.72413793,1.62068966 L4.05172414,1.62068966 C2.70919487,1.62068966 1.62068966,2.70919487 1.62068966,4.05172414 L1.62068966,11.3448276 Z" id="Shape"></path>
            </g>
        </g>
    </g>
</svg>