<?xml version="1.0" encoding="UTF-8"?>
<svg width="73px" height="73px" viewBox="0 0 73 73" version="1.1" xmlns="http://www.w3.org/2000/svg" xmlns:xlink="http://www.w3.org/1999/xlink">
    <!-- Generator: Sketch 51.3 (57544) - http://www.bohemiancoding.com/sketch -->
    <title>databases-and-servers/databases/relational-databases</title>
    <desc>Created with Sketch.</desc>
    <defs></defs>
    <g id="databases-and-servers/databases/relational-databases" stroke="none" stroke-width="1" fill="none" fill-rule="evenodd">
        <g id="container" transform="translate(2.000000, 2.000000)" fill="#FFFFFF" fill-rule="nonzero" stroke="#392C1F" stroke-width="2">
            <rect id="mask" x="-1" y="-1" width="71" height="71" rx="14"></rect>
        </g>
        <g id="relationship" transform="translate(13.000000, 13.000000)" fill-rule="nonzero">
            <path d="M12.3420937,34.86075 C5.5366875,34.86075 0,40.3974375 0,47.2028437 L0,47.2305937 C0,47.6189062 0.31471875,47.9337187 0.703125,47.9337187 L23.9811562,47.9337187 C24.3695625,47.9337187 24.6842812,47.6189062 24.6842812,47.2305937 L24.6842812,47.2028437 C24.6842812,40.3974375 19.1475937,34.86075 12.3420937,34.86075 Z" id="Shape" fill="#8CC7EC"></path>
            <path d="M12.3420938,34.86075 C11.7880313,34.86075 11.2426875,34.8980625 10.70775,34.969125 C16.7434688,35.77125 21.4155938,40.9514062 21.4155938,47.2028437 L21.4155938,47.2305937 C21.4155938,47.6189062 21.100875,47.9337187 20.7124688,47.9337187 L23.9811563,47.9337187 C24.3695625,47.9337187 24.6842813,47.6189062 24.6842813,47.2305937 L24.6842813,47.2028437 C24.6842813,40.3974375 19.1475938,34.86075 12.3420938,34.86075 Z" id="Shape" fill="#66BAEA"></path>
            <path d="M15.4483125,35.2554375 C13.428375,34.7316562 11.2555313,34.7316562 9.23578125,35.2554375 C8.8936875,35.344125 8.6705625,35.6730937 8.714625,36.0238125 C8.94384375,37.8465 10.503375,39.2209688 12.342,39.2209688 C14.180625,39.2209688 15.7401563,37.8465 15.969375,36.0238125 C16.0137188,35.6730937 15.7905938,35.344125 15.4483125,35.2554375 Z" id="Shape" fill="#E09C77"></path>
            <path d="M22.90275,18.3488438 C21.8835938,16.66425 20.1901875,15.5813438 18.1345313,15.2997188 C16.6725938,15.099375 15.4769063,15.4895625 14.8065,15.7956563 C13.8286875,14.6315625 12.7157813,14.0068125 10.40775,14.0068125 C7.756875,14.0068125 3.999375,15.382125 2.0135625,18.401625 C-0.2955,21.9126563 0.69628125,26.0715938 1.93490625,28.9422188 C2.04965625,29.208 2.5809375,29.367 2.5809375,29.367 L21.8650313,29.2920938 C21.8650313,29.2920938 22.6332188,29.2348125 22.765125,28.8695625 C24.7739063,23.3067188 23.9487188,20.077875 22.90275,18.3488438 Z" id="Shape" fill="#6E563D"></path>
            <path d="M22.90275,18.3488437 C21.8835937,16.66425 20.1901875,15.5813437 18.1345313,15.2997187 C17.2010625,15.1718437 16.3770938,15.2849062 15.7281563,15.4629375 C17.4090938,15.8929687 18.7896563,16.8965625 19.6682813,18.3489375 C20.71425,20.0779687 21.5394375,23.3068125 19.5305625,28.8696562 C19.39875,29.2349062 18.6304688,29.2921875 18.6304688,29.2921875 L21.8650313,29.2921875 C21.8650313,29.2921875 22.6332187,29.2349062 22.765125,28.8696562 C24.7739062,23.3067187 23.9487187,20.077875 22.90275,18.3488437 Z" id="Shape" fill="#604B35"></path>
            <path d="M20.8019063,27.3958125 C20.5356563,27.3958125 20.2715625,27.4373437 20.0170313,27.5191875 C19.742625,27.6074062 19.5499688,27.8540625 19.5306563,28.1415937 C19.4663438,29.1025312 19.2158438,30.0240937 18.7859063,30.8807812 C18.6565313,31.1385 18.6976875,31.449 18.8895,31.6641562 C19.3764375,32.21025 20.0735625,32.523375 20.8018125,32.523375 C22.2154688,32.523375 23.3655938,31.37325 23.3655938,29.9595937 C23.3655938,28.5459375 22.2155625,27.3958125 20.8019063,27.3958125 Z" id="Shape" fill="#E09C77"></path>
            <path d="M5.898375,30.880875 C5.46834375,30.0239062 5.21775,29.1023437 5.153625,28.1416875 C5.13440625,27.8541562 4.94165625,27.6074062 4.66725,27.5191875 C4.41271875,27.43725 4.148625,27.3958125 3.882375,27.3958125 C2.46871875,27.3958125 1.31859375,28.5459375 1.31859375,29.9595937 C1.31859375,31.37325 2.46871875,32.523375 3.882375,32.523375 C4.610625,32.523375 5.30765625,32.21025 5.79459375,31.66425 C5.98659375,31.4490937 6.02775,31.1385937 5.898375,30.880875 Z" id="Shape" fill="#F7B081"></path>
            <path d="M46.6768125,21.616875 C45.814875,19.368375 44.3117813,17.4585937 42.3302813,16.0940625 C40.3474688,14.7285 38.0271563,14.0068125 35.6202188,14.0068125 C33.2132813,14.0068125 30.8929688,14.7285938 28.9101563,16.0940625 C26.9285625,17.4585937 25.4255625,19.368375 24.563625,21.616875 C23.2697813,24.9920625 23.265375,32.4675 25.1046563,36.3803437 C25.7834063,37.8242812 26.6702813,38.7398437 27.740625,39.1015312 C28.108125,39.2260312 42.9811875,39.13875 43.2745313,39.13875 C43.3491563,39.13875 43.4250938,39.12675 43.4997188,39.1015312 C44.5700625,38.7398437 45.4569375,37.8242812 46.1356875,36.3803437 C47.9749688,32.4675 47.9705625,24.9920625 46.6768125,21.616875 Z" id="Shape" fill="#A58260"></path>
            <path d="M46.6768125,21.616875 C45.814875,19.368375 44.3117813,17.4585938 42.3302812,16.0940625 C40.3474687,14.7285 38.0271562,14.0068125 35.6202187,14.0068125 C35.0698125,14.0068125 34.5242812,14.046375 33.985875,14.121 C35.8017187,14.3724375 37.53225,15.040875 39.0615938,16.0940625 C41.0431875,17.4585937 42.5461875,19.368375 43.408125,21.616875 C44.7019687,24.9920625 44.706375,32.4675 42.8670937,36.3803437 C42.1883437,37.8242812 41.3014687,38.7398437 40.231125,39.1015313 C40.1565,39.12675 40.0805625,39.13875 40.0059375,39.13875 C39.8573437,39.13875 35.9671875,39.1611562 32.1166875,39.1670625 C36.6450937,39.1761562 43.082625,39.13875 43.274625,39.13875 C43.34925,39.13875 43.4251875,39.12675 43.4998125,39.1015313 C44.5701562,38.7398437 45.4570312,37.8242812 46.1357813,36.3803437 C47.9749688,32.4675 47.9705625,24.9920625 46.6768125,21.616875 Z" id="Shape" fill="#8C6B50"></path>
            <path d="M35.620125,34.86075 C28.814625,34.86075 23.2780312,40.3974375 23.2780312,47.2028437 L23.2780312,47.2305937 C23.2780312,47.6189062 23.59275,47.9337187 23.9811562,47.9337187 L47.2591875,47.9337187 C47.6475937,47.9337187 47.9623125,47.6189062 47.9623125,47.2305937 L47.9623125,47.2028437 C47.9623125,40.3974375 42.425625,34.86075 35.620125,34.86075 Z" id="Shape" fill="#FD7DAD"></path>
            <path d="M35.620125,34.86075 C35.0660625,34.86075 34.5207188,34.8980625 33.9857813,34.969125 C40.0215,35.77125 44.6935312,40.9514062 44.6935312,47.2028437 L44.6935312,47.2305937 C44.6935312,47.6189062 44.3788125,47.9337187 43.9904062,47.9337187 L47.2590937,47.9337187 C47.6475,47.9337187 47.9622187,47.6189062 47.9622187,47.2305937 L47.9622187,47.2028437 C47.9623125,40.3974375 42.425625,34.86075 35.620125,34.86075 Z" id="Shape" fill="#FC63A1"></path>
            <path d="M32.0657812,4.2463125 C31.6731562,1.375875 29.650875,0.19490625 27.8893125,0.046875 C26.31975,-0.08540625 24.8535937,0.504375 23.9810625,1.5268125 C23.108625,0.50428125 21.642,-0.0853125 20.0729062,0.046875 C18.3113437,0.19490625 16.2891562,1.375875 15.8964375,4.2463125 C15.0895312,10.1446875 23.32275,14.2198125 23.6736562,14.3904375 C23.7706875,14.4375937 23.875875,14.4612187 23.9810625,14.4612187 C24.08625,14.4612187 24.1914375,14.4376875 24.2884687,14.3904375 C24.6394687,14.2198125 32.8726875,10.1445937 32.0657812,4.2463125 Z" id="Shape" fill="#FF3D43"></path>
            <path d="M32.0657813,4.2463125 C31.6731563,1.375875 29.650875,0.19490625 27.8893125,0.046875 C27.1543125,-0.01509375 26.4429375,0.0830625 25.8036562,0.3080625 C27.1892813,0.806625 28.4777813,2.01646875 28.7828438,4.2463125 C29.4000938,8.75840625 24.7273125,12.2035312 22.3396875,13.65 C23.0732812,14.0944687 23.59125,14.3503125 23.67375,14.3904375 C23.7707812,14.4375937 23.8759687,14.4612187 23.9811562,14.4612187 C24.0863437,14.4612187 24.1915312,14.4376875 24.2885625,14.3904375 C24.6394687,14.2198125 32.8726875,10.1445937 32.0657813,4.2463125 Z" id="Shape" fill="#D72E2E"></path>
            <path d="M20.3713125,25.5384375 C16.89075,24.9400312 14.4819375,21.4077187 14.4585,21.3728438 C14.3140313,21.1564688 14.0627813,21.0355312 13.8039375,21.0617812 C13.5450938,21.0880313 13.3228125,21.2528438 13.2245625,21.4937812 C13.2203438,21.5038125 12.7836563,22.5114375 11.5017188,23.5032187 C9.78946875,24.828 7.34484375,25.5282188 4.432125,25.5282188 C4.04371875,25.5282188 3.729,25.8430312 3.729,26.2313437 L3.729,27.6538125 C3.729,32.4031875 7.59290625,36.267 12.3421875,36.267 C17.0914688,36.267 20.955375,32.4031875 20.955375,27.6538125 L20.955375,26.2313437 C20.9552812,25.8889687 20.7087188,25.596375 20.3713125,25.5384375 Z" id="Shape" fill="#FFC89F"></path>
            <path d="M20.3713125,25.5384375 C19.3789687,25.3678125 18.4742813,24.9584062 17.6866875,24.4599375 L17.6866875,27.6539063 C17.6866875,31.84425 14.6787187,35.3449688 10.7087812,36.1110938 C11.2378125,36.2130937 11.7837187,36.2670938 12.3421875,36.2670938 C17.0914687,36.2670938 20.955375,32.4032812 20.955375,27.6539063 L20.955375,26.2314375 C20.9552812,25.8889688 20.7087187,25.596375 20.3713125,25.5384375 Z" id="Shape" fill="#F7B081"></path>
            <path d="M38.7263437,35.2554375 C36.7064062,34.7316562 34.5335625,34.7316562 32.5138125,35.2554375 C32.1717187,35.344125 31.9485937,35.6730937 31.9926562,36.0238125 C32.221875,37.8465 33.7814062,39.2209688 35.6200312,39.2209688 C37.4586562,39.2209688 39.0181875,37.8465 39.2474062,36.0238125 C39.2916562,35.6730937 39.0685312,35.344125 38.7263437,35.2554375 Z" id="Shape" fill="#E09C77"></path>
            <path d="M43.6493437,25.5384375 C40.1687813,24.9400312 37.7599687,21.4077187 37.7365312,21.3728438 C37.5920625,21.1564688 37.3403437,21.0355312 37.0819687,21.0617812 C36.823125,21.0880313 36.6008437,21.2528438 36.5025937,21.4937812 C36.498375,21.5038125 36.0616875,22.5114375 34.77975,23.5032187 C33.0675,24.828 30.6227812,25.5282188 27.7100625,25.5282188 C27.3216562,25.5282188 27.0069375,25.8430312 27.0069375,26.2313437 L27.0069375,27.6538125 C27.0069375,32.4031875 30.8708437,36.267 35.6202187,36.267 C40.3695,36.267 44.2334063,32.4031875 44.2334063,27.6538125 L44.2334063,26.2313437 C44.2333125,25.8889687 43.98675,25.596375 43.6493437,25.5384375 Z" id="Shape" fill="#FFC89F"></path>
            <path d="M43.6493437,25.5384375 C42.6570938,25.3678125 41.7524062,24.9585 40.9647187,24.4599375 L40.9647187,27.6538125 C40.9647187,31.8441562 37.95675,35.344875 33.9868125,36.111 C34.5158437,36.213 35.0618437,36.267 35.6202187,36.267 C40.3695,36.267 44.2334063,32.4031875 44.2334063,27.6538125 L44.2334063,26.2313437 C44.2333125,25.8889687 43.98675,25.596375 43.6493437,25.5384375 Z" id="Shape" fill="#F7B081"></path>
            <g id="Group" transform="translate(31.125000, 27.843750)" fill="#464649">
                <path d="M1.2264375,2.3638125 C0.59784375,2.3638125 0.08653125,1.85240625 0.08653125,1.2238125 C0.08653125,0.59521875 0.59784375,0.0838125 1.2264375,0.0838125 C1.85503125,0.0838125 2.3664375,0.59521875 2.3664375,1.2238125 C2.3664375,1.8525 1.85503125,2.3638125 1.2264375,2.3638125 Z" id="Shape"></path>
                <path d="M7.7638125,2.3638125 C7.13521875,2.3638125 6.6238125,1.85240625 6.6238125,1.2238125 C6.6238125,0.59521875 7.13521875,0.0838125 7.7638125,0.0838125 C8.39240625,0.0838125 8.90371875,0.59521875 8.90371875,1.2238125 C8.9038125,1.8525 8.3925,2.3638125 7.7638125,2.3638125 Z" id="Shape"></path>
            </g>
            <g id="Group" transform="translate(7.875000, 27.843750)" fill="#464649">
                <path d="M1.19840625,2.3638125 C0.5698125,2.3638125 0.0585,1.85240625 0.0585,1.2238125 C0.0585,0.59521875 0.5698125,0.0838125 1.19840625,0.0838125 C1.827,0.0838125 2.33840625,0.59521875 2.33840625,1.2238125 C2.33840625,1.8525 1.827,2.3638125 1.19840625,2.3638125 Z" id="Shape"></path>
                <path d="M7.735875,2.3638125 C7.10728125,2.3638125 6.595875,1.85240625 6.595875,1.2238125 C6.595875,0.59521875 7.10728125,0.0838125 7.735875,0.0838125 C8.36446875,0.0838125 8.87578125,0.59521875 8.87578125,1.2238125 C8.87578125,1.8525 8.36446875,2.3638125 7.735875,2.3638125 Z" id="Shape"></path>
            </g>
        </g>
    </g>
</svg>