<?xml version="1.0" encoding="UTF-8"?>
<svg width="73px" height="73px" viewBox="0 0 73 73" version="1.1" xmlns="http://www.w3.org/2000/svg" xmlns:xlink="http://www.w3.org/1999/xlink">
    <!-- Generator: Sketch 51.3 (57544) - http://www.bohemiancoding.com/sketch -->
    <title>databases-and-servers/databases/relational-algebra</title>
    <desc>Created with Sketch.</desc>
    <defs></defs>
    <g id="databases-and-servers/databases/relational-algebra" stroke="none" stroke-width="1" fill="none" fill-rule="evenodd">
        <g id="container" transform="translate(2.000000, 2.000000)" fill="#FFFFFF" fill-rule="nonzero" stroke="#3C3E4C" stroke-width="2">
            <rect id="mask" x="-1" y="-1" width="71" height="71" rx="14"></rect>
        </g>
        <g id="calculating" transform="translate(17.000000, 12.000000)" fill-rule="nonzero">
            <path d="M37.3840821,49.1568627 L1.78779285,49.1568627 C0.851604243,49.1568627 0.0927451746,48.3980037 0.0927451746,47.4618151 L0.0927451746,1.69504768 C0.0927451746,0.758859069 0.851604243,0 1.78779285,0 L37.3841782,0 C38.3203668,0 39.0792258,0.758859069 39.0792258,1.69504768 L39.0792258,47.4618151 C39.0791298,48.3979077 38.3201747,49.1568627 37.3840821,49.1568627 Z" id="Shape" fill="#C7CFE2"></path>
            <path d="M39.0792258,16.9506688 L0.0927451746,16.9506688 L0.0927451746,1.69504768 C0.0927451746,0.758859069 0.851604243,0 1.78779285,0 L37.3841782,0 C38.3203668,0 39.0792258,0.758859069 39.0792258,1.69504768 L39.0792258,16.9506688 Z" id="Shape" fill="#707487"></path>
            <g id="Group" transform="translate(3.456342, 20.258004)" fill="#5B5D6E">
                <path d="M4.26416582,5.16799923 L0.874070466,5.16799923 C0.406024165,5.16799923 0.0264986213,4.78847369 0.0264986213,4.32042739 L0.0264986213,0.930332031 C0.0264986213,0.462285731 0.406024165,0.0827601869 0.874070466,0.0827601869 L4.26416582,0.0827601869 C4.73221212,0.0827601869 5.11173767,0.462285731 5.11173767,0.930332031 L5.11173767,4.32042739 C5.11164166,4.78847369 4.73221212,5.16799923 4.26416582,5.16799923 Z" id="Shape"></path>
                <path d="M4.26416582,18.7284767 L0.874070466,18.7284767 C0.406024165,18.7284767 0.0264986213,18.3489511 0.0264986213,17.8809048 L0.0264986213,14.4908095 C0.0264986213,14.0227632 0.406024165,13.6432376 0.874070466,13.6432376 L4.26416582,13.6432376 C4.73221212,13.6432376 5.11173767,14.0227632 5.11173767,14.4908095 L5.11173767,17.8809048 C5.11164166,18.3489511 4.73221212,18.7284767 4.26416582,18.7284767 Z" id="Shape"></path>
                <path d="M4.26416582,11.94819 L0.874070466,11.94819 C0.406024165,11.94819 0.0264986213,11.5686644 0.0264986213,11.1006181 L0.0264986213,7.71052275 C0.0264986213,7.24247645 0.406024165,6.8629509 0.874070466,6.8629509 L4.26416582,6.8629509 C4.73221212,6.8629509 5.11173767,7.24247645 5.11173767,7.71052275 L5.11173767,11.1006181 C5.11164166,11.5687604 4.73221212,11.94819 4.26416582,11.94819 Z" id="Shape"></path>
            </g>
            <path d="M7.72050774,45.7667674 L4.33041238,45.7667674 C3.86236608,45.7667674 3.48284053,45.3872418 3.48284053,44.9191955 L3.48284053,41.5291002 C3.48284053,41.0610539 3.86236608,40.6815283 4.33041238,40.6815283 L7.72050774,40.6815283 C8.18855404,40.6815283 8.56807958,41.0610539 8.56807958,41.5291002 L8.56807958,44.9191955 C8.56798357,45.3872418 8.18855404,45.7667674 7.72050774,45.7667674 Z" id="Shape" fill="#FF6464"></path>
            <g id="Group" transform="translate(10.177007, 20.258004)" fill="#8F96AC">
                <path d="M4.32369171,5.16799923 L0.933596354,5.16799923 C0.465550054,5.16799923 0.0860245098,4.78847369 0.0860245098,4.32042739 L0.0860245098,0.930332031 C0.0860245098,0.462285731 0.465550054,0.0827601869 0.933596354,0.0827601869 L4.32369171,0.0827601869 C4.79173801,0.0827601869 5.17126356,0.462285731 5.17126356,0.930332031 L5.17126356,4.32042739 C5.17126356,4.78847369 4.79183402,5.16799923 4.32369171,5.16799923 Z" id="Shape"></path>
                <path d="M4.32369171,18.7284767 L0.933596354,18.7284767 C0.465550054,18.7284767 0.0860245098,18.3489511 0.0860245098,17.8809048 L0.0860245098,14.4908095 C0.0860245098,14.0227632 0.465550054,13.6432376 0.933596354,13.6432376 L4.32369171,13.6432376 C4.79173801,13.6432376 5.17126356,14.0227632 5.17126356,14.4908095 L5.17126356,17.8809048 C5.17126356,18.3489511 4.79183402,18.7284767 4.32369171,18.7284767 Z" id="Shape"></path>
                <path d="M4.32369171,11.94819 L0.933596354,11.94819 C0.465550054,11.94819 0.0860245098,11.5686644 0.0860245098,11.1006181 L0.0860245098,7.71052275 C0.0860245098,7.24247645 0.465550054,6.8629509 0.933596354,6.8629509 L4.32369171,6.8629509 C4.79173801,6.8629509 5.17126356,7.24247645 5.17126356,7.71052275 L5.17126356,11.1006181 C5.17126356,11.5687604 4.79183402,11.94819 4.32369171,11.94819 Z" id="Shape"></path>
                <path d="M4.32369171,25.5087634 L0.933596354,25.5087634 C0.465550054,25.5087634 0.0860245098,25.1292379 0.0860245098,24.6611916 L0.0860245098,21.2710962 C0.0860245098,20.8030499 0.465550054,20.4235244 0.933596354,20.4235244 L4.32369171,20.4235244 C4.79173801,20.4235244 5.17126356,20.8030499 5.17126356,21.2710962 L5.17126356,24.6611916 C5.17126356,25.1292379 4.79183402,25.5087634 4.32369171,25.5087634 Z" id="Shape"></path>
                <path d="M11.1039784,5.16799923 L7.71388308,5.16799923 C7.24583678,5.16799923 6.86631124,4.78847369 6.86631124,4.32042739 L6.86631124,0.930332031 C6.86631124,0.462285731 7.24583678,0.0827601869 7.71388308,0.0827601869 L11.1039784,0.0827601869 C11.5720247,0.0827601869 11.9515503,0.462285731 11.9515503,0.930332031 L11.9515503,4.32042739 C11.9515503,4.78847369 11.5720247,5.16799923 11.1039784,5.16799923 Z" id="Shape"></path>
                <path d="M11.1039784,18.7284767 L7.71388308,18.7284767 C7.24583678,18.7284767 6.86631124,18.3489511 6.86631124,17.8809048 L6.86631124,14.4908095 C6.86631124,14.0227632 7.24583678,13.6432376 7.71388308,13.6432376 L11.1039784,13.6432376 C11.5720247,13.6432376 11.9515503,14.0227632 11.9515503,14.4908095 L11.9515503,17.8809048 C11.9515503,18.3489511 11.5720247,18.7284767 11.1039784,18.7284767 Z" id="Shape"></path>
                <path d="M11.1039784,11.94819 L7.71388308,11.94819 C7.24583678,11.94819 6.86631124,11.5686644 6.86631124,11.1006181 L6.86631124,7.71052275 C6.86631124,7.24247645 7.24583678,6.8629509 7.71388308,6.8629509 L11.1039784,6.8629509 C11.5720247,6.8629509 11.9515503,7.24247645 11.9515503,7.71052275 L11.9515503,11.1006181 C11.9515503,11.5687604 11.5720247,11.94819 11.1039784,11.94819 Z" id="Shape"></path>
                <path d="M11.1039784,25.5087634 L7.71388308,25.5087634 C7.24583678,25.5087634 6.86631124,25.1292379 6.86631124,24.6611916 L6.86631124,21.2710962 C6.86631124,20.8030499 7.24583678,20.4235244 7.71388308,20.4235244 L11.1039784,20.4235244 C11.5720247,20.4235244 11.9515503,20.8030499 11.9515503,21.2710962 L11.9515503,24.6611916 C11.9515503,25.1292379 11.5720247,25.5087634 11.1039784,25.5087634 Z" id="Shape"></path>
                <path d="M17.8842652,5.16799923 L14.4941698,5.16799923 C14.0261235,5.16799923 13.646598,4.78847369 13.646598,4.32042739 L13.646598,0.930332031 C13.646598,0.462285731 14.0261235,0.0827601869 14.4941698,0.0827601869 L17.8842652,0.0827601869 C18.3523115,0.0827601869 18.731837,0.462285731 18.731837,0.930332031 L18.731837,4.32042739 C18.731741,4.78847369 18.3523115,5.16799923 17.8842652,5.16799923 Z" id="Shape"></path>
                <path d="M17.8842652,18.7284767 L14.4941698,18.7284767 C14.0261235,18.7284767 13.646598,18.3489511 13.646598,17.8809048 L13.646598,14.4908095 C13.646598,14.0227632 14.0261235,13.6432376 14.4941698,13.6432376 L17.8842652,13.6432376 C18.3523115,13.6432376 18.731837,14.0227632 18.731837,14.4908095 L18.731837,17.8809048 C18.731741,18.3489511 18.3523115,18.7284767 17.8842652,18.7284767 Z" id="Shape"></path>
                <path d="M17.8842652,11.94819 L14.4941698,11.94819 C14.0261235,11.94819 13.646598,11.5686644 13.646598,11.1006181 L13.646598,7.71052275 C13.646598,7.24247645 14.0261235,6.8629509 14.4941698,6.8629509 L17.8842652,6.8629509 C18.3523115,6.8629509 18.731837,7.24247645 18.731837,7.71052275 L18.731837,11.1006181 C18.731741,11.5687604 18.3523115,11.94819 17.8842652,11.94819 Z" id="Shape"></path>
            </g>
            <g id="Group" transform="translate(23.810355, 20.258004)" fill="#5B5D6E">
                <path d="M4.25091651,25.5087634 L0.860821155,25.5087634 C0.392774854,25.5087634 0.0132493107,25.1292379 0.0132493107,24.6611916 L0.0132493107,21.2710962 C0.0132493107,20.8030499 0.392774854,20.4235244 0.860821155,20.4235244 L4.25091651,20.4235244 C4.71896281,20.4235244 5.09848836,20.8030499 5.09848836,21.2710962 L5.09848836,24.6611916 C5.09839235,25.1292379 4.71896281,25.5087634 4.25091651,25.5087634 Z" id="Shape"></path>
                <path d="M11.0312032,5.16799923 L7.64110788,5.16799923 C7.17306158,5.16799923 6.79353604,4.78847369 6.79353604,4.32042739 L6.79353604,0.930332031 C6.79353604,0.462285731 7.17306158,0.0827601869 7.64110788,0.0827601869 L11.0312032,0.0827601869 C11.4992495,0.0827601869 11.8787751,0.462285731 11.8787751,0.930332031 L11.8787751,4.32042739 C11.8786791,4.78847369 11.4992495,5.16799923 11.0312032,5.16799923 Z" id="Shape"></path>
                <path d="M11.0312032,11.94819 L7.64110788,11.94819 C7.17306158,11.94819 6.79353604,11.5686644 6.79353604,11.1006181 L6.79353604,7.71052275 C6.79353604,7.24247645 7.17306158,6.8629509 7.64110788,6.8629509 L11.0312032,6.8629509 C11.4992495,6.8629509 11.8787751,7.24247645 11.8787751,7.71052275 L11.8787751,11.1006181 C11.8786791,11.5687604 11.4992495,11.94819 11.0312032,11.94819 Z" id="Shape"></path>
                <path d="M11.0312032,25.5087634 L7.64110788,25.5087634 C7.17306158,25.5087634 6.79353604,25.1292379 6.79353604,24.6611916 L6.79353604,14.4908095 C6.79353604,14.0227632 7.17306158,13.6432376 7.64110788,13.6432376 L11.0312032,13.6432376 C11.4992495,13.6432376 11.8787751,14.0227632 11.8787751,14.4908095 L11.8787751,24.6611916 C11.8786791,25.1292379 11.4992495,25.5087634 11.0312032,25.5087634 Z" id="Shape"></path>
            </g>
            <path d="M34.8415586,11.8654298 L4.33031637,11.8654298 C3.86227007,11.8654298 3.48274452,11.4859042 3.48274452,11.0178579 L3.48274452,4.2376672 C3.48274452,3.7696209 3.86227007,3.39009536 4.33031637,3.39009536 L34.8414626,3.39009536 C35.3095089,3.39009536 35.6890345,3.7696209 35.6890345,4.2376672 L35.6890345,11.0179539 C35.6890345,11.4860002 35.3096049,11.8654298 34.8415586,11.8654298 Z" id="Shape" fill="#D7DEED"></path>
            <g id="Group" transform="translate(5.088503, 4.992494)" fill="#C7CFE2">
                <path d="M2.63200437,5.17788821 L0.936956687,5.17788821 C0.468526348,5.17788821 0.0893848422,4.79884272 0.0893848422,4.33031637 L0.0893848422,0.940221009 C0.0893848422,0.471790671 0.468430339,0.0926491651 0.936956687,0.0926491651 L2.63200437,0.0926491651 C3.1004347,0.0926491651 3.47957621,0.471694661 3.47957621,0.940221009 L3.47957621,4.33031637 C3.4794802,4.79884272 3.1004347,5.17788821 2.63200437,5.17788821 Z" id="Shape"></path>
                <path d="M7.7171474,5.17788821 L6.02209972,5.17788821 C5.55366939,5.17788821 5.17452788,4.79884272 5.17452788,4.33031637 L5.17452788,0.940221009 C5.17452788,0.471790671 5.55357338,0.0926491651 6.02209972,0.0926491651 L7.7171474,0.0926491651 C8.18557774,0.0926491651 8.56471925,0.471694661 8.56471925,0.940221009 L8.56471925,4.33031637 C8.56471925,4.79884272 8.18567375,5.17788821 7.7171474,5.17788821 Z" id="Shape"></path>
                <path d="M12.8023865,5.17788821 L11.1073388,5.17788821 C10.6389084,5.17788821 10.2597669,4.79884272 10.2597669,4.33031637 L10.2597669,0.940221009 C10.2597669,0.471790671 10.6388124,0.0926491651 11.1073388,0.0926491651 L12.8023865,0.0926491651 C13.2708168,0.0926491651 13.6499583,0.471694661 13.6499583,0.940221009 L13.6499583,4.33031637 C13.6498623,4.79884272 13.2708168,5.17788821 12.8023865,5.17788821 Z" id="Shape"></path>
                <path d="M17.8875295,5.17788821 L16.1924818,5.17788821 C15.7240515,5.17788821 15.34491,4.79884272 15.34491,4.33031637 L15.34491,0.940221009 C15.34491,0.471790671 15.7239555,0.0926491651 16.1924818,0.0926491651 L17.8875295,0.0926491651 C18.3559598,0.0926491651 18.7351013,0.471694661 18.7351013,0.940221009 L18.7351013,4.33031637 C18.7351013,4.79884272 18.3560558,5.17788821 17.8875295,5.17788821 Z" id="Shape"></path>
            </g>
            <g id="Group" transform="translate(25.442517, 4.992494)" fill="#8F96AC">
                <path d="M2.61875506,5.17788821 L0.923707376,5.17788821 C0.455277037,5.17788821 0.0761355316,4.79884272 0.0761355316,4.33031637 L0.0761355316,0.940221009 C0.0761355316,0.471790671 0.455181028,0.0926491651 0.923707376,0.0926491651 L2.61875506,0.0926491651 C3.08718539,0.0926491651 3.4663269,0.471694661 3.4663269,0.940221009 L3.4663269,4.33031637 C3.46623089,4.79884272 3.08718539,5.17788821 2.61875506,5.17788821 Z" id="Shape"></path>
                <path d="M7.70389809,5.17788821 L6.00885041,5.17788821 C5.54042008,5.17788821 5.16127857,4.79884272 5.16127857,4.33031637 L5.16127857,0.940221009 C5.16127857,0.471790671 5.54032407,0.0926491651 6.00885041,0.0926491651 L7.70389809,0.0926491651 C8.17232843,0.0926491651 8.55146994,0.471694661 8.55146994,0.940221009 L8.55146994,4.33031637 C8.55146994,4.79884272 8.17242444,5.17788821 7.70389809,5.17788821 Z" id="Shape"></path>
            </g>
            <rect id="Rectangle-path" fill="#5B5D6E" x="0.0927451746" y="14.4080493" width="38.9864807" height="2.54261952"></rect>
        </g>
    </g>
</svg>