<?xml version="1.0" encoding="UTF-8"?>
<svg width="73px" height="73px" viewBox="0 0 73 73" version="1.1" xmlns="http://www.w3.org/2000/svg" xmlns:xlink="http://www.w3.org/1999/xlink">
    <!-- Generator: Sketch 51.3 (57544) - http://www.bohemiancoding.com/sketch -->
    <title>databases-and-servers/databases/serializability</title>
    <desc>Created with Sketch.</desc>
    <defs></defs>
    <g id="databases-and-servers/databases/serializability" stroke="none" stroke-width="1" fill="none" fill-rule="evenodd">
        <g id="container" transform="translate(2.000000, 2.000000)" fill="#FFFFFF" fill-rule="nonzero" stroke="#273D49" stroke-width="2">
            <rect id="mask" x="-1" y="-1" width="71" height="71" rx="14"></rect>
        </g>
        <g id="server-(2)" transform="translate(10.000000, 10.000000)" fill-rule="nonzero">
            <path d="M36.3103448,22.3448276 C37.337485,22.3478443 38.1693971,23.1797564 38.1724138,24.2068966 L38.1724138,29.7931034 C38.1693971,30.8202436 37.337485,31.6521557 36.3103448,31.6551724 C37.337485,31.6581892 38.1693971,32.4901012 38.1724138,33.5172414 L38.1724138,39.1034483 C38.1693971,40.1305884 37.337485,40.9625005 36.3103448,40.9655172 L17.6896552,40.9655172 C16.662515,40.9625005 15.8306029,40.1305884 15.8275862,39.1034483 L15.8275862,33.5172414 C15.8306029,32.4901012 16.662515,31.6581892 17.6896552,31.6551724 C16.662515,31.6521557 15.8306029,30.8202436 15.8275862,29.7931034 L15.8275862,24.2068966 C15.8306029,23.1797564 16.662515,22.3478443 17.6896552,22.3448276 C16.662515,22.3418108 15.8306029,21.5098988 15.8275862,20.4827586 L15.8275862,14.8965517 C15.8306029,13.8694116 16.662515,13.0374995 17.6896552,13.0344828 L36.3103448,13.0344828 C37.337485,13.0374995 38.1693971,13.8694116 38.1724138,14.8965517 L38.1724138,20.4827586 C38.1693971,21.5098988 37.337485,22.3418108 36.3103448,22.3448276 Z" id="Shape" fill="#3F5C6C"></path>
            <rect id="Rectangle-path" fill="#547580" x="15.8275862" y="22.3448276" width="22.3448276" height="9.31034483" rx="2"></rect>
            <path d="M20.4827586,37.2413793 L19.5517241,37.2413793 C19.037528,37.2413793 18.6206897,36.8245409 18.6206897,36.3103448 C18.6206897,35.7961487 19.037528,35.3793103 19.5517241,35.3793103 L20.4827586,35.3793103 C20.9969547,35.3793103 21.4137931,35.7961487 21.4137931,36.3103448 C21.4137931,36.8245409 20.9969547,37.2413793 20.4827586,37.2413793 Z" id="Shape" fill="#14A085"></path>
            <path d="M34.4482759,37.2413793 L24.2068966,37.2413793 C23.6927005,37.2413793 23.2758621,36.8245409 23.2758621,36.3103448 C23.2758621,35.7961487 23.6927005,35.3793103 24.2068966,35.3793103 L34.4482759,35.3793103 C34.962472,35.3793103 35.3793103,35.7961487 35.3793103,36.3103448 C35.3793103,36.8245409 34.962472,37.2413793 34.4482759,37.2413793 Z" id="Shape" fill="#14A085"></path>
            <path d="M20.4827586,27.9310345 L19.5517241,27.9310345 C19.037528,27.9310345 18.6206897,27.5141961 18.6206897,27 C18.6206897,26.4858039 19.037528,26.0689655 19.5517241,26.0689655 L20.4827586,26.0689655 C20.9969547,26.0689655 21.4137931,26.4858039 21.4137931,27 C21.4137931,27.5141961 20.9969547,27.9310345 20.4827586,27.9310345 Z" id="Shape" fill="#14A085"></path>
            <path d="M34.4482759,27.9310345 L24.2068966,27.9310345 C23.6927005,27.9310345 23.2758621,27.5141961 23.2758621,27 C23.2758621,26.4858039 23.6927005,26.0689655 24.2068966,26.0689655 L34.4482759,26.0689655 C34.962472,26.0689655 35.3793103,26.4858039 35.3793103,27 C35.3793103,27.5141961 34.962472,27.9310345 34.4482759,27.9310345 Z" id="Shape" fill="#14A085"></path>
            <path d="M20.4827586,18.6206897 L19.5517241,18.6206897 C19.037528,18.6206897 18.6206897,18.2038513 18.6206897,17.6896552 C18.6206897,17.1754591 19.037528,16.7586207 19.5517241,16.7586207 L20.4827586,16.7586207 C20.9969547,16.7586207 21.4137931,17.1754591 21.4137931,17.6896552 C21.4137931,18.2038513 20.9969547,18.6206897 20.4827586,18.6206897 Z" id="Shape" fill="#14A085"></path>
            <path d="M34.4482759,18.6206897 L24.2068966,18.6206897 C23.6927005,18.6206897 23.2758621,18.2038513 23.2758621,17.6896552 C23.2758621,17.1754591 23.6927005,16.7586207 24.2068966,16.7586207 L34.4482759,16.7586207 C34.962472,16.7586207 35.3793103,17.1754591 35.3793103,17.6896552 C35.3793103,18.2038513 34.962472,18.6206897 34.4482759,18.6206897 Z" id="Shape" fill="#14A085"></path>
            <g id="Group" transform="translate(3.724138, 3.724138)" fill="#3B97D3">
                <path d="M45.1264966,19.5796552 C44.6858722,19.5792365 44.3058761,19.2699942 44.2159448,18.8386448 C43.4942458,15.3727619 41.9122202,12.1441323 39.6155172,9.45 C39.39931,9.19720384 39.3343914,8.84826524 39.4452157,8.53462617 C39.55604,8.22098709 39.8257703,7.99029667 40.1528019,7.92945376 C40.4798334,7.86861084 40.8144824,7.98685901 41.0306897,8.23965517 C43.5310649,11.1717208 45.2534169,14.685839 46.0390966,18.4583172 C46.0895067,18.7000587 46.0418143,18.9519243 45.9065126,19.1585 C45.7712108,19.3650757 45.5593843,19.5094377 45.3176379,19.5598241 C45.2547557,19.5728615 45.190716,19.5795056 45.1264966,19.5796552 Z" id="Shape"></path>
                <path d="M40.3231034,38.637931 C39.9597892,38.6377007 39.6297968,38.4261529 39.4779162,38.0961082 C39.3260356,37.7660634 39.3800146,37.3778191 39.616169,37.1017241 C41.9127574,34.407589 43.494685,31.1789955 44.2163172,27.7131724 C44.2842063,27.387531 44.5206661,27.1228443 44.8366244,27.0188172 C45.1525826,26.9147902 45.5000379,26.987227 45.7481071,27.2088414 C45.9961763,27.4304558 46.1071718,27.7675793 46.0392828,28.0932207 C45.2535782,31.8657827 43.5311597,35.3799698 41.0306897,38.312069 C40.8540472,38.5192259 40.5953467,38.6383642 40.3231034,38.637931 Z" id="Shape"></path>
                <path d="M1.42522759,19.5796552 C1.36107986,19.579585 1.29710332,19.5730345 1.23427241,19.5601034 C0.99252607,19.509717 0.780699544,19.3653551 0.645397777,19.1587793 C0.51009601,18.9522036 0.462403676,18.700338 0.512813793,18.4585966 C1.29839496,14.6860375 3.0206846,11.17182 5.52103448,8.23965517 C5.85526199,7.84886611 6.44300404,7.80301387 6.8337931,8.13724138 C7.22458217,8.47146889 7.2704344,9.05921094 6.9362069,9.45 C4.63961845,12.1441351 3.05769088,15.3727287 2.33605862,18.8385517 C2.24614415,19.2700407 1.86598519,19.5793595 1.42522759,19.5796552 Z" id="Shape"></path>
                <path d="M6.22862069,38.637931 C5.95637746,38.6383642 5.69767696,38.5192259 5.52103448,38.312069 C3.02071242,35.3799572 1.29842439,31.865807 0.512813793,28.0933138 C0.407866367,27.5899157 0.730874396,27.0967543 1.23427241,26.9918069 C1.73767044,26.8868595 2.23083187,27.2098675 2.33577931,27.7132655 C3.05750776,31.1790826 4.63953176,34.4076449 6.9362069,37.1017241 C7.17243781,37.3779086 7.22636863,37.7663054 7.07432316,38.096404 C6.92227778,38.4265027 6.59205279,38.637955 6.22862069,38.637931 Z" id="Shape"></path>
                <path d="M37.7068966,7.15965517 C37.4851289,7.15983486 37.2706339,7.08056351 37.1022828,6.9362069 C34.4081476,4.63961845 31.1795541,3.05769088 27.713731,2.33605862 C27.3880896,2.26816954 27.1234029,2.03170981 27.0193759,1.71575152 C26.9153489,1.39979322 26.9877856,1.05233795 27.2094,0.804268747 C27.4310144,0.556199544 27.7681379,0.445204015 28.0937793,0.513093103 C31.8660811,1.29869578 35.3800607,3.02088258 38.312069,5.52103448 C38.608335,5.77438991 38.7153965,6.18549219 38.5803436,6.55117405 C38.4452906,6.916856 38.0967203,7.15968515 37.7068966,7.15965517 Z" id="Shape"></path>
                <path d="M8.8452931,7.15965517 C8.45546934,7.15968515 8.10689906,6.916856 7.97184608,6.55117405 C7.83679311,6.18549219 7.94385462,5.77438991 8.24012069,5.52103448 C11.1720997,3.02078198 14.6860816,1.29849796 18.4584103,0.512813793 C18.9618084,0.407866367 19.4549698,0.730874396 19.5599172,1.23427241 C19.6648647,1.73767044 19.3418567,2.23083187 18.8384586,2.33577931 C15.3726415,3.05750776 12.1440793,4.63953176 9.45,6.9362069 C9.28162456,7.08058437 9.0670928,7.15985711 8.8452931,7.15965517 Z" id="Shape"></path>
                <path d="M18.6493655,46.0582759 C18.5852155,46.0582517 18.5212342,46.0517008 18.4584103,46.0387241 C14.6859351,45.2531679 11.1717865,43.5309447 8.23965517,41.0306897 C7.98685901,40.8144824 7.86861084,40.4798334 7.92945376,40.1528019 C7.99029667,39.8257703 8.22098709,39.55604 8.53462617,39.4452157 C8.84826524,39.3343914 9.19720384,39.39931 9.45,39.6155172 C12.1441351,41.9121057 15.3727287,43.4940333 18.8385517,44.2156655 C19.3056554,44.3129313 19.6236321,44.7475689 19.574922,45.2221992 C19.5262117,45.6968294 19.1265817,46.0578207 18.6494586,46.0581828 L18.6493655,46.0582759 Z" id="Shape"></path>
                <path d="M27.9023586,46.0582759 C27.4252356,46.0579138 27.0256055,45.6969225 26.9768953,45.2222923 C26.9281851,44.747662 27.2461618,44.3130244 27.7132655,44.2157586 C31.1790647,43.4940845 34.4076253,41.9121253 37.1017241,39.6155172 C37.3545203,39.39931 37.7034589,39.3343914 38.017098,39.4452157 C38.330737,39.55604 38.5614275,39.8257703 38.6222704,40.1528019 C38.6831133,40.4798334 38.5648651,40.8144824 38.312069,41.0306897 C35.3800033,43.5310649 31.8658852,45.2534169 28.0934069,46.0390966 C28.0305397,46.0519544 27.9665271,46.0583806 27.9023586,46.0582759 Z" id="Shape"></path>
            </g>
            <circle id="Oval" fill="#E64C3C" cx="42.8005862" cy="11.1994138" r="1.86206897"></circle>
            <circle id="Oval" fill="#E64C3C" cx="42.8005862" cy="42.8005862" r="1.86206897"></circle>
            <circle id="Oval" fill="#E64C3C" cx="11.1994138" cy="42.8005862" r="1.86206897"></circle>
            <circle id="Oval" fill="#E64C3C" cx="11.1994138" cy="11.1994138" r="1.86206897"></circle>
            <circle id="Oval" fill="#F3D55B" cx="4.65517241" cy="27" r="4.65517241"></circle>
            <circle id="Oval" fill="#F3D55B" cx="27" cy="49.3448276" r="4.65517241"></circle>
            <circle id="Oval" fill="#F3D55B" cx="49.3448276" cy="27" r="4.65517241"></circle>
            <circle id="Oval" fill="#F3D55B" cx="27" cy="4.65517241" r="4.65517241"></circle>
        </g>
    </g>
</svg>