<?xml version="1.0" encoding="UTF-8"?>
<svg width="73px" height="73px" viewBox="0 0 73 73" version="1.1" xmlns="http://www.w3.org/2000/svg" xmlns:xlink="http://www.w3.org/1999/xlink">
    <!-- Generator: Sketch 51.3 (57544) - http://www.bohemiancoding.com/sketch -->
    <title>databases-and-servers/databases/sql</title>
    <desc>Created with Sketch.</desc>
    <defs></defs>
    <g id="databases-and-servers/databases/sql" stroke="none" stroke-width="1" fill="none" fill-rule="evenodd">
        <g id="container" transform="translate(2.000000, 2.000000)" fill="#FFFFFF" fill-rule="nonzero" stroke="#413E3E" stroke-width="2">
            <rect id="mask" x="-1" y="-1" width="71" height="71" rx="14"></rect>
        </g>
        <g id="algorithm" transform="translate(15.000000, 10.000000)" fill-rule="nonzero">
            <path d="M15.5823124,11.7982806 C15.1468547,11.7982806 14.7940387,11.4450672 14.7940387,11.0100069 L14.7940387,5.3347538 C14.7940387,4.89969342 15.1468547,4.54648006 15.5823124,4.54648006 C16.0177701,4.54648006 16.3705861,4.89969342 16.3705861,5.3347538 L16.3705861,11.0100069 C16.3705861,11.4450672 16.0177701,11.7982806 15.5823124,11.7982806 Z" id="Shape" fill="#838383"></path>
            <path d="M15.5823124,27.5629607 C15.1468547,27.5629607 14.7940387,27.2101446 14.7940387,26.7750843 L14.7940387,16.8175659 C14.7940387,16.3821082 15.1468547,16.0292922 15.5823124,16.0292922 C16.0177701,16.0292922 16.3705861,16.3821082 16.3705861,16.8175659 L16.3705861,26.7750843 C16.3705861,27.2101446 16.0177701,27.5629607 15.5823124,27.5629607 Z" id="Shape" fill="#838383"></path>
            <path d="M15.5823124,34.7305303 C15.1468547,34.7305303 14.7940387,34.3777143 14.7940387,33.942654 L14.7940387,29.401339 C14.7940387,28.9662786 15.1468547,28.6134626 15.5823124,28.6134626 C16.0177701,28.6134626 16.3705861,28.9662786 16.3705861,29.401339 L16.3705861,33.942654 C16.3705861,34.3777143 16.0177701,34.7305303 15.5823124,34.7305303 Z" id="Shape" fill="#838383"></path>
            <path d="M15.5823124,45.5188353 C15.1468547,45.5188353 14.7940387,45.1656218 14.7940387,44.7305615 L14.7940387,42.1734396 L1.31352464,42.1734396 C0.589218752,42.1734396 0,41.5842209 0,40.8595176 L0,14.9168091 C0,14.1925031 0.589218752,13.6032844 1.31352464,13.6032844 L10.1823989,13.6032844 C10.6178565,13.6032844 10.9706726,13.9561005 10.9706726,14.3915582 C10.9706726,14.8266185 10.6178565,15.1794345 10.1823989,15.1794345 L1.57654748,15.1794345 L1.57654748,40.5968921 L15.0566641,40.5968921 C15.7813674,40.5968921 16.3705861,41.1861108 16.3705861,41.9108141 L16.3705861,44.7305615 C16.3705861,45.1660192 16.0177701,45.5188353 15.5823124,45.5188353 Z" id="Shape" fill="#838383"></path>
            <path d="M25.5600938,47.6730793 L23.5631866,47.6730793 C23.2731464,47.6730793 23.0379357,47.4378686 23.0379357,47.1478283 L23.0379357,45.2562097 C23.0379357,44.9657722 23.2731464,44.7305615 23.5631866,44.7305615 L25.5600938,44.7305615 C25.8505314,44.7305615 26.0857421,44.9657722 26.0857421,45.2562097 L26.0857421,47.1478283 C26.0857421,47.4378686 25.8505314,47.6730793 25.5600938,47.6730793 Z" id="Shape" fill="#0396FD"></path>
            <path d="M25.5600938,47.6730793 L24.5616403,47.6730793 L24.5616403,44.7305615 L25.5600938,44.7305615 C25.8505314,44.7305615 26.0857421,44.9657722 26.0857421,45.2558124 L26.0857421,47.147431 C26.0857421,47.4378686 25.8505314,47.6730793 25.5600938,47.6730793 Z" id="Shape" fill="#0077F0"></path>
            <path d="M19.7084327,47.9508028 C19.7084327,50.2294066 17.8609161,52.0769231 15.5823124,52.0769231 C13.3033113,52.0769231 11.456192,50.2294066 11.456192,47.9508028 C11.456192,45.6718017 13.3033113,43.8246824 15.5823124,43.8246824 C17.8609161,43.8246824 19.7084327,45.6718017 19.7084327,47.9508028 Z" id="Shape" fill="#FF5770"></path>
            <path d="M19.70883,47.9504055 C19.70883,50.2298038 17.8613135,52.0765258 15.581915,52.0765258 C14.5226722,52.0765258 13.5567985,51.6772237 12.8253409,51.0200641 C13.0502214,51.0582064 13.2814589,51.0780722 13.5178616,51.0780722 C15.7964654,51.0780722 17.6439819,49.2313503 17.6439819,46.9519518 C17.6439819,45.7329882 17.1151551,44.637987 16.2744358,43.8822931 C18.2240624,44.2124623 19.70883,45.9086016 19.70883,47.9504055 Z" id="Shape" fill="#FF435F"></path>
            <path d="M23.7749558,30.4939564 L7.389669,30.4939564 C7.05711594,30.4939564 6.78733887,30.2241792 6.78733887,29.8916262 L6.78733887,25.8628482 C6.78733887,25.5302951 7.05711594,25.2605179 7.389669,25.2605179 L23.7749558,25.2605179 C24.1075087,25.2605179 24.3768885,25.5302951 24.3768885,25.8628482 L24.3768885,29.8916262 C24.3768885,30.2241792 24.1075087,30.4939564 23.7749558,30.4939564 Z" id="Shape" fill="#64DCFC"></path>
            <path d="M23.7749558,38.3437166 L7.389669,38.3437166 C7.05711594,38.3437166 6.78733887,38.0739394 6.78733887,37.7417837 L6.78733887,33.7126084 C6.78733887,33.3800554 7.05711594,33.1106755 7.389669,33.1106755 L23.7749558,33.1106755 C24.1075087,33.1106755 24.3768885,33.3800554 24.3768885,33.7126084 L24.3768885,37.7417837 C24.3768885,38.0739394 24.1075087,38.3437166 23.7749558,38.3437166 Z" id="Shape" fill="#64DCFC"></path>
            <path d="M23.7749558,30.4939564 L22.3350848,30.4939564 L22.3350848,25.2605179 L23.7749558,25.2605179 C24.1075087,25.2605179 24.3768885,25.5302951 24.3768885,25.8628482 L24.3768885,29.8916262 C24.3768885,30.2241792 24.1075087,30.4939564 23.7749558,30.4939564 Z" id="Shape" fill="#00D1FC"></path>
            <path d="M23.7749558,38.3437166 L22.3350848,38.3437166 L22.3350848,33.1106755 L23.7749558,33.1106755 C24.1075087,33.1106755 24.3768885,33.3800554 24.3768885,33.7126084 L24.3768885,37.7417837 C24.3768885,38.0739394 24.1075087,38.3437166 23.7749558,38.3437166 Z" id="Shape" fill="#00D1FC"></path>
            <path d="M15.4817916,10.1645197 L8.57486084,14.2103824 C8.4361977,14.2914346 8.4361977,14.4916816 8.57486084,14.572734 L15.4817916,18.6185966 L22.388325,14.572734 C22.5269881,14.4916816 22.5269881,14.2914346 22.388325,14.2103824 L15.4817916,10.1645197 Z" id="Shape" fill="#FFD86E"></path>
            <path d="M22.388325,14.5731313 L15.4821889,18.6185966 L13.5178616,17.4675739 L20.7346984,13.2417274 L22.388325,14.2103824 C22.5269881,14.2914346 22.5269881,14.4916816 22.388325,14.5731313 Z" id="Shape" fill="#FFB509"></path>
            <path d="M25.150859,6.13892015 L6.01336849,6.13892015 C5.60016048,6.13892015 5.26522358,5.80398325 5.26522358,5.39077524 L5.26522358,0.748144909 C5.26522358,0.334936901 5.60016048,0 6.01336849,0 L25.150859,0 C25.564067,0 25.8994011,0.334936901 25.8994011,0.748144909 L25.8994011,5.39077524 C25.8994011,5.80398325 25.564067,6.13892015 25.150859,6.13892015 Z" id="Shape" fill="#0396FD"></path>
            <path d="M25.150859,6.13892015 L23.3156592,6.13892015 L23.3156592,0 L25.150859,0 C25.564067,0 25.8994011,0.334936901 25.8994011,0.748144909 L25.8994011,5.39077524 C25.8994011,5.80398325 25.564067,6.13892015 25.150859,6.13892015 Z" id="Shape" fill="#0077F0"></path>
            <path d="M25.5600938,21.5444271 L23.5631866,21.5444271 C23.2731464,21.5444271 23.0379357,21.3092164 23.0379357,21.0187789 L23.0379357,19.1271603 C23.0379357,18.8371201 23.2731464,18.6019094 23.5631866,18.6019094 L25.5600938,18.6019094 C25.8505314,18.6019094 26.0857421,18.8371201 26.0857421,19.1271603 L26.0857421,21.0187789 C26.0857421,21.3092164 25.8505314,21.5444271 25.5600938,21.5444271 Z" id="Shape" fill="#0396FD"></path>
            <path d="M25.5600938,21.5444271 L24.5616403,21.5444271 L24.5616403,18.6019094 L25.5600938,18.6019094 C25.8505314,18.6019094 26.0857421,18.8371201 26.0857421,19.1271603 L26.0857421,21.0187789 C26.0857421,21.3092164 25.8505314,21.5444271 25.5600938,21.5444271 Z" id="Shape" fill="#0077F0"></path>
            <g id="Group" transform="translate(27.971004, 18.918570)" fill="#838383">
                <path d="M4.49045861,4.25485051 L0.847076416,4.25485051 C0.411618746,4.25485051 0.058802678,3.90163715 0.058802678,3.46657677 C0.058802678,3.03151649 0.411618746,2.67830303 0.847076416,2.67830303 L4.49045861,2.67830303 C4.92551889,2.67830303 5.27833496,3.03151649 5.27833496,3.46657677 C5.27833496,3.90163715 4.92551889,4.25485051 4.49045861,4.25485051 Z" id="Shape"></path>
                <path d="M13.4582643,4.25485051 L6.47624089,4.25485051 C6.04118051,4.25485051 5.68836444,3.90163715 5.68836444,3.46657677 C5.68836444,3.03151649 6.04118051,2.67830303 6.47624089,2.67830303 L13.4582643,2.67830303 C13.8937219,2.67830303 14.246538,3.03151649 14.246538,3.46657677 C14.246538,3.90163715 13.8937219,4.25485051 13.4582643,4.25485051 Z" id="Shape"></path>
                <path d="M2.39899039,1.6583945 L0.847076416,1.6583945 C0.411618746,1.6583945 0.058802678,1.30557843 0.058802678,0.87012076 C0.058802678,0.43506038 0.411618746,0.0822443116 0.847076416,0.0822443116 L2.39899039,0.0822443116 C2.83444806,0.0822443116 3.18726413,0.43506038 3.18726413,0.87012076 C3.18726413,1.30557843 2.83444806,1.6583945 2.39899039,1.6583945 Z" id="Shape"></path>
                <path d="M13.3863502,1.6583945 L10.9031289,1.6583945 C10.4676713,1.6583945 10.1148552,1.30557843 10.1148552,0.87012076 C10.1148552,0.43506038 10.4676713,0.0822443116 10.9031289,0.0822443116 L13.3863502,0.0822443116 C13.8218079,0.0822443116 14.1746239,0.43506038 14.1746239,0.87012076 C14.1746239,1.30557843 13.8218079,1.6583945 13.3863502,1.6583945 Z" id="Shape"></path>
                <path d="M8.93880164,1.6583945 L4.2965687,1.6583945 C3.86150832,1.6583945 3.50829496,1.30557843 3.50829496,0.87012076 C3.50829496,0.43506038 3.86150832,0.0822443116 4.2965687,0.0822443116 L8.93880164,0.0822443116 C9.37386202,0.0822443116 9.72707538,0.43506038 9.72707538,0.87012076 C9.72707538,1.30557843 9.37386202,1.6583945 8.93880164,1.6583945 Z" id="Shape"></path>
                <path d="M4.49045861,30.3835027 L0.847076416,30.3835027 C0.411618746,30.3835027 0.058802678,30.0306866 0.058802678,29.5952289 C0.058802678,29.1601685 0.411618746,28.8073525 0.847076416,28.8073525 L4.49045861,28.8073525 C4.92551889,28.8073525 5.27833496,29.1601685 5.27833496,29.5952289 C5.27833496,30.0306866 4.92551889,30.3835027 4.49045861,30.3835027 Z" id="Shape"></path>
                <path d="M13.4582643,30.3835027 L6.47624089,30.3835027 C6.04118051,30.3835027 5.68836444,30.0306866 5.68836444,29.5952289 C5.68836444,29.1601685 6.04118051,28.8073525 6.47624089,28.8073525 L13.4582643,28.8073525 C13.8937219,28.8073525 14.246538,29.1601685 14.246538,29.5952289 C14.246538,30.0306866 13.8937219,30.3835027 13.4582643,30.3835027 Z" id="Shape"></path>
                <path d="M2.39899039,27.7870466 L0.847076416,27.7870466 C0.411618746,27.7870466 0.058802678,27.4342305 0.058802678,26.9991701 C0.058802678,26.5637124 0.411618746,26.2108964 0.847076416,26.2108964 L2.39899039,26.2108964 C2.83444806,26.2108964 3.18726413,26.5637124 3.18726413,26.9991701 C3.18726413,27.4342305 2.83444806,27.7870466 2.39899039,27.7870466 Z" id="Shape"></path>
                <path d="M13.3863502,27.7870466 L10.9031289,27.7870466 C10.4676713,27.7870466 10.1148552,27.4342305 10.1148552,26.9991701 C10.1148552,26.5637124 10.4676713,26.2108964 10.9031289,26.2108964 L13.3863502,26.2108964 C13.8218079,26.2108964 14.1746239,26.5637124 14.1746239,26.9991701 C14.1746239,27.4342305 13.8218079,27.7870466 13.3863502,27.7870466 Z" id="Shape"></path>
                <path d="M8.93880164,27.7870466 L4.2965687,27.7870466 C3.86150832,27.7870466 3.50829496,27.4342305 3.50829496,26.9991701 C3.50829496,26.5637124 3.86150832,26.2108964 4.2965687,26.2108964 L8.93880164,26.2108964 C9.37386202,26.2108964 9.72707538,26.5637124 9.72707538,26.9991701 C9.72707538,27.4342305 9.37386202,27.7870466 8.93880164,27.7870466 Z" id="Shape"></path>
            </g>
        </g>
    </g>
</svg>