<?xml version="1.0" encoding="UTF-8"?>
<svg width="73px" height="73px" viewBox="0 0 73 73" version="1.1" xmlns="http://www.w3.org/2000/svg" xmlns:xlink="http://www.w3.org/1999/xlink">
    <!-- Generator: Sketch 51.3 (57544) - http://www.bohemiancoding.com/sketch -->
    <title>databases-and-servers/databases/tables</title>
    <desc>Created with Sketch.</desc>
    <defs>
        <rect id="path-1" x="0" y="0" width="69" height="69" rx="14"></rect>
    </defs>
    <g id="databases-and-servers/databases/tables" stroke="none" stroke-width="1" fill="none" fill-rule="evenodd">
        <g id="container" transform="translate(2.000000, 2.000000)">
            <mask id="mask-2" fill="white">
                <use xlink:href="#path-1"></use>
            </mask>
            <rect stroke="#4A2E1B" stroke-width="2" x="-1" y="-1" width="71" height="71" rx="14"></rect>
        </g>
        <g id="desk" transform="translate(13.000000, 13.000000)" fill-rule="nonzero">
            <path d="M18.637931,0 L15.3965517,0 C14.9490107,0 14.5862069,0.362803737 14.5862069,0.810344828 C14.5862069,0.362803737 14.2234031,0 13.7758621,0 L10.5344828,0 C10.0869417,0 9.72413793,0.362803737 9.72413793,0.810344828 L9.72413793,12.1551724 L19.4482759,12.1551724 L19.4482759,0.810344828 C19.4482759,0.362803737 19.0854721,0 18.637931,0 Z" id="Shape" fill="#F0C419"></path>
            <polygon id="Rectangle-path" fill="#805333" points="5.67241379 21.0689655 41.3275862 21.0689655 41.3275862 30.7931034 5.67241379 30.7931034"></polygon>
            <g id="Group" transform="translate(10.534483, 25.120690)" fill="#603E26">
                <circle id="Oval" cx="0.810344828" cy="0.810344828" r="1"></circle>
                <circle id="Oval" cx="5.67241379" cy="0.810344828" r="1"></circle>
                <circle id="Oval" cx="10.5344828" cy="0.810344828" r="1"></circle>
                <circle id="Oval" cx="15.3965517" cy="0.810344828" r="1"></circle>
                <circle id="Oval" cx="20.2586207" cy="0.810344828" r="1"></circle>
                <circle id="Oval" cx="25.1206897" cy="0.810344828" r="1"></circle>
            </g>
            <polygon id="Rectangle-path" fill="#7F6E5D" points="3.24137931 15.2587931 6.48275862 15.2587931 6.48275862 44.6986207 3.24137931 44.6986207"></polygon>
            <polygon id="Rectangle-path" fill="#7F6E5D" transform="translate(42.137931, 29.986810) rotate(-180.000000) translate(-42.137931, -29.986810) " points="40.5172414 15.2668966 43.7586207 15.2668966 43.7586207 44.7067241 40.5172414 44.7067241"></polygon>
            <rect id="Rectangle-path" fill="#805333" x="0" y="11.3448276" width="47" height="4.86206897" rx="1"></rect>
            <rect id="Rectangle-path" fill="#805333" x="0" y="43.7586207" width="9.72413793" height="3.24137931" rx="1"></rect>
            <polygon id="Rectangle-path" fill="#5F5346" points="3.24137931 16.2068966 6.48275862 16.2068966 6.48275862 19.4482759 3.24137931 19.4482759"></polygon>
            <polygon id="Rectangle-path" fill="#5F5346" transform="translate(42.137931, 17.827586) rotate(-180.000000) translate(-42.137931, -17.827586) " points="40.5172414 16.2068966 43.7586207 16.2068966 43.7586207 19.4482759 40.5172414 19.4482759"></polygon>
            <rect id="Rectangle-path" fill="#805333" transform="translate(42.137931, 45.379310) rotate(-180.000000) translate(-42.137931, -45.379310) " x="37.2758621" y="43.7586207" width="9.72413793" height="3.24137931" rx="1"></rect>
            <path d="M14.5862069,0.810344828 L14.5862069,11.3448276 L9.72413793,11.3448276 L9.72413793,0.810344828 C9.72413793,0.362803737 10.0869417,0 10.5344828,0 L13.7758621,0 C14.2234031,0 14.5862069,0.362803737 14.5862069,0.810344828 Z" id="Shape" fill="#DF4D60"></path>
            <polygon id="Rectangle-path" fill="#802D40" points="9.72413793 2.43103448 14.5862069 2.43103448 14.5862069 4.05172414 9.72413793 4.05172414"></polygon>
            <polygon id="Rectangle-path" fill="#F29C1F" points="14.5862069 2.43103448 19.4482759 2.43103448 19.4482759 4.05172414 14.5862069 4.05172414"></polygon>
            <path d="M38.0862069,9.72413793 L37.2758621,9.72413793 L37.2758621,6.48275862 L38.0862069,6.48275862 C38.5337479,6.48275862 38.8965517,6.11995488 38.8965517,5.67241379 C38.8965517,5.2248727 38.5337479,4.86206897 38.0862069,4.86206897 L22.6896552,4.86206897 C20.8994908,4.86206897 19.4482759,6.31328391 19.4482759,8.10344828 C19.4482759,9.89361264 20.8994908,11.3448276 22.6896552,11.3448276 L38.0862069,11.3448276 C38.5337479,11.3448276 38.8965517,10.9820238 38.8965517,10.5344828 C38.8965517,10.0869417 38.5337479,9.72413793 38.0862069,9.72413793 Z" id="Shape" fill="#C03A2B"></path>
            <path d="M21.0689655,8.10344828 C21.1340084,7.1502227 21.954622,6.42721511 22.9084483,6.48275862 L38.0862069,6.48275862 L38.0862069,9.72413793 L22.9084483,9.72413793 C21.954622,9.77968148 21.1340084,9.05667383 21.0689655,8.10344828 Z" id="Shape" fill="#F9EAB0"></path>
        </g>
    </g>
</svg>