<?xml version="1.0" encoding="UTF-8"?>
<svg width="73px" height="73px" viewBox="0 0 73 73" version="1.1" xmlns="http://www.w3.org/2000/svg" xmlns:xlink="http://www.w3.org/1999/xlink">
    <!-- Generator: Sketch 51.3 (57544) - http://www.bohemiancoding.com/sketch -->
    <title>databases-and-servers/databases/transactions</title>
    <desc>Created with Sketch.</desc>
    <defs></defs>
    <g id="databases-and-servers/databases/transactions" stroke="none" stroke-width="1" fill="none" fill-rule="evenodd">
        <g id="container" transform="translate(2.000000, 2.000000)" fill="#FFFFFF" fill-rule="nonzero" stroke="#303033" stroke-width="2">
            <rect id="mask" x="-1" y="-1" width="71" height="71" rx="14"></rect>
        </g>
        <g id="cashier" transform="translate(15.000000, 15.000000)" fill-rule="nonzero">
            <path d="M41.5754483,11.3793103 L40.3351034,11.3793103 C39.8450345,11.3793103 39.4482759,10.9825517 39.4482759,10.4932414 L39.4482759,5.4377931 C39.4482759,4.94848276 39.0515172,4.55172414 38.5622069,4.55172414 L22.1274483,4.55172414 C21.6381379,4.55172414 21.2413793,4.94848276 21.2413793,5.4377931 L21.2413793,10.4932414 C21.2413793,10.9825517 20.8446207,11.3793103 20.3553103,11.3793103 L12.137931,11.3793103 L12.137931,9.10344828 L9.10344828,9.10344828 L9.10344828,11.3793103 L2.42455172,11.3793103 C1.92386207,11.3793103 1.51724138,11.785931 1.51724138,12.2866207 L1.51724138,33.9884828 C1.51724138,34.489931 1.92386207,34.8965517 2.42455172,34.8965517 L41.5746897,34.8965517 C42.0761379,34.8965517 42.4827586,34.489931 42.4827586,33.9892414 L42.4827586,12.2866207 C42.4827586,11.785931 42.0761379,11.3793103 41.5754483,11.3793103 Z" id="Shape" fill="#ECF0F1"></path>
            <path d="M21.2413793,10.4932414 C21.2413793,10.9825517 20.8446207,11.3793103 20.3553103,11.3793103 L12.137931,11.3793103 L12.137931,9.10344828 L9.10344828,9.10344828 L9.10344828,11.3793103 L2.42455172,11.3793103 C1.92386207,11.3793103 1.51724138,11.785931 1.51724138,12.2866207 L1.51724138,33.9884828 C1.51724138,34.489931 1.92386207,34.8965517 2.42455172,34.8965517 L21.2413793,34.8965517 L21.2413793,10.4932414 Z" id="Shape" fill="#BDC3C7"></path>
            <rect id="Rectangle-path" fill="#6D6D6E" x="0" y="37.9310345" width="44" height="6.06896552"></rect>
            <path d="M14.4137931,41.7241379 L3.79310345,41.7241379 C3.37434483,41.7241379 3.03448276,41.3850345 3.03448276,40.9655172 C3.03448276,40.546 3.37434483,40.2068966 3.79310345,40.2068966 L14.4137931,40.2068966 C14.8325517,40.2068966 15.1724138,40.546 15.1724138,40.9655172 C15.1724138,41.3850345 14.8325517,41.7241379 14.4137931,41.7241379 Z" id="Shape" fill="#ECF0F1"></path>
            <path d="M40.9655172,41.7241379 L40.2068966,41.7241379 C39.7881379,41.7241379 39.4482759,41.3850345 39.4482759,40.9655172 C39.4482759,40.546 39.7881379,40.2068966 40.2068966,40.2068966 L40.9655172,40.2068966 C41.3842759,40.2068966 41.7241379,40.546 41.7241379,40.9655172 C41.7241379,41.3850345 41.3842759,41.7241379 40.9655172,41.7241379 Z" id="Shape" fill="#ECF0F1"></path>
            <rect id="Rectangle-path" fill="#94B571" x="23.5172414" y="6.82758621" width="13.6551724" height="8.34482759"></rect>
            <rect id="Rectangle-path" fill="#8B8A8B" x="3.03448276" y="34.8965517" width="37.9310345" height="3.03448276"></rect>
            <rect id="Rectangle-path" fill="#F29C1F" x="23.5172414" y="18.2068966" width="3.03448276" height="3.03448276"></rect>
            <rect id="Rectangle-path" fill="#F29C1F" x="28.8275862" y="18.2068966" width="3.03448276" height="3.03448276"></rect>
            <rect id="Rectangle-path" fill="#F29C1F" x="34.137931" y="18.2068966" width="3.03448276" height="3.03448276"></rect>
            <rect id="Rectangle-path" fill="#F29C1F" x="23.5172414" y="23.5172414" width="3.03448276" height="3.03448276"></rect>
            <rect id="Rectangle-path" fill="#F29C1F" x="28.8275862" y="23.5172414" width="3.03448276" height="3.03448276"></rect>
            <rect id="Rectangle-path" fill="#F29C1F" x="34.137931" y="23.5172414" width="3.03448276" height="3.03448276"></rect>
            <rect id="Rectangle-path" fill="#F29C1F" x="23.5172414" y="28.8275862" width="3.03448276" height="3.03448276"></rect>
            <rect id="Rectangle-path" fill="#F29C1F" x="28.8275862" y="28.8275862" width="3.03448276" height="3.03448276"></rect>
            <rect id="Rectangle-path" fill="#71C285" x="34.137931" y="28.8275862" width="3.03448276" height="3.03448276"></rect>
            <path d="M18.2068966,30.3448276 L4.55172414,30.3448276 C4.13296552,30.3448276 3.79310345,30.0057241 3.79310345,29.5862069 C3.79310345,29.1666897 4.13296552,28.8275862 4.55172414,28.8275862 L18.2068966,28.8275862 C18.6256552,28.8275862 18.9655172,29.1666897 18.9655172,29.5862069 C18.9655172,30.0057241 18.6256552,30.3448276 18.2068966,30.3448276 Z" id="Shape" fill="#6D6D6E"></path>
            <rect id="Rectangle-path" fill="#F0EDE0" x="6.06896552" y="15.9310345" width="10.6206897" height="13.6551724"></rect>
            <path d="M12.137931,27.3103448 L8.34482759,27.3103448 C7.92606897,27.3103448 7.5862069,26.9712414 7.5862069,26.5517241 C7.5862069,26.1322069 7.92606897,25.7931034 8.34482759,25.7931034 L12.137931,25.7931034 C12.5566897,25.7931034 12.8965517,26.1322069 12.8965517,26.5517241 C12.8965517,26.9712414 12.5566897,27.3103448 12.137931,27.3103448 Z" id="Shape" fill="#D4C3A5"></path>
            <path d="M14.4137931,27.3103448 C14.2165517,27.3103448 14.0193103,27.2268966 13.8751724,27.0903448 C13.7386207,26.9462069 13.6551724,26.7489655 13.6551724,26.5517241 C13.6551724,26.3544828 13.7386207,26.1564828 13.8751724,26.0131034 C14.1634483,25.7324138 14.6717241,25.7324138 14.9524138,26.0131034 C15.0889655,26.1564828 15.1724138,26.3544828 15.1724138,26.5517241 C15.1724138,26.7489655 15.0889655,26.9462069 14.9524138,27.0903448 C14.8082759,27.2268966 14.6110345,27.3103448 14.4137931,27.3103448 Z" id="Shape" fill="#D4C3A5"></path>
            <path d="M14.4137931,19.7241379 L10.6206897,19.7241379 C10.201931,19.7241379 9.86206897,19.3850345 9.86206897,18.9655172 C9.86206897,18.546 10.201931,18.2068966 10.6206897,18.2068966 L14.4137931,18.2068966 C14.8325517,18.2068966 15.1724138,18.546 15.1724138,18.9655172 C15.1724138,19.3850345 14.8325517,19.7241379 14.4137931,19.7241379 Z" id="Shape" fill="#D4C3A5"></path>
            <path d="M29.5862069,9.86206897 L25.7931034,9.86206897 C25.3743448,9.86206897 25.0344828,9.52296552 25.0344828,9.10344828 C25.0344828,8.68393103 25.3743448,8.34482759 25.7931034,8.34482759 L29.5862069,8.34482759 C30.0049655,8.34482759 30.3448276,8.68393103 30.3448276,9.10344828 C30.3448276,9.52296552 30.0049655,9.86206897 29.5862069,9.86206897 Z" id="Shape" fill="#70845A"></path>
            <path d="M29.5862069,12.8965517 L25.7931034,12.8965517 C25.3743448,12.8965517 25.0344828,12.5574483 25.0344828,12.137931 C25.0344828,11.7184138 25.3743448,11.3793103 25.7931034,11.3793103 L29.5862069,11.3793103 C30.0049655,11.3793103 30.3448276,11.7184138 30.3448276,12.137931 C30.3448276,12.5574483 30.0049655,12.8965517 29.5862069,12.8965517 Z" id="Shape" fill="#70845A"></path>
            <path d="M14.4137931,23.5172414 L13.6551724,23.5172414 C13.2364138,23.5172414 12.8965517,23.1781379 12.8965517,22.7586207 C12.8965517,22.3391034 13.2364138,22 13.6551724,22 L14.4137931,22 C14.8325517,22 15.1724138,22.3391034 15.1724138,22.7586207 C15.1724138,23.1781379 14.8325517,23.5172414 14.4137931,23.5172414 Z" id="Shape" fill="#D4C3A5"></path>
            <path d="M9.10344828,23.5172414 L8.34482759,23.5172414 C7.92606897,23.5172414 7.5862069,23.1781379 7.5862069,22.7586207 C7.5862069,22.3391034 7.92606897,22 8.34482759,22 L9.10344828,22 C9.5222069,22 9.86206897,22.3391034 9.86206897,22.7586207 C9.86206897,23.1781379 9.5222069,23.5172414 9.10344828,23.5172414 Z" id="Shape" fill="#D4C3A5"></path>
            <path d="M8.34482759,19.7241379 C8.14758621,19.7241379 7.95034483,19.6406897 7.8062069,19.5041379 C7.66965517,19.36 7.5862069,19.1703448 7.5862069,18.9655172 C7.5862069,18.7682759 7.66965517,18.5702759 7.8062069,18.4268966 C8.08689655,18.1462069 8.59517241,18.1462069 8.88344828,18.4268966 C9.02,18.5702759 9.10344828,18.7682759 9.10344828,18.9655172 C9.10344828,19.1703448 9.02,19.36 8.88344828,19.5041379 C8.73931034,19.6406897 8.54206897,19.7241379 8.34482759,19.7241379 Z" id="Shape" fill="#D4C3A5"></path>
            <path d="M11.3793103,23.5172414 C11.182069,23.5172414 10.9848276,23.4337931 10.8406897,23.2972414 C10.7041379,23.1531034 10.6206897,22.9558621 10.6206897,22.7586207 C10.6206897,22.5530345 10.7041379,22.3633793 10.8406897,22.22 C11.1289655,21.9393103 11.6296552,21.9393103 11.917931,22.22 C12.0544828,22.3633793 12.137931,22.5613793 12.137931,22.7586207 C12.137931,22.9558621 12.0544828,23.1531034 11.917931,23.2972414 C11.7737931,23.4337931 11.5765517,23.5172414 11.3793103,23.5172414 Z" id="Shape" fill="#D4C3A5"></path>
            <rect id="Rectangle-path" fill="#ECF0F1" x="2.27586207" y="0" width="16.6896552" height="9.86206897"></rect>
            <rect id="Rectangle-path" fill="#94B571" x="3.79310345" y="1.51724138" width="13.6551724" height="6.82758621"></rect>
            <g id="Group" transform="translate(4.551724, 2.275862)" fill="#70845A">
                <path d="M1.80703448,0.0584137931 C1.62193103,-0.0182068966 1.41255172,-0.0182068966 1.22744828,0.0584137931 C1.13413793,0.0971034483 1.05068966,0.152482759 0.980137931,0.223034483 L0.222275862,0.980896552 C-0.0743448276,1.27751724 -0.0743448276,1.75696552 0.222275862,2.05358621 C0.370206897,2.20151724 0.564413793,2.27586207 0.75862069,2.27586207 L0.75862069,4.55172414 C0.75862069,4.97124138 1.09848276,5.31034483 1.51724138,5.31034483 C1.936,5.31034483 2.27586207,4.97124138 2.27586207,4.55172414 L2.27586207,0.75862069 C2.27586207,0.66 2.25537931,0.56137931 2.21744828,0.468827586 C2.14082759,0.282965517 1.99289655,0.135034483 1.80703448,0.0584137931 Z" id="Shape"></path>
                <path d="M8.63462069,0.0584137931 C8.44951724,-0.0182068966 8.24013793,-0.0182068966 8.05503448,0.0584137931 C7.96172414,0.0971034483 7.87827586,0.152482759 7.80772414,0.223034483 L7.04986207,0.980896552 C6.75324138,1.27751724 6.75324138,1.75696552 7.04986207,2.05358621 C7.1977931,2.20151724 7.392,2.27586207 7.5862069,2.27586207 L7.5862069,4.55172414 C7.5862069,4.97124138 7.92606897,5.31034483 8.34482759,5.31034483 C8.76358621,5.31034483 9.10344828,4.97124138 9.10344828,4.55172414 L9.10344828,0.75862069 C9.10344828,0.66 9.08296552,0.56137931 9.04503448,0.468827586 C8.96841379,0.282965517 8.82048276,0.135034483 8.63462069,0.0584137931 Z" id="Shape"></path>
                <path d="M4.774,3.25675862 L4.01537931,4.01537931 C3.71875862,4.312 3.71875862,4.79144828 4.01537931,5.08806897 C4.16331034,5.236 4.35751724,5.31034483 4.55172414,5.31034483 C4.74593103,5.31034483 4.94013793,5.236 5.08806897,5.08806897 L5.84668966,4.32944828 C6.14331034,4.03282759 6.14331034,3.55337931 5.84668966,3.25675862 C5.55006897,2.96013793 5.07062069,2.96013793 4.774,3.25675862 Z" id="Shape"></path>
                <path d="M12.0795172,0.468827586 C12.0028966,0.282965517 11.8549655,0.135034483 11.6691034,0.0584137931 C11.484,-0.0182068966 11.2746207,-0.0182068966 11.0895172,0.0584137931 C10.9962069,0.0971034483 10.9127586,0.152482759 10.8422069,0.223034483 L10.0843448,0.980896552 C9.78772414,1.27751724 9.78772414,1.75696552 10.0843448,2.05358621 C10.2322759,2.20151724 10.4264828,2.27586207 10.6206897,2.27586207 L10.6206897,4.55172414 C10.6206897,4.97124138 10.9605517,5.31034483 11.3793103,5.31034483 C11.798069,5.31034483 12.137931,4.97124138 12.137931,4.55172414 L12.137931,0.75862069 C12.137931,0.66 12.1174483,0.56137931 12.0795172,0.468827586 Z" id="Shape"></path>
            </g>
        </g>
    </g>
</svg>