<?xml version="1.0" encoding="UTF-8"?>
<svg width="73px" height="73px" viewBox="0 0 73 73" version="1.1" xmlns="http://www.w3.org/2000/svg" xmlns:xlink="http://www.w3.org/1999/xlink">
    <!-- Generator: Sketch 51.3 (57544) - http://www.bohemiancoding.com/sketch -->
    <title>progressive-webapps/rendering-performance/heap</title>
    <desc>Created with Sketch.</desc>
    <defs></defs>
    <g id="progressive-webapps/rendering-performance/heap" stroke="none" stroke-width="1" fill="none" fill-rule="evenodd">
        <g id="container" transform="translate(2.000000, 2.000000)" fill-rule="nonzero">
            <rect id="mask" stroke="#2C576A" stroke-width="2" fill="#FFFFFF" x="-1" y="-1" width="71" height="71" rx="14"></rect>
            <g id="Group-3" transform="translate(9.000000, 10.000000)">
                <g id="plate" transform="translate(4.000000, 0.000000)">
                    <path d="M42,21.0051727 C42,32.5766602 32.6190491,41.957611 21.0475617,41.957611 C9.47566226,41.957611 0.0951233437,32.5766602 0.0951233437,21.0051727 C0.0951233437,9.43327329 9.47566226,0.052734375 21.0475617,0.052734375 C32.6190491,0.052734375 42,9.43327329 42,21.0051727 Z" id="Shape" fill="#B4E7FD"></path>
                    <path d="M32.6264648,21.0051727 C32.6264648,27.4000397 27.4424286,32.5840759 21.0475617,32.5840759 C14.6526947,32.5840759 9.4686585,27.4000397 9.4686585,21.0051727 C9.4686585,14.6103058 14.6526947,9.42626953 21.0475617,9.42626953 C27.4424286,9.42626953 32.6264648,14.6103058 32.6264648,21.0051727 Z" id="Shape" fill="#93DCFC"></path>
                    <path d="M35.1317596,5.49220279 C38.5112915,9.21286005 40.571228,14.1542358 40.571228,19.5764007 C40.571228,31.1483001 31.1906891,40.5288392 19.6187897,40.5288392 C14.1966247,40.5288392 9.25524902,38.4689026 5.53459165,35.0893708 C9.36772153,39.3085327 14.8982391,41.957611 21.0475617,41.957611 C32.6194611,41.957611 42,32.5766602 42,21.0051727 C42,14.8558502 39.3509216,9.32533267 35.1317596,5.49220279 Z" id="Shape" fill="#93DCFC"></path>
                </g>
                <g id="Group" transform="translate(2.000000, 14.000000)" fill="#FFFFFF">
                    <polygon id="Path-10" points="24.4970386 30.4219155 17.7140788 17.5459395 0.450997418 7.73514134 2.35475148 27.6476509 24.4970386 35.2097232"></polygon>
                    <polyline id="Path-4" points="46.1986491 2.38875823 32.9723071 3.90356451 23.1986491 12.8847176 9.01643698 26.4188256 8 24.5441954 20.6004042 12.8847176 32.9723071 0 48.2234581 0.949462453"></polyline>
                </g>
                <g id="Group-2" transform="translate(0.000000, 26.000000)">
                    <path d="M16.0486241,11.3682436 L21.982251,18.729686 C19.1389113,19.5721276 16.278636,19.5721276 13.4014251,18.729686 C10.5242142,17.8872445 8.3830482,16.4228326 6.97792704,14.3364503 L16.0486241,11.3682436 Z" id="Path-5" fill="#B4E7FD" transform="translate(14.480089, 15.364880) rotate(-32.000000) translate(-14.480089, -15.364880) "></path>
                    <polygon id="Path-6" fill="#93DCFC" points="9.25206972 13.1044732 7 16.3758539 7 12"></polygon>
                    <polygon id="Path-7" fill="#93DCFC" points="9.37632186 9.19553339 9.37632186 5.18795275 4 0 4 6.14540283"></polygon>
                    <polygon id="Path-8" fill="#B4E7FD" points="16.5530145 6 16.5530145 8.78652527 14 7.39326264 15.2765072 6"></polygon>
                    <polygon id="Path-9" fill="#93DCFC" points="2.09713892 8 0 15.7470976 3.90280729 13.9269393"></polygon>
                </g>
            </g>
        </g>
    </g>
</svg>