<?xml version="1.0" encoding="UTF-8"?>
<svg width="73px" height="73px" viewBox="0 0 73 73" version="1.1" xmlns="http://www.w3.org/2000/svg" xmlns:xlink="http://www.w3.org/1999/xlink">
    <!-- Generator: Sketch 51.3 (57544) - http://www.bohemiancoding.com/sketch -->
    <title>progressive-webapps/rendering-performance/microtask</title>
    <desc>Created with Sketch.</desc>
    <defs></defs>
    <g id="progressive-webapps/rendering-performance/microtask" stroke="none" stroke-width="1" fill="none" fill-rule="evenodd">
        <g id="container" transform="translate(2.000000, 2.000000)" fill="#FFFFFF" fill-rule="nonzero" stroke="#9A7939" stroke-width="2">
            <rect id="mask" x="-1" y="-1" width="71" height="71" rx="14"></rect>
        </g>
        <g id="completed-task" transform="translate(15.000000, 15.000000)" fill-rule="nonzero">
            <path d="M2.6875,1.34375 L32.25,1.34375 C33.7341614,1.34375 34.9375,2.54708862 34.9375,4.03125 L34.9375,40.3125 C34.9375,41.7966614 33.7341614,43 32.25,43 L2.6875,43 C1.20333862,43 0,41.7966614 0,40.3125 L0,4.03125 C0,2.54708862 1.20333862,1.34375 2.6875,1.34375 Z" id="Shape" fill="#ECCE93"></path>
            <polygon id="Shape" fill="#EFEFEF" points="2.6875 31.4626465 2.6875 4.03125 32.25 4.03125 32.25 40.3125 11.5373535 40.3125"></polygon>
            <polygon id="Shape" fill="#E76E54" points="11.5373535 31.4626465 11.5373535 40.3125 2.6875 31.4626465"></polygon>
            <path d="M10.75,5.375 L10.75,0 L24.1875,0 L24.1875,5.375 C24.1875,6.85916138 22.9841614,8.0625 21.5,8.0625 L13.4375,8.0625 C11.9533386,8.0625 10.75,6.85916138 10.75,5.375 Z" id="Shape" fill="#E76E54"></path>
            <path d="M43,30.90625 C43,37.5853043 37.5853043,43 30.90625,43 C24.2271957,43 18.8125,37.5853043 18.8125,30.90625 C18.8125,24.2271957 24.2271957,18.8125 30.90625,18.8125 C37.5853043,18.8125 43,24.2271957 43,30.90625 Z" id="Shape" fill="#48C8EF"></path>
            <path d="M28.1354217,36.0837555 L25.53125,33.4782715 C25.0066757,32.9533691 25.0066757,32.1026993 25.53125,31.578125 C26.0558243,31.0535507 26.9064941,31.0535507 27.4313965,31.578125 L28.3020783,32.4474945 L34.3879928,27.3749695 C34.9581681,26.8992767 35.8062134,26.9763717 36.28125,27.546875 C36.7569427,28.1170501 36.6798477,28.9650955 36.1093445,29.4401322 L28.1354217,36.0837555 Z" id="Shape" fill="#FFFFFF"></path>
            <g id="Group" transform="translate(8.062500, 10.750000)" fill="#77959E">
                <path d="M6.71875,0 L17.46875,0 C18.2108307,0 18.8125,0.60166927 18.8125,1.34375 C18.8125,2.08583073 18.2108307,2.6875 17.46875,2.6875 L6.71875,2.6875 C5.97666927,2.6875 5.375,2.08583073 5.375,1.34375 C5.375,0.60166927 5.97666927,0 6.71875,0 Z" id="Shape"></path>
                <polygon id="Shape" points="0 0 2.6875 0 2.6875 2.6875 0 2.6875"></polygon>
                <polygon id="Shape" points="0 5.375 2.6875 5.375 2.6875 8.0625 0 8.0625"></polygon>
                <polygon id="Shape" points="0 10.75 2.6875 10.75 2.6875 13.4375 0 13.4375"></polygon>
                <polygon id="Shape" points="0 16.125 2.6875 16.125 2.6875 18.8125 0 18.8125"></polygon>
                <path d="M6.71875,5.375 L14.78125,5.375 C15.5233307,5.375 16.125,5.97666927 16.125,6.71875 C16.125,7.46083073 15.5233307,8.0625 14.78125,8.0625 L6.71875,8.0625 C5.97666927,8.0625 5.375,7.46083073 5.375,6.71875 C5.375,5.97666927 5.97666927,5.375 6.71875,5.375 Z" id="Shape"></path>
                <path d="M6.71875,10.75 L9.40625,10.75 C10.1483307,10.75 10.75,11.3516693 10.75,12.09375 C10.75,12.8358307 10.1483307,13.4375 9.40625,13.4375 L6.71875,13.4375 C5.97666927,13.4375 5.375,12.8358307 5.375,12.09375 C5.375,11.3516693 5.97666927,10.75 6.71875,10.75 Z" id="Shape"></path>
            </g>
        </g>
    </g>
</svg>