<?xml version="1.0" encoding="UTF-8"?>
<svg width="73px" height="73px" viewBox="0 0 73 73" version="1.1" xmlns="http://www.w3.org/2000/svg" xmlns:xlink="http://www.w3.org/1999/xlink">
    <!-- Generator: Sketch 51.3 (57544) - http://www.bohemiancoding.com/sketch -->
    <title>progressive-webapps/rendering-performance/rail-model</title>
    <desc>Created with Sketch.</desc>
    <defs></defs>
    <g id="progressive-webapps/rendering-performance/rail-model" stroke="none" stroke-width="1" fill="none" fill-rule="evenodd">
        <g id="container" transform="translate(2.000000, 2.000000)" fill="#FFFFFF" fill-rule="nonzero" stroke="#49484D" stroke-width="2">
            <rect id="mask" x="-1" y="-1" width="71" height="71" rx="14"></rect>
        </g>
        <g id="train" transform="translate(19.000000, 10.000000)" fill-rule="nonzero">
            <g id="Group" transform="translate(3.964056, 41.063551)" fill="#58565C">
                <path d="M9.0803302,0.569096096 L3.19055661,10.6656475 C3.07803841,10.8586666 2.87129766,10.9773849 2.64788755,10.9773849 L0.632927556,10.9773849 C0.147991412,10.9773849 -0.154089959,10.4513853 0.0902584985,10.0326183 L5.61066342,0.569197738 L5.61066342,0.0351682888 L9.08022856,0.0351682888 L9.08022856,0.569096096 L9.0803302,0.569096096 Z" id="Shape"></path>
                <path d="M21.2230459,0.568892811 L26.7431459,10.0324151 C26.9873927,10.4512836 26.6853113,10.9772833 26.2003752,10.9771817 L24.1857201,10.9768767 C23.96231,10.9768767 23.7556709,10.8581583 23.6431527,10.6651393 L17.7535824,0.568282956 L17.7535824,0.0351682888 L21.2230459,0.0351682888 L21.2230459,0.568892811 Z" id="Shape"></path>
            </g>
            <g id="Group" transform="translate(6.810044, 45.129249)" fill="#49484D">
                <path d="M3.07702199,1.62556775 L18.0653198,1.62546611 C18.4991298,1.62546611 18.8506094,1.27388487 18.8506094,0.840176518 C18.8506094,0.406366528 18.4990281,0.0548869247 18.0653198,0.0548869247 L3.07702199,0.0549885672 C2.64331364,0.0549885672 2.29173239,0.406569813 2.29173239,0.840278161 C2.29173239,1.27398651 2.64331364,1.62556775 3.07702199,1.62556775 Z" id="Shape"></path>
                <path d="M20.2741119,3.52435042 L0.868128193,3.52445207 C0.434419845,3.52445207 0.0828385994,3.87593167 0.0828385994,4.30974166 C0.0828385994,4.74355165 0.434419845,5.09503125 0.868128193,5.09503125 L20.2741119,5.09492961 C20.7079219,5.09492961 21.0594015,4.74334836 21.0594015,4.30964002 C21.0594015,3.87583003 20.7077186,3.52435042 20.2741119,3.52435042 Z" id="Shape"></path>
            </g>
            <path d="M3.50320879,1.73452846 C1.58714691,1.73452846 0.0338469369,3.28782843 0.0338469369,5.20389032 L0.0338469369,39.8977122 C0.0338469369,41.813774 1.58714691,43.3671757 3.50331044,43.3671757 L6.34462357,43.3671757 C6.69163091,43.3671757 6.97287558,43.085931 6.97287558,42.7389237 L6.97287558,41.6327488 L27.78925,41.6327488 L27.78925,42.7389237 C27.78925,43.085931 28.0704947,43.3671757 28.417502,43.3671757 L31.2585102,43.3671757 C33.1745721,43.3671757 34.7279737,41.8138757 34.7279737,39.8977122 L34.7279737,5.20389032 C34.7279737,3.28782843 33.1746737,1.73442682 31.2585102,1.73442682 L3.50320879,1.73442682 L3.50320879,1.73452846 Z" id="Shape" fill="#00BCE7"></path>
            <g id="Group" transform="translate(4.777195, 1.727922)" fill="#0094D4">
                <path d="M0.101439168,41.639254 L1.56742827,41.639254 C1.91443561,41.639254 2.19568027,41.3580093 2.19568027,41.011002 L2.19568027,39.9048271 L0.101439168,39.9048271 L0.101439168,41.639254 Z" id="Shape"></path>
                <path d="M26.4812133,0.00660675946 L24.3869722,0.00660675946 C26.303034,0.00660675946 27.8564357,1.55990673 27.8564357,3.47596862 L27.8564357,38.1697905 C27.8564357,40.0858523 26.3031357,41.639254 24.3869722,41.639254 L26.4812133,41.639254 C28.3972751,41.639254 29.9506768,40.0858523 29.9506768,38.1697905 L29.9506768,3.47596862 C29.9506768,1.55990673 28.3973768,0.00660675946 26.4812133,0.00660675946 Z" id="Shape"></path>
            </g>
            <rect id="Rectangle-path" fill="#58565C" x="0.0335420096" y="8.67315053" width="34.6936186" height="20.8163744"></rect>
            <path d="M31.4975733,26.8877831 L3.26424739,26.8877831 C2.91724005,26.8877831 2.63599538,26.6065384 2.63599538,26.2595311 L2.63599538,11.9037543 C2.63599538,11.5567469 2.91724005,11.2755023 3.26424739,11.2755023 L31.4975733,11.2755023 C31.8445806,11.2755023 32.1258253,11.5567469 32.1258253,11.9037543 L32.1258253,26.2595311 C32.1258253,26.6065384 31.8445806,26.8877831 31.4975733,26.8877831 Z" id="Shape" fill="#B6E3EE"></path>
            <g id="Group" transform="translate(3.455843, 32.017373)" fill="#FFD151">
                <path d="M5.25166227,3.54396742 C6.20974404,3.54396742 6.98649566,2.76721579 6.98649566,1.80913402 C6.98649566,0.851052261 6.20974404,0.0743006333 5.25166227,0.0743006333 L1.78219877,0.0743006333 C0.824117011,0.0743006333 0.0473653832,0.851052261 0.0473653832,1.80913402 C0.0473653832,2.76721579 0.824117011,3.54396742 1.78219877,3.54396742 L5.25166227,3.54396742 Z" id="Shape"></path>
                <path d="M26.0680367,3.54396742 C27.0261185,3.54396742 27.8028701,2.76721579 27.8028701,1.80913402 C27.8028701,0.851052261 27.0261185,0.0743006333 26.0680367,0.0743006333 L22.5986748,0.0743006333 C21.6405931,0.0743006333 20.8638414,0.851052261 20.8638414,1.80913402 C20.8638414,2.76721579 21.6405931,3.54396742 22.5986748,3.54396742 L26.0680367,3.54396742 Z" id="Shape"></path>
            </g>
            <rect id="Rectangle-path" fill="#49484D" x="32.6339359" y="8.67315053" width="2.09424111" height="20.8163744"></rect>
            <path d="M11.6979283,0 L23.0640956,0 C23.3021423,0 23.5195555,0.134472966 23.6260768,0.34721062 L24.253414,1.60178342 C24.2971202,1.68899265 24.3197865,1.78524805 24.3197865,1.8828248 L24.3197865,4.57563832 C24.3197865,4.92264565 24.0385418,5.20389032 23.6915345,5.20389032 L11.0704894,5.20389032 C10.7234821,5.20389032 10.4422374,4.92264565 10.4422374,4.57563832 L10.4422374,1.88302809 C10.4422374,1.78545133 10.4650053,1.68929757 10.5085083,1.60208835 L11.1359472,0.347312263 C11.2424685,0.134472966 11.4599833,0 11.6979283,0 Z" id="Shape" fill="#FFD151"></path>
            <path d="M24.253414,1.60188506 L23.6260768,0.347312263 C23.5195555,0.134472966 23.3021423,0 23.0640956,0 L20.9698545,0 C21.2079011,0 21.4253144,0.134472966 21.5318356,0.34721062 L22.1591729,1.60178342 C22.2028791,1.68899265 22.2255454,1.78524805 22.2255454,1.88272316 L22.2255454,4.57553667 C22.2255454,4.92254401 21.9443007,5.20378868 21.5972934,5.20378868 L23.6915345,5.20378868 C24.0385418,5.20378868 24.3197865,4.92254401 24.3197865,4.57553667 L24.3197865,1.8828248 C24.3196849,1.78534969 24.2969169,1.68909429 24.253414,1.60188506 Z" id="Shape" fill="#F79B4A"></path>
            <path d="M17.3808595,2.51981806 C17.8146695,2.51981806 18.1661491,2.16833845 18.1661491,1.73452846 L18.1661491,0 L16.5954683,0 L16.5954683,1.73442682 C16.5955699,2.16823681 16.9471512,2.51981806 17.3808595,2.51981806 Z" id="Shape" fill="#00BCE7"></path>
            <path d="M31.4975733,11.2755023 L29.4033322,11.2755023 C29.7503395,11.2755023 30.0315842,11.5567469 30.0315842,11.9037543 L30.0315842,26.2595311 C30.0315842,26.6065384 29.7503395,26.8877831 29.4033322,26.8877831 L31.4975733,26.8877831 C31.8445806,26.8877831 32.1258253,26.6065384 32.1258253,26.2595311 L32.1258253,11.9037543 C32.1258253,11.5567469 31.8445806,11.2755023 31.4975733,11.2755023 Z" id="Shape" fill="#96D2E0"></path>
            <g id="Group" transform="translate(6.505117, 32.017373)" fill="#F79B4A">
                <path d="M23.0187631,0.0743006333 L20.9242171,0.0743006333 C21.8822988,0.0743006333 22.6590505,0.851052261 22.6590505,1.80913402 C22.6590505,2.76721579 21.8822988,3.54396742 20.9242171,3.54396742 L23.0187631,3.54396742 C23.9768449,3.54396742 24.7535965,2.76721579 24.7535965,1.80913402 C24.7535965,0.851052261 23.9768449,0.0743006333 23.0187631,0.0743006333 Z" id="Shape"></path>
                <path d="M2.16539082,0.0743006333 L0.0708447899,0.0743006333 C1.02892655,0.0743006333 1.80567818,0.851052261 1.80567818,1.80913402 C1.80567818,2.76721579 1.02892655,3.54396742 0.0708447899,3.54396742 L2.16539082,3.54396742 C3.12347259,3.54396742 3.90022421,2.76721579 3.90022421,1.80913402 C3.90022421,0.851052261 3.12357423,0.0743006333 2.16539082,0.0743006333 Z" id="Shape"></path>
            </g>
            <path d="M34.7278721,38.9485749 L34.7278721,37.3779957 L23.0052446,37.3779957 L21.503579,35.1257006 C21.3579254,34.9071694 21.1127638,34.7759489 20.8502214,34.7759489 L13.9114976,34.7759489 C13.6488535,34.7759489 13.4036919,34.9071694 13.25814,35.1257006 L11.756576,37.3779957 L0.0339485794,37.3777925 L0.0339485794,38.9484733 L12.1768675,38.9486766 C12.4395116,38.9486766 12.6845716,38.8174562 12.8302252,38.5989249 L14.3317892,36.3466298 L20.4300315,36.3466298 L21.9316971,38.5989249 C22.0773507,38.8174562 22.3225123,38.9486766 22.5850547,38.9486766 L34.7278721,38.9486766 L34.7278721,38.9485749 Z" id="Shape" fill="#0076B5"></path>
        </g>
    </g>
</svg>