<?xml version="1.0" encoding="UTF-8"?>
<svg width="73px" height="73px" viewBox="0 0 73 73" version="1.1" xmlns="http://www.w3.org/2000/svg" xmlns:xlink="http://www.w3.org/1999/xlink">
    <!-- Generator: Sketch 51.3 (57544) - http://www.bohemiancoding.com/sketch -->
    <title>progressive-webapps/rendering-performance/rendering</title>
    <desc>Created with Sketch.</desc>
    <defs></defs>
    <g id="progressive-webapps/rendering-performance/rendering" stroke="none" stroke-width="1" fill="none" fill-rule="evenodd">
        <g id="container" transform="translate(2.000000, 2.000000)" fill="#FFFFFF" fill-rule="nonzero" stroke="#2C2F38" stroke-width="2">
            <rect id="mask" x="-1" y="-1" width="71" height="71" rx="14"></rect>
        </g>
        <g id="creativity" transform="translate(13.000000, 13.000000)" fill-rule="nonzero">
            <path d="M44.3987931,20.7205172 C44.2907472,20.9474138 44.1854023,21.1905172 44.0827586,21.4498276 L40.2822414,30.622931 L35.882069,24.3103448 L38.0943103,18.962069 C38.1915517,18.7189655 38.2887931,18.4839655 38.3698276,18.2651724 L44.3987931,20.7205172 Z" id="Shape" fill="#E64C3C"></path>
            <path d="M32.1868966,17.9005172 C32.1058621,19.5212069 31.9356897,21.1418966 31.6925862,22.7625862 L26.0363793,23.6782759 C25.9162499,21.628231 25.9541781,19.5719788 26.1498276,17.5277586 L26.1498276,17.5196552 L32.1868966,17.9005172 Z" id="Shape" fill="#4482C3"></path>
            <path d="M18.4677586,7.98189655 C18.4677586,7.98189655 19.1808621,14.2888103 16.8146552,14.8390345 C14.4484483,15.3892586 12.1551724,9.46482759 12.1551724,9.46482759 L12.3091379,5.31586207 C12.9817241,5.55896552 13.0562759,2.77786207 13.8098966,2.59958621 C14.5635172,2.42131034 15.9962069,4.85396552 16.4905172,4.33534483 L18.4677586,7.98189655 Z" id="Shape" fill="#FDD7AD"></path>
            <path d="M22.7301724,26.2065517 L21.0689655,31.6034483 L20.6151724,31.2144828 L16.3932759,27.5517241 L12.1551724,9.46482759 C12.1551724,9.46482759 13.5003448,11.6446552 15.8665517,11.0855172 C18.2327586,10.5263793 18.4677586,7.98189655 18.4677586,7.98189655 L22.7301724,26.2065517 Z" id="Shape" fill="#E64C3C"></path>
            <path d="M20.6151724,31.2144828 L16.3932759,27.5517241 L12.1551724,9.46482759 C12.1551724,9.46482759 13.5003448,11.6446552 15.8665517,11.0855172 L20.6151724,31.2144828 Z" id="Shape" fill="#C03A2B"></path>
            <path d="M13.0303448,28.0136207 L12.9655172,38.0862069 L6.57189655,35.72 L0.105344828,20.1208621 C0.0221701869,19.9221063 0.0215727669,19.6984095 0.103684607,19.4992124 C0.185796446,19.3000151 0.34385647,19.1417192 0.542931034,19.0593103 L7.285,16.2717241 C7.69897611,16.1023326 8.17219607,16.2974004 8.34655172,16.7093103 L8.96241379,18.2084483 L9.27034483,18.9539655 L9.57827586,19.6994828 L10.2022414,21.1986207 L10.5101724,21.9441379 L10.8262069,22.6977586 L11.442069,24.1968966 L11.75,24.9424138 L12.057931,25.687931 L12.997931,27.9406897 L13.0303448,28.0136207 Z" id="Shape" fill="#F0C419"></path>
            <path d="M9.57827586,19.6994828 L5.84258621,21.2553448 C5.74168133,21.2937265 5.6345061,21.3129631 5.52655172,21.312069 C5.14327059,21.3075628 4.81557228,21.0351231 4.74115286,20.6591091 C4.66673343,20.2830952 4.86595118,19.90637 5.21862069,19.7562069 L8.96241379,18.2084483 L9.27034483,18.9539655 L9.57827586,19.6994828 Z" id="Shape" fill="#B19046"></path>
            <path d="M10.8262069,22.6977586 L8.57344828,23.6296552 C8.47555027,23.668687 8.37089748,23.6879652 8.26551724,23.6863793 C7.88223611,23.6818731 7.5545378,23.4094334 7.48011838,23.0334195 C7.40569895,22.6574056 7.6049167,22.2806804 7.95758621,22.1305172 L10.2022414,21.1986207 L10.5101724,21.9441379 L10.8262069,22.6977586 Z" id="Shape" fill="#B19046"></path>
            <path d="M12.057931,25.687931 L8.32224138,27.2437931 C8.22394996,27.2814431 8.11956579,27.3006717 8.01431034,27.3005172 C7.62953232,27.2997807 7.29832776,27.0285594 7.22173374,26.6514811 C7.14513971,26.2744028 7.34427873,25.8954554 7.69827586,25.7446552 L11.442069,24.1968966 L11.75,24.9424138 L12.057931,25.687931 Z" id="Shape" fill="#B19046"></path>
            <path d="M47,41.3275862 C47,42.8320039 46.4023724,44.2748045 45.3385885,45.3385885 C44.2748045,46.4023724 42.8320039,47 41.3275862,47 L5.67241379,47 C2.53962616,47 3.59865394e-16,44.4603738 0,41.3275862 C-3.59865394e-16,38.1947986 2.53962616,35.6551724 5.67241379,35.6551724 C6.22124271,35.6536336 6.76731463,35.732814 7.29310345,35.8901724 C7.35648741,32.6980018 9.20161819,29.8099805 12.0715506,28.4108885 C14.9414831,27.0117965 18.3531287,27.3371392 20.9068966,29.2534483 C22.6300616,24.6713957 27.3835243,21.9773341 32.1999172,22.8530418 C37.01631,23.7287496 40.5172414,27.9236102 40.5172414,32.8189655 C40.5193394,33.8270788 40.3690798,34.8297209 40.0715517,35.792931 C40.484026,35.701784 40.9051616,35.6555949 41.3275862,35.6551724 C42.8320039,35.6551724 44.2748045,36.2528 45.3385885,37.3165839 C46.4023724,38.3803679 47,39.8231686 47,41.3275862 Z" id="Shape" fill="#E6E7E8"></path>
            <path d="M16.4905172,4.33534483 C15.9795026,4.91903896 15.3136415,5.34608914 14.57,5.56706897 C13.8077502,5.69757237 13.0241493,5.6105056 12.3091379,5.31586207 L12.4631034,1.03724138 C12.4792855,0.560927145 12.810464,0.153577638 13.2734483,0.0405172414 C13.3507471,0.0244176115 13.4294907,0.0162717194 13.5084483,0.0162068966 C13.900877,0.0151272575 14.2620902,0.229986867 14.4484483,0.575344828 L16.4905172,4.33534483 Z" id="Shape" fill="#2C2F38"></path>
            <path d="M32.1868966,17.9005172 C30.1666112,18.0024762 28.1412815,17.8747037 26.1498276,17.5196552 C26.2713793,16.1987931 26.4496552,14.8941379 26.6603448,13.5894828 C28.4836207,13.702931 30.3231034,13.8163793 32.195,13.9298276 C32.2652267,15.2525351 32.2625214,16.5781073 32.1868966,17.9005172 Z" id="Shape" fill="#95A5A5"></path>
            <path d="M26.6603448,13.5894828 C26.6603448,13.5894828 23.4011379,10.6341552 26.3564655,7.37413793 C28.813431,4.66434483 29.7898966,2.81432759 29.7275,1.06074138 C29.7209142,0.896438949 29.8154727,0.744820584 29.9659185,0.678452667 C30.1163644,0.612084751 30.2920936,0.64446802 30.409,0.760103448 C32.4048793,2.71384483 36.9071552,8.16746552 32.1471897,13.9282069" id="Shape" fill="#805333"></path>
            <path d="M30.5378448,11.912069 C30.2309088,11.912069 29.9503163,11.7386532 29.8130504,11.4641214 C29.6757844,11.1895895 29.7054074,10.861066 29.889569,10.6155172 C30.5996566,9.64240056 30.8900749,8.42527032 30.6958621,7.23637931 C30.6135724,6.95414182 30.690599,6.64947341 30.8971384,6.44025795 C31.1036776,6.23104249 31.4073292,6.15010017 31.6906026,6.22874961 C31.973876,6.30739905 32.1923335,6.53330232 32.2614483,6.81905172 C32.5863308,8.4902411 32.1953638,10.2210783 31.1836897,11.5903621 C31.0306603,11.7928129 30.7916248,11.9118808 30.5378448,11.912069 Z" id="Shape" fill="#603E26"></path>
            <path d="M20.0803448,42.137931 C19.7555593,42.1379423 19.4621435,41.9440328 19.3348276,41.6452414 C19.0725887,41.0326777 18.9375016,40.3732323 18.9377586,39.7068966 C18.9364177,37.4294078 20.5161728,35.4561768 22.7387674,34.9591557 C24.9613619,34.4621345 27.2311307,35.5745271 28.2,37.6356552 C28.3906525,38.0406799 28.2168694,38.5235716 27.8118448,38.7142241 C27.4068201,38.9048766 26.9239284,38.7310937 26.7332759,38.326069 C26.2046863,37.1845004 25.0578079,36.457088 23.7998276,36.4655172 C22.0096632,36.4655172 20.5584483,37.9167322 20.5584483,39.7068966 C20.5582526,40.1548864 20.649237,40.5982291 20.8258621,41.009931 C20.9101166,41.2076537 20.9123717,41.4307489 20.8321312,41.6301344 C20.7518907,41.8295199 20.5957281,41.9888615 20.398,42.0731034 C20.2976371,42.1161275 20.1895406,42.138188 20.0803448,42.137931 Z" id="Shape" fill="#BDC3C7"></path>
            <path d="M32.4137931,39.9743103 C32.0963553,39.9743671 31.808116,39.7890704 31.6763793,39.5002586 C31.2800102,38.6396507 30.4197392,38.087749 29.4722414,38.0862069 C28.925213,38.0849899 28.394326,38.2714868 27.9682414,38.6145517 C27.6182642,38.8935936 27.1083436,38.8360892 26.8293017,38.4861121 C26.5502599,38.1361349 26.6077642,37.6262143 26.9577414,37.3471724 C27.6701848,36.7739573 28.5578326,36.4627227 29.4722414,36.4655172 C31.0546129,36.466952 32.4913583,37.3894438 33.1512069,38.8276724 C33.2656353,39.0785384 33.2446492,39.370375 33.0955042,39.6022874 C32.9463592,39.8341997 32.6895241,39.9743596 32.4137931,39.9743103 Z" id="Shape" fill="#BDC3C7"></path>
            <path d="M11.3448276,35.6551724 C10.8972865,35.6551724 10.5344828,35.2923686 10.5344828,34.8448276 C10.5344828,31.8643793 13.397431,30.8741379 13.5197931,30.834431 C13.9449571,30.6916655 14.405355,30.9205946 14.5481206,31.3457586 C14.6908863,31.7709226 14.4619571,32.2313205 14.0367931,32.3740862 C12.9661394,32.7392781 12.2225982,33.7156163 12.1551724,34.8448276 C12.1551724,35.2923686 11.7923686,35.6551724 11.3448276,35.6551724 Z" id="Shape" fill="#BDC3C7"></path>
            <path d="M25.1206897,29.9827586 C25.0540204,29.9830213 24.9875855,29.9748531 24.9229655,29.9584483 C24.488858,29.8496859 24.2251046,29.4096131 24.3338448,28.9755 C24.8780541,26.7369556 26.8688662,25.1509075 29.1724138,25.1206897 C29.6199548,25.1195708 29.9836656,25.4814676 29.9847845,25.9290086 C29.9859033,26.3765497 29.6240066,26.7402605 29.1764655,26.7413793 C27.6187663,26.78013 26.2796212,27.8564243 25.9067241,29.3693276 C25.8164038,29.7298752 25.4923781,29.9827488 25.1206897,29.9827586 Z" id="Shape" fill="#BDC3C7"></path>
            <path d="M46.9513793,16.2960345 C46.9777315,16.4261034 46.9417557,16.5610127 46.8541379,16.6606897 C45.818124,17.8698224 44.9885507,19.241493 44.3987931,20.7205172 C44.1124113,20.9340221 43.7878488,21.0908024 43.4425862,21.1824138 C42.5577263,21.4163555 41.6193484,21.339111 40.7846552,20.9636207 C40.7765517,20.9636207 40.7765517,20.9555172 40.7684483,20.9555172 C39.9044082,20.6330989 39.1795436,20.0199724 38.7182759,19.2213793 C38.5460314,18.9259743 38.4280231,18.6021376 38.3698276,18.2651724 C38.9991214,16.789333 39.384989,15.2212326 39.5124138,13.6218966 C39.518934,13.488119 39.5919258,13.3664659 39.7068966,13.2977586 L44.252931,10.4615517 L45.427931,9.72413793 L45.7439655,11.0774138 L46.9513793,16.2960345 Z" id="Shape" fill="#F0C419"></path>
            <path d="M45.427931,9.72413793 L42.9563793,15.7125862 L42.9482759,15.7125862 L40.7846552,20.9636207 C40.7765517,20.9636207 40.7765517,20.9555172 40.7684483,20.9555172 C39.9044082,20.6330989 39.1795436,20.0199724 38.7182759,19.2213793 C38.5460314,18.9259743 38.4280231,18.6021376 38.3698276,18.2651724 C38.9991214,16.789333 39.384989,15.2212326 39.5124138,13.6218966 C39.518934,13.488119 39.5919258,13.3664659 39.7068966,13.2977586 L44.252931,10.4615517 L45.427931,9.72413793 Z" id="Shape" fill="#F3D55B"></path>
            <path d="M45.7439655,11.0774138 L44.0017241,15.275 C43.8774143,15.5776034 43.5833446,15.7757809 43.2562069,15.7774138 C43.1529174,15.776226 43.0509333,15.7541754 42.9563793,15.7125862 L42.9482759,15.7125862 C42.6445099,15.5897068 42.4457328,15.2947473 42.4458621,14.967069 C42.4478309,14.8586315 42.4698086,14.75149 42.5106897,14.6510345 L44.252931,10.4615517 L45.427931,9.72413793 L45.7439655,11.0774138 Z" id="Shape" fill="#E57E25"></path>
        </g>
    </g>
</svg>