<?xml version="1.0" encoding="UTF-8"?>
<svg width="73px" height="73px" viewBox="0 0 73 73" version="1.1" xmlns="http://www.w3.org/2000/svg" xmlns:xlink="http://www.w3.org/1999/xlink">
    <!-- Generator: Sketch 51.3 (57544) - http://www.bohemiancoding.com/sketch -->
    <title>progressive-webapps/rendering-performance/stack</title>
    <desc>Created with Sketch.</desc>
    <defs></defs>
    <g id="progressive-webapps/rendering-performance/stack" stroke="none" stroke-width="1" fill="none" fill-rule="evenodd">
        <g id="container" transform="translate(2.000000, 2.000000)" fill-rule="nonzero">
            <rect id="mask" stroke="#2C576A" stroke-width="2" fill="#FFFFFF" x="-1" y="-1" width="71" height="71" rx="14"></rect>
            <g id="plate" transform="translate(10.000000, 16.000000)">
                <g id="Group">
                    <path d="M41.4055481,6.95761103 L6.60415655,6.95761103 C6.12954717,6.95761103 5.70808413,6.65397641 5.55812075,6.20367432 L4.70654297,3.64935303 L43.3031616,3.64935303 L42.4515838,6.20367432 C42.3016205,6.65397641 41.8801575,6.95761103 41.4055481,6.95761103 Z" id="Shape" fill="#B4E7FD"></path>
                    <path d="M40.2153167,3.64935303 L39.1124268,6.95761103 L41.4055481,6.95761103 C41.8801575,6.95761103 42.3016205,6.65397641 42.4515838,6.20367432 L43.3031616,3.64935303 L40.2153167,3.64935303 Z" id="Shape" fill="#93DCFC"></path>
                    <path d="M46.3679352,3.64935303 L1.64176938,3.64935303 C1.16716001,3.64935303 0.745696969,3.34571841 0.595733695,2.89541631 L0.0346069336,1.21203613 C-0.108352687,0.783569336 0.210525539,0.341095023 0.662063625,0.341095023 L47.347641,0.341095023 C47.7991791,0.341095023 48.1184692,0.783569336 47.9755096,1.21203613 L47.414383,2.89541631 C47.2640075,3.34571841 46.8425446,3.64935303 46.3679352,3.64935303 Z" id="Shape" fill="#B4E7FD"></path>
                    <path d="M46.5747528,0.341095023 L46.1005554,1.76327509 C46.0107422,2.03353877 45.7577819,2.21563721 45.4730988,2.21563721 L0.369140625,2.21563721 L0.595733695,2.89541631 C0.745696969,3.34571841 1.16716001,3.64935303 1.64176938,3.64935303 L46.3679352,3.64935303 C46.8425446,3.64935303 47.2640075,3.34530634 47.414383,2.89541631 L47.9750977,1.21203613 C48.1180573,0.783569336 47.7991791,0.341095023 47.347641,0.341095023 L46.5747528,0.341095023 Z" id="Shape" fill="#93DCFC"></path>
                </g>
                <g id="Group" transform="translate(0.000000, 6.000000)">
                    <path d="M41.4055481,6.95761103 L6.60415655,6.95761103 C6.12954717,6.95761103 5.70808413,6.65397641 5.55812075,6.20367432 L4.70654297,3.64935303 L43.3031616,3.64935303 L42.4515838,6.20367432 C42.3016205,6.65397641 41.8801575,6.95761103 41.4055481,6.95761103 Z" id="Shape" fill="#B4E7FD"></path>
                    <path d="M40.2153167,3.64935303 L39.1124268,6.95761103 L41.4055481,6.95761103 C41.8801575,6.95761103 42.3016205,6.65397641 42.4515838,6.20367432 L43.3031616,3.64935303 L40.2153167,3.64935303 Z" id="Shape" fill="#93DCFC"></path>
                    <path d="M46.3679352,3.64935303 L1.64176938,3.64935303 C1.16716001,3.64935303 0.745696969,3.34571841 0.595733695,2.89541631 L0.0346069336,1.21203613 C-0.108352687,0.783569336 0.210525539,0.341095023 0.662063625,0.341095023 L47.347641,0.341095023 C47.7991791,0.341095023 48.1184692,0.783569336 47.9755096,1.21203613 L47.414383,2.89541631 C47.2640075,3.34571841 46.8425446,3.64935303 46.3679352,3.64935303 Z" id="Shape" fill="#B4E7FD"></path>
                    <path d="M46.5747528,0.341095023 L46.1005554,1.76327509 C46.0107422,2.03353877 45.7577819,2.21563721 45.4730988,2.21563721 L0.369140625,2.21563721 L0.595733695,2.89541631 C0.745696969,3.34571841 1.16716001,3.64935303 1.64176938,3.64935303 L46.3679352,3.64935303 C46.8425446,3.64935303 47.2640075,3.34530634 47.414383,2.89541631 L47.9750977,1.21203613 C48.1180573,0.783569336 47.7991791,0.341095023 47.347641,0.341095023 L46.5747528,0.341095023 Z" id="Shape" fill="#93DCFC"></path>
                </g>
                <g id="Group" transform="translate(0.000000, 12.000000)">
                    <path d="M41.4055481,6.95761103 L6.60415655,6.95761103 C6.12954717,6.95761103 5.70808413,6.65397641 5.55812075,6.20367432 L4.70654297,3.64935303 L43.3031616,3.64935303 L42.4515838,6.20367432 C42.3016205,6.65397641 41.8801575,6.95761103 41.4055481,6.95761103 Z" id="Shape" fill="#B4E7FD"></path>
                    <path d="M40.2153167,3.64935303 L39.1124268,6.95761103 L41.4055481,6.95761103 C41.8801575,6.95761103 42.3016205,6.65397641 42.4515838,6.20367432 L43.3031616,3.64935303 L40.2153167,3.64935303 Z" id="Shape" fill="#93DCFC"></path>
                    <path d="M46.3679352,3.64935303 L1.64176938,3.64935303 C1.16716001,3.64935303 0.745696969,3.34571841 0.595733695,2.89541631 L0.0346069336,1.21203613 C-0.108352687,0.783569336 0.210525539,0.341095023 0.662063625,0.341095023 L47.347641,0.341095023 C47.7991791,0.341095023 48.1184692,0.783569336 47.9755096,1.21203613 L47.414383,2.89541631 C47.2640075,3.34571841 46.8425446,3.64935303 46.3679352,3.64935303 Z" id="Shape" fill="#B4E7FD"></path>
                    <path d="M46.5747528,0.341095023 L46.1005554,1.76327509 C46.0107422,2.03353877 45.7577819,2.21563721 45.4730988,2.21563721 L0.369140625,2.21563721 L0.595733695,2.89541631 C0.745696969,3.34571841 1.16716001,3.64935303 1.64176938,3.64935303 L46.3679352,3.64935303 C46.8425446,3.64935303 47.2640075,3.34530634 47.414383,2.89541631 L47.9750977,1.21203613 C48.1180573,0.783569336 47.7991791,0.341095023 47.347641,0.341095023 L46.5747528,0.341095023 Z" id="Shape" fill="#93DCFC"></path>
                </g>
                <g id="Group" transform="translate(0.000000, 18.000000)">
                    <path d="M41.4055481,6.95761103 L6.60415655,6.95761103 C6.12954717,6.95761103 5.70808413,6.65397641 5.55812075,6.20367432 L4.70654297,3.64935303 L43.3031616,3.64935303 L42.4515838,6.20367432 C42.3016205,6.65397641 41.8801575,6.95761103 41.4055481,6.95761103 Z" id="Shape" fill="#B4E7FD"></path>
                    <path d="M40.2153167,3.64935303 L39.1124268,6.95761103 L41.4055481,6.95761103 C41.8801575,6.95761103 42.3016205,6.65397641 42.4515838,6.20367432 L43.3031616,3.64935303 L40.2153167,3.64935303 Z" id="Shape" fill="#93DCFC"></path>
                    <path d="M46.3679352,3.64935303 L1.64176938,3.64935303 C1.16716001,3.64935303 0.745696969,3.34571841 0.595733695,2.89541631 L0.0346069336,1.21203613 C-0.108352687,0.783569336 0.210525539,0.341095023 0.662063625,0.341095023 L47.347641,0.341095023 C47.7991791,0.341095023 48.1184692,0.783569336 47.9755096,1.21203613 L47.414383,2.89541631 C47.2640075,3.34571841 46.8425446,3.64935303 46.3679352,3.64935303 Z" id="Shape" fill="#B4E7FD"></path>
                    <path d="M46.5747528,0.341095023 L46.1005554,1.76327509 C46.0107422,2.03353877 45.7577819,2.21563721 45.4730988,2.21563721 L0.369140625,2.21563721 L0.595733695,2.89541631 C0.745696969,3.34571841 1.16716001,3.64935303 1.64176938,3.64935303 L46.3679352,3.64935303 C46.8425446,3.64935303 47.2640075,3.34530634 47.414383,2.89541631 L47.9750977,1.21203613 C48.1180573,0.783569336 47.7991791,0.341095023 47.347641,0.341095023 L46.5747528,0.341095023 Z" id="Shape" fill="#93DCFC"></path>
                </g>
                <g id="Group" transform="translate(0.000000, 24.000000)">
                    <path d="M41.4055481,6.95761103 L6.60415655,6.95761103 C6.12954717,6.95761103 5.70808413,6.65397641 5.55812075,6.20367432 L4.70654297,3.64935303 L43.3031616,3.64935303 L42.4515838,6.20367432 C42.3016205,6.65397641 41.8801575,6.95761103 41.4055481,6.95761103 Z" id="Shape" fill="#B4E7FD"></path>
                    <path d="M40.2153167,3.64935303 L39.1124268,6.95761103 L41.4055481,6.95761103 C41.8801575,6.95761103 42.3016205,6.65397641 42.4515838,6.20367432 L43.3031616,3.64935303 L40.2153167,3.64935303 Z" id="Shape" fill="#93DCFC"></path>
                    <path d="M46.3679352,3.64935303 L1.64176938,3.64935303 C1.16716001,3.64935303 0.745696969,3.34571841 0.595733695,2.89541631 L0.0346069336,1.21203613 C-0.108352687,0.783569336 0.210525539,0.341095023 0.662063625,0.341095023 L47.347641,0.341095023 C47.7991791,0.341095023 48.1184692,0.783569336 47.9755096,1.21203613 L47.414383,2.89541631 C47.2640075,3.34571841 46.8425446,3.64935303 46.3679352,3.64935303 Z" id="Shape" fill="#B4E7FD"></path>
                    <path d="M46.5747528,0.341095023 L46.1005554,1.76327509 C46.0107422,2.03353877 45.7577819,2.21563721 45.4730988,2.21563721 L0.369140625,2.21563721 L0.595733695,2.89541631 C0.745696969,3.34571841 1.16716001,3.64935303 1.64176938,3.64935303 L46.3679352,3.64935303 C46.8425446,3.64935303 47.2640075,3.34530634 47.414383,2.89541631 L47.9750977,1.21203613 C48.1180573,0.783569336 47.7991791,0.341095023 47.347641,0.341095023 L46.5747528,0.341095023 Z" id="Shape" fill="#93DCFC"></path>
                </g>
                <g id="Group" transform="translate(0.000000, 30.000000)">
                    <path d="M41.4055481,6.95761103 L6.60415655,6.95761103 C6.12954717,6.95761103 5.70808413,6.65397641 5.55812075,6.20367432 L4.70654297,3.64935303 L43.3031616,3.64935303 L42.4515838,6.20367432 C42.3016205,6.65397641 41.8801575,6.95761103 41.4055481,6.95761103 Z" id="Shape" fill="#B4E7FD"></path>
                    <path d="M40.2153167,3.64935303 L39.1124268,6.95761103 L41.4055481,6.95761103 C41.8801575,6.95761103 42.3016205,6.65397641 42.4515838,6.20367432 L43.3031616,3.64935303 L40.2153167,3.64935303 Z" id="Shape" fill="#93DCFC"></path>
                    <path d="M46.3679352,3.64935303 L1.64176938,3.64935303 C1.16716001,3.64935303 0.745696969,3.34571841 0.595733695,2.89541631 L0.0346069336,1.21203613 C-0.108352687,0.783569336 0.210525539,0.341095023 0.662063625,0.341095023 L47.347641,0.341095023 C47.7991791,0.341095023 48.1184692,0.783569336 47.9755096,1.21203613 L47.414383,2.89541631 C47.2640075,3.34571841 46.8425446,3.64935303 46.3679352,3.64935303 Z" id="Shape" fill="#B4E7FD"></path>
                    <path d="M46.5747528,0.341095023 L46.1005554,1.76327509 C46.0107422,2.03353877 45.7577819,2.21563721 45.4730988,2.21563721 L0.369140625,2.21563721 L0.595733695,2.89541631 C0.745696969,3.34571841 1.16716001,3.64935303 1.64176938,3.64935303 L46.3679352,3.64935303 C46.8425446,3.64935303 47.2640075,3.34530634 47.414383,2.89541631 L47.9750977,1.21203613 C48.1180573,0.783569336 47.7991791,0.341095023 47.347641,0.341095023 L46.5747528,0.341095023 Z" id="Shape" fill="#93DCFC"></path>
                </g>
            </g>
        </g>
    </g>
</svg>