<?xml version="1.0" encoding="UTF-8"?>
<svg width="73px" height="73px" viewBox="0 0 73 73" version="1.1" xmlns="http://www.w3.org/2000/svg" xmlns:xlink="http://www.w3.org/1999/xlink">
    <!-- Generator: Sketch 51.3 (57544) - http://www.bohemiancoding.com/sketch -->
    <title>progressive-webapps/rendering-performance/transforms</title>
    <desc>Created with Sketch.</desc>
    <defs>
        <rect id="path-1" x="0" y="0" width="69" height="69" rx="14"></rect>
    </defs>
    <g id="progressive-webapps/rendering-performance/transforms" stroke="none" stroke-width="1" fill="none" fill-rule="evenodd">
        <g id="container" transform="translate(2.000000, 2.000000)">
            <rect id="mask" stroke="#2B2B2B" stroke-width="2" fill="#FFFFFF" fill-rule="nonzero" x="-1" y="-1" width="71" height="71" rx="14"></rect>
            <g id="chameleon">
                <mask id="mask-2" fill="white">
                    <use xlink:href="#path-1"></use>
                </mask>
                <rect stroke="#2B2B2B" stroke-width="2" x="-1" y="-1" width="71" height="71" rx="14"></rect>
                <g mask="url(#mask-2)">
                    <g transform="translate(4.000000, 40.000000)">
                        <path d="M60.2330409,19.0381832 C58.7853314,14.611462 54.8810936,10.4911676 49.2396043,7.43641131 C44.2233353,4.72018713 38.1972963,3.0982768 33.1206218,3.0982768 C28.4582242,3.0982768 24.6160565,3.71124951 21.7014932,4.92007212 C21.1580819,5.14552242 20.6949337,5.37311306 20.3032495,5.5907154 L20.3032495,1.10561014 C20.3032495,0.531044834 19.8376043,0.0651617934 19.2628012,0.0651617934 C11.060501,0.0651617934 6.25838596,4.28474464 3.6741501,7.82452827 C0.899898635,11.6244834 0.0582651072,15.3907875 0.0237816764,15.5491735 C-0.0120097466,15.7137427 -0.00725341131,15.884614 0.0374561404,16.046924 L0.522840156,17.8068869 C1.06363548,19.7685185 2.86248148,21.1383431 4.89724172,21.1383431 L40.7949688,21.1383431 C43.5350936,21.1383431 46.0150468,22.7134035 47.1129279,25.1511442 C48.7103431,28.6978246 47.582616,31.5968109 46.3553626,33.4040994 C44.6930234,35.8518285 42.2533801,37.1384172 41.2019922,37.0889513 C37.9895634,36.9429318 35.7358928,34.6717817 35.7156784,34.6510916 C35.3980741,34.3215965 34.9029396,34.2384795 34.4950838,34.4459747 C34.087347,34.6533509 33.8629669,35.1027057 33.9421598,35.5532495 C33.9816374,35.7782242 34.9573996,41.0821326 39.0770994,42.7390019 C39.870694,43.058152 40.7154191,43.2174893 41.6102047,43.2173704 C43.9688713,43.2172515 46.6722534,42.1099766 49.6820624,39.9055341 C61.2679006,31.4205887 61.8145224,23.874425 60.2330409,19.0381832 Z" id="Shape" fill="#00A35C" fill-rule="nonzero"></path>
                        <g id="Group" stroke-width="1" fill="none" fill-rule="evenodd" transform="translate(7.966862, 3.091618)">
                            <path d="M52.2661793,15.9465653 C50.8184698,11.5198441 46.914232,7.39954971 41.2727427,4.34479337 C36.2564737,1.6285692 30.2304347,0.0066588694 25.1537602,0.0066588694 C24.3738402,0.0066588694 23.6190097,0.0254463938 22.8855828,0.0596920078 C27.5926901,0.356606238 32.8980253,1.91073879 37.3931189,4.34479337 C43.0347271,7.39954971 46.9389649,11.5198441 48.3865556,15.9465653 C49.968037,20.7826881 49.4214152,28.3288519 37.835577,36.8142729 C35.6498031,38.4150175 33.626577,39.4343002 31.7788596,39.8740234 C32.3739961,40.0413275 32.9951735,40.1261092 33.6432242,40.1259903 C36.0018908,40.1258713 38.7053918,39.0185965 41.7150819,36.814154 C53.301039,28.3289708 53.8476608,20.782807 52.2661793,15.9465653 Z" id="Shape" fill="#00723E" fill-rule="nonzero"></path>
                            <polygon id="Shape" fill="#00723E" fill-rule="nonzero" points="11.0258986 18.0468441 11.0258986 12.8932359 0.109395712 18.0468441"></polygon>
                            <path d="M28.0701072,18.0848947 L23.8559942,18.0470819 C23.8559942,18.0470819 26.0192943,11.064425 29.0283899,10.5782086 L28.0701072,18.0848947 Z" id="Shape" fill="#00723E" fill-rule="nonzero"></path>
                        </g>
                        <path d="M8.68970565,5.44338791 C5.85278947,5.44338791 3.54477778,7.75139961 3.54477778,10.5883158 C3.54477778,13.425232 5.85278947,15.7332437 8.68970565,15.7332437 C11.5266218,15.7332437 13.8347524,13.425232 13.8347524,10.5883158 C13.8347524,7.75139961 11.5266218,5.44338791 8.68970565,5.44338791 Z" id="Shape" fill="#D9D9DB" fill-rule="nonzero"></path>
                        <path d="M8.68970565,11.8120019 C8.0137115,11.8120019 7.46364133,11.2631209 7.46364133,10.5883158 C7.46364133,9.91351072 8.0137115,9.36462963 8.68970565,9.36462963 C9.36581871,9.36462963 9.91588889,9.91351072 9.91588889,10.5883158 C9.91588889,11.2631209 9.36581871,11.8120019 8.68970565,11.8120019 Z" id="Shape" fill="#2B2B2B" fill-rule="nonzero"></path>
                        <path d="M27.0796004,18.533655 L26.227384,13.4962203 C26.1317817,12.9296218 25.5947914,12.5487583 25.0279552,12.643885 C24.4613567,12.7397251 24.0797797,13.2767154 24.1757388,13.8433138 L24.2097466,14.0446257 L16.28046,17.0413548 L15.6597583,16.6279103 C15.1813899,16.3093548 14.5354795,16.438846 14.2170429,16.9170955 C13.8984873,17.3952261 14.0279786,18.0413743 14.5061092,18.3598109 L17.4444542,20.3170429 L14.7209766,23.5363684 C13.0434172,23.630306 7.69515595,24.2521969 6.30820858,28.3496608 C6.2007154,28.6671462 6.25291618,29.0172125 6.44816374,29.2896316 C6.64364912,29.5620507 6.95839961,29.7236472 7.29372125,29.7236472 L16.6736901,29.7236472 C16.9607349,29.7236472 17.2350565,29.6049766 17.431731,29.3959357 L26.8116998,19.4198791 C27.0348908,19.182538 27.1339415,18.8545887 27.0796004,18.533655 Z" id="Shape" fill="#00A35C" fill-rule="nonzero"></path>
                        <path d="M26.7150273,16.3783216 L26.227384,13.4961014 C26.2041969,13.3592378 26.1549688,13.2335517 26.0860019,13.1223723 C24.7851442,16.3295692 21.9789064,20.0900468 19.6524639,22.5642924 L12.8871715,29.7235283 L16.673809,29.7235283 C16.9608538,29.7235283 17.2351754,29.6049766 17.4318499,29.3958168 L26.8118187,19.4197602 C26.8232339,19.4075127 26.8328655,19.3941949 26.8436862,19.3815906 L27.0196706,19.090384 C27.0477329,19.0196335 27.0681852,18.9462671 27.0803138,18.871117 L26.7150273,16.3783216 Z" id="Shape" fill="#00723E" fill-rule="nonzero"></path>
                        <path d="M46.7390799,18.8951365 C46.4770058,18.7033372 46.1552398,18.6523255 45.8634386,18.7279513 L45.0746004,15.6875828 C45.3491598,15.6162378 45.5939922,15.4347836 45.7356121,15.1636725 C46.001848,14.6543879 45.8046979,14.0257193 45.2954133,13.7596023 C44.7278635,13.4629259 39.6586803,10.9155517 36.4716979,12.7705224 C32.963425,14.812655 34.8243411,20.945117 35.8896413,23.7077154 C34.6290936,24.0205634 33.3082593,24.723193 31.9456881,25.8077563 C30.5827602,26.8925575 29.6791754,27.9726023 29.6414815,28.0180253 C29.3834503,28.3282573 29.3279201,28.7597758 29.499386,29.1250624 C29.670614,29.4904678 30.0378031,29.7237661 30.4413782,29.7237661 L39.5769903,29.7237661 C39.9088635,29.7237661 40.2207602,29.565499 40.4167212,29.2977173 L46.9645302,20.3495049 C47.3038947,19.8856433 47.2029415,19.2346199 46.7390799,18.8951365 Z" id="Shape" fill="#00A35C" fill-rule="nonzero"></path>
                        <path d="M40.4166023,29.2975984 L45.4932768,22.35977 C46.4330097,21.0754405 45.892809,18.8413899 45.4931579,17.3009318 C45.0176433,15.468078 43.6045361,14.0148986 41.7760819,13.5221423 C40.555963,13.1932417 39.1590273,12.9949025 37.9672086,13.2875361 C38.3252417,13.3517466 38.6778051,13.4335556 39.016575,13.5254717 C40.838846,14.0194172 42.2443431,15.4729532 42.7184308,17.3004561 C43.1182008,18.841152 42.8048772,20.4800663 41.8649064,21.7646335 L36.0196082,29.7236472 L39.5769903,29.7236472 C39.9087446,29.7236472 40.2206413,29.5653801 40.4166023,29.2975984 Z" id="Shape" fill="#00723E" fill-rule="nonzero"></path>
                    </g>
                </g>
            </g>
        </g>
    </g>
</svg>