<?xml version="1.0" encoding="UTF-8"?>
<svg width="73px" height="73px" viewBox="0 0 73 73" version="1.1" xmlns="http://www.w3.org/2000/svg" xmlns:xlink="http://www.w3.org/1999/xlink">
    <!-- Generator: Sketch 51.3 (57544) - http://www.bohemiancoding.com/sketch -->
    <title>progressive-webapps/rendering-performance/web-workers</title>
    <desc>Created with Sketch.</desc>
    <defs></defs>
    <g id="progressive-webapps/rendering-performance/web-workers" stroke="none" stroke-width="1" fill="none" fill-rule="evenodd">
        <g id="container" transform="translate(2.000000, 2.000000)" fill="#FFFFFF" fill-rule="nonzero" stroke="#00345C" stroke-width="2">
            <rect id="mask" x="-1" y="-1" width="71" height="71" rx="14"></rect>
        </g>
        <g id="performance" transform="translate(13.000000, 13.000000)" fill-rule="nonzero">
            <path d="M40.1170273,6.88297274 C35.6781463,2.44445036 29.7769699,0 23.5,0 C17.2226716,0 11.321495,2.44445036 6.88297274,6.88297274 C2.44445036,11.321495 0,17.2230301 0,23.5 C0,29.7769699 2.44445036,35.678505 6.88297274,40.1170273 C11.321495,44.5555496 17.2226716,47 23.5,47 C29.7769699,47 35.6781463,44.5555496 40.1170273,40.1170273 C44.5555496,35.678505 47,29.7769699 47,23.5 C47,17.2230301 44.5555496,11.321495 40.1170273,6.88297274 Z" id="Shape" fill="#EBF6FF"></path>
            <path d="M40.1170273,6.88297274 C35.6781463,2.44445036 29.7769699,0 23.5,0 L23.5,47 C29.7769699,47 35.6781463,44.5555496 40.1170273,40.1170273 C44.5555496,35.678505 47,29.7769699 47,23.5 C47,17.2230301 44.5555496,11.321495 40.1170273,6.88297274 Z" id="Shape" fill="#B2DCFF"></path>
            <path d="M40.1170273,6.88297274 C35.6781463,2.44445036 29.7769699,0 23.5,0 C17.2226716,0 11.321495,2.44445036 6.88297274,6.88297274 C6.62479403,7.14115145 6.47992709,7.4914856 6.47992709,7.85652165 C6.47992709,8.22155762 6.62479403,8.57189176 6.88297274,8.83007047 L12.0974655,14.0445633 C12.6353378,14.5824356 13.5070496,14.5824356 14.0449219,14.0445633 C16.5704117,11.5190735 19.9285278,10.1281357 23.5,10.1281357 C27.0714722,10.1281357 30.4295883,11.5190735 32.9554367,14.0449219 C33.2243729,14.3134994 33.5764999,14.4479675 33.9289856,14.4479675 C34.2814713,14.4479675 34.6339569,14.3134994 34.9025345,14.0445633 L40.1170273,8.83007047 C40.375206,8.57189176 40.5204315,8.22191618 40.5204315,7.85652165 C40.5204315,7.4914856 40.375206,7.14115145 40.1170273,6.88297274 Z" id="Shape" fill="#FFD12B"></path>
            <path d="M40.1170273,6.88297274 C35.6781463,2.44445036 29.7769699,0 23.5,0 L23.5,10.1281357 C27.0714722,10.1281357 30.4295883,11.5190735 32.9554367,14.0449219 C33.2243729,14.3138581 33.5764999,14.4479675 33.9289856,14.4479675 C34.2811126,14.4479675 34.6335983,14.3134994 34.9025345,14.0445633 L40.1170273,8.83042903 C40.375206,8.57225032 40.5204315,8.22191618 40.5204315,7.85688021 C40.5204315,7.4914856 40.375206,7.14115145 40.1170273,6.88297274 Z" id="Shape" fill="#FF8E1D"></path>
            <path d="M10.1284943,23.5 C10.1284943,19.9281693 11.5190735,16.5704117 14.0445633,14.0445633 C14.3031006,13.7863846 14.4483261,13.436409 14.4483261,13.0710144 C14.4483261,12.7059783 14.3031006,12.3556442 14.0445633,12.0974655 L8.83042903,6.88297274 C8.29255681,6.34510043 7.42084505,6.34510043 6.88297274,6.88297274 C2.44445036,11.321495 0,17.2226716 0,23.5 C0,29.7769699 2.44445036,35.6781463 6.88297274,40.1170273 C7.14115145,40.375206 7.4914856,40.5204315 7.85652165,40.5204315 C8.22155762,40.5204315 8.57189176,40.375206 8.83007047,40.1170273 L14.0445633,34.9025345 C14.5824356,34.3650208 14.5824356,33.493309 14.0445633,32.9554367 C11.5190735,30.4295883 10.1284943,27.0714722 10.1284943,23.5 Z" id="Shape" fill="#80D398"></path>
            <path d="M40.1170273,6.88297274 C39.8588485,6.62479403 39.5085144,6.47956853 39.1434783,6.47956853 C38.7780838,6.47956853 38.4277497,6.62479403 38.1699295,6.88297274 L32.9554367,12.0974655 C32.4175644,12.6349792 32.4175644,13.5070496 32.9554367,14.0445633 C35.4809265,16.5704117 36.8715057,19.9281693 36.8715057,23.5 C36.8715057,27.0714722 35.4809265,30.4295883 32.9554367,32.9554367 C32.4175644,33.4929504 32.4175644,34.3650208 32.9554367,34.9025345 L38.1699295,40.1170273 C38.4281082,40.375206 38.7784424,40.5204315 39.1434783,40.5204315 C39.508873,40.5204315 39.8588485,40.375206 40.1170273,40.1170273 C44.5555496,35.6781463 47,29.7769699 47,23.5 C47,17.2230301 44.5555496,11.3218537 40.1170273,6.88297274 Z" id="Shape" fill="#FF39B1"></path>
            <path d="M38.6321411,22.1775513 C36.4781418,21.5525436 25.6245956,18.4357528 23.5,18.4357528 C20.7077255,18.4357528 18.4361115,20.7077255 18.4361115,23.5 C18.4361115,26.2922745 20.7077255,28.5642472 23.5,28.5642472 C25.6245956,28.5642472 36.4781418,25.4474564 38.6321411,24.8224487 C39.220932,24.6517639 39.6254119,24.1128158 39.6254119,23.5 C39.6254119,22.8871842 39.220932,22.3482361 38.6321411,22.1775513 Z" id="Shape" fill="#00345C"></path>
            <path d="M18.4361115,23.5 C18.4361115,26.2922745 20.7077255,28.5642472 23.5,28.5642472 L23.5,18.4357528 C20.7077255,18.4357528 18.4361115,20.7077255 18.4361115,23.5 Z" id="Shape" fill="#005AB1"></path>
            <path d="M26.5543976,35.3059387 L20.4456024,35.3059387 C19.6850509,35.3059387 19.0686492,34.689537 19.0686492,33.9289856 C19.0686492,33.1684342 19.6850509,32.5520325 20.4456024,32.5520325 L26.5543976,32.5520325 C27.3149491,32.5520325 27.9313508,33.1684342 27.9313508,33.9289856 C27.9313508,34.689537 27.3149491,35.3059387 26.5543976,35.3059387 Z" id="Shape" fill="#005AB1"></path>
            <path d="M26.5543976,32.5520325 L23.5,32.5520325 L23.5,35.3059387 L26.5543976,35.3059387 C27.3149491,35.3059387 27.9313508,34.689537 27.9313508,33.9289856 C27.9313508,33.1684342 27.3149491,32.5520325 26.5543976,32.5520325 Z" id="Shape" fill="#00345C"></path>
        </g>
    </g>
</svg>