<?xml version="1.0" encoding="UTF-8"?>
<svg width="73px" height="73px" viewBox="0 0 73 73" version="1.1" xmlns="http://www.w3.org/2000/svg" xmlns:xlink="http://www.w3.org/1999/xlink">
    <!-- Generator: Sketch 51.3 (57544) - http://www.bohemiancoding.com/sketch -->
    <title>architecture-and-paradigms/architecture/chain-of-responsibility</title>
    <desc>Created with Sketch.</desc>
    <defs></defs>
    <g id="architecture-and-paradigms/architecture/chain-of-responsibility" stroke="none" stroke-width="1" fill="none" fill-rule="evenodd">
        <g id="container" transform="translate(2.000000, 2.000000)" fill="#FFFFFF" fill-rule="nonzero" stroke="#035D6A" stroke-width="2">
            <rect id="mask" x="-1" y="-1" width="71" height="71" rx="14"></rect>
        </g>
        <g id="broken-link" transform="translate(10.000000, 10.000000)" fill-rule="nonzero">
            <g id="Group" fill="#4ACFD9">
                <path d="M26.228582,12.2008691 L16.9283242,2.90071484 C15.0575898,1.0301875 12.5667969,0 9.91462305,0 C7.26244922,0 4.77155273,1.0301875 2.90071484,2.90081836 C-0.966628906,6.76826562 -0.966628906,13.0609805 2.90071484,16.9285312 L12.2008691,26.228582 C14.0716035,28.0992129 16.5626035,29.1295039 19.2147773,29.1295039 C21.8669512,29.1295039 24.3579512,28.0992129 26.228582,26.228582 C28.0992129,24.3578477 29.1295039,21.8669512 29.1295039,19.2147773 C29.1296074,16.5626035 28.0993164,14.071707 26.228582,12.2008691 Z M13.4407793,6.3884668 L22.7410371,15.6885176 C24.6853711,17.6329551 24.6853711,20.7967031 22.7411406,22.7411406 C20.7964961,24.6853711 17.632541,24.6853711 15.6884141,22.7411406 L11.0382852,18.0911152 L11.0382852,18.0912187 L6.38825977,13.4410898 C4.44392578,11.4966523 4.44392578,8.3329043 6.38825977,6.3884668 C8.33269727,4.4440293 11.4964453,4.4440293 13.4407793,6.3884668 Z" id="Shape"></path>
                <path d="M50.0988711,36.0712617 L40.7987168,26.7710039 C38.9279824,24.900373 36.4370859,23.8701855 33.7849121,23.8701855 C31.1327383,23.8701855 28.6417383,24.900373 26.7711074,26.7710039 C24.900373,28.6417383 23.870082,31.1326348 23.870082,33.7848086 C23.870082,36.4370859 24.9002695,38.9280859 26.7711074,40.7987168 L36.0711582,50.0988711 C37.9418926,51.969502 40.4327891,52.9998965 43.0849629,52.9998965 C45.7371367,52.9998965 48.2281367,51.9696055 50.0987676,50.0988711 C51.9693984,48.2281367 52.999793,45.7372402 52.999793,43.0850664 C52.999793,40.4328926 51.9696055,37.9420996 50.0988711,36.0712617 Z M39.5588066,46.6113262 L34.9086777,41.9613008 L30.2586523,37.3111719 C28.3142148,35.3668379 28.3142148,32.2029863 30.2586523,30.2585488 C32.2029863,28.3142148 35.3667344,28.3142148 37.3111719,30.2585488 L46.6113262,39.5587031 C48.5556602,41.5031406 48.5556602,44.6668887 46.6113262,46.6113262 C44.6668887,48.5558672 41.5032441,48.5558672 39.5588066,46.6113262 Z" id="Shape"></path>
            </g>
            <path d="M37.3887051,33.9013672 L17.5483828,14.0609414 C16.5867227,13.0993848 15.0223945,13.0993848 14.0609414,14.0609414 C13.5951211,14.5266582 13.3385059,15.1458887 13.3385059,15.8047656 C13.3385059,16.4635391 13.5951211,17.082873 14.0608379,17.5485898 L33.9011602,37.3888086 C34.3669805,37.8545254 34.9862109,38.1111406 35.6449844,38.1111406 C36.3036543,38.1111406 36.9229883,37.8545254 37.3887051,37.3888086 C37.8545254,36.9230918 38.1111406,36.3038613 38.1111406,35.6449844 C38.1110371,34.9863145 37.8544219,34.367084 37.3887051,33.9013672 Z" id="Shape" fill="#0295AA"></path>
            <g id="Group" transform="translate(30.951172, 8.384766)" fill="#FD6A33">
                <path d="M4.39123633,9.65614453 C4.18089258,9.65614453 3.97044531,9.57591992 3.80989258,9.41536719 C3.48889063,9.09436523 3.48889063,8.57378516 3.80989258,8.25288672 L8.41323242,3.64954688 C8.73433789,3.32854492 9.25481445,3.32854492 9.57581641,3.64954688 C9.89681836,3.97054883 9.89681836,4.49112891 9.57581641,4.81202734 L4.97247656,9.41536719 C4.81202734,9.57581641 4.60158008,9.65614453 4.39123633,9.65614453 Z" id="Shape"></path>
                <path d="M0.883919922,8.20330273 C0.429796875,8.20330273 0.0619023438,7.83530469 0.0619023438,7.38128516 L0.0619023438,0.8711875 C0.0619023438,0.417167969 0.429796875,0.0491699219 0.883919922,0.0491699219 C1.33804297,0.0491699219 1.7059375,0.417167969 1.7059375,0.8711875 L1.7059375,7.38128516 C1.7059375,7.83530469 1.33804297,8.20330273 0.883919922,8.20330273 Z" id="Shape"></path>
                <path d="M12.3541758,13.1634609 L5.84418164,13.1634609 C5.39005859,13.1634609 5.02216406,12.7954629 5.02216406,12.3414434 C5.02216406,11.8874238 5.39005859,11.5194258 5.84418164,11.5194258 L12.3541758,11.5194258 C12.8082988,11.5194258 13.1761934,11.8874238 13.1761934,12.3414434 C13.1761934,12.7953594 12.8080918,13.1634609 12.3541758,13.1634609 Z" id="Shape"></path>
            </g>
        </g>
    </g>
</svg>