<?xml version="1.0" encoding="UTF-8"?>
<svg width="73px" height="73px" viewBox="0 0 73 73" version="1.1" xmlns="http://www.w3.org/2000/svg" xmlns:xlink="http://www.w3.org/1999/xlink">
    <!-- Generator: Sketch 51.3 (57544) - http://www.bohemiancoding.com/sketch -->
    <title>architecture-and-paradigms/architecture/constructor</title>
    <desc>Created with Sketch.</desc>
    <defs></defs>
    <g id="architecture-and-paradigms/architecture/constructor" stroke="none" stroke-width="1" fill="none" fill-rule="evenodd">
        <g id="container" transform="translate(2.000000, 2.000000)" fill="#FFFFFF" fill-rule="nonzero" stroke="#23363A" stroke-width="2">
            <rect id="mask" x="-1" y="-1" width="71" height="71" rx="14"></rect>
        </g>
        <g id="sketch" transform="translate(12.000000, 12.000000)" fill-rule="nonzero">
            <path d="M44.9418934,10.006406 L0.00333954579,10.006406 C0.00333954579,10.006406 0.0419579906,36.7732091 0.00354439646,38.2542879 C0.00325701297,38.2670285 0.00325701297,38.2797692 0.00364019096,38.2924141 C0.0422453741,39.7175488 0.626112846,41.0511041 1.64756959,42.0475584 C2.67142119,43.0461203 4.02288999,43.5961723 5.45338924,43.5961723 L29.1895418,43.5961723 C29.3804602,43.5961723 29.5636193,43.5203031 29.6985938,43.3854244 L45.4510412,27.632977 C45.5860156,27.4979067 45.6617891,27.3149392 45.6617891,27.123925 L45.6617891,10.7262059 C45.6617891,10.3285629 45.3394406,10.006406 44.9418934,10.006406 Z" id="Shape" fill="#E0E0E2"></path>
            <g id="Group" transform="translate(12.932257, 9.962628)" fill="#C6C5CA">
                <polygon id="Shape" points="0.0919627191 18.8669182 3.0336202 18.8669182 5.39236814 11.464973 16.8136589 0.0437780861 14.1261442 0.0437780861 2.70485347 11.464973"></polygon>
                <path d="M32.0096361,0.0437780861 L29.6100796,0.0437780861 L29.6100796,20.5789575 L32.518688,17.6703491 C32.6536625,17.5352788 32.7294359,17.3523113 32.7294359,17.1612971 L32.7294359,0.763577952 C32.7295317,0.365934986 32.4071832,0.0437780861 32.0096361,0.0437780861 Z" id="Shape"></path>
            </g>
            <path d="M32.8006112,29.419257 L12.8644349,29.419257 C12.4668877,29.419257 12.1445392,29.0970043 12.1445392,28.6993613 C12.1445392,28.3017184 12.4668877,27.9794657 12.8644349,27.9794657 L32.8006112,27.9794657 C33.1982542,27.9794657 33.5205069,28.3017184 33.5205069,28.6993613 C33.5205069,29.0970043 33.1981584,29.419257 32.8006112,29.419257 Z" id="Shape" fill="#3C5156"></path>
            <path d="M5.47063225,32.5479053 C5.78110222,32.5479053 6.08524976,32.5748236 6.38182953,32.624062 L6.38182953,2.88456395 C6.38182953,2.48692099 6.05948104,2.16466829 5.66193386,2.16466829 C2.53999114,2.16466829 0,4.70456364 0,7.82660216 L0,37.3114784 C0.370820506,34.6207067 2.67803101,32.5479053 5.47063225,32.5479053 Z" id="Shape" fill="#919191"></path>
            <path d="M39.0795575,9.31946363 L34.7562559,4.9960663 C34.6211857,4.86109185 34.4381224,4.7853184 34.247204,4.7853184 C34.0562855,4.7853184 33.8732222,4.86118765 33.738152,4.9960663 L17.8155735,20.918549 C17.8059941,20.9281284 17.7974684,20.9383784 17.7884637,20.9485326 L23.2075585,26.2092791 L39.0794617,10.3375676 C39.3607143,10.0563149 39.3607143,9.60062049 39.0795575,9.31946363 Z" id="Shape" fill="#FFD039"></path>
            <path d="M21.2298811,24.2894616 L23.2075585,26.2093749 L39.0794617,10.3376634 C39.3606185,10.0564107 39.3606185,9.60071628 39.0794617,9.31955943 L37.6388082,7.87890596 L21.2298811,24.2894616 Z" id="Shape" fill="#FFA304"></path>
            <path d="M17.7903796,20.9503527 C17.7266763,21.0203785 17.6759052,21.1027618 17.643335,21.1949161 L15.2869819,27.8701642 C15.1947318,28.1315874 15.2607343,28.4227068 15.4567298,28.6187982 C15.5940991,28.7561675 15.7781203,28.8295461 15.9657818,28.8295461 C16.0461534,28.8295461 16.1270039,28.8161348 16.2053638,28.7884502 L22.8805161,26.4320971 C23.0089765,26.3867863 23.1185654,26.3059358 23.2012361,26.2030525 L17.7903796,20.9503527 Z" id="Shape" fill="#FFC89F"></path>
            <path d="M15.9658776,28.8295461 C16.0462491,28.8295461 16.1270997,28.8161348 16.2054596,28.7884502 L22.8806119,26.4320971 C23.0090723,26.3867863 23.1186612,26.3059358 23.2013319,26.2030525 L21.2276778,24.2870667 L15.8757349,26.2024777 L15.2870777,27.8699726 C15.1948276,28.1313958 15.2608301,28.4225152 15.4568256,28.6186066 C15.5941949,28.7560717 15.7781203,28.8295461 15.9658776,28.8295461 Z" id="Shape" fill="#F7B081"></path>
            <path d="M15.9658776,28.8295461 C16.0462491,28.8295461 16.1270997,28.8161348 16.2054596,28.7884502 L20.4150531,27.302486 L16.7662406,23.6798254 L15.2871735,27.8699726 C15.1949234,28.1313958 15.2609258,28.4225152 15.4569214,28.6186066 C15.5941949,28.7560717 15.7781203,28.8295461 15.9658776,28.8295461 Z" id="Shape" fill="#3C5156"></path>
            <path d="M18.3979083,25.299902 L15.8757349,26.2025735 L15.2870777,27.8700684 C15.1948276,28.1314916 15.2608301,28.422611 15.4568256,28.6187024 C15.5941949,28.7560717 15.7782161,28.8294503 15.9658776,28.8294503 C16.0462491,28.8294503 16.1270997,28.816039 16.2054596,28.7883544 L20.4150531,27.3023902 L18.3979083,25.299902 Z" id="Shape" fill="#304144"></path>
            <path d="M41.4185717,6.98035355 L37.0951744,2.65705202 C36.8139218,2.37599096 36.3582273,2.37599096 36.0770705,2.65705202 L33.2310159,5.50310659 L38.5703139,10.8468111 L41.4185717,7.99855329 C41.5535462,7.86348304 41.6293196,7.68051555 41.6293196,7.48950132 C41.6293196,7.29858288 41.5534504,7.11551959 41.4185717,6.98035355 Z" id="Shape" fill="#FF6137"></path>
            <path d="M36.621279,8.89624354 L37.297684,9.57312747 L38.5707929,10.8462364 L41.4185717,7.99845749 C41.5535462,7.86338725 41.6293196,7.68041975 41.6293196,7.48940552 C41.6293196,7.29848709 41.5534504,7.1154238 41.4185717,6.98035355 L39.9779183,5.53970008 L36.621279,8.89624354 Z" id="Shape" fill="#E04F32"></path>
            <path d="M43.3540996,2.9586131 L41.1168191,0.721428372 C40.7023163,0.306925575 40.1509231,0.0786472837 39.5646608,0.0786472837 C38.9783985,0.0786472837 38.4271011,0.306925575 38.0125025,0.721428372 L36.5870804,2.14685052 L36.0768789,2.65705202 L35.5581517,3.17577923 L40.9095198,8.50741366 L41.6737683,7.74306936 L43.3540038,6.06283384 C43.7685066,5.64833105 43.9967849,5.09693791 43.9967849,4.51067558 C43.9967849,3.92441324 43.7686024,3.37321169 43.3540996,2.9586131 Z" id="Shape" fill="#546F7A"></path>
            <g id="Group" transform="translate(35.539759, 1.149534)" fill="#475D63">
                <polygon id="Shape" points="0.0273014322 2.01752794 0.0184883383 2.02634104 1.61509525 3.6169129"></polygon>
                <path d="M7.81434046,1.80907911 L6.04884785,0.0435864971 C6.33757247,0.42733926 6.49601657,0.892229964 6.49601657,1.3826978 C6.49601657,1.97547416 6.26773828,2.53280655 5.85323548,2.95209908 L4.17299997,4.65101452 L3.41871408,5.41392191 L5.37004803,7.35807126 L6.13429654,6.59372696 L7.81453205,4.91349144 C8.22903485,4.49898865 8.45731314,3.94759551 8.45731314,3.36133318 C8.45731314,2.77507084 8.22884326,2.22367771 7.81434046,1.80907911 Z" id="Shape"></path>
            </g>
            <path d="M48.6023928,23.0738294 C48.3334019,22.9623246 48.023794,23.0239205 47.8178359,23.2297828 L23.3084301,47.7391886 C23.1025677,47.9451468 23.0409719,48.2547546 23.1523809,48.5237455 C23.2637899,48.7927365 23.5263626,48.9681362 23.8174821,48.9681362 L48.3269836,48.9681362 C48.7245308,48.9681362 49.0468793,48.6458835 49.0468793,48.2482406 L49.0468793,23.7389306 C49.0467835,23.4478111 48.871288,23.1851426 48.6023928,23.0738294 Z M35.2554411,43.1449802 L43.1226601,35.2777612 L43.1226601,43.1449802 L35.2554411,43.1449802 Z" id="Shape" fill="#FFCA10"></path>
            <path d="M48.6023928,23.0738294 C48.3334019,22.9623246 48.023794,23.0239205 47.8178359,23.2297828 L45.9272356,25.1203831 L45.9272356,48.968232 L48.326792,48.968232 C48.7243392,48.968232 49.0466877,48.6459793 49.0466877,48.2483364 L49.0466877,23.7389306 C49.0467835,23.4478111 48.871288,23.1851426 48.6023928,23.0738294 Z" id="Shape" fill="#FFA304"></path>
            <g id="Group" transform="translate(45.502387, 31.803774)" fill="#C96E14">
                <path d="M3.54439646,0.0242360083 L0.776510209,0.0242360083 C0.378867244,0.0242360083 0.0566145489,0.346488703 0.0566145489,0.744131668 C0.0566145489,1.14177463 0.378867244,1.46402733 0.776510209,1.46402733 L3.54439646,1.46402733 L3.54439646,0.0242360083 Z" id="Shape"></path>
                <path d="M3.54439646,3.63338955 L0.776510209,3.63338955 C0.378867244,3.63338955 0.0566145489,3.95564225 0.0566145489,4.35328521 C0.0566145489,4.75092818 0.378867244,5.07318087 0.776510209,5.07318087 L3.54439646,5.07318087 L3.54439646,3.63338955 Z" id="Shape"></path>
                <path d="M3.54439646,7.24225572 L0.776510209,7.24225572 C0.378867244,7.24225572 0.0566145489,7.56450841 0.0566145489,7.96215138 C0.0566145489,8.35979434 0.378867244,8.68204704 0.776510209,8.68204704 L3.54439646,8.68204704 L3.54439646,7.24225572 Z" id="Shape"></path>
                <path d="M3.54439646,10.8514093 L0.776510209,10.8514093 C0.378867244,10.8514093 0.0566145489,11.1737577 0.0566145489,11.5713049 C0.0566145489,11.9689479 0.378867244,12.2912006 0.776510209,12.2912006 L3.54439646,12.2912006 L3.54439646,10.8514093 Z" id="Shape"></path>
            </g>
        </g>
    </g>
</svg>