<?xml version="1.0" encoding="UTF-8"?>
<svg width="73px" height="73px" viewBox="0 0 73 73" version="1.1" xmlns="http://www.w3.org/2000/svg" xmlns:xlink="http://www.w3.org/1999/xlink">
    <!-- Generator: Sketch 51.3 (57544) - http://www.bohemiancoding.com/sketch -->
    <title>architecture-and-paradigms/architecture/css-methodologies</title>
    <desc>Created with Sketch.</desc>
    <defs></defs>
    <g id="architecture-and-paradigms/architecture/css-methodologies" stroke="none" stroke-width="1" fill="none" fill-rule="evenodd">
        <g id="container" transform="translate(2.000000, 2.000000)" fill="#FFFFFF" fill-rule="nonzero" stroke="#00415E" stroke-width="2">
            <rect id="mask" x="-1" y="-1" width="71" height="71" rx="14"></rect>
        </g>
        <g id="fabric" transform="translate(11.000000, 11.000000)" fill-rule="nonzero">
            <path d="M25.9467343,51.1596747 L0,33.7302777 L25.9467343,16.3004831 L35.8362585,22.9451749 C39.6248777,25.4915912 44.1870413,26.4392429 48.6792442,25.6168053 L51.9356043,25.0193554 L50.421508,27.9632767 C46.9453278,34.7184748 41.7773667,40.5260213 35.4765166,44.7562683 L25.9467343,51.1596747 Z" id="Shape" fill="#40C4FF"></path>
            <path d="M25.9467343,43.0187745 L0,25.5893775 L25.9467343,8.15958295 L35.8362585,14.8042747 C39.6248777,17.350691 44.1870413,18.2983427 48.6792442,17.4759051 L51.9356043,16.8784552 L50.421508,19.8223765 C46.9453278,26.5775746 41.7773667,32.3851211 35.4765166,36.6153681 L25.9467343,43.0187745 Z" id="Shape" fill="#FFEE58"></path>
            <path d="M25.9467343,34.8778743 L0,17.4484773 L25.9467343,0.0186827554 L35.8362585,6.66337454 C39.6248777,9.20979083 44.1870413,10.1574425 48.6792442,9.33500489 L51.9356043,8.73755501 L50.421508,11.6814763 C46.9453278,18.4366744 41.7773667,24.2442209 35.4765166,28.4744679 L25.9467343,34.8778743 Z" id="Shape" fill="#FE9D58"></path>
            <g id="Group" transform="translate(12.821918, 9.056751)" fill="#F9873A">
                <polygon id="Shape" points="0.0993761722 6.53219787 3.35573625 6.53219787 3.35573625 9.78855795 0.0993761722 9.78855795"></polygon>
                <polygon id="Shape" points="6.61209633 3.27583779 9.86845641 3.27583779 9.86845641 6.53219787 6.61209633 6.53219787"></polygon>
                <polygon id="Shape" points="11.4966364 0.0194777143 14.7529965 0.0194777143 14.7529965 3.27583779 11.4966364 3.27583779"></polygon>
                <polygon id="Shape" points="6.61209633 9.78855795 9.86845641 9.78855795 9.86845641 13.044918 6.61209633 13.044918"></polygon>
                <polygon id="Shape" points="11.4966364 14.6730981 14.7529965 14.6730981 14.7529965 17.9294581 11.4966364 17.9294581"></polygon>
                <polygon id="Shape" points="13.1248165 6.53219787 16.3811766 6.53219787 16.3811766 9.78855795 13.1248165 9.78855795"></polygon>
                <polygon id="Shape" points="18.0093566 3.27583779 21.2657167 3.27583779 21.2657167 6.53219787 18.0093566 6.53219787"></polygon>
                <polygon id="Shape" points="18.0093566 9.78855795 21.2657167 9.78855795 21.2657167 13.044918 18.0093566 13.044918"></polygon>
            </g>
            <polygon id="Shape" fill="#FFFFFF" points="40.6003546 12.3325893 43.8567147 12.3325893 43.8567147 15.5889493 40.6003546 15.5889493"></polygon>
        </g>
    </g>
</svg>