<?xml version="1.0" encoding="UTF-8"?>
<svg width="73px" height="73px" viewBox="0 0 73 73" version="1.1" xmlns="http://www.w3.org/2000/svg" xmlns:xlink="http://www.w3.org/1999/xlink">
    <!-- Generator: Sketch 51.3 (57544) - http://www.bohemiancoding.com/sketch -->
    <title>architecture-and-paradigms/architecture/observer</title>
    <desc>Created with Sketch.</desc>
    <defs></defs>
    <g id="architecture-and-paradigms/architecture/observer" stroke="none" stroke-width="1" fill="none" fill-rule="evenodd">
        <g id="container" transform="translate(2.000000, 2.000000)" fill="#FFFFFF" fill-rule="nonzero" stroke="#453B56" stroke-width="2">
            <rect id="mask" x="-1" y="-1" width="71" height="71" rx="14"></rect>
        </g>
        <g id="microscope" transform="translate(17.000000, 11.000000)" fill-rule="nonzero">
            <path d="M28.2480264,23.8060516 L26.5409906,22.0990158 C26.226624,21.7846492 25.7172999,21.7846492 25.4030339,22.0990158 L22.18392,25.3181297 C21.8695534,25.6324963 21.8695534,26.1418205 22.18392,26.4561871 L23.8909557,28.1632229 C24.2045175,28.4767847 24.6171677,28.6340183 25.0290131,28.6340183 C25.4416632,28.6340183 25.8542128,28.4767847 26.1677746,28.1632229 L28.2473222,26.0828705 C28.5514279,25.779469 28.7196266,25.3755708 28.7196266,24.9456179 C28.719526,24.5148602 28.5521321,24.1101572 28.2480264,23.8060516 Z" id="Shape" fill="#5C546A"></path>
            <g id="Group" transform="translate(18.308710, 18.107516)">
                <path d="M6.69978083,0.105928967 C6.42394301,0.039937132 6.13703948,0.120113188 5.93896338,0.318893472 L0.241835933,6.01602092 C0.0437598298,6.21329224 -0.0371204073,6.49939099 0.0280666494,6.77130552 C0.092549525,7.04322005 0.293744145,7.26252219 0.559321043,7.34974005 L4.44408736,8.91764972 L8.80115804,4.56057904 L7.27570043,0.646740105 C7.1909975,0.377843496 6.97250014,0.173530359 6.69978083,0.105928967 Z" id="Shape" fill="#868491"></path>
                <path d="M0.55942164,7.34974005 L4.44418795,8.91764972 L6.60703011,6.75480756 L3.0550397,3.20281715 L0.241835933,6.01602092 C0.0437598298,6.21329224 -0.0371204073,6.49939099 0.0280666494,6.77130552 C0.092549525,7.04322005 0.293744145,7.26242159 0.55942164,7.34974005 Z" id="Shape" fill="#5C546A"></path>
            </g>
            <path d="M10.1682755,7.84276747 L7.89618464,10.1148583 C7.85685109,10.1541919 7.79317299,10.1541919 7.75394004,10.1148583 L2.19372554,4.5546438 C2.15439199,4.51531025 2.15439199,4.45163215 2.19372554,4.4123992 L4.46581638,2.14030836 C4.50514992,2.10097482 4.56882802,2.10097482 4.60806097,2.14030836 L10.1682755,7.70052287 C10.2075084,7.73975582 10.2075084,7.80343392 10.1682755,7.84276747 Z" id="Shape" fill="#5C546A"></path>
            <path d="M28.988322,41.5032309 L25.4925655,41.5032309 C25.0477242,41.5032309 24.687787,41.1432937 24.687787,40.6984524 C24.687787,40.2536111 25.0477242,39.893674 25.4925655,39.893674 L28.988322,39.893674 C29.4119373,39.893674 29.8269012,39.721552 30.1263794,39.4220738 L32.0000043,37.5484489 C32.3143708,37.2340823 32.823695,37.2340823 33.1380616,37.5484489 C33.4524282,37.8628155 33.4524282,38.3721397 33.1380616,38.6865062 L31.2644367,40.5601311 C30.6654803,41.1597917 29.8355525,41.5032309 28.988322,41.5032309 Z" id="Shape" fill="#5C546A"></path>
            <path d="M12.9402344,21.3835678 C12.7256603,22.2587644 12.6162104,23.1663533 12.6162104,24.0944641 C12.6162104,29.1106483 15.9111747,33.3716486 20.4504271,34.8267887 L19.0582609,39.4514482 C12.5330164,37.3969493 7.78753955,31.2895861 7.78753955,24.0944641 C7.78753955,22.6271517 7.98994133,21.1732188 8.3800577,19.7744132 L12.9402344,21.3835678 Z" id="Shape" fill="#868491"></path>
            <path d="M37.9948997,24.838683 L35.7188856,22.5626688 C35.404519,22.2483022 34.8951948,22.2483022 34.5809288,22.5626688 L23.3831405,33.7604572 C23.1363753,34.0072224 23.0766205,34.3852671 23.235363,34.6957104 L24.7758096,37.7073926 C24.8929049,37.9368551 25.1130118,38.0964024 25.3676236,38.1365408 C25.4092709,38.1428784 25.4509182,38.1459969 25.4925655,38.1459969 C25.704021,38.1459969 25.9098431,38.0627023 26.0615439,37.9101968 L37.9948997,25.9768409 C38.3092663,25.6623737 38.3092663,25.1530496 37.9948997,24.838683 Z" id="Shape" fill="#5C546A"></path>
            <path d="M39.6044567,32.8864677 L37.3284426,30.6104536 C37.014076,30.296087 36.5047518,30.296087 36.1903852,30.6104536 L30.6952571,36.1055817 C30.3808906,36.4199483 30.3808906,36.9292724 30.6952571,37.243639 L32.9712713,39.5196532 C33.1285049,39.6768868 33.334327,39.7554533 33.5402497,39.7554533 C33.7461724,39.7554533 33.9520951,39.6768868 34.109228,39.5196532 L39.6043561,34.0245251 C39.9188233,33.7101585 39.9188233,33.2008343 39.6044567,32.8864677 Z" id="Shape" fill="#868491"></path>
            <path d="M22.2734516,33.4554461 C20.0547779,33.4554461 18.2495592,35.2606649 18.2495592,37.4793385 L18.2495592,46.3319018 C18.2495592,46.7767431 18.6094963,47.1366803 19.0543376,47.1366803 C19.499179,47.1366803 19.8591161,46.7767431 19.8591161,46.3319018 L24.687787,46.3319018 C24.687787,46.7767431 25.0477242,47.1366803 25.4925655,47.1366803 C25.9374068,47.1366803 26.297344,46.7767431 26.297344,46.3319018 L26.297344,37.4793385 C26.297344,35.2607655 24.4921252,33.4554461 22.2734516,33.4554461 Z" id="Shape" fill="#B4B6BC"></path>
            <path d="M25.3849264,18.4256045 L13.5757076,6.66165445 C12.6349215,5.72247797 11.1040317,5.72056662 10.1616361,6.66205684 L6.74686038,10.0764301 C6.29105396,10.5326389 6.03956069,11.1390395 6.03956069,11.7838683 C6.03956069,12.428697 6.29105396,13.034997 6.74686038,13.490904 L8.02323904,14.7668803 C8.33760564,15.0812469 8.84682922,15.0812469 9.16109521,14.7669809 L14.4050318,20.0107163 C14.4043276,20.0114205 14.403221,20.0117222 14.4025168,20.0124264 C14.0897598,20.3275978 14.0912688,20.8376262 14.4072449,21.1504838 L18.5529607,25.2640084 C18.7093895,25.4196324 18.9145074,25.4973941 19.1196253,25.4973941 C19.325548,25.4973941 19.5314707,25.4188276 19.6886037,25.2615941 L25.3857311,19.5644666 C25.5366271,19.4135706 25.6215312,19.2084527 25.6215312,18.9946834 C25.6215312,18.7809142 25.5358223,18.5756956 25.3849264,18.4256045 Z" id="Shape" fill="#B4B6BC"></path>
            <path d="M14.4072449,21.1503832 L18.5529607,25.2639078 C18.7093895,25.4195318 18.9145074,25.4972936 19.1196253,25.4972936 C19.325548,25.4972936 19.5314707,25.4187271 19.6886037,25.2614935 L22.5018075,22.4482897 L8.43850474,8.38508757 L6.74696097,10.0764301 C6.29115456,10.5326389 6.03966129,11.1390395 6.03966129,11.7838683 C6.03966129,12.428697 6.29115456,13.034997 6.74696097,13.490904 L8.02333964,14.7668803 C8.33770623,15.0812469 8.84692982,15.0812469 9.16119581,14.7669809 L14.4051324,20.0107163 C14.4044282,20.0114205 14.4033216,20.0117222 14.4026174,20.0124264 C14.0897598,20.3274972 14.0912688,20.8376262 14.4072449,21.1503832 Z" id="Shape" fill="#868491"></path>
            <path d="M27.9069009,45.5271233 L16.6400022,45.5271233 C14.8646609,45.5271233 13.4208883,46.9708959 13.4208883,48.7462372 L13.4208883,50.3557942 C13.4208883,50.8006355 13.7808255,51.1605727 14.2256668,51.1605727 L30.3212363,51.1605727 C30.7660777,51.1605727 31.1260148,50.8006355 31.1260148,50.3557942 L31.1260148,48.7462372 C31.1260148,46.9708959 29.6823428,45.5271233 27.9069009,45.5271233 Z" id="Shape" fill="#868491"></path>
            <circle id="Oval" fill="#5C546A" cx="11.8114319" cy="17.3598766" r="4.82867087"></circle>
            <circle id="Oval" fill="#868491" cx="11.8114319" cy="17.3598766" r="2.41433544"></circle>
            <circle id="Oval" fill="#5C546A" cx="22.2420652" cy="37.4793385" r="1.60955696"></circle>
            <path d="M5.97980589,2.51201542 L2.5654326,5.92638872 C2.2511666,6.24065471 1.74154063,6.24065471 1.42727463,5.92638872 L0.289116668,4.78823075 C-0.0251493275,4.47396476 -0.0251493275,3.96433879 0.289116668,3.65007279 L3.70359056,0.235699497 C4.01785655,-0.078566499 4.52748253,-0.078566499 4.84174852,0.235699497 L5.97990649,1.37385746 C6.29407188,1.68812346 6.29407188,2.19764883 5.97980589,2.51201542 Z" id="Shape" fill="#868491"></path>
            <path d="M1.99635361,1.94293644 L0.289116668,3.65007279 C-0.0251493275,3.96433879 -0.0251493275,4.47386416 0.289116668,4.78813016 L1.42727463,5.92628812 C1.74154063,6.24055411 2.251066,6.24055411 2.565332,5.92628812 L4.27256894,4.21905117 L1.99635361,1.94293644 Z" id="Shape" fill="#5C546A"></path>
        </g>
    </g>
</svg>