<?xml version="1.0" encoding="UTF-8"?>
<svg width="73px" height="73px" viewBox="0 0 73 73" version="1.1" xmlns="http://www.w3.org/2000/svg" xmlns:xlink="http://www.w3.org/1999/xlink">
    <!-- Generator: Sketch 51.3 (57544) - http://www.bohemiancoding.com/sketch -->
    <title>architecture-and-paradigms/architecture/oocss</title>
    <desc>Created with Sketch.</desc>
    <defs></defs>
    <g id="architecture-and-paradigms/architecture/oocss" stroke="none" stroke-width="1" fill="none" fill-rule="evenodd">
        <g id="container" transform="translate(2.000000, 2.000000)" fill-rule="nonzero">
            <rect id="mask" stroke="#490004" stroke-width="2" fill="#FFFFFF" x="-1" y="-1" width="71" height="71" rx="14"></rect>
            <g id="lego-(1)" transform="translate(16.000000, 11.000000)">
                <path d="M36.316406,5.8720557 C36.316406,5.12368478 35.7096871,4.51696592 34.9613162,4.51696592 L1.35508978,4.51696592 C0.606718862,4.51696592 0,5.12368478 0,5.8720557 L0,44.8986412 C0,45.6470122 0.606718862,46.253731 1.35508978,46.253731 L34.9613162,46.253731 C35.7096871,46.253731 36.316406,45.6470122 36.316406,44.8986412 L36.316406,5.8720557 Z" id="Shape" fill="#C3000A"></path>
                <path d="M18.158203,4.51696592 L1.35508978,4.51696592 C0.606718862,4.51696592 0,5.12368478 0,5.8720557 L0,44.8986412 C0,45.6470122 0.606718862,46.253731 1.35508978,46.253731 L18.158203,46.253731 L18.158203,4.51696592 Z" id="Shape" fill="#FF3632"></path>
                <path d="M34.9613162,4.51696592 L32.1607974,4.51696592 L32.1607974,1.35508978 C32.1607974,0.606718862 31.5540785,0 30.8057076,0 L26.0177237,0 C25.2693528,0 24.6626339,0.606718862 24.6626339,1.35508978 L24.6626339,4.51696592 L21.9524544,4.51696592 L21.9524544,1.35508978 C21.9524544,0.606718862 21.3457355,0 20.5973646,0 L15.8093807,0 C15.0610098,0 14.4542909,0.606718862 14.4542909,1.35508978 L14.4542909,4.51696592 L11.6537721,4.51696592 L11.6537721,1.35508978 C11.6537721,0.606718862 11.0470532,0 10.2986823,0 L5.51069842,0 C4.76232751,0 4.15560865,0.606718862 4.15560865,1.35508978 L4.15560865,4.51696592 L1.35508978,4.51696592 C0.606718862,4.51696592 0,5.12368478 0,5.8720557 L0,18.8809175 L36.316406,18.8809175 L36.316406,5.8720557 C36.316406,5.12368478 35.7096871,4.51696592 34.9613162,4.51696592 Z" id="Shape" fill="#3FA689"></path>
                <path d="M0,31.8897794 L0,44.8986412 C0,45.6470122 0.606718862,46.253731 1.35508978,46.253731 L34.9613162,46.253731 C35.7096871,46.253731 36.316406,45.6470122 36.316406,44.8986412 L36.316406,31.8897794 L0,31.8897794 Z" id="Shape" fill="#FFA547"></path>
                <path d="M18.158203,0 L15.8093807,0 C15.0610098,0 14.4542909,0.606718862 14.4542909,1.35508978 L14.4542909,4.51696592 L11.6537721,4.51696592 L11.6537721,1.35508978 C11.6537721,0.606718862 11.0470532,0 10.2986823,0 L5.51069842,0 C4.76232751,0 4.15560865,0.606718862 4.15560865,1.35508978 L4.15560865,4.51696592 L1.35508978,4.51696592 C0.606718862,4.51696592 0,5.12368478 0,5.8720557 L0,18.8809175 L18.158203,18.8809175 L18.158203,0 Z" id="Shape" fill="#06CCAB"></path>
                <path d="M18.158203,31.8897794 L0,31.8897794 L0,44.8986412 C0,45.6470122 0.606718862,46.253731 1.35508978,46.253731 L18.158203,46.253731 L18.158203,31.8897794 Z" id="Shape" fill="#FFD15E"></path>
            </g>
        </g>
    </g>
</svg>