<?xml version="1.0" encoding="UTF-8"?>
<svg width="73px" height="73px" viewBox="0 0 73 73" version="1.1" xmlns="http://www.w3.org/2000/svg" xmlns:xlink="http://www.w3.org/1999/xlink">
    <!-- Generator: Sketch 51.3 (57544) - http://www.bohemiancoding.com/sketch -->
    <title>architecture-and-paradigms/architecture/prototype</title>
    <desc>Created with Sketch.</desc>
    <defs></defs>
    <g id="architecture-and-paradigms/architecture/prototype" stroke="none" stroke-width="1" fill="none" fill-rule="evenodd">
        <g id="container" transform="translate(2.000000, 2.000000)" fill="#FFFFFF" fill-rule="nonzero" stroke="#173D60" stroke-width="2">
            <rect id="mask" x="-1" y="-1" width="71" height="71" rx="14"></rect>
        </g>
        <g id="blueprint-(2)" transform="translate(13.000000, 13.000000)" fill-rule="nonzero">
            <path d="M47,7.94150546 L47,8.10358431 C46.9189606,10.3723298 45.0550537,12.1551971 42.7863083,12.1551971 L38.0863801,12.1551971 C37.6001434,12.1551971 37.2759857,12.4793548 37.2759857,12.9655915 L37.2759857,42.9483871 L17.2603226,42.9483871 L28.6051254,37.7622223 L33.0619354,33.3050537 C33.3050537,33.0619354 33.3860931,32.6567383 33.2240143,32.3325806 L33.0619354,31.927742 C32.8998566,31.6035843 32.5756989,31.4415055 32.2518997,31.4415055 L25.9311829,31.8467026 L9.72401433,39.2205734 L5.99655917,40.9224015 C5.26720426,41.3275985 4.86200716,42.1379928 5.1051254,42.9483871 L4.21369173,42.9483871 C1.94494629,42.9483871 0.0810393828,41.1655197 1.13686838e-13,38.8964157 L1.13686838e-13,38.7343368 C0.0810393828,36.5466309 1.86390691,34.8448029 4.05161288,34.8448029 L8.91361995,34.8448029 C9.39985661,34.8448029 9.72401433,34.5206452 9.72401433,34.0344085 L9.72401433,4.05161288 L42.9483871,4.05161288 C45.1360931,4.05161288 46.9189606,5.75344083 47,7.94150546 Z" id="Shape" fill="#285680"></path>
            <path d="M47,8.10358431 L47,42.9483871 C47,45.2171326 45.2171326,47 42.9483871,47 L38.0863801,47 C37.6001434,47 37.2759857,46.6758423 37.2759857,46.1896057 L37.2759857,12.9655915 C37.2759857,12.4793548 37.6001434,12.1551971 38.0863801,12.1551971 L42.7863083,12.1551971 C45.0550537,12.1551971 46.9189606,10.3723298 47,8.10358431 Z" id="Shape" fill="#4482C3"></path>
            <path d="M9.72401433,0.810394287 L9.72401433,34.0344085 C9.72401433,34.5206452 9.39985661,34.8448029 8.91361995,34.8448029 L4.05161288,34.8448029 C1.86390691,34.8448029 0.0810393828,36.5466309 0,38.7343368 L0,4.05161288 C0,2.99810026 0.405197098,1.94494629 1.21559148,1.21559148 C2.02598567,0.486236572 2.99810026,2.84217094e-14 4.05161288,2.84217094e-14 L8.91361995,2.84217094e-14 C9.39985661,2.84217094e-14 9.72401433,0.324157715 9.72401433,0.810394287 Z" id="Shape" fill="#4482C3"></path>
            <path d="M32.4136199,16.20681 L30.3879928,16.20681 C30.0638351,15.3964157 29.658638,14.5863801 29.091362,13.9380646 L30.1448746,12.1551971 C30.3879928,11.75 30.225914,11.2637634 29.8207169,11.0206452 L26.9843368,9.39985661 C26.5791397,9.15673828 26.0932617,9.31881714 25.8501434,9.72401433 L24.7966309,11.5068817 C23.9051971,11.3448029 23.0137634,11.3448029 22.1223298,11.5068817 L21.1498566,9.72401433 C20.9067383,9.31881714 20.4208603,9.23777766 20.0156632,9.39985661 L17.1792831,11.0206452 C16.774086,11.2637634 16.6930465,11.75 16.8551254,12.1551971 L17.908638,13.9380646 C17.341362,14.5863801 16.9361649,15.3964157 16.6120072,16.20681 L14.5863801,16.20681 C14.1811829,16.20681 13.7759857,16.6120072 13.7759857,17.0172043 L13.7759857,20.2587814 C13.7759857,20.7446594 14.1001434,21.0688171 14.5863801,21.0688171 L16.6120072,21.0688171 C16.9361649,21.8792114 17.341362,22.6896057 17.908638,23.3379211 L16.9361649,25.1207886 C16.6930465,25.5259857 16.8551254,26.0122223 17.2603226,26.2553406 L20.0967026,27.8757706 C20.5018997,28.1188888 20.9877777,27.95681 21.230896,27.5516129 L22.2844085,25.769104 C23.1758423,25.9311829 24.067276,25.9311829 24.9587097,25.769104 L26.0122223,27.5516129 C26.2553406,27.95681 26.7412186,28.0378494 27.1464157,27.8757706 L29.9827957,26.2553406 C30.3879928,26.0122223 30.4690323,25.5259857 30.3069535,25.1207886 L29.2534408,23.3379211 C29.8207169,22.6896057 30.3069535,21.8792114 30.5500717,21.0688171 L32.5756989,21.0688171 C32.980896,21.0688171 33.3860931,20.6636199 33.3860931,20.2587814 L33.3860931,17.0172043 C33.2240143,16.6120072 32.8998566,16.20681 32.4136199,16.20681 Z" id="Shape" fill="#F29C1F"></path>
            <path d="M25.9311829,18.6379928 C25.9311829,19.9805221 24.8425293,21.0688171 23.5,21.0688171 C22.1574707,21.0688171 21.0688171,19.9805221 21.0688171,18.6379928 C21.0688171,17.2954635 22.1574707,16.20681 23.5,16.20681 C24.8425293,16.20681 25.9311829,17.2954635 25.9311829,18.6379928 Z" id="Shape" fill="#A56A43"></path>
            <path d="M3.24121859,27.5516129 C2.75534058,27.5516129 2.43118286,27.2274552 2.43118286,26.7412186 L2.43118286,8.91361995 C2.43118286,8.42774203 2.75534058,8.10358431 3.24121859,8.10358431 C3.72745516,8.10358431 4.05161288,8.42774203 4.05161288,8.91361995 L4.05161288,26.7412186 C4.05161288,27.2274552 3.72745516,27.5516129 3.24121859,27.5516129 Z" id="Shape" fill="#B0D3F0"></path>
            <path d="M3.24121859,6.48279574 C2.75534058,6.48279574 2.43118286,6.15863802 2.43118286,5.67240145 L2.43118286,4.05161288 C2.43118286,3.5653763 2.75534058,3.24121859 3.24121859,3.24121859 C3.72745516,3.24121859 4.05161288,3.5653763 4.05161288,4.05161288 L4.05161288,5.67240145 C4.05161288,6.15863802 3.72745516,6.48279574 3.24121859,6.48279574 Z" id="Shape" fill="#B0D3F0"></path>
            <path d="M35.1689606,32.3325806 L33.2240143,33.1429749 C33.3860931,32.8998566 33.3860931,32.5756989 33.3050537,32.3325806 L33.3050537,32.2518997 L33.1429749,31.927742 C33.0619354,31.7656632 32.980896,31.6846237 32.8188171,31.6035843 L34.6016846,30.8742294 C34.8448029,30.79319 35.1689606,30.79319 35.4120789,30.9552689 C35.6551971,31.1173477 35.7362366,31.4415055 35.7362366,31.6846237 C35.5741577,32.0087814 35.4120789,32.2518997 35.1689606,32.3325806 Z" id="Shape" fill="#2C2F38"></path>
            <polygon id="Shape" fill="#F0C419" points="28.6051254 37.7622223 17.2603226 42.9483871 12.3983154 45.1360931 9.72401433 39.3016129 25.9311829 31.8467026"></polygon>
            <path d="M21.3929749,38.3291397 C20.9877777,38.3291397 20.6636199,38.0863801 20.5825806,37.6811829 C20.5018997,37.2759857 20.6636199,36.951828 21.0688171,36.7897492 L26.9843368,34.115448 C27.389534,33.9533691 27.8757706,34.115448 28.0378494,34.5206452 C28.1999283,34.9258423 28.0378494,35.4120789 27.6326523,35.5741577 L21.7171326,38.2481003 C21.5550537,38.3291397 21.4740143,38.3291397 21.3929749,38.3291397 Z" id="Shape" fill="#000000"></path>
            <path d="M11.0206452,43.0294266 C10.615448,43.0294266 10.2912903,42.7863083 10.2102508,42.3811112 C10.1292114,41.975914 10.2912903,41.6517563 10.6964875,41.4896774 L17.341362,38.4912186 C17.7465592,38.3291397 18.2327957,38.4912186 18.3948746,38.8964157 C18.5569535,39.3016129 18.3948746,39.7878494 17.9896774,39.9499283 L11.3448029,42.9483871 C11.2637634,43.0294266 11.182724,43.0294266 11.0206452,43.0294266 Z" id="Shape" fill="#000000"></path>
            <path d="M12.3983154,45.1360931 L8.67086027,46.8379211 C7.86046598,47.2431183 6.88799284,46.8379211 6.56383512,46.0275269 L5.18616488,43.110466 C5.18616488,43.0294266 5.1051254,43.0294266 5.1051254,42.9483871 C4.86200716,42.1379928 5.18616488,41.3275985 5.99655917,40.9224015 L9.72401433,39.2205734 L12.3983154,45.1360931 Z" id="Shape" fill="#FB7B76"></path>
            <path d="M33.1429749,33.1429749 C33.1429749,33.2240143 33.0619354,33.2240143 33.0619354,33.3050537 L28.6051254,37.7622223 L25.9311829,31.8467026 L32.2518997,31.4415055 C32.4136199,31.4415055 32.5756989,31.4415055 32.7377777,31.5225448 C32.8998566,31.6035843 32.980896,31.7656632 33.0619354,31.8467026 L33.2240143,32.1708603 L33.2240143,32.2518997 C33.3860931,32.5756989 33.3050537,32.8998566 33.1429749,33.1429749 Z" id="Shape" fill="#FDD7AD"></path>
        </g>
    </g>
</svg>