<?xml version="1.0" encoding="UTF-8"?>
<svg width="73px" height="73px" viewBox="0 0 73 73" version="1.1" xmlns="http://www.w3.org/2000/svg" xmlns:xlink="http://www.w3.org/1999/xlink">
    <!-- Generator: Sketch 51.3 (57544) - http://www.bohemiancoding.com/sketch -->
    <title>architecture-and-paradigms/architecture/proxy</title>
    <desc>Created with Sketch.</desc>
    <defs></defs>
    <g id="architecture-and-paradigms/architecture/proxy" stroke="none" stroke-width="1" fill="none" fill-rule="evenodd">
        <g id="container" transform="translate(2.000000, 2.000000)" fill="#FFFFFF" fill-rule="nonzero" stroke="#1C4666" stroke-width="2">
            <rect id="mask" x="-1" y="-1" width="71" height="71" rx="14"></rect>
        </g>
        <g id="network" transform="translate(10.000000, 10.000000)" fill-rule="nonzero">
            <path d="M49.665536,4.75767985 L49.2013721,4.75767985 C49.202573,2.46713748 47.5327085,0.518169598 45.2690705,0.168128167 C43.0054326,-0.181913264 40.8248774,1.17163855 40.1341627,3.35555679 C39.4027411,3.58059124 38.8192547,4.13572386 38.5580942,4.85503823 C36.6420109,5.27603226 35.2768441,6.97336719 35.2764555,8.93515484 C35.2764555,11.2423106 37.1467747,13.1126298 39.4539305,13.1126298 L49.665536,13.1126298 C51.9726917,13.1126298 53.843011,11.2423106 53.843011,8.93515484 C53.843011,6.62799911 51.9726917,4.75767985 49.665536,4.75767985 Z" id="Shape" fill="#EBEBEB"></path>
            <polygon id="Shape" fill="#3775A4" points="30.6348166 4.75767985 32.4914722 4.75767985 32.4914722 11.2559743 30.6348166 11.2559743"></polygon>
            <g id="Group" transform="translate(5.569967, 28.894202)" fill="#C0F5F9">
                <polygon id="Shape" points="20.4232111 9.28327776 22.2798666 9.28327776 22.2798666 13.9249166 20.4232111 13.9249166"></polygon>
                <path d="M1.85665555,12.9965889 L0,12.9965889 L0,8.35494998 C-8.50034278e-06,7.90824878 0.318124398,7.52488035 0.757167342,7.44251982 L14.8532444,4.7994546 L14.8532444,0 L16.7099,0 L16.7099,5.56996666 C16.7099085,6.01666786 16.3917756,6.40003628 15.9527326,6.48239682 L1.85665555,9.12546204 L1.85665555,12.9965889 Z" id="Shape"></path>
                <path d="M42.7030777,12.9965889 L40.8464221,12.9965889 L40.8464221,9.12546204 L26.7503451,6.48239682 C26.3113021,6.40003628 25.9931692,6.01666786 25.9931777,5.56996666 L25.9931777,0 L27.8498333,0 L27.8498333,4.7994546 L41.9459103,7.44251982 C42.3849533,7.52488035 42.7030862,7.90824878 42.7030777,8.35494998 L42.7030777,12.9965889 Z" id="Shape"></path>
                <polygon id="Shape" points="20.4232111 5.56996666 22.2798666 5.56996666 22.2798666 7.42662221 20.4232111 7.42662221"></polygon>
                <polygon id="Shape" points="20.4232111 0 22.2798666 0 22.2798666 3.7133111 20.4232111 3.7133111"></polygon>
            </g>
            <rect id="Rectangle-path" fill="#41DFD0" x="20.4232111" y="40.9624631" width="12.9965889" height="9.28327776" rx="4.64163888"></rect>
            <rect id="Rectangle-path" fill="#41DFD0" x="0" y="40.9624631" width="12.9965889" height="9.28327776" rx="4.64163888"></rect>
            <rect id="Rectangle-path" fill="#41DFD0" x="40.8464221" y="40.9624631" width="12.9965889" height="9.28327776" rx="4.64163888"></rect>
            <path d="M25.0648499,50.2457409 L26.9215055,49.3174131 L28.7781611,50.2457409 C28.7781767,51.4667297 29.0624365,52.6709506 29.6084342,53.7630588 L29.7064888,53.959052 L24.1365222,53.959052 L24.2345768,53.7630588 C24.7805745,52.6709506 25.0648343,51.4667297 25.0648499,50.2457409 Z" id="Shape" fill="#CBCBCB"></path>
            <path d="M33.4197999,46.5324298 L20.4232111,46.5324298 L20.4232111,48.3890853 C20.4232111,49.4144879 21.2544641,50.2457409 22.2798666,50.2457409 L31.5631444,50.2457409 C32.5885469,50.2457409 33.4197999,49.4144879 33.4197999,48.3890853 L33.4197999,46.5324298 Z" id="Shape" fill="#DBDBDB"></path>
            <rect id="Rectangle-path" fill="#41DFD0" x="12.9965889" y="13.1126298" width="12.9965889" height="9.28327776" rx="4.64163888"></rect>
            <path d="M17.6382277,22.3959076 L21.3515388,22.3959076 C21.3515545,23.6168964 21.6358143,24.8211173 22.181812,25.9132255 L22.2798666,26.1092187 L16.7099,26.1092187 L16.8079546,25.9132255 C17.3539522,24.8211173 17.6382121,23.6168964 17.6382277,22.3959076 Z" id="Shape" fill="#CBCBCB"></path>
            <path d="M25.9931777,18.6825965 L12.9965889,18.6825965 L12.9965889,20.539252 C12.9965889,21.5646546 13.8278419,22.3959076 14.8532444,22.3959076 L24.1365222,22.3959076 C25.1619247,22.3959076 25.9931777,21.5646546 25.9931777,20.539252 L25.9931777,18.6825965 Z" id="Shape" fill="#DBDBDB"></path>
            <path d="M4.64163888,50.2457409 L5.56996666,49.3174131 L7.42662221,49.3174131 L8.35494998,50.2457409 C8.35496561,51.4667297 8.63922548,52.6709506 9.18522314,53.7630588 L9.28327776,53.959052 L3.7133111,53.959052 L3.81136572,53.7630588 C4.35736338,52.6709506 4.64162325,51.4667297 4.64163888,50.2457409 Z" id="Shape" fill="#CBCBCB"></path>
            <path d="M12.9965889,46.5324298 L0,46.5324298 L0,48.3890853 C0,49.4144879 0.831253005,50.2457409 1.85665555,50.2457409 L11.1399333,50.2457409 C12.1653359,50.2457409 12.9965889,49.4144879 12.9965889,48.3890853 L12.9965889,46.5324298 Z" id="Shape" fill="#DBDBDB"></path>
            <path d="M45.488061,50.2457409 L47.3447166,49.3174131 L49.2013721,50.2457409 C49.2013878,51.4667297 49.4856476,52.6709506 50.0316453,53.7630588 L50.1296999,53.959052 L44.5597332,53.959052 L44.6577879,53.7630588 C45.2037855,52.6709506 45.4880454,51.4667297 45.488061,50.2457409 Z" id="Shape" fill="#CBCBCB"></path>
            <path d="M53.843011,46.5324298 L40.8464221,46.5324298 L40.8464221,48.3890853 C40.8464221,49.4144879 41.6776751,50.2457409 42.7030777,50.2457409 L51.9863554,50.2457409 C53.011758,50.2457409 53.843011,49.4144879 53.843011,48.3890853 L53.843011,46.5324298 Z" id="Shape" fill="#DBDBDB"></path>
            <polygon id="Shape" fill="#6CBAE5" points="29.7064888 20.539252 40.8464221 20.539252 40.8464221 26.1092187 29.7064888 26.1092187"></polygon>
            <polygon id="Shape" fill="#F55648" points="36.2047833 22.3959076 38.0614388 22.3959076 38.0614388 24.2525631 36.2047833 24.2525631"></polygon>
            <polygon id="Shape" fill="#3775A4" points="29.7064888 14.9692854 40.8464221 14.9692854 40.8464221 20.539252 29.7064888 20.539252"></polygon>
            <polygon id="Shape" fill="#41DFD0" points="36.2047833 16.8259409 38.0614388 16.8259409 38.0614388 18.6825965 36.2047833 18.6825965"></polygon>
            <polygon id="Shape" fill="#6CBAE5" points="29.7064888 9.39931873 40.8464221 9.39931873 40.8464221 14.9692854 29.7064888 14.9692854"></polygon>
            <polygon id="Shape" fill="#F55648" points="36.2047833 11.2559743 38.0614388 11.2559743 38.0614388 13.1126298 36.2047833 13.1126298"></polygon>
            <polygon id="Shape" fill="#DBDBDB" points="47.3447166 8.47099095 51.0580277 8.47099095 51.0580277 10.3276465 47.3447166 10.3276465"></polygon>
            <polygon id="Shape" fill="#DBDBDB" points="43.6314055 8.47099095 45.488061 8.47099095 45.488061 10.3276465 43.6314055 10.3276465"></polygon>
            <path d="M47.3447166,23.3242354 C46.165064,23.3257559 45.1138984,24.0691544 44.7194056,25.1808909 L9.12360538,25.1808909 C8.67147605,23.9020761 7.36380577,23.1349752 6.02695173,23.3643431 C4.69009769,23.593711 3.71291459,24.7528307 3.71291459,26.1092187 C3.71291459,27.4656067 4.69009769,28.6247264 6.02695173,28.8540943 C7.36380577,29.0834621 8.67147605,28.3163613 9.12360538,27.0375465 L44.7194056,27.0375465 C45.1915216,28.3728921 46.5906796,29.1412153 47.9708181,28.823003 C49.3509566,28.5047907 50.2724501,27.2014053 50.112217,25.7941503 C49.9519839,24.3868952 48.7610645,23.3240337 47.3447166,23.3242354 Z M6.49829443,27.0375465 C5.98559316,27.0375465 5.56996666,26.62192 5.56996666,26.1092187 C5.56996666,25.5965174 5.98559316,25.1808909 6.49829443,25.1808909 C7.0109957,25.1808909 7.42662221,25.5965174 7.42662221,26.1092187 C7.42604666,26.6216814 7.01075711,27.0369709 6.49829443,27.0375465 Z M47.3447166,27.0375465 C46.8320153,27.0375465 46.4163888,26.62192 46.4163888,26.1092187 C46.4163888,25.5965174 46.8320153,25.1808909 47.3447166,25.1808909 C47.8574178,25.1808909 48.2730443,25.5965174 48.2730443,26.1092187 C48.2724688,26.6216814 47.8571793,27.0369709 47.3447166,27.0375465 Z" id="Shape" fill="#3775A4"></path>
        </g>
    </g>
</svg>