<?xml version="1.0" encoding="UTF-8"?>
<svg width="73px" height="73px" viewBox="0 0 73 73" version="1.1" xmlns="http://www.w3.org/2000/svg" xmlns:xlink="http://www.w3.org/1999/xlink">
    <!-- Generator: Sketch 51.3 (57544) - http://www.bohemiancoding.com/sketch -->
    <title>architecture-and-paradigms/architecture/singleton</title>
    <desc>Created with Sketch.</desc>
    <defs>
        <rect id="path-1" x="0" y="0" width="69" height="69" rx="14"></rect>
    </defs>
    <g id="architecture-and-paradigms/architecture/singleton" stroke="none" stroke-width="1" fill="none" fill-rule="evenodd">
        <g id="container" transform="translate(2.000000, 2.000000)">
            <rect id="mask" stroke="#202627" stroke-width="2" fill="#FFFFFF" fill-rule="nonzero" x="-1" y="-1" width="71" height="71" rx="14"></rect>
            <mask id="mask-2" fill="white">
                <use xlink:href="#path-1"></use>
            </mask>
            <rect stroke="#202627" stroke-width="2" x="-1" y="-1" width="71" height="71" rx="14"></rect>
            <g id="leaning-tower-of-pisa" mask="url(#mask-2)">
                <g transform="translate(0.000000, 10.000000)">
                    <g id="Group" stroke-width="1" fill="none" fill-rule="evenodd" transform="translate(0.000000, 51.058096)">
                        <polygon id="Shape" fill="#506263" fill-rule="nonzero" points="42.9965493 2.56074105 41.3313452 4.22594513 40.4497666 3.14846014 39.4702348 3.93208559 38.6866093 3.93208559 38.0009371 4.9116174 31.4380739 4.9116174 30.0667294 3.93208559 29.0871976 3.93208559 28.4994785 2.95255377 28.0097126 2.95255377 26.8342744 1.7771156 25.8547426 2.75664741 25.6588362 2.56074105 25.6588362 2.46278787 25.6588362 2.56074105 25.3649767 2.75664741 24.3854448 1.7771156 23.1120535 2.95255377 22.7202408 2.95255377 22.1325217 3.93208559 21.0550367 3.93208559 19.7816453 4.9116174 13.2187822 4.9116174 12.5331099 3.93208559 11.6515312 3.93208559 10.6719994 3.14846014 9.88837398 4.12799195 8.32112308 2.56074105 6.0681999 4.81366422 0.666769148 4.9116174 6.0681999 9.80927648 25.4629298 9.80927648 25.6588362 9.80927648 45.2494725 9.80927648 45.2494725 6.08705558 45.2494725 4.81366422"></polygon>
                        <polygon id="Shape" fill="#506263" fill-rule="nonzero" points="65.8196406 5.89114922 65.8196406 3.93208559 64.8401088 3.93208559 64.8401088 2.95255377 63.860577 2.95255377 63.860577 3.93208559 61.9015134 3.93208559 61.9015134 4.9116174 57.9833861 4.9116174 57.9833861 3.93208559 56.0243225 3.93208559 56.0243225 5.89114922 52.1061952 5.89114922 52.1061952 3.93208559 51.1266634 3.93208559 51.1266634 3.93208559 50.1471316 3.93208559 50.1471316 3.93208559 50.1471316 3.93208559 50.1471316 1.97302196 48.1880679 1.97302196 48.1880679 3.93208559 48.1880679 3.93208559 48.1880679 4.9116174 47.2085361 4.9116174 47.2085361 3.93208559 46.2290043 3.93208559 46.2290043 3.93208559 45.2494725 3.93208559 45.2494725 3.93208559 45.2494725 3.93208559 45.2494725 0.0139583284 42.3108771 0.0139583284 42.3108771 3.93208559 42.3108771 3.93208559 42.3108771 4.9116174 40.3518134 4.9116174 40.3518134 3.93208559 39.3722816 3.93208559 39.3722816 3.93208559 38.3927498 3.93208559 38.3927498 3.93208559 38.3927498 3.93208559 38.3927498 5.89114922 38.3927498 5.89114922 38.3927498 9.80927648 66.7991724 9.80927648 66.7991724 5.89114922"></polygon>
                    </g>
                    <path d="M40.2538602,59.8878405 L41.6252048,52.051586 C41.723158,51.6597733 41.4292984,51.1700074 40.9395325,51.0720542 L21.250943,47.4477865 C20.8591303,47.3498333 20.3693644,47.6436928 20.3693644,48.0355056 L18.3123476,59.593981 L18.3123476,59.7898873 L40.2538602,59.7898873 L40.2538602,59.8878405 Z" id="Shape" fill="#B4CFD1" fill-rule="nonzero"></path>
                    <path d="M38.490703,10.1276243 C38.490703,10.3235307 38.2947966,10.4214839 38.0988902,10.3235307 C37.9029839,10.3235307 37.8050307,10.1276243 37.9029839,9.93171795 L39.6661412,0.234352987 C39.6661412,0.0384466237 39.8620475,-0.0595065578 40.0579539,0.0384466237 C40.2538602,0.0384466237 40.3518134,0.234352987 40.2538602,0.43025935 L38.490703,10.1276243 Z" id="Shape" fill="#506263" fill-rule="nonzero"></path>
                    <path d="M42.5067834,19.6290829 C42.5067834,19.7270361 42.3108771,19.8249893 42.2129239,19.8249893 L30.948308,17.7679725 C30.8503548,17.7679725 30.7524016,17.5720661 30.7524016,17.4741129 L32.8094184,6.20949706 C32.8094184,6.11154388 33.0053248,6.01359069 33.103278,6.01359069 L44.3678939,8.07060751 C44.465847,8.07060751 44.5638002,8.26651387 44.5638002,8.36446705 L42.5067834,19.6290829 Z" id="Shape" fill="#A3BCBF" fill-rule="nonzero"></path>
                    <path d="M39.6661412,19.139317 C39.6661412,19.2372702 39.568188,19.4331766 39.4702348,19.3352234 L33.6909971,18.2577384 C33.5930439,18.2577384 33.5930439,18.1597852 33.5930439,17.9638788 L35.6500607,6.69926296 C35.6500607,6.60130978 35.7480139,6.40540342 35.8459671,6.5033566 L41.6252048,7.5808416 C41.723158,7.5808416 41.723158,7.67879478 41.723158,7.87470114 L39.6661412,19.139317 Z" id="Shape" fill="#95ACAD" fill-rule="nonzero"></path>
                    <path d="M44.1719875,19.8249893 C44.0740343,20.1188488 44.3678939,20.4127084 44.0740343,20.4127084 L29.0871976,17.6700193 C28.793338,17.5720661 29.0871976,17.3761597 29.1851507,17.0823002 L30.6544485,9.05013932 C30.7524016,8.75627978 31.0462612,8.56037341 31.3401207,8.56037341 L45.2494725,11.1071561 C45.543332,11.2051093 45.7392384,11.4989689 45.7392384,11.7928284 L44.1719875,19.8249893 Z" id="Shape" fill="#B4CFD1" fill-rule="nonzero"></path>
                    <path d="M44.8576598,16.1027684 L29.870823,13.3600793 L29.1851507,17.0823002 C29.0871976,17.3761597 28.793338,17.5720661 29.0871976,17.6700193 L44.0740343,20.4127084 C44.3678939,20.5106616 44.0740343,20.1188488 44.1719875,19.8249893 L44.8576598,16.1027684 Z" id="Shape" fill="#A3BCBF" fill-rule="nonzero"></path>
                    <path d="M35.1602948,11.4010157 C34.4746225,11.3030625 33.8869034,11.6948752 33.6909971,12.3805475 L32.8094184,17.1802534 L35.258248,17.5720661 L36.1398266,12.7723602 C36.2377798,12.1846411 35.7480139,11.4989689 35.1602948,11.4010157 Z" id="Shape" fill="#D6E5E5" fill-rule="nonzero"></path>
                    <path d="M35.0623416,11.4989689 C34.3766694,11.4010157 33.7889503,11.7928284 33.5930439,12.4785007 L32.7114653,17.1802534 L35.1602948,17.5720661 L36.0418734,12.8703134 C36.2377798,12.2825943 35.7480139,11.6948752 35.0623416,11.4989689 Z" id="Shape" fill="#506263" fill-rule="nonzero"></path>
                    <path d="M34.9643884,12.3805475 C34.2787162,12.2825943 33.6909971,12.674407 33.4950907,13.3600793 L32.8094184,17.1802534 L35.258248,17.5720661 L35.9439203,13.751892 C36.0418734,13.1641729 35.5521075,12.4785007 34.9643884,12.3805475 Z" id="Shape" fill="#394747" fill-rule="nonzero"></path>
                    <path d="M40.645673,12.3805475 C39.9600007,12.2825943 39.3722816,12.674407 39.1763752,13.3600793 L38.2947966,18.1597852 L40.7436261,18.5515979 L41.6252048,13.751892 C41.723158,13.1641729 41.2333921,12.4785007 40.645673,12.3805475 Z" id="Shape" fill="#D6E5E5" fill-rule="nonzero"></path>
                    <path d="M40.5477198,12.4785007 C39.8620475,12.3805475 39.2743284,12.7723602 39.0784221,13.4580325 L38.1968434,18.1597852 L40.645673,18.5515979 L41.5272516,13.8498452 C41.723158,13.2621261 41.2333921,12.674407 40.5477198,12.4785007 Z" id="Shape" fill="#506263" fill-rule="nonzero"></path>
                    <path d="M40.4497666,13.3600793 C39.7640943,13.2621261 39.1763752,13.6539389 38.9804689,14.3396111 L38.2947966,18.1597852 L40.7436261,18.5515979 L41.4292984,14.7314238 C41.5272516,14.1437048 41.0374857,13.4580325 40.4497666,13.3600793 Z" id="Shape" fill="#394747" fill-rule="nonzero"></path>
                    <path d="M45.1515193,11.1071561 L31.2421675,8.65832659 C30.948308,8.56037341 30.6544485,8.85423296 30.5564953,9.1480925 L30.3605889,10.4214839 L45.3474257,13.1641729 L45.543332,11.8907816 C45.6412852,11.4989689 45.4453789,11.2051093 45.1515193,11.1071561 Z" id="Shape" fill="#A3BCBF" fill-rule="nonzero"></path>
                    <path d="M46.2290043,11.4010157 C46.2290043,11.4989689 46.1310511,11.4989689 46.1310511,11.4989689 L30.4585421,8.65832659 C30.3605889,8.65832659 30.3605889,8.56037341 30.3605889,8.56037341 C30.3605889,8.46242023 30.4585421,8.46242023 30.4585421,8.46242023 L46.1310511,11.3030625 C46.1310511,11.3030625 46.2290043,11.3030625 46.2290043,11.4010157 Z" id="Shape" fill="#B4CFD1" fill-rule="nonzero"></path>
                    <path d="M46.1310511,11.596922 C46.1310511,11.6948752 46.033098,11.6948752 46.033098,11.6948752 L30.3605889,8.85423296 C30.2626357,8.85423296 30.2626357,8.75627978 30.2626357,8.75627978 C30.2626357,8.65832659 30.3605889,8.65832659 30.3605889,8.65832659 L46.033098,11.4989689 C46.1310511,11.4989689 46.1310511,11.596922 46.1310511,11.596922 Z" id="Shape" fill="#A3BCBF" fill-rule="nonzero"></path>
                    <path d="M46.3269575,26.0939929 C46.2290043,26.4858056 46.620817,26.9755715 46.2290043,26.8776184 L24.9731639,23.0574443 C24.5813512,22.9594911 25.0711171,22.6656315 25.0711171,22.2738188 L26.2465553,15.6130025 C26.3445085,15.2211898 26.7363212,14.9273302 27.2260871,14.9273302 L46.9146766,18.4536447 C47.3064893,18.5515979 47.6003489,18.9434107 47.6003489,19.3352234 L46.3269575,26.0939929 Z" id="Shape" fill="#B4CFD1" fill-rule="nonzero"></path>
                    <g id="Group" stroke-width="1" fill="none" fill-rule="evenodd" transform="translate(24.733546, 14.815419)">
                        <path d="M21.7893179,10.0051828 L0.533477515,6.18500876 L0.337571152,7.45840012 C0.23961797,7.85021285 -0.250147937,8.14407239 0.23961797,8.24202557 L21.4954584,12.0621997 C21.8872711,12.1601528 21.5934115,11.6703869 21.5934115,11.2785742 L21.7893179,10.0051828 Z" id="Shape" fill="#A3BCBF" fill-rule="nonzero"></path>
                        <path d="M22.0831774,3.63822604 L2.39458796,0.11191151 C2.00277524,0.0139583284 1.51300933,0.307817873 1.41505615,0.79758378 L1.1211966,2.65869423 L22.4749902,6.47886831 L22.7688497,4.61775786 C22.8668029,4.12799195 22.5729433,3.73617922 22.0831774,3.63822604 Z" id="Shape" fill="#A3BCBF" fill-rule="nonzero"></path>
                    </g>
                    <path d="M48.2860211,18.8454575 C48.2860211,18.9434107 48.1880679,19.0413638 48.0901148,18.9434107 L25.8547426,14.9273302 C25.6588362,15.0252834 25.6588362,14.9273302 25.6588362,14.829377 C25.6588362,14.7314238 25.7567894,14.6334707 25.8547426,14.7314238 L48.0901148,18.7475043 C48.1880679,18.6495511 48.2860211,18.7475043 48.2860211,18.8454575 Z" id="Shape" fill="#B4CFD1" fill-rule="nonzero"></path>
                    <path d="M48.1880679,19.2372702 C48.1880679,19.3352234 48.0901148,19.4331766 47.9921616,19.3352234 L25.7567894,15.3191429 C25.6588362,15.3191429 25.560883,15.2211898 25.6588362,15.1232366 C25.6588362,15.0252834 25.7567894,14.9273302 25.8547426,15.0252834 L48.0901148,19.0413638 C48.1880679,19.0413638 48.1880679,19.139317 48.1880679,19.2372702 Z" id="Shape" fill="#A3BCBF" fill-rule="nonzero"></path>
                    <path d="M28.8912912,17.6700193 C28.2056189,17.5720661 27.6178998,17.9638788 27.5199466,18.6495511 L26.638368,23.449257 L28.9892444,23.8410697 L29.870823,19.139317 C30.0667294,18.4536447 29.5769635,17.8659257 28.8912912,17.6700193 Z" id="Shape" fill="#D6E5E5" fill-rule="nonzero"></path>
                    <path d="M28.8912912,17.8659257 C28.2056189,17.7679725 27.6178998,18.1597852 27.5199466,18.8454575 L26.638368,23.449257 L28.9892444,23.8410697 L29.7728698,19.2372702 C29.9687762,18.5515979 29.5769635,17.9638788 28.8912912,17.8659257 Z" id="Shape" fill="#506263" fill-rule="nonzero"></path>
                    <path d="M28.793338,18.7475043 C28.1076657,18.6495511 27.5199466,19.0413638 27.4219935,19.7270361 L26.638368,23.449257 L28.9892444,23.8410697 L29.6749166,20.1188488 C29.870823,19.4331766 29.3810571,18.8454575 28.793338,18.7475043 Z" id="Shape" fill="#394747" fill-rule="nonzero"></path>
                    <path d="M32.7114653,18.3556916 C32.025793,18.2577384 31.4380739,18.6495511 31.3401207,19.3352234 L30.4585421,24.0369761 L32.8094184,24.4287888 L33.6909971,19.7270361 C33.7889503,19.139317 33.3971375,18.5515979 32.7114653,18.3556916 Z" id="Shape" fill="#D6E5E5" fill-rule="nonzero"></path>
                    <path d="M32.7114653,18.5515979 C32.025793,18.4536447 31.4380739,18.8454575 31.3401207,19.5311297 L30.5564953,24.1349293 L32.9073716,24.526742 L33.6909971,19.9229425 C33.7889503,19.2372702 33.3971375,18.6495511 32.7114653,18.5515979 Z" id="Shape" fill="#506263" fill-rule="nonzero"></path>
                    <path d="M32.6135121,19.4331766 C31.9278398,19.3352234 31.3401207,19.7270361 31.2421675,20.4127084 L30.5564953,24.1349293 L32.9073716,24.526742 L33.5930439,20.8045211 C33.6909971,20.1188488 33.2012312,19.5311297 32.6135121,19.4331766 Z" id="Shape" fill="#394747" fill-rule="nonzero"></path>
                    <path d="M36.5316393,19.0413638 C35.8459671,18.9434107 35.258248,19.3352234 35.1602948,20.0208956 L34.2787162,24.7226484 L36.6295925,25.1144611 L37.5111712,20.4127084 C37.6091243,19.8249893 37.2173116,19.2372702 36.5316393,19.0413638 Z" id="Shape" fill="#D6E5E5" fill-rule="nonzero"></path>
                    <path d="M36.5316393,19.2372702 C35.8459671,19.139317 35.258248,19.5311297 35.1602948,20.216802 L34.3766694,24.8206015 L36.7275457,25.2124143 L37.5111712,20.6086147 C37.6091243,19.9229425 37.2173116,19.3352234 36.5316393,19.2372702 Z" id="Shape" fill="#506263" fill-rule="nonzero"></path>
                    <path d="M36.335733,20.1188488 C35.6500607,20.0208956 35.0623416,20.4127084 34.9643884,21.0983806 L34.2787162,24.8206015 L36.6295925,25.2124143 L37.3152648,21.4901934 C37.5111712,20.8045211 37.0214053,20.216802 36.335733,20.1188488 Z" id="Shape" fill="#394747" fill-rule="nonzero"></path>
                    <path d="M40.3518134,19.7270361 C39.6661412,19.6290829 39.0784221,20.0208956 38.9804689,20.7065679 L38.0988902,25.4083206 L40.4497666,25.8001334 L41.3313452,21.0983806 C41.4292984,20.5106616 41.0374857,19.9229425 40.3518134,19.7270361 Z" id="Shape" fill="#D6E5E5" fill-rule="nonzero"></path>
                    <path d="M40.3518134,19.9229425 C39.6661412,19.8249893 39.0784221,20.216802 38.9804689,20.9024743 L38.1968434,25.5062738 L40.5477198,25.8980865 L41.3313452,21.294287 C41.4292984,20.6086147 41.0374857,20.0208956 40.3518134,19.9229425 Z" id="Shape" fill="#506263" fill-rule="nonzero"></path>
                    <path d="M40.1559071,20.8045211 C39.4702348,20.7065679 38.8825157,21.0983806 38.7845625,21.7840529 L38.0988902,25.5062738 L40.4497666,25.8980865 L41.1354389,22.1758656 C41.2333921,21.4901934 40.8415793,20.9024743 40.1559071,20.8045211 Z" id="Shape" fill="#394747" fill-rule="nonzero"></path>
                    <path d="M44.1719875,20.5106616 C43.4863152,20.4127084 42.8985961,20.8045211 42.800643,21.4901934 L41.9190643,26.1919461 L44.2699407,26.5837588 L45.1515193,21.8820061 C45.2494725,21.1963338 44.8576598,20.6086147 44.1719875,20.5106616 Z" id="Shape" fill="#D6E5E5" fill-rule="nonzero"></path>
                    <path d="M44.1719875,20.6086147 C43.4863152,20.5106616 42.8985961,20.9024743 42.800643,21.5881466 L42.0170175,26.1919461 L44.2699407,26.5837588 L45.0535661,21.9799593 C45.2494725,21.294287 44.8576598,20.7065679 44.1719875,20.6086147 Z" id="Shape" fill="#506263" fill-rule="nonzero"></path>
                    <path d="M43.9760811,21.4901934 C43.2904089,21.3922402 42.7026898,21.7840529 42.6047366,22.4697252 L41.9190643,26.1919461 L44.2699407,26.5837588 L44.955613,22.8615379 C45.0535661,22.1758656 44.6617534,21.5881466 43.9760811,21.4901934 Z" id="Shape" fill="#394747" fill-rule="nonzero"></path>
                    <path d="M44.8576598,34.3220601 C44.7597066,34.7138729 45.1515193,35.2036388 44.7597066,35.1056856 L23.5038662,31.2855115 C23.1120535,31.1875583 23.6018194,30.8936988 23.6018194,30.5018861 L24.7772576,23.8410697 C24.8752107,23.449257 25.2670235,23.1553975 25.7567894,23.1553975 L45.4453789,26.681712 C45.8371916,26.7796652 46.1310511,27.1714779 46.1310511,27.6612438 L44.8576598,34.3220601 Z" id="Shape" fill="#B4CFD1" fill-rule="nonzero"></path>
                    <g id="Group" stroke-width="1" fill="none" fill-rule="evenodd" transform="translate(23.141807, 23.018998)">
                        <path d="M21.9117594,10.0296711 L0.55796581,6.20949706 L0.362059447,7.48288842 C0.264106266,7.87470114 -0.225659642,8.16856069 0.264106266,8.26651387 L21.5199466,12.0866879 C21.9117594,12.1846411 21.6178998,11.6948752 21.6178998,11.3030625 L21.9117594,10.0296711 Z" id="Shape" fill="#A3BCBF" fill-rule="nonzero"></path>
                        <path d="M22.2056189,3.66271434 L2.51702944,0.136399805 C2.12521671,0.0384466237 1.63545081,0.332306168 1.53749762,0.822072076 L1.24363808,2.58522934 L22.4994785,6.40540342 L22.793338,4.54429297 C22.9892444,4.15248025 22.6953848,3.76066752 22.2056189,3.66271434 Z" id="Shape" fill="#A3BCBF" fill-rule="nonzero"></path>
                    </g>
                    <path d="M46.8167234,27.0735247 C46.8167234,27.1714779 46.7187702,27.2694311 46.620817,27.1714779 L24.3854448,23.1553975 C24.2874917,23.1553975 24.1895385,23.0574443 24.2874917,22.9594911 C24.2874917,22.8615379 24.3854448,22.7635847 24.483398,22.8615379 L46.7187702,26.8776184 C46.7187702,26.8776184 46.8167234,26.9755715 46.8167234,27.0735247 Z" id="Shape" fill="#B4CFD1" fill-rule="nonzero"></path>
                    <path d="M46.7187702,27.3673843 C46.7187702,27.4653374 46.620817,27.5632906 46.5228639,27.4653374 L24.2874917,23.449257 C24.1895385,23.449257 24.0915853,23.3513038 24.1895385,23.2533506 C24.1895385,23.1553975 24.2874917,23.0574443 24.3854448,23.1553975 L46.620817,27.1714779 C46.7187702,27.2694311 46.7187702,27.2694311 46.7187702,27.3673843 Z" id="Shape" fill="#A3BCBF" fill-rule="nonzero"></path>
                    <path d="M27.4219935,25.8980865 C26.7363212,25.8001334 26.1486021,26.1919461 26.0506489,26.8776184 L25.1690703,31.5793711 L27.5199466,31.9711838 L28.4015253,27.2694311 C28.5974316,26.681712 28.1076657,25.9960397 27.4219935,25.8980865 Z" id="Shape" fill="#D6E5E5" fill-rule="nonzero"></path>
                    <path d="M27.4219935,25.9960397 C26.7363212,25.8980865 26.1486021,26.2898993 26.0506489,26.9755715 L25.2670235,31.5793711 L27.6178998,31.9711838 L28.4015253,27.3673843 C28.4994785,26.7796652 28.1076657,26.1919461 27.4219935,25.9960397 Z" id="Shape" fill="#506263" fill-rule="nonzero"></path>
                    <path d="M27.3240403,26.8776184 C26.638368,26.7796652 26.0506489,27.1714779 25.9526957,27.8571502 L25.2670235,31.5793711 L27.6178998,31.9711838 L28.3035721,28.2489629 C28.4015253,27.6612438 27.9117594,26.9755715 27.3240403,26.8776184 Z" id="Shape" fill="#394747" fill-rule="nonzero"></path>
                    <path d="M31.2421675,26.5837588 C30.5564953,26.4858056 29.9687762,26.8776184 29.870823,27.5632906 L28.9892444,32.2650433 L31.3401207,32.6568561 L32.2216994,27.9551033 C32.3196525,27.3673843 31.9278398,26.681712 31.2421675,26.5837588 Z" id="Shape" fill="#D6E5E5" fill-rule="nonzero"></path>
                    <path d="M31.2421675,26.681712 C30.5564953,26.5837588 29.9687762,26.9755715 29.870823,27.6612438 L29.0871976,32.2650433 L31.4380739,32.6568561 L32.2216994,28.0530565 C32.3196525,27.4653374 31.9278398,26.8776184 31.2421675,26.681712 Z" id="Shape" fill="#506263" fill-rule="nonzero"></path>
                    <path d="M31.0462612,27.5632906 C30.3605889,27.4653374 29.7728698,27.8571502 29.6749166,28.5428224 L28.9892444,32.2650433 L31.3401207,32.6568561 L32.025793,28.9346352 C32.2216994,28.3469161 31.7319335,27.6612438 31.0462612,27.5632906 Z" id="Shape" fill="#394747" fill-rule="nonzero"></path>
                    <path d="M35.0623416,27.2694311 C34.3766694,27.1714779 33.7889503,27.5632906 33.6909971,28.2489629 L32.8094184,32.9507156 L35.1602948,33.3425283 L36.0418734,28.6407756 C36.1398266,28.0530565 35.7480139,27.3673843 35.0623416,27.2694311 Z" id="Shape" fill="#D6E5E5" fill-rule="nonzero"></path>
                    <path d="M35.0623416,27.3673843 C34.3766694,27.2694311 33.7889503,27.6612438 33.6909971,28.3469161 L32.9073716,32.9507156 L35.258248,33.3425283 L36.0418734,28.7387288 C36.1398266,28.1510097 35.7480139,27.5632906 35.0623416,27.3673843 Z" id="Shape" fill="#506263" fill-rule="nonzero"></path>
                    <path d="M34.8664353,28.2489629 C34.180763,28.1510097 33.5930439,28.5428224 33.4950907,29.2284947 L32.8094184,32.9507156 L35.1602948,33.3425283 L35.8459671,29.6203074 C36.0418734,29.0325883 35.5521075,28.3469161 34.8664353,28.2489629 Z" id="Shape" fill="#394747" fill-rule="nonzero"></path>
                    <path d="M38.8825157,27.9551033 C38.1968434,27.8571502 37.6091243,28.2489629 37.5111712,28.9346352 L36.6295925,33.6363879 L38.9804689,34.0282006 L39.8620475,29.3264479 C39.9600007,28.7387288 39.568188,28.0530565 38.8825157,27.9551033 Z" id="Shape" fill="#D6E5E5" fill-rule="nonzero"></path>
                    <path d="M38.8825157,28.0530565 C38.1968434,27.9551033 37.6091243,28.3469161 37.5111712,29.0325883 L36.7275457,33.6363879 L39.0784221,34.0282006 L39.8620475,29.4244011 C39.9600007,28.836682 39.568188,28.2489629 38.8825157,28.0530565 Z" id="Shape" fill="#506263" fill-rule="nonzero"></path>
                    <path d="M38.6866093,28.9346352 C38.0009371,28.836682 37.413218,29.2284947 37.3152648,29.914167 L36.6295925,33.6363879 L38.9804689,34.0282006 L39.6661412,30.3059797 C39.7640943,29.7182606 39.3722816,29.0325883 38.6866093,28.9346352 Z" id="Shape" fill="#394747" fill-rule="nonzero"></path>
                    <path d="M42.7026898,28.6407756 C42.0170175,28.5428224 41.4292984,28.9346352 41.3313452,29.6203074 L40.4497666,34.3220601 L42.800643,34.7138729 L43.6822216,30.0121202 C43.7801748,29.4244011 43.388362,28.7387288 42.7026898,28.6407756 Z" id="Shape" fill="#D6E5E5" fill-rule="nonzero"></path>
                    <path d="M42.7026898,28.7387288 C42.0170175,28.6407756 41.4292984,29.0325883 41.3313452,29.7182606 L40.5477198,34.3220601 L42.8985961,34.7138729 L43.6822216,30.1100733 C43.7801748,29.5223543 43.388362,28.9346352 42.7026898,28.7387288 Z" id="Shape" fill="#506263" fill-rule="nonzero"></path>
                    <path d="M42.5067834,29.6203074 C41.8211111,29.5223543 41.2333921,29.914167 41.1354389,30.5998392 L40.4497666,34.3220601 L42.800643,34.7138729 L43.4863152,30.991652 C43.5842684,30.4039329 43.1924557,29.7182606 42.5067834,29.6203074 Z" id="Shape" fill="#394747" fill-rule="nonzero"></path>
                    <path d="M43.2904089,42.4521742 C43.1924557,42.8439869 43.5842684,43.3337528 43.1924557,43.2357997 L21.9366153,39.4156256 C21.5448026,39.3176724 22.0345685,39.0238129 22.0345685,38.6320001 L23.2100067,31.9711838 C23.3079598,31.5793711 23.6997726,31.2855115 24.1895385,31.2855115 L43.878128,34.8118261 C44.2699407,34.9097792 44.5638002,35.301592 44.5638002,35.7913579 L43.2904089,42.4521742 Z" id="Shape" fill="#B4CFD1" fill-rule="nonzero"></path>
                    <g id="Group" stroke-width="1" fill="none" fill-rule="evenodd" transform="translate(21.672509, 31.345018)">
                        <path d="M21.9117594,9.83376477 L0.55796581,6.01359069 L0.362059447,7.28698205 C0.264106266,7.67879478 -0.225659642,7.97265432 0.264106266,8.07060751 L21.5199466,11.8907816 C21.9117594,11.9887348 21.6178998,11.4989689 21.6178998,11.1071561 L21.9117594,9.83376477 Z" id="Shape" fill="#A3BCBF" fill-rule="nonzero"></path>
                        <path d="M22.2056189,3.56476116 L2.51702944,0.0384466237 C2.12521671,-0.0595065578 1.63545081,0.234352987 1.53749762,0.724118894 L1.24363808,2.58522934 L22.4994785,6.40540342 L22.793338,4.54429297 C22.9892444,4.05452706 22.6953848,3.56476116 22.2056189,3.56476116 Z" id="Shape" fill="#A3BCBF" fill-rule="nonzero"></path>
                    </g>
                    <path d="M45.3474257,35.2036388 C45.3474257,35.301592 45.2494725,35.3995451 45.1515193,35.301592 L22.9161471,31.2855115 C22.8181939,31.2855115 22.7202408,31.1875583 22.8181939,31.0896052 C22.8181939,30.991652 22.9161471,30.8936988 23.0141003,30.991652 L45.2494725,35.0077324 C45.2494725,35.1056856 45.3474257,35.1056856 45.3474257,35.2036388 Z" id="Shape" fill="#B4CFD1" fill-rule="nonzero"></path>
                    <path d="M45.2494725,35.5954515 C45.2494725,35.6934047 45.1515193,35.7913579 45.0535661,35.6934047 L22.8181939,31.6773242 C22.7202408,31.6773242 22.6222876,31.5793711 22.7202408,31.4814179 C22.7202408,31.3834647 22.8181939,31.2855115 22.9161471,31.3834647 L45.1515193,35.3995451 C45.2494725,35.3995451 45.2494725,35.4974983 45.2494725,35.5954515 Z" id="Shape" fill="#A3BCBF" fill-rule="nonzero"></path>
                    <path d="M25.9526957,34.1261538 C25.2670235,34.0282006 24.6793044,34.4200133 24.5813512,35.1056856 L23.6997726,39.8074383 L26.0506489,40.199251 L26.9322276,35.4974983 C27.0301807,34.8118261 26.638368,34.224107 25.9526957,34.1261538 Z" id="Shape" fill="#D6E5E5" fill-rule="nonzero"></path>
                    <path d="M25.9526957,34.224107 C25.2670235,34.1261538 24.6793044,34.5179665 24.5813512,35.2036388 L23.6997726,39.8074383 L26.0506489,40.199251 L26.8342744,35.5954515 C27.0301807,34.9097792 26.638368,34.3220601 25.9526957,34.224107 Z" id="Shape" fill="#506263" fill-rule="nonzero"></path>
                    <path d="M25.8547426,35.1056856 C25.1690703,35.0077324 24.5813512,35.3995451 24.483398,36.0852174 L23.6997726,39.8074383 L26.0506489,40.199251 L26.7363212,36.4770301 C26.9322276,35.7913579 26.4424617,35.2036388 25.8547426,35.1056856 Z" id="Shape" fill="#394747" fill-rule="nonzero"></path>
                    <path d="M29.7728698,34.8118261 C29.0871976,34.7138729 28.4994785,35.1056856 28.4015253,35.7913579 L27.5199466,40.4931106 L29.870823,40.8849233 L30.7524016,36.1831706 C30.8503548,35.4974983 30.4585421,34.9097792 29.7728698,34.8118261 Z" id="Shape" fill="#D6E5E5" fill-rule="nonzero"></path>
                    <path d="M29.7728698,34.9097792 C29.0871976,34.8118261 28.4994785,35.2036388 28.4015253,35.889311 L27.6178998,40.4931106 L29.9687762,40.8849233 L30.7524016,36.2811238 C30.8503548,35.6934047 30.4585421,35.0077324 29.7728698,34.9097792 Z" id="Shape" fill="#506263" fill-rule="nonzero"></path>
                    <path d="M29.5769635,35.7913579 C28.8912912,35.6934047 28.3035721,36.0852174 28.2056189,36.7708897 L27.5199466,40.4931106 L29.870823,40.8849233 L30.5564953,37.1627024 C30.7524016,36.4770301 30.2626357,35.889311 29.5769635,35.7913579 Z" id="Shape" fill="#394747" fill-rule="nonzero"></path>
                    <path d="M33.5930439,35.4974983 C32.9073716,35.3995451 32.3196525,35.7913579 32.2216994,36.4770301 L31.3401207,41.1787828 L33.6909971,41.5705956 L34.5725757,36.8688429 C34.6705289,36.1831706 34.2787162,35.5954515 33.5930439,35.4974983 Z" id="Shape" fill="#D6E5E5" fill-rule="nonzero"></path>
                    <path d="M33.5930439,35.5954515 C32.9073716,35.4974983 32.3196525,35.889311 32.2216994,36.5749833 L31.4380739,41.1787828 L33.7889503,41.5705956 L34.5725757,36.966796 C34.6705289,36.379077 34.2787162,35.6934047 33.5930439,35.5954515 Z" id="Shape" fill="#506263" fill-rule="nonzero"></path>
                    <path d="M33.3971375,36.4770301 C32.7114653,36.379077 32.1237462,36.7708897 32.025793,37.456562 L31.3401207,41.1787828 L33.6909971,41.5705956 L34.3766694,37.8483747 C34.4746225,37.1627024 34.0828098,36.5749833 33.3971375,36.4770301 Z" id="Shape" fill="#394747" fill-rule="nonzero"></path>
                    <path d="M37.413218,36.1831706 C36.7275457,36.0852174 36.1398266,36.4770301 36.0418734,37.1627024 L35.1602948,41.8644551 L37.5111712,42.2562678 L38.3927498,37.5545151 C38.490703,36.8688429 38.0988902,36.2811238 37.413218,36.1831706 Z" id="Shape" fill="#D6E5E5" fill-rule="nonzero"></path>
                    <path d="M37.413218,36.2811238 C36.7275457,36.1831706 36.1398266,36.5749833 36.0418734,37.2606556 L35.258248,41.8644551 L37.6091243,42.2562678 L38.3927498,37.6524683 C38.490703,37.0647492 38.0988902,36.379077 37.413218,36.2811238 Z" id="Shape" fill="#506263" fill-rule="nonzero"></path>
                    <path d="M37.2173116,37.1627024 C36.5316393,37.0647492 35.9439203,37.456562 35.8459671,38.1422342 L35.1602948,41.8644551 L37.5111712,42.2562678 L38.1968434,38.5340469 C38.2947966,37.8483747 37.9029839,37.2606556 37.2173116,37.1627024 Z" id="Shape" fill="#394747" fill-rule="nonzero"></path>
                    <path d="M41.2333921,36.8688429 C40.5477198,36.7708897 39.9600007,37.1627024 39.8620475,37.8483747 L38.9804689,42.5501274 L41.3313452,42.9419401 L42.2129239,38.2401874 C42.3108771,37.5545151 41.9190643,36.966796 41.2333921,36.8688429 Z" id="Shape" fill="#D6E5E5" fill-rule="nonzero"></path>
                    <path d="M41.2333921,36.966796 C40.5477198,36.8688429 39.9600007,37.2606556 39.8620475,37.9463279 L39.0784221,42.5501274 L41.4292984,42.9419401 L42.2129239,38.3381406 C42.3108771,37.7504215 41.8211111,37.0647492 41.2333921,36.966796 Z" id="Shape" fill="#506263" fill-rule="nonzero"></path>
                    <path d="M41.0374857,37.8483747 C40.3518134,37.7504215 39.7640943,38.1422342 39.6661412,38.8279065 L38.9804689,42.5501274 L41.3313452,42.9419401 L42.0170175,39.2197192 C42.1149707,38.5340469 41.723158,37.9463279 41.0374857,37.8483747 Z" id="Shape" fill="#394747" fill-rule="nonzero"></path>
                    <path d="M41.8211111,50.6802415 C41.723158,51.0720542 42.1149707,51.5618201 41.723158,51.4638669 L20.4673176,47.6436928 C20.0755049,47.5457396 20.5652708,47.2518801 20.5652708,46.8600674 L21.7407089,40.199251 C21.8386621,39.8074383 22.2304748,39.5135788 22.7202408,39.5135788 L42.4088302,43.0398933 C42.800643,43.1378465 43.0945025,43.5296592 43.0945025,44.0194251 L41.8211111,50.6802415 Z" id="Shape" fill="#B4CFD1" fill-rule="nonzero"></path>
                    <g id="Group" stroke-width="1" fill="none" fill-rule="evenodd" transform="translate(20.203211, 39.426156)">
                        <path d="M21.9117594,9.98069454 L0.55796581,6.16052047 L0.362059447,7.43391183 C0.264106266,7.82572455 -0.225659642,8.1195841 0.264106266,8.21753728 L21.5199466,12.0377114 C21.9117594,12.1356645 21.6178998,11.6458986 21.6178998,11.2540859 L21.9117594,9.98069454 Z" id="Shape" fill="#A3BCBF" fill-rule="nonzero"></path>
                        <path d="M22.2056189,3.61373775 L2.51702944,0.0874232145 C2.12521671,-0.010529967 1.63545081,0.283329577 1.53749762,0.773095485 L1.24363808,2.63420593 L22.4994785,6.45438001 L22.793338,4.59326956 C22.9892444,4.10350366 22.6953848,3.71169093 22.2056189,3.61373775 Z" id="Shape" fill="#A3BCBF" fill-rule="nonzero"></path>
                    </g>
                    <path d="M43.878128,43.431706 C43.878128,43.5296592 43.7801748,43.6276124 43.6822216,43.5296592 L21.4468494,39.5135788 C21.3488962,39.5135788 21.250943,39.4156256 21.3488962,39.3176724 C21.3488962,39.2197192 21.4468494,39.121766 21.5448026,39.2197192 L43.6822216,43.2357997 C43.7801748,43.2357997 43.878128,43.3337528 43.878128,43.431706 Z" id="Shape" fill="#B4CFD1" fill-rule="nonzero"></path>
                    <path d="M43.7801748,43.7255656 C43.7801748,43.8235187 43.6822216,43.9214719 43.5842684,43.8235187 L21.3488962,39.8074383 C21.250943,39.8074383 21.1529899,39.7094851 21.250943,39.6115319 C21.250943,39.5135788 21.3488962,39.4156256 21.4468494,39.5135788 L43.6822216,43.5296592 C43.7801748,43.6276124 43.7801748,43.7255656 43.7801748,43.7255656 Z" id="Shape" fill="#A3BCBF" fill-rule="nonzero"></path>
                    <path d="M24.483398,42.2562678 C23.7977258,42.1583147 23.2100067,42.5501274 23.1120535,43.2357997 L22.2304748,47.9375524 L24.5813512,48.3293651 L25.4629298,43.6276124 C25.560883,43.0398933 25.1690703,42.354221 24.483398,42.2562678 Z" id="Shape" fill="#D6E5E5" fill-rule="nonzero"></path>
                    <path d="M24.483398,42.354221 C23.7977258,42.2562678 23.2100067,42.6480806 23.1120535,43.3337528 L22.328428,47.9375524 L24.6793044,48.3293651 L25.4629298,43.7255656 C25.560883,43.1378465 25.1690703,42.5501274 24.483398,42.354221 Z" id="Shape" fill="#506263" fill-rule="nonzero"></path>
                    <path d="M24.3854448,43.2357997 C23.6997726,43.1378465 23.1120535,43.5296592 23.0141003,44.2153315 L22.328428,47.9375524 L24.6793044,48.3293651 L25.3649767,44.6071442 C25.4629298,44.0194251 24.9731639,43.3337528 24.3854448,43.2357997 Z" id="Shape" fill="#394747" fill-rule="nonzero"></path>
                    <path d="M28.3035721,42.9419401 C27.6178998,42.8439869 27.0301807,43.2357997 26.9322276,43.9214719 L26.0506489,48.6232246 L28.4015253,49.0150374 L29.2831039,44.3132847 C29.3810571,43.7255656 28.9892444,43.0398933 28.3035721,42.9419401 Z" id="Shape" fill="#D6E5E5" fill-rule="nonzero"></path>
                    <path d="M28.3035721,43.0398933 C27.6178998,42.9419401 27.0301807,43.3337528 26.9322276,44.0194251 L26.1486021,48.6232246 L28.4994785,49.0150374 L29.2831039,44.4112378 C29.3810571,43.8235187 28.9892444,43.2357997 28.3035721,43.0398933 Z" id="Shape" fill="#506263" fill-rule="nonzero"></path>
                    <path d="M28.1076657,43.9214719 C27.4219935,43.8235187 26.8342744,44.2153315 26.7363212,44.9010037 L26.0506489,48.6232246 L28.4015253,49.0150374 L29.0871976,45.2928165 C29.2831039,44.7050974 28.793338,44.0194251 28.1076657,43.9214719 Z" id="Shape" fill="#394747" fill-rule="nonzero"></path>
                    <path d="M32.1237462,43.6276124 C31.4380739,43.5296592 30.8503548,43.9214719 30.7524016,44.6071442 L29.870823,49.3088969 L32.2216994,49.7007096 L33.103278,44.9989569 C33.2012312,44.4112378 32.8094184,43.7255656 32.1237462,43.6276124 Z" id="Shape" fill="#D6E5E5" fill-rule="nonzero"></path>
                    <path d="M32.1237462,43.7255656 C31.4380739,43.6276124 30.8503548,44.0194251 30.7524016,44.7050974 L29.9687762,49.3088969 L32.3196525,49.7007096 L33.103278,45.0969101 C33.2012312,44.509191 32.8094184,43.9214719 32.1237462,43.7255656 Z" id="Shape" fill="#506263" fill-rule="nonzero"></path>
                    <path d="M31.9278398,44.6071442 C31.2421675,44.509191 30.6544485,44.9010037 30.5564953,45.586676 L29.870823,49.3088969 L32.2216994,49.7007096 L32.9073716,45.9784887 C33.0053248,45.3907697 32.6135121,44.7050974 31.9278398,44.6071442 Z" id="Shape" fill="#394747" fill-rule="nonzero"></path>
                    <path d="M35.9439203,44.3132847 C35.258248,44.2153315 34.6705289,44.6071442 34.5725757,45.2928165 L33.6909971,49.9945692 L36.0418734,50.3863819 L36.9234521,45.6846292 C37.0214053,45.0969101 36.6295925,44.4112378 35.9439203,44.3132847 Z" id="Shape" fill="#D6E5E5" fill-rule="nonzero"></path>
                    <path d="M35.9439203,44.4112378 C35.258248,44.3132847 34.6705289,44.7050974 34.5725757,45.3907697 L33.7889503,49.9945692 L36.1398266,50.3863819 L36.9234521,45.7825824 C37.0214053,45.1948633 36.6295925,44.6071442 35.9439203,44.4112378 Z" id="Shape" fill="#506263" fill-rule="nonzero"></path>
                    <path d="M35.7480139,45.2928165 C35.0623416,45.1948633 34.4746225,45.586676 34.3766694,46.2723483 L33.6909971,49.9945692 L36.0418734,50.3863819 L36.7275457,46.664161 C36.8254989,46.0764419 36.4336862,45.3907697 35.7480139,45.2928165 Z" id="Shape" fill="#394747" fill-rule="nonzero"></path>
                    <path d="M39.7640943,44.9989569 C39.0784221,44.9010037 38.490703,45.2928165 38.3927498,45.9784887 L37.5111712,50.6802415 L39.8620475,51.0720542 L40.7436261,46.3703015 C40.8415793,45.7825824 40.4497666,45.0969101 39.7640943,44.9989569 Z" id="Shape" fill="#D6E5E5" fill-rule="nonzero"></path>
                    <path d="M39.7640943,45.0969101 C39.0784221,44.9989569 38.490703,45.3907697 38.3927498,46.0764419 L37.6091243,50.6802415 L39.9600007,51.0720542 L40.7436261,46.4682546 C40.8415793,45.8805356 40.3518134,45.2928165 39.7640943,45.0969101 Z" id="Shape" fill="#506263" fill-rule="nonzero"></path>
                    <path d="M39.568188,45.9784887 C38.8825157,45.8805356 38.2947966,46.2723483 38.1968434,46.9580206 L37.5111712,50.6802415 L39.8620475,51.0720542 L40.5477198,47.3498333 C40.645673,46.7621142 40.2538602,46.0764419 39.568188,45.9784887 Z" id="Shape" fill="#394747" fill-rule="nonzero"></path>
                    <g id="Group" stroke-width="1" fill="none" fill-rule="evenodd" transform="translate(18.244148, 47.507293)">
                        <polygon id="Shape" fill="#A3BCBF" fill-rule="nonzero" points="22.0097126 12.3805475 22.3035721 10.8132966 1.04773172 6.89516933 0.0681999026 12.1846411 0.0681999026 12.3805475"></polygon>
                        <path d="M22.6953848,3.56476116 L3.00679535,0.0384466237 C2.61498262,-0.0595065578 2.12521671,0.234352987 2.12521671,0.724118894 L1.83135717,2.58522934 L23.0871976,6.30745024 L23.3810571,4.44633979 C23.4790103,4.05452706 23.1851507,3.66271434 22.6953848,3.56476116 Z" id="Shape" fill="#A3BCBF" fill-rule="nonzero"></path>
                    </g>
                    <path d="M42.4088302,51.4638669 C42.4088302,51.5618201 42.3108771,51.6597733 42.2129239,51.5618201 L19.9775517,47.5457396 C19.8795985,47.5457396 19.7816453,47.4477865 19.8795985,47.3498333 C19.8795985,47.2518801 19.9775517,47.1539269 20.0755049,47.2518801 L42.3108771,51.2679605 C42.4088302,51.2679605 42.4088302,51.3659137 42.4088302,51.4638669 Z" id="Shape" fill="#B4CFD1" fill-rule="nonzero"></path>
                    <path d="M42.3108771,51.7577264 C42.3108771,51.8556796 42.2129239,51.9536328 42.1149707,51.8556796 L19.8795985,47.8395992 C19.7816453,47.8395992 19.6836921,47.741646 19.7816453,47.6436928 C19.7816453,47.5457396 19.8795985,47.4477865 19.9775517,47.5457396 L42.2129239,51.5618201 C42.3108771,51.5618201 42.4088302,51.6597733 42.3108771,51.7577264 Z" id="Shape" fill="#A3BCBF" fill-rule="nonzero"></path>
                    <path d="M45.0535661,8.16856069 C45.0535661,8.36446705 44.8576598,8.46242023 44.6617534,8.46242023 L32.6135121,6.20949706 C32.4176057,6.20949706 32.3196525,6.01359069 32.3196525,5.81768433 C32.3196525,5.62177797 32.5155589,5.52382479 32.7114653,5.52382479 L44.7597066,7.67879478 C45.0535661,7.77674796 45.1515193,7.97265432 45.0535661,8.16856069 Z" id="Shape" fill="#95ACAD" fill-rule="nonzero"></path>
                    <path d="M57.5915734,60.3776064 C57.5915734,60.671466 57.2977138,60.8673723 57.0038543,60.8673723 L15.5696585,60.8673723 C15.275799,60.8673723 14.9819394,60.671466 14.9819394,60.3776064 C14.9819394,60.0837469 15.275799,59.8878405 15.5696585,59.8878405 L57.0038543,59.8878405 C57.395667,59.8878405 57.5915734,60.0837469 57.5915734,60.3776064 Z" id="Shape" fill="#506263" fill-rule="nonzero"></path>
                    <path d="M24.8752107,59.8878405 L25.7567894,54.7942751 C25.9526957,53.8147433 25.2670235,52.9331646 24.3854448,52.7372583 C23.405913,52.5413519 22.5243344,53.2270242 22.328428,54.206556 L21.3488962,59.8878405 L24.8752107,59.8878405 Z" id="Shape" fill="#D6E5E5" fill-rule="nonzero"></path>
                    <path d="M24.8752107,59.8878405 L25.7567894,54.9901814 C25.9526957,54.0106496 25.2670235,53.129071 24.3854448,52.9331646 C23.405913,52.7372583 22.5243344,53.4229305 22.328428,54.4024624 L21.3488962,59.8878405 L24.8752107,59.8878405 Z" id="Shape" fill="#506263" fill-rule="nonzero"></path>
                    <path d="M24.8752107,59.8878405 L25.560883,56.2635728 C25.7567894,55.284041 25.0711171,54.4024624 24.1895385,54.206556 C23.2100067,54.0106496 22.328428,54.6963219 22.1325217,55.6758537 L21.3488962,59.8878405 L24.8752107,59.8878405 Z" id="Shape" fill="#394747" fill-rule="nonzero"></path>
                    <path d="M31.0462612,59.8878405 L31.7319335,55.8717601 C31.9278398,54.8922283 31.2421675,54.0106496 30.3605889,53.8147433 C29.3810571,53.6188369 28.4994785,54.3045092 28.3035721,55.284041 L27.5199466,59.8878405 L31.0462612,59.8878405 Z" id="Shape" fill="#D6E5E5" fill-rule="nonzero"></path>
                    <path d="M31.0462612,59.8878405 L31.7319335,56.0676664 C31.9278398,55.0881346 31.2421675,54.206556 30.3605889,54.0106496 C29.3810571,53.8147433 28.4994785,54.5004155 28.3035721,55.4799473 L27.5199466,59.8878405 L31.0462612,59.8878405 Z" id="Shape" fill="#506263" fill-rule="nonzero"></path>
                    <path d="M31.0462612,59.8878405 L31.5360271,57.2431046 C31.7319335,56.2635728 31.0462612,55.3819942 30.1646825,55.1860878 C29.1851507,54.9901814 28.3035721,55.6758537 28.1076657,56.6553855 L27.5199466,59.8878405 L31.0462612,59.8878405 Z" id="Shape" fill="#394747" fill-rule="nonzero"></path>
                    <path d="M37.1193584,59.8878405 L37.6091243,56.9492451 C37.8050307,55.9697133 37.1193584,55.0881346 36.2377798,54.8922283 C35.258248,54.6963219 34.3766694,55.3819942 34.180763,56.361526 L33.5930439,59.8878405 L37.1193584,59.8878405 Z" id="Shape" fill="#D6E5E5" fill-rule="nonzero"></path>
                    <path d="M37.1193584,59.8878405 L37.6091243,57.1451514 C37.8050307,56.1656196 37.1193584,55.284041 36.2377798,55.0881346 C35.258248,54.8922283 34.3766694,55.5779005 34.180763,56.5574323 L33.5930439,59.8878405 L37.1193584,59.8878405 Z" id="Shape" fill="#506263" fill-rule="nonzero"></path>
                    <path d="M37.1193584,59.8878405 L37.413218,58.3205896 C37.6091243,57.3410578 36.9234521,56.4594792 36.0418734,56.2635728 C35.0623416,56.0676664 34.180763,56.7533387 33.9848566,57.7328705 L33.5930439,59.8878405 L37.1193584,59.8878405 Z" id="Shape" fill="#394747" fill-rule="nonzero"></path>
                </g>
            </g>
        </g>
    </g>
</svg>