<?xml version="1.0" encoding="UTF-8"?>
<svg width="73px" height="73px" viewBox="0 0 73 73" version="1.1" xmlns="http://www.w3.org/2000/svg" xmlns:xlink="http://www.w3.org/1999/xlink">
    <!-- Generator: Sketch 51.3 (57544) - http://www.bohemiancoding.com/sketch -->
    <title>fundamentals/css/calc</title>
    <desc>Created with Sketch.</desc>
    <defs></defs>
    <g id="fundamentals/css/calc" stroke="none" stroke-width="1" fill="none" fill-rule="evenodd">
        <g id="container" transform="translate(2.000000, 2.000000)" fill-rule="nonzero">
            <rect id="mask" stroke="#333832" stroke-width="2" fill="#FFFFFF" x="-1" y="-1" width="71" height="71" rx="14"></rect>
            <g id="calculator" transform="translate(16.000000, 11.000000)">
                <rect id="Rectangle-path" fill="#C9C9BA" x="0.413043478" y="0" width="37.173913" height="46.2608696"></rect>
                <rect id="Rectangle-path" fill="#98A5A8" x="2.89130435" y="4.13043478" width="32.2173913" height="9.91304348"></rect>
                <rect id="Rectangle-path" fill="#F29C1F" x="27.673913" y="26.4347826" width="7.43478261" height="16.5217391"></rect>
                <rect id="Rectangle-path" fill="#575C55" x="2.89130435" y="17.3478261" width="6.60869565" height="7.43478261"></rect>
                <rect id="Rectangle-path" fill="#575C55" x="11.1521739" y="17.3478261" width="6.60869565" height="7.43478261"></rect>
                <rect id="Rectangle-path" fill="#575C55" x="19.4130435" y="17.3478261" width="6.60869565" height="7.43478261"></rect>
                <rect id="Rectangle-path" fill="#FFFEF9" x="27.673913" y="17.3478261" width="7.43478261" height="7.43478261"></rect>
                <rect id="Rectangle-path" fill="#575C55" x="2.89130435" y="26.4347826" width="6.60869565" height="7.43478261"></rect>
                <rect id="Rectangle-path" fill="#575C55" x="11.1521739" y="26.4347826" width="6.60869565" height="7.43478261"></rect>
                <rect id="Rectangle-path" fill="#575C55" x="19.4130435" y="26.4347826" width="6.60869565" height="7.43478261"></rect>
                <rect id="Rectangle-path" fill="#575C55" x="2.89130435" y="35.5217391" width="6.60869565" height="7.43478261"></rect>
                <rect id="Rectangle-path" fill="#575C55" x="11.1521739" y="35.5217391" width="6.60869565" height="7.43478261"></rect>
                <rect id="Rectangle-path" fill="#575C55" x="19.4130435" y="35.5217391" width="6.60869565" height="7.43478261"></rect>
                <path d="M28.8155652,6.25926087 C28.614,6.17582609 28.386,6.17582609 28.1844348,6.25926087 C28.0828261,6.3013913 27.9919565,6.36169565 27.9151304,6.43852174 L27.0898696,7.26378261 C26.7668696,7.58678261 26.7668696,8.10886957 27.0898696,8.43186957 C27.2509565,8.59295652 27.4624348,8.67391304 27.673913,8.67391304 L27.673913,11.1521739 C27.673913,11.609 28.044,11.9782609 28.5,11.9782609 C28.956,11.9782609 29.326087,11.609 29.326087,11.1521739 L29.326087,7.02173913 C29.326087,6.91434783 29.3037826,6.80695652 29.2624783,6.70617391 C29.1790435,6.50378261 29.0179565,6.34269565 28.8155652,6.25926087 Z" id="Shape" fill="#49686D"></path>
                <path d="M32.5668261,6.70617391 C32.4833913,6.50378261 32.3223043,6.34269565 32.119913,6.25926087 C31.9183478,6.17582609 31.6903478,6.17582609 31.4887826,6.25926087 C31.3871739,6.3013913 31.2963043,6.36169565 31.2194783,6.43852174 L30.3942174,7.26378261 C30.0712174,7.58678261 30.0712174,8.10886957 30.3942174,8.43186957 C30.5553043,8.59295652 30.7667826,8.67391304 30.9782609,8.67391304 L30.9782609,11.1521739 C30.9782609,11.609 31.3483478,11.9782609 31.8043478,11.9782609 C32.2603478,11.9782609 32.6304348,11.609 32.6304348,11.1521739 L32.6304348,7.02173913 C32.6304348,6.91434783 32.6081304,6.80695652 32.5668261,6.70617391 Z" id="Shape" fill="#49686D"></path>
            </g>
        </g>
    </g>
</svg>