<?xml version="1.0" encoding="UTF-8"?>
<svg width="73px" height="73px" viewBox="0 0 73 73" version="1.1" xmlns="http://www.w3.org/2000/svg" xmlns:xlink="http://www.w3.org/1999/xlink">
    <!-- Generator: Sketch 51.3 (57544) - http://www.bohemiancoding.com/sketch -->
    <title>fundamentals/css/css-variables</title>
    <desc>Created with Sketch.</desc>
    <defs></defs>
    <g id="fundamentals/css/css-variables" stroke="none" stroke-width="1" fill="none" fill-rule="evenodd">
        <g id="container" transform="translate(2.000000, 2.000000)" fill-rule="nonzero">
            <rect id="mask" stroke="#7A0830" stroke-width="2" fill="#FF3031" x="-1" y="-1" width="71" height="71" rx="14"></rect>
            <g id="settings-gears" transform="translate(10.000000, 11.000000)" fill="#FFFFFF">
                <path d="M3.21226102,17.6814428 C3.46945605,18.5634124 3.82637978,19.4138831 4.27778331,20.2118555 L2.99180813,21.8340496 C2.57189787,22.3642813 2.61913777,23.1202552 3.09153682,23.5979888 L5.30656345,25.8134124 C5.78421137,26.2911459 6.54004985,26.333092 7.07018655,25.9131064 L8.68159218,24.6374004 C9.51091495,25.1151865 10.3927265,25.4878711 11.3112802,25.7503621 L11.5527286,27.8240406 C11.6314618,28.4960174 12.1983406,29 12.8701971,29 L16.0037774,29 C16.6756338,29 17.2425127,28.4959649 17.3212458,27.8240406 L17.5521965,25.8238595 C18.5389856,25.5666184 19.4837837,25.1833816 20.3708441,24.6846488 L21.929761,25.9183563 C22.4598977,26.3383418 23.2157361,26.2910934 23.6933841,25.8186097 L25.9084107,23.6031861 C26.3860586,23.1254526 26.4280496,22.3694786 26.0081394,21.8392469 L24.7956485,20.30105 C25.2995408,19.4295275 25.6932067,18.5003621 25.9556506,17.5291455 L27.8242513,17.313903 C28.4961602,17.2351557 29,16.6681752 29,15.9961984 L29,12.8620565 C29,12.1900797 28.4961077,11.6230992 27.8242513,11.5443519 L25.981895,11.3291093 C25.7298963,10.3683925 25.3520296,9.44967415 24.8691853,8.58870384 L26.002943,7.15550326 C26.4228533,6.62527154 26.3756133,5.86929761 25.9032143,5.39156408 L23.6934365,3.1813903 C23.2157886,2.70365677 22.4599502,2.66165822 21.9298134,3.08164374 L20.5388607,4.18410572 C19.6360536,3.653874 18.6702075,3.24963794 17.6572265,2.97664736 L17.4472714,1.17595945 C17.3685382,0.503982621 16.8016594,0 16.1298029,0 L12.9962226,0 C12.3243662,0 11.7574873,0.503982621 11.6787542,1.17595945 L11.468799,2.97664736 C10.4295211,3.25488776 9.43748314,3.67487328 8.51368057,4.22610427 L7.07023904,3.08164374 C6.54010234,2.66165822 5.78426386,2.70890659 5.30661594,3.1813903 L3.09158931,5.3968139 C2.61394138,5.87454743 2.57195036,6.63052136 2.99186062,7.16075308 L4.19910262,8.6884504 C3.71620582,9.55992035 3.34878434,10.4891383 3.10733594,11.455105 L1.17574873,11.6755974 C0.503892315,11.7543447 0,12.3213251 0,12.993302 L0,16.1274439 C0,16.7994207 0.503892315,17.3664012 1.17574873,17.4451484 L3.21226102,17.6814428 Z M14.5655847,9.20298516 C17.4209745,9.20298516 19.7462276,11.528655 19.7462276,14.3845565 C19.7462276,17.240458 17.4209745,19.5661278 14.5655847,19.5661278 C11.7102474,19.5661278 9.38494187,17.240458 9.38494187,14.3845565 C9.38494187,11.528655 11.710195,9.20298516 14.5655847,9.20298516 Z" id="Shape"></path>
                <path d="M45.5933029,18.6132134 L43.9290502,17.2096951 C43.4166189,16.7770316 42.6610481,16.7981372 42.1750335,17.2571826 L41.255732,18.1172333 C40.4791335,17.74261 39.6549322,17.4787907 38.8042613,17.3257756 L38.5454832,16.0594433 C38.4133997,15.4051717 37.8058153,14.9514026 37.1400086,15.0041665 L34.968555,15.1888399 C34.3028539,15.2468801 33.779803,15.7903477 33.7586697,16.4604486 L33.7164558,17.7478864 C32.8816349,18.0486403 32.0944169,18.4601982 31.3758824,18.9772839 L30.2770001,18.2491429 C29.7168602,17.879796 28.9719618,17.9853236 28.5387806,18.4971329 L27.1334116,20.1697468 C26.7001247,20.6815561 26.7212581,21.436079 27.180856,21.9215064 L28.1424771,22.9450722 C27.8095737,23.6943188 27.5718233,24.4805528 27.4345093,25.2877869 L26.0608404,25.5674353 C25.405706,25.6993449 24.9513385,26.3061291 25.004172,26.9710063 L25.1890889,29.1396003 C25.2472057,29.8044247 25.7913899,30.3267867 26.4623744,30.3478923 L27.9469935,30.395327 C28.2165496,31.1023625 28.5704807,31.7725161 28.9983785,32.400353 L28.1689467,33.6508561 C27.7991127,34.2101529 27.9047796,34.9541231 28.4172109,35.3867866 L30.0814636,36.7903049 C30.5940006,37.2229684 31.3494657,37.2018628 31.835586,36.7428174 L32.9239545,35.7244752 C33.6372056,36.0568874 34.3873874,36.3048775 35.1587553,36.4526163 L35.4599586,37.9405567 C35.5920422,38.5948283 36.1996265,39.0485974 36.8653276,38.9958335 L39.0367812,38.8111601 C39.7024823,38.7531199 40.2255331,38.209705 40.2466665,37.5395514 L40.2942166,36.0832166 C41.0867179,35.8035682 41.8368996,35.4236685 42.5290174,34.9541231 L43.7283889,35.7455807 C44.2884231,36.1149277 45.0333215,36.0094 45.4666084,35.4975907 L46.8719774,33.8355296 C47.3051586,33.3237203 47.2840252,32.5691973 46.8244273,32.08377 L45.8575229,31.0602042 C46.2115596,30.3109576 46.4704962,29.5194999 46.6183241,28.706884 L47.9391596,28.4377884 C48.594294,28.3058788 49.0486615,27.6990946 48.995828,27.0342174 L48.8109111,24.8656234 C48.7527943,24.2007989 48.2086101,23.6784369 47.5376256,23.6573313 L46.2115068,23.6151203 C45.9367202,22.8447681 45.5668862,22.1166799 45.1072883,21.4412499 L45.8310533,20.3543147 C46.2115068,19.7951235 46.10584,19.0458769 45.5933029,18.6132134 Z M37.4095118,31.1498499 C35.063708,31.3504053 32.9925323,29.6038693 32.7971014,27.2612074 C32.5962816,24.9184927 34.3451735,22.8500973 36.6908717,22.6548711 C39.0366755,22.4543685 41.1078512,24.2009045 41.3032821,26.5435664 C41.5041019,28.8863338 39.75521,30.9546765 37.4095118,31.1498499 Z" id="Shape"></path>
                <path d="M11.16961,36.508317 C10.5204887,36.5753076 10.0207684,37.1214874 10.0156166,37.7759859 L10.0001614,39.0797266 C9.98985786,39.7341736 10.4741229,40.2907111 11.1232441,40.3732127 L12.0814707,40.4968362 C12.2411752,41.0791909 12.4678524,41.6357285 12.7615025,42.1613473 L12.1432918,42.9240099 C11.7311513,43.4341178 11.7620619,44.1659131 12.2205681,44.6348476 L13.1324289,45.5675633 C13.5909352,46.0364977 14.3224845,46.088029 14.8428119,45.6860852 L15.610372,45.0934757 C16.1513064,45.4129695 16.7232028,45.6655242 17.3207549,45.840679 L17.4237901,46.8300791 C17.4907629,47.4793729 18.036849,47.9792261 18.691122,47.9843792 L19.9945678,47.9998386 C20.6487892,48.0101448 21.2052304,47.525751 21.2876585,46.8764572 L21.4061489,45.9385883 C22.0553216,45.7787899 22.6735323,45.5366445 23.260781,45.2171508 L23.9820268,45.799454 C24.4920506,46.211704 25.2236515,46.1807853 25.6924613,45.7221571 L26.6249291,44.8100538 C27.0937389,44.3514772 27.1452564,43.6196818 26.743471,43.0992161 L26.1921301,42.3828801 C26.532146,41.8160363 26.794937,41.2131206 26.9752485,40.5792862 L27.83044,40.491683 C28.4795612,40.4246924 28.97923,39.8784611 28.9844333,39.2240141 L28.999837,37.9202218 C29.0101921,37.2658264 28.525927,36.7092373 27.8768058,36.6267873 L27.0421698,36.5185717 C26.8824654,35.8898903 26.6455361,35.2818215 26.3364308,34.7149777 L26.8567581,34.0759901 C27.2688986,33.5658307 27.237988,32.8340869 26.7794818,32.3651524 L25.8676725,31.4324367 C25.4091662,30.9634507 24.6775139,30.9119195 24.157238,31.3139148 L23.533824,31.7931555 C22.9465754,31.4375898 22.3180097,31.1644742 21.6586364,30.9789616 L21.5761568,30.1699209 C21.509184,29.5205756 20.9631494,29.0207739 20.3088249,29.0156208 L19.0054306,29.0001614 C18.3511576,28.9898552 17.794768,29.474249 17.7122884,30.1235428 L17.6092533,30.9274819 C16.929273,31.1026367 16.275,31.3706507 15.6670928,31.7210117 L15.0231233,31.1953929 C14.5130995,30.7831429 13.7814987,30.8141132 13.3126889,31.2726898 L12.3750693,32.1899977 C11.9062595,32.6485743 11.854742,33.3803697 12.2565789,33.9007839 L12.8078168,34.6119667 C12.4884079,35.1788105 12.2359719,35.7816747 12.0711157,36.4155607 L11.16961,36.508317 Z M19.5824273,35.0344715 C21.4525147,35.055084 22.9516241,36.5959201 22.9310686,38.4665047 C22.9104616,40.3370893 21.3700351,41.8365973 19.4999477,41.8160363 C17.6298603,41.7954238 16.1307509,40.2546393 16.1513064,38.3840031 C16.1719649,36.5134701 17.7123399,35.0139105 19.5824273,35.0344715 Z" id="Shape"></path>
            </g>
        </g>
    </g>
</svg>