<?xml version="1.0" encoding="UTF-8"?>
<svg width="73px" height="73px" viewBox="0 0 73 73" version="1.1" xmlns="http://www.w3.org/2000/svg" xmlns:xlink="http://www.w3.org/1999/xlink">
    <!-- Generator: Sketch 51.3 (57544) - http://www.bohemiancoding.com/sketch -->
    <title>fundamentals/css/layout</title>
    <desc>Created with Sketch.</desc>
    <defs></defs>
    <g id="fundamentals/css/layout" stroke="none" stroke-width="1" fill="none" fill-rule="evenodd">
        <g id="container" transform="translate(2.000000, 2.000000)" fill="#FFFFFF" fill-rule="nonzero" stroke="#293F77" stroke-width="2">
            <rect id="mask" x="-1" y="-1" width="71" height="71" rx="14"></rect>
        </g>
        <g id="seo" transform="translate(16.000000, 15.000000)" fill-rule="nonzero">
            <path d="M1,0 L41,0 C41.5522847,-1.01453063e-16 42,0.44771525 42,1 L42,6 L0,6 L0,1 C-6.76353751e-17,0.44771525 0.44771525,1.01453063e-16 1,0 Z" id="Rectangle-3" fill="#445EA0"></path>
            <path d="M41,5 L1,5 L1,41 C1,41.5522847 1.44771525,42 2,42 L40,42 C40.5522847,42 41,41.5522847 41,41 L41,5 Z" id="Shape" stroke="#445EA0" stroke-width="2" fill="#EEF6FF"></path>
            <path d="M20,20.3327328 C20,20.6997298 19.7220918,21 19.3824263,21 L5.61757368,21 C5.27790815,21 5,20.6997298 5,20.3327328 L5,9.66726721 C5,9.30027024 5.27790815,9 5.61757368,9 L19.3823028,9 C19.7219683,9 19.9998765,9.30027024 19.9998765,9.66726721 L19.9998765,20.3327328 L20,20.3327328 Z" id="Shape" fill="#69CDFF"></path>
            <rect id="Rectangle-2" fill="#FF9518" x="5" y="32" width="31" height="6" rx="3"></rect>
            <g id="Group" transform="translate(5.000000, 9.000000)" fill="#91E0E8">
                <path d="M30.1479133,1.63573601 L17.4803833,1.63573601 C17.0523767,1.63573601 16.7053833,1.27427237 16.7053833,0.828416973 C16.7053833,0.38256158 17.0523767,0.0210979375 17.4803833,0.0210979375 L30.1479133,0.0210979375 C30.5760233,0.0210979375 30.9229133,0.38256158 30.9229133,0.828416973 C30.9229133,1.27427237 30.5760233,1.63573601 30.1479133,1.63573601 Z" id="Shape"></path>
                <path d="M30.1479133,4.8621058 L17.4803833,4.8621058 C17.0523767,4.8621058 16.7053833,4.50064216 16.7053833,4.05478677 C16.7053833,3.60893137 17.0523767,3.24746773 17.4803833,3.24746773 L30.1479133,3.24746773 C30.5760233,3.24746773 30.9229133,3.60893137 30.9229133,4.05478677 C30.9229133,4.50064216 30.5760233,4.8621058 30.1479133,4.8621058 Z" id="Shape"></path>
                <path d="M30.1479133,8.0884756 L17.4803833,8.0884756 C17.0523767,8.0884756 16.7053833,7.72701195 16.7053833,7.28115656 C16.7053833,6.83530117 17.0523767,6.47383753 17.4803833,6.47383753 L30.1479133,6.47383753 C30.5760233,6.47383753 30.9229133,6.83530117 30.9229133,7.28115656 C30.9229133,7.72701195 30.5760233,8.0884756 30.1479133,8.0884756 Z" id="Shape"></path>
                <path d="M30.1479133,11.3148454 L17.4803833,11.3148454 C17.0523767,11.3148454 16.7053833,10.9533817 16.7053833,10.5075264 C16.7053833,10.061671 17.0523767,9.70020732 17.4803833,9.70020732 L30.1479133,9.70020732 C30.5760233,9.70020732 30.9229133,10.061671 30.9229133,10.5075264 C30.9229133,10.9533817 30.5760233,11.3148454 30.1479133,11.3148454 Z" id="Shape"></path>
                <rect id="Rectangle" x="0" y="13.65625" width="31" height="1.86221591" rx="0.931107955"></rect>
                <rect id="Rectangle" x="0" y="17.1301976" width="31" height="1.86221591" rx="0.931107955"></rect>
            </g>
            <g id="Group-2" transform="translate(3.000000, 2.000000)">
                <g id="Group-3">
                    <path d="M1,2 C0.736133333,2 0.478666667,1.89333333 0.292,1.70786667 C0.106533333,1.5212 0,1.26386667 0,1 C0,0.7372 0.106666667,0.48 0.292,0.293333333 C0.478533333,0.106666667 0.736,0 1,0 C1.2628,0 1.52133333,0.106533333 1.70666667,0.293333333 C1.89333333,0.48 2,0.737333333 2,1 C2,1.26386667 1.89333333,1.52133333 1.70666667,1.70786667 C1.52133333,1.89333333 1.26266667,2 1,2 Z" id="Shape" fill="#E26693"></path>
                    <path d="M4,2 C3.7372,2 3.47866667,1.89333333 3.2932,1.70653333 C3.10666667,1.5212 3,1.26386667 3,1 C3,0.7372 3.10666667,0.48 3.2932,0.293333333 C3.47986667,0.106666667 3.7372,0 4,0 C4.26386667,0 4.5212,0.106533333 4.708,0.293333333 C4.89333333,0.48 5,0.737333333 5,1 C5,1.26266667 4.8932,1.52133333 4.708,1.70653333 C4.5212,1.89333333 4.264,2 4,2 Z" id="Shape" fill="#FFAF10"></path>
                    <path d="M7,2 C6.736,2 6.47866667,1.89333333 6.29333333,1.70786667 C6.10666667,1.5212 6,1.26386667 6,1 C6,0.7372 6.10666667,0.48 6.29333333,0.293333333 C6.47866667,0.106666667 6.736,0 7,0 C7.26266667,0 7.52133333,0.106533333 7.70666667,0.293333333 C7.89333333,0.48 8,0.737333333 8,1 C8,1.26386667 7.89333333,1.52133333 7.70666667,1.70786667 C7.52,1.89333333 7.26253333,2 7,2 Z" id="Shape" fill="#37C47A"></path>
                </g>
            </g>
        </g>
    </g>
</svg>