<?xml version="1.0" encoding="UTF-8"?>
<svg width="73px" height="73px" viewBox="0 0 73 73" version="1.1" xmlns="http://www.w3.org/2000/svg" xmlns:xlink="http://www.w3.org/1999/xlink">
    <!-- Generator: Sketch 51.3 (57544) - http://www.bohemiancoding.com/sketch -->
    <title>fundamentals/css/overflow</title>
    <desc>Created with Sketch.</desc>
    <defs></defs>
    <g id="fundamentals/css/overflow" stroke="none" stroke-width="1" fill="none" fill-rule="evenodd">
        <g id="container" transform="translate(2.000000, 2.000000)" fill="#FFFFFF" fill-rule="nonzero" stroke="#53565C" stroke-width="2">
            <rect id="mask" x="-1" y="-1" width="71" height="71" rx="14"></rect>
        </g>
        <g id="school-material" transform="translate(16.000000, 18.000000)" fill-rule="nonzero">
            <path d="M34.4347094,0.286351035 L1.56520197,0.286351035 C0.700728201,0.286351035 0,0.987079236 0,1.85155301 L0,33.1558584 C0,34.0203322 0.700728201,34.7210604 1.56520197,34.7210604 L34.434798,34.7210604 C35.2992718,34.7210604 36,34.0203322 36,33.1558584 L36,1.85155301 C36,0.987079236 35.2990945,0.286351035 34.4347094,0.286351035 Z" id="Shape" fill="#EFF2FA"></path>
            <g id="Group" transform="translate(8.417969, 10.011719)" fill="#D7DEED">
                <path d="M7.78896484,1.95390625 L0.892382812,1.95390625 C0.416308594,1.95390625 0.0302734375,1.56787109 0.0302734375,1.09179687 C0.0302734375,0.615722656 0.416308594,0.2296875 0.892382813,0.2296875 L7.78896484,0.2296875 C8.26503906,0.2296875 8.65107422,0.615722656 8.65107422,1.09179687 C8.65107422,1.56787109 8.26503906,1.95390625 7.78896484,1.95390625 Z" id="Shape"></path>
                <path d="M31.9269531,1.95390625 L29.3407227,1.95390625 C28.8646484,1.95390625 28.4786133,1.56787109 28.4786133,1.09179687 C28.4786133,0.615722656 28.8646484,0.2296875 29.3407227,0.2296875 L31.9269531,0.2296875 C32.4030273,0.2296875 32.7890625,0.615722656 32.7890625,1.09179687 C32.7889648,1.56787109 32.4030273,1.95390625 31.9269531,1.95390625 Z" id="Shape"></path>
            </g>
            <path d="M34.3103516,11.965625 L19.6552734,11.965625 C19.1791992,11.965625 18.7931641,11.5795898 18.7931641,11.1035156 C18.7931641,10.6274414 19.1791992,10.2414063 19.6552734,10.2414063 L34.3104492,10.2414063 C34.7865234,10.2414063 35.1725586,10.6274414 35.1725586,11.1035156 C35.1724609,11.5795898 34.7865234,11.965625 34.3103516,11.965625 Z" id="Shape" fill="#C7CFE2"></path>
            <g id="Group" transform="translate(8.417969, 18.781250)" fill="#D7DEED">
                <path d="M11.2373047,1.80507812 L0.892382812,1.80507812 C0.416308594,1.80507812 0.0302734375,1.41904297 0.0302734375,0.94296875 C0.0302734375,0.466894531 0.416308594,0.080859375 0.892382813,0.080859375 L11.2373047,0.080859375 C11.7133789,0.080859375 12.0994141,0.466894531 12.0994141,0.94296875 C12.0993164,1.41904297 11.7133789,1.80507812 11.2373047,1.80507812 Z" id="Shape"></path>
                <path d="M6.92695312,6.11542969 L0.892382812,6.11542969 C0.416308594,6.11542969 0.0302734375,5.72939453 0.0302734375,5.25332031 C0.0302734375,4.77724609 0.416308594,4.39121094 0.892382813,4.39121094 L6.92685547,4.39121094 C7.40292969,4.39121094 7.78896484,4.77724609 7.78896484,5.25332031 C7.78896484,5.72939453 7.40302734,6.11542969 6.92695312,6.11542969 Z" id="Shape"></path>
                <path d="M31.9269531,6.11542969 L18.1337891,6.11542969 C17.6577148,6.11542969 17.2716797,5.72939453 17.2716797,5.25332031 C17.2716797,4.77724609 17.6577148,4.39121094 18.1337891,4.39121094 L31.9268555,4.39121094 C32.4029297,4.39121094 32.7889648,4.77724609 32.7889648,5.25332031 C32.7889648,5.72939453 32.4030273,6.11542969 31.9269531,6.11542969 Z" id="Shape"></path>
                <path d="M31.9269531,1.80507812 L25.0303711,1.80507812 C24.5542969,1.80507812 24.1682617,1.41904297 24.1682617,0.94296875 C24.1682617,0.466894531 24.5542969,0.080859375 25.0303711,0.080859375 L31.9269531,0.080859375 C32.4030273,0.080859375 32.7890625,0.466894531 32.7890625,0.94296875 C32.7889648,1.41904297 32.4030273,1.80507812 31.9269531,1.80507812 Z" id="Shape"></path>
            </g>
            <g id="Group" transform="translate(8.417969, 14.484375)" fill="#C7CFE2">
                <path d="M21.5821289,6.10185547 L14.6855469,6.10185547 C14.2094727,6.10185547 13.8234375,5.71582031 13.8234375,5.23974609 C13.8234375,4.76367188 14.2094727,4.37763672 14.6855469,4.37763672 L21.5821289,4.37763672 C22.0582031,4.37763672 22.4442383,4.76367188 22.4442383,5.23974609 C22.4441406,5.71591797 22.0582031,6.10185547 21.5821289,6.10185547 Z" id="Shape"></path>
                <path d="M13.8234375,1.79160156 L0.892382812,1.79160156 C0.416308594,1.79160156 0.0302734375,1.40556641 0.0302734375,0.929492188 C0.0302734375,0.453417969 0.416308594,0.0673828125 0.892382812,0.0673828125 L13.8234375,0.0673828125 C14.2995117,0.0673828125 14.6855469,0.453417969 14.6855469,0.929492188 C14.6855469,1.40556641 14.2995117,1.79160156 13.8234375,1.79160156 Z" id="Shape"></path>
                <path d="M12.9614258,10.4123047 L10.3751953,10.4123047 C9.89912109,10.4123047 9.51308594,10.0262695 9.51308594,9.55019531 C9.51308594,9.07412109 9.89912109,8.68808594 10.3751953,8.68808594 L12.9614258,8.68808594 C13.4375,8.68808594 13.8235352,9.07412109 13.8235352,9.55019531 C13.8234375,10.0262695 13.4375,10.4123047 12.9614258,10.4123047 Z" id="Shape"></path>
            </g>
            <g id="Group" transform="translate(8.417969, 27.472656)" fill="#D7DEED">
                <path d="M4.34072266,1.734375 L0.892480469,1.734375 C0.41640625,1.734375 0.0303710937,1.34833984 0.0303710937,0.872265625 C0.0303710937,0.396191406 0.41640625,0.01015625 0.892480469,0.01015625 L4.34072266,0.01015625 C4.81679687,0.01015625 5.20283203,0.396191406 5.20283203,0.872265625 C5.20273437,1.34833984 4.81679687,1.734375 4.34072266,1.734375 Z" id="Shape"></path>
                <path d="M20.7200195,6.04472656 L17.2717773,6.04472656 C16.7957031,6.04472656 16.409668,5.65869141 16.409668,5.18261719 C16.409668,4.70654297 16.7957031,4.32050781 17.2717773,4.32050781 L20.7200195,4.32050781 C21.1960938,4.32050781 21.5821289,4.70654297 21.5821289,5.18261719 C21.5821289,5.65869141 21.1960938,6.04472656 20.7200195,6.04472656 Z" id="Shape"></path>
                <path d="M31.9269531,6.04472656 L24.1683594,6.04472656 C23.6922852,6.04472656 23.30625,5.65869141 23.30625,5.18261719 C23.30625,4.70654297 23.6922852,4.32050781 24.1683594,4.32050781 L31.9269531,4.32050781 C32.4030273,4.32050781 32.7890625,4.70654297 32.7890625,5.18261719 C32.7889648,5.65869141 32.4030273,6.04472656 31.9269531,6.04472656 Z" id="Shape"></path>
                <path d="M31.9269531,1.734375 L28.4787109,1.734375 C28.0026367,1.734375 27.6166016,1.34833984 27.6166016,0.872265625 C27.6166016,0.396191406 28.0026367,0.01015625 28.4787109,0.01015625 L31.9269531,0.01015625 C32.4030273,0.01015625 32.7890625,0.396191406 32.7890625,0.872265625 C32.7889648,1.34833984 32.4030273,1.734375 31.9269531,1.734375 Z" id="Shape"></path>
            </g>
            <path d="M33.4483398,29.2070312 L16.2069336,29.2070312 C15.7308594,29.2070312 15.3448242,28.8209961 15.3448242,28.3449219 C15.3448242,27.8688477 15.7308594,27.4828125 16.2069336,27.4828125 L33.4483398,27.4828125 C33.9244141,27.4828125 34.3104492,27.8688477 34.3104492,28.3449219 C34.3103516,28.8209961 33.9244141,29.2070312 33.4483398,29.2070312 Z" id="Shape" fill="#C7CFE2"></path>
            <g id="Group" transform="translate(8.417969, 36.066406)" fill="#D7DEED">
                <path d="M11.2373047,1.76132813 L0.892382812,1.76132813 C0.416308594,1.76132813 0.0302734375,1.37529297 0.0302734375,0.89921875 C0.0302734375,0.423144531 0.416308594,0.037109375 0.892382813,0.037109375 L11.2373047,0.037109375 C11.7133789,0.037109375 12.0994141,0.423144531 12.0994141,0.89921875 C12.0993164,1.37529297 11.7133789,1.76132813 11.2373047,1.76132813 Z" id="Shape"></path>
                <path d="M31.9269531,1.76132813 L25.8924805,1.76132813 C25.4164062,1.76132813 25.0303711,1.37529297 25.0303711,0.89921875 C25.0303711,0.423144531 25.4164062,0.037109375 25.8924805,0.037109375 L31.9269531,0.037109375 C32.4030273,0.037109375 32.7890625,0.423144531 32.7890625,0.89921875 C32.7889648,1.37529297 32.4030273,1.76132813 31.9269531,1.76132813 Z" id="Shape"></path>
            </g>
            <g id="Group" transform="translate(8.417969, 31.769531)" fill="#C7CFE2">
                <path d="M22.4441406,6.05820312 L14.6855469,6.05820312 C14.2094727,6.05820312 13.8234375,5.67216797 13.8234375,5.19609375 C13.8234375,4.72001953 14.2094727,4.33398438 14.6855469,4.33398438 L22.4441406,4.33398438 C22.9202148,4.33398438 23.30625,4.72001953 23.30625,5.19609375 C23.30625,5.67216797 22.9202148,6.05820312 22.4441406,6.05820312 Z" id="Shape"></path>
                <path d="M13.8234375,1.74785156 L0.892382812,1.74785156 C0.416308594,1.74785156 0.0302734375,1.36181641 0.0302734375,0.885742188 C0.0302734375,0.409667969 0.416308594,0.0236328125 0.892382812,0.0236328125 L13.8234375,0.0236328125 C14.2995117,0.0236328125 14.6855469,0.409667969 14.6855469,0.885742188 C14.6855469,1.36181641 14.2995117,1.74785156 13.8234375,1.74785156 Z" id="Shape"></path>
            </g>
            <path d="M40.3449219,16.2759766 L25.6897461,16.2759766 C25.2136719,16.2759766 24.8276367,15.8899414 24.8276367,15.4138672 C24.8276367,14.937793 25.2136719,14.5517578 25.6897461,14.5517578 L40.3449219,14.5517578 C40.8209961,14.5517578 41.2070312,14.937793 41.2070312,15.4138672 C41.2069336,15.8899414 40.8209961,16.2759766 40.3449219,16.2759766 Z" id="Shape" fill="#D7DEED"></path>
        </g>
    </g>
</svg>