<?xml version="1.0" encoding="UTF-8"?>
<svg width="73px" height="73px" viewBox="0 0 73 73" version="1.1" xmlns="http://www.w3.org/2000/svg" xmlns:xlink="http://www.w3.org/1999/xlink">
    <!-- Generator: Sketch 51.3 (57544) - http://www.bohemiancoding.com/sketch -->
    <title>fundamentals/css/pseudo-selectors</title>
    <desc>Created with Sketch.</desc>
    <defs></defs>
    <g id="fundamentals/css/pseudo-selectors" stroke="none" stroke-width="1" fill="none" fill-rule="evenodd">
        <g id="container" transform="translate(2.000000, 2.000000)" fill-rule="nonzero">
            <rect id="mask" stroke="#53565C" stroke-width="2" fill="#FFFFFF" x="-1" y="-1" width="71" height="71" rx="14"></rect>
            <g id="select" transform="translate(9.000000, 9.000000)" fill="#53565C">
                <path d="M15.9377988,2.1249668 L11.6877656,2.1249668 C11.1012656,2.1249668 10.6252324,2.601 10.6252324,3.1875 C10.6252324,3.774 11.1012656,4.2500332 11.6877656,4.2500332 L15.9377988,4.2500332 C16.5263906,4.2500332 17.000332,3.774 17.000332,3.1875 C17.000332,2.601 16.5264902,2.1249668 15.9377988,2.1249668 Z" id="Shape"></path>
                <path d="M28.6877988,2.1249668 L24.4377656,2.1249668 C23.8512656,2.1249668 23.3752324,2.601 23.3752324,3.1875 C23.3752324,3.774 23.8512656,4.2500332 24.4377656,4.2500332 L28.6877988,4.2500332 C29.2763906,4.2500332 29.750332,3.774 29.750332,3.1875 C29.750332,2.601 29.2764902,2.1249668 28.6877988,2.1249668 Z" id="Shape"></path>
                <path d="M15.9377988,35.0625 L11.6877656,35.0625 C11.1012656,35.0625 10.6252324,35.5385332 10.6252324,36.1250332 C10.6252324,36.7115332 11.1012656,37.1875664 11.6877656,37.1875664 L15.9377988,37.1875664 C16.5263906,37.1875664 17.000332,36.7115332 17.000332,36.1250332 C17.000332,35.5385332 16.5264902,35.0625 15.9377988,35.0625 Z" id="Shape"></path>
                <path d="M28.6877988,35.0625 L24.4377656,35.0625 C23.8512656,35.0625 23.3752324,35.5385332 23.3752324,36.1250332 C23.3752324,36.7115332 23.8512656,37.1875664 24.4377656,37.1875664 L28.6877988,37.1875664 C29.2742988,37.1875664 29.750332,36.7115332 29.750332,36.1250332 C29.750332,35.5385332 29.2764902,35.0625 28.6877988,35.0625 Z" id="Shape"></path>
                <path d="M3.18779883,23.3750332 C2.59920703,23.3750332 2.12526562,23.8510664 2.12526562,24.4375664 L2.12526562,28.6875 C2.12526562,29.274 2.60129883,29.7500332 3.18779883,29.7500332 C3.77429883,29.7500332 4.25033203,29.274 4.25033203,28.6875 L4.25033203,24.4374668 C4.25033203,23.8509668 3.77649023,23.3750332 3.18779883,23.3750332 Z" id="Shape"></path>
                <path d="M3.18779883,10.6250332 C2.59920703,10.6250332 2.12526562,11.1010664 2.12526562,11.6875664 L2.12526562,15.9375 C2.12526562,16.524 2.60129883,17.0000332 3.18779883,17.0000332 C3.77639062,17.0000332 4.25033203,16.524 4.25033203,15.9375 L4.25033203,11.6874668 C4.25033203,11.1009668 3.77649023,10.6250332 3.18779883,10.6250332 Z" id="Shape"></path>
                <path d="M37.1878652,23.3750332 C36.6013652,23.3750332 36.125332,23.8510664 36.125332,24.4375664 L36.125332,28.6875 C36.125332,29.274 36.6013652,29.7500332 37.1878652,29.7500332 C37.7743652,29.7500332 38.2503984,29.274 38.2503984,28.6875 L38.2503984,24.4374668 C38.2502988,23.8509668 37.776457,23.3750332 37.1878652,23.3750332 Z" id="Shape"></path>
                <path d="M37.1878652,10.6250332 C36.5992734,10.6250332 36.125332,11.1010664 36.125332,11.6875664 L36.125332,15.9375 C36.125332,16.524 36.6013652,17.0000332 37.1878652,17.0000332 C37.7743652,17.0000332 38.2503984,16.524 38.2503984,15.9375 L38.2503984,11.6874668 C38.2502988,11.1009668 37.776457,10.6250332 37.1878652,10.6250332 Z" id="Shape"></path>
                <path d="M39.312832,0 L35.0627988,0 C34.4762988,0 34.0002656,0.476033203 34.0002656,1.0625332 L34.0002656,5.31256641 C34.0002656,5.89906641 34.4762988,6.37509961 35.0627988,6.37509961 L39.312832,6.37509961 C39.9014238,6.37509961 40.3753652,5.89906641 40.3753652,5.31256641 L40.3753652,1.0625332 C40.3753652,0.476033203 39.9014238,0 39.312832,0 Z" id="Shape"></path>
                <path d="M5.31286523,0 L1.06283203,0 C0.476332031,0 0.000298828125,0.476033203 0.000298828125,1.0625332 L0.000298828125,5.31256641 C0.000298828125,5.8989668 0.476332031,6.375 1.06283203,6.375 L5.31286523,6.375 C5.90145703,6.375 6.37539844,5.8989668 6.37539844,5.3124668 L6.37539844,1.0625332 C6.37529883,0.476033203 5.90145703,0 5.31286523,0 Z" id="Shape"></path>
                <path d="M5.31286523,32.9375332 L1.06283203,32.9375332 C0.476332031,32.9375332 0.000298828125,33.4135664 0.000298828125,34.0000664 L0.000298828125,38.25 C0.000298828125,38.8365 0.476332031,39.3125332 1.06283203,39.3125332 L5.31286523,39.3125332 C5.90145703,39.3125332 6.37539844,38.8365 6.37539844,38.25 L6.37539844,33.9999668 C6.37529883,33.4134668 5.90145703,32.9375332 5.31286523,32.9375332 Z" id="Shape"></path>
                <path d="M50.4542402,38.383875 L31.3292402,27.7588418 C30.9339902,27.54 30.445207,27.5930918 30.1116152,27.890625 C29.7737402,28.1881582 29.6589902,28.6640918 29.826832,29.08275 L38.3267988,50.3327168 C38.4861738,50.73225 38.8707656,50.9957168 39.300082,51 C39.3043652,51 39.3085488,51 39.312832,51 C39.7378652,51 40.122457,50.7470918 40.2902988,50.356125 L43.309957,43.3096582 L50.3564238,40.29 C50.7282656,40.130625 50.9768906,39.7715332 50.998207,39.3677168 C51.0194238,38.964 50.806957,38.5815 50.4542402,38.383875 Z" id="Shape"></path>
            </g>
        </g>
    </g>
</svg>