<?xml version="1.0" encoding="UTF-8"?>
<svg width="73px" height="73px" viewBox="0 0 73 73" version="1.1" xmlns="http://www.w3.org/2000/svg" xmlns:xlink="http://www.w3.org/1999/xlink">
    <!-- Generator: Sketch 51.3 (57544) - http://www.bohemiancoding.com/sketch -->
    <title>fundamentals/css/syntax</title>
    <desc>Created with Sketch.</desc>
    <defs></defs>
    <g id="fundamentals/css/syntax" stroke="none" stroke-width="1" fill="none" fill-rule="evenodd">
        <g id="container" transform="translate(2.000000, 2.000000)" fill-rule="nonzero">
            <rect id="mask" stroke="#102693" stroke-width="2" fill="#3366FF" x="-1" y="-1" width="71" height="71" rx="14"></rect>
            <path d="M14,0 L45.2700196,0 L26.6005961,69 L14,69 C6.2680135,69 6.27596577e-15,62.7319865 5.32907052e-15,55 L5.32907052e-15,14 C4.38217527e-15,6.2680135 6.2680135,3.19669972e-15 14,1.77635684e-15 Z" id="mask" fill="#254EDC"></path>
        </g>
        <path d="M24.8710938,47.1484375 C22.9335841,47.1484375 21.6328158,46.8593779 20.96875,46.28125 C20.3046842,45.7109346 19.9726562,44.5586024 19.9726562,42.8242188 L19.9726562,40.3046875 C19.9726562,39.7578098 19.9238286,39.2714865 19.8261719,38.8457031 C19.7285151,38.4199197 19.5703136,38.0898449 19.3515625,37.8554688 C19.1406239,37.6289051 18.8398457,37.460938 18.4492188,37.3515625 C18.0585918,37.242187 17.6015651,37.1875 17.078125,37.1875 L16,37.1875 L16,34.9492188 L17.078125,34.9492188 C18.1718805,34.9492188 18.9296854,34.7265647 19.3515625,34.28125 C19.7656271,33.8281227 19.9726562,33.0117246 19.9726562,31.8320312 L19.9726562,29.3125 C19.9726562,27.5781163 20.3046842,26.4257841 20.96875,25.8554688 C21.6171907,25.2851534 22.917959,25 24.8710938,25 L26.6289062,25 L26.6289062,27.2265625 L25.1875,27.2265625 C24.3671834,27.2265625 23.8242201,27.3906234 23.5585938,27.71875 C23.2851549,28.0546892 23.1484375,28.7773382 23.1484375,29.8867188 L23.1484375,32.3359375 C23.1484375,33.6250064 22.9570332,34.5312474 22.5742188,35.0546875 C22.1914043,35.5703151 21.5078174,35.9062492 20.5234375,36.0625 C21.5000049,36.2265633 22.1835918,36.5742161 22.5742188,37.1054688 C22.9570332,37.6289089 23.1484375,38.5351498 23.1484375,39.8242188 L23.1484375,42.2265625 C23.1484375,43.3437556 23.2851549,44.074217 23.5585938,44.4179688 C23.8242201,44.7460954 24.3671834,44.9101562 25.1875,44.9101562 L26.6289062,44.9101562 L26.6289062,47.1484375 L24.8710938,47.1484375 Z M46.46875,44.9101562 L47.8867188,44.9101562 C48.6992228,44.9101562 49.2460923,44.7421892 49.5273438,44.40625 C49.8085952,44.0703108 49.9492188,43.3437556 49.9492188,42.2265625 L49.9492188,39.8242188 C49.9492188,38.5351498 50.1406231,37.6289089 50.5234375,37.1054688 C50.7265635,36.8320299 51.0019514,36.6093759 51.3496094,36.4375 C51.6972674,36.2656241 52.1015602,36.1406254 52.5625,36.0625 C51.5703075,35.9062492 50.8906268,35.5703151 50.5234375,35.0546875 C50.1406231,34.5312474 49.9492188,33.6250064 49.9492188,32.3359375 L49.9492188,29.8867188 C49.9492188,28.7929633 49.8125014,28.0742205 49.5390625,27.7304688 C49.3906243,27.5507804 49.1718764,27.4218754 48.8828125,27.34375 C48.5937486,27.2656246 48.2617206,27.2265625 47.8867188,27.2265625 L46.46875,27.2265625 L46.46875,25 L48.2265625,25 C50.1718847,25 51.4687468,25.2851534 52.1171875,25.8554688 C52.7656282,26.4335966 53.0898438,27.5859289 53.0898438,29.3125 L53.0898438,31.8320312 C53.0898438,32.4648469 53.1464838,32.9746074 53.2597656,33.3613281 C53.3730474,33.7480488 53.531249,34.0507802 53.734375,34.2695312 C53.937501,34.4882823 54.2226544,34.6562494 54.5898438,34.7734375 C54.9570331,34.8906256 55.4335908,34.9492188 56.0195312,34.9492188 L57.0976562,34.9492188 L57.0976562,37.1875 L56.0195312,37.1875 C54.9179632,37.1875 54.1562521,37.4140602 53.734375,37.8671875 C53.3046854,38.3203148 53.0898438,39.1328066 53.0898438,40.3046875 L53.0898438,42.8242188 C53.0898438,44.5507899 52.7656282,45.7031221 52.1171875,46.28125 C51.4531217,46.8593779 50.1562596,47.1484375 48.2265625,47.1484375 L46.46875,47.1484375 L46.46875,44.9101562 Z" id="{-}" fill="#FFFFFF"></path>
        <text id="..." font-family="Hack-Bold, Hack" font-size="12" font-weight="bold" letter-spacing="-1.79999995" fill="#FFFFFF">
            <tspan x="27.4630859" y="41">..</tspan>
            <tspan x="38.3123047" y="41">.</tspan>
        </text>
    </g>
</svg>