<?xml version="1.0" encoding="UTF-8"?>
<svg width="73px" height="73px" viewBox="0 0 73 73" version="1.1" xmlns="http://www.w3.org/2000/svg" xmlns:xlink="http://www.w3.org/1999/xlink">
    <!-- Generator: Sketch 51.3 (57544) - http://www.bohemiancoding.com/sketch -->
    <title>fundamentals/css/transforms</title>
    <desc>Created with Sketch.</desc>
    <defs></defs>
    <g id="fundamentals/css/transforms" stroke="none" stroke-width="1" fill="none" fill-rule="evenodd">
        <g id="container" transform="translate(2.000000, 2.000000)" fill-rule="nonzero">
            <rect id="mask" stroke="#000000" stroke-width="2" fill="#FFFFFF" x="-1" y="-1" width="71" height="71" rx="14"></rect>
            <g id="resize" transform="translate(16.000000, 16.000000)" fill="#000000">
                <path d="M35.855359,0 L6.14464096,0 C5.51243937,0 5,0.512439295 5,1.14464096 L5,21.0569233 L14.3240775,21.0569233 C23.5954486,11.7852763 21.6152307,13.7654942 24.2704225,11.1111303 L19.0549658,11.1111303 C18.4382174,11.1111303 17.9078413,10.636772 17.8794185,10.0208514 C17.8493399,9.36353836 18.3722653,8.82184833 19.0229556,8.82184833 L27.0335107,8.82184833 C27.7090365,8.82184833 28.1781517,9.37981944 28.1781517,9.96648929 L28.1781517,17.9447582 C28.1781517,18.5609548 27.7051732,19.0910549 27.0898045,19.1205815 C26.4324914,19.1517639 25.8891457,18.6282866 25.8891457,17.9773204 L25.8891457,12.7295775 C23.2345058,15.3847693 25.2152756,13.4039996 15.9433527,22.6759225 L15.9433527,32 L35.855359,32 C36.4875607,32 37,31.4875606 37,30.855359 L37,1.14464096 C37,0.512439295 36.4875607,4.01560228e-15 35.855359,0 Z" id="Shape"></path>
                <path d="M5.29119857,31.7088014 C4.8385625,31.2556057 4.8385625,30.5204218 5.29119857,30.0672262 L11.3584247,24 C11.1315472,24 1.31762431,24 1.16040456,24 C0.51949643,24 0,24.5197762 0,25.1604046 L0,35.8395954 C0,36.4805036 0.51949643,37 1.16040456,37 L11.8395954,37 C12.4805035,37 13,36.4805036 13,35.8395954 C13,35.5998494 13,25.9646869 13,25.6415753 L6.93277385,31.7088014 C6.48013771,32.1614375 5.74439425,32.161997 5.29119857,31.7088014 Z" id="Shape"></path>
            </g>
        </g>
    </g>
</svg>