<?xml version="1.0" encoding="UTF-8"?>
<svg width="73px" height="73px" viewBox="0 0 73 73" version="1.1" xmlns="http://www.w3.org/2000/svg" xmlns:xlink="http://www.w3.org/1999/xlink">
    <!-- Generator: Sketch 51.3 (57544) - http://www.bohemiancoding.com/sketch -->
    <title>progressive-webapps/audits/chrome-devtools</title>
    <desc>Created with Sketch.</desc>
    <defs></defs>
    <g id="progressive-webapps/audits/chrome-devtools" stroke="none" stroke-width="1" fill="none" fill-rule="evenodd">
        <g id="container" transform="translate(2.000000, 2.000000)" fill="#FFFFFF" fill-rule="nonzero" stroke="#4B4B4B" stroke-width="2">
            <rect id="mask" x="-1" y="-1" width="71" height="71" rx="14"></rect>
        </g>
        <g id="data-(1)" transform="translate(16.000000, 15.000000)" fill-rule="nonzero">
            <polygon id="Shape" fill="#5A5A5A" points="15.4678879 35.0811921 27.4825745 35.0811921 27.4825745 40.0539856 15.4678879 40.0539856"></polygon>
            <path d="M40.7455444,35.7776718 L2.20491789,35.7776718 C0.987144449,35.7776718 -2.84217094e-14,34.7905273 -2.84217094e-14,33.5727539 L-2.84217094e-14,2.20491789 C-2.84217094e-14,0.987144449 0.987144449,-2.84217094e-14 2.20491789,-2.84217094e-14 L40.7455444,-2.84217094e-14 C41.9633179,-2.84217094e-14 42.9504623,0.987144449 42.9504623,2.20491789 L42.9504623,33.5727539 C42.9504623,34.7905273 41.9633179,35.7776718 40.7455444,35.7776718 Z" id="Shape" fill="#FFD86E"></path>
            <path d="M42.9507904,2.20524593 L42.9507904,33.5727539 C42.9507904,34.7905273 41.9636459,35.7776718 40.7458725,35.7776718 L38.0524674,35.7776718 C39.2702408,35.7776718 40.2573853,34.7905273 40.2573853,33.5727539 L40.2573853,2.20524593 C40.2573853,0.987472492 39.2702408,0.000328063965 38.0524674,0.000328063965 L40.7458725,0.000328063965 C41.9636459,0.000328063965 42.9507904,0.987472492 42.9507904,2.20524593 Z" id="Shape" fill="#FFB509"></path>
            <path d="M42.9504623,30.4656601 L0,30.4656601 L0,33.5727539 C0,34.7905273 0.987144449,35.7776718 2.20491789,35.7776718 L40.7455444,35.7776718 C41.9633179,35.7776718 42.9504623,34.7905273 42.9504623,33.5727539 L42.9504623,30.4656601 Z" id="Shape" fill="#838383"></path>
            <path d="M42.9507904,30.465332 L42.9507904,33.5727539 C42.9507904,34.7905273 41.9636459,35.7776718 40.7458725,35.7776718 L38.0524674,35.7776718 C39.2702408,35.7776718 40.2573853,34.7905273 40.2573853,33.5727539 L40.2573853,30.465332 L42.9507904,30.465332 Z" id="Shape" fill="#5A5A5A"></path>
            <path d="M42.999672,7.52185059 L0.0478972969,7.52185059 L0.0478972969,2.20491789 C0.0478972969,0.987144449 1.03504183,0 2.25248714,0 L40.7947541,0 C42.0125275,0 42.999672,0.987144449 42.999672,2.20491789 L42.999672,7.52185059 Z" id="Shape" fill="#ACACAC"></path>
            <path d="M43,2.20458984 L43,7.52217863 L40.2573853,7.52217863 L40.2573853,2.20458984 C40.2573853,0.987472492 39.2702408,0.000328063965 38.0521393,0.000328063965 L40.7950821,0.000328063965 C42.0128556,0.000328063965 43,0.987472492 43,2.20458984 Z" id="Shape" fill="#9C9C9C"></path>
            <path d="M31.3760376,42.9517746 L11.5744247,42.9517746 C11.3359222,42.9517746 11.1423645,42.7582169 11.1423645,42.5197144 L11.1423645,41.1192093 C11.1423645,40.1694641 11.9123306,39.399498 12.8620758,39.399498 L30.0883866,39.399498 C31.0381317,39.399498 31.8080978,40.1694641 31.8080978,41.1192093 L31.8080978,42.5197144 C31.8080978,42.7582169 31.6145401,42.9517746 31.3760376,42.9517746 Z" id="Shape" fill="#838383"></path>
            <path d="M31.8080978,41.1188812 L31.8080978,42.5200424 C31.8080978,42.7585449 31.6145401,42.9521027 31.3757096,42.9521027 L29.8502121,42.9521027 L29.8502121,41.1188812 C29.8502121,40.1697922 29.0802459,39.399498 28.1311569,39.399498 L30.0890426,39.399498 C31.0384598,39.399498 31.8080978,40.1694641 31.8080978,41.1188812 Z" id="Shape" fill="#5A5A5A"></path>
            <g id="Group" transform="translate(2.183594, 10.330078)" fill="#838383">
                <path d="M2.72752376,5.33235173 C2.56644442,5.33235173 2.40503695,5.27100374 2.28201294,5.14797974 L0.249656656,3.11529541 C0.00360872461,2.86957552 0.00360872461,2.47064974 0.249656656,2.22460172 L2.28201294,0.192245441 C2.52806087,-0.0538024902 2.92698665,-0.0538024902 3.17303467,0.192245441 C3.41908268,0.438293457 3.41908268,0.836891195 3.17303467,1.08293913 L1.58586116,2.67011263 L3.17303467,4.25728605 C3.41908268,4.50333407 3.41908268,4.9019318 3.17303467,5.14797974 C3.05001066,5.27100374 2.88860319,5.33235173 2.72752376,5.33235173 Z" id="Shape"></path>
                <path d="M7.58680729,5.33235173 C7.42572787,5.33235173 7.26432039,5.27100374 7.14129639,5.14797974 C6.89524837,4.9019318 6.89524837,4.50300602 7.14129639,4.25728605 L8.72846989,2.67011263 L7.14129639,1.08293913 C6.89524837,0.836891195 6.89524837,0.437965414 7.14129639,0.192245441 C7.3873444,-0.0538024902 7.78627018,-0.0538024902 8.03231812,0.192245441 L10.0646744,2.22460172 C10.3107223,2.47064974 10.3107223,2.86957552 10.0646744,3.11529541 L8.03231812,5.14797974 C7.90929411,5.27100374 7.74788664,5.33235173 7.58680729,5.33235173 Z" id="Shape"></path>
                <path d="M4.42787931,5.33267977 C4.35111239,5.33267977 4.27336116,5.318573 4.19757845,5.28871916 C3.8737793,5.16175846 3.71434017,4.79596712 3.84162907,4.47216797 L5.43864437,0.407127359 C5.56593327,0.083656332 5.93172453,-0.0761108398 6.25519564,0.0511779785 C6.57899479,0.178466797 6.73843384,0.544258139 6.61114502,0.868057293 L5.01412964,4.93276978 C4.91669466,5.18111418 4.67917635,5.33267977 4.42787931,5.33267977 Z" id="Shape"></path>
                <path d="M5.42913053,9.13592529 L1.06194303,9.13592529 C0.71419523,9.13592529 0.432060221,8.85379028 0.432060221,8.50604248 C0.432060221,8.15796663 0.71419523,7.87615967 1.06194303,7.87615967 L5.42913053,7.87615967 C5.77720638,7.87615967 6.05901335,8.15796663 6.05901335,8.50604248 C6.05901335,8.85379028 5.77720638,9.13592529 5.42913053,9.13592529 Z" id="Shape"></path>
                <path d="M15.4882279,9.13592529 L7.80989079,9.13592529 C7.4621429,9.13592529 7.18000798,8.85379028 7.18000798,8.50604248 C7.18000798,8.15796663 7.4621429,7.87615967 7.80989079,7.87615967 L15.4882279,7.87615967 C15.8363037,7.87615967 16.1181107,8.15796663 16.1181107,8.50604248 C16.1181107,8.85379028 15.8363037,9.13592529 15.4882279,9.13592529 Z" id="Shape"></path>
                <path d="M2.9223938,11.8700104 L1.06194303,11.8700104 C0.71419523,11.8700104 0.432060221,11.5882035 0.432060221,11.2401276 C0.432060221,10.8923797 0.71419523,10.6102448 1.06194303,10.6102448 L2.9223938,10.6102448 C3.27046964,10.6102448 3.55227661,10.8923797 3.55227661,11.2401276 C3.55227661,11.5882035 3.2701416,11.8700104 2.9223938,11.8700104 Z" id="Shape"></path>
                <path d="M14.2494583,11.8700104 L13.1163254,11.8700104 C12.7685776,11.8700104 12.4864425,11.5882035 12.4864425,11.2401276 C12.4864425,10.8923797 12.7685776,10.6102448 13.1163254,10.6102448 L14.2494583,10.6102448 C14.5972061,10.6102448 14.8793411,10.8923797 14.8793411,11.2401276 C14.8793411,11.5882035 14.5972061,11.8700104 14.2494583,11.8700104 Z" id="Shape"></path>
                <path d="M10.7618103,11.8700104 L5.19718929,11.8700104 C4.84911344,11.8700104 4.56730648,11.5882035 4.56730648,11.2401276 C4.56730648,10.8923797 4.84911344,10.6102448 5.19718929,10.6102448 L10.7618103,10.6102448 C11.1098861,10.6102448 11.3916931,10.8923797 11.3916931,11.2401276 C11.3916931,11.5882035 11.1095581,11.8700104 10.7618103,11.8700104 Z" id="Shape"></path>
                <path d="M18.4273529,11.8700104 L16.3051071,11.8700104 C15.9573593,11.8700104 15.6752243,11.5882035 15.6752243,11.2401276 C15.6752243,10.8923797 15.9573593,10.6102448 16.3051071,10.6102448 L18.4273529,10.6102448 C18.7751007,10.6102448 19.0572357,10.8923797 19.0572357,11.2401276 C19.0572357,11.5882035 18.7751007,11.8700104 18.4273529,11.8700104 Z" id="Shape"></path>
                <path d="M14.3646087,3.17139437 L12.1262284,3.17139437 C11.7781525,3.17139437 11.4963455,2.8895874 11.4963455,2.54151156 C11.4963455,2.19376375 11.7781525,1.91162874 12.1262284,1.91162874 L14.3646087,1.91162874 C14.7126847,1.91162874 14.9944915,2.19376375 14.9944915,2.54151156 C14.9944915,2.8895874 14.7126847,3.17139437 14.3646087,3.17139437 Z" id="Shape"></path>
                <path d="M30.5286484,3.17139437 L16.8713455,3.17139437 C16.5235977,3.17139437 16.2414627,2.8895874 16.2414627,2.54151156 C16.2414627,2.19376375 16.5235977,1.91162874 16.8713455,1.91162874 L30.5286484,1.91162874 C30.8763962,1.91162874 31.1585312,2.19376375 31.1585312,2.54151156 C31.1585312,2.8895874 30.8763962,3.17139437 30.5286484,3.17139437 Z" id="Shape"></path>
                <path d="M28.4539718,6.02391048 L22.9221573,6.02391048 C22.5740814,6.02391048 22.2922745,5.7421036 22.2922745,5.39402767 C22.2922745,5.04627995 22.5740814,4.76414486 22.9221573,4.76414486 L28.4539718,4.76414486 C28.8020477,4.76414486 29.0838547,5.04627995 29.0838547,5.39402767 C29.0838547,5.7421036 28.8020477,6.02391048 28.4539718,6.02391048 Z" id="Shape"></path>
                <path d="M20.8474808,6.02391048 L18.945694,6.02391048 C18.5979461,6.02391048 18.3158112,5.7421036 18.3158112,5.39402767 C18.3158112,5.04627995 18.5979461,4.76414486 18.945694,4.76414486 L20.8474808,4.76414486 C21.1955566,4.76414486 21.4773636,5.04627995 21.4773636,5.39402767 C21.4773636,5.7421036 21.1955566,6.02391048 20.8474808,6.02391048 Z" id="Shape"></path>
                <path d="M16.7850647,6.02391048 L12.1259002,6.02391048 C11.7781525,6.02391048 11.4960174,5.7421036 11.4960174,5.39402767 C11.4960174,5.04627995 11.7781525,4.76414486 12.1259002,4.76414486 L16.7850647,4.76414486 C17.1328125,4.76414486 17.4149475,5.04627995 17.4149475,5.39402767 C17.4149475,5.7421036 17.1328125,6.02391048 16.7850647,6.02391048 Z" id="Shape"></path>
                <path d="M10.7700119,14.5814591 L6.40282438,14.5814591 C6.05474854,14.5814591 5.77294157,14.2993241 5.77294157,13.9515763 C5.77294157,13.6035003 6.05474854,13.3216934 6.40282438,13.3216934 L10.7700119,13.3216934 C11.1180877,13.3216934 11.3998947,13.6035003 11.3998947,13.9515763 C11.3998947,14.2993241 11.1180877,14.5814591 10.7700119,14.5814591 Z" id="Shape"></path>
                <path d="M4.41738127,14.5814591 L1.06194303,14.5814591 C0.71419523,14.5814591 0.432060221,14.2993241 0.432060221,13.9515763 C0.432060221,13.6035003 0.71419523,13.3216934 1.06194303,13.3216934 L4.41738127,13.3216934 C4.76512907,13.3216934 5.04726408,13.6035003 5.04726408,13.9515763 C5.04726408,14.2993241 4.76512907,14.5814591 4.41738127,14.5814591 Z" id="Shape"></path>
                <path d="M18.6865234,14.5814591 L12.9818192,14.5814591 C12.6337433,14.5814591 12.3519364,14.2993241 12.3519364,13.9515763 C12.3519364,13.6035003 12.6337433,13.3216934 12.9818192,13.3216934 L18.6865234,13.3216934 C19.0345993,13.3216934 19.3164062,13.6035003 19.3164062,13.9515763 C19.3164062,14.2993241 19.0345993,14.5814591 18.6865234,14.5814591 Z" id="Shape"></path>
            </g>
            <polygon id="Shape" fill="#64DCFC" points="24.9151458 22.120697 38.953331 22.120697 38.953331 26.874672 24.9151458 26.874672"></polygon>
            <polygon id="Shape" fill="#64DCFC" points="24.9151458 29.4676895 38.953331 29.4676895 38.953331 33.8762131 24.9151458 33.8762131"></polygon>
            <polygon id="Shape" fill="#00D1FC" points="37.2933273 22.120697 38.953331 22.120697 38.953331 26.874672 37.2933273 26.874672"></polygon>
            <polygon id="Shape" fill="#00D1FC" points="37.2933273 29.4676895 38.953331 29.4676895 38.953331 33.8762131 37.2933273 33.8762131"></polygon>
            <path d="M40.1156616,23.1534424 L23.7528153,23.1534424 C23.4067078,23.1534424 23.1262131,22.8729477 23.1262131,22.5268402 L23.1262131,19.3761139 C23.1262131,19.0300064 23.4067078,18.7495117 23.7528153,18.7495117 L40.1156616,18.7495117 C40.4617691,18.7495117 40.7422638,19.0300064 40.7422638,19.3761139 L40.7422638,22.5268402 C40.7422638,22.8729477 40.4617691,23.1534424 40.1156616,23.1534424 Z" id="Shape" fill="#0396FD"></path>
            <path d="M40.1156616,30.2182999 L23.7528153,30.2182999 C23.4067078,30.2182999 23.1262131,29.9378052 23.1262131,29.5916977 L23.1262131,26.4409714 C23.1262131,26.0948639 23.4067078,25.8143692 23.7528153,25.8143692 L40.1156616,25.8143692 C40.4617691,25.8143692 40.7422638,26.0948639 40.7422638,26.4409714 L40.7422638,29.5916977 C40.7422638,29.9378052 40.4617691,30.2182999 40.1156616,30.2182999 Z" id="Shape" fill="#0396FD"></path>
            <path d="M40.1156616,37.2831574 L23.7528153,37.2831574 C23.4067078,37.2831574 23.1262131,37.0026627 23.1262131,36.6565552 L23.1262131,33.5058289 C23.1262131,33.1597214 23.4067078,32.8792267 23.7528153,32.8792267 L40.1156616,32.8792267 C40.4617691,32.8792267 40.7422638,33.1597214 40.7422638,33.5058289 L40.7422638,36.6565552 C40.7422638,37.0026627 40.4617691,37.2831574 40.1156616,37.2831574 Z" id="Shape" fill="#0396FD"></path>
            <path d="M40.7422638,19.3761139 L40.7422638,22.5268402 C40.7422638,22.8726196 40.4620972,23.1534424 40.1156616,23.1534424 L38.6616821,23.1534424 C39.0084457,23.1534424 39.2882843,22.8726196 39.2882843,22.5268402 L39.2882843,19.3761139 C39.2882843,19.0303345 39.0084457,18.7495117 38.6616821,18.7495117 L40.1156616,18.7495117 C40.4620972,18.7495117 40.7422638,19.0303345 40.7422638,19.3761139 Z" id="Shape" fill="#0077F0"></path>
            <path d="M40.7422638,26.4406433 L40.7422638,29.5913696 C40.7422638,29.9381332 40.4620972,30.2182999 40.1156616,30.2182999 L38.6616821,30.2182999 C39.0084457,30.2182999 39.2882843,29.9381332 39.2882843,29.5913696 L39.2882843,26.4406433 C39.2882843,26.0948639 39.0084457,25.8140412 38.6616821,25.8140412 L40.1156616,25.8140412 C40.4620972,25.8140412 40.7422638,26.0948639 40.7422638,26.4406433 Z" id="Shape" fill="#0077F0"></path>
            <path d="M40.7422638,33.5061569 L40.7422638,36.6568832 C40.7422638,37.0026627 40.4620972,37.2834854 40.1156616,37.2834854 L38.6616821,37.2834854 C39.0084457,37.2834854 39.2882843,37.0026627 39.2882843,36.6568832 L39.2882843,33.5061569 C39.2882843,33.1597214 39.0084457,32.8795548 38.6616821,32.8795548 L40.1156616,32.8795548 C40.4620972,32.8795548 40.7422638,33.1597214 40.7422638,33.5061569 Z" id="Shape" fill="#0077F0"></path>
            <path d="M28.5851974,21.5813599 L25.4656372,21.5813599 C25.1178894,21.5813599 24.8357544,21.2995529 24.8357544,20.9514771 C24.8357544,20.6037292 25.1178894,20.3215942 25.4656372,20.3215942 L28.5855256,20.3215942 C28.9332733,20.3215942 29.2154084,20.6037292 29.2154084,20.9514771 C29.2154084,21.2995529 28.9332733,21.5813599 28.5851974,21.5813599 Z" id="Shape" fill="#E7E7E7"></path>
            <path d="M38.4028397,21.5813599 L33.9985809,21.5813599 C33.6508332,21.5813599 33.3686981,21.2995529 33.3686981,20.9514771 C33.3686981,20.6037292 33.6508332,20.3215942 33.9985809,20.3215942 L38.4025116,20.3215942 C38.7505875,20.3215942 39.0323944,20.6037292 39.0323944,20.9514771 C39.0323944,21.2995529 38.7505875,21.5813599 38.4028397,21.5813599 Z" id="Shape" fill="#E7E7E7"></path>
            <path d="M31.7966156,21.5813599 L30.7871628,21.5813599 C30.439415,21.5813599 30.1572799,21.2995529 30.1572799,20.9514771 C30.1572799,20.6037292 30.439415,20.3215942 30.7871628,20.3215942 L31.7966156,20.3215942 C32.1446915,20.3215942 32.4264984,20.6037292 32.4264984,20.9514771 C32.4264984,21.2995529 32.1443634,21.5813599 31.7966156,21.5813599 Z" id="Shape" fill="#E7E7E7"></path>
            <path d="M28.5851974,28.6462174 L25.4656372,28.6462174 C25.1178894,28.6462174 24.8357544,28.3644104 24.8357544,28.0163346 C24.8357544,27.6685868 25.1178894,27.3864517 25.4656372,27.3864517 L28.5855256,27.3864517 C28.9332733,27.3864517 29.2154084,27.6685868 29.2154084,28.0163346 C29.2154084,28.3644104 28.9332733,28.6462174 28.5851974,28.6462174 Z" id="Shape" fill="#E7E7E7"></path>
            <path d="M38.4028397,28.6462174 L33.9985809,28.6462174 C33.6508332,28.6462174 33.3686981,28.3644104 33.3686981,28.0163346 C33.3686981,27.6685868 33.6508332,27.3864517 33.9985809,27.3864517 L38.4025116,27.3864517 C38.7505875,27.3864517 39.0323944,27.6685868 39.0323944,28.0163346 C39.0323944,28.3644104 38.7505875,28.6462174 38.4028397,28.6462174 Z" id="Shape" fill="#E7E7E7"></path>
            <path d="M31.7966156,28.6462174 L30.7871628,28.6462174 C30.439415,28.6462174 30.1572799,28.3644104 30.1572799,28.0163346 C30.1572799,27.6685868 30.439415,27.3864517 30.7871628,27.3864517 L31.7966156,27.3864517 C32.1446915,27.3864517 32.4264984,27.6685868 32.4264984,28.0163346 C32.4264984,28.3644104 32.1443634,28.6462174 31.7966156,28.6462174 Z" id="Shape" fill="#E7E7E7"></path>
            <path d="M28.5851974,35.7110749 L25.4656372,35.7110749 C25.1178894,35.7110749 24.8357544,35.4289398 24.8357544,35.0811921 C24.8357544,34.7334442 25.1178894,34.4513092 25.4656372,34.4513092 L28.5855256,34.4513092 C28.9332733,34.4513092 29.2154084,34.7334442 29.2154084,35.0811921 C29.2154084,35.4289398 28.9332733,35.7110749 28.5851974,35.7110749 Z" id="Shape" fill="#E7E7E7"></path>
            <path d="M38.4028397,35.7110749 L33.9985809,35.7110749 C33.6508332,35.7110749 33.3686981,35.4289398 33.3686981,35.0811921 C33.3686981,34.7334442 33.6508332,34.4513092 33.9985809,34.4513092 L38.4025116,34.4513092 C38.7505875,34.4513092 39.0323944,34.7334442 39.0323944,35.0811921 C39.0323944,35.4289398 38.7505875,35.7110749 38.4028397,35.7110749 Z" id="Shape" fill="#E7E7E7"></path>
            <path d="M31.7966156,35.7110749 L30.7871628,35.7110749 C30.439415,35.7110749 30.1572799,35.4289398 30.1572799,35.0811921 C30.1572799,34.7334442 30.439415,34.4513092 30.7871628,34.4513092 L31.7966156,34.4513092 C32.1446915,34.4513092 32.4264984,34.7334442 32.4264984,35.0811921 C32.4264984,35.4289398 32.1443634,35.7110749 31.7966156,35.7110749 Z" id="Shape" fill="#E7E7E7"></path>
            <path d="M5.38713835,3.74255371 C5.38713835,4.4354248 4.82549284,4.99674227 4.13294987,4.99674227 C3.44007878,4.99674227 2.87843327,4.4354248 2.87843327,3.74255371 C2.87843327,3.05001066 3.44007878,2.48836515 4.13294987,2.48836515 C4.82549284,2.48836515 5.38713835,3.05001066 5.38713835,3.74255371 Z" id="Shape" fill="#FF5770"></path>
            <path d="M10.2306747,3.74255371 C10.2306747,4.4354248 9.66935726,4.99674227 8.97648616,4.99674227 C8.2839432,4.99674227 7.72229769,4.4354248 7.72229769,3.74255371 C7.72229769,3.05001066 8.2839432,2.48836515 8.97648616,2.48836515 C9.66935726,2.48836515 10.2306747,3.05001066 10.2306747,3.74255371 Z" id="Shape" fill="#FFD86E"></path>
            <path d="M15.0745392,3.74255371 C15.0745392,4.4354248 14.5128937,4.99674227 13.8203507,4.99674227 C13.1274796,4.99674227 12.5661621,4.4354248 12.5661621,3.74255371 C12.5661621,3.05001066 13.1274796,2.48836515 13.8203507,2.48836515 C14.5128937,2.48836515 15.0745392,3.05001066 15.0745392,3.74255371 Z" id="Shape" fill="#80E0DC"></path>
            <path d="M5.38648226,3.74288175 C5.38648226,4.4354248 4.82549284,4.99641423 4.13327791,4.99641423 C3.79766846,4.99641423 3.49256901,4.86486051 3.26784513,4.64965055 C3.94628141,4.6348877 4.49283602,4.08013151 4.49283602,3.39710238 C4.49283602,3.03951261 4.34323885,2.71768188 4.10375212,2.48967741 C4.11326595,2.4886932 4.123764,2.4886932 4.13327791,2.4886932 C4.82549284,2.4886932 5.38648226,3.04968262 5.38648226,3.74288175 Z" id="Shape" fill="#FF435F"></path>
            <path d="M10.2303467,3.74288175 C10.2303467,4.4354248 9.66935726,4.99641423 8.97615812,4.99641423 C8.64087679,4.99641423 8.33676147,4.86486051 8.11105347,4.64965055 C8.79047396,4.6348877 9.33670044,4.08013151 9.33670044,3.39710238 C9.33670044,3.03951261 9.18710327,2.71768188 8.94794466,2.48967741 C8.95713045,2.4886932 8.96664429,2.4886932 8.97648616,2.4886932 C9.66968538,2.4886932 10.2303467,3.04968262 10.2303467,3.74288175 Z" id="Shape" fill="#FFB509"></path>
            <path d="M15.0745392,3.74288175 C15.0745392,4.4354248 14.5125656,4.99641423 13.8203507,4.99641423 C13.4847412,4.99641423 13.1806259,4.86486051 12.9549179,4.64965055 C13.6343384,4.6348877 14.1799088,4.08013151 14.1799088,3.39710238 C14.1799088,3.03951261 14.0303116,2.71768188 13.7908249,2.48967741 C13.8003387,2.4886932 13.8108367,2.4886932 13.8203507,2.4886932 C14.5125656,2.4886932 15.0745392,3.04968262 15.0745392,3.74288175 Z" id="Shape" fill="#00A8B0"></path>
        </g>
    </g>
</svg>