<?xml version="1.0" encoding="UTF-8"?>
<svg width="73px" height="73px" viewBox="0 0 73 73" version="1.1" xmlns="http://www.w3.org/2000/svg" xmlns:xlink="http://www.w3.org/1999/xlink">
    <!-- Generator: Sketch 51.3 (57544) - http://www.bohemiancoding.com/sketch -->
    <title>progressive-webapps/audits/performance-budgets</title>
    <desc>Created with Sketch.</desc>
    <defs></defs>
    <g id="progressive-webapps/audits/performance-budgets" stroke="none" stroke-width="1" fill="none" fill-rule="evenodd">
        <g id="container" transform="translate(2.000000, 2.000000)" fill="#FFFFFF" fill-rule="nonzero" stroke="#7A5107" stroke-width="2">
            <rect id="mask" x="-1" y="-1" width="71" height="71" rx="14"></rect>
        </g>
        <g id="money-bag" transform="translate(16.000000, 13.000000)" fill-rule="nonzero">
            <path d="M40.2356892,37.7881675 C40.2356892,46.8986984 31.2745112,46.3759631 20.1477152,46.3759631 C9.02091919,46.3759631 0.0597411867,46.824022 0.0597411867,37.7881675 C0.0597411867,28.6776365 9.02091919,13.5183104 20.1477152,13.5183104 C31.2745112,13.5929869 40.2356892,28.752313 40.2356892,37.7881675 Z" id="Shape" fill="#F2B233"></path>
            <path d="M20.1477152,13.5929869 C31.2745112,13.5929869 40.2356892,28.752313 40.2356892,37.862844 C40.2356892,46.9733749 31.2745112,46.4506395 20.1477152,46.4506395" id="Shape" fill="#DD981D"></path>
            <path d="M10.3650959,4.18374998 C10.3650959,-0.222162538 14.7710084,0.00186691208 20.1477152,0.00186691208 C25.524422,0.00186691208 29.9303345,-0.222162538 29.9303345,4.18374998 C29.9303345,8.5896625 25.524422,15.9826343 20.1477152,15.9826343 C14.7710084,15.9826343 10.3650959,8.5896625 10.3650959,4.18374998 Z" id="Shape" fill="#F2B233"></path>
            <path d="M20.1477152,0.00186691208 C25.524422,0.00186691208 29.9303345,-0.222162538 29.9303345,4.18374998 C29.9303345,8.5896625 25.524422,15.9826343 20.1477152,15.9826343" id="Shape" fill="#DD981D"></path>
            <path d="M28.7355108,14.4144282 C28.7355108,15.161193 28.1380989,15.7586049 27.3913341,15.7586049 L12.9040963,15.7586049 C12.1573315,15.7586049 11.5599196,15.161193 11.5599196,14.4144282 L11.5599196,14.0410458 C11.5599196,13.2942809 12.1573315,12.6968691 12.9040963,12.6968691 L27.4660106,12.6968691 C28.2127754,12.6968691 28.8101873,13.2942809 28.8101873,14.0410458 L28.8101873,14.4144282 L28.7355108,14.4144282 Z" id="Shape" fill="#04AF76"></path>
            <path d="M12.6800669,12.7715456 L27.4660106,12.7715456 C28.2127754,12.7715456 28.8101873,13.3689574 28.8101873,14.1157223 L28.8101873,14.4891047 C28.8101873,15.2358695 28.0634224,15.8332814 27.3166576,15.8332814" id="Shape" fill="#008C61"></path>
            <circle id="Oval" fill="#04AF76" cx="20.1477152" cy="31.6646958" r="8.961178"></circle>
            <path d="M13.8002141,25.3171948 C17.3100088,21.8074 22.9854216,21.8074 26.4952163,25.3171948 C30.005011,28.8269895 30.005011,34.5024022 26.4952163,38.0121969" id="Shape" fill="#008C61"></path>
            <path d="M19.4009504,38.9083147 L19.4009504,37.0414026 C17.9074207,36.9667262 17.0859794,36.6680202 16.413891,36.2946378 L16.8619499,34.2783728 C17.6087148,34.6517552 18.5795091,35.0251376 19.6996563,35.0251376 C20.6704506,35.0251376 21.3425389,34.6517552 21.3425389,33.9796668 C21.3425389,33.3075785 20.8198036,32.9341961 19.4756269,32.4861372 C17.6087148,31.8887253 16.413891,30.9926075 16.413891,29.3497249 C16.413891,27.8561952 17.0859794,26.6613715 19.3262739,26.287989 L19.3262739,24.7197829 L20.8198036,24.7197829 L20.8198036,26.2133126 C22.3133332,26.287989 22.8360686,26.5120185 23.358804,26.8107244 L22.9107451,28.752313 C22.4626862,28.5282835 21.7159214,28.1549011 20.4464211,28.1549011 C19.3262739,28.1549011 18.9528915,28.60296 18.9528915,29.1256954 C18.9528915,29.7231073 19.5503033,30.0218132 21.043833,30.6192251 C23.0600981,31.3659899 23.8815394,32.2621077 23.8815394,33.8303139 C23.8815394,35.39852 23.0600981,36.6680202 20.8198036,37.0414026 L20.8198036,38.9083147 L19.4009504,38.9083147 Z" id="Shape" fill="#FFF6E1"></path>
            <g id="Group" transform="translate(20.069305, 24.643239)" fill="#FFEEBD">
                <path d="M0.0784103075,0.0765433954 L0.0784103075,3.51166163 C0.0784103075,3.51166163 0.302439758,3.51166163 0.451792724,3.51166163 C1.72129294,3.51166163 2.46805777,3.88504405 2.91611667,4.1090735 L3.36417557,2.16748493 C2.76676371,1.868779 2.31870481,1.57007306 0.825175141,1.57007306 L0.825175141,0.0765433954 L0.0784103075,0.0765433954 Z" id="Shape"></path>
                <path d="M1.04920459,5.9013091 C0.675822174,5.75195613 0.302439758,5.60260316 0.0784103075,5.52792668 L0.0784103075,8.06692711 C0.825175141,8.44030953 1.27323404,8.81369195 1.27323404,9.33642733 C1.27323404,9.9338392 0.825175141,10.2325451 0.0784103075,10.3818981 L0.0784103075,14.2650752 L0.825175141,14.2650752 L0.825175141,12.3234867 C3.06546964,11.9501042 3.88691096,10.680604 3.88691096,9.11239788 C3.88691096,7.54419173 3.06546964,6.64807393 1.04920459,5.9013091 Z" id="Shape"></path>
            </g>
        </g>
    </g>
</svg>