<?xml version="1.0" encoding="UTF-8"?>
<svg width="74px" height="73px" viewBox="0 0 74 73" version="1.1" xmlns="http://www.w3.org/2000/svg" xmlns:xlink="http://www.w3.org/1999/xlink">
    <!-- Generator: Sketch 51.3 (57544) - http://www.bohemiancoding.com/sketch -->
    <title>advanced/credentials-manager-api</title>
    <desc>Created with Sketch.</desc>
    <defs>
        <rect id="path-1" x="0" y="0" width="69" height="69" rx="14"></rect>
    </defs>
    <g id="advanced/credentials-manager-api" stroke="none" stroke-width="1" fill="none" fill-rule="evenodd">
        <g id="container" transform="translate(2.000000, 2.000000)">
            <mask id="mask-2" fill="white">
                <use xlink:href="#path-1"></use>
            </mask>
            <rect stroke="#123B5A" stroke-width="2" x="-1" y="-1" width="71" height="71" rx="14"></rect>
        </g>
        <g id="waranty" transform="translate(22.000000, 15.000000)" fill-rule="nonzero">
            <path d="M3.06475102,0 L26.9441869,0 C28.6132813,0 29.9662341,1.3532839 29.9662341,3.02237814 L29.9662341,40.3674524 C29.9662341,42.0365466 28.6132813,43.3898305 26.9441869,43.3898305 L3.06475102,43.3898305 C1.39565678,43.3898305 0.0423728814,42.0365466 0.0423728814,40.3674524 L0.0423728814,3.02237814 C0.0423728814,1.3532839 1.39565678,0 3.06475102,0 Z" id="Shape" fill="#CCDAEC"></path>
            <polygon id="Shape" fill="#DB98A4" points="13.4153204 20.2039195 11.6714115 17.551973 9.01946508 19.2958819 10.8726165 10.3224312 15.2572166 11.284428"></polygon>
            <polygon id="Shape" fill="#DB98A4" points="16.8461997 20.2039195 18.5901086 17.551973 21.2420551 19.2958819 19.3889036 10.3224312 15.0043035 11.284428"></polygon>
            <g id="Group" transform="translate(5.254237, 23.898305)" fill="#4D8EBE">
                <polygon id="Shape" points="0.0248278814 0.0410487288 19.4756356 0.0410487288 19.4756356 1.53701008 0.0248278814 1.53701008"></polygon>
                <polygon id="Shape" points="0.0248278814 5.27774102 19.4756356 5.27774102 19.4756356 6.77370237 0.0248278814 6.77370237"></polygon>
                <polygon id="Shape" points="0.0248278814 11.2625795 19.4756356 11.2625795 19.4756356 12.7585408 0.0248278814 12.7585408"></polygon>
            </g>
            <path d="M20.2409958,8.22894593 C20.2409958,11.1212262 17.8965837,13.4659693 15.0043035,13.4659693 C12.1123543,13.4659693 9.76761119,11.1212262 9.76761119,8.22894593 C9.76761119,5.33699678 12.1123543,2.99225373 15.0043035,2.99225373 C17.8965837,2.99225373 20.2409958,5.33699678 20.2409958,8.22894593 Z" id="Shape" fill="#FFD789"></path>
        </g>
    </g>
</svg>