<?xml version="1.0" encoding="UTF-8"?>
<svg width="74px" height="73px" viewBox="0 0 74 73" version="1.1" xmlns="http://www.w3.org/2000/svg" xmlns:xlink="http://www.w3.org/1999/xlink">
    <!-- Generator: Sketch 51.3 (57544) - http://www.bohemiancoding.com/sketch -->
    <title>advanced/media-devices</title>
    <desc>Created with Sketch.</desc>
    <defs>
        <rect id="path-1" x="0" y="0" width="69" height="69" rx="14"></rect>
    </defs>
    <g id="advanced/media-devices" stroke="none" stroke-width="1" fill="none" fill-rule="evenodd">
        <g id="container" transform="translate(2.000000, 2.000000)">
            <mask id="mask-2" fill="white">
                <use xlink:href="#path-1"></use>
            </mask>
            <rect stroke="#38454F" stroke-width="2" x="-1" y="-1" width="71" height="71" rx="14"></rect>
        </g>
        <g id="smartphone-(1)" transform="translate(22.000000, 12.000000)" fill-rule="nonzero">
            <path d="M24.1015588,49.4705882 L4.89844118,49.4705882 C2.19291176,49.4705882 0,47.2776765 0,44.5721471 L0,4.89844118 C0,2.19291176 2.19291176,0 4.89844118,0 L24.1015588,0 C26.8070882,0 29,2.19291176 29,4.89844118 L29,44.5721471 C29,47.2776765 26.8070882,49.4705882 24.1015588,49.4705882 Z" id="Shape" fill="#38454F"></path>
            <rect id="Rectangle-path" fill="#546A79" x="2.55882353" y="5.11764706" width="23.8823529" height="36.6764706"></rect>
            <g id="Group" transform="translate(4.264706, 6.823529)" fill="#78909B">
                <path d="M0.852941176,5.11764706 C1.07129412,5.11764706 1.28964706,5.03405882 1.45597059,4.86773529 L4.86773529,1.45597059 C5.20123529,1.12247059 5.20123529,0.583411765 4.86773529,0.249911765 C4.53423529,-0.0835882353 3.99517647,-0.0835882353 3.66167647,0.249911765 L0.249911765,3.66167647 C-0.0835882353,3.99517647 -0.0835882353,4.53423529 0.249911765,4.86773529 C0.416235294,5.03405882 0.634588235,5.11764706 0.852941176,5.11764706 Z" id="Shape"></path>
                <path d="M0.852941176,9.38235294 C1.07129412,9.38235294 1.28964706,9.29876471 1.45597059,9.13244118 L3.16185294,7.42655882 C3.49535294,7.09305882 3.49535294,6.554 3.16185294,6.2205 C2.82835294,5.887 2.28929412,5.887 1.95579412,6.2205 L0.249911765,7.92638235 C-0.0835882353,8.25988235 -0.0835882353,8.79894118 0.249911765,9.13244118 C0.416235294,9.29876471 0.634588235,9.38235294 0.852941176,9.38235294 Z" id="Shape"></path>
                <path d="M3.65911765,4.51205882 C3.50473529,4.67326471 3.41176471,4.8865 3.41176471,5.11764706 C3.41176471,5.33941176 3.50473529,5.56117647 3.65911765,5.72323529 C3.82032353,5.87676471 4.04294118,5.97058824 4.26470588,5.97058824 C4.48647059,5.97058824 4.70823529,5.87676471 4.87029412,5.72323529 C5.02382353,5.56117647 5.11764706,5.33941176 5.11764706,5.11764706 C5.11764706,4.89588235 5.02382353,4.67326471 4.87029412,4.51205882 C4.54617647,4.19647059 3.97470588,4.19647059 3.65911765,4.51205882 Z" id="Shape"></path>
                <path d="M5.36755882,4.01479412 C5.53388235,4.18111765 5.75223529,4.26470588 5.97058824,4.26470588 C6.18894118,4.26470588 6.40729412,4.18111765 6.57361765,4.01479412 L9.13244118,1.45597059 C9.46594118,1.12247059 9.46594118,0.583411765 9.13244118,0.249911765 C8.79894118,-0.0835882353 8.25988235,-0.0835882353 7.92638235,0.249911765 L5.36755882,2.80873529 C5.03405882,3.14223529 5.03405882,3.68129412 5.36755882,4.01479412 Z" id="Shape"></path>
                <path d="M7.92638235,4.51461765 L0.249911765,12.1910882 C-0.0835882353,12.5245882 -0.0835882353,13.0636471 0.249911765,13.3971471 C0.416235294,13.5634706 0.634588235,13.6470588 0.852941176,13.6470588 C1.07129412,13.6470588 1.28964706,13.5634706 1.45597059,13.3971471 L9.13244118,5.72067647 C9.46594118,5.38717647 9.46594118,4.84811765 9.13244118,4.51461765 C8.79894118,4.18111765 8.25988235,4.18111765 7.92638235,4.51461765 Z" id="Shape"></path>
                <path d="M9.62970588,2.80617647 C9.47532353,2.96738235 9.38235294,3.19 9.38235294,3.41176471 C9.38235294,3.63352941 9.47532353,3.85529412 9.62970588,4.01735294 C9.79091176,4.17088235 10.0135294,4.26470588 10.2352941,4.26470588 C10.4570588,4.26470588 10.6788235,4.17088235 10.8408824,4.01735294 C10.9944118,3.85529412 11.0882353,3.63352941 11.0882353,3.41176471 C11.0882353,3.19 10.9944118,2.96738235 10.8408824,2.80617647 C10.5252941,2.49058824 9.94529412,2.49058824 9.62970588,2.80617647 Z" id="Shape"></path>
                <path d="M13.3971471,0.249911765 C13.0636471,-0.0835882353 12.5245882,-0.0835882353 12.1910882,0.249911765 L11.3381471,1.10285294 C11.0046471,1.43635294 11.0046471,1.97541176 11.3381471,2.30891176 C11.5044706,2.47523529 11.7228235,2.55882353 11.9411765,2.55882353 C12.1595294,2.55882353 12.3778824,2.47523529 12.5442059,2.30891176 L13.3971471,1.45597059 C13.7306471,1.12247059 13.7306471,0.583411765 13.3971471,0.249911765 Z" id="Shape"></path>
            </g>
            <path d="M17.0588235,3.41176471 L11.9411765,3.41176471 C11.4695,3.41176471 11.0882353,3.0305 11.0882353,2.55882353 C11.0882353,2.08714706 11.4695,1.70588235 11.9411765,1.70588235 L17.0588235,1.70588235 C17.5305,1.70588235 17.9117647,2.08714706 17.9117647,2.55882353 C17.9117647,3.0305 17.5305,3.41176471 17.0588235,3.41176471 Z" id="Shape" fill="#546A79"></path>
            <path d="M24.7352941,3.41176471 L23.8823529,3.41176471 C23.4106765,3.41176471 23.0294118,3.0305 23.0294118,2.55882353 C23.0294118,2.08714706 23.4106765,1.70588235 23.8823529,1.70588235 L24.7352941,1.70588235 C25.2069706,1.70588235 25.5882353,2.08714706 25.5882353,2.55882353 C25.5882353,3.0305 25.2069706,3.41176471 24.7352941,3.41176471 Z" id="Shape" fill="#546A79"></path>
            <path d="M21.3235294,3.41176471 L20.4705882,3.41176471 C19.9989118,3.41176471 19.6176471,3.0305 19.6176471,2.55882353 C19.6176471,2.08714706 19.9989118,1.70588235 20.4705882,1.70588235 L21.3235294,1.70588235 C21.7952059,1.70588235 22.1764706,2.08714706 22.1764706,2.55882353 C22.1764706,3.0305 21.7952059,3.41176471 21.3235294,3.41176471 Z" id="Shape" fill="#546A79"></path>
            <path d="M16.6323529,46.9117647 L12.3676471,46.9117647 C11.6639706,46.9117647 11.0882353,46.3360294 11.0882353,45.6323529 C11.0882353,44.9286765 11.6639706,44.3529412 12.3676471,44.3529412 L16.6323529,44.3529412 C17.3360294,44.3529412 17.9117647,44.9286765 17.9117647,45.6323529 C17.9117647,46.3360294 17.3360294,46.9117647 16.6323529,46.9117647 Z" id="Shape" fill="#CBD4D8"></path>
        </g>
    </g>
</svg>