<?xml version="1.0" encoding="UTF-8"?>
<svg width="73px" height="73px" viewBox="0 0 73 73" version="1.1" xmlns="http://www.w3.org/2000/svg" xmlns:xlink="http://www.w3.org/1999/xlink">
    <!-- Generator: Sketch 51.3 (57544) - http://www.bohemiancoding.com/sketch -->
    <title>advanced/shape-detection</title>
    <desc>Created with Sketch.</desc>
    <defs>
        <rect id="path-1" x="0" y="0" width="69" height="69" rx="14"></rect>
    </defs>
    <g id="advanced/shape-detection" stroke="none" stroke-width="1" fill="none" fill-rule="evenodd">
        <g id="container" transform="translate(2.000000, 2.000000)">
            <mask id="mask-2" fill="white">
                <use xlink:href="#path-1"></use>
            </mask>
            <rect stroke="#011840" stroke-width="2" x="-1" y="-1" width="71" height="71" rx="14"></rect>
            <g id="qr-code" mask="url(#mask-2)" fill-rule="nonzero">
                <g transform="translate(9.000000, 9.000000)" id="Shape">
                    <path d="M1.5234375,9.44541406 C0.68209375,9.44541406 0,8.76332031 0,7.92197656 L0,1.5234375 C0,0.68209375 0.68209375,0 1.5234375,0 L7.92146875,0 C8.7628125,0 9.44490625,0.68209375 9.44490625,1.5234375 C9.44490625,2.36478125 8.7628125,3.046875 7.92146875,3.046875 L3.046875,3.046875 L3.046875,7.92197656 C3.046875,8.76332031 2.36478125,9.44541406 1.5234375,9.44541406 Z" fill="#F90053"></path>
                    <path d="M50.4765625,9.44541406 C49.6352187,9.44541406 48.953125,8.76332031 48.953125,7.92197656 L48.953125,3.046875 L44.0785313,3.046875 C43.2371875,3.046875 42.5550938,2.36478125 42.5550938,1.5234375 C42.5550938,0.68209375 43.2371875,0 44.0785313,0 L50.4765625,0 C51.3179063,0 52,0.68209375 52,1.5234375 L52,7.92197656 C52,8.76332031 51.3179063,9.44541406 50.4765625,9.44541406 Z" fill="#A50043"></path>
                    <path d="M7.92146875,52 L1.5234375,52 C0.68209375,52 0,51.3179063 0,50.4765625 L0,44.0780234 C0,43.2366797 0.68209375,42.5545859 1.5234375,42.5545859 C2.36478125,42.5545859 3.046875,43.2366797 3.046875,44.0780234 L3.046875,48.953125 L7.92146875,48.953125 C8.7628125,48.953125 9.44490625,49.6352187 9.44490625,50.4765625 C9.44490625,51.3179063 8.7628125,52 7.92146875,52 Z" fill="#F90053"></path>
                    <path d="M50.4765625,52 L44.0785313,52 C43.2371875,52 42.5550938,51.3179063 42.5550938,50.4765625 C42.5550938,49.6352187 43.2371875,48.953125 44.0785313,48.953125 L48.953125,48.953125 L48.953125,44.0780234 C48.953125,43.2366797 49.6352187,42.5545859 50.4765625,42.5545859 C51.3179063,42.5545859 52,43.2366797 52,44.0780234 L52,50.4765625 C52,51.3179063 51.3179063,52 50.4765625,52 Z" fill="#A50043"></path>
                    <path d="M38.390625,31.9921875 L38.390625,26.8125 C38.390625,25.9711562 37.7085313,25.2890625 36.8671875,25.2890625 C36.0258437,25.2890625 35.34375,25.9711562 35.34375,26.8125 L35.34375,31.9921875 C35.34375,32.8335313 36.0258437,33.515625 36.8671875,33.515625 C37.7085313,33.515625 38.390625,32.8335313 38.390625,31.9921875 Z" fill="#00215A"></path>
                    <path d="M43.46875,18.484375 L35.8515625,18.484375 C35.0102187,18.484375 34.328125,19.1664687 34.328125,20.0078125 C34.328125,20.8491563 35.0102187,21.53125 35.8515625,21.53125 L38.8984375,21.53125 L38.8984375,24.578125 C38.8984375,25.4194688 39.5805312,26.1015625 40.421875,26.1015625 C41.2632188,26.1015625 41.9453125,25.4194688 41.9453125,24.578125 L41.9453125,21.53125 L43.46875,21.53125 C44.3100938,21.53125 44.9921875,20.8491563 44.9921875,20.0078125 C44.9921875,19.1664687 44.3100938,18.484375 43.46875,18.484375 Z" fill="#00215A"></path>
                    <path d="M14.625,35.2421875 L8.2265625,35.2421875 C7.38521875,35.2421875 6.703125,35.9242812 6.703125,36.765625 L6.703125,43.1640625 C6.703125,44.0054063 7.38521875,44.6875 8.2265625,44.6875 L14.625,44.6875 C15.4663438,44.6875 16.1484375,44.0054063 16.1484375,43.1640625 L16.1484375,36.765625 C16.1484375,35.9242812 15.4663438,35.2421875 14.625,35.2421875 Z" fill="#212CBB"></path>
                    <path d="M8.2265625,16.7578125 L14.625,16.7578125 C15.4663438,16.7578125 16.1484375,16.0757188 16.1484375,15.234375 L16.1484375,8.8359375 C16.1484375,7.99459375 15.4663438,7.3125 14.625,7.3125 L8.2265625,7.3125 C7.38521875,7.3125 6.703125,7.99459375 6.703125,8.8359375 L6.703125,15.234375 C6.703125,16.0757188 7.38521875,16.7578125 8.2265625,16.7578125 Z" fill="#212CBB"></path>
                    <path d="M43.7734375,7.3125 L37.375,7.3125 C36.5336562,7.3125 35.8515625,7.99459375 35.8515625,8.8359375 L35.8515625,15.234375 C35.8515625,16.0757188 36.5336562,16.7578125 37.375,16.7578125 L43.7734375,16.7578125 C44.6147813,16.7578125 45.296875,16.0757188 45.296875,15.234375 L45.296875,8.8359375 C45.296875,7.99459375 44.6147813,7.3125 43.7734375,7.3125 Z" fill="#212CBB"></path>
                    <path d="M18.9921875,33.921875 C18.1508437,33.921875 17.46875,34.6039687 17.46875,35.4453125 L17.46875,39.9140625 C17.46875,40.7554063 18.1508437,41.4375 18.9921875,41.4375 C19.8335313,41.4375 20.515625,40.7554063 20.515625,39.9140625 L20.515625,35.4453125 C20.515625,34.6039687 19.8335313,33.921875 18.9921875,33.921875 Z" fill="#212CBB"></path>
                    <path d="M10.15625,27.828125 L10.15625,32.3984375 C10.15625,33.2397813 10.8383437,33.921875 11.6796875,33.921875 C12.5210313,33.921875 13.203125,33.2397813 13.203125,32.3984375 L13.203125,27.828125 C13.203125,26.9867813 12.5210313,26.3046875 11.6796875,26.3046875 C10.8383437,26.3046875 10.15625,26.9867813 10.15625,27.828125 Z" fill="#212CBB"></path>
                    <path d="M30.46875,33.8203125 C29.6274062,33.8203125 28.9453125,34.5024062 28.9453125,35.34375 L28.9453125,41.640625 L25.8984375,41.640625 C25.0570937,41.640625 24.375,42.3227187 24.375,43.1640625 C24.375,44.0054063 25.0570937,44.6875 25.8984375,44.6875 L30.46875,44.6875 C31.3100938,44.6875 31.9921875,44.0054063 31.9921875,43.1640625 L31.9921875,35.34375 C31.9921875,34.5024062 31.3100938,33.8203125 30.46875,33.8203125 Z" fill="#212CBB"></path>
                    <path d="M42.9609375,32.5 C42.1195937,32.5 41.4375,33.1820937 41.4375,34.0234375 L41.4375,38.59375 L36.359375,38.59375 C35.5180312,38.59375 34.8359375,39.2758437 34.8359375,40.1171875 C34.8359375,40.9585313 35.5180312,41.640625 36.359375,41.640625 L41.4375,41.640625 L41.4375,43.1640625 C41.4375,44.0054063 42.1195937,44.6875 42.9609375,44.6875 C43.8022813,44.6875 44.484375,44.0054063 44.484375,43.1640625 L44.484375,34.0234375 C44.484375,33.1820937 43.8022813,32.5 42.9609375,32.5 Z" fill="#212CBB"></path>
                    <path d="M37.375,35.8515625 C37.375,35.0102187 36.6929063,34.328125 35.8515625,34.328125 L34.53125,34.328125 C33.6899062,34.328125 33.0078125,35.0102187 33.0078125,35.8515625 C33.0078125,36.6929063 33.6899062,37.375 34.53125,37.375 L35.8515625,37.375 C36.6929063,37.375 37.375,36.6929063 37.375,35.8515625 Z" fill="#212CBB"></path>
                    <path d="M18.5859375,32.296875 L28.1328125,32.296875 C28.9741563,32.296875 29.65625,31.6147813 29.65625,30.7734375 L29.65625,20.515625 C29.65625,19.6742812 28.9741563,18.9921875 28.1328125,18.9921875 C27.2914688,18.9921875 26.609375,19.6742812 26.609375,20.515625 L26.609375,29.25 L18.5859375,29.25 C17.7445937,29.25 17.0625,29.9320937 17.0625,30.7734375 C17.0625,31.6147813 17.7445937,32.296875 18.5859375,32.296875 Z" fill="#212CBB"></path>
                    <path d="M8.22625781,21.4296875 L19.5,21.4296875 C20.3413438,21.4296875 21.0234375,20.7475938 21.0234375,19.90625 C21.0234375,19.0649062 20.3413438,18.3828125 19.5,18.3828125 L8.22625781,18.3828125 C7.38491406,18.3828125 6.70282031,19.0649062 6.70282031,19.90625 C6.70282031,20.7475938 7.38491406,21.4296875 8.22625781,21.4296875 Z" fill="#212CBB"></path>
                    <path d="M19.5507812,14.7265625 C20.392125,14.7265625 21.0742188,14.0444688 21.0742188,13.203125 L21.0742188,12.4921875 L24.5273438,12.4921875 L24.5273438,13.9140625 C24.5273438,14.7554063 25.2094375,15.4375 26.0507813,15.4375 C26.892125,15.4375 27.5742188,14.7554063 27.5742188,13.9140625 L27.5742188,8.8359375 C27.5742188,7.99459375 26.892125,7.3125 26.0507813,7.3125 C25.2094375,7.3125 24.5273438,7.99459375 24.5273438,8.8359375 L24.5273438,9.4453125 L21.0742188,9.4453125 L21.0742188,8.8359375 C21.0742188,7.99459375 20.392125,7.3125 19.5507812,7.3125 C18.7094375,7.3125 18.0273438,7.99459375 18.0273438,8.8359375 L18.0273438,13.203125 C18.0273438,14.0444688 18.7094375,14.7265625 19.5507812,14.7265625 Z" fill="#212CBB"></path>
                    <path d="M30.9765625,7.3125 C30.1352188,7.3125 29.453125,7.99459375 29.453125,8.8359375 L29.453125,16.859375 C29.453125,17.7007188 30.1352188,18.3828125 30.9765625,18.3828125 C31.8179063,18.3828125 32.5,17.7007188 32.5,16.859375 L32.5,8.8359375 C32.5,7.99459375 31.8179063,7.3125 30.9765625,7.3125 Z" fill="#212CBB"></path>
                    <path d="M23.6640625,17.46875 C22.8227187,17.46875 22.140625,18.1508437 22.140625,18.9921875 L22.140625,20.3125 C22.140625,21.1538438 22.8227187,21.8359375 23.6640625,21.8359375 C24.5054063,21.8359375 25.1875,21.1538438 25.1875,20.3125 L25.1875,18.9921875 C25.1875,18.1508437 24.5054063,17.46875 23.6640625,17.46875 Z" fill="#212CBB"></path>
                    <path d="M26.6601563,38.8984375 C27.5015,38.8984375 28.1835938,38.2163438 28.1835938,37.375 C28.1835938,36.5336562 27.5015,35.8515625 26.6601563,35.8515625 L25.3398438,35.8515625 C24.4985,35.8515625 23.8164062,36.5336562 23.8164062,37.375 C23.8164062,38.2163438 24.4985,38.8984375 25.3398438,38.8984375 L26.6601563,38.8984375 Z" fill="#212CBB"></path>
                    <path d="M10.15625,27.828125 L10.15625,32.3984375 C10.15625,33.2397813 10.8383437,33.921875 11.6796875,33.921875 C12.5210313,33.921875 13.203125,33.2397813 13.203125,32.3984375 L13.203125,27.828125 C13.203125,26.9867813 12.5210313,26.3046875 11.6796875,26.3046875 C10.8383437,26.3046875 10.15625,26.9867813 10.15625,27.828125 Z" fill="#212CBB"></path>
                    <path d="M14.625,35.2421875 L8.2265625,35.2421875 C7.38521875,35.2421875 6.703125,35.9242812 6.703125,36.765625 L6.703125,43.1640625 C6.703125,44.0054063 7.38521875,44.6875 8.2265625,44.6875 L14.625,44.6875 C15.4663438,44.6875 16.1484375,44.0054063 16.1484375,43.1640625 L16.1484375,36.765625 C16.1484375,35.9242812 15.4663438,35.2421875 14.625,35.2421875 Z" fill="#212CBB"></path>
                    <path d="M8.2265625,16.7578125 L14.625,16.7578125 C15.4663438,16.7578125 16.1484375,16.0757188 16.1484375,15.234375 L16.1484375,8.8359375 C16.1484375,7.99459375 15.4663438,7.3125 14.625,7.3125 L8.2265625,7.3125 C7.38521875,7.3125 6.703125,7.99459375 6.703125,8.8359375 L6.703125,15.234375 C6.703125,16.0757188 7.38521875,16.7578125 8.2265625,16.7578125 Z" fill="#212CBB"></path>
                    <path d="M43.7734375,7.3125 L37.375,7.3125 C36.5336562,7.3125 35.8515625,7.99459375 35.8515625,8.8359375 L35.8515625,15.234375 C35.8515625,16.0757188 36.5336562,16.7578125 37.375,16.7578125 L43.7734375,16.7578125 C44.6147813,16.7578125 45.296875,16.0757188 45.296875,15.234375 L45.296875,8.8359375 C45.296875,7.99459375 44.6147813,7.3125 43.7734375,7.3125 Z" fill="#00215A"></path>
                    <path d="M18.9921875,33.921875 C18.1508437,33.921875 17.46875,34.6039687 17.46875,35.4453125 L17.46875,39.9140625 C17.46875,40.7554063 18.1508437,41.4375 18.9921875,41.4375 C19.8335313,41.4375 20.515625,40.7554063 20.515625,39.9140625 L20.515625,35.4453125 C20.515625,34.6039687 19.8335313,33.921875 18.9921875,33.921875 Z" fill="#212CBB"></path>
                    <path d="M42.9609375,32.5 C42.1195937,32.5 41.4375,33.1820937 41.4375,34.0234375 L41.4375,38.59375 L36.359375,38.59375 C35.5180312,38.59375 34.8359375,39.2758437 34.8359375,40.1171875 C34.8359375,40.9585313 35.5180312,41.640625 36.359375,41.640625 L41.4375,41.640625 L41.4375,43.1640625 C41.4375,44.0054063 42.1195937,44.6875 42.9609375,44.6875 C43.8022813,44.6875 44.484375,44.0054063 44.484375,43.1640625 L44.484375,34.0234375 C44.484375,33.1820937 43.8022813,32.5 42.9609375,32.5 Z" fill="#00215A"></path>
                    <path d="M37.375,35.8515625 C37.375,35.0102187 36.6929063,34.328125 35.8515625,34.328125 L34.53125,34.328125 C33.6899062,34.328125 33.0078125,35.0102187 33.0078125,35.8515625 C33.0078125,36.6929063 33.6899062,37.375 34.53125,37.375 L35.8515625,37.375 C36.6929063,37.375 37.375,36.6929063 37.375,35.8515625 Z" fill="#00215A"></path>
                    <path d="M8.22625781,21.4296875 L19.5,21.4296875 C20.3413438,21.4296875 21.0234375,20.7475938 21.0234375,19.90625 C21.0234375,19.0649062 20.3413438,18.3828125 19.5,18.3828125 L8.22625781,18.3828125 C7.38491406,18.3828125 6.70282031,19.0649062 6.70282031,19.90625 C6.70282031,20.7475938 7.38491406,21.4296875 8.22625781,21.4296875 Z" fill="#212CBB"></path>
                    <path d="M30.9765625,7.3125 C30.1352188,7.3125 29.453125,7.99459375 29.453125,8.8359375 L29.453125,16.859375 C29.453125,17.7007188 30.1352188,18.3828125 30.9765625,18.3828125 C31.8179063,18.3828125 32.5,17.7007188 32.5,16.859375 L32.5,8.8359375 C32.5,7.99459375 31.8179063,7.3125 30.9765625,7.3125 Z" fill="#00215A"></path>
                    <path d="M23.6640625,17.46875 C22.8227187,17.46875 22.140625,18.1508437 22.140625,18.9921875 L22.140625,20.3125 C22.140625,21.1538438 22.8227187,21.8359375 23.6640625,21.8359375 C24.5054063,21.8359375 25.1875,21.1538438 25.1875,20.3125 L25.1875,18.9921875 C25.1875,18.1508437 24.5054063,17.46875 23.6640625,17.46875 Z" fill="#212CBB"></path>
                    <path d="M26.0507812,7.3125 C26.0336172,7.3125 26.0169609,7.31453125 26,7.31503906 L26,15.4348594 C26.0169609,15.4354688 26.0336172,15.4373984 26.0507812,15.4373984 C26.892125,15.4373984 27.5742188,14.7553047 27.5742188,13.9139609 L27.5742188,8.8359375 C27.5742188,7.99459375 26.892125,7.3125 26.0507812,7.3125 Z" fill="#00215A"></path>
                    <path d="M28.1328125,18.9921875 C27.2914688,18.9921875 26.609375,19.6742812 26.609375,20.515625 L26.609375,29.25 L26,29.25 L26,32.296875 L28.1328125,32.296875 C28.9741563,32.296875 29.65625,31.6147813 29.65625,30.7734375 L29.65625,20.515625 C29.65625,19.6742812 28.9741563,18.9921875 28.1328125,18.9921875 Z" fill="#00215A"></path>
                    <path d="M26.6601562,35.8515625 L26,35.8515625 L26,38.8984375 L26.6601562,38.8984375 C27.5015,38.8984375 28.1835938,38.2163438 28.1835938,37.375 C28.1835938,36.5336562 27.5015,35.8515625 26.6601562,35.8515625 Z" fill="#00215A"></path>
                    <path d="M30.46875,33.8203125 C29.6274062,33.8203125 28.9453125,34.5024062 28.9453125,35.34375 L28.9453125,41.640625 L26,41.640625 L26,44.6875 L30.46875,44.6875 C31.3100938,44.6875 31.9921875,44.0054063 31.9921875,43.1640625 L31.9921875,35.34375 C31.9921875,34.5024062 31.3100938,33.8203125 30.46875,33.8203125 Z" fill="#00215A"></path>
                    <path d="M48.9023438,27.5234375 L3.09765625,27.5234375 C2.2563125,27.5234375 1.57421875,26.8413438 1.57421875,26 C1.57421875,25.1586562 2.2563125,24.4765625 3.09765625,24.4765625 L48.9023438,24.4765625 C49.7436875,24.4765625 50.4257812,25.1586562 50.4257812,26 C50.4257812,26.8413438 49.7436875,27.5234375 48.9023438,27.5234375 Z" fill="#F90053"></path>
                    <path d="M48.9023438,24.4765625 L26,24.4765625 L26,27.5234375 L48.9023438,27.5234375 C49.7436875,27.5234375 50.4257812,26.8413438 50.4257812,26 C50.4257812,25.1586562 49.7436875,24.4765625 48.9023438,24.4765625 Z" fill="#A50043"></path>
                </g>
            </g>
        </g>
    </g>
</svg>