<?xml version="1.0" encoding="UTF-8"?>
<svg width="73px" height="73px" viewBox="0 0 73 73" version="1.1" xmlns="http://www.w3.org/2000/svg" xmlns:xlink="http://www.w3.org/1999/xlink">
    <!-- Generator: Sketch 51.3 (57544) - http://www.bohemiancoding.com/sketch -->
    <title>advanced/user-location</title>
    <desc>Created with Sketch.</desc>
    <defs>
        <rect id="path-1" x="0" y="0" width="69" height="69" rx="14"></rect>
    </defs>
    <g id="advanced/user-location" stroke="none" stroke-width="1" fill="none" fill-rule="evenodd">
        <g id="container" transform="translate(2.000000, 2.000000)">
            <mask id="mask-2" fill="white">
                <use xlink:href="#path-1"></use>
            </mask>
            <rect stroke="#005336" stroke-width="2" x="-1" y="-1" width="71" height="71" rx="14"></rect>
        </g>
        <g id="worldwide" transform="translate(15.000000, 15.000000)" fill-rule="nonzero">
            <g id="Group" transform="translate(1.632812, 1.546875)" fill="#03AA6F">
                <path d="M36.2977656,5.28678906 L34.0217109,6.80410156 L30.2283437,6.04544531 L27.9522891,5.28678906 L24.9175781,6.04544531 L22.6415234,5.28678906 L24.1588359,2.25207812 L27.1935469,2.25207812 L30.1675859,0.765101562 C32.4611719,1.89930469 34.5361328,3.43028125 36.2977656,5.28678906 Z" id="Shape"></path>
                <path d="M18.8482422,2.25207813 L18.0895859,4.52813281 L15.8135312,5.28678906 L13.5374766,9.08015625 L9.74410937,11.3562109 L4.43342969,12.1148672 L4.43342969,14.3909219 L5.95074219,15.9082344 L5.95074219,18.9429453 L3.67485937,17.4255469 L1.39880469,15.9082344 L0.07871875,11.9404141 C2.35090625,6.52566406 6.69435937,2.24520313 12.1415937,0.05190625 L14.2962187,1.49342187 L18.8482422,2.25207813 Z" id="Shape"></path>
                <polygon id="Shape" points="20.3656406 23.4948828 19.6069844 27.28825 16.5722734 30.3229609 16.5722734 32.5990156 13.5375625 34.8749844 13.5375625 38.6683516 11.2615938 37.9096953 9.74419531 34.1163281 9.74419531 26.5295938 5.95082812 25.7709375 4.43351562 22.7362266 4.43351562 20.4601719 5.95082812 18.9428594 8.22688281 16.6668047 9.74419531 19.7015156 15.054875 19.7015156 17.3309297 23.4948828"></polygon>
                <path d="M39.5600391,9.70982031 C43.701625,17.0985547 43.2297422,26.2094766 38.3461719,33.1300234 L36.2977656,31.0816172 L36.2977656,28.0469063 L34.7804531,25.0121953 L33.2631406,21.9774844 L33.2631406,18.9427734 L30.9870859,17.4254609 L27.952375,18.1841172 L22.6416953,15.9080625 L21.8830391,10.5973828 L24.1590937,8.32132813 L28.7111172,8.32132813 L30.2284297,10.5973828 L34.7804531,11.3560391 L39.3324766,9.83872656 L39.5600391,9.70982031 Z" id="Shape"></path>
            </g>
            <path d="M26.5504766,7.59232031 L29.5851875,6.83366406 L31.8612422,7.59232031 L35.6546094,8.35097656 L37.9306641,6.83366406 C39.2014219,8.16363281 40.2977266,9.64983594 41.1929375,11.2566953 L40.965375,11.3856875 L36.4133516,12.903 L31.8613281,12.1443437 L30.3440156,9.86828906 L25.7919922,9.86828906 L23.5159375,12.1443437 L24.2745937,17.4550234 L29.5852734,19.7310781 L32.6199844,18.9724219 L34.8960391,20.4897344 L34.8960391,23.5244453 L36.4133516,26.5591562 L37.9306641,29.5938672 L37.9306641,32.6285781 L39.9790703,34.6769844 C32.9727578,44.605 19.2445,46.9728359 9.31725781,39.9664375 C0.886101562,34.0153516 -2.27682813,23.0046953 1.71153125,13.4872031 L3.03161719,17.4550234 L5.30767187,18.9723359 L7.58372656,20.4896484 L6.06632812,22.0070469 L6.06632812,24.2831016 L7.58364062,27.3178125 L11.3770078,28.0764687 L11.3770078,35.6632031 L12.8943203,39.4565703 L15.170375,40.2152266 L15.170375,36.4218594 L18.2050859,34.1458047 L18.2050859,31.86975 L21.2397969,28.8350391 L21.9984531,25.0416719 L18.9637422,25.0416719 L16.6876875,21.2483047 L11.3770078,21.2483047 L9.85969531,18.2135937 L7.58364062,20.4896484 L7.58364062,17.4549375 L6.06632812,15.9377109 L6.06632812,13.6616562 L11.3770078,12.903 L15.170375,10.6269453 L17.4464297,6.83357812 L19.7224844,6.07492187 L20.4811406,3.79886719 L15.9291172,3.04021094 L13.7744922,1.59869531 C19.6087031,-0.750921875 26.1696875,-0.491476563 31.8005703,2.31189062 L28.8265312,3.79886719 L25.7918203,3.79886719 L24.2745078,6.83357812 L26.5504766,7.59232031 Z" id="Shape" fill="#86DAF1"></path>
        </g>
    </g>
</svg>