<?xml version="1.0" encoding="UTF-8"?>
<svg width="73px" height="73px" viewBox="0 0 73 73" version="1.1" xmlns="http://www.w3.org/2000/svg" xmlns:xlink="http://www.w3.org/1999/xlink">
    <!-- Generator: Sketch 51.3 (57544) - http://www.bohemiancoding.com/sketch -->
    <title>fundamentals/html/basic-tags</title>
    <desc>Created with Sketch.</desc>
    <defs></defs>
    <g id="fundamentals/html/basic-tags" stroke="none" stroke-width="1" fill="none" fill-rule="evenodd">
        <g id="Bitmap" transform="translate(2.000000, 2.000000)" fill-rule="nonzero">
            <rect id="Mask" stroke="#4C3A24" stroke-width="2" fill="#FFFFFF" x="-1" y="-1" width="71" height="71" rx="14"></rect>
            <g id="price-tag" transform="translate(10.000000, 9.000000)">
                <path d="M25.6101695,4.23728814 L1.05169492,28.9983051 C0.215254237,29.8347458 0.215254237,31.1915254 1.05169492,32.0288136 L18.3957627,49.3728814 C19.2322034,50.209322 20.5889831,50.209322 21.4262712,49.3728814 L45.3389831,24.8135593 L45.3389831,4.23728814 L25.6101695,4.23728814 Z M36.8644068,16.1016949 C34.9923729,16.1016949 33.4745763,14.5838983 33.4745763,12.7118644 C33.4745763,10.8398305 34.9923729,9.3220339 36.8644068,9.3220339 C38.7364407,9.3220339 40.2542373,10.8398305 40.2542373,12.7118644 C40.2542373,14.5838983 38.7364407,16.1016949 36.8644068,16.1016949 Z" id="Shape" fill="#E8D5B2"></path>
                <path d="M36.8644068,5.93220339 C33.120339,5.93220339 30.0847458,8.96779661 30.0847458,12.7118644 C30.0847458,16.4559322 33.120339,19.4915254 36.8644068,19.4915254 C40.6084746,19.4915254 43.6440678,16.4559322 43.6440678,12.7118644 C43.6440678,8.96779661 40.6084746,5.93220339 36.8644068,5.93220339 Z M36.8644068,16.1016949 C34.9923729,16.1016949 33.4745763,14.5838983 33.4745763,12.7118644 C33.4745763,10.8398305 34.9923729,9.3220339 36.8644068,9.3220339 C38.7364407,9.3220339 40.2542373,10.8398305 40.2542373,12.7118644 C40.2542373,14.5838983 38.7364407,16.1016949 36.8644068,16.1016949 Z" id="Shape" fill="#CBB292"></path>
                <path d="M36.8644068,13.559322 C36.6474576,13.559322 36.4305085,13.4762712 36.2652542,13.3110169 C35.9338983,12.979661 35.9338983,12.4440678 36.2652542,12.1127119 L48.129661,0.248305085 C48.4610169,-0.0830508475 48.9966102,-0.0830508475 49.3279661,0.248305085 C49.659322,0.579661017 49.659322,1.11525424 49.3279661,1.44661017 L37.4635593,13.3110169 C37.2983051,13.4762712 37.0813559,13.559322 36.8644068,13.559322 Z" id="Shape" fill="#D75A4A"></path>
                <path d="M10.720339,19.25 L1.05169492,28.9983051 C0.215254237,29.8347458 0.215254237,31.1915254 1.05169492,32.0288136 L18.3957627,49.3728814 C19.2322034,50.209322 20.5889831,50.209322 21.4262712,49.3728814 L31.0059322,39.5347458 L10.720339,19.25 Z" id="Shape" fill="#ECF0F1"></path>
                <path d="M4.63728814,31.9389831 C4.42033898,31.9389831 4.20338983,31.8559322 4.03813559,31.690678 C3.70677966,31.359322 3.70677966,30.8237288 4.03813559,30.4923729 L11.2288136,23.3016949 C11.5601695,22.970339 12.0957627,22.970339 12.4271186,23.3016949 C12.7584746,23.6330508 12.7584746,24.1686441 12.4271186,24.5 L5.23644068,31.690678 C5.07118644,31.8559322 4.85423729,31.9389831 4.63728814,31.9389831 Z" id="Shape" fill="#95A5A5"></path>
                <path d="M10.0305085,30.140678 C9.81355932,30.140678 9.59661017,30.0576271 9.43135593,29.8923729 C9.1,29.5610169 9.1,29.0254237 9.43135593,28.6940678 L13.0271186,25.0983051 C13.3584746,24.7669492 13.8940678,24.7669492 14.2254237,25.0983051 C14.5567797,25.429661 14.5567797,25.9652542 14.2254237,26.2966102 L10.629661,29.8923729 C10.4644068,30.0584746 10.2474576,30.140678 10.0305085,30.140678 Z" id="Shape" fill="#95A5A5"></path>
                <path d="M12.4279661,32.5381356 C12.2110169,32.5381356 11.9940678,32.4550847 11.8288136,32.2898305 C11.4974576,31.9584746 11.4974576,31.4228814 11.8288136,31.0915254 L15.4245763,27.4966102 C15.7559322,27.1652542 16.2915254,27.1652542 16.6228814,27.4966102 C16.9542373,27.8279661 16.9542373,28.3635593 16.6228814,28.6949153 L13.0271186,32.2898305 C12.8610169,32.4550847 12.6440678,32.5381356 12.4279661,32.5381356 Z" id="Shape" fill="#95A5A5"></path>
                <path d="M14.2254237,34.3355932 C14.0084746,34.3355932 13.7915254,34.2525424 13.6262712,34.0872881 C13.2949153,33.7559322 13.2949153,33.220339 13.6262712,32.8889831 L17.2211864,29.2940678 C17.5525424,28.9627119 18.0881356,28.9627119 18.4194915,29.2940678 C18.7508475,29.6254237 18.7508475,30.1610169 18.4194915,30.4923729 L14.8245763,34.0872881 C14.659322,34.2525424 14.4423729,34.3355932 14.2254237,34.3355932 Z" id="Shape" fill="#95A5A5"></path>
                <path d="M17.2211864,37.3322034 C17.0042373,37.3322034 16.7872881,37.2491525 16.6220339,37.0838983 C16.290678,36.7525424 16.290678,36.2169492 16.6220339,35.8855932 L20.2177966,32.2898305 C20.5491525,31.9584746 21.0847458,31.9584746 21.4161017,32.2898305 C21.7474576,32.6211864 21.7474576,33.1567797 21.4161017,33.4881356 L17.820339,37.0838983 C17.6550847,37.2491525 17.4381356,37.3322034 17.2211864,37.3322034 Z" id="Shape" fill="#95A5A5"></path>
                <path d="M19.0194915,39.129661 C18.8025424,39.129661 18.5855932,39.0466102 18.420339,38.8813559 C18.0889831,38.55 18.0889831,38.0144068 18.420339,37.6830508 L22.0161017,34.0872881 C22.3474576,33.7559322 22.8830508,33.7559322 23.2144068,34.0872881 C23.5457627,34.4186441 23.5457627,34.9542373 23.2144068,35.2855932 L19.6186441,38.8813559 C19.4533898,39.0466102 19.2364407,39.129661 19.0194915,39.129661 Z" id="Shape" fill="#95A5A5"></path>
                <path d="M20.8169492,40.9271186 C20.6,40.9271186 20.3830508,40.8440678 20.2177966,40.6788136 C19.8864407,40.3474576 19.8864407,39.8118644 20.2177966,39.4805085 L23.8135593,35.8855932 C24.1449153,35.5542373 24.6805085,35.5542373 25.0118644,35.8855932 C25.3432203,36.2169492 25.3432203,36.7525424 25.0118644,37.0838983 L21.4161017,40.6788136 C21.2508475,40.8440678 21.0338983,40.9271186 20.8169492,40.9271186 Z" id="Shape" fill="#95A5A5"></path>
                <path d="M19.0194915,46.320339 C18.8025424,46.320339 18.5855932,46.2372881 18.420339,46.0720339 C18.0889831,45.740678 18.0889831,45.2050847 18.420339,44.8737288 L25.6110169,37.6830508 C25.9423729,37.3516949 26.4779661,37.3516949 26.809322,37.6830508 C27.140678,38.0144068 27.140678,38.55 26.809322,38.8813559 L19.6186441,46.0720339 C19.4533898,46.2381356 19.2364407,46.320339 19.0194915,46.320339 Z" id="Shape" fill="#95A5A5"></path>
                <path d="M7.03474576,33.1372881 C6.81779661,33.1372881 6.60084746,33.0542373 6.43559322,32.8889831 C6.10423729,32.5576271 6.10423729,32.0220339 6.43559322,31.690678 L7.03474576,31.0915254 C7.36610169,30.7601695 7.90169492,30.7601695 8.23305085,31.0915254 C8.56440678,31.4228814 8.56440678,31.9584746 8.23305085,32.2898305 L7.63389831,32.8889831 C7.46779661,33.0542373 7.25169492,33.1372881 7.03474576,33.1372881 Z" id="Shape" fill="#95A5A5"></path>
                <path d="M9.43135593,35.5338983 C9.21440678,35.5338983 8.99745763,35.4508475 8.83220339,35.2855932 C8.50084746,34.9542373 8.50084746,34.4186441 8.83220339,34.0872881 L9.43135593,33.4881356 C9.76271186,33.1567797 10.2983051,33.1567797 10.629661,33.4881356 C10.9610169,33.8194915 10.9610169,34.3550847 10.629661,34.6864407 L10.0305085,35.2855932 C9.86525424,35.4508475 9.64830508,35.5338983 9.43135593,35.5338983 Z" id="Shape" fill="#95A5A5"></path>
                <path d="M11.2288136,37.3322034 C11.0118644,37.3322034 10.7949153,37.2491525 10.629661,37.0838983 C10.2983051,36.7525424 10.2983051,36.2169492 10.629661,35.8855932 L11.2288136,35.2864407 C11.5601695,34.9550847 12.0957627,34.9550847 12.4271186,35.2864407 C12.7584746,35.6177966 12.7584746,36.1533898 12.4271186,36.4847458 L11.8279661,37.0838983 C11.6627119,37.2491525 11.4457627,37.3322034 11.2288136,37.3322034 Z" id="Shape" fill="#95A5A5"></path>
                <path d="M14.2254237,40.3279661 C14.0084746,40.3279661 13.7915254,40.2449153 13.6262712,40.079661 C13.2949153,39.7483051 13.2949153,39.2127119 13.6262712,38.8813559 L14.2254237,38.2822034 C14.5567797,37.9508475 15.0923729,37.9508475 15.4237288,38.2822034 C15.7550847,38.6135593 15.7550847,39.1491525 15.4237288,39.4805085 L14.8245763,40.079661 C14.659322,40.2449153 14.4423729,40.3279661 14.2254237,40.3279661 Z" id="Shape" fill="#95A5A5"></path>
                <path d="M16.0228814,42.1254237 C15.8059322,42.1254237 15.5889831,42.0423729 15.4237288,41.8771186 C15.0923729,41.5457627 15.0923729,41.0101695 15.4237288,40.6788136 L16.0228814,40.079661 C16.3542373,39.7483051 16.8898305,39.7483051 17.2211864,40.079661 C17.5525424,40.4110169 17.5525424,40.9466102 17.2211864,41.2779661 L16.6220339,41.8771186 C16.4567797,42.0423729 16.2398305,42.1254237 16.0228814,42.1254237 Z" id="Shape" fill="#95A5A5"></path>
                <path d="M17.820339,43.9237288 C17.6033898,43.9237288 17.3864407,43.840678 17.2211864,43.6754237 C16.8898305,43.3449153 16.8898305,42.8084746 17.2211864,42.4771186 L17.8211864,41.8771186 C18.1525424,41.5457627 18.6889831,41.5457627 19.020339,41.8771186 C19.3516949,42.2076271 19.3516949,42.7440678 19.020339,43.0754237 L18.420339,43.6754237 C18.2550847,43.840678 18.0372881,43.9237288 17.820339,43.9237288 Z" id="Shape" fill="#95A5A5"></path>
            </g>
        </g>
    </g>
</svg>