<?xml version="1.0" encoding="UTF-8"?>
<svg width="73px" height="73px" viewBox="0 0 73 73" version="1.1" xmlns="http://www.w3.org/2000/svg" xmlns:xlink="http://www.w3.org/1999/xlink">
    <!-- Generator: Sketch 51.3 (57544) - http://www.bohemiancoding.com/sketch -->
    <title>fundamentals/html/discoverable-content</title>
    <desc>Created with Sketch.</desc>
    <defs></defs>
    <g id="fundamentals/html/discoverable-content" stroke="none" stroke-width="1" fill="none" fill-rule="evenodd">
        <rect id="Mask" stroke="#472B17" stroke-width="2" fill="#FFFFFF" fill-rule="nonzero" x="1" y="1" width="71" height="71" rx="14"></rect>
        <g id="exploration" transform="translate(10.000000, 10.000000)" fill-rule="nonzero">
            <path d="M25.2,18.0891 C16.1037,18.9918 9,26.6661 9,36 C9,45.9414 17.0586,54 27,54 C36.9414,54 45,45.9414 45,36 C45,26.6661 37.8963,18.9918 28.8,18.0891" id="Shape" fill="#674025"></path>
            <path d="M38.7,31.95 C38.7,26.235 35.6463,21.2463 31.0905,18.486 C30.3417,18.3114 29.5812,18.1665 28.8,18.0891 L25.2,18.0891 C16.1037,18.9918 9,26.6661 9,36 C9,37.4085 9.1782,38.7729 9.4842,40.0878 C12.2436,44.6445 17.2341,47.7 22.95,47.7 C31.6485,47.7 38.7,40.6485 38.7,31.95 Z" id="Shape" fill="#976947"></path>
            <path d="M27,25.2 C26.0055,25.2 25.2,24.3945 25.2,23.4 L25.2,1.8 C25.2,0.8055 26.0055,0 27,0 C27.9945,0 28.8,0.8055 28.8,1.8 L28.8,23.4 C28.8,24.3945 27.9945,25.2 27,25.2 Z" id="Shape" fill="#B8B9B3"></path>
            <polygon id="Shape" fill="#2D4D83" points="32.4 6.3 43.2 6.3 43.2 13.5 32.4 13.5"></polygon>
            <polygon id="Shape" fill="#4472B2" points="28.8 2.7 39.6 2.7 39.6 9.9 28.8 9.9"></polygon>
            <circle id="Oval" fill="#C18E59" cx="15.3" cy="37.8" r="2.7"></circle>
            <circle id="Oval" fill="#C18E59" cx="18.9" cy="27" r="2.7"></circle>
            <circle id="Oval" fill="#C18E59" cx="38.7" cy="41.4" r="1.8"></circle>
            <circle id="Oval" fill="#C18E59" cx="36" cy="27.9" r="1.8"></circle>
            <circle id="Oval" fill="#F5B953" cx="30.6" cy="46.8" r="3.6"></circle>
            <circle id="Oval" fill="#F5B953" cx="27" cy="35.1" r="3.6"></circle>
            <g id="Group" fill="#976947">
                <polygon id="Shape" points="45 14.4 46.8 14.4 46.8 16.2 45 16.2"></polygon>
                <polygon id="Shape" points="48.6 14.4 50.4 14.4 50.4 16.2 48.6 16.2"></polygon>
                <polygon id="Shape" points="46.8 12.6 48.6 12.6 48.6 14.4 46.8 14.4"></polygon>
                <polygon id="Shape" points="46.8 16.2 48.6 16.2 48.6 18 46.8 18"></polygon>
                <polygon id="Shape" points="54 28.8 52.2 28.8 52.2 27 50.4 27 50.4 28.8 48.6 28.8 48.6 30.6 50.4 30.6 50.4 32.4 52.2 32.4 52.2 30.6 54 30.6"></polygon>
                <polygon id="Shape" points="0 1.8 1.8 1.8 1.8 3.6 0 3.6"></polygon>
                <polygon id="Shape" points="3.6 1.8 5.4 1.8 5.4 3.6 3.6 3.6"></polygon>
                <polygon id="Shape" points="1.8 0 3.6 0 3.6 1.8 1.8 1.8"></polygon>
                <polygon id="Shape" points="1.8 3.6 3.6 3.6 3.6 5.4 1.8 5.4"></polygon>
                <polygon id="Shape" points="7.2 14.4 5.4 14.4 5.4 16.2 3.6 16.2 3.6 18 5.4 18 5.4 19.8 7.2 19.8 7.2 18 9 18 9 16.2 7.2 16.2"></polygon>
            </g>
        </g>
    </g>
</svg>