<?xml version="1.0" encoding="UTF-8"?>
<svg width="73px" height="73px" viewBox="0 0 73 73" version="1.1" xmlns="http://www.w3.org/2000/svg" xmlns:xlink="http://www.w3.org/1999/xlink">
    <!-- Generator: Sketch 51.3 (57544) - http://www.bohemiancoding.com/sketch -->
    <title>fundamentals/html/forms</title>
    <desc>Created with Sketch.</desc>
    <defs></defs>
    <g id="fundamentals/html/forms" stroke="none" stroke-width="1" fill="none" fill-rule="evenodd">
        <rect id="Mask" stroke="#31237B" stroke-width="2" fill="#FFFFFF" fill-rule="nonzero" x="1" y="1" width="71" height="71" rx="14"></rect>
        <g id="forms" transform="translate(19.000000, 14.000000)" fill-rule="nonzero">
            <path d="M33.6577973,44.8009947 L1.5179837,44.8009947 C0.711478297,44.8009947 0.0570512667,44.1465677 0.0570512667,43.3400623 L0.0570512667,1.46093244 C0.0570512667,0.65442703 0.711478297,0 1.5179837,0 L21.9706003,0 C22.3577089,0 22.7295922,0.154090921 23.0034732,0.428059504 L34.6906702,12.1152565 C34.9646388,12.3891376 35.1187297,12.7609333 35.1187297,13.1481294 L35.1187297,43.3400623 C35.1187297,44.1465677 34.4643027,44.8009947 33.6577973,44.8009947 Z" id="Shape" fill="#7A51CC"></path>
            <path d="M23.0034732,0.428059504 C22.7295922,0.154090921 22.3577089,0 21.9706003,0 L17.5878905,0 L17.5878905,44.8009947 L33.6577973,44.8009947 C34.4643027,44.8009947 35.1187297,44.1465677 35.1187297,43.3400623 L35.1187297,13.1481294 C35.1187297,12.7610208 34.9646388,12.3891376 34.6906702,12.1152565 L23.0034732,0.428059504 Z" id="Shape" fill="#5947B3"></path>
            <path d="M34.6909327,12.1154315 L23.0034732,0.428059504 C22.7295047,0.154003419 22.3577089,0 21.9701628,0 L20.5096679,0 L20.5097554,13.1481294 C20.5097554,13.9548973 21.1638324,14.6090619 21.9706878,14.6090619 L35.1187297,14.6090619 L35.1187297,13.1481294 C35.1187297,12.7607583 34.9648138,12.3893126 34.6909327,12.1154315 Z" id="Shape" fill="#7A51CC"></path>
            <g id="Group" transform="translate(5.862630, 21.350474)" fill="#FFFFFF">
                <circle id="Oval" cx="1.49890828" cy="1.53697163" r="1.46093244"></circle>
                <circle id="Oval" cx="1.49890828" cy="7.38061387" r="1.46093244"></circle>
                <circle id="Oval" cx="1.49890828" cy="13.2241686" r="1.46093244"></circle>
                <path d="M21.9516124,14.6851011 L7.34255053,14.6851011 C6.53604512,14.6851011 5.88161809,14.030674 5.88161809,13.2241686 C5.88161809,12.4176632 6.53604512,11.7632362 7.34255053,11.7632362 L21.9516124,11.7632362 C22.7581178,11.7632362 23.4125448,12.4176632 23.4125448,13.2241686 C23.4124573,14.0307615 22.7581178,14.6851011 21.9516124,14.6851011 Z" id="Shape"></path>
            </g>
            <path d="M27.8142426,33.1137977 L17.5878905,33.1137977 L17.5878905,36.0355751 L27.8142426,36.0355751 C28.620748,36.0355751 29.275175,35.3811481 29.275175,34.5746427 C29.2750875,33.7681372 28.620748,33.1137977 27.8142426,33.1137977 Z" id="Shape" fill="#E6F3FF"></path>
            <path d="M27.8142426,30.1919328 L13.2051807,30.1919328 C12.3986753,30.1919328 11.7442483,29.5375058 11.7442483,28.7310004 C11.7442483,27.924495 12.3986753,27.270068 13.2051807,27.270068 L27.8142426,27.270068 C28.620748,27.270068 29.275175,27.924495 29.275175,28.7310004 C29.2750875,29.5375933 28.620748,30.1919328 27.8142426,30.1919328 Z" id="Shape" fill="#FFFFFF"></path>
            <path d="M27.8142426,27.2701555 L17.5878905,27.2701555 L17.5878905,30.1919328 L27.8142426,30.1919328 C28.620748,30.1919328 29.275175,29.5375058 29.275175,28.7310004 C29.2750875,27.9245825 28.620748,27.2701555 27.8142426,27.2701555 Z" id="Shape" fill="#E6F3FF"></path>
            <path d="M27.8142426,24.3483781 L13.2051807,24.3483781 C12.3986753,24.3483781 11.7442483,23.6939511 11.7442483,22.8874457 C11.7442483,22.0809403 12.3986753,21.4265132 13.2051807,21.4265132 L27.8142426,21.4265132 C28.620748,21.4265132 29.275175,22.0809403 29.275175,22.8874457 C29.2750875,23.6939511 28.620748,24.3483781 27.8142426,24.3483781 Z" id="Shape" fill="#FFFFFF"></path>
            <path d="M27.8142426,21.4266007 L17.5878905,21.4266007 L17.5878905,24.3483781 L27.8142426,24.3483781 C28.620748,24.3483781 29.275175,23.6939511 29.275175,22.8874457 C29.2750875,22.0809403 28.620748,21.4266007 27.8142426,21.4266007 Z" id="Shape" fill="#E6F3FF"></path>
        </g>
    </g>
</svg>