<?xml version="1.0" encoding="UTF-8"?>
<svg width="73px" height="73px" viewBox="0 0 73 73" version="1.1" xmlns="http://www.w3.org/2000/svg" xmlns:xlink="http://www.w3.org/1999/xlink">
    <!-- Generator: Sketch 51.3 (57544) - http://www.bohemiancoding.com/sketch -->
    <title>fundamentals/html/syntax</title>
    <desc>Created with Sketch.</desc>
    <defs></defs>
    <g id="fundamentals/html/syntax" stroke="none" stroke-width="1" fill="none" fill-rule="evenodd">
        <rect id="bg" stroke="#DB2334" stroke-width="2" fill="#F36518" fill-rule="nonzero" x="1" y="1" width="71" height="71" rx="14"></rect>
        <path d="M16,2 L29.1335992,2 L42.5927842,71 L16,71 C8.2680135,71 2,64.7319865 2,57 L2,16 C2,8.2680135 8.2680135,2 16,2 Z" id="bg" fill="#E64C17" fill-rule="nonzero"></path>
        <path d="M15,38.0498047 L15,35.375 L27.9012206,28.6396484 L27.9012206,31.5722656 L17.5265399,36.7285156 L27.9012206,41.8364258 L27.9012206,44.7851562 L15,38.0498047 Z M39.8260006,23 L42.1450468,23 L32.5515186,50.1186523 L30.2202668,50.1186523 L39.8260006,23 Z M45.0987794,41.8364258 L55.4734601,36.7285156 L45.0987794,31.5722656 L45.0987794,28.6396484 L58,35.375 L58,38.0498047 L45.0987794,44.7851562 L45.0987794,41.8364258 Z" id="&lt;/&gt;" fill="#FFFFFF"></path>
    </g>
</svg>