<?xml version="1.0" encoding="UTF-8"?>
<svg width="73px" height="73px" viewBox="0 0 73 73" version="1.1" xmlns="http://www.w3.org/2000/svg" xmlns:xlink="http://www.w3.org/1999/xlink">
    <!-- Generator: Sketch 51.3 (57544) - http://www.bohemiancoding.com/sketch -->
    <title>basics/the-browser/debugging</title>
    <desc>Created with Sketch.</desc>
    <defs>
        <rect id="path-1" x="0" y="0" width="69" height="69" rx="14"></rect>
    </defs>
    <g id="basics/the-browser/debugging" stroke="none" stroke-width="1" fill="none" fill-rule="evenodd">
        <g id="container" transform="translate(2.000000, 2.000000)">
            <mask id="mask-2" fill="white">
                <use xlink:href="#path-1"></use>
            </mask>
            <rect stroke="#7E4510" stroke-width="2" x="-1" y="-1" width="71" height="71" rx="14"></rect>
            <g id="sink" mask="url(#mask-2)">
                <g transform="translate(-2.000000, 21.000000)">
                    <path d="M64.9000625,10.3602829 C64.9000625,12.8631973 60.538063,15.9147034 57.2448425,17.7431565 C54.5932236,19.2162781 51.198082,19.3376923 47.1518707,20.0511399 C44.2763596,20.5585175 42.1204224,23.7113877 38.826645,23.7113877 C35.1045761,23.7113877 30.4663315,21.5248184 27.2989807,20.8860015 C24.3382568,20.2889556 18.7832793,20.6648941 16.5955962,19.6356582 C12.5165253,17.7153091 10.1004944,11.8077851 10.1004944,8.98796848 C10.1004944,6.02000434 15.6983567,5.45303345 20.1656189,3.50483696 C22.4089966,2.52628323 25.8848953,4.90054321 28.8550874,4.35362251 C31.8252793,3.80614475 34.2897644,0.33692925 37.7188797,0.33692925 C43.1513291,0.33692925 46.9101562,3.06484985 50.9942398,4.35362251 C53.2481995,5.06428521 56.4812698,3.96821587 58.0735779,4.96236423 C60.8644333,6.70560452 64.9000625,8.07569119 64.9000625,10.3602829 Z" id="Shape" fill="#575D60" fill-rule="nonzero"></path>
                    <path d="M35.6704331,12.0238799 C25.8977051,12.0238799 17.4065093,13.8980027 13.1029892,16.6504287 C14.0648345,17.9130249 15.2372055,18.9957275 16.5955962,19.6356582 C18.7827224,20.6648941 24.3382568,20.2889556 27.2989807,20.8860015 C30.4663315,21.5248184 35.1045761,23.7113877 38.826645,23.7113877 C42.1204224,23.7113877 44.2763596,20.5585175 47.1518707,20.0511399 C51.198082,19.3376923 54.5932236,19.2157212 57.2448425,17.7431565 C57.6970825,17.4925308 58.1699295,17.2173996 58.6483459,16.9244461 C54.4901885,14.0227585 45.7639619,12.0238799 35.6704331,12.0238799 Z" id="Shape" fill="#464C50" fill-rule="nonzero"></path>
                    <path d="M71.1949387,49.3228379 L1.8050613,49.3228379 C0.808128393,49.3228379 0,48.5147095 0,47.5177764 L0,36.4891357 L73,36.4891357 L73,47.5177764 C73,48.5147095 72.1918716,49.3228379 71.1949387,49.3228379 Z" id="Shape" fill="#E88C38" fill-rule="nonzero"></path>
                    <g id="Group" stroke-width="1" fill="none" fill-rule="evenodd" transform="translate(0.000000, 39.355469)">
                        <path d="M8.56471245,0.287094188 L0,0.287094188 L0,2.4948272 L8.56471245,2.4948272 C9.17401123,2.4948272 9.6685791,2.00025933 9.6685791,1.39096069 C9.6685791,0.781105006 9.17401123,0.287094188 8.56471245,0.287094188 Z" id="Shape" fill="#CC7A2F" fill-rule="nonzero"></path>
                        <path d="M24.6749268,2.4948272 L15.9720917,2.4948272 C15.3622361,2.4948272 14.8682251,2.00081638 14.8682251,1.39096069 C14.8682251,0.781105006 15.3622361,0.287094188 15.9720917,0.287094188 L24.6749268,0.287094188 C25.2847824,0.287094188 25.7787934,0.781105006 25.7787934,1.39096069 C25.7787934,2.00025933 25.2847824,2.4948272 24.6749268,2.4948272 Z" id="Shape" fill="#CC7A2F" fill-rule="nonzero"></path>
                        <path d="M40.7851411,2.4948272 L32.0823059,2.4948272 C31.4730073,2.4948272 30.9784394,2.00081638 30.9784394,1.39096069 C30.9784394,0.781105006 31.4730073,0.287094188 32.0823059,0.287094188 L40.7851411,0.287094188 C41.3949966,0.287094188 41.8890076,0.781105006 41.8890076,1.39096069 C41.8890076,2.00025933 41.3949966,2.4948272 40.7851411,2.4948272 Z" id="Shape" fill="#CC7A2F" fill-rule="nonzero"></path>
                        <path d="M56.8959121,2.4948272 L48.1930771,2.4948272 C47.5832214,2.4948272 47.0892105,2.00081638 47.0892105,1.39096069 C47.0892105,0.781105006 47.5832214,0.287094188 48.1930771,0.287094188 L56.8959121,0.287094188 C57.5052109,0.287094188 57.9992217,0.781105006 57.9992217,1.39096069 C57.9992217,2.00025933 57.5052109,2.4948272 56.8959121,2.4948272 Z" id="Shape" fill="#CC7A2F" fill-rule="nonzero"></path>
                        <path d="M69.8959121,2.4948272 L61.1930771,2.4948272 C60.5832214,2.4948272 60.0892105,2.00081638 60.0892105,1.39096069 C60.0892105,0.781105006 60.5832214,0.287094187 61.1930771,0.287094187 L69.8959121,0.287094187 C70.5052109,0.287094187 70.9992217,0.781105006 70.9992217,1.39096069 C70.9992217,2.00025933 70.5052109,2.4948272 69.8959121,2.4948272 Z" id="Shape" fill="#CC7A2F" fill-rule="nonzero"></path>
                    </g>
                    <path d="M16.6198196,46.7965317 L7.91698459,46.7965317 C7.30712891,46.7965317 6.81311795,46.3025208 6.81311795,45.6926651 C6.81311795,45.0828095 7.30712891,44.5887986 7.91698459,44.5887986 L16.6198196,44.5887986 C17.2296753,44.5887986 17.7236863,45.0828095 17.7236863,45.6926651 C17.7236863,46.3025208 17.2296753,46.7965317 16.6198196,46.7965317 Z" id="Shape" fill="#CC7A2F" fill-rule="nonzero"></path>
                    <path d="M32.7300339,46.7965317 L24.0271988,46.7965317 C23.4173432,46.7965317 22.9233323,46.3025208 22.9233323,45.6926651 C22.9233323,45.0828095 23.4173432,44.5887986 24.0271988,44.5887986 L32.7300339,44.5887986 C33.3398896,44.5887986 33.8339004,45.0828095 33.8339004,45.6926651 C33.8339004,46.3025208 33.3398896,46.7965317 32.7300339,46.7965317 Z" id="Shape" fill="#CC7A2F" fill-rule="nonzero"></path>
                    <path d="M48.8402481,46.7965317 L40.1374131,46.7965317 C39.5281143,46.7965317 39.0335464,46.3025208 39.0335464,45.6926651 C39.0335464,45.0828095 39.5281143,44.5887986 40.1374131,44.5887986 L48.8402481,44.5887986 C49.4501038,44.5887986 49.9441147,45.0828095 49.9441147,45.6926651 C49.9441147,46.3025208 49.4501038,46.7965317 48.8402481,46.7965317 Z" id="Shape" fill="#CC7A2F" fill-rule="nonzero"></path>
                    <path d="M64.9510193,46.7965317 L56.2481841,46.7965317 C55.6383286,46.7965317 55.1443176,46.3025208 55.1443176,45.6926651 C55.1443176,45.0828095 55.6383286,44.5887986 56.2481841,44.5887986 L64.9510193,44.5887986 C65.5603179,44.5887986 66.0543289,45.0828095 66.0543289,45.6926651 C66.0543289,46.3025208 65.5603179,46.7965317 64.9510193,46.7965317 Z" id="Shape" fill="#CC7A2F" fill-rule="nonzero"></path>
                </g>
            </g>
        </g>
    </g>
</svg>