<?xml version="1.0" encoding="UTF-8"?>
<svg width="73px" height="73px" viewBox="0 0 73 73" version="1.1" xmlns="http://www.w3.org/2000/svg" xmlns:xlink="http://www.w3.org/1999/xlink">
    <!-- Generator: Sketch 51.3 (57544) - http://www.bohemiancoding.com/sketch -->
    <title>algorithms-and-data-structures/analysis/cost-model</title>
    <desc>Created with Sketch.</desc>
    <defs></defs>
    <g id="algorithms-and-data-structures/analysis/cost-model" stroke="none" stroke-width="1" fill="none" fill-rule="evenodd">
        <g id="container" transform="translate(2.000000, 2.000000)" fill="#FFFFFF" fill-rule="nonzero" stroke="#372A37" stroke-width="2">
            <rect id="mask" x="-1" y="-1" width="71" height="71" rx="14"></rect>
        </g>
        <g id="abacus" transform="translate(18.000000, 16.000000)" fill-rule="nonzero">
            <g id="Group" transform="translate(4.968008, 4.642237)" fill="#8F818F">
                <path d="M13.6823826,1.32645812 L0.63036691,1.32645812 C0.282850682,1.32645812 0.00114019855,1.04474764 0.00114019855,0.697231411 C0.00114019855,0.349715183 0.282850682,0.068004699 0.63036691,0.068004699 L13.6823826,0.068004699 C14.0298988,0.068004699 14.3116093,0.349715183 14.3116093,0.697231411 C14.3116093,1.04474764 14.0298988,1.32645812 13.6823826,1.32645812 Z" id="Shape"></path>
                <path d="M26.7343982,1.32645812 L22.327205,1.32645812 C21.9796888,1.32645812 21.6979783,1.04474764 21.6979783,0.697231411 C21.6979783,0.349715183 21.9796888,0.068004699 22.327205,0.068004699 L26.7343982,0.068004699 C27.0819144,0.068004699 27.3636249,0.349715183 27.3636249,0.697231411 C27.3636249,1.04474764 27.0819144,1.32645812 26.7343982,1.32645812 Z" id="Shape"></path>
                <path d="M5.03756006,10.3951087 L0.63036691,10.3951087 C0.282850682,10.3951087 0.00114019855,10.1133982 0.00114019855,9.76588199 C0.00114019855,9.41836576 0.282850682,9.13665528 0.63036691,9.13665528 L5.03756006,9.13665528 C5.38507629,9.13665528 5.66678677,9.41836576 5.66678677,9.76588199 C5.66678677,10.1133982 5.38507629,10.3951087 5.03756006,10.3951087 Z" id="Shape"></path>
                <path d="M26.7343982,10.3951087 L22.327205,10.3951087 C21.9796888,10.3951087 21.6979783,10.1133982 21.6979783,9.76588199 C21.6979783,9.41836576 21.9796888,9.13665528 22.327205,9.13665528 L26.7343982,9.13665528 C27.0819144,9.13665528 27.3636249,9.41836576 27.3636249,9.76588199 C27.3636249,10.1133982 27.0819144,10.3951087 26.7343982,10.3951087 Z" id="Shape"></path>
                <path d="M10.8007751,10.3951087 L7.91916756,10.3951087 C7.57165133,10.3951087 7.28994085,10.1133982 7.28994085,9.76588199 C7.28994085,9.41836576 7.57165133,9.13665528 7.91916756,9.13665528 L10.8007751,9.13665528 C11.1482913,9.13665528 11.4300018,9.41836576 11.4300018,9.76588199 C11.4300018,10.1133982 11.1482913,10.3951087 10.8007751,10.3951087 Z" id="Shape"></path>
                <path d="M5.03756006,19.4636778 L0.63036691,19.4636778 C0.282850682,19.4636778 0.00114019855,19.1819674 0.00114019855,18.8344511 C0.00114019855,18.4869349 0.282850682,18.2052244 0.63036691,18.2052244 L5.03756006,18.2052244 C5.38507629,18.2052244 5.66678677,18.4869349 5.66678677,18.8344511 C5.66678677,19.1819674 5.38507629,19.4636778 5.03756006,19.4636778 Z" id="Shape"></path>
                <path d="M16.56399,19.4636778 L13.6823826,19.4636778 C13.3348663,19.4636778 13.0531558,19.1819674 13.0531558,18.8344511 C13.0531558,18.4869349 13.3348663,18.2052244 13.6823826,18.2052244 L16.56399,18.2052244 C16.9115063,18.2052244 17.1932168,18.4869349 17.1932168,18.8344511 C17.1932982,19.1819674 16.9115063,19.4636778 16.56399,19.4636778 Z" id="Shape"></path>
                <path d="M26.7343982,19.4636778 L22.327205,19.4636778 C21.9796888,19.4636778 21.6979783,19.1819674 21.6979783,18.8344511 C21.6979783,18.4869349 21.9796888,18.2052244 22.327205,18.2052244 L26.7343982,18.2052244 C27.0819144,18.2052244 27.3636249,18.4869349 27.3636249,18.8344511 C27.3636249,19.1819674 27.0819144,19.4636778 26.7343982,19.4636778 Z" id="Shape"></path>
                <path d="M13.6823826,28.5323284 L0.63036691,28.5323284 C0.282850682,28.5323284 0.00114019855,28.2506179 0.00114019855,27.9031017 C0.00114019855,27.5555855 0.282850682,27.273875 0.63036691,27.273875 L13.6823826,27.273875 C14.0298988,27.273875 14.3116093,27.5555855 14.3116093,27.9031017 C14.3116093,28.2506179 14.0298988,28.5323284 13.6823826,28.5323284 Z" id="Shape"></path>
                <path d="M26.7343982,28.5323284 L22.327205,28.5323284 C21.9796888,28.5323284 21.6979783,28.2506179 21.6979783,27.9031017 C21.6979783,27.5555855 21.9796888,27.273875 22.327205,27.273875 L26.7343982,27.273875 C27.0819144,27.273875 27.3636249,27.5555855 27.3636249,27.9031017 C27.3636249,28.2506179 27.0819144,28.5323284 26.7343982,28.5323284 Z" id="Shape"></path>
            </g>
            <path d="M5.59837486,39.1560469 L3.0557321,39.1560469 L3.0557321,0.814427533 C3.0557321,0.364619206 3.42035131,0 3.87015964,0 L4.78394733,0 C5.23375565,0 5.59837486,0.364619206 5.59837486,0.814427533 L5.59837486,39.1560469 Z" id="Shape" fill="#DA8659"></path>
            <path d="M34.2450489,39.1560469 L31.7024061,39.1560469 L31.7024061,0.814427533 C31.7024061,0.364619206 32.0670253,0 32.5168337,0 L33.4306214,0 C33.8804297,0 34.2450489,0.364619206 34.2450489,0.814427533 L34.2450489,39.1560469 Z" id="Shape" fill="#DA8659"></path>
            <polygon id="Shape" fill="#C56E37" points="3.0557321 37.4609789 5.59837486 37.4609789 5.59837486 39.1560469 3.0557321 39.1560469"></polygon>
            <polygon id="Shape" fill="#C56E37" points="31.7024061 37.4609789 34.2450489 37.4609789 34.2450489 39.1560469 31.7024061 39.1560469"></polygon>
            <path d="M0.00464223694,40.8842621 L0.00464223694,39.9704745 C0.00464223694,39.5206661 0.369261443,39.1560469 0.81906977,39.1560469 L36.4817112,39.1560469 C36.9315196,39.1560469 37.2961388,39.5206661 37.2961388,39.9704745 L37.2961388,40.8842621 C37.2961388,41.3340705 36.9315196,41.6986897 36.4817112,41.6986897 L0.81906977,41.6986897 C0.369261443,41.6986897 0.00464223694,41.3340705 0.00464223694,40.8842621 Z" id="Shape" fill="#DA8659"></path>
            <path d="M35.9401169,39.1560469 L35.9401169,39.9188397 C35.9401169,40.1996544 35.712403,40.4273683 35.4315884,40.4273683 L0.00464223694,40.4273683 L0.00464223694,40.8842621 C0.00464223694,41.3340705 0.369261443,41.6986897 0.81906977,41.6986897 L36.4817112,41.6986897 C36.9315196,41.6986897 37.2961388,41.3340705 37.2961388,40.8842621 L37.2961388,39.9704745 C37.2961388,39.5206661 36.9315196,39.1560469 36.4817112,39.1560469 L35.9401169,39.1560469 Z" id="Shape" fill="#C56E37"></path>
            <path d="M20.0911942,2.79682559 C19.2954171,2.79682559 18.6503905,3.4418522 18.6503905,4.23762934 L18.6503905,6.44122591 C18.6503905,7.23700306 19.2954985,7.88202966 20.0911942,7.88202966 C20.8869714,7.88202966 21.531998,7.23700306 21.531998,6.44122591 L21.531998,4.23771078 C21.531998,3.44193364 20.8869714,2.79682559 20.0911942,2.79682559 Z" id="Shape" fill="#FC8086"></path>
            <path d="M20.0911942,2.79682559 C19.8627473,2.79682559 19.6474941,2.85139223 19.4555336,2.94611016 C19.9320551,3.18115394 20.2606766,3.67038056 20.2606766,4.23762934 L20.2606766,6.44122591 C20.2606766,7.00847469 19.9320551,7.49778275 19.4555336,7.7327451 C19.6474941,7.82738157 19.8627473,7.88202966 20.0911942,7.88202966 C20.8869714,7.88202966 21.531998,7.23700306 21.531998,6.44122591 L21.531998,4.23771078 C21.531998,3.44193364 20.8869714,2.79682559 20.0911942,2.79682559 Z" id="Shape" fill="#FA4954"></path>
            <path d="M22.9728017,2.79682559 C22.1770246,2.79682559 21.531998,3.4418522 21.531998,4.23762934 L21.531998,6.44122591 C21.531998,7.23700306 22.177106,7.88202966 22.9728017,7.88202966 C23.7685789,7.88202966 24.4136055,7.23700306 24.4136055,6.44122591 L24.4136055,4.23771078 C24.4136055,3.44193364 23.7685789,2.79682559 22.9728017,2.79682559 Z" id="Shape" fill="#FC8086"></path>
            <path d="M22.9728017,2.79682559 C22.7443548,2.79682559 22.5291016,2.85139223 22.3371411,2.94611016 C22.8136626,3.18115394 23.1422841,3.67038056 23.1422841,4.23762934 L23.1422841,6.44122591 C23.1422841,7.00847469 22.8136626,7.49778275 22.3371411,7.7327451 C22.5291016,7.82738157 22.7443548,7.88202966 22.9728017,7.88202966 C23.7685789,7.88202966 24.4136055,7.23700306 24.4136055,6.44122591 L24.4136055,4.23771078 C24.4136055,3.44193364 23.7685789,2.79682559 22.9728017,2.79682559 Z" id="Shape" fill="#FA4954"></path>
            <path d="M25.8544092,2.79682559 C25.0586321,2.79682559 24.4136055,3.4418522 24.4136055,4.23762934 L24.4136055,6.44122591 C24.4136055,7.23700306 25.0587135,7.88202966 25.8544092,7.88202966 C26.6501049,7.88202966 27.295213,7.23700306 27.295213,6.44122591 L27.295213,4.23771078 C27.295213,3.44193364 26.6501864,2.79682559 25.8544092,2.79682559 Z" id="Shape" fill="#FC8086"></path>
            <path d="M25.8544092,2.79682559 C25.6259623,2.79682559 25.4107091,2.85139223 25.2187486,2.94611016 C25.6952701,3.18115394 26.0238916,3.67038056 26.0238916,4.23762934 L26.0238916,6.44122591 C26.0238916,7.00847469 25.6952701,7.49778275 25.2187486,7.7327451 C25.4107091,7.82738157 25.6258809,7.88202966 25.8544092,7.88202966 C26.6501864,7.88202966 27.295213,7.23700306 27.295213,6.44122591 L27.295213,4.23771078 C27.295213,3.44193364 26.6501864,2.79682559 25.8544092,2.79682559 Z" id="Shape" fill="#FA4954"></path>
            <path d="M20.0911942,11.8654762 C19.2954171,11.8654762 18.6503905,12.5105028 18.6503905,13.3062799 L18.6503905,15.5098765 C18.6503905,16.3056536 19.2954985,16.9506802 20.0911942,16.9506802 C20.8869714,16.9506802 21.531998,16.3056536 21.531998,15.5098765 L21.531998,13.3062799 C21.531998,12.5105842 20.8869714,11.8654762 20.0911942,11.8654762 Z" id="Shape" fill="#FCDD2E"></path>
            <path d="M20.0911942,11.8654762 C19.8627473,11.8654762 19.6474941,11.9200428 19.4555336,12.0147607 C19.9320551,12.2498045 20.2606766,12.7390311 20.2606766,13.3062799 L20.2606766,15.5098765 C20.2606766,16.0771253 19.9320551,16.5664333 19.4555336,16.8013957 C19.6474941,16.8960322 19.8627473,16.9506802 20.0911942,16.9506802 C20.8869714,16.9506802 21.531998,16.3056536 21.531998,15.5098765 L21.531998,13.3062799 C21.531998,12.5105842 20.8869714,11.8654762 20.0911942,11.8654762 Z" id="Shape" fill="#F9C301"></path>
            <path d="M17.2095868,11.8654762 C16.4138096,11.8654762 15.768783,12.5105028 15.768783,13.3062799 L15.768783,15.5098765 C15.768783,16.3056536 16.4138911,16.9506802 17.2095868,16.9506802 C18.0053639,16.9506802 18.6503905,16.3056536 18.6503905,15.5098765 L18.6503905,13.3062799 C18.6503905,12.5105842 18.0052825,11.8654762 17.2095868,11.8654762 Z" id="Shape" fill="#FCDD2E"></path>
            <path d="M17.2095868,11.8654762 C16.9811398,11.8654762 16.7658866,11.9200428 16.5739261,12.0147607 C17.0504476,12.2498045 17.3790691,12.7390311 17.3790691,13.3062799 L17.3790691,15.5098765 C17.3790691,16.0771253 17.0504476,16.5664333 16.5739261,16.8013957 C16.7658866,16.8960322 16.9810584,16.9506802 17.2095868,16.9506802 C18.0053639,16.9506802 18.6503905,16.3056536 18.6503905,15.5098765 L18.6503905,13.3062799 C18.6503905,12.5105842 18.0052825,11.8654762 17.2095868,11.8654762 Z" id="Shape" fill="#F9C301"></path>
            <path d="M11.4463718,11.8654762 C10.6505946,11.8654762 10.005568,12.5105028 10.005568,13.3062799 L10.005568,15.5098765 C10.005568,16.3056536 10.6506761,16.9506802 11.4463718,16.9506802 C12.2421489,16.9506802 12.8871755,16.3056536 12.8871755,15.5098765 L12.8871755,13.3062799 C12.8871755,12.5105842 12.2420675,11.8654762 11.4463718,11.8654762 Z" id="Shape" fill="#FCDD2E"></path>
            <path d="M11.4463718,11.8654762 C11.2179248,11.8654762 11.0026716,11.9200428 10.8107111,12.0147607 C11.2872326,12.2498045 11.6158541,12.7390311 11.6158541,13.3062799 L11.6158541,15.5098765 C11.6158541,16.0771253 11.2872326,16.5664333 10.8107111,16.8013957 C11.0026716,16.8960322 11.2178434,16.9506802 11.4463718,16.9506802 C12.2421489,16.9506802 12.8871755,16.3056536 12.8871755,15.5098765 L12.8871755,13.3062799 C12.8871755,12.5105842 12.2420675,11.8654762 11.4463718,11.8654762 Z" id="Shape" fill="#F9C301"></path>
            <path d="M22.9728017,11.8654762 C22.1770246,11.8654762 21.531998,12.5105028 21.531998,13.3062799 L21.531998,15.5098765 C21.531998,16.3056536 22.177106,16.9506802 22.9728017,16.9506802 C23.7685789,16.9506802 24.4136055,16.3056536 24.4136055,15.5098765 L24.4136055,13.3062799 C24.4136055,12.5105842 23.7685789,11.8654762 22.9728017,11.8654762 Z" id="Shape" fill="#FCDD2E"></path>
            <path d="M22.9728017,11.8654762 C22.7443548,11.8654762 22.5291016,11.9200428 22.3371411,12.0147607 C22.8136626,12.2498045 23.1422841,12.7390311 23.1422841,13.3062799 L23.1422841,15.5098765 C23.1422841,16.0771253 22.8136626,16.5664333 22.3371411,16.8013957 C22.5291016,16.8960322 22.7443548,16.9506802 22.9728017,16.9506802 C23.7685789,16.9506802 24.4136055,16.3056536 24.4136055,15.5098765 L24.4136055,13.3062799 C24.4136055,12.5105842 23.7685789,11.8654762 22.9728017,11.8654762 Z" id="Shape" fill="#F9C301"></path>
            <path d="M25.8544092,11.8654762 C25.0586321,11.8654762 24.4136055,12.5105028 24.4136055,13.3062799 L24.4136055,15.5098765 C24.4136055,16.3056536 25.0587135,16.9506802 25.8544092,16.9506802 C26.6501049,16.9506802 27.295213,16.3056536 27.295213,15.5098765 L27.295213,13.3062799 C27.295213,12.5105842 26.6501864,11.8654762 25.8544092,11.8654762 Z" id="Shape" fill="#FCDD2E"></path>
            <path d="M25.8544092,11.8654762 C25.6259623,11.8654762 25.4107091,11.9200428 25.2187486,12.0147607 C25.6952701,12.2498045 26.0238916,12.7390311 26.0238916,13.3062799 L26.0238916,15.5098765 C26.0238916,16.0771253 25.6952701,16.5664333 25.2187486,16.8013957 C25.4107091,16.8960322 25.6258809,16.9506802 25.8544092,16.9506802 C26.6501864,16.9506802 27.295213,16.3056536 27.295213,15.5098765 L27.295213,13.3062799 C27.295213,12.5105842 26.6501864,11.8654762 25.8544092,11.8654762 Z" id="Shape" fill="#F9C301"></path>
            <path d="M22.9728017,20.9341267 C22.1770246,20.9341267 21.531998,21.5791534 21.531998,22.3749305 L21.531998,24.5785271 C21.531998,25.3743042 22.177106,26.0193308 22.9728017,26.0193308 C23.7685789,26.0193308 24.4136055,25.3743042 24.4136055,24.5785271 L24.4136055,22.3749305 C24.4136055,21.5791534 23.7685789,20.9341267 22.9728017,20.9341267 Z" id="Shape" fill="#6DF3BF"></path>
            <path d="M22.9728017,20.9341267 C22.7443548,20.9341267 22.5291016,20.9886934 22.3371411,21.0834113 C22.8136626,21.3184551 23.1422841,21.8076817 23.1422841,22.3749305 L23.1422841,24.5785271 C23.1422841,25.1457758 22.8136626,25.6350839 22.3371411,25.8700462 C22.5291016,25.9646827 22.7443548,26.0193308 22.9728017,26.0193308 C23.7685789,26.0193308 24.4136055,25.3743042 24.4136055,24.5785271 L24.4136055,22.3749305 C24.4136055,21.5791534 23.7685789,20.9341267 22.9728017,20.9341267 Z" id="Shape" fill="#05E29A"></path>
            <path d="M25.8544092,20.9341267 C25.0586321,20.9341267 24.4136055,21.5791534 24.4136055,22.3749305 L24.4136055,24.5785271 C24.4136055,25.3743042 25.0587135,26.0193308 25.8544092,26.0193308 C26.6501049,26.0193308 27.295213,25.3743042 27.295213,24.5785271 L27.295213,22.3749305 C27.295213,21.5791534 26.6501864,20.9341267 25.8544092,20.9341267 Z" id="Shape" fill="#6DF3BF"></path>
            <path d="M25.8544092,20.9341267 C25.6259623,20.9341267 25.4107091,20.9886934 25.2187486,21.0834113 C25.6952701,21.3184551 26.0238916,21.8076817 26.0238916,22.3749305 L26.0238916,24.5785271 C26.0238916,25.1457758 25.6952701,25.6350839 25.2187486,25.8700462 C25.4107091,25.9646827 25.6258809,26.0193308 25.8544092,26.0193308 C26.6501864,26.0193308 27.295213,25.3743042 27.295213,24.5785271 L27.295213,22.3749305 C27.295213,21.5791534 26.6501864,20.9341267 25.8544092,20.9341267 Z" id="Shape" fill="#05E29A"></path>
            <path d="M11.4463718,20.9341267 C10.6505946,20.9341267 10.005568,21.5791534 10.005568,22.3749305 L10.005568,24.5785271 C10.005568,25.3743042 10.6506761,26.0193308 11.4463718,26.0193308 C12.2421489,26.0193308 12.8871755,25.3743042 12.8871755,24.5785271 L12.8871755,22.3749305 C12.8871755,21.5791534 12.2420675,20.9341267 11.4463718,20.9341267 Z" id="Shape" fill="#6DF3BF"></path>
            <path d="M11.4463718,20.9341267 C11.2179248,20.9341267 11.0026716,20.9886934 10.8107111,21.0834113 C11.2872326,21.3184551 11.6158541,21.8076817 11.6158541,22.3749305 L11.6158541,24.5785271 C11.6158541,25.1457758 11.2872326,25.6350839 10.8107111,25.8700462 C11.0026716,25.9646827 11.2178434,26.0193308 11.4463718,26.0193308 C12.2421489,26.0193308 12.8871755,25.3743042 12.8871755,24.5785271 L12.8871755,22.3749305 C12.8871755,21.5791534 12.2420675,20.9341267 11.4463718,20.9341267 Z" id="Shape" fill="#05E29A"></path>
            <path d="M14.3279793,20.9341267 C13.5322021,20.9341267 12.8871755,21.5791534 12.8871755,22.3749305 L12.8871755,24.5785271 C12.8871755,25.3743042 13.5322836,26.0193308 14.3279793,26.0193308 C15.1237564,26.0193308 15.768783,25.3743042 15.768783,24.5785271 L15.768783,22.3749305 C15.768783,21.5791534 15.123675,20.9341267 14.3279793,20.9341267 Z" id="Shape" fill="#6DF3BF"></path>
            <path d="M14.3279793,20.9341267 C14.0995323,20.9341267 13.8842791,20.9886934 13.6923186,21.0834113 C14.1688401,21.3184551 14.4974616,21.8076817 14.4974616,22.3749305 L14.4974616,24.5785271 C14.4974616,25.1457758 14.1688401,25.6350839 13.6923186,25.8700462 C13.8842791,25.9646827 14.0994509,26.0193308 14.3279793,26.0193308 C15.1237564,26.0193308 15.768783,25.3743042 15.768783,24.5785271 L15.768783,22.3749305 C15.768783,21.5791534 15.123675,20.9341267 14.3279793,20.9341267 Z" id="Shape" fill="#05E29A"></path>
            <path d="M17.2095868,20.9341267 C16.4138096,20.9341267 15.768783,21.5791534 15.768783,22.3749305 L15.768783,24.5785271 C15.768783,25.3743042 16.4138911,26.0193308 17.2095868,26.0193308 C18.0053639,26.0193308 18.6503905,25.3743042 18.6503905,24.5785271 L18.6503905,22.3749305 C18.6503905,21.5791534 18.0052825,20.9341267 17.2095868,20.9341267 Z" id="Shape" fill="#6DF3BF"></path>
            <path d="M17.2095868,20.9341267 C16.9811398,20.9341267 16.7658866,20.9886934 16.5739261,21.0834113 C17.0504476,21.3184551 17.3790691,21.8076817 17.3790691,22.3749305 L17.3790691,24.5785271 C17.3790691,25.1457758 17.0504476,25.6350839 16.5739261,25.8700462 C16.7658866,25.9646827 16.9810584,26.0193308 17.2095868,26.0193308 C18.0053639,26.0193308 18.6503905,25.3743042 18.6503905,24.5785271 L18.6503905,22.3749305 C18.6503905,21.5791534 18.0052825,20.9341267 17.2095868,20.9341267 Z" id="Shape" fill="#05E29A"></path>
            <path d="M20.0911942,30.0026959 C19.2954171,30.0026959 18.6503905,30.6477225 18.6503905,31.4434996 L18.6503905,33.6470962 C18.6503905,34.4428733 19.2954985,35.0879 20.0911942,35.0879 C20.8869714,35.0879 21.531998,34.4428733 21.531998,33.6470962 L21.531998,31.4434996 C21.531998,30.6478039 20.8869714,30.0026959 20.0911942,30.0026959 Z" id="Shape" fill="#FC8086"></path>
            <path d="M20.0911942,30.0026959 C19.8627473,30.0026959 19.6474941,30.0572625 19.4555336,30.1519804 C19.9320551,30.3870242 20.2606766,30.8762509 20.2606766,31.4434996 L20.2606766,33.6470962 C20.2606766,34.214345 19.9320551,34.703653 19.4555336,34.9386154 C19.6474941,35.0332519 19.8627473,35.0879 20.0911942,35.0879 C20.8869714,35.0879 21.531998,34.4428733 21.531998,33.6470962 L21.531998,31.4434996 C21.531998,30.6478039 20.8869714,30.0026959 20.0911942,30.0026959 Z" id="Shape" fill="#FA4954"></path>
            <path d="M22.9728017,30.0026959 C22.1770246,30.0026959 21.531998,30.6477225 21.531998,31.4434996 L21.531998,33.6470962 C21.531998,34.4428733 22.177106,35.0879 22.9728017,35.0879 C23.7685789,35.0879 24.4136055,34.4428733 24.4136055,33.6470962 L24.4136055,31.4434996 C24.4136055,30.6478039 23.7685789,30.0026959 22.9728017,30.0026959 Z" id="Shape" fill="#FC8086"></path>
            <path d="M22.9728017,30.0026959 C22.7443548,30.0026959 22.5291016,30.0572625 22.3371411,30.1519804 C22.8136626,30.3870242 23.1422841,30.8762509 23.1422841,31.4434996 L23.1422841,33.6470962 C23.1422841,34.214345 22.8136626,34.703653 22.3371411,34.9386154 C22.5291016,35.0332519 22.7443548,35.0879 22.9728017,35.0879 C23.7685789,35.0879 24.4136055,34.4428733 24.4136055,33.6470962 L24.4136055,31.4434996 C24.4136055,30.6478039 23.7685789,30.0026959 22.9728017,30.0026959 Z" id="Shape" fill="#FA4954"></path>
            <path d="M25.8544092,30.0026959 C25.0586321,30.0026959 24.4136055,30.6477225 24.4136055,31.4434996 L24.4136055,33.6470962 C24.4136055,34.4428733 25.0587135,35.0879 25.8544092,35.0879 C26.6501049,35.0879 27.295213,34.4428733 27.295213,33.6470962 L27.295213,31.4434996 C27.295213,30.6478039 26.6501864,30.0026959 25.8544092,30.0026959 Z" id="Shape" fill="#FC8086"></path>
            <path d="M25.8544092,30.0026959 C25.6259623,30.0026959 25.4107091,30.0572625 25.2187486,30.1519804 C25.6952701,30.3870242 26.0238916,30.8762509 26.0238916,31.4434996 L26.0238916,33.6470962 C26.0238916,34.214345 25.6952701,34.703653 25.2187486,34.9386154 C25.4107091,35.0332519 25.6258809,35.0879 25.8544092,35.0879 C26.6501864,35.0879 27.295213,34.4428733 27.295213,33.6470962 L27.295213,31.4434996 C27.295213,30.6478039 26.6501864,30.0026959 25.8544092,30.0026959 Z" id="Shape" fill="#FA4954"></path>
        </g>
    </g>
</svg>