<?xml version="1.0" encoding="UTF-8"?>
<svg width="73px" height="73px" viewBox="0 0 73 73" version="1.1" xmlns="http://www.w3.org/2000/svg" xmlns:xlink="http://www.w3.org/1999/xlink">
    <!-- Generator: Sketch 51.3 (57544) - http://www.bohemiancoding.com/sketch -->
    <title>algorithms-and-data-structures/analysis/order-of-growth</title>
    <desc>Created with Sketch.</desc>
    <defs></defs>
    <g id="algorithms-and-data-structures/analysis/order-of-growth" stroke="none" stroke-width="1" fill="none" fill-rule="evenodd">
        <g id="container" transform="translate(2.000000, 2.000000)" fill="#FFFFFF" fill-rule="nonzero" stroke="#332D3E" stroke-width="2">
            <rect id="mask" x="-1" y="-1" width="71" height="71" rx="14"></rect>
        </g>
        <g id="diagram-(1)" transform="translate(17.000000, 17.000000)" fill-rule="nonzero">
            <polygon id="Shape" fill="#FFE1B2" points="16.875 23.125 24.375 11.25 24.375 38.125 16.875 38.125"></polygon>
            <polygon id="Shape" fill="#FFE1B2" points="31.875 8.125 39.375 0.625 39.375 38.125 31.875 38.125"></polygon>
            <polygon id="Shape" fill="#FFE1B2" points="1.875 30.625 9.375 25.625 9.375 38.125 1.875 38.125"></polygon>
            <path d="M39.375,0 L34.375,0 C34.0295312,0 33.75,0.27953125 33.75,0.625 C33.75,0.97046875 34.0295312,1.25 34.375,1.25 L37.8661719,1.25 L31.5203906,7.59578125 L24.1344531,10.6732812 C24.1132812,10.6821094 24.0994531,10.699375 24.0797656,10.7101562 C24.0435156,10.7297656 24.010625,10.7516406 23.9784375,10.7785156 C23.9450781,10.8065625 23.9167969,10.8364062 23.8904688,10.8702344 C23.8770312,10.8871875 23.8582813,10.8975 23.8464062,10.9160937 L16.9142969,21.8919531 L13.67375,15.9508594 C13.6599219,15.9255469 13.6370312,15.91 13.6203906,15.8874219 C13.5942187,15.8514062 13.5692969,15.8163281 13.5354688,15.7863281 C13.5030469,15.7577344 13.4669531,15.7382812 13.4299219,15.7172656 C13.404375,15.7025781 13.3851563,15.6807812 13.3569531,15.6695312 C13.3471094,15.6655469 13.3367188,15.6674219 13.3267969,15.6639062 C13.2878125,15.6504687 13.2480469,15.6473437 13.2071875,15.6417187 C13.1663281,15.6361719 13.1267188,15.6277344 13.0863281,15.6303125 C13.0514063,15.6324219 13.0183594,15.6442969 12.98375,15.6524219 C12.9385938,15.6632031 12.8946875,15.6725 12.853125,15.6928906 C12.844375,15.6971875 12.8346875,15.6965625 12.8260156,15.70125 C12.8011719,15.7147656 12.7859375,15.7373437 12.7636719,15.7535937 C12.7273438,15.78 12.691875,15.805 12.6616406,15.8392187 C12.6323438,15.8722656 12.6125,15.9092187 12.5911719,15.9470312 C12.5769531,15.9719531 12.5555469,15.990625 12.5446875,16.0180469 L8.86679688,25.2127344 L1.5284375,30.105 C1.2409375,30.2966406 1.1634375,30.6842187 1.35507813,30.9717187 C1.4753125,31.1523437 1.67367188,31.25 1.87570313,31.25 C1.9946875,31.25 2.11492188,31.2157812 2.22179688,31.145 L9.72101563,26.1455469 C9.78265625,26.1047656 9.83382813,26.0496875 9.87835938,25.9880469 C9.8928125,25.968125 9.90304688,25.9473437 9.91484375,25.9260937 C9.92796875,25.9025781 9.9453125,25.8826562 9.95554688,25.8569531 L13.2123438,17.715 L16.3264063,23.4241406 C16.3332031,23.4365625 16.3434375,23.4455469 16.3509375,23.4573437 C16.3619531,23.4747656 16.374375,23.49 16.3871875,23.5063281 C16.4264844,23.5566406 16.4710156,23.5999219 16.5217969,23.6349219 C16.5294531,23.6402344 16.5333594,23.6485937 16.5413281,23.6535937 C16.5446875,23.6557031 16.5484375,23.65625 16.551875,23.6582812 C16.5849219,23.6782031 16.620625,23.6915625 16.6565625,23.7050781 C16.674375,23.7117969 16.6911719,23.7221094 16.7092969,23.7270312 C16.7548438,23.7396094 16.8021094,23.7445312 16.8496875,23.7465625 C16.8580469,23.746875 16.86625,23.75 16.8746094,23.75 L16.8752344,23.7499219 L16.8757813,23.75 C16.9399219,23.75 17.00375,23.7363281 17.0665625,23.7159375 C17.103125,23.7041406 17.1398438,23.6922656 17.1738281,23.6738281 C17.1738281,23.6738281 17.1741406,23.67375 17.1742969,23.6736719 C17.1742969,23.6736719 17.175,23.6729687 17.1754688,23.6727344 C17.23875,23.6382031 17.2935156,23.5886719 17.3427344,23.5323437 C17.3542188,23.5192187 17.3652344,23.506875 17.3754687,23.4928906 C17.3842969,23.4808594 17.395625,23.4717187 17.40375,23.4588281 L24.7984375,11.750625 L32.109375,8.704375 C32.11,8.70414062 32.110625,8.70390625 32.11125,8.70359375 L32.1157031,8.70171875 C32.1564844,8.68476562 32.1860156,8.6546875 32.2210938,8.630625 C32.2530469,8.60882812 32.2888281,8.59515625 32.3171094,8.56679687 L32.3202344,8.56367187 C32.3208594,8.56304687 32.3214844,8.56242187 32.3221094,8.56179687 L38.75,2.13375 L38.75,5.625 C38.75,5.97046875 39.0295312,6.25 39.375,6.25 C39.7204688,6.25 40,5.97046875 40,5.625 L40,0.625 C40,0.27953125 39.7204688,0 39.375,0 Z" id="Shape" fill="#FF4F19"></path>
            <g id="Group" fill="#5C546A">
                <path d="M1.875,40 C1.52953125,40 1.25,39.7204688 1.25,39.375 L1.25,38.125 C1.25,37.7795312 1.52953125,37.5 1.875,37.5 C2.22046875,37.5 2.5,37.7795312 2.5,38.125 L2.5,39.375 C2.5,39.7204688 2.22046875,40 1.875,40 Z" id="Shape"></path>
                <path d="M9.375,40 C9.02953125,40 8.75,39.7204688 8.75,39.375 L8.75,38.125 C8.75,37.7795312 9.02953125,37.5 9.375,37.5 C9.72046875,37.5 10,37.7795312 10,38.125 L10,39.375 C10,39.7204688 9.72046875,40 9.375,40 Z" id="Shape"></path>
                <path d="M16.875,40 C16.5295313,40 16.25,39.7204688 16.25,39.375 L16.25,38.125 C16.25,37.7795312 16.5295313,37.5 16.875,37.5 C17.2204687,37.5 17.5,37.7795312 17.5,38.125 L17.5,39.375 C17.5,39.7204688 17.2204687,40 16.875,40 Z" id="Shape"></path>
                <path d="M24.375,40 C24.0295312,40 23.75,39.7204688 23.75,39.375 L23.75,38.125 C23.75,37.7795312 24.0295312,37.5 24.375,37.5 C24.7204687,37.5 25,37.7795312 25,38.125 L25,39.375 C25,39.7204688 24.7204687,40 24.375,40 Z" id="Shape"></path>
                <path d="M31.875,40 C31.5295312,40 31.25,39.7204688 31.25,39.375 L31.25,38.125 C31.25,37.7795312 31.5295312,37.5 31.875,37.5 C32.2204687,37.5 32.5,37.7795312 32.5,38.125 L32.5,39.375 C32.5,39.7204688 32.2204687,40 31.875,40 Z" id="Shape"></path>
                <path d="M1.875,8.75 L0.625,8.75 C0.27953125,8.75 0,8.47046875 0,8.125 C0,7.77953125 0.27953125,7.5 0.625,7.5 L1.875,7.5 C2.22046875,7.5 2.5,7.77953125 2.5,8.125 C2.5,8.47046875 2.22046875,8.75 1.875,8.75 Z" id="Shape"></path>
                <path d="M1.875,16.25 L0.625,16.25 C0.27953125,16.25 0,15.9704688 0,15.625 C0,15.2795313 0.27953125,15 0.625,15 L1.875,15 C2.22046875,15 2.5,15.2795313 2.5,15.625 C2.5,15.9704688 2.22046875,16.25 1.875,16.25 Z" id="Shape"></path>
                <path d="M1.875,23.75 L0.625,23.75 C0.27953125,23.75 0,23.4704688 0,23.125 C0,22.7795312 0.27953125,22.5 0.625,22.5 L1.875,22.5 C2.22046875,22.5 2.5,22.7795312 2.5,23.125 C2.5,23.4704688 2.22046875,23.75 1.875,23.75 Z" id="Shape"></path>
                <path d="M1.875,31.25 L0.625,31.25 C0.27953125,31.25 0,30.9704687 0,30.625 C0,30.2795312 0.27953125,30 0.625,30 L1.875,30 C2.22046875,30 2.5,30.2795312 2.5,30.625 C2.5,30.9704687 2.22046875,31.25 1.875,31.25 Z" id="Shape"></path>
                <path d="M1.875,38.75 L0.625,38.75 C0.27953125,38.75 0,38.4704688 0,38.125 C0,37.7795312 0.27953125,37.5 0.625,37.5 L1.875,37.5 C2.22046875,37.5 2.5,37.7795312 2.5,38.125 C2.5,38.4704688 2.22046875,38.75 1.875,38.75 Z" id="Shape"></path>
                <path d="M39.375,38.75 L1.875,38.75 C1.52953125,38.75 1.25,38.4704688 1.25,38.125 L1.25,0.625 C1.25,0.27953125 1.52953125,0 1.875,0 C2.22046875,0 2.5,0.27953125 2.5,0.625 L2.5,37.5 L39.375,37.5 C39.7204688,37.5 40,37.7795312 40,38.125 C40,38.4704688 39.7204688,38.75 39.375,38.75 Z" id="Shape"></path>
            </g>
            <g id="Group" transform="translate(23.750000, 15.000000)" fill="#FF4F19">
                <path d="M0.625,11.25 C0.46265625,11.25 0.2996875,11.1810156 0.18125,11.06875 C0.068359375,10.9497656 0,10.7935156 0,10.625 C0,10.4559375 0.068359375,10.2935938 0.18125,10.18125 C0.412578125,9.94992187 0.83125,9.94992187 1.06867187,10.18125 C1.18101562,10.2996875 1.24992187,10.4559375 1.24992187,10.625 C1.24992187,10.7873438 1.1809375,10.9496875 1.06867187,11.06875 C0.9496875,11.1810156 0.78734375,11.25 0.625,11.25 Z" id="Shape"></path>
                <path d="M0.625,8.75 C0.46265625,8.75 0.2996875,8.68101563 0.18125,8.56875 C0.068359375,8.44976563 0,8.29351563 0,8.125 C0,7.9559375 0.068359375,7.7996875 0.18125,7.68125 C0.418671875,7.44992188 0.83125,7.44992188 1.06867187,7.68125 C1.18101562,7.7996875 1.24992187,7.9559375 1.24992187,8.125 C1.24992187,8.2934375 1.1809375,8.4496875 1.06867187,8.56875 C0.9496875,8.68101563 0.78734375,8.75 0.625,8.75 Z" id="Shape"></path>
                <path d="M0.625,6.25 C0.46265625,6.25 0.2996875,6.18101563 0.18125,6.06875 C0.068359375,5.94976562 0,5.79351562 0,5.625 C0,5.4559375 0.068359375,5.2996875 0.18125,5.18125 C0.418671875,4.94992187 0.83125,4.94992187 1.06867187,5.18125 C1.18101562,5.2996875 1.24992187,5.46265625 1.24992187,5.625 C1.24992187,5.7934375 1.1809375,5.9496875 1.06867187,6.06875 C0.9496875,6.18101563 0.78734375,6.25 0.625,6.25 Z" id="Shape"></path>
                <path d="M0.625,3.75 C0.46265625,3.75 0.2996875,3.68101562 0.18125,3.56875 C0.068359375,3.44976563 0,3.29351563 0,3.125 C0,2.9559375 0.068359375,2.7996875 0.18125,2.68125 C0.418671875,2.44992188 0.83125,2.44992188 1.06867187,2.68125 C1.18101562,2.7996875 1.24992187,2.96265625 1.24992187,3.125 C1.24992187,3.2934375 1.1809375,3.4496875 1.06867187,3.56875 C0.9496875,3.68101562 0.78734375,3.75 0.625,3.75 Z" id="Shape"></path>
                <path d="M0.625,1.25 C0.46265625,1.25 0.2996875,1.18101562 0.18125,1.06875 C0.068359375,0.949765625 0,0.793515625 0,0.625 C0,0.4559375 0.068359375,0.2996875 0.18125,0.18125 C0.412578125,-0.050078125 0.83734375,-0.050078125 1.06867187,0.18125 C1.18101562,0.2996875 1.24992187,0.46265625 1.24992187,0.625 C1.24992187,0.78734375 1.1809375,0.9496875 1.06867187,1.06875 C0.9496875,1.18101562 0.78734375,1.25 0.625,1.25 Z" id="Shape"></path>
                <path d="M0.625,21.25 C0.46265625,21.25 0.2996875,21.1810156 0.18125,21.06875 C0.068359375,20.9497656 0,20.7935156 0,20.625 C0,20.4559375 0.068359375,20.2996875 0.18125,20.18125 C0.412578125,19.9499219 0.83734375,19.9499219 1.06867187,20.18125 C1.18101562,20.2996875 1.24992187,20.4626563 1.24992187,20.625 C1.24992187,20.7873438 1.1809375,20.9496875 1.06867187,21.06875 C0.9496875,21.1810156 0.78734375,21.25 0.625,21.25 Z" id="Shape"></path>
                <path d="M0.625,18.75 C0.46265625,18.75 0.2996875,18.6871094 0.18125,18.56875 C0.068359375,18.4497656 0,18.2935156 0,18.125 C0,17.9559375 0.068359375,17.7935937 0.18125,17.68125 C0.412578125,17.4499219 0.83734375,17.4499219 1.06867187,17.68125 C1.18101562,17.7996875 1.24992187,17.9559375 1.24992187,18.125 C1.24992187,18.2873438 1.1809375,18.4496875 1.06867187,18.56875 C0.9496875,18.6871094 0.78734375,18.75 0.625,18.75 Z" id="Shape"></path>
                <path d="M0.625,16.25 C0.46265625,16.25 0.2996875,16.1810156 0.18125,16.06875 C0.068359375,15.9497656 0,15.7873438 0,15.625 C0,15.4559375 0.068359375,15.2935938 0.18125,15.18125 C0.412578125,14.9499219 0.83734375,14.9499219 1.06867187,15.18125 C1.18101562,15.2996875 1.24992187,15.4559375 1.24992187,15.625 C1.24992187,15.7873438 1.1809375,15.9496875 1.06867187,16.06875 C0.9496875,16.1810156 0.78734375,16.25 0.625,16.25 Z" id="Shape"></path>
                <path d="M0.625,13.75 C0.46265625,13.75 0.2996875,13.6810156 0.18125,13.56875 C0.068359375,13.4497656 0,13.2873438 0,13.125 C0,12.9559375 0.068359375,12.7935938 0.18125,12.68125 C0.412578125,12.4499219 0.83125,12.4499219 1.06867187,12.68125 C1.18101562,12.7996875 1.24992187,12.9559375 1.24992187,13.125 C1.24992187,13.2873438 1.1809375,13.4496875 1.06867187,13.56875 C0.9496875,13.6810156 0.78734375,13.75 0.625,13.75 Z" id="Shape"></path>
            </g>
            <g id="Group" transform="translate(31.250000, 10.000000)" fill="#E9001E">
                <path d="M0.625,16.25 C0.4559375,16.25 0.2996875,16.1810156 0.18125,16.06875 C0.068359375,15.9497656 0,15.7935156 0,15.625 C0,15.4559375 0.068359375,15.2935938 0.18125,15.18125 C0.405859375,14.9560156 0.83734375,14.9499219 1.06867188,15.18125 C1.18101563,15.2996875 1.24992188,15.4559375 1.24992188,15.625 C1.24992188,15.7934375 1.1809375,15.9496875 1.06867188,16.06875 C0.9496875,16.1810156 0.7934375,16.25 0.625,16.25 Z" id="Shape"></path>
                <path d="M0.625,13.75 C0.46265625,13.75 0.2996875,13.6810156 0.18125,13.56875 C0.068359375,13.4497656 0,13.2873438 0,13.125 C0,12.9626563 0.068359375,12.7996875 0.18125,12.68125 C0.412578125,12.4499219 0.83734375,12.4499219 1.06867188,12.68125 C1.18101563,12.7996875 1.24992188,12.9626563 1.24992188,13.125 C1.24992188,13.2873438 1.1809375,13.4496875 1.06867188,13.56875 C0.9496875,13.6810156 0.78734375,13.75 0.625,13.75 Z" id="Shape"></path>
                <path d="M0.625,11.25 C0.4559375,11.25 0.2996875,11.1810156 0.18125,11.06875 C0.068359375,10.9497656 0,10.7935156 0,10.625 C0,10.4559375 0.068359375,10.2996875 0.18125,10.18125 C0.412578125,9.94992187 0.83734375,9.94992187 1.06867188,10.18125 C1.18101563,10.2996875 1.24992188,10.4559375 1.24992188,10.625 C1.24992188,10.7934375 1.1809375,10.9496875 1.06867188,11.06875 C0.9496875,11.1810156 0.7934375,11.25 0.625,11.25 Z" id="Shape"></path>
                <path d="M0.625,8.75 C0.46265625,8.75 0.2996875,8.68101563 0.18125,8.56875 C0.068359375,8.44976563 0,8.28734375 0,8.125 C0,7.96265625 0.068359375,7.7996875 0.18125,7.68125 C0.412578125,7.44992187 0.83734375,7.44992187 1.06867188,7.68125 C1.18101563,7.7996875 1.24992188,7.96265625 1.24992188,8.125 C1.24992188,8.28734375 1.1809375,8.4496875 1.06867188,8.56875 C0.9496875,8.68101563 0.78734375,8.75 0.625,8.75 Z" id="Shape"></path>
                <path d="M0.625,6.25 C0.4559375,6.25 0.2996875,6.18101563 0.18125,6.06875 C0.068359375,5.94976563 0,5.79351563 0,5.625 C0,5.4559375 0.068359375,5.2996875 0.18125,5.18125 C0.412578125,4.94992187 0.83734375,4.94992187 1.06867188,5.18125 C1.18101563,5.2996875 1.24992188,5.4559375 1.24992188,5.625 C1.24992188,5.7934375 1.1809375,5.9496875 1.06867188,6.06875 C0.9496875,6.18101563 0.7934375,6.25 0.625,6.25 Z" id="Shape"></path>
                <path d="M0.625,3.75 C0.46265625,3.75 0.2996875,3.68101563 0.18125,3.56875 C0.068359375,3.44976563 0,3.28734375 0,3.125 C0,2.96265625 0.068359375,2.7996875 0.18125,2.68125 C0.412578125,2.44992188 0.83734375,2.44992188 1.06867188,2.68125 C1.18101563,2.7996875 1.24992188,2.96265625 1.24992188,3.125 C1.24992188,3.28734375 1.1809375,3.4496875 1.06867188,3.56875 C0.9496875,3.68101563 0.78734375,3.75 0.625,3.75 Z" id="Shape"></path>
                <path d="M0.625,1.25 C0.46265625,1.25 0.2996875,1.18101563 0.18125,1.06875 C0.068359375,0.949765625 0,0.78734375 0,0.625 C0,0.4559375 0.068359375,0.2996875 0.18125,0.18125 C0.412578125,-0.050078125 0.83734375,-0.050078125 1.06867188,0.18125 C1.18101563,0.2996875 1.24992188,0.4559375 1.24992188,0.625 C1.24992188,0.78734375 1.1809375,0.9496875 1.06867188,1.06875 C0.9496875,1.18101563 0.78734375,1.25 0.625,1.25 Z" id="Shape"></path>
                <path d="M0.625,26.25 C0.4559375,26.25 0.2996875,26.1810156 0.18125,26.0626563 C0.068359375,25.9497656 0,25.7935156 0,25.625 C0,25.4626563 0.068359375,25.2996875 0.18125,25.18125 C0.412578125,24.9499219 0.83734375,24.9499219 1.06867188,25.18125 C1.18101563,25.2996875 1.24992188,25.4626563 1.24992188,25.625 C1.24992188,25.7934375 1.1809375,25.9496875 1.06257813,26.06875 C0.9496875,26.1810156 0.7934375,26.25 0.625,26.25 Z" id="Shape"></path>
                <path d="M0.625,23.75 C0.46265625,23.75 0.2996875,23.6810156 0.18125,23.56875 C0.068359375,23.4497656 0,23.2873438 0,23.125 C0,22.9559375 0.068359375,22.7996875 0.18125,22.68125 C0.412578125,22.4499219 0.83734375,22.4499219 1.06867188,22.68125 C1.18101563,22.7996875 1.24992188,22.9559375 1.24992188,23.125 C1.24992188,23.2873438 1.1809375,23.4496875 1.06867188,23.56875 C0.9496875,23.6810156 0.78734375,23.75 0.625,23.75 Z" id="Shape"></path>
                <path d="M0.625,21.25 C0.4559375,21.25 0.2996875,21.1810156 0.18125,21.06875 C0.068359375,20.9497656 0,20.7935156 0,20.625 C0,20.4559375 0.068359375,20.2996875 0.18125,20.18125 C0.412578125,19.9499219 0.83734375,19.9499219 1.06867188,20.18125 C1.18101563,20.2996875 1.24992188,20.4626562 1.24992188,20.625 C1.24992188,20.7934375 1.1809375,20.9496875 1.06867188,21.06875 C0.9496875,21.1810156 0.7934375,21.25 0.625,21.25 Z" id="Shape"></path>
                <path d="M0.625,18.75 C0.46265625,18.75 0.2996875,18.6810156 0.18125,18.56875 C0.068359375,18.4497656 0,18.2873438 0,18.125 C0,17.9559375 0.068359375,17.7935938 0.18125,17.68125 C0.412578125,17.4499219 0.83734375,17.4499219 1.06867188,17.6873438 C1.18101563,17.7996875 1.24992188,17.9559375 1.24992188,18.125 C1.24992188,18.2873438 1.1809375,18.4496875 1.06867188,18.56875 C0.9496875,18.6810156 0.78734375,18.75 0.625,18.75 Z" id="Shape"></path>
            </g>
            <g id="Group" transform="translate(16.250000, 25.000000)" fill="#FF9600">
                <path d="M0.625,1.25 C0.46265625,1.25 0.2996875,1.18101563 0.18125,1.06875 C0.068359375,0.949765625 0,0.78734375 0,0.625 C0,0.46265625 0.068359375,0.2996875 0.18125,0.18125 C0.412578125,-0.050078125 0.83734375,-0.050078125 1.06867187,0.18125 C1.18101562,0.2996875 1.24992187,0.46265625 1.24992187,0.625 C1.24992187,0.78734375 1.1809375,0.9496875 1.06867187,1.06875 C0.9496875,1.18101563 0.78734375,1.25 0.625,1.25 Z" id="Shape"></path>
                <path d="M0.625,11.25 C0.46265625,11.25 0.2996875,11.1810156 0.18125,11.06875 C0.068359375,10.9497656 0,10.7873438 0,10.625 C0,10.4559375 0.068359375,10.2996875 0.18125,10.18125 C0.418671875,9.94992188 0.83125,9.94992188 1.06867187,10.18125 C1.18101562,10.2996875 1.24992187,10.4626562 1.24992187,10.625 C1.24992187,10.7873438 1.1809375,10.9496875 1.06867187,11.06875 C0.9496875,11.1810156 0.78734375,11.25 0.625,11.25 Z" id="Shape"></path>
                <path d="M0.625,8.75 C0.46265625,8.75 0.2996875,8.68101563 0.18125,8.56875 C0.068359375,8.44976563 0,8.28734375 0,8.125 C0,7.96265625 0.068359375,7.7996875 0.18125,7.68125 C0.418671875,7.44992188 0.83125,7.44992188 1.06867187,7.68125 C1.18101562,7.7996875 1.24992187,7.96265625 1.24992187,8.125 C1.24992187,8.28734375 1.1809375,8.4496875 1.06867187,8.56875 C0.9496875,8.68101563 0.78734375,8.75 0.625,8.75 Z" id="Shape"></path>
                <path d="M0.625,6.25 C0.46265625,6.25 0.2996875,6.18101563 0.18125,6.06875 C0.068359375,5.94976563 0,5.79351563 0,5.625 C0,5.4559375 0.068359375,5.2996875 0.18125,5.18125 C0.418671875,4.94992187 0.83125,4.94992187 1.06867187,5.18125 C1.18101562,5.2996875 1.24992187,5.46265625 1.24992187,5.625 C1.24992187,5.78734375 1.1809375,5.9496875 1.06867187,6.06875 C0.9496875,6.18101563 0.78734375,6.25 0.625,6.25 Z" id="Shape"></path>
                <path d="M0.625,3.75 C0.46265625,3.75 0.2996875,3.68101563 0.18125,3.56875 C0.068359375,3.44976563 0,3.28734375 0,3.125 C0,2.96265625 0.068359375,2.7996875 0.18125,2.68125 C0.412578125,2.44992188 0.83734375,2.44992188 1.06867187,2.68125 C1.18101562,2.7996875 1.24992187,2.96265625 1.24992187,3.125 C1.24992187,3.28734375 1.1809375,3.4496875 1.06867187,3.56875 C0.9496875,3.68101563 0.78734375,3.75 0.625,3.75 Z" id="Shape"></path>
            </g>
            <g id="Group" transform="translate(8.750000, 27.500000)" fill="#FFD200">
                <path d="M0.625,8.75 C0.46265625,8.75 0.2996875,8.68101563 0.18125,8.56875 C0.068359375,8.44976563 0,8.28734375 0,8.125 C0,7.9559375 0.068359375,7.7996875 0.18125,7.68125 C0.412578125,7.44992188 0.83125,7.44992188 1.06867187,7.68125 C1.18101562,7.7996875 1.24992187,7.9559375 1.24992187,8.125 C1.24992187,8.28734375 1.1809375,8.4496875 1.06867187,8.56875 C0.9496875,8.68101563 0.78734375,8.75 0.625,8.75 Z" id="Shape"></path>
                <path d="M0.625,6.25 C0.46265625,6.25 0.2996875,6.18101563 0.18125,6.06875 C0.068359375,5.94976563 0,5.78734375 0,5.625 C0,5.46265625 0.068359375,5.2996875 0.18125,5.18125 C0.412578125,4.94992187 0.83734375,4.94992187 1.06867187,5.18125 C1.18101562,5.2996875 1.24992187,5.46265625 1.24992187,5.625 C1.24992187,5.7934375 1.1809375,5.9496875 1.06867187,6.06875 C0.9496875,6.18101563 0.78734375,6.25 0.625,6.25 Z" id="Shape"></path>
                <path d="M0.625,3.75 C0.46265625,3.75 0.2996875,3.68101563 0.18125,3.56875 C0.068359375,3.44976563 0,3.29351563 0,3.125 C0,2.96265625 0.068359375,2.7996875 0.18125,2.68125 C0.412578125,2.44992188 0.83125,2.44992188 1.06867187,2.68125 C1.18101562,2.7996875 1.24992187,2.9559375 1.24992187,3.125 C1.24992187,3.2934375 1.1809375,3.4496875 1.06867187,3.56875 C0.9496875,3.68101563 0.78734375,3.75 0.625,3.75 Z" id="Shape"></path>
                <path d="M0.625,1.25 C0.46265625,1.25 0.2996875,1.18101563 0.18125,1.06875 C0.068359375,0.949765625 0,0.78734375 0,0.625 C0,0.4559375 0.068359375,0.2996875 0.18125,0.18125 C0.412578125,-0.050078125 0.83125,-0.050078125 1.06867187,0.18125 C1.18101562,0.2996875 1.24992187,0.4559375 1.24992187,0.625 C1.24992187,0.78734375 1.1809375,0.9496875 1.06867187,1.06875 C0.9496875,1.18101563 0.78734375,1.25 0.625,1.25 Z" id="Shape"></path>
            </g>
        </g>
    </g>
</svg>