<?xml version="1.0" encoding="UTF-8"?>
<svg width="73px" height="73px" viewBox="0 0 73 73" version="1.1" xmlns="http://www.w3.org/2000/svg" xmlns:xlink="http://www.w3.org/1999/xlink">
    <!-- Generator: Sketch 51.3 (57544) - http://www.bohemiancoding.com/sketch -->
    <title>algorithms-and-data-structures/analysis/time-complexity</title>
    <desc>Created with Sketch.</desc>
    <defs></defs>
    <g id="algorithms-and-data-structures/analysis/time-complexity" stroke="none" stroke-width="1" fill="none" fill-rule="evenodd">
        <g id="container" transform="translate(2.000000, 2.000000)" fill="#FFFFFF" fill-rule="nonzero" stroke="#012455" stroke-width="2">
            <rect id="mask" x="-1" y="-1" width="71" height="71" rx="14"></rect>
        </g>
        <g id="chronometer" transform="translate(17.000000, 15.000000)" fill-rule="nonzero">
            <polygon id="Shape" fill="#B4D2D7" points="34.0975704 7.9013358 35.8767962 9.6808894 32.1381281 13.4195575 30.3589022 11.6400039"></polygon>
            <polygon id="Shape" fill="#E1EBF0" points="4.45068613 7.90166353 8.18935416 11.6403316 6.40980056 13.4198852 2.67113253 9.68121704"></polygon>
            <polygon id="Shape" fill="#87A0AF" points="33.2053361 5.23020327 38.5479288 10.5727961 36.7687029 12.3523496 31.4261101 7.00975687"></polygon>
            <polygon id="Shape" fill="#B4D2D7" points="5.3425927 5.230531 7.12181866 7.00975687 1.7795536 12.3523496 0 10.5731237"></polygon>
            <polygon id="Shape" fill="#B4D2D7" points="23.4703817 1.25922013 17.5950042 1.25922013 19.2739644 10.0878505 23.4703817 10.0878505"></polygon>
            <polygon id="Shape" fill="#E1EBF0" points="15.077547 1.25922013 19.2739644 1.25922013 19.2739644 10.0878505 15.077547 10.0878505"></polygon>
            <path d="M32.3153954,11.463392 C28.8316514,7.97997562 24.2004214,6.06149176 19.2739644,6.06149176 L17.5950042,24.504823 L19.2739644,42.9478266 C24.2004214,42.9478266 28.8316514,41.0293427 32.3153954,37.5459263 C35.7988118,34.0625101 37.716968,29.4309524 37.716968,24.504823 C37.716968,19.578366 35.7988118,14.9468083 32.3153954,11.463392 Z" id="Shape" fill="#005FE1"></path>
            <path d="M6.23286105,11.463392 C2.7494447,14.9468083 0.830960757,19.578366 0.830960757,24.504823 C0.830960757,29.4309524 2.7494447,34.0625101 6.23286105,37.5459263 C9.71627732,41.0293427 14.347835,42.9478266 19.2739644,42.9478266 L19.2739644,6.06149176 C14.347835,6.06149176 9.71627732,7.97997562 6.23286105,11.463392 Z" id="Shape" fill="#69B1E9"></path>
            <path d="M17.5950042,22.8258629 L19.2739644,38.0767452 C26.7578539,38.0767452 32.8458865,31.9883848 32.8458865,24.504823 L17.5950042,22.8258629 Z" id="Shape" fill="#EFE2DD"></path>
            <path d="M32.8458865,24.504823 C32.8458865,17.0212612 26.7575262,10.9329009 19.2739644,10.9329009 L17.5950042,24.504823 L32.8458865,24.504823 Z" id="Shape" fill="#00CC76"></path>
            <polygon id="Shape" fill="#87A0AF" points="25.9901326 0 19.2739644 0 18.4344843 1.25922013 19.2739644 2.51647422 25.9901326 2.51647422"></polygon>
            <polygon id="Shape" fill="#B4D2D7" points="12.5581239 0 19.2739644 0 19.2739644 2.51647422 12.5581239 2.51647422"></polygon>
            <path d="M19.2739644,10.9325732 C11.7904026,10.9325732 5.70204219,17.0209335 5.70204219,24.504823 C5.70204219,31.9883848 11.7904026,38.0767452 19.2739644,38.0767452 L19.2739644,10.9325732 Z" id="Shape" fill="#FFF5F5"></path>
            <path d="M19.2739644,20.7278181 L17.5950042,24.504823 L19.2739644,28.2815003 C21.3566089,28.2815003 23.0506417,26.5871399 23.0506417,24.504823 C23.0506417,22.4221785 21.3566089,20.7278181 19.2739644,20.7278181 Z" id="Shape" fill="#005FE1"></path>
            <path d="M15.4972871,24.504823 C15.4972871,26.5871399 17.1916475,28.2815003 19.2739644,28.2815003 L19.2739644,20.7278181 C17.1916475,20.7278181 15.4972871,22.4221785 15.4972871,24.504823 Z" id="Shape" fill="#69B1E9"></path>
        </g>
    </g>
</svg>