<?xml version="1.0" encoding="UTF-8"?>
<svg width="73px" height="73px" viewBox="0 0 73 73" version="1.1" xmlns="http://www.w3.org/2000/svg" xmlns:xlink="http://www.w3.org/1999/xlink">
    <!-- Generator: Sketch 51.3 (57544) - http://www.bohemiancoding.com/sketch -->
    <title>team-collaboration/management/agile-development</title>
    <desc>Created with Sketch.</desc>
    <defs></defs>
    <g id="team-collaboration/management/agile-development" stroke="none" stroke-width="1" fill="none" fill-rule="evenodd">
        <g id="container" transform="translate(2.000000, 2.000000)" fill-rule="nonzero">
            <rect id="mask" stroke="#193C7E" stroke-width="2" fill="#FFFFFF" x="-1" y="-1" width="71" height="71" rx="14"></rect>
            <g id="shoes" transform="translate(6.000000, 11.000000)">
                <path d="M58,36.3415985 L58,39.2656708 C58,40.4334412 57.0539246,41.3781891 55.8879242,41.3781891 L33.0458222,41.3781891 C30.5359345,41.3781891 28.1304779,40.3821105 26.3547059,38.6089936 C23.2580566,35.5132294 17.0554657,29.312851 4.63346866,16.8908539 C3.39135742,15.6491852 2.96743769,13.4154205 4.08343506,12.2994232 L5.2286377,11.155548 L15.8598175,0.523040828 C16.9067841,-0.523483305 18.7400818,0.304000883 18.5431671,1.88639834 L18.4382935,2.71343994 C17.9988861,6.1875458 20.4061127,9.68997187 23.9187164,10.6847228 L31.0195923,11.8963013 C31.6873321,12.0113525 32.2736512,12.3631439 32.6785431,12.8472442 C33.3697357,13.6720733 34.5229034,15.0942841 35.795105,16.852356 C36.3557587,17.626297 36.9380951,18.4648438 37.5146789,19.346756 C39.3209839,22.1084289 40.0604096,23.7425995 40.2493592,24.0665131 C40.9286041,25.232956 42.1729278,25.963089 43.5336304,25.963089 L47.6214904,25.963089 C53.3536987,25.963089 58,30.6093902 58,36.3415985 Z" id="Shape" fill="#91AEE2"></path>
                <path d="M58,36.8858795 L58,39.2656708 C58,40.4334412 57.0539246,41.3781891 55.8879242,41.3781891 L33.0458222,41.3781891 C30.5359345,41.3781891 28.1304779,40.3821105 26.3547059,38.6089936 C23.2580566,35.5132294 17.0554657,29.312851 4.63346866,16.8908539 C3.39135742,15.6491852 2.96743769,13.4154205 4.08343506,12.2994232 L5.2286377,11.155548 C22.5916443,28.5194396 24.6152191,30.5372619 30.2345887,36.156189 C30.9231262,36.8473816 31.5404205,36.8867646 32.1847076,36.8867646 C32.4117127,36.8867646 57.7995453,36.8858795 58,36.8858795 Z" id="Shape" fill="#6990D7"></path>
                <path d="M35.795105,16.852356 L31.5554657,19.300293 L31.3820038,19.400299 C30.0770568,20.1543273 28.4096984,19.706955 27.6561127,18.402008 C26.9034119,17.0983887 27.3498993,15.4301453 28.6544037,14.6774444 L32.3674621,12.5335083 C32.8081971,12.9056549 34.7636261,15.4270478 35.795105,16.852356 Z" id="Shape" fill="#2E5AAC"></path>
                <path d="M40.2493592,24.0665131 L37.0699615,25.9029083 L36.8960571,26.0029145 C35.5924377,26.7556152 33.9241943,26.3091278 33.170166,25.0046234 C32.4179077,23.6996766 32.8652802,22.0323182 34.1688995,21.2787323 L37.5146789,19.346756 C37.7735443,19.7432403 38.0310821,20.1472473 38.28508,20.5587769 C39.5665741,22.6354522 40.0732422,23.7647247 40.2493592,24.0665131 Z" id="Shape" fill="#2E5AAC"></path>
                <path d="M35.795105,16.852356 L31.5554657,19.300293 C31.1828766,19.0706329 30.8611756,18.7493744 30.6270904,18.3435975 C29.8743896,17.039978 30.3204346,15.3717346 31.6253814,14.6190338 L33.3285828,13.635788 C33.9976502,14.4592896 34.8645172,15.5664367 35.795105,16.852356 Z" id="Shape" fill="#4172CC"></path>
                <path d="M40.2493592,24.0665131 L37.0699615,25.9029083 C36.6969299,25.6732482 36.3752289,25.3515473 36.1411437,24.9462128 C35.388443,23.6412658 35.8358154,21.9739074 37.1398773,21.2203217 L38.28508,20.5587769 C39.5665741,22.6354522 40.0732422,23.7647247 40.2493592,24.0665131 Z" id="Shape" fill="#4172CC"></path>
                <g id="Group" transform="translate(0.000000, 23.675781)" fill="#91AEE2">
                    <path d="M3.14576718,7.80622861 C3.14576718,8.28900146 3.5369415,8.68017578 4.01927188,8.68017578 L11.7086792,8.68017578 C12.1914521,8.68017578 12.5826264,8.28900146 12.5826264,7.80622861 C12.5826264,7.32389834 12.1914521,6.93272403 11.7086792,6.93272403 L4.01927188,6.93272403 C3.5369415,6.93272403 3.14576718,7.32389834 3.14576718,7.80622861 Z" id="Shape"></path>
                    <path d="M16.8350982,16.8355408 L6.34950254,16.8355408 C5.86717227,16.8355408 5.47555548,17.226715 5.47555548,17.7094879 C5.47555548,18.1918183 5.86717227,18.5829926 6.34950254,18.5829926 L16.8350982,18.5829926 C17.3174286,18.5829926 17.7090454,18.1918183 17.7090454,17.7094879 C17.7090454,17.226715 17.3174286,16.8355408 16.8350982,16.8355408 Z" id="Shape"></path>
                    <path d="M23.6505585,17.7094879 C23.6505585,17.226715 23.2593842,16.8355408 22.7770538,16.8355408 L20.3304443,16.8355408 C19.8476715,16.8355408 19.4564972,17.226715 19.4564972,17.7094879 C19.4564972,18.1918183 19.8476715,18.5829926 20.3304443,18.5829926 L22.7770538,18.5829926 C23.2593842,18.5829926 23.6505585,18.1918183 23.6505585,17.7094879 Z" id="Shape"></path>
                    <path d="M7.57302851,12.0007324 C7.57302851,11.5179596 7.1818543,11.1267852 6.69908145,11.1267852 L0.873947172,11.1267852 C0.391174316,11.1267852 -8.8817842e-16,11.5179596 -8.8817842e-16,12.0007324 C-8.8817842e-16,12.4830627 0.391174316,12.8742371 0.873947172,12.8742371 L6.69908145,12.8742371 C7.1818543,12.8742371 7.57302851,12.4830627 7.57302851,12.0007324 Z" id="Shape"></path>
                    <path d="M29.4177246,21.0296021 L23.5925903,21.0296021 C23.1098175,21.0296021 22.7186432,21.4207764 22.7186432,21.9035492 C22.7186432,22.3863221 23.1098175,22.7774963 23.5925903,22.7774963 L29.4177246,22.7774963 C29.9000549,22.7774963 30.2916718,22.3863221 30.2916718,21.9035492 C30.2916718,21.4207764 29.9000549,21.0296021 29.4177246,21.0296021 Z" id="Shape"></path>
                    <path d="M2.38819882,1.80630487 L6.58270264,1.80630487 C7.06503302,1.80630487 7.45620722,1.41513067 7.45620722,0.932357816 C7.45620722,0.450027438 7.06503302,0.0588531211 6.58270264,0.0588531211 L2.38819882,0.0588531211 C1.90586856,0.0588531211 1.51469424,0.450027438 1.51469424,0.932357816 C1.51469424,1.41513067 1.90586856,1.80630487 2.38819882,1.80630487 Z" id="Shape"></path>
                </g>
            </g>
        </g>
    </g>
</svg>