<?xml version="1.0" encoding="UTF-8"?>
<svg width="73px" height="73px" viewBox="0 0 73 73" version="1.1" xmlns="http://www.w3.org/2000/svg" xmlns:xlink="http://www.w3.org/1999/xlink">
    <!-- Generator: Sketch 51.3 (57544) - http://www.bohemiancoding.com/sketch -->
    <title>team-collaboration/management/kanban</title>
    <desc>Created with Sketch.</desc>
    <defs></defs>
    <g id="team-collaboration/management/kanban" stroke="none" stroke-width="1" fill="none" fill-rule="evenodd">
        <g id="container" transform="translate(2.000000, 2.000000)" fill="#FFFFFF" fill-rule="nonzero" stroke="#1E1917" stroke-width="2">
            <rect id="mask" x="-1" y="-1" width="71" height="71" rx="14"></rect>
        </g>
        <g id="equalizing-bars" transform="translate(36.500000, 36.500000) rotate(-180.000000) translate(-36.500000, -36.500000) translate(13.000000, 15.000000)" fill="#000000" fill-rule="nonzero">
            <path d="M11.75,33.869 L1.855,33.869 C0.831,33.869 0,34.699 0,35.724 L0,40.671 C0,41.695 0.831,42.525 1.855,42.525 L11.75,42.525 C12.774,42.525 13.605,41.694 13.605,40.671 L13.605,35.724 C13.605,34.699 12.774,33.869 11.75,33.869 Z" id="Shape"></path>
            <path d="M11.75,22.737 L1.855,22.737 C0.831,22.737 0,23.568 0,24.591 L0,29.538 C0,30.563 0.831,31.393 1.855,31.393 L11.75,31.393 C12.774,31.393 13.605,30.563 13.605,29.538 L13.605,24.591 C13.605,23.567 12.774,22.737 11.75,22.737 Z" id="Shape"></path>
            <path d="M11.75,11.605 L1.855,11.605 C0.831,11.605 0,12.435 0,13.46 L0,18.407 C0,19.432 0.831,20.262 1.855,20.262 L11.75,20.262 C12.774,20.262 13.605,19.431 13.605,18.407 L13.605,13.46 C13.605,12.436 12.774,11.605 11.75,11.605 Z" id="Shape"></path>
            <path d="M28.447,33.869 L18.551,33.869 C17.527,33.869 16.696,34.699 16.696,35.724 L16.696,40.671 C16.696,41.695 17.527,42.525 18.551,42.525 L28.447,42.525 C29.47,42.525 30.301,41.694 30.301,40.671 L30.301,35.724 C30.303,34.699 29.473,33.869 28.447,33.869 Z" id="Shape"></path>
            <path d="M28.447,22.737 L18.551,22.737 C17.527,22.737 16.696,23.568 16.696,24.591 L16.696,29.538 C16.696,30.563 17.527,31.393 18.551,31.393 L28.447,31.393 C29.47,31.393 30.301,30.563 30.301,29.538 L30.301,24.591 C30.303,23.567 29.473,22.737 28.447,22.737 Z" id="Shape"></path>
            <path d="M45.145,33.869 L35.25,33.869 C34.227,33.869 33.395,34.699 33.395,35.724 L33.395,40.671 C33.395,41.695 34.227,42.525 35.25,42.525 L45.145,42.525 C46.169,42.525 47,41.694 47,40.671 L47,35.724 C47,34.699 46.169,33.869 45.145,33.869 Z" id="Shape"></path>
            <path d="M45.145,22.737 L35.25,22.737 C34.227,22.737 33.395,23.568 33.395,24.591 L33.395,29.538 C33.395,30.563 34.227,31.393 35.25,31.393 L45.145,31.393 C46.169,31.393 47,30.563 47,29.538 L47,24.591 C47,23.567 46.169,22.737 45.145,22.737 Z" id="Shape"></path>
            <path d="M45.145,11.605 L35.25,11.605 C34.227,11.605 33.395,12.435 33.395,13.46 L33.395,18.407 C33.395,19.432 34.227,20.262 35.25,20.262 L45.145,20.262 C46.169,20.262 47,19.431 47,18.407 L47,13.46 C47,12.436 46.169,11.605 45.145,11.605 Z" id="Shape"></path>
            <path d="M45.145,0.474 L35.25,0.474 C34.227,0.474 33.395,1.305 33.395,2.329 L33.395,7.276 C33.395,8.301 34.227,9.131 35.25,9.131 L45.145,9.131 C46.169,9.131 47,8.301 47,7.276 L47,2.329 C47,1.304 46.169,0.474 45.145,0.474 Z" id="Shape"></path>
        </g>
    </g>
</svg>