<?xml version="1.0" encoding="UTF-8"?>
<svg width="73px" height="73px" viewBox="0 0 73 73" version="1.1" xmlns="http://www.w3.org/2000/svg" xmlns:xlink="http://www.w3.org/1999/xlink">
    <!-- Generator: Sketch 51.3 (57544) - http://www.bohemiancoding.com/sketch -->
    <title>team-collaboration/management/scrum</title>
    <desc>Created with Sketch.</desc>
    <defs></defs>
    <g id="team-collaboration/management/scrum" stroke="none" stroke-width="1" fill="none" fill-rule="evenodd">
        <g id="container" transform="translate(2.000000, 2.000000)" fill="#FFFFFF" fill-rule="nonzero" stroke="#6F2502" stroke-width="2">
            <rect id="mask" x="-1" y="-1" width="71" height="71" rx="14"></rect>
        </g>
        <g id="time" transform="translate(11.000000, 11.000000)" fill-rule="nonzero">
            <path d="M25.5,8.96484375 C16.4451966,8.96484375 8.96484375,16.4451966 8.96484375,25.5 C8.96484375,34.5544922 16.4451966,42.0351562 25.5,42.0351562 C34.5548034,42.0351562 42.0351562,34.5544922 42.0351562,25.5 C42.0351562,16.4451966 34.5548034,8.96484375 25.5,8.96484375 Z" id="Shape" fill="#7ED8F6"></path>
            <path d="M42.0351562,25.5 C42.0351562,34.5544922 34.5548034,42.0351562 25.5,42.0351562 L25.5,8.96484375 C34.5548034,8.96484375 42.0351562,16.4451966 42.0351562,25.5 Z" id="Shape" fill="#6AA9FF"></path>
            <path d="M51,25.5 C51,31.2371887 49.0277344,36.9849609 45.4119141,41.4673828 L43.0810547,39.6146484 C46.3083984,35.5804688 48.0117188,30.6395325 48.0117188,25.5 C48.0117188,13.1285156 37.8714844,2.98828125 25.5,2.98828125 C13.1285156,2.98828125 2.98828125,13.1285156 2.98828125,25.5 C2.98828125,37.8714844 13.1285156,48.0117188 25.5,48.0117188 C29.4445313,48.0117188 33.2994141,46.9658203 36.7060547,44.9935547 L38.2001953,47.5933594 C34.3453125,49.8345703 29.9525391,51 25.5,51 C11.4849609,51 0,39.5150391 0,25.5 C0,11.4849609 11.4849609,0 25.5,0 C39.5150391,0 51,11.4849609 51,25.5 Z" id="Shape" fill="#FF9100"></path>
            <g id="Group" transform="translate(25.500000, 0.000000)" fill="#FF641A">
                <path d="M11.2060547,44.9935547 L12.7001953,47.5933594 C8.8453125,49.8345703 4.45253906,51 0,51 L0,48.0117187 C3.94453125,48.0117187 7.79941406,46.9658203 11.2060547,44.9935547 Z" id="Shape"></path>
                <path d="M25.5,25.5 C25.5,31.2371887 23.5277344,36.9849609 19.9119141,41.4673828 L17.5810547,39.6146484 C20.8083984,35.5804687 22.5117188,30.6395325 22.5117188,25.5 C22.5117188,13.1285156 12.3714844,2.98828125 0,2.98828125 L0,0 C14.0150391,0 25.5,11.4849609 25.5,25.5 Z" id="Shape"></path>
                <polygon id="Shape" points="25.5 42.0351562 16.5351562 42.0351562 16.5351562 33.0703125 19.5234375 33.0703125 19.5234375 39.046875 25.5 39.046875"></polygon>
            </g>
        </g>
    </g>
</svg>