<?xml version="1.0" encoding="UTF-8"?>
<svg width="73px" height="73px" viewBox="0 0 73 73" version="1.1" xmlns="http://www.w3.org/2000/svg" xmlns:xlink="http://www.w3.org/1999/xlink">
    <!-- Generator: Sketch 51.3 (57544) - http://www.bohemiancoding.com/sketch -->
    <title>team-collaboration/management/waterfall-development</title>
    <desc>Created with Sketch.</desc>
    <defs>
        <rect id="path-1" x="0" y="0" width="69" height="69" rx="14"></rect>
    </defs>
    <g id="team-collaboration/management/waterfall-development" stroke="none" stroke-width="1" fill="none" fill-rule="evenodd">
        <g id="container" transform="translate(2.000000, 2.000000)">
            <rect id="mask" stroke="#16161D" stroke-width="2" fill="#FFFFFF" fill-rule="nonzero" x="-1" y="-1" width="71" height="71" rx="14"></rect>
            <mask id="mask-2" fill="white">
                <use xlink:href="#path-1"></use>
            </mask>
            <rect stroke="#16161D" stroke-width="2" x="-1" y="-1" width="71" height="71" rx="14"></rect>
            <g id="waterfalls" mask="url(#mask-2)">
                <g transform="translate(-5.000000, 7.000000)">
                    <polygon id="Shape" fill="#76E2F8" fill-rule="nonzero" points="28.09 3.06691406 51.91 3.06691406 51.91 19.7675391 28.09 19.7675391"></polygon>
                    <polygon id="Shape" fill="#00C0F1" fill-rule="nonzero" points="40 3.06691406 51.91 3.06691406 51.91 19.7675391 40 19.7675391"></polygon>
                    <path d="M24.1849609,0.0866015625 L0,0.0866015625 L0,19.7675391 L32.8125391,19.7675391 L32.8125391,8.71417969 C32.8125391,3.95695312 28.9421875,0.0866015625 24.1849609,0.0866015625 Z" id="Shape" fill="#725D57" fill-rule="nonzero"></path>
                    <path d="M55.8150391,0.0866015625 C51.0576953,0.0866015625 47.1874609,3.95695312 47.1874609,8.71417969 L47.1874609,19.7675391 L70,19.7675391 L70,0.0866015625 L55.8150391,0.0866015625 Z" id="Shape" fill="#725D57" fill-rule="nonzero"></path>
                    <path d="M55.8150391,0.0866015625 C51.0576953,0.0866015625 47.1874609,3.95695312 47.1874609,8.71417969 L47.1874609,19.7675391 L80,19.7675391 L80,0.0866015625 L55.8150391,0.0866015625 Z" id="Shape" fill="#504541" fill-rule="nonzero"></path>
                    <polygon id="Shape" fill="#B2F1FA" fill-rule="nonzero" points="24.5741406 16.2519141 55.4258594 16.2519141 55.4258594 41.3969531 24.5741406 41.3969531"></polygon>
                    <polygon id="Shape" fill="#76E2F8" fill-rule="nonzero" points="40 16.2519141 55.4258594 16.2519141 55.4258594 41.3969531 40 41.3969531"></polygon>
                    <path d="M20.6691016,13.2714844 L1.77635684e-15,13.2714844 L1.77635684e-15,41.3968359 L29.2966797,41.3968359 L29.2966797,21.8991797 C29.2966797,17.1418359 25.4263281,13.2714844 20.6691016,13.2714844 Z" id="Shape" fill="#504541" fill-rule="nonzero"></path>
                    <path d="M59.3308984,13.2714844 C54.5735547,13.2714844 50.7033203,17.1418359 50.7033203,21.8990625 L50.7033203,41.3968359 L70,41.3968359 L70,13.2714844 L59.3308984,13.2714844 Z" id="Shape" fill="#504541" fill-rule="nonzero"></path>
                    <path d="M59.3308984,13.2714844 C54.5735547,13.2714844 50.7033203,17.1418359 50.7033203,21.8990625 L50.7033203,41.3968359 L80,41.3968359 L80,13.2714844 L59.3308984,13.2714844 Z" id="Shape" fill="#3D3532" fill-rule="nonzero"></path>
                    <polygon id="Shape" fill="#76E2F8" fill-rule="nonzero" points="0 37.8812109 80 37.8812109 80 65.4602734 0 65.4602734"></polygon>
                    <polygon id="Shape" fill="#00C0F1" fill-rule="nonzero" points="40 37.8812109 80 37.8812109 80 65.4602734 40 65.4602734"></polygon>
                    <polygon id="Shape" fill="#B2F1FA" fill-rule="nonzero" points="61.4067578 44.9129297 70 44.9129297 70 48.4285547 61.4067578 48.4285547"></polygon>
                    <polygon id="Shape" fill="#B2F1FA" fill-rule="nonzero" points="0 44.9129297 15.0773828 44.9129297 15.0773828 48.4285547 0 48.4285547"></polygon>
                    <polygon id="Shape" fill="#B2F1FA" fill-rule="nonzero" points="20.7029688 44.9129297 55.9376172 44.9129297 55.9376172 48.4285547 20.7029688 48.4285547"></polygon>
                    <g id="Group" stroke-width="1" fill="none" fill-rule="evenodd" transform="translate(33.437500, 23.437500)">
                        <polygon id="Shape" fill="#76E2F8" fill-rule="nonzero" points="0.116953125 0.080390625 3.63257812 0.080390625 3.63257812 6.82652344 0.116953125 6.82652344"></polygon>
                        <polygon id="Shape" fill="#76E2F8" fill-rule="nonzero" points="9.49253906 6.29167969 13.0081641 6.29167969 13.0081641 11.5142578 9.49253906 11.5142578"></polygon>
                        <polygon id="Shape" fill="#76E2F8" fill-rule="nonzero" points="27.9692578 21.4754297 46.5625 21.4754297 46.5625 24.9910547 27.9692578 24.9910547"></polygon>
                    </g>
                    <polygon id="Shape" fill="#00C0F1" fill-rule="nonzero" points="42.9300391 29.7291797 46.4456641 29.7291797 46.4456641 34.9517578 42.9300391 34.9517578"></polygon>
                    <polygon id="Shape" fill="#76E2F8" fill-rule="nonzero" points="40 44.9129297 55.9376172 44.9129297 55.9376172 48.4285547 40 48.4285547"></polygon>
                    <polygon id="Shape" fill="#B2F1FA" fill-rule="nonzero" points="3 52.9129297 18.0773828 52.9129297 18.0773828 56.4285547 3 56.4285547"></polygon>
                    <polygon id="Shape" fill="#B2F1FA" fill-rule="nonzero" points="23.7029688 52.9129297 58.9376172 52.9129297 58.9376172 56.4285547 23.7029688 56.4285547"></polygon>
                    <polygon id="Shape" fill="#76E2F8" fill-rule="nonzero" points="64.4067578 52.9129297 83 52.9129297 83 56.4285547 64.4067578 56.4285547"></polygon>
                    <polygon id="Shape" fill="#76E2F8" fill-rule="nonzero" points="43 52.9129297 58.9376172 52.9129297 58.9376172 56.4285547 43 56.4285547"></polygon>
                </g>
            </g>
        </g>
    </g>
</svg>