<?xml version="1.0" encoding="UTF-8"?>
<svg width="300px" height="300px" viewBox="0 0 300 300" version="1.1" xmlns="http://www.w3.org/2000/svg" xmlns:xlink="http://www.w3.org/1999/xlink">
    <!-- Generator: Sketch 51.3 (57544) - http://www.bohemiancoding.com/sketch -->
    <title>icon</title>
    <desc>Created with Sketch.</desc>
    <defs></defs>
    <g id="icon" stroke="none" stroke-width="1" fill="none" fill-rule="evenodd">
        <circle id="Oval" fill="#FFFFFF" fill-rule="nonzero" cx="150" cy="150" r="150"></circle>
        <g id="business-and-finance-(3)" transform="translate(45.000000, 73.000000)" fill-rule="nonzero">
            <polygon id="Shape" fill="#49CB5C" points="209.934343 62.4129129 192.91264 62.4129129 192.91264 34.043407 175.890936 34.043407 175.890936 17.0217035 124.825826 17.0217035 124.825826 0 68.0868141 0 68.0868141 17.0217035 34.043407 17.0217035 34.043407 34.043407 17.0217035 34.043407 17.0217035 62.4129129 0 62.4129129 0 113.478023 17.0217035 113.478023 17.0217035 136.173628 62.4129129 136.173628 62.4129129 153.195332 153.195332 153.195332 153.195332 130.499727 192.91264 130.499727 192.91264 113.478023 209.934343 113.478023"></polygon>
            <g id="Group" transform="translate(17.021704, 0.000000)" fill="#028F5D">
                <polygon id="Shape" points="119.151925 130.499727 136.173628 130.499727 136.173628 153.195332 119.151925 153.195332"></polygon>
                <polygon id="Shape" points="158.869233 113.478023 175.890936 113.478023 175.890936 130.499727 158.869233 130.499727"></polygon>
                <polygon id="Shape" points="90.7824188 0 107.804122 0 107.804122 17.0217035 90.7824188 17.0217035"></polygon>
                <polygon id="Shape" points="175.890936 62.4129129 192.91264 62.4129129 192.91264 113.478023 175.890936 113.478023"></polygon>
                <polygon id="Shape" points="141.847529 17.0217035 158.869233 17.0217035 158.869233 34.043407 141.847529 34.043407"></polygon>
                <polygon id="Shape" points="158.869233 34.043407 175.890936 34.043407 175.890936 62.4129129 158.869233 62.4129129"></polygon>
                <path d="M51.0651106,136.173628 L39.7173082,136.173628 L39.7173082,102.130221 C39.7173082,98.996612 42.2576003,96.45632 45.3912094,96.45632 L102.130221,96.45632 C105.26383,96.45632 107.804122,98.996612 107.804122,102.130221 L107.804122,124.825826 L96.45632,124.825826 L96.45632,107.804122 L51.0651106,107.804122 L51.0651106,136.173628 Z" id="Shape"></path>
                <polygon id="Shape" points="0 107.804122 22.6956047 107.804122 22.6956047 119.151925 0 119.151925"></polygon>
                <path d="M39.7173082,85.1085176 L17.0217035,85.1085176 C13.8880944,85.1085176 11.3478023,82.5682255 11.3478023,79.4346164 L11.3478023,68.0868141 L0,68.0868141 L0,56.7390117 L17.0217035,56.7390117 C20.1553126,56.7390117 22.6956047,59.2793038 22.6956047,62.4129129 L22.6956047,73.7607153 L39.7173082,73.7607153 L39.7173082,85.1085176 Z" id="Shape"></path>
                <path d="M79.4346164,102.130221 L68.0868141,102.130221 L68.0868141,68.0868141 C68.0868141,64.953205 70.6271062,62.4129129 73.7607153,62.4129129 L102.130221,62.4129129 L102.130221,39.7173082 C102.130221,36.5836991 104.670513,34.043407 107.804122,34.043407 L124.825826,34.043407 L124.825826,45.3912094 L113.478023,45.3912094 L113.478023,68.0868141 C113.478023,71.2204232 110.937731,73.7607153 107.804122,73.7607153 L79.4346164,73.7607153 L79.4346164,102.130221 Z" id="Shape"></path>
                <path d="M79.4346164,51.0651106 L39.7173082,51.0651106 C36.5836991,51.0651106 34.043407,48.5248185 34.043407,45.3912094 L34.043407,17.0217035 L45.3912094,17.0217035 L45.3912094,39.7173082 L73.7607153,39.7173082 L73.7607153,28.3695059 L85.1085176,28.3695059 L85.1085176,45.3912094 C85.1085176,48.5248185 82.5682255,51.0651106 79.4346164,51.0651106 Z" id="Shape"></path>
                <path d="M158.869233,107.804122 L130.499727,107.804122 C127.366118,107.804122 124.825826,105.26383 124.825826,102.130221 L124.825826,62.4129129 C124.825826,59.2793038 127.366118,56.7390117 130.499727,56.7390117 L175.890936,56.7390117 L175.890936,68.0868141 L136.173628,68.0868141 L136.173628,96.45632 L153.195332,96.45632 L153.195332,85.1085176 L164.543134,85.1085176 L164.543134,102.130221 C164.543134,105.26383 162.002842,107.804122 158.869233,107.804122 Z" id="Shape"></path>
            </g>
        </g>
    </g>
</svg>