<?xml version="1.0" encoding="UTF-8"?>
<svg width="300px" height="300px" viewBox="0 0 300 300" version="1.1" xmlns="http://www.w3.org/2000/svg" xmlns:xlink="http://www.w3.org/1999/xlink">
    <!-- Generator: Sketch 51.3 (57544) - http://www.bohemiancoding.com/sketch -->
    <title>icon</title>
    <desc>Created with Sketch.</desc>
    <defs></defs>
    <g id="icon" stroke="none" stroke-width="1" fill="none" fill-rule="evenodd">
        <g id="business-and-finance-(3)" transform="translate(0.000000, 40.000000)" fill-rule="nonzero">
            <polygon id="Shape" fill="#49CB5C" points="300.474747 89.3303303 276.11193 89.3303303 276.11193 48.7256347 251.749113 48.7256347 251.749113 24.3628174 178.660661 24.3628174 178.660661 0 97.4512695 0 97.4512695 24.3628174 48.7256347 24.3628174 48.7256347 48.7256347 24.3628174 48.7256347 24.3628174 89.3303303 0 89.3303303 0 162.418782 24.3628174 162.418782 24.3628174 194.902539 89.3303303 194.902539 89.3303303 219.265356 219.265356 219.265356 219.265356 186.7816 276.11193 186.7816 276.11193 162.418782 300.474747 162.418782"></polygon>
            <g id="Group" transform="translate(24.362817, 0.000000)" fill="#028F5D">
                <polygon id="Shape" points="170.539722 186.7816 194.902539 186.7816 194.902539 219.265356 170.539722 219.265356"></polygon>
                <polygon id="Shape" points="227.386295 162.418782 251.749113 162.418782 251.749113 186.7816 227.386295 186.7816"></polygon>
                <polygon id="Shape" points="129.935026 0 154.297843 0 154.297843 24.3628174 129.935026 24.3628174"></polygon>
                <polygon id="Shape" points="251.749113 89.3303303 276.11193 89.3303303 276.11193 162.418782 251.749113 162.418782"></polygon>
                <polygon id="Shape" points="203.023478 24.3628174 227.386295 24.3628174 227.386295 48.7256347 203.023478 48.7256347"></polygon>
                <polygon id="Shape" points="227.386295 48.7256347 251.749113 48.7256347 251.749113 89.3303303 227.386295 89.3303303"></polygon>
                <path d="M73.0884521,194.902539 L56.8465738,194.902539 L56.8465738,146.176904 C56.8465738,141.691833 60.4824421,138.055965 64.967513,138.055965 L146.176904,138.055965 C150.661975,138.055965 154.297843,141.691833 154.297843,146.176904 L154.297843,178.660661 L138.055965,178.660661 L138.055965,154.297843 L73.0884521,154.297843 L73.0884521,194.902539 Z" id="Shape"></path>
                <polygon id="Shape" points="0 154.297843 32.4837565 154.297843 32.4837565 170.539722 0 170.539722"></polygon>
                <path d="M56.8465738,121.814087 L24.3628174,121.814087 C19.8777465,121.814087 16.2418782,118.178219 16.2418782,113.693148 L16.2418782,97.4512695 L0,97.4512695 L0,81.2093912 L24.3628174,81.2093912 C28.8478882,81.2093912 32.4837565,84.8452595 32.4837565,89.3303303 L32.4837565,105.572209 L56.8465738,105.572209 L56.8465738,121.814087 Z" id="Shape"></path>
                <path d="M113.693148,146.176904 L97.4512695,146.176904 L97.4512695,97.4512695 C97.4512695,92.9661986 101.087138,89.3303303 105.572209,89.3303303 L146.176904,89.3303303 L146.176904,56.8465738 C146.176904,52.361503 149.812772,48.7256347 154.297843,48.7256347 L178.660661,48.7256347 L178.660661,64.967513 L162.418782,64.967513 L162.418782,97.4512695 C162.418782,101.93634 158.782914,105.572209 154.297843,105.572209 L113.693148,105.572209 L113.693148,146.176904 Z" id="Shape"></path>
                <path d="M113.693148,73.0884521 L56.8465738,73.0884521 C52.361503,73.0884521 48.7256347,69.4525838 48.7256347,64.967513 L48.7256347,24.3628174 L64.967513,24.3628174 L64.967513,56.8465738 L105.572209,56.8465738 L105.572209,40.6046956 L121.814087,40.6046956 L121.814087,64.967513 C121.814087,69.4525838 118.178219,73.0884521 113.693148,73.0884521 Z" id="Shape"></path>
                <path d="M227.386295,154.297843 L186.7816,154.297843 C182.296529,154.297843 178.660661,150.661975 178.660661,146.176904 L178.660661,89.3303303 C178.660661,84.8452595 182.296529,81.2093912 186.7816,81.2093912 L251.749113,81.2093912 L251.749113,97.4512695 L194.902539,97.4512695 L194.902539,138.055965 L219.265356,138.055965 L219.265356,121.814087 L235.507235,121.814087 L235.507235,146.176904 C235.507235,150.661975 231.871366,154.297843 227.386295,154.297843 Z" id="Shape"></path>
            </g>
        </g>
    </g>
</svg>