<?xml version="1.0" encoding="UTF-8"?>
<svg width="73px" height="73px" viewBox="0 0 73 73" version="1.1" xmlns="http://www.w3.org/2000/svg" xmlns:xlink="http://www.w3.org/1999/xlink">
    <!-- Generator: Sketch 51.3 (57544) - http://www.bohemiancoding.com/sketch -->
    <title>fundamentals/the-browser/blink</title>
    <desc>Created with Sketch.</desc>
    <defs></defs>
    <g id="fundamentals/the-browser/blink" stroke="none" stroke-width="1" fill="none" fill-rule="evenodd">
        <g id="container" transform="translate(2.000000, 2.000000)" fill="#FFFFFF" fill-rule="nonzero" stroke="#2D7B2F" stroke-width="2">
            <rect id="mask" x="-1" y="-1" width="71" height="71" rx="14"></rect>
        </g>
        <g id="chrome" transform="translate(12.000000, 12.000000)" fill-rule="nonzero">
            <path d="M5.90464327,8.52046004 C17.2718791,-4.70820273 38.3497115,-2.09792593 46.2263899,13.3558908 C40.6787875,13.3589474 31.9951852,13.3528343 27.2911852,13.3558908 C23.8800975,13.3558908 21.6763392,13.2794776 19.2922456,14.5357115 C16.4894074,16.0120156 14.371232,18.7476101 13.6346082,21.9630799 L5.90464327,8.52046004 Z" id="Shape" fill="#F44336"></path>
            <path d="M16.3182417,24.454152 C16.3182417,28.9380819 19.9646823,32.5845224 24.4455556,32.5845224 C28.9264288,32.5845224 32.5728694,28.9380819 32.5728694,24.454152 C32.5728694,19.9702222 28.9264288,16.3237817 24.4455556,16.3237817 C19.9616257,16.3207251 16.3182417,19.9702222 16.3182417,24.454152 Z" id="Shape" fill="#2196F3"></path>
            <path d="M27.5968382,35.0969903 C23.0364951,36.4510331 17.6967368,34.9502768 14.774694,29.9008889 C12.5434269,26.0496608 6.64432359,15.7766628 3.96680312,11.1032281 C-5.4228577,25.4933723 2.66777778,45.1010136 19.7109903,48.4479142 L27.5968382,35.0969903 Z" id="Shape" fill="#4CAF50"></path>
            <path d="M31.9921287,16.3207251 C35.7913957,19.8540741 36.6197154,25.5758986 34.046117,30.010924 C32.1082768,33.354768 25.9188031,43.7989318 22.920347,48.8544327 C40.4801131,49.9364444 53.2808616,32.7281793 47.4979064,16.3176686 L31.9921287,16.3207251 Z" id="Shape" fill="#FFC107"></path>
        </g>
    </g>
</svg>