<?xml version="1.0" encoding="UTF-8"?>
<svg width="73px" height="73px" viewBox="0 0 73 73" version="1.1" xmlns="http://www.w3.org/2000/svg" xmlns:xlink="http://www.w3.org/1999/xlink">
    <!-- Generator: Sketch 51.3 (57544) - http://www.bohemiancoding.com/sketch -->
    <title>fundamentals/the-browser/browser-engines</title>
    <desc>Created with Sketch.</desc>
    <defs>
        <rect id="path-1" x="0" y="0" width="69" height="69" rx="14"></rect>
    </defs>
    <g id="fundamentals/the-browser/browser-engines" stroke="none" stroke-width="1" fill="none" fill-rule="evenodd">
        <g id="container" transform="translate(2.000000, 2.000000)">
            <rect id="mask" stroke="#000000" stroke-width="2" fill="#FFFFFF" fill-rule="nonzero" x="-1" y="-1" width="71" height="71" rx="14"></rect>
            <g id="crankshaft">
                <mask id="mask-2" fill="white">
                    <use xlink:href="#path-1"></use>
                </mask>
                <rect stroke="#000000" stroke-width="2" x="-1" y="-1" width="71" height="71" rx="14"></rect>
                <g mask="url(#mask-2)" fill-rule="nonzero">
                    <path d="M39.0077419,47.1367742 L36.5806452,44.7096774 L27.2903226,35.4193548 L25.3509677,33.48 C24.7354839,32.8645161 23.8993548,32.516129 23.0283871,32.516129 C22.1225806,32.516129 21.2980645,32.8877419 20.7058065,33.48 C20.1135484,34.0722581 19.7419355,34.8967742 19.7419355,35.8025806 C19.7419355,36.6735484 20.0903226,37.5096774 20.7058065,38.1251613 L31.9354839,49.3548387 L27.2903226,54 L16.0606452,42.7703226 C15.4451613,42.1548387 14.6090323,41.8064516 13.7380645,41.8064516 C12.8322581,41.8064516 12.0077419,42.1780645 11.4154839,42.7703226 C10.8232258,43.3625806 10.4516129,44.1870968 10.4516129,45.0929032 C10.4516129,45.963871 10.8,46.8 11.4154839,47.4154839 L13.3548387,49.3548387 L22.6451613,58.6451613 L25.0722581,61.0722581 C26.1174194,62.1174194 27.5458065,62.7096774 29.0322581,62.7096774 C30.5187097,62.7096774 31.9470968,62.1174194 32.9922581,61.0722581 L33.6774194,60.3870968 L38.3225806,55.7419355 L39.0077419,55.0567742 C40.0529032,54.0116129 40.6451613,52.5832258 40.6451613,51.0967742 C40.6451613,49.6103226 40.0529032,48.1819355 39.0077419,47.1367742 Z" id="Shape" fill="#969FAA"></path>
                    <path d="M60.5845161,24.5845161 L58.6451613,22.6451613 L49.3548387,13.3548387 L46.9277419,10.9277419 C45.8825806,9.88258065 44.4541935,9.29032258 42.9677419,9.29032258 C41.4812903,9.29032258 40.0529032,9.88258065 39.0077419,10.9277419 L38.3225806,11.6129032 L33.6774194,16.2580645 L32.9922581,16.9432258 C31.9470968,17.9883871 31.3548387,19.4167742 31.3548387,20.9032258 C31.3548387,22.3896774 31.9470968,23.8180645 32.9922581,24.8632258 L35.4193548,27.2903226 L44.7096774,36.5806452 L46.6490323,38.52 C47.2645161,39.1354839 48.1006452,39.483871 48.9716129,39.483871 C49.8774194,39.483871 50.7019355,39.1122581 51.2941935,38.52 C51.8864516,37.9277419 52.2580645,37.1032258 52.2580645,36.1974194 C52.2580645,35.3264516 51.9096774,34.4903226 51.2941935,33.8748387 L40.0645161,22.6451613 L44.7096774,18 L55.9393548,29.2296774 C56.5548387,29.8451613 57.3909677,30.1935484 58.2619355,30.1935484 C59.1677419,30.1935484 59.9922581,29.8219355 60.5845161,29.2296774 C61.1767742,28.6374194 61.5483871,27.8129032 61.5483871,26.9070968 C61.5483871,26.036129 61.2,25.2 60.5845161,24.5845161 Z" id="Shape" fill="#969FAA"></path>
                    <g id="Group" transform="translate(8.129032, 4.645161)" fill="#FFEAA7">
                        <polygon id="Shape" points="55.7651613 8.10580645 58.0877419 10.4283871 50.516129 18 41.2258065 8.70967742 48.7974194 1.13806452 51.12 3.46064516"></polygon>
                        <polygon id="Shape" transform="translate(27.862428, 31.355249) rotate(-45.000000) translate(-27.862428, -31.355249) " points="22.1154897 24.7868219 33.6093667 24.7868219 33.6093667 37.9236765 22.1154897 37.9236765"></polygon>
                        <polygon id="Shape" points="14.516129 54 9.29032258 59.2258065 6.96774194 56.9032258 2.32258065 52.2580645 0 49.9354839 5.22580645 44.7096774"></polygon>
                    </g>
                    <path d="M15.0967742,61.5483871 L5.80645161,70.8387097 C4.52903226,70.8387097 3.36774194,70.316129 2.52,69.48 C1.68387097,68.6322581 1.16129032,67.4709677 1.16129032,66.1935484 L10.4516129,56.9032258 L15.0967742,61.5483871 Z" id="Shape" fill="#969FAA"></path>
                    <path d="M70.8387097,5.80645161 L63.8941935,12.7509677 L59.2490323,8.10580645 L66.1935484,1.16129032 C67.4709677,1.16129032 68.6322581,1.68387097 69.48,2.52 C70.316129,3.36774194 70.8387097,4.52903226 70.8387097,5.80645161 Z" id="Shape" fill="#969FAA"></path>
                    <path d="M72,5.80645161 C72,2.60477419 69.3952258,0 66.1935484,0 L65.7127742,0 L59.2525161,6.46025806 L56.9299355,4.13767742 L49.3548387,11.7127742 L47.7534194,10.1113548 C46.476,8.83277419 44.775871,8.12903226 42.9677419,8.12903226 C41.1596129,8.12903226 39.4594839,8.83277419 38.1820645,10.1113548 L32.175871,16.1175484 C30.8972903,17.3949677 30.1935484,19.0950968 30.1935484,20.9032258 C30.1935484,22.7113548 30.8972903,24.4114839 32.175871,25.6889032 L33.7772903,27.2903226 L27.2903226,33.7772903 L26.1708387,32.6578065 C25.3300645,31.8170323 24.2140645,31.3548387 23.0272258,31.3548387 C20.5745806,31.3548387 18.5806452,33.3487742 18.5806452,35.8014194 C18.5806452,36.9882581 19.0428387,38.1054194 19.8836129,38.9450323 L30.2934194,49.3548387 L27.2903226,52.3579355 L16.8805161,41.948129 C16.0397419,41.1073548 14.9237419,40.6451613 13.7369032,40.6451613 C11.2842581,40.6451613 9.29032258,42.6390968 9.29032258,45.0917419 C9.29032258,46.2785806 9.75251613,47.3957419 10.5932903,48.2353548 L11.7127742,49.3548387 L6.48696774,54.5806452 L8.80954839,56.9032258 L0,65.7127742 L0,66.1935484 C0,69.3952258 2.60477419,72 5.80645161,72 L6.28722581,72 L15.0967742,63.1904516 L17.4193548,65.5130323 L22.6451613,60.2872258 L24.2465806,61.8886452 C25.524,63.1672258 27.224129,63.8709677 29.0322581,63.8709677 C30.8403871,63.8709677 32.5405161,63.1672258 33.8179355,61.8886452 L39.824129,55.8824516 C41.1027097,54.6050323 41.8064516,52.9049032 41.8064516,51.0967742 C41.8064516,49.2886452 41.1027097,47.5885161 39.824129,46.3110968 L38.2227097,44.7096774 L44.7096774,38.2227097 L45.8291613,39.3421935 C46.6699355,40.1829677 47.7859355,40.6451613 48.9727742,40.6451613 C51.4254194,40.6451613 53.4193548,38.6512258 53.4193548,36.1985806 C53.4193548,35.0117419 52.9571613,33.8945806 52.1163871,33.0549677 L41.7065806,22.6451613 L44.7096774,19.6420645 L55.1194839,30.051871 C55.9602581,30.8926452 57.0762581,31.3548387 58.2630968,31.3548387 C60.7157419,31.3548387 62.7096774,29.3609032 62.7096774,26.9082581 C62.7096774,25.7214194 62.2474839,24.6042581 61.4067097,23.7646452 L60.2872258,22.6451613 L67.8623226,15.0700645 L65.5397419,12.7474839 L72,6.28722581 L72,5.80645161 Z M5.35470968,69.6483871 C3.79393548,69.4451613 2.55483871,68.2060645 2.3516129,66.6452903 L10.4516129,58.5452903 L13.4547097,61.5483871 L5.35470968,69.6483871 Z M17.4193548,62.2289032 L9.77109677,54.5806452 L13.3548387,50.9969032 L21.0030968,58.6451613 L17.4193548,62.2289032 Z M25.8886452,60.2465806 L12.2353548,46.5932903 C11.8335484,46.1914839 11.6129032,45.6584516 11.6129032,45.0917419 C11.6129032,43.92 12.5651613,42.9677419 13.7369032,42.9677419 C14.3036129,42.9677419 14.8366452,43.1883871 15.2384516,43.5901935 L32.031871,60.3847742 C30.3410323,61.9316129 27.5202581,61.8781935 25.8886452,60.2465806 Z M33.6774194,58.7450323 L28.9323871,54 L31.9354839,50.9969032 L36.6805161,55.7419355 L33.6774194,58.7450323 Z M38.3202581,54.0963871 L21.5256774,37.3029677 C21.123871,36.9011613 20.9032258,36.368129 20.9032258,35.8014194 C20.9032258,34.6296774 21.8554839,33.6774194 23.0272258,33.6774194 C23.5939355,33.6774194 24.1269677,33.8980645 24.5287742,34.299871 L38.1820645,47.9531613 C39.0216774,48.7927742 39.483871,49.9099355 39.483871,51.0967742 C39.483871,52.2174194 39.0716129,53.2753548 38.3202581,54.0963871 Z M36.5806452,43.0676129 L28.9323871,35.4193548 L35.4193548,28.9323871 L43.0676129,36.5806452 L36.5806452,43.0676129 Z M51.0967742,36.1985806 C51.0967742,37.3703226 50.1445161,38.3225806 48.9727742,38.3225806 C48.4060645,38.3225806 47.8730323,38.1019355 47.4712258,37.700129 L33.8179355,24.0468387 C32.9783226,23.2072258 32.516129,22.0900645 32.516129,20.9032258 C32.516129,19.7825806 32.9283871,18.7246452 33.6797419,17.9036129 L50.4743226,34.6970323 C50.876129,35.0988387 51.0967742,35.631871 51.0967742,36.1985806 Z M40.0645161,21.0030968 L35.3194839,16.2580645 L38.3225806,13.2549677 L43.0676129,18 L40.0645161,21.0030968 Z M58.2630968,29.0322581 C57.6963871,29.0322581 57.1633548,28.8116129 56.7615484,28.4098065 L39.968129,11.6152258 C41.6589677,10.0660645 44.4785806,10.1206452 46.1113548,11.7534194 L59.7646452,25.4067097 C60.1664516,25.8085161 60.3870968,26.3415484 60.3870968,26.9082581 C60.3870968,28.08 59.4348387,29.0322581 58.2630968,29.0322581 Z M58.6451613,21.0030968 L50.9969032,13.3548387 L56.9299355,7.42180645 L64.5781935,15.0700645 L58.6451613,21.0030968 Z M63.8976774,11.1054194 L60.8945806,8.10232258 L66.6452903,2.3516129 C68.2060645,2.55483871 69.4451613,3.79393548 69.6483871,5.35470968 L63.8976774,11.1054194 Z" id="Shape" fill="#000000"></path>
                </g>
            </g>
        </g>
    </g>
</svg>