<?xml version="1.0" encoding="UTF-8"?>
<svg width="73px" height="73px" viewBox="0 0 73 73" version="1.1" xmlns="http://www.w3.org/2000/svg" xmlns:xlink="http://www.w3.org/1999/xlink">
    <!-- Generator: Sketch 51.3 (57544) - http://www.bohemiancoding.com/sketch -->
    <title>fundamentals/the-browser/console-api</title>
    <desc>Created with Sketch.</desc>
    <defs></defs>
    <g id="fundamentals/the-browser/console-api" stroke="none" stroke-width="1" fill="none" fill-rule="evenodd">
        <g id="container" transform="translate(2.000000, 2.000000)" fill="#FFFFFF" fill-rule="nonzero" stroke="#072A41" stroke-width="2">
            <rect id="mask" x="-1" y="-1" width="71" height="71" rx="14"></rect>
        </g>
        <g id="coding" transform="translate(11.000000, 18.000000)" fill-rule="nonzero">
            <polygon id="Shape" fill="#2C6A9B" points="20.8695068 36.064209 31.1304932 36.064209 31.1304932 41.7378235 20.8695068 41.7378235"></polygon>
            <polygon id="Shape" fill="#1A5A84" points="20.8699035 36.064209 31.1300965 36.064209 31.1300965 37.8300476 20.8699035 37.8300476"></polygon>
            <path d="M35.9749451,43.1362915 L16.0250549,43.1362915 C15.5025635,43.1362915 15.0788574,42.7125855 15.0788574,42.190094 C15.0788574,41.6676025 15.5025635,41.2442932 16.0250549,41.2442932 L35.9749451,41.2442932 C36.4974365,41.2442932 36.9207459,41.6676025 36.9207459,42.190094 C36.9207459,42.7125855 36.4974365,43.1362915 35.9749451,43.1362915 Z" id="Shape" fill="#DCEEEF"></path>
            <path d="M52,1.60079959 L52,35.298523 C52,35.8884582 51.5219422,36.3657227 50.9316101,36.3657227 L1.06838987,36.3657227 C0.478057836,36.3657227 -2.84217094e-14,35.8884582 -2.84217094e-14,35.298523 L-2.84217094e-14,1.60079959 C-2.84217094e-14,0.716888453 0.717681859,2.84217094e-14 1.6019898,2.84217094e-14 L50.3980102,2.84217094e-14 C51.2831115,2.84217094e-14 52,0.716888453 52,1.60079959 Z" id="Shape" fill="#DCEEEF"></path>
            <path d="M52,1.60079959 L52,35.2981262 C52,35.888855 51.5219422,36.3657227 50.9324035,36.3657227 L48.6091614,36.3657227 C49.1987,36.3657227 49.6767578,35.888855 49.6767578,35.2981262 L49.6767578,1.60079959 C49.6767578,0.717285156 48.9598694,0.000396728516 48.0751648,0.000396728516 L50.398407,0.000396728516 C51.2831115,0.000396728516 52,0.717285156 52,1.60079959 Z" id="Shape" fill="#BCDDE2"></path>
            <polygon id="Shape" fill="#3BC3FF" points="28.6731567 7.90283203 52 7.90283203 52 21.5681457 28.6731567 21.5681457"></polygon>
            <polygon id="Shape" fill="#009AF2" points="49.6767578 7.90283203 52 7.90283203 52 21.5681457 49.6767578 21.5681457"></polygon>
            <path d="M45.9125977,15.3522033 C46.109375,15.6223754 46.164917,15.9703064 46.062561,16.2884826 L44.621643,20.7592164 L44.360199,21.5681457 L32.3059998,21.5681457 L33.1914978,19.2230835 C33.2184754,19.1524658 33.252594,19.0846252 33.2938537,19.0211487 L33.7687378,18.2935486 C34.0789795,17.8178711 33.9528199,17.1819153 33.4850769,16.8601684 L30.7087707,14.9503174 C30.5691223,14.854309 30.4076539,14.7936096 30.2390442,14.7733765 L28.6731567,14.588501 L28.6731567,7.90243533 L45.2242737,7.90243533 L44.0527344,10.1177674 C43.8833313,10.4375305 43.560791,10.6474 43.1993713,10.6723938 L38.140686,11.019928 C37.9276428,11.034607 37.7241211,11.1143494 37.5574951,11.2480469 L35.7138977,12.7286377 C35.3445434,13.0249939 35.2203674,13.5324097 35.4111938,13.966034 L35.8825074,15.0364074 C36.0753174,15.4747925 36.5418701,15.7263184 37.013977,15.646576 L44.4923096,14.385376 C44.8834839,14.3191223 45.2786254,14.4805908 45.5122986,14.8015442 L45.9125977,15.3522033 Z" id="Shape" fill="#8DFFA2"></path>
            <path d="M28.6731567,-2.84217094e-14 L28.6731567,36.3657227 L1.06838987,36.3657227 C0.478057836,36.3657227 2.84217094e-14,35.8884582 2.84217094e-14,35.298523 L2.84217094e-14,1.60079959 C2.84217094e-14,0.716888453 0.717681859,-2.84217094e-14 1.6019898,-2.84217094e-14 L28.6731567,-2.84217094e-14 Z" id="Shape" fill="#4C94C3"></path>
            <path d="M52,1.60079959 L52,3.88595584 L0,3.88595584 L0,1.60079959 C0,0.716888453 0.717681859,0 1.6019898,0 L50.3980102,0 C51.2831115,0 52,0.716888453 52,1.60079959 Z" id="Shape" fill="#8BC1C6"></path>
            <path d="M52,31.2455445 L52,35.2981262 C52,35.888855 51.5219422,36.3657227 50.9324035,36.3657227 L1.06759646,36.3657227 C0.478057836,36.3657227 0,35.888855 0,35.2981262 L0,31.2455445 L52,31.2455445 Z" id="Shape" fill="#3B7CA8"></path>
            <path d="M52,31.2455445 L52,35.2981262 C52,35.888855 51.5219422,36.3657227 50.9324035,36.3657227 L48.6091614,36.3657227 C49.1987,36.3657227 49.6767578,35.888855 49.6767578,35.2981262 L49.6767578,31.2455445 L52,31.2455445 Z" id="Shape" fill="#2C6A9B"></path>
            <path d="M5.02853396,9.3441467 L4.98052973,9.3441467 C4.5473023,9.3441467 4.19619748,8.99264529 4.19619748,8.55941775 C4.19619748,8.12619021 4.5473023,7.7746887 4.98052973,7.7746887 L5.02853396,7.7746887 C5.4621582,7.7746887 5.81326291,8.12619021 5.81326291,8.55941775 C5.81326291,8.99264529 5.4621582,9.3441467 5.02853396,9.3441467 Z" id="Shape" fill="#FF8980"></path>
            <path d="M10.410553,9.3441467 L7.48071289,9.3441467 C7.04748535,9.3441467 6.69638064,8.99264529 6.69638064,8.55941775 C6.69638064,8.12619021 7.04748535,7.7746887 7.48071289,7.7746887 L10.410553,7.7746887 C10.8437805,7.7746887 11.195282,8.12619021 11.195282,8.55941775 C11.195282,8.99264529 10.8437805,9.3441467 10.410553,9.3441467 Z" id="Shape" fill="#FF8980"></path>
            <g id="Group" transform="translate(4.164062, 10.359375)" fill="#8DFFA2">
                <path d="M0.864471461,1.57263184 L0.816467234,1.57263184 C0.383239797,1.57263184 0.0321349844,1.22152712 0.0321349844,0.787902781 C0.0321349844,0.354675344 0.383239797,0.00317382812 0.816467234,0.00317382812 L0.864471461,0.00317382812 C1.2980957,0.00317382812 1.64920041,0.354675344 1.64920041,0.787902781 C1.64920041,1.22152712 1.2980957,1.57263184 0.864471461,1.57263184 Z" id="Shape"></path>
                <path d="M9.87338259,1.57263184 L3.31665039,1.57263184 C2.88342285,1.57263184 2.53231814,1.22152712 2.53231814,0.787902781 C2.53231814,0.354675344 2.88342285,0.00317382812 3.31665039,0.00317382812 L9.87338259,0.00317382812 C10.3070068,0.00317382812 10.6581115,0.354675344 10.6581115,0.787902781 C10.6581115,1.22152712 10.3070068,1.57263184 9.87338259,1.57263184 Z" id="Shape"></path>
                <path d="M0.864471461,4.16088867 L0.816467234,4.16088867 C0.383239797,4.16088867 0.0321349844,3.80938716 0.0321349844,3.37615972 C0.0321349844,2.94253538 0.383239797,2.59143066 0.816467234,2.59143066 L0.864471461,2.59143066 C1.2980957,2.59143066 1.64920041,2.94253538 1.64920041,3.37615972 C1.64920041,3.80938716 1.2980957,4.16088867 0.864471461,4.16088867 Z" id="Shape"></path>
                <path d="M8.05993652,4.16088867 L3.31665039,4.16088867 C2.88342285,4.16088867 2.53231814,3.80938716 2.53231814,3.37615972 C2.53231814,2.94253538 2.88342285,2.59143066 3.31665039,2.59143066 L8.05993652,2.59143066 C8.49356077,2.59143066 8.84466558,2.94253538 8.84466558,3.37615972 C8.84466558,3.80938716 8.49356077,4.16088867 8.05993652,4.16088867 Z" id="Shape"></path>
                <path d="M0.864471461,6.7487488 L0.816467234,6.7487488 C0.383239797,6.7487488 0.0321349844,6.39724729 0.0321349844,5.96401975 C0.0321349844,5.53079221 0.383239797,5.1792908 0.816467234,5.1792908 L0.864471461,5.1792908 C1.2980957,5.1792908 1.64920041,5.53079221 1.64920041,5.96401975 C1.64920041,6.39724729 1.2980957,6.7487488 0.864471461,6.7487488 Z" id="Shape"></path>
                <path d="M15.3141174,6.7487488 L7.71121213,6.7487488 C7.27758789,6.7487488 6.92648318,6.39724729 6.92648318,5.96401975 C6.92648318,5.53079221 7.27798459,5.1792908 7.71121213,5.1792908 L15.3141174,5.1792908 C15.7477417,5.1792908 16.0988465,5.53079221 16.0988465,5.96401975 C16.0988465,6.39724729 15.7477417,6.7487488 15.3141174,6.7487488 Z" id="Shape"></path>
                <path d="M5.54904177,6.7487488 L3.31665039,6.7487488 C2.88342285,6.7487488 2.53231814,6.39724729 2.53231814,5.96401975 C2.53231814,5.53079221 2.88342285,5.1792908 3.31665039,5.1792908 L5.54904177,5.1792908 C5.98226931,5.1792908 6.33337402,5.53079221 6.33337402,5.96401975 C6.33337402,6.39724729 5.98226931,6.7487488 5.54904177,6.7487488 Z" id="Shape"></path>
            </g>
            <path d="M5.02853396,19.6959839 L4.98052973,19.6959839 C4.5473023,19.6959839 4.19619748,19.3448791 4.19619748,18.9112549 C4.19619748,18.4780273 4.5473023,18.1265258 4.98052973,18.1265258 L5.02853396,18.1265258 C5.4621582,18.1265258 5.81326291,18.4780273 5.81326291,18.9112549 C5.81326291,19.3448791 5.4621582,19.6959839 5.02853396,19.6959839 Z" id="Shape" fill="#8DF4FF"></path>
            <path d="M14.0374451,19.6959839 L7.48071289,19.6959839 C7.04748535,19.6959839 6.69638064,19.3448791 6.69638064,18.9112549 C6.69638064,18.4780273 7.04748535,18.1265258 7.48071289,18.1265258 L14.0374451,18.1265258 C14.4710693,18.1265258 14.822174,18.4780273 14.822174,18.9112549 C14.822174,19.3448791 14.4710693,19.6959839 14.0374451,19.6959839 Z" id="Shape" fill="#8DF4FF"></path>
            <path d="M5.02853396,22.283844 L4.98052973,22.283844 C4.5473023,22.283844 4.19619748,21.9327393 4.19619748,21.4995117 C4.19619748,21.0658875 4.5473023,20.7147828 4.98052973,20.7147828 L5.02853396,20.7147828 C5.4621582,20.7147828 5.81326291,21.0658875 5.81326291,21.4995117 C5.81326291,21.9327393 5.4621582,22.283844 5.02853396,22.283844 Z" id="Shape" fill="#8DF4FF"></path>
            <path d="M14.0374451,22.283844 L7.48071289,22.283844 C7.04748535,22.283844 6.69638064,21.9327393 6.69638064,21.4995117 C6.69638064,21.0658875 7.04748535,20.7147828 7.48071289,20.7147828 L14.0374451,20.7147828 C14.4710693,20.7147828 14.822174,21.0658875 14.822174,21.4995117 C14.822174,21.9327393 14.4710693,22.283844 14.0374451,22.283844 Z" id="Shape" fill="#8DF4FF"></path>
            <path d="M5.02853396,24.8721008 L4.98052973,24.8721008 C4.5473023,24.8721008 4.19619748,24.5205994 4.19619748,24.0873719 C4.19619748,23.6541443 4.5473023,23.3026428 4.98052973,23.3026428 L5.02853396,23.3026428 C5.4621582,23.3026428 5.81326291,23.6541443 5.81326291,24.0873719 C5.81326291,24.5205994 5.4621582,24.8721008 5.02853396,24.8721008 Z" id="Shape" fill="#FF8980"></path>
            <path d="M20.0605774,24.8721008 L17.5250855,24.8721008 C17.0914612,24.8721008 16.7403564,24.5205994 16.7403564,24.0873719 C16.7403564,23.6541443 17.0918579,23.3026428 17.5250855,23.3026428 L20.0605774,23.3026428 C20.4942016,23.3026428 20.8453064,23.6541443 20.8453064,24.0873719 C20.8453064,24.5205994 20.4942016,24.8721008 20.0605774,24.8721008 Z" id="Shape" fill="#FF8980"></path>
            <path d="M15.2232666,24.8721008 L7.48071289,24.8721008 C7.04748535,24.8721008 6.69638064,24.5205994 6.69638064,24.0873719 C6.69638064,23.6541443 7.04748535,23.3026428 7.48071289,23.3026428 L15.2232666,23.3026428 C15.6568908,23.3026428 16.0079957,23.6541443 16.0079957,24.0873719 C16.0079957,24.5205994 15.6568908,24.8721008 15.2232666,24.8721008 Z" id="Shape" fill="#FF8980"></path>
            <path d="M5.02853396,27.4599609 L4.98052973,27.4599609 C4.5473023,27.4599609 4.19619748,27.1088562 4.19619748,26.675232 C4.19619748,26.2420043 4.5473023,25.8908996 4.98052973,25.8908996 L5.02853396,25.8908996 C5.4621582,25.8908996 5.81326291,26.2420043 5.81326291,26.675232 C5.81326291,27.1088562 5.4621582,27.4599609 5.02853396,27.4599609 Z" id="Shape" fill="#FF8980"></path>
            <path d="M14.0374451,27.4599609 L7.48071289,27.4599609 C7.04748535,27.4599609 6.69638064,27.1088562 6.69638064,26.675232 C6.69638064,26.2420043 7.04748535,25.8908996 7.48071289,25.8908996 L14.0374451,25.8908996 C14.4710693,25.8908996 14.822174,26.2420043 14.822174,26.675232 C14.822174,27.1088562 14.4710693,27.4599609 14.0374451,27.4599609 Z" id="Shape" fill="#FF8980"></path>
            <path d="M16.5376281,27.4599609 L16.489624,27.4599609 C16.0563965,27.4599609 15.7052918,27.1088562 15.7052918,26.675232 C15.7052918,26.2420043 16.0563965,25.8908996 16.489624,25.8908996 L16.5376281,25.8908996 C16.9712524,25.8908996 17.3223572,26.2420043 17.3223572,26.675232 C17.3223572,27.1088562 16.9712524,27.4599609 16.5376281,27.4599609 Z" id="Shape" fill="#FF8980"></path>
            <path d="M12.8996277,9.3441467 L12.8516235,9.3441467 C12.418396,9.3441467 12.0668945,8.99264529 12.0668945,8.55941775 C12.0668945,8.12619021 12.418396,7.7746887 12.8516235,7.7746887 L12.8996277,7.7746887 C13.333252,7.7746887 13.6843567,8.12619021 13.6843567,8.55941775 C13.6843567,8.99264529 13.333252,9.3441467 12.8996277,9.3441467 Z" id="Shape" fill="#FF8980"></path>
            <path d="M14.3603821,14.5202637 L14.3127746,14.5202637 C13.8791504,14.5202637 13.5280457,14.1687622 13.5280457,13.7355347 C13.5280457,13.3019104 13.8791504,12.9508057 14.3127746,12.9508057 L14.3603821,12.9508057 C14.7940063,12.9508057 15.1451111,13.3019104 15.1451111,13.7355347 C15.1451111,14.1687622 14.7940063,14.5202637 14.3603821,14.5202637 Z" id="Shape" fill="#8DFFA2"></path>
            <path d="M18.6351318,27.4599609 L18.5871277,27.4599609 C18.1535035,27.4599609 17.8023987,27.1088562 17.8023987,26.675232 C17.8023987,26.2420043 18.1539002,25.8908996 18.5871277,25.8908996 L18.6351318,25.8908996 C19.0687561,25.8908996 19.4198609,26.2420043 19.4198609,26.675232 C19.4198609,27.1088562 19.0687561,27.4599609 18.6351318,27.4599609 Z" id="Shape" fill="#FF8980"></path>
            <path d="M22.7531738,24.8721008 L22.7051697,24.8721008 C22.2715454,24.8721008 21.9204406,24.5205994 21.9204406,24.0873719 C21.9204406,23.6541443 22.2719422,23.3026428 22.7051697,23.3026428 L22.7531738,23.3026428 C23.1867981,23.3026428 23.5379028,23.6541443 23.5379028,24.0873719 C23.5379028,24.5205994 23.1867981,24.8721008 22.7531738,24.8721008 Z" id="Shape" fill="#FF8980"></path>
            <path d="M16.5138244,22.3215332 L16.4658203,22.3215332 C16.0321961,22.3215332 15.6810914,21.9704285 15.6810914,21.537201 C15.6810914,21.1035766 16.0325928,20.7524719 16.4658203,20.7524719 L16.5138244,20.7524719 C16.947052,20.7524719 17.2985535,21.1035766 17.2985535,21.537201 C17.2985535,21.9704285 16.947052,22.3215332 16.5138244,22.3215332 Z" id="Shape" fill="#8DF4FF"></path>
            <path d="M16.5138244,19.6959839 L16.4658203,19.6959839 C16.0321961,19.6959839 15.6810914,19.3448791 15.6810914,18.9112549 C15.6810914,18.4780273 16.0325928,18.1265258 16.4658203,18.1265258 L16.5138244,18.1265258 C16.947052,18.1265258 17.2985535,18.4780273 17.2985535,18.9112549 C17.2985535,19.3448791 16.947052,19.6959839 16.5138244,19.6959839 Z" id="Shape" fill="#8DF4FF"></path>
            <path d="M18.6351318,22.3215332 L18.5871277,22.3215332 C18.1535035,22.3215332 17.8023987,21.9704285 17.8023987,21.537201 C17.8023987,21.1035766 18.1539002,20.7524719 18.5871277,20.7524719 L18.6351318,20.7524719 C19.0687561,20.7524719 19.4198609,21.1035766 19.4198609,21.537201 C19.4198609,21.9704285 19.0687561,22.3215332 18.6351318,22.3215332 Z" id="Shape" fill="#8DF4FF"></path>
            <path d="M20.7564392,22.3215332 L20.7084351,22.3215332 C20.2752075,22.3215332 19.9237061,21.9704285 19.9237061,21.537201 C19.9237061,21.1035766 20.2752075,20.7524719 20.7084351,20.7524719 L20.7564392,20.7524719 C21.1900635,20.7524719 21.5411682,21.1035766 21.5411682,21.537201 C21.5411682,21.9704285 21.1900635,22.3215332 20.7564392,22.3215332 Z" id="Shape" fill="#8DF4FF"></path>
            <path d="M22.8781433,22.3215332 L22.8301391,22.3215332 C22.3965149,22.3215332 22.0454102,21.9704285 22.0454102,21.537201 C22.0454102,21.1035766 22.3965149,20.7524719 22.8301391,20.7524719 L22.8781433,20.7524719 C23.3113709,20.7524719 23.6624756,21.1035766 23.6624756,21.537201 C23.6624756,21.9704285 23.3113709,22.3215332 22.8781433,22.3215332 Z" id="Shape" fill="#8DF4FF"></path>
            <path d="M49.1955261,24.8721008 L34.4475403,24.8721008 C34.013916,24.8721008 33.6628113,24.5205994 33.6628113,24.0873719 C33.6628113,23.6541443 34.0143127,23.3026428 34.4475403,23.3026428 L49.1955261,23.3026428 C49.6287537,23.3026428 49.9798584,23.6541443 49.9798584,24.0873719 C49.9802551,24.5205994 49.6287537,24.8721008 49.1955261,24.8721008 Z" id="Shape" fill="#4C94C3"></path>
            <path d="M32.2322082,24.8721008 L31.4776306,24.8721008 C31.0444031,24.8721008 30.6932984,24.5205994 30.6932984,24.0873719 C30.6932984,23.6541443 31.0444031,23.3026428 31.4776306,23.3026428 L32.2322082,23.3026428 C32.6658325,23.3026428 33.0169373,23.6541443 33.0169373,24.0873719 C33.017334,24.5205994 32.6658325,24.8721008 32.2322082,24.8721008 Z" id="Shape" fill="#4C94C3"></path>
            <path d="M46.2256164,29.0853576 L31.4780273,29.0853576 C31.0444031,29.0853576 30.6932984,28.7342529 30.6932984,28.3006287 C30.6932984,27.8674011 31.0444031,27.5158996 31.4780273,27.5158996 L46.2256164,27.5158996 C46.6592407,27.5158996 47.0103455,27.8674011 47.0103455,28.3006287 C47.0103455,28.7338562 46.658844,29.0853576 46.2256164,29.0853576 Z" id="Shape" fill="#4C94C3"></path>
            <path d="M49.1955261,29.0853576 L48.4405518,29.0853576 C48.0073242,29.0853576 47.6562195,28.7342529 47.6562195,28.3006287 C47.6562195,27.8674011 48.0073242,27.5158996 48.4405518,27.5158996 L49.1955261,27.5158996 C49.6287537,27.5158996 49.9798584,27.8674011 49.9798584,28.3006287 C49.9802551,28.7338562 49.6287537,29.0853576 49.1955261,29.0853576 Z" id="Shape" fill="#4C94C3"></path>
            <path d="M49.1955261,26.9787293 L31.4776306,26.9787293 C31.0444031,26.9787293 30.6932984,26.6272278 30.6932984,26.1940002 C30.6932984,25.7607727 31.0444031,25.4092713 31.4776306,25.4092713 L49.1955261,25.4092713 C49.6287537,25.4092713 49.9798584,25.7607727 49.9798584,26.1940002 C49.9802551,26.6272278 49.6287537,26.9787293 49.1955261,26.9787293 Z" id="Shape" fill="#4C94C3"></path>
        </g>
    </g>
</svg>