<?xml version="1.0" encoding="UTF-8"?>
<svg width="73px" height="73px" viewBox="0 0 73 73" version="1.1" xmlns="http://www.w3.org/2000/svg" xmlns:xlink="http://www.w3.org/1999/xlink">
    <!-- Generator: Sketch 51.3 (57544) - http://www.bohemiancoding.com/sketch -->
    <title>fundamentals/the-browser/debugging</title>
    <desc>Created with Sketch.</desc>
    <defs></defs>
    <g id="fundamentals/the-browser/debugging" stroke="none" stroke-width="1" fill="none" fill-rule="evenodd">
        <g id="container" transform="translate(2.000000, 2.000000)" fill-rule="nonzero">
            <rect id="mask" stroke="#031E28" stroke-width="2" fill="#FFFFFF" x="-1" y="-1" width="71" height="71" rx="14"></rect>
            <g id="virus" transform="translate(9.000000, 12.000000)">
                <polygon id="Shape" fill="#03232E" points="25.5 44.6962052 51 44.6962052 51 12.7570037 23.5062561 10.7632599"></polygon>
                <polygon id="Shape" fill="#07485E" points="0 12.7570037 0 44.6962052 25.5 44.6962052 25.5 10.7632599"></polygon>
                <polygon id="Shape" fill="#B4D2D7" points="25.5 0.0498046875 23.5062561 6.40340421 25.5 12.7570037 51 12.7570037 51 0.0498046875"></polygon>
                <polygon id="Shape" fill="#E1EBF0" points="0 0.0498046875 25.5 0.0498046875 25.5 12.7570037 0 12.7570037"></polygon>
                <polygon id="Shape" fill="#FF4A4A" points="4.76529696 4.90926359 7.94190219 4.90926359 7.94190219 7.89754484 4.76529696 7.89754484"></polygon>
                <polygon id="Shape" fill="#FFD422" points="11.1188965 4.90926359 14.2958908 4.90926359 14.2958908 7.89754484 11.1188965 7.89754484"></polygon>
                <polygon id="Shape" fill="#00CC76" points="17.472496 4.90926359 20.6494904 4.90926359 20.6494904 7.89754484 17.472496 7.89754484"></polygon>
                <polygon id="Shape" fill="#FF9F22" points="16.286911 27.2326584 22.1140594 27.2326584 22.1140594 30.2209396 16.286911 30.2209396"></polygon>
                <polygon id="Shape" fill="#FF9F22" points="22.1953812 33.1170044 24.3081894 35.2302017 20.1880188 39.3503723 18.0752106 37.237175"></polygon>
                <polygon id="Shape" fill="#FF4A4A" points="28.8053971 33.1170044 32.9255676 37.237175 30.8123703 39.3503723 26.6921997 35.2302017"></polygon>
                <polygon id="Shape" fill="#FF9F22" points="20.1880188 18.1020584 24.3081894 22.222229 22.1953812 24.3354264 18.0752106 20.2152557"></polygon>
                <polygon id="Shape" fill="#FF4A4A" points="30.8119812 18.1020584 32.9251786 20.2148666 28.805008 24.3350373 26.6918106 22.222229"></polygon>
                <polygon id="Shape" fill="#FF4A4A" points="28.8859406 27.2326584 34.713089 27.2326584 34.713089 30.2209396 28.8859406 30.2209396"></polygon>
                <path d="M25.5,20.1487198 L23.5062561,28.7264099 L25.5,37.3044891 C28.4657136,37.3044891 30.8785172,34.8912964 30.8785172,31.9255828 L30.8785172,25.527237 C30.8785172,22.5615234 28.4657136,20.1487198 25.5,20.1487198 Z" id="Shape" fill="#FF9F22"></path>
                <path d="M20.1214828,25.5276261 L20.1214828,31.9255828 C20.1214828,34.8916855 22.5342864,37.3044891 25.5,37.3044891 L25.5,20.1487198 C22.5342864,20.1487198 20.1214828,22.5615234 20.1214828,25.5276261 Z" id="Shape" fill="#FFD422"></path>
            </g>
        </g>
    </g>
</svg>