<?xml version="1.0" encoding="UTF-8"?>
<svg width="73px" height="73px" viewBox="0 0 73 73" version="1.1" xmlns="http://www.w3.org/2000/svg" xmlns:xlink="http://www.w3.org/1999/xlink">
    <!-- Generator: Sketch 51.3 (57544) - http://www.bohemiancoding.com/sketch -->
    <title>fundamentals/the-browser/developer-console</title>
    <desc>Created with Sketch.</desc>
    <defs></defs>
    <g id="fundamentals/the-browser/developer-console" stroke="none" stroke-width="1" fill="none" fill-rule="evenodd">
        <g id="container" transform="translate(2.000000, 2.000000)" fill="#FFFFFF" fill-rule="nonzero" stroke="#192532" stroke-width="2">
            <rect id="mask" x="-1" y="-1" width="71" height="71" rx="14"></rect>
        </g>
        <g id="control-panel-(2)" transform="translate(12.000000, 12.000000)" fill-rule="nonzero">
            <path d="M43.9655172,23.2758621 L40.7353448,1.47155172 C40.6101096,0.625926541 39.8841587,-0.00024732784 39.0293103,-5.77765408e-16 L10.1637931,-5.77765408e-16 C9.28456526,-0.000988081948 8.54543005,0.659776476 8.44827586,1.53362069 L6.03448276,23.2758621 L5.17241379,25 L44.8275862,25 L43.9655172,23.2758621 Z" id="Shape" fill="#3F5C6C"></path>
            <path d="M4.31034483,43.1034483 L14.6551724,43.1034483 L14.6551724,48.2758621 C14.6551724,49.2280772 13.8832496,50 12.9310345,50 L6.03448276,50 C5.08226767,50 4.31034483,49.2280772 4.31034483,48.2758621 L4.31034483,43.1034483 Z" id="Shape" fill="#95A5A5"></path>
            <path d="M34.4827586,43.1034483 L44.8275862,43.1034483 L44.8275862,48.2758621 C44.8275862,49.2280772 44.0556634,50 43.1034483,50 L36.2068966,50 C35.2546815,50 34.4827586,49.2280772 34.4827586,48.2758621 L34.4827586,43.1034483 Z" id="Shape" fill="#95A5A5"></path>
            <path d="M49.7698276,34.6198276 L47.7224138,43.4913793 C47.5417718,44.2736464 46.8450947,44.8276996 46.0422414,44.8275862 L3.95775862,44.8275862 C3.15490539,44.8276996 2.45822818,44.2736464 2.27758621,43.4913793 L0.230172414,34.6198276 C0.0824270213,33.9780286 0.185097634,33.3040408 0.517241379,32.7353448 L6.03448276,23.2758621 L43.9655172,23.2758621 L49.4827586,32.7353448 C49.8149023,33.3040408 49.917573,33.9780286 49.7698276,34.6198276 Z" id="Shape" fill="#41767F"></path>
            <path d="M19.8275862,7.75862069 C19.8296375,8.84961448 19.4166604,9.90054871 18.6724138,10.6982759 C18.1302946,9.43748491 16.8896433,8.62046509 15.5172414,8.62046509 C14.1448395,8.62046509 12.9041882,9.43748491 12.362069,10.6982759 C11.0462083,9.28450198 10.8314199,7.16799822 11.8364315,5.5186961 C12.8414431,3.86939398 14.8208883,3.08995887 16.6805968,3.61123609 C18.5403053,4.1325133 19.8262427,5.82723673 19.8275862,7.75862069 Z" id="Shape" fill="#B0D3F0"></path>
            <path d="M15.5172414,10.3448276 C15.0411339,10.3448276 14.6551724,9.95886612 14.6551724,9.48275862 L14.6551724,6.89655172 C14.6551724,6.42044418 15.0411339,6.03448276 15.5172414,6.03448276 C15.9933489,6.03448276 16.3793103,6.42044418 16.3793103,6.89655172 L16.3793103,9.48275862 C16.3793103,9.95886612 15.9933489,10.3448276 15.5172414,10.3448276 Z" id="Shape" fill="#4482C3"></path>
            <path d="M11.6896552,15.6637931 C11.6416146,15.6311403 11.5894294,15.6050478 11.5344828,15.5862069 C11.4856359,15.5613037 11.4333297,15.5438684 11.3793103,15.5344828 C11.2113454,15.4988255 11.0364191,15.5169214 10.8793103,15.5862069 C10.7738092,15.6278647 10.6772475,15.6893131 10.5948276,15.7672414 C10.4372985,15.9324429 10.348003,16.1510629 10.3448276,16.3793103 C10.3409722,16.6064059 10.4315012,16.8249241 10.5948276,16.9827586 C10.7555261,17.1481324 10.9763049,17.2414418 11.2068966,17.2414418 C11.4374882,17.2414418 11.658267,17.1481324 11.8189655,16.9827586 C11.9752872,16.8202491 12.0645622,16.6047575 12.0689655,16.3793103 C12.0657901,16.1510629 11.9764946,15.9324429 11.8189655,15.7672414 C11.7780056,15.7301614 11.734822,15.6956145 11.6896552,15.6637931 Z" id="Shape" fill="#2C3E50"></path>
            <path d="M11.6896552,19.112069 C11.6416146,19.0794161 11.5894294,19.0533236 11.5344828,19.0344828 C11.4856359,19.0095796 11.4333297,18.9921442 11.3793103,18.9827586 C11.2113454,18.9471014 11.0364191,18.9651972 10.8793103,19.0344828 C10.7738092,19.0761405 10.6772475,19.137589 10.5948276,19.2155172 C10.4372985,19.3807188 10.348003,19.5993388 10.3448276,19.8275862 C10.3409722,20.0546817 10.4315012,20.2731999 10.5948276,20.4310345 C10.7555261,20.5964083 10.9763049,20.6897177 11.2068966,20.6897177 C11.4374882,20.6897177 11.658267,20.5964083 11.8189655,20.4310345 C11.9752872,20.2685249 12.0645622,20.0530334 12.0689655,19.8275862 C12.0657901,19.5993388 11.9764946,19.3807188 11.8189655,19.2155172 C11.7780056,19.1784372 11.734822,19.1438903 11.6896552,19.112069 Z" id="Shape" fill="#2C3E50"></path>
            <path d="M15.137931,15.6637931 C15.0898904,15.6311403 15.0377053,15.6050478 14.9827586,15.5862069 C14.9339117,15.5613037 14.8816056,15.5438684 14.8275862,15.5344828 C14.6596213,15.4988255 14.4846949,15.5169214 14.3275862,15.5862069 C14.2220851,15.6278647 14.1255234,15.6893131 14.0431034,15.7672414 C13.8855744,15.9324429 13.7962789,16.1510629 13.7931034,16.3793103 C13.7892481,16.6064059 13.8797771,16.8249241 14.0431034,16.9827586 C14.203802,17.1481324 14.4245808,17.2414418 14.6551724,17.2414418 C14.8857641,17.2414418 15.1065428,17.1481324 15.2672414,16.9827586 C15.423563,16.8202491 15.512838,16.6047575 15.5172414,16.3793103 C15.5140659,16.1510629 15.4247704,15.9324429 15.2672414,15.7672414 C15.2262815,15.7301614 15.1830978,15.6956145 15.137931,15.6637931 Z" id="Shape" fill="#2C3E50"></path>
            <path d="M15.137931,19.112069 C15.0898904,19.0794161 15.0377053,19.0533236 14.9827586,19.0344828 C14.9339117,19.0095796 14.8816056,18.9921442 14.8275862,18.9827586 C14.6596213,18.9471014 14.4846949,18.9651972 14.3275862,19.0344828 C14.2220851,19.0761405 14.1255234,19.137589 14.0431034,19.2155172 C13.8855744,19.3807188 13.7962789,19.5993388 13.7931034,19.8275862 C13.7892481,20.0546817 13.8797771,20.2731999 14.0431034,20.4310345 C14.203802,20.5964083 14.4245808,20.6897177 14.6551724,20.6897177 C14.8857641,20.6897177 15.1065428,20.5964083 15.2672414,20.4310345 C15.423563,20.2685249 15.512838,20.0530334 15.5172414,19.8275862 C15.5140659,19.5993388 15.4247704,19.3807188 15.2672414,19.2155172 C15.2262815,19.1784372 15.1830978,19.1438903 15.137931,19.112069 Z" id="Shape" fill="#2C3E50"></path>
            <path d="M18.5862069,15.6637931 C18.5381663,15.6311403 18.4859811,15.6050478 18.4310345,15.5862069 C18.3821876,15.5613037 18.3298815,15.5438684 18.2758621,15.5344828 C18.1078972,15.4988255 17.9329708,15.5169214 17.7758621,15.5862069 C17.6703609,15.6278647 17.5737992,15.6893131 17.4913793,15.7672414 C17.3338503,15.9324429 17.2445547,16.1510629 17.2413793,16.3793103 C17.237524,16.6064059 17.3280529,16.8249241 17.4913793,16.9827586 C17.6520778,17.1481324 17.8728566,17.2414418 18.1034483,17.2414418 C18.3340399,17.2414418 18.5548187,17.1481324 18.7155172,16.9827586 C18.8718389,16.8202491 18.9611139,16.6047575 18.9655172,16.3793103 C18.9623418,16.1510629 18.8730463,15.9324429 18.7155172,15.7672414 C18.6745573,15.7301614 18.6313737,15.6956145 18.5862069,15.6637931 Z" id="Shape" fill="#2C3E50"></path>
            <path d="M18.5862069,19.112069 C18.5381663,19.0794161 18.4859811,19.0533236 18.4310345,19.0344828 C18.3821876,19.0095796 18.3298815,18.9921442 18.2758621,18.9827586 C18.1078972,18.9471014 17.9329708,18.9651972 17.7758621,19.0344828 C17.6703609,19.0761405 17.5737992,19.137589 17.4913793,19.2155172 C17.3338503,19.3807188 17.2445547,19.5993388 17.2413793,19.8275862 C17.237524,20.0546817 17.3280529,20.2731999 17.4913793,20.4310345 C17.6520778,20.5964083 17.8728566,20.6897177 18.1034483,20.6897177 C18.3340399,20.6897177 18.5548187,20.5964083 18.7155172,20.4310345 C18.8718389,20.2685249 18.9611139,20.0530334 18.9655172,19.8275862 C18.9623418,19.5993388 18.8730463,19.3807188 18.7155172,19.2155172 C18.6745573,19.1784372 18.6313737,19.1438903 18.5862069,19.112069 Z" id="Shape" fill="#2C3E50"></path>
            <path d="M21.5517241,17.2413793 C21.7828337,17.2440366 22.0046103,17.1503282 22.1637931,16.9827586 C22.3201147,16.8202491 22.4093897,16.6047575 22.4137931,16.3793103 C22.4106177,16.1510629 22.3213222,15.9324429 22.1637931,15.7672414 C22.1228332,15.7301614 22.0796496,15.6956145 22.0344828,15.6637931 C21.9864422,15.6311403 21.934257,15.6050478 21.8793103,15.5862069 C21.8304634,15.5613037 21.7781573,15.5438684 21.7241379,15.5344828 C21.556173,15.4988255 21.3812466,15.5169214 21.2241379,15.5862069 C21.1186368,15.6278647 21.0220751,15.6893131 20.9396552,15.7672414 C20.7821261,15.9324429 20.6928306,16.1510629 20.6896552,16.3793103 C20.6857998,16.6064059 20.7763288,16.8249241 20.9396552,16.9827586 C21.0988379,17.1503282 21.3206146,17.2440366 21.5517241,17.2413793 Z" id="Shape" fill="#2C3E50"></path>
            <path d="M22.0344828,19.112069 C21.9864422,19.0794161 21.934257,19.0533236 21.8793103,19.0344828 C21.8304634,19.0095796 21.7781573,18.9921442 21.7241379,18.9827586 C21.556173,18.9471014 21.3812466,18.9651972 21.2241379,19.0344828 C21.1186368,19.0761405 21.0220751,19.137589 20.9396552,19.2155172 C20.7821261,19.3807188 20.6928306,19.5993388 20.6896552,19.8275862 C20.6857998,20.0546817 20.7763288,20.2731999 20.9396552,20.4310345 C21.1003537,20.5964083 21.3211325,20.6897177 21.5517241,20.6897177 C21.7823158,20.6897177 22.0030946,20.5964083 22.1637931,20.4310345 C22.3201147,20.2685249 22.4093897,20.0530334 22.4137931,19.8275862 C22.4106177,19.5993388 22.3213222,19.3807188 22.1637931,19.2155172 C22.1228332,19.1784372 22.0796496,19.1438903 22.0344828,19.112069 Z" id="Shape" fill="#2C3E50"></path>
            <path d="M38.7931034,15.5172414 L27.5862069,15.5172414 C27.1100994,15.5172414 26.7241379,15.9032028 26.7241379,16.3793103 C26.7241379,16.8554178 27.1100994,17.2413793 27.5862069,17.2413793 L38.7931034,17.2413793 C39.2692109,17.2413793 39.6551724,16.8554178 39.6551724,16.3793103 C39.6551724,15.9032028 39.2692109,15.5172414 38.7931034,15.5172414 Z" id="Shape" fill="#9FC9D3"></path>
            <path d="M34.4827586,18.9655172 L27.5862069,18.9655172 C27.1100994,18.9655172 26.7241379,19.3514787 26.7241379,19.8275862 C26.7241379,20.3036937 27.1100994,20.6896552 27.5862069,20.6896552 L34.4827586,20.6896552 C34.9588661,20.6896552 35.3448276,20.3036937 35.3448276,19.8275862 C35.3448276,19.3514787 34.9588661,18.9655172 34.4827586,18.9655172 Z" id="Shape" fill="#9FC9D3"></path>
            <circle id="Oval" fill="#2C3E50" cx="11.2068966" cy="28.4482759" r="1.72413793"></circle>
            <circle id="Oval" fill="#2C3E50" cx="19.8275862" cy="28.4482759" r="1.72413793"></circle>
            <circle id="Oval" fill="#2C3E50" cx="28.4482759" cy="28.4482759" r="1.72413793"></circle>
            <circle id="Oval" fill="#2C3E50" cx="37.0689655" cy="28.4482759" r="1.72413793"></circle>
            <path d="M45.6896552,34.4827586 L4.31034483,34.4827586 C3.83423728,34.4827586 3.44827586,34.0967972 3.44827586,33.6206897 C3.44827586,33.1445822 3.83423728,32.7586207 4.31034483,32.7586207 L45.6896552,32.7586207 C46.1657627,32.7586207 46.5517241,33.1445822 46.5517241,33.6206897 C46.5517241,34.0967972 46.1657627,34.4827586 45.6896552,34.4827586 Z" id="Shape" fill="#9FC9D3"></path>
            <path d="M18.6724138,10.6982759 C17.8560912,11.5727052 16.7134893,12.0691472 15.5172414,12.0691472 C14.3209934,12.0691472 13.1783916,11.5727052 12.362069,10.6982759 C12.9041882,9.43748491 14.1448395,8.62046509 15.5172414,8.62046509 C16.8896433,8.62046509 18.1302946,9.43748491 18.6724138,10.6982759 Z" id="Shape" fill="#FF5364"></path>
            <path d="M37.0689655,7.75862069 C37.0710168,8.84961448 36.6580397,9.90054871 35.9137931,10.6982759 C35.3716739,9.43748491 34.1310226,8.62046509 32.7586207,8.62046509 C31.3862188,8.62046509 30.1455675,9.43748491 29.6034483,10.6982759 C28.2875876,9.28450198 28.0727992,7.16799822 29.0778108,5.5186961 C30.0828224,3.86939398 32.0622676,3.08995887 33.9219761,3.61123609 C35.7816847,4.1325133 37.067622,5.82723673 37.0689655,7.75862069 Z" id="Shape" fill="#B0D3F0"></path>
            <path d="M32.7586207,10.3448276 C32.2825132,10.3448276 31.8965517,9.95886612 31.8965517,9.48275862 L31.8965517,6.89655172 C31.8965517,6.42044418 32.2825132,6.03448276 32.7586207,6.03448276 C33.2347282,6.03448276 33.6206897,6.42044418 33.6206897,6.89655172 L33.6206897,9.48275862 C33.6206897,9.95886612 33.2347282,10.3448276 32.7586207,10.3448276 Z" id="Shape" fill="#4482C3"></path>
            <path d="M35.9137931,10.6982759 C35.0974705,11.5727052 33.9548686,12.0691472 32.7586207,12.0691472 C31.5623728,12.0691472 30.4197709,11.5727052 29.6034483,10.6982759 C30.1455675,9.43748491 31.3862188,8.62046509 32.7586207,8.62046509 C34.1310226,8.62046509 35.3716739,9.43748491 35.9137931,10.6982759 Z" id="Shape" fill="#FF5364"></path>
        </g>
    </g>
</svg>