<?xml version="1.0" encoding="UTF-8"?>
<svg width="73px" height="73px" viewBox="0 0 73 73" version="1.1" xmlns="http://www.w3.org/2000/svg" xmlns:xlink="http://www.w3.org/1999/xlink">
    <!-- Generator: Sketch 51.3 (57544) - http://www.bohemiancoding.com/sketch -->
    <title>fundamentals/the-browser/gecko</title>
    <desc>Created with Sketch.</desc>
    <defs></defs>
    <g id="fundamentals/the-browser/gecko" stroke="none" stroke-width="1" fill="none" fill-rule="evenodd">
        <g id="container" transform="translate(2.000000, 2.000000)" fill="#FFFFFF" fill-rule="nonzero" stroke="#AF5916" stroke-width="2">
            <rect id="mask" x="-1" y="-1" width="71" height="71" rx="14"></rect>
        </g>
        <g id="firefox" transform="translate(14.000000, 14.000000)" fill-rule="nonzero">
            <path d="M23.0006289,46 C10.2898047,46 0.00314453125,35.7131602 0.00314453125,23 C0.00314453125,10.2878281 10.2889063,0 23.0006289,0 C35.7113633,0 45.9981133,10.2868398 45.9981133,23 C45.9980234,35.7121719 35.7123516,46 23.0006289,46 Z" id="Shape" fill="#3FA0E1"></path>
            <path d="M23.0006289,8.984375e-05 C22.5174492,8.984375e-05 22.036875,0.0166210937 21.5588164,0.046 C28.1546953,2.35929687 36.2634531,12.1471445 37.0277539,22.1552891 C37.7052656,31.0292461 32.5176875,40.4109102 13.1258125,43.7844531 C16.1716953,45.2345313 19.5272695,46 23.0006289,46 C35.7113633,46 45.9981133,35.7131602 45.9981133,23 C45.9980234,10.2878281 35.7123516,8.984375e-05 23.0006289,8.984375e-05 Z" id="Shape" fill="#FF9842"></path>
            <path d="M23.0006289,0 L23.0006289,0.658734375 C29.2819648,3.76786719 36.3183477,12.8659844 37.0276641,22.1551992 C37.5715781,29.2799883 34.3343281,36.7319883 23.0006289,41.1389141 L23.0006289,46 C35.7113633,46 45.9981133,35.7131602 45.9981133,23 C45.9980234,10.2878281 35.7123516,0 23.0006289,0 Z" id="Shape" fill="#FF8322"></path>
            <g id="Group" fill="#FF9842">
                <path d="M9.21778906,8.09114844 L2.3531875,0.447242187 C1.98015625,0.031984375 1.38988281,-0.110417969 0.868609375,0.0893046875 C0.347335937,0.289027344 0.00314453125,0.789546875 0.00314453125,1.34774609 L0.00314453125,23 C0.00314453125,23.7442656 0.606445312,24.3476563 1.35062109,24.3476563 C2.09479687,24.3476563 2.69809766,23.7442656 2.69809766,23 C2.69809766,18.9978203 3.85923828,15.1532266 6.01629688,11.8706953 L9.21778906,8.09114844 Z" id="Shape"></path>
                <path d="M14.1439219,30.1477891 C13.8007188,30.093793 13.4916563,29.9093437 13.2811523,29.6329844 C11.2526602,26.968668 10.1804648,23.7573828 10.1804648,20.3461055 C10.1804648,19.1701406 11.589125,18.5577656 12.44875,19.3621367 C14.7405742,21.5072461 16.6764375,21.1963867 19.1272852,20.8028711 C22.0365156,20.3357734 25.6573086,19.7542148 29.5273281,24.2359805 C30.2811172,25.1086328 30.3729375,26.3515312 29.7558008,27.3286719 C29.1387539,28.3056328 27.9771641,28.7562891 26.8654375,28.4502812 C24.1730898,27.7097891 22.938457,28.2869453 21.3760742,29.0179141 C19.7602344,29.7736797 17.7483633,30.7147031 14.1439219,30.1477891 Z" id="Shape"></path>
            </g>
            <path d="M45.08,16.5343047 C40.8303906,41.099832 13.7875117,36.4691953 12.8977891,21.118043 L20.2692891,16.9333008 C20.6910156,16.6938672 20.9515625,16.2462656 20.9515625,15.7612891 L20.9515625,13.7524727 C20.9515625,13.2289531 20.6483398,12.7527813 20.1739648,12.5313164 L14.7063438,9.97867578 L14.7063438,1.34774609 C14.7063438,0.789457031 14.3621523,0.289027344 13.8408789,0.0893046875 C13.3195156,-0.110507812 12.7291523,0.031984375 12.3562109,0.447332031 L6.35761328,7.12784375 C-2.21698437,16.1182383 -2.14555859,30.3777891 6.739,39.2634258 C10.9654297,43.4902148 16.7189336,45.9999102 23.0006289,45.9999102 C29.0906875,45.9999102 34.8949531,43.6312695 39.2622578,39.2634258 C45.4644414,33.0605234 47.3343594,24.2746133 45.08,16.5343047 Z" id="Shape" fill="#FFD664"></path>
            <path d="M29.5272383,24.2358906 C27.2318203,21.5776836 25.0241797,20.7007187 23.0006289,20.5245352 L23.0006289,28.3484883 C24.0022969,28.0431992 25.1313633,27.9732109 26.8653477,28.4501016 C27.9771641,28.7561094 29.1386641,28.3054531 29.7557109,27.3284922 C30.3728477,26.3514414 30.2810273,25.108543 29.5272383,24.2358906 Z" id="Shape" fill="#FF8322"></path>
            <path d="M45.08,16.5343047 C42.4909727,31.5005664 31.4417188,35.6299648 23.0006289,33.1005938 L23.0006289,45.9999102 C29.0906875,45.9999102 34.8949531,43.6312695 39.2622578,39.2634258 C45.4644414,33.0605234 47.3343594,24.2746133 45.08,16.5343047 Z" id="Shape" fill="#FF9842"></path>
        </g>
    </g>
</svg>