<?xml version="1.0" encoding="UTF-8"?>
<svg width="73px" height="73px" viewBox="0 0 73 73" version="1.1" xmlns="http://www.w3.org/2000/svg" xmlns:xlink="http://www.w3.org/1999/xlink">
    <!-- Generator: Sketch 51.3 (57544) - http://www.bohemiancoding.com/sketch -->
    <title>fundamentals/the-browser/http</title>
    <desc>Created with Sketch.</desc>
    <defs></defs>
    <g id="fundamentals/the-browser/http" stroke="none" stroke-width="1" fill="none" fill-rule="evenodd">
        <g id="container" transform="translate(2.000000, 2.000000)" fill="#FFFFFF" fill-rule="nonzero" stroke="#0F3B58" stroke-width="2">
            <rect id="mask" x="-1" y="-1" width="71" height="71" rx="14"></rect>
        </g>
        <g id="www" transform="translate(15.000000, 12.000000)" fill-rule="nonzero">
            <path d="M41.261685,19.4850291 C41.261685,24.5723127 39.3124679,29.3863451 35.7729815,33.0400934 L7.77957852,33.0400934 C4.24121966,29.3863451 2.29200257,24.5723127 2.29200257,19.4850291 C2.29200257,18.3067037 2.39686791,17.1524335 2.59908138,16.031239 C4.23257483,6.92862839 12.2106083,2.84217094e-14 21.7770318,2.84217094e-14 C24.0284413,2.84217094e-14 26.1915235,0.384130365 28.2050128,1.08962213 C35.0445622,3.48649004 40.1540216,9.59724419 41.1030715,16.9908131 C41.2079368,17.8079357 41.261685,18.6397169 41.261685,19.4850291 Z" id="Shape" fill="#76C8FF"></path>
            <path d="M15.4832331,26.20092 L15.4738366,26.1336408 L14.0624772,20.4284412 C13.9260395,19.6977667 13.444561,19.1219471 12.7928175,18.9152233 L12.7706416,18.9073302 L2.59908138,16.031239 C2.39686791,17.1524335 2.29200257,18.3067037 2.29200257,19.4850291 C2.29200257,24.5723127 4.24121966,29.3863451 7.77957852,33.0400934 L11.1690964,33.0400934 L15.0840684,27.8430584 C15.4264781,27.3927764 15.5719365,26.7940293 15.4832331,26.20092 Z" id="Shape" fill="#E5E023"></path>
            <path d="M41.1030715,16.9908131 L33.5253305,20.9625402 C33.2877861,21.0884537 33.0337038,21.150095 32.7792457,21.150095 C32.2913776,21.150095 31.802382,20.924954 31.4329102,20.5006066 L31.3953241,20.4562549 L27.2213836,15.264106 C26.8169568,14.7815 26.5869297,14.0557117 26.778619,13.3994577 L28.2050128,1.08962213 C35.0445622,3.48649004 40.1540216,9.59724419 41.1030715,16.9908131 Z" id="Shape" fill="#BCB200"></path>
            <path d="M34.6585525,33.0400934 L15.6895811,33.0400934 L21.7770318,27.7738999 L24.2430582,25.639759 C24.6125299,25.2518701 25.1740667,25.0421394 25.8352069,25.051536 L25.9209033,25.0534153 L29.1138456,25.4905421 C29.8193374,25.5318868 30.4789741,25.8603897 30.9360216,26.4012541 L31.0273559,26.5091263 L34.6585525,33.0400934 Z" id="Shape" fill="#E5E023"></path>
            <path d="M18.4491552,25.7149313 C18.4021725,25.7149313 18.3540623,25.713052 18.3067037,25.7081658 C18.259721,25.7032796 18.2134901,25.6965141 18.1672592,25.6871176 C18.1210282,25.6773451 18.0747973,25.6656934 18.029318,25.6521624 C17.9842147,25.6390073 17.939863,25.6224693 17.896639,25.6040522 C17.8534149,25.5867626 17.8101908,25.566466 17.7684702,25.5446661 C17.7271255,25.5224903 17.6869083,25.4973075 17.6474429,25.4713731 C17.6079775,25.4454387 17.5692637,25.4172491 17.5335569,25.387556 C17.4970984,25.3574871 17.4613915,25.3251631 17.4279399,25.2924631 C17.159199,25.0237222 17.0050958,24.6523712 17.0050958,24.270872 C17.0050958,24.2238892 17.0069751,24.1769066 17.0118613,24.1295481 C17.0167475,24.0821895 17.023513,24.0352069 17.0332855,23.9889759 C17.042682,23.9427449 17.0543337,23.8965139 17.0674888,23.8521623 C17.0813957,23.807059 17.0975577,23.7627074 17.1159749,23.7183557 C17.1332646,23.6751316 17.1535611,23.6326593 17.175361,23.5913146 C17.1975369,23.5499698 17.221592,23.508625 17.2475264,23.4702872 C17.2745884,23.4308218 17.3024021,23.392108 17.332471,23.3556495 C17.3621641,23.318815 17.3941124,23.2834841 17.427564,23.2507842 C17.4613915,23.2169566 17.4970984,23.1850084 17.5335569,23.1553154 C17.5692637,23.1256223 17.6076016,23.0966809 17.6470671,23.0707465 C17.6865325,23.0448121 17.7271255,23.020757 17.7684702,22.9985812 C17.809815,22.9764053 17.8534149,22.9561088 17.896639,22.9376917 C17.939863,22.920402 17.9842147,22.9042399 18.029318,22.890709 C18.0747973,22.8764262 18.1210282,22.8647745 18.1668834,22.8561297 C18.2131142,22.8463573 18.2593452,22.8395919 18.3067037,22.8347056 C18.4010449,22.8253091 18.4961378,22.8253091 18.590479,22.8347056 C18.6378376,22.8395919 18.6848203,22.8463573 18.7310512,22.8561297 C18.7765304,22.8647745 18.8227614,22.8764262 18.8678648,22.890709 C18.9129681,22.9042399 18.9573197,22.920402 19.0005438,22.9376917 C19.0441437,22.9561088 19.0873678,22.9764053 19.1287125,22.9985812 C19.1700573,23.020757 19.211402,23.0448121 19.2501158,23.0707465 C19.2895812,23.0966809 19.3279191,23.1256223 19.3643776,23.1553154 C19.401212,23.1853843 19.436543,23.2169566 19.4696188,23.2507842 C19.5030704,23.2834841 19.5350187,23.318815 19.5647117,23.3556495 C19.5944048,23.392108 19.6225944,23.4308218 19.6492806,23.4702872 C19.6755908,23.508625 19.699646,23.5499698 19.7218218,23.5913146 C19.7436217,23.6326593 19.7639183,23.6751316 19.7823355,23.7183557 C19.7996251,23.7627074 19.8161629,23.807059 19.8293181,23.8521623 C19.8428491,23.8965139 19.8556285,23.9427449 19.8638974,23.9889759 C19.8736698,24.0352069 19.8804353,24.0821895 19.8853214,24.1295481 C19.8902077,24.1765307 19.892087,24.2238892 19.892087,24.270872 C19.892087,24.3182304 19.8898319,24.3663407 19.8853214,24.4133233 C19.8804353,24.4595543 19.8736698,24.5069128 19.8638974,24.5531438 C19.8552525,24.5989989 19.8428491,24.6456057 19.8293181,24.6907091 C19.8157871,24.7350607 19.7996251,24.780164 19.7823355,24.8233881 C19.7639183,24.866988 19.7436217,24.9102121 19.7218218,24.9515568 C19.699646,24.9929016 19.6755908,25.0334946 19.6492806,25.0729601 C19.6225944,25.1124255 19.5944048,25.1500116 19.5647117,25.1864701 C19.5346428,25.2229288 19.5030704,25.2586355 19.4696188,25.2924631 C19.436543,25.3251631 19.401212,25.3578629 19.3643776,25.387556 C19.3279191,25.4176249 19.2895812,25.4454387 19.2501158,25.4713731 C19.211402,25.4973075 19.1700573,25.5224903 19.1287125,25.5446661 C19.0873678,25.5668419 19.0441437,25.5871384 19.0005438,25.604428 C18.9573197,25.6224693 18.9129681,25.6390073 18.8678648,25.6525382 C18.8227614,25.6660694 18.7765304,25.6773451 18.7310512,25.6871176 C18.6848203,25.6965141 18.6378376,25.7032796 18.590479,25.7081658 C18.5434964,25.713052 18.4953861,25.7149313 18.4491552,25.7149313 Z" id="Shape" fill="#E6E4F9"></path>
            <path d="M23.9138036,10.3688876 C23.866821,10.3688876 23.8187107,10.3670083 23.7713521,10.3624978 C23.7251212,10.3576117 23.6781385,10.3497186 23.6319075,10.3410738 C23.5856767,10.3313014 23.5394457,10.3200255 23.4943423,10.3064945 C23.4499907,10.2922118 23.4045114,10.2768015 23.3612874,10.2583843 C23.3180634,10.2399671 23.2748393,10.2200465 23.2334946,10.1978706 C23.1917739,10.1756948 23.1515568,10.1516396 23.1120913,10.1257052 C23.0726258,10.099395 23.0339122,10.0715812 22.9974535,10.0418881 C22.960995,10.0118192 22.9252882,9.97911934 22.8925883,9.94566761 C22.8587607,9.91296774 22.8271884,9.87726089 22.7974954,9.84080236 C22.7674265,9.80396789 22.7396127,9.76563008 22.7125507,9.72691634 C22.6866163,9.68745092 22.6625611,9.64723373 22.6403853,9.60476132 C22.6182095,9.56341662 22.597913,9.52094431 22.5798716,9.47772023 C22.5622061,9.43449615 22.5460441,9.38901695 22.5325131,9.34391358 C22.5189821,9.29956199 22.5077063,9.25333102 22.4979338,9.20710004 C22.4885373,9.16086907 22.4817718,9.11388643 22.4768856,9.06652784 C22.4719994,9.0195452 22.4701201,8.97218671 22.4701201,8.92520397 C22.4701201,8.87784549 22.4719994,8.82973523 22.4768856,8.78275259 C22.4817718,8.73652161 22.4885373,8.68916313 22.4979338,8.64293216 C22.5077063,8.59707702 22.5189821,8.55084615 22.5325131,8.50536685 C22.5460441,8.46101525 22.562582,8.41591189 22.5798716,8.37268781 C22.597913,8.32946373 22.6182095,8.28586381 22.6403853,8.24451911 C22.6625611,8.20317431 22.6866163,8.16258128 22.7125507,8.12311586 C22.7396127,8.08365044 22.7674265,8.04606431 22.7974954,8.00960578 C22.8271884,7.97314715 22.8591366,7.93744039 22.8925883,7.90361282 C22.9252882,7.87091286 22.960995,7.83821299 22.9974535,7.80851992 C23.034288,7.77882685 23.0726258,7.75063722 23.1120913,7.72470281 C23.1515568,7.6987684 23.1917739,7.67471328 23.2334946,7.65253743 C23.2748393,7.63036159 23.3180634,7.61006512 23.3612874,7.59164794 C23.4045114,7.57360659 23.4488631,7.5581962 23.4943423,7.54353768 C23.5394457,7.53038251 23.5856767,7.51873078 23.6319075,7.50895834 C23.6781385,7.5003136 23.7251212,7.49279637 23.7713521,7.4879101 C24.1998341,7.44543779 24.6328264,7.60254789 24.9342672,7.90361282 C24.9680947,7.93744039 24.9996671,7.97314715 25.0293601,8.00960578 C25.0594291,8.04606431 25.0883704,8.08365044 25.1143048,8.12311586 C25.1402393,8.16258128 25.1642944,8.20317431 25.1864701,8.24451911 C25.208646,8.28586381 25.2289426,8.32946373 25.2469839,8.37268781 C25.2646493,8.41591189 25.2808114,8.46101525 25.2943424,8.50536685 C25.3078734,8.55084615 25.3202769,8.59670118 25.3289216,8.64293216 C25.3386941,8.68916313 25.3450837,8.73652161 25.3499699,8.78275259 C25.354856,8.82973523 25.3578629,8.87784549 25.3578629,8.92520397 C25.3578629,8.97218671 25.354856,9.0195452 25.3499699,9.06652784 C25.3450837,9.11388643 25.3386941,9.16086907 25.3289216,9.20710004 C25.3202769,9.25333102 25.3078734,9.29956199 25.2943424,9.34391358 C25.2808114,9.38901695 25.2642735,9.43412031 25.2469839,9.47772023 C25.2289426,9.52094431 25.208646,9.56341662 25.1864701,9.60476132 C25.1642944,9.6468578 25.1402393,9.68745092 25.1143048,9.72691634 C25.0883704,9.76563008 25.0594291,9.80396789 25.0293601,9.84080236 C24.9996671,9.87726089 24.9680947,9.91296774 24.9342672,9.94566761 C24.9015673,9.97911934 24.8658604,10.0118192 24.8294019,10.0418881 C24.7925674,10.0715812 24.7542296,10.0997708 24.7147642,10.1257052 C24.6764263,10.1516396 24.6350816,10.1756948 24.5937368,10.1978706 C24.5520162,10.2196706 24.5087922,10.2399671 24.4655681,10.2583843 C24.422344,10.2768015 24.3779924,10.2922118 24.3325131,10.3064945 C24.2874098,10.3200255 24.2411789,10.3316773 24.1960755,10.3410738 C24.1498445,10.3497186 24.1024861,10.3576117 24.0555033,10.3624978 C24.0081448,10.3673841 23.9611622,10.3688876 23.9138036,10.3688876 Z" id="Shape" fill="#E6E4F9"></path>
            <path d="M22.3629996,6.67943238 C22.3629996,7.05980408 22.2092723,7.43115511 21.9394039,7.69989601 C21.9067039,7.73334765 21.871373,7.76529584 21.8345385,7.79498891 C21.8153696,7.8103992 21.7962007,7.8258095 21.7770318,7.84046811 C21.757487,7.85399912 21.7394456,7.8671543 21.7202767,7.87993353 C21.6815629,7.90586794 21.6402182,7.92992307 21.5988734,7.95209892 C21.5575287,7.97427476 21.5150563,7.99457132 21.4718323,8.01261267 C21.4274806,8.02990224 21.3831291,8.04644014 21.3380257,8.05997115 C21.293674,8.07425384 21.247443,8.08590556 21.2012121,8.0945504 C21.1549812,8.10394691 21.1079985,8.11071246 21.0606399,8.11559863 C21.0136573,8.12048481 20.9662988,8.1234917 20.9193161,8.1234917 C20.5389444,8.1234917 20.1664658,7.96938859 19.8977249,7.69989601 C19.6293599,7.43228272 19.4752568,7.05980408 19.4752568,6.67943238 C19.4752568,6.63244973 19.4782636,6.58433947 19.4820222,6.53698089 C19.4869085,6.49074992 19.4944256,6.44376727 19.5030704,6.3975363 C19.5128429,6.35130533 19.5244945,6.30507445 19.5380256,6.25997109 C19.5523083,6.2156194 19.5677186,6.1701402 19.5861359,6.12691612 C19.6041772,6.08369204 19.6244737,6.04046805 19.6466495,5.99874742 C19.6676978,5.95740262 19.6928804,5.91718552 19.7188149,5.8777201 C19.7447493,5.83825459 19.772939,5.80066845 19.802632,5.76420992 C19.832325,5.72737556 19.865025,5.6916687 19.8977249,5.65821707 C20.2002933,5.35602443 20.6332856,5.20004204 21.0606399,5.24213851 C21.1079985,5.24702468 21.1549812,5.25491775 21.2012121,5.26356258 C21.247443,5.27295909 21.293674,5.28461082 21.3380257,5.29814183 C21.3831291,5.31167284 21.4274806,5.3278349 21.4718323,5.34625208 C21.5150563,5.36354175 21.5575287,5.38383822 21.5988734,5.40601406 C21.6402182,5.42818981 21.6815629,5.45299671 21.7202767,5.47893112 C21.7394456,5.49171046 21.757487,5.50524147 21.7770318,5.51877247 C21.7962007,5.53305516 21.8153696,5.54733794 21.8345385,5.56274823 C21.871373,5.59281714 21.9067039,5.6255171 21.9394039,5.65821707 C21.9732313,5.6916687 22.0051795,5.72737556 22.0360002,5.76420992 C22.0645657,5.80066845 22.093507,5.83825459 22.1194414,5.8777201 C22.1457517,5.91718552 22.1698069,5.95740262 22.1916068,5.99874742 C22.2137826,6.04046805 22.2340792,6.08369204 22.2524964,6.12691612 C22.2705377,6.1701402 22.285948,6.2156194 22.299479,6.25997109 C22.3141376,6.30507445 22.3254135,6.35130533 22.3340583,6.3975363 C22.3438307,6.44376727 22.3517238,6.49074992 22.3554824,6.53698089 C22.3603686,6.58433947 22.3629996,6.63244973 22.3629996,6.67943238 Z" id="Shape" fill="#E6E4F9"></path>
            <path d="M22.9831709,18.1834212 L22.8241815,18.6088963 C22.6452715,19.086616 22.2446033,19.4252671 21.7770318,19.5447911 C21.6567561,19.5744842 21.532346,19.5906461 21.4064324,19.5906461 C21.2917947,19.5906461 21.1752776,19.577491 21.0598883,19.550429 L20.9865953,19.5331394 L10.4019634,15.8309049 C10.0012951,15.6982259 9.66753019,15.3979126 9.49425813,15.0096479 C9.30369639,14.5822934 9.32361712,14.0827737 9.54687872,13.6719572 L9.61453377,13.5486747 L14.0654841,8.17911918 C14.2695768,7.91338527 14.5601176,7.71906487 14.8874929,7.63524776 C15.2907921,7.53151012 15.7230327,7.599541 16.0755906,7.82205093 L20.6554614,10.7233248 C21.0414711,10.9680105 21.2850293,11.3694305 21.3429119,11.8012952 L21.7770318,13.490792 L22.9831709,18.1834212 Z" id="Shape" fill="#E6E4F9"></path>
            <path d="M43.5536876,32.439467 L43.5536876,47.4175424 C43.5536876,48.4361268 42.7249133,49.2649011 41.7067049,49.2649011 L1.84735864,49.2649011 C0.82877429,49.2649011 -2.84217094e-14,48.4361268 -2.84217094e-14,47.4175424 L-2.84217094e-14,32.439467 C-2.84217094e-14,31.420131 0.82877429,30.5913567 1.84735864,30.5913567 L41.7067049,30.5913567 C42.7249133,30.5913567 43.5536876,31.420131 43.5536876,32.439467 Z" id="Shape" fill="#FFB14A"></path>
            <path d="M4.167175,37.078348 C4.167175,36.8096072 4.35285047,36.5754455 4.7242015,36.3762389 C5.09555253,36.1770325 5.45901049,36.0774291 5.81419946,36.0774291 C6.1908126,36.0774291 6.4223432,36.2063496 6.50841543,36.4649422 L7.9457093,40.5663414 L8.97932801,37.09451 C9.07630029,36.7716451 9.35067913,36.6100247 9.80284029,36.6100247 C10.2550015,36.6100247 10.5297562,36.7716451 10.6263526,37.09451 L11.6599714,40.5663414 L13.0972652,36.4649422 C13.1833375,36.2063496 13.4092301,36.0774291 13.775319,36.0774291 C14.1305081,36.0774291 14.493966,36.1796634 14.8653171,36.384132 C15.236668,36.5886006 15.4227194,36.8310312 15.4227194,37.1106721 C15.4227194,37.2294443 15.4009195,37.3316786 15.3580713,37.4177508 L12.8709966,43.6348736 C12.7526003,43.9254145 12.4293595,44.0708728 11.902026,44.0708728 C11.3209444,44.0708728 10.9762795,43.9254145 10.8687831,43.6348736 L9.80284029,40.8249341 L8.73727338,43.6348736 C8.62940115,43.9254145 8.27947419,44.0708728 7.68749251,44.0708728 C7.17105904,44.0708728 6.85308028,43.9254145 6.73468402,43.6348736 L4.24798522,37.4177508 C4.19386118,37.2779304 4.167175,37.1647961 4.167175,37.078348 Z" id="Shape" fill="#FFFFFF"></path>
            <path d="M26.8477775,36.3845079 C26.4764264,36.1792876 26.1125926,36.0774291 25.7574036,36.0774291 C25.3913147,36.0774291 25.1654219,36.2063496 25.0797256,36.465318 L23.6424318,40.5667173 L22.6084371,37.0948859 C22.5114648,36.7712692 22.2370861,36.6104006 21.784549,36.6104006 L21.7770318,36.6104006 C21.3301326,36.6126557 21.0568814,36.7731485 20.9614125,37.0948859 L19.9277938,40.5667173 L18.4905,36.465318 C18.4040518,36.2063496 18.1728971,36.0774291 17.7966598,36.0774291 C17.4414709,36.0774291 17.0776371,36.1774083 16.7059102,36.3758631 C16.3353108,36.5750697 16.1496354,36.809983 16.1496354,37.078348 C16.1496354,37.165172 16.1755698,37.2775545 16.229318,37.417375 L18.7167685,43.6344978 C18.8351648,43.9254145 19.1527677,44.0708728 19.6699529,44.0708728 C20.2619346,44.0708728 20.6111098,43.9254145 20.718982,43.6344978 L21.7770318,40.8448548 L21.784549,40.8249341 L22.8512435,43.6344978 C22.9579881,43.9254145 23.3026531,44.0708728 23.8841105,44.0708728 C24.4114441,44.0708728 24.7350607,43.9254145 24.853457,43.6344978 L27.33978,37.417375 C27.3830041,37.3316786 27.4044281,37.2294443 27.4044281,37.1110479 C27.4044281,36.8310312 27.2183767,36.5886006 26.8477775,36.3845079 Z" id="Shape" fill="#FFFFFF"></path>
            <path d="M28.131344,37.078348 C28.131344,36.8096072 28.3170195,36.5754455 28.6883706,36.3762389 C29.0597216,36.1770325 29.4231795,36.0774291 29.7783685,36.0774291 C30.1549816,36.0774291 30.3861363,36.2063496 30.4725844,36.4649422 L31.9098783,40.5663414 L32.9434971,37.09451 C33.0400934,36.7716451 33.3148481,36.6100247 33.7670094,36.6100247 C34.2191705,36.6100247 34.4935494,36.7716451 34.5905216,37.09451 L35.6241404,40.5663414 L37.0614342,36.4649422 C37.1475065,36.2063496 37.3733991,36.0774291 37.7394881,36.0774291 C38.0946771,36.0774291 38.4581351,36.1796634 38.8294861,36.384132 C39.2008371,36.5886006 39.3868885,36.8310312 39.3868885,37.1106721 C39.3868885,37.2294443 39.3650885,37.3316786 39.3218644,37.4177508 L36.8351656,43.6348736 C36.7167694,43.9254145 36.3935286,44.0708728 35.8661951,44.0708728 C35.2851135,44.0708728 34.9404485,43.9254145 34.8329522,43.6348736 L33.7670094,40.8249341 L32.7014424,43.6348736 C32.5935701,43.9254145 32.2436432,44.0708728 31.6516616,44.0708728 C31.1348522,44.0708728 30.8172494,43.9254145 30.698853,43.6348736 L28.2121542,37.4177508 C28.1580302,37.2779304 28.131344,37.1647961 28.131344,37.078348 Z" id="Shape" fill="#FFFFFF"></path>
            <path d="M27.4044281,37.1110479 C27.4044281,37.2294443 27.3830041,37.3316786 27.33978,37.417375 L24.853457,43.6344978 C24.7350607,43.9254145 24.4114441,44.0708728 23.8841105,44.0708728 C23.3026531,44.0708728 22.9579881,43.9254145 22.8512435,43.6344978 L21.784549,40.8249341 L21.7770318,40.8448548 L21.7770318,36.6104006 L21.784549,36.6104006 C22.2370861,36.6104006 22.5114648,36.7712692 22.6084371,37.0948859 L23.6424318,40.5667173 L25.0797256,36.465318 C25.1654219,36.2063496 25.3913147,36.0774291 25.7574036,36.0774291 C26.1125926,36.0774291 26.4764264,36.1792876 26.8477775,36.3845079 C27.2183767,36.5886006 27.4044281,36.8310312 27.4044281,37.1110479 Z" id="Shape" fill="#FFFFFF"></path>
        </g>
    </g>
</svg>