<?xml version="1.0" encoding="UTF-8"?>
<svg width="73px" height="73px" viewBox="0 0 73 73" version="1.1" xmlns="http://www.w3.org/2000/svg" xmlns:xlink="http://www.w3.org/1999/xlink">
    <!-- Generator: Sketch 51.3 (57544) - http://www.bohemiancoding.com/sketch -->
    <title>fundamentals/the-browser/polyfills</title>
    <desc>Created with Sketch.</desc>
    <defs></defs>
    <g id="fundamentals/the-browser/polyfills" stroke="none" stroke-width="1" fill="none" fill-rule="evenodd">
        <g id="container" transform="translate(2.000000, 2.000000)" fill="#FFFFFF" fill-rule="nonzero" stroke="#802F34" stroke-width="2">
            <rect id="mask" x="-1" y="-1" width="71" height="71" rx="14"></rect>
        </g>
        <g id="brickwall" transform="translate(10.000000, 10.000000)" fill-rule="nonzero">
            <path d="M0.912874686,25.5378899 L13.6810124,25.5378899 C14.1846674,25.5378899 14.5930799,25.9463024 14.5930799,26.4499574 L14.5930799,33.7460938 C14.5930799,34.2497487 14.1846674,34.6581613 13.6810124,34.6581613 L0.912874686,34.6581613 C0.409219715,34.6581613 0.000807139376,34.2497487 0.000807139376,33.7460938 L0.000807139376,26.4499574 C0.000807139376,25.9463024 0.409219715,25.5378899 0.912874686,25.5378899 Z" id="Shape" fill="#C2615F"></path>
            <path d="M21.9529803,25.5378899 L15.5051474,25.5378899 C15.0014924,25.5378899 14.5930799,25.9463024 14.5930799,26.4499574 L14.5930799,33.7460938 C14.5930799,34.2497487 15.0014924,34.6581613 15.5051474,34.6581613 L28.2732852,34.6581613 C28.7769401,34.6581613 29.1853528,34.2497487 29.1853528,33.7460938 L29.1853528,27.6994091 L21.9529803,25.5378899 Z" id="Shape" fill="#F0785A"></path>
            <path d="M39.3359376,25.5378899 L42.865558,25.5378899 C43.369213,25.5378899 43.7776255,25.9463024 43.7776255,26.4499574 L43.7776255,33.7460938 C43.7776255,34.2497487 43.369213,34.6581613 42.865558,34.6581613 L30.0974201,34.6581613 C29.5937652,34.6581613 29.1853528,34.2497487 29.1853528,33.7460938 L29.1853528,27.6994091 L39.3359376,25.5378899 Z" id="Shape" fill="#C2615F"></path>
            <path d="M8.209011,34.6581613 L20.9771488,34.6581613 C21.4808038,34.6581613 21.8892163,35.0665738 21.8892163,35.5702288 L21.8892163,42.8663651 C21.8892163,43.3700201 21.4808038,43.7784327 20.9771488,43.7784327 L8.209011,43.7784327 C7.70535603,43.7784327 7.2969435,43.3700201 7.2969435,42.8663651 L7.2969435,35.5702288 C7.2969435,35.0665738 7.70535603,34.6581613 8.209011,34.6581613 Z" id="Shape" fill="#CC4B4C"></path>
            <path d="M22.8012838,34.6581613 L35.5694216,34.6581613 C36.0730765,34.6581613 36.4814891,35.0665738 36.4814891,35.5702288 L36.4814891,42.8663651 C36.4814891,43.3700201 36.0730765,43.7784327 35.5694216,43.7784327 L22.8012838,43.7784327 C22.2976289,43.7784327 21.8892163,43.3700201 21.8892163,42.8663651 L21.8892163,35.5702288 C21.8892163,35.0665738 22.2976289,34.6581613 22.8012838,34.6581613 Z" id="Shape" fill="#802F34"></path>
            <path d="M37.393153,34.6581613 L50.1616944,34.6581613 C50.6653494,34.6581613 51.0733583,35.0665738 51.0733583,35.5702288 L51.0733583,42.8663651 C51.0733583,43.3700201 50.6653494,43.7784327 50.1616944,43.7784327 L37.393153,43.7784327 C36.8894981,43.7784327 36.4814891,43.3700201 36.4814891,42.8663651 L36.4814891,35.5702288 C36.4814891,35.0665738 36.8894981,34.6581613 37.393153,34.6581613 Z" id="Shape" fill="#CC4B4C"></path>
            <path d="M0.912874686,43.7784327 L13.6810124,43.7784327 C14.1846674,43.7784327 14.5930799,44.1864416 14.5930799,44.6905001 L14.5930799,51.9862329 C14.5930799,52.4902915 14.1846674,52.8983004 13.6810124,52.8983004 L0.912874686,52.8983004 C0.409219715,52.8983004 0.000807139376,52.4902915 0.000807139376,51.9862329 L0.000807139376,44.6905001 C0.000807139376,44.1864416 0.409219715,43.7784327 0.912874686,43.7784327 Z" id="Shape" fill="#C2615F"></path>
            <path d="M15.5051474,43.7784327 L28.2732852,43.7784327 C28.7769401,43.7784327 29.1853528,44.1864416 29.1853528,44.6905001 L29.1853528,51.9862329 C29.1853528,52.4902915 28.7769401,52.8983004 28.2732852,52.8983004 L15.5051474,52.8983004 C15.0014924,52.8983004 14.5930799,52.4902915 14.5930799,51.9862329 L14.5930799,44.6905001 C14.5930799,44.1864416 15.0014924,43.7784327 15.5051474,43.7784327 Z" id="Shape" fill="#F0785A"></path>
            <path d="M30.0974201,43.7784327 L42.865558,43.7784327 C43.369213,43.7784327 43.7776255,44.1864416 43.7776255,44.6905001 L43.7776255,51.9862329 C43.7776255,52.4902915 43.369213,52.8983004 42.865558,52.8983004 L30.0974201,52.8983004 C29.5937652,52.8983004 29.1853528,52.4902915 29.1853528,51.9862329 L29.1853528,44.6905001 C29.1853528,44.1864416 29.5937652,43.7784327 30.0974201,43.7784327 Z" id="Shape" fill="#C2615F"></path>
            <path d="M40.3630224,25.3199622 L22.2693789,29.1679992 C21.8101167,29.2547666 21.3415722,29.0731603 21.0606877,28.6990512 C20.7802068,28.3253457 20.7370249,27.8245157 20.9488989,27.4076282 L29.7043433,11.113502 C29.9004781,10.7676428 30.2608659,10.5460831 30.6583821,10.5275189 C31.0563017,10.5093582 31.4356573,10.6958075 31.6632705,11.0222953 L41.0014696,23.4651559 C41.2508757,23.775501 41.3239218,24.1923885 41.1939723,24.5689191 C41.0644264,24.9454496 40.7504493,25.2291591 40.3630224,25.3199622 Z" id="Shape" fill="#BDC3C7"></path>
            <path d="M31.8420519,21.5251964 C31.4493787,21.5251964 31.1006944,21.2741761 30.9767985,20.9016813 C30.8524991,20.5291864 30.9808343,20.1191596 31.2948114,19.8834749 L38.4194308,14.5394052 C38.7761864,14.2718385 38.9755497,13.843651 38.9501248,13.3981101 L38.8589181,11.7567922 C38.7991898,10.7022646 39.2713664,9.68849753 40.1164413,9.05529671 L42.7477156,7.07901587 C43.0084216,6.8832846 43.3534737,6.8417169 43.653326,6.97005211 C43.9527748,7.09798367 44.1614203,7.37604316 44.2005665,7.69930256 C44.2393092,8.0229654 44.1029026,8.34259259 43.8421966,8.53832387 L41.2109223,10.5125868 C40.8537631,10.7801535 40.6539961,11.2087446 40.679421,11.654689 L40.7706277,13.2960069 C40.8307597,14.3505346 40.3585831,15.3647052 39.512701,15.9975024 L32.3880818,21.3427829 C32.2306896,21.4614325 32.0389939,21.5256 31.8420519,21.5251964 Z" id="Shape" fill="#95A5A5"></path>
            <path d="M42.6762838,5.46231575 L49.4715902,0.364826998 C50.2771153,-0.239316799 51.4204283,-0.0762746452 52.0249756,0.729653996 L52.5318592,1.4052296 C53.1364065,2.21115835 52.9733645,3.35447125 52.1674357,3.95901859 L45.3721294,9.0561038 C44.9693668,9.35837747 44.3975085,9.27685645 44.0952349,8.8736903 L42.4938703,6.73921025 C42.1915966,6.3360441 42.2735212,5.76458942 42.6762838,5.46231575 Z" id="Shape" fill="#F29C1F"></path>
            <g id="Group" transform="translate(0.000000, 28.204678)" fill="#FB7B76">
                <path d="M3.64907707,0.981481481 C3.64907707,1.48513645 3.24066465,1.89354898 2.73700968,1.89354898 L0.000807139376,1.89354898 L0.000807139376,0.0694139864 L2.73700968,0.0694139864 C3.24066465,0.0694139864 3.64907707,0.477826511 3.64907707,0.981481481 Z" id="Shape"></path>
                <path d="M10.033146,1.89354898 L6.38487601,1.89354898 C5.88122104,1.89354898 5.47280851,1.48513645 5.47280851,0.981481481 C5.47280851,0.477826511 5.88122104,0.0694139864 6.38487601,0.0694139864 L10.033146,0.0694139864 C10.536801,0.0694139864 10.9448099,0.477826511 10.9448099,0.981481481 C10.9448099,1.48513645 10.536801,1.89354898 10.033146,1.89354898 Z" id="Shape"></path>
            </g>
        </g>
    </g>
</svg>