<?xml version="1.0" encoding="UTF-8"?>
<svg width="73px" height="73px" viewBox="0 0 73 73" version="1.1" xmlns="http://www.w3.org/2000/svg" xmlns:xlink="http://www.w3.org/1999/xlink">
    <!-- Generator: Sketch 51.3 (57544) - http://www.bohemiancoding.com/sketch -->
    <title>fundamentals/the-browser/specifications</title>
    <desc>Created with Sketch.</desc>
    <defs></defs>
    <g id="fundamentals/the-browser/specifications" stroke="none" stroke-width="1" fill="none" fill-rule="evenodd">
        <g id="container" transform="translate(2.000000, 2.000000)" fill="#FFFFFF" fill-rule="nonzero" stroke="#1F2D5F" stroke-width="2">
            <rect id="mask" x="-1" y="-1" width="71" height="71" rx="14"></rect>
        </g>
        <g id="specification" transform="translate(17.000000, 11.000000)" fill-rule="nonzero">
            <path d="M39.605469,7.61643635 L39.605469,50.4715849 C39.605469,51.3245242 38.9353242,51.9948721 38.0821817,51.9948721 L1.52328727,51.9948721 C0.670144846,51.9948721 0,51.3245242 0,50.4715849 L0,7.61643635 C0,6.76329392 0.670144846,6.09314908 1.52328727,6.09314908 L38.0821817,6.09314908 C38.9353242,6.09314908 39.605469,6.76329392 39.605469,7.61643635 Z" id="Shape" fill="#47568C"></path>
            <path d="M39.605469,7.61643635 L39.605469,50.4715849 C39.605469,51.3245242 38.9353242,51.9948721 38.0821817,51.9948721 L19.8027345,51.9948721 L19.8027345,6.09314908 L38.0821817,6.09314908 C38.9353242,6.09314908 39.605469,6.76329392 39.605469,7.61643635 Z" id="Shape" fill="#2C3B73"></path>
            <polygon id="Shape" fill="#EDF5FF" points="36.5588945 9.13972362 36.5588945 48.9482976 3.04657454 48.9482976 3.04657454 9.13972362 13.7095854 9.13972362 16.75616 6.09314908 22.849309 6.09314908 25.8958836 9.13972362"></polygon>
            <polygon id="Shape" fill="#D7E9FF" points="36.5588945 9.13972362 36.5588945 48.9482976 19.8027345 48.9482976 19.8027345 6.09314908 22.849309 6.09314908 25.8958836 9.13972362"></polygon>
            <path d="M33.5123199,16.8577124 C33.5123199,17.7106518 32.8421751,18.3809997 31.9890327,18.3809997 L13.7095854,18.3809997 C12.856443,18.3809997 12.1862982,17.7106518 12.1862982,16.8577124 C12.1862982,16.00457 12.856443,15.3344252 13.7095854,15.3344252 L31.9890327,15.3344252 C32.8421751,15.3344252 33.5123199,16.00457 33.5123199,16.8577124 Z" id="Shape" fill="#D7E9FF"></path>
            <circle id="Oval" fill="#D7E9FF" cx="7.61643635" cy="16.8577124" r="1.52328727"></circle>
            <path d="M33.5123199,22.9508615 C33.5123199,23.8038008 32.8421751,24.4741488 31.9890327,24.4741488 L13.7095854,24.4741488 C12.856443,24.4741488 12.1862982,23.8038008 12.1862982,22.9508615 C12.1862982,22.0977191 12.856443,21.4275743 13.7095854,21.4275743 L31.9890327,21.4275743 C32.8421751,21.4275743 33.5123199,22.0977191 33.5123199,22.9508615 Z" id="Shape" fill="#D7E9FF"></path>
            <circle id="Oval" fill="#D7E9FF" cx="7.61643635" cy="22.9508615" r="1.52328727"></circle>
            <path d="M33.5123199,29.0440106 C33.5123199,29.8969499 32.8421751,30.5672979 31.9890327,30.5672979 L13.7095854,30.5672979 C12.856443,30.5672979 12.1862982,29.8969499 12.1862982,29.0440106 C12.1862982,28.1908682 12.856443,27.5207233 13.7095854,27.5207233 L31.9890327,27.5207233 C32.8421751,27.5207233 33.5123199,28.1908682 33.5123199,29.0440106 Z" id="Shape" fill="#D7E9FF"></path>
            <circle id="Oval" fill="#D7E9FF" cx="7.61643635" cy="29.0440106" r="1.52328727"></circle>
            <path d="M31.9890327,33.6138724 L7.61643635,33.6138724 C6.76329392,33.6138724 6.09314908,34.2840173 6.09314908,35.1371597 L6.09314908,44.3784358 C6.09314908,45.2313751 6.76329392,45.901723 7.61643635,45.901723 L31.9890327,45.901723 C32.8421751,45.901723 33.5123199,45.2313751 33.5123199,44.3784358 L33.5123199,35.1371597 C33.5123199,34.2840173 32.8421751,33.6138724 31.9890327,33.6138724 Z" id="Shape" fill="#979FEF"></path>
            <path d="M25.8958836,4.56986181 L25.8958836,9.13972362 L13.7095854,9.13972362 L13.7095854,4.56986181 C13.7095854,3.71671938 14.3797303,3.04657454 15.2328727,3.04657454 L16.75616,3.04657454 C16.75616,1.37095854 18.1271185,0 19.8027345,0 C21.4783505,0 22.849309,1.37095854 22.849309,3.04657454 L24.3725963,3.04657454 C25.2257387,3.04657454 25.8958836,3.71671938 25.8958836,4.56986181 Z" id="Shape" fill="#76E2F8"></path>
            <path d="M25.8958836,9.13972362 L19.8027345,9.13972362 L19.8027345,0 C21.4783505,0 22.849309,1.37095854 22.849309,3.04657454 L24.3725963,3.04657454 C25.2257387,3.04657454 25.8958836,3.71671938 25.8958836,4.56986181 L25.8958836,9.13972362 Z" id="Shape" fill="#25D9F8"></path>
            <path d="M33.5123199,29.0440106 C33.5123199,29.8969499 32.8421751,30.5672979 31.9890327,30.5672979 L19.8027345,30.5672979 L19.8027345,27.5207233 L31.9890327,27.5207233 C32.8421751,27.5207233 33.5123199,28.1908682 33.5123199,29.0440106 Z" id="Shape" fill="#B0D5F7"></path>
            <path d="M33.5123199,22.9508615 C33.5123199,23.8038008 32.8421751,24.4741488 31.9890327,24.4741488 L19.8027345,24.4741488 L19.8027345,21.4275743 L31.9890327,21.4275743 C32.8421751,21.4275743 33.5123199,22.0977191 33.5123199,22.9508615 Z" id="Shape" fill="#B0D5F7"></path>
            <path d="M31.9890327,18.3809997 L19.8027345,18.3809997 L19.8027345,15.3344252 L31.9890327,15.3344252 C32.8421751,15.3344252 33.5123199,16.00457 33.5123199,16.8577124 C33.5123199,17.7106518 32.8421751,18.3809997 31.9890327,18.3809997 Z" id="Shape" fill="#B0D5F7"></path>
            <path d="M33.5123199,35.1371597 L33.5123199,44.3784358 C33.5123199,45.2313751 32.8421751,45.901723 31.9890327,45.901723 L19.8027345,45.901723 L19.8027345,33.6138724 L31.9890327,33.6138724 C32.8421751,33.6138724 33.5123199,34.2840173 33.5123199,35.1371597 Z" id="Shape" fill="#737EE6"></path>
        </g>
    </g>
</svg>