<?xml version="1.0" encoding="UTF-8"?>
<svg width="73px" height="73px" viewBox="0 0 73 73" version="1.1" xmlns="http://www.w3.org/2000/svg" xmlns:xlink="http://www.w3.org/1999/xlink">
    <!-- Generator: Sketch 51.3 (57544) - http://www.bohemiancoding.com/sketch -->
    <title>fundamentals/the-browser/standardization</title>
    <desc>Created with Sketch.</desc>
    <defs></defs>
    <g id="fundamentals/the-browser/standardization" stroke="none" stroke-width="1" fill="none" fill-rule="evenodd">
        <g id="container" transform="translate(2.000000, 2.000000)" fill="#FFFFFF" fill-rule="nonzero" stroke="#30303F" stroke-width="2">
            <rect id="mask" x="-1" y="-1" width="71" height="71" rx="14"></rect>
        </g>
        <g id="office-material" transform="translate(16.000000, 15.000000)" fill-rule="nonzero">
            <path d="M25.8572393,43.3768116 L14.6390809,43.3768116 C14.0195211,43.3768116 13.5172989,42.8745047 13.5172989,42.2550296 L13.5172989,1.12178196 C13.5172989,0.502306867 14.0196058,0 14.6390809,0 L25.8572393,0 C26.4767991,0 26.9790213,0.502306867 26.9790213,1.12178196 L26.9790213,42.2549449 C26.9790213,42.8745047 26.4767144,43.3768116 25.8572393,43.3768116 Z" id="Shape" fill="#FFD782"></path>
            <path d="M23.9875463,26.1757031 L16.5087739,26.1757031 C16.0957623,26.1757031 15.7608628,25.8408036 15.7608628,25.4277919 L15.7608628,6.73086119 C15.7608628,6.31784955 16.0957623,5.98295007 16.5087739,5.98295007 L23.9875463,5.98295007 C24.4005579,5.98295007 24.7354574,6.31784955 24.7354574,6.73086119 L24.7354574,25.4277919 C24.7354574,25.8408036 24.4005579,26.1757031 23.9875463,26.1757031 Z" id="Shape" fill="#EFF2FA"></path>
            <g id="Group" transform="translate(17.198228, 11.183084)" fill="#D7DEED">
                <path d="M5.2935807,1.53081174 L0.80628343,1.53081174 C0.393271796,1.53081174 0.0583723109,1.19591225 0.0583723109,0.782900617 C0.0583723109,0.369888983 0.393271796,0.0349894984 0.80628343,0.0349894984 L5.2935807,0.0349894984 C5.70659233,0.0349894984 6.04149182,0.369888983 6.04149182,0.782900617 C6.04149182,1.19591225 5.70659233,1.53081174 5.2935807,1.53081174 Z" id="Shape"></path>
                <path d="M5.2935807,4.52228677 L0.80628343,4.52228677 C0.393271796,4.52228677 0.0583723109,4.18738728 0.0583723109,3.77437565 C0.0583723109,3.36136402 0.393271796,3.02646453 0.80628343,3.02646453 L5.2935807,3.02646453 C5.70659233,3.02646453 6.04149182,3.36136402 6.04149182,3.77437565 C6.04149182,4.18738728 5.70659233,4.52228677 5.2935807,4.52228677 Z" id="Shape"></path>
                <path d="M5.2935807,7.51384652 L0.80628343,7.51384652 C0.393271796,7.51384652 0.0583723109,7.17894704 0.0583723109,6.76593541 C0.0583723109,6.35292377 0.393271796,6.01802429 0.80628343,6.01802429 L5.2935807,6.01802429 C5.70659233,6.01802429 6.04149182,6.35292377 6.04149182,6.76593541 C6.0414071,7.17894704 5.70659233,7.51384652 5.2935807,7.51384652 Z" id="Shape"></path>
                <path d="M5.2935807,13.4967966 L0.80628343,13.4967966 C0.393271796,13.4967966 0.0583723109,13.1618971 0.0583723109,12.7488855 C0.0583723109,12.3358738 0.393271796,12.0009744 0.80628343,12.0009744 L5.2935807,12.0009744 C5.70659233,12.0009744 6.04149182,12.3358738 6.04149182,12.7488855 C6.04149182,13.1618971 5.70659233,13.4967966 5.2935807,13.4967966 Z" id="Shape"></path>
            </g>
            <g id="Group" transform="translate(15.757982, 5.167940)" fill="#C7CFE2">
                <rect id="Rectangle-path" x="0.00288049139" y="15.0247278" width="8.97450982" height="1.49573752"></rect>
                <path d="M8.97747503,3.80656938 L0.00288049139,3.80656938 L0.00288049139,0.815094344 C0.00288049139,0.402082711 0.337779976,0.0671832258 0.75079161,0.0671832258 L8.22956392,0.0671832258 C8.64257555,0.0671832258 8.97747503,0.402082711 8.97747503,0.815094344 L8.97747503,3.80656938 Z" id="Shape"></path>
            </g>
            <circle id="Oval" fill="#464655" cx="20.2481601" cy="32.9065643" r="1.86969308"></circle>
            <path d="M20.2481601,36.2719948 C18.3922764,36.2719948 16.8827295,34.7623632 16.8827295,32.9065643 C16.8827295,31.0507653 18.3922764,29.5411337 20.2481601,29.5411337 C22.1040438,29.5411337 23.6135907,31.0506806 23.6135907,32.9065643 C23.6135907,34.7624479 22.1040438,36.2719948 20.2481601,36.2719948 Z M20.2481601,31.0368712 C19.2172831,31.0368712 18.378467,31.8756872 18.378467,32.9065643 C18.378467,33.9374413 19.2172831,34.7762573 20.2481601,34.7762573 C21.2790371,34.7762573 22.1178532,33.9374413 22.1178532,32.9065643 C22.1178532,31.8756872 21.2790371,31.0368712 20.2481601,31.0368712 Z" id="Shape" fill="#EFF2FA"></path>
            <path d="M39.3189617,43.3768116 L28.100888,43.3768116 C27.4813282,43.3768116 26.979106,42.8745047 26.979106,42.2550296 L26.979106,1.12178196 C26.9790213,0.502306867 27.4813282,0 28.100888,0 L39.3190464,0 C39.9386062,0 40.4408284,0.502306867 40.4408284,1.12178196 L40.4408284,42.2549449 C40.4408284,42.8745047 39.9385215,43.3768116 39.3189617,43.3768116 Z" id="Shape" fill="#C3E678"></path>
            <path d="M37.4492686,26.1757031 L29.9704963,26.1757031 C29.5574847,26.1757031 29.2225852,25.8408036 29.2225852,25.4277919 L29.2225852,6.73086119 C29.2225852,6.31784955 29.5574847,5.98295007 29.9704963,5.98295007 L37.4492686,5.98295007 C37.8622803,5.98295007 38.1971797,6.31784955 38.1971797,6.73086119 L38.1971797,25.4277919 C38.1971797,25.8408036 37.862365,26.1757031 37.4492686,26.1757031 Z" id="Shape" fill="#EFF2FA"></path>
            <g id="Group" transform="translate(30.668761, 11.183084)" fill="#D7DEED">
                <path d="M5.28476979,1.53081174 L0.797472515,1.53081174 C0.384460881,1.53081174 0.0495613961,1.19591225 0.0495613961,0.782900617 C0.0495613961,0.369888983 0.384460881,0.0349894984 0.797472515,0.0349894984 L5.28476979,0.0349894984 C5.69778142,0.0349894984 6.0326809,0.369888983 6.0326809,0.782900617 C6.0326809,1.19591225 5.69778142,1.53081174 5.28476979,1.53081174 Z" id="Shape"></path>
                <path d="M5.28476979,4.52228677 L0.797472515,4.52228677 C0.384460881,4.52228677 0.0495613961,4.18738728 0.0495613961,3.77437565 C0.0495613961,3.36136402 0.384460881,3.02646453 0.797472515,3.02646453 L5.28476979,3.02646453 C5.69778142,3.02646453 6.0326809,3.36136402 6.0326809,3.77437565 C6.0326809,4.18738728 5.69778142,4.52228677 5.28476979,4.52228677 Z" id="Shape"></path>
                <path d="M5.28476979,7.51384652 L0.797472515,7.51384652 C0.384460881,7.51384652 0.0495613961,7.17894704 0.0495613961,6.76593541 C0.0495613961,6.35292377 0.384460881,6.01802429 0.797472515,6.01802429 L5.28476979,6.01802429 C5.69778142,6.01802429 6.0326809,6.35292377 6.0326809,6.76593541 C6.0326809,7.17894704 5.69778142,7.51384652 5.28476979,7.51384652 Z" id="Shape"></path>
                <path d="M5.28476979,13.4967966 L0.797472515,13.4967966 C0.384460881,13.4967966 0.0495613961,13.1618971 0.0495613961,12.7488855 C0.0495613961,12.3358738 0.384460881,12.0009744 0.797472515,12.0009744 L5.28476979,12.0009744 C5.69778142,12.0009744 6.0326809,12.3358738 6.0326809,12.7488855 C6.0326809,13.1618971 5.69778142,13.4967966 5.28476979,13.4967966 Z" id="Shape"></path>
            </g>
            <g id="Group" transform="translate(29.143795, 5.167940)" fill="#C7CFE2">
                <rect id="Rectangle-path" x="0.078874632" y="15.0247278" width="8.97450982" height="1.49573752"></rect>
                <path d="M9.05346917,3.80656938 L0.078874632,3.80656938 L0.078874632,0.815094344 C0.078874632,0.402082711 0.413774117,0.0671832258 0.826785751,0.0671832258 L8.30555806,0.0671832258 C8.71856969,0.0671832258 9.05346917,0.402082711 9.05346917,0.815094344 L9.05346917,3.80656938 Z" id="Shape"></path>
            </g>
            <circle id="Oval" fill="#464655" cx="33.7099672" cy="32.9065643" r="1.86969308"></circle>
            <path d="M33.7099672,36.2719948 C31.8540835,36.2719948 30.3445366,34.7623632 30.3445366,32.9065643 C30.3445366,31.0507653 31.8540835,29.5411337 33.7099672,29.5411337 C35.5658509,29.5411337 37.0753978,31.0506806 37.0753978,32.9065643 C37.0753978,34.7624479 35.5656814,36.2719948 33.7099672,36.2719948 Z M33.7099672,31.0368712 C32.6790902,31.0368712 31.8402741,31.8756872 31.8402741,32.9065643 C31.8402741,33.9374413 32.6790902,34.7762573 33.7099672,34.7762573 C34.7408442,34.7762573 35.5796603,33.9374413 35.5796603,32.9065643 C35.5796603,31.8756872 34.7407595,31.0368712 33.7099672,31.0368712 Z" id="Shape" fill="#EFF2FA"></path>
            <path d="M12.3954322,43.3768116 L1.1773585,43.3768116 C0.557798687,43.3768116 0.0555765399,42.8745047 0.0555765399,42.2550296 L0.0555765399,1.12178196 C0.0554918195,0.502306867 0.557798687,0 1.1773585,0 L12.3954322,0 C13.014992,0 13.5172142,0.502306867 13.5172142,1.12178196 L13.5172142,42.2549449 C13.5172989,42.8745047 13.014992,43.3768116 12.3954322,43.3768116 Z" id="Shape" fill="#FF6464"></path>
            <path d="M10.5257392,26.1757031 L3.04705157,26.1757031 C2.63403994,26.1757031 2.29914046,25.8408036 2.29914046,25.4277919 L2.29914046,6.73086119 C2.29914046,6.31784955 2.63403994,5.98295007 3.04705157,5.98295007 L10.5258239,5.98295007 C10.9388355,5.98295007 11.273735,6.31784955 11.273735,6.73086119 L11.273735,25.4277919 C11.2736503,25.8408036 10.9387508,26.1757031 10.5257392,26.1757031 Z" id="Shape" fill="#EFF2FA"></path>
            <g id="Group" transform="translate(3.727695, 11.183084)" fill="#D7DEED">
                <path d="M5.3023069,1.53081174 L0.815094344,1.53081174 C0.402082711,1.53081174 0.0671832258,1.19591225 0.0671832258,0.782900617 C0.0671832258,0.369888983 0.402082711,0.0349894984 0.815094344,0.0349894984 L5.30239162,0.0349894984 C5.71540325,0.0349894984 6.05030273,0.369888983 6.05030273,0.782900617 C6.05030273,1.19591225 5.71531853,1.53081174 5.3023069,1.53081174 Z" id="Shape"></path>
                <path d="M5.3023069,4.52228677 L0.815094344,4.52228677 C0.402082711,4.52228677 0.0671832258,4.18738728 0.0671832258,3.77437565 C0.0671832258,3.36136402 0.402082711,3.02646453 0.815094344,3.02646453 L5.30239162,3.02646453 C5.71540325,3.02646453 6.05030273,3.36136402 6.05030273,3.77437565 C6.05030273,4.18738728 5.71531853,4.52228677 5.3023069,4.52228677 Z" id="Shape"></path>
                <path d="M5.3023069,7.51384652 L0.815094344,7.51384652 C0.402082711,7.51384652 0.0671832258,7.17894704 0.0671832258,6.76593541 C0.0671832258,6.35292377 0.402082711,6.01802429 0.815094344,6.01802429 L5.30239162,6.01802429 C5.71540325,6.01802429 6.05030273,6.35292377 6.05030273,6.76593541 C6.05021801,7.17894704 5.71531853,7.51384652 5.3023069,7.51384652 Z" id="Shape"></path>
                <path d="M5.3023069,13.4967966 L0.815094344,13.4967966 C0.402082711,13.4967966 0.0671832258,13.1618971 0.0671832258,12.7488855 C0.0671832258,12.3358738 0.402082711,12.0009744 0.815094344,12.0009744 L5.30239162,12.0009744 C5.71540325,12.0009744 6.05030273,12.3358738 6.05030273,12.7488855 C6.05030273,13.1618971 5.71531853,13.4967966 5.3023069,13.4967966 Z" id="Shape"></path>
            </g>
            <g id="Group" transform="translate(2.287449, 5.167940)" fill="#C7CFE2">
                <rect id="Rectangle-path" x="0.0116914062" y="15.0247278" width="8.97450982" height="1.49573752"></rect>
                <path d="M8.98628595,3.80656938 L0.0116914062,3.80656938 L0.0116914062,0.815094344 C0.0116914062,0.402082711 0.346590891,0.0671832258 0.759602525,0.0671832258 L8.23837483,0.0671832258 C8.65138646,0.0671832258 8.98628595,0.402082711 8.98628595,0.815094344 L8.98628595,3.80656938 Z" id="Shape"></path>
            </g>
            <circle id="Oval" fill="#464655" cx="6.78635301" cy="32.9065643" r="1.86969308"></circle>
            <path d="M6.78635301,36.2719948 C4.93046934,36.2719948 3.42092241,34.7623632 3.42092241,32.9065643 C3.42092241,31.0507653 4.93046934,29.5411337 6.78635301,29.5411337 C8.64223667,29.5411337 10.1517836,31.0506806 10.1517836,32.9065643 C10.1517836,34.7624479 8.64223667,36.2719948 6.78635301,36.2719948 Z M6.78635301,31.0368712 C5.75547597,31.0368712 4.91665993,31.8756872 4.91665993,32.9065643 C4.91665993,33.9374413 5.75547597,34.7762573 6.78635301,34.7762573 C7.81723004,34.7762573 8.65604608,33.9374413 8.65604608,32.9065643 C8.65604608,31.8756872 7.81723004,31.0368712 6.78635301,31.0368712 Z" id="Shape" fill="#EFF2FA"></path>
        </g>
    </g>
</svg>