<?xml version="1.0" encoding="UTF-8"?>
<svg width="73px" height="73px" viewBox="0 0 73 73" version="1.1" xmlns="http://www.w3.org/2000/svg" xmlns:xlink="http://www.w3.org/1999/xlink">
    <!-- Generator: Sketch 51.3 (57544) - http://www.bohemiancoding.com/sketch -->
    <title>fundamentals/the-browser/tc39</title>
    <desc>Created with Sketch.</desc>
    <defs></defs>
    <g id="fundamentals/the-browser/tc39" stroke="none" stroke-width="1" fill="none" fill-rule="evenodd">
        <g id="container" transform="translate(2.000000, 2.000000)" fill="#FC7C00" fill-rule="nonzero" stroke="#000000" stroke-width="2">
            <rect id="mask" x="-1" y="-1" width="71" height="71" rx="14"></rect>
        </g>
        <path d="M37.058,42.46 C36.8846658,42.46 36.7373339,42.3993339 36.616,42.278 C36.4946661,42.1566661 36.434,42.0093342 36.434,41.836 L36.434,27.51 L31.624,27.51 C31.4506658,27.51 31.3033339,27.4493339 31.182,27.328 C31.0606661,27.2066661 31,27.0506676 31,26.86 L31,24.91 C31,24.7193324 31.0563328,24.5633339 31.169,24.442 C31.2816672,24.3206661 31.4333324,24.26 31.624,24.26 L44.91,24.26 C45.1006676,24.26 45.2566661,24.3206661 45.378,24.442 C45.4993339,24.5633339 45.56,24.7193324 45.56,24.91 L45.56,26.86 C45.56,27.0506676 45.4993339,27.2066661 45.378,27.328 C45.2566661,27.4493339 45.1006676,27.51 44.91,27.51 L40.126,27.51 L40.126,41.836 C40.126,42.0093342 40.0696672,42.1566661 39.957,42.278 C39.8443328,42.3993339 39.6926676,42.46 39.502,42.46 L37.058,42.46 Z M54.868,42.72 C52.475988,42.72 50.6256732,42.1090061 49.317,40.887 C48.0083268,39.6649939 47.3106671,37.9273446 47.224,35.674 C47.2066666,35.2059977 47.198,34.4433386 47.198,33.386 C47.198,32.311328 47.2066666,31.5313358 47.224,31.046 C47.3106671,28.8273222 48.0126601,27.0983395 49.33,25.859 C50.6473399,24.6196605 52.4933215,24 54.868,24 C56.4106744,24 57.7539943,24.2643307 58.898,24.793 C60.0420057,25.3216693 60.9303302,26.0453287 61.563,26.964 C62.1956698,27.8826713 62.5293332,28.9139943 62.564,30.058 L62.564,30.11 C62.564,30.2486674 62.5076672,30.3656662 62.395,30.461 C62.2823328,30.5563338 62.1566674,30.604 62.018,30.604 L59.496,30.604 C59.287999,30.604 59.1320005,30.5563338 59.028,30.461 C58.9239995,30.3656662 58.8373337,30.1966679 58.768,29.954 C58.5079987,28.879328 58.0573365,28.1210022 57.416,27.679 C56.7746635,27.2369978 55.9253386,27.016 54.868,27.016 C52.3893209,27.016 51.0980005,28.4026528 50.994,31.176 C50.9766666,31.6440023 50.968,32.3633285 50.968,33.334 C50.968,34.3046715 50.9766666,35.0413308 50.994,35.544 C51.0980005,38.3173472 52.3893209,39.704 54.868,39.704 C55.9080052,39.704 56.7529968,39.4830022 57.403,39.041 C58.0530033,38.5989978 58.5079987,37.840672 58.768,36.766 C58.8373337,36.5233321 58.9239995,36.3543338 59.028,36.259 C59.1320005,36.1636662 59.287999,36.116 59.496,36.116 L62.018,36.116 C62.1740008,36.116 62.3083328,36.1679995 62.421,36.272 C62.5336672,36.3760005 62.5813334,36.5059992 62.564,36.662 C62.5293332,37.8060057 62.1956698,38.8373287 61.563,39.756 C60.9303302,40.6746713 60.0420057,41.3983307 58.898,41.927 C57.7539943,42.4556693 56.4106744,42.72 54.868,42.72 Z M38.514,63.72 C36.9713256,63.72 35.6670053,63.4773358 34.601,62.992 C33.5349947,62.5066642 32.7376693,61.8956704 32.209,61.159 C31.6803307,60.4223297 31.3986668,59.6640039 31.364,58.884 C31.364,58.7279992 31.4159995,58.5980005 31.52,58.494 C31.6240005,58.3899995 31.7539992,58.338 31.91,58.338 L34.302,58.338 C34.6833352,58.338 34.9433326,58.5113316 35.082,58.858 C35.4633352,60.0886728 36.6073238,60.704 38.514,60.704 C39.5713386,60.704 40.398997,60.4613358 40.997,59.976 C41.595003,59.4906642 41.894,58.7973378 41.894,57.896 C41.894,56.9946622 41.6210027,56.3403354 41.075,55.933 C40.5289973,55.5256646 39.7273386,55.322 38.67,55.322 L35.992,55.322 C35.8186658,55.322 35.6713339,55.2613339 35.55,55.14 C35.4286661,55.0186661 35.368,54.8713342 35.368,54.698 L35.368,53.58 C35.368,53.250665 35.4806655,52.9906676 35.706,52.8 L40.334,48.276 L32.924,48.276 C32.7333324,48.276 32.5773339,48.2153339 32.456,48.094 C32.3346661,47.9726661 32.274,47.8253342 32.274,47.652 L32.274,45.91 C32.274,45.7193324 32.3346661,45.5633339 32.456,45.442 C32.5773339,45.3206661 32.7333324,45.26 32.924,45.26 L44.104,45.26 C44.2946676,45.26 44.4506661,45.3206661 44.572,45.442 C44.6933339,45.5633339 44.754,45.7193324 44.754,45.91 L44.754,47.496 C44.754,47.7906681 44.6413345,48.0333324 44.416,48.224 L39.944,52.826 L40.256,52.852 C41.9200083,52.9906674 43.2416618,53.493329 44.221,54.36 C45.2003382,55.226671 45.69,56.4659919 45.69,58.078 C45.69,59.2220057 45.3823364,60.2186624 44.767,61.068 C44.1516636,61.9173376 43.3023388,62.5716644 42.219,63.031 C41.1356612,63.4903356 39.9006736,63.72 38.514,63.72 Z M51.566,63.46 C51.4099992,63.46 51.2800005,63.4036672 51.176,63.291 C51.0719995,63.1783328 51.02,63.0440008 51.02,62.888 C51.02,62.7839995 51.0633329,62.6713339 51.15,62.55 L54.972,57.298 C54.6773319,57.3673337 54.3133355,57.402 53.88,57.402 C52.7359943,57.3673332 51.6916714,57.0770027 50.747,56.531 C49.8023286,55.9849973 49.0526694,55.2570046 48.498,54.347 C47.9433306,53.4369955 47.666,52.4273389 47.666,51.318 C47.666,50.2259945 47.934664,49.1990048 48.472,48.237 C49.009336,47.2749952 49.8066614,46.495003 50.864,45.897 C51.9213386,45.298997 53.1953259,45 54.686,45 C56.1940075,45 57.485328,45.2816639 58.56,45.845 C59.634672,46.4083362 60.4449973,47.1623286 60.991,48.107 C61.5370027,49.0516714 61.81,50.0873277 61.81,51.214 C61.81,51.9246702 61.6973345,52.5919969 61.472,53.216 C61.2466655,53.8400031 60.9910014,54.3816644 60.705,54.841 C60.4189986,55.3003356 60.0160026,55.8939964 59.496,56.622 L54.946,62.94 C54.8073326,63.1133342 54.6773339,63.2433329 54.556,63.33 C54.4346661,63.4166671 54.270001,63.46 54.062,63.46 L51.566,63.46 Z M54.712,54.594 C55.6653381,54.594 56.4626635,54.295003 57.104,53.697 C57.7453365,53.098997 58.066,52.3060049 58.066,51.318 C58.066,50.3126616 57.7453365,49.511003 57.104,48.913 C56.4626635,48.314997 55.6653381,48.016 54.712,48.016 C53.7759953,48.016 52.9873365,48.314997 52.346,48.913 C51.7046635,49.511003 51.384,50.3126616 51.384,51.318 C51.384,52.3060049 51.7003302,53.098997 52.333,53.697 C52.9656698,54.295003 53.7586619,54.594 54.712,54.594 Z" id="TC-39" fill="#000000"></path>
    </g>
</svg>