<?xml version="1.0" encoding="UTF-8"?>
<svg width="73px" height="73px" viewBox="0 0 73 73" version="1.1" xmlns="http://www.w3.org/2000/svg" xmlns:xlink="http://www.w3.org/1999/xlink">
    <!-- Generator: Sketch 51.3 (57544) - http://www.bohemiancoding.com/sketch -->
    <title>fundamentals/the-browser/the-internet</title>
    <desc>Created with Sketch.</desc>
    <defs></defs>
    <g id="fundamentals/the-browser/the-internet" stroke="none" stroke-width="1" fill="none" fill-rule="evenodd">
        <g id="container" transform="translate(2.000000, 2.000000)" fill="#FFFFFF" fill-rule="nonzero" stroke="#5C546A" stroke-width="2">
            <rect id="mask" x="-1" y="-1" width="71" height="71" rx="14"></rect>
        </g>
        <g id="paper-plane" transform="translate(8.000000, 16.000000)" fill-rule="nonzero">
            <path d="M15.4859375,42.0011543 L23.091127,33.7199043 L21.461998,29.4671719 C21.461998,29.4671719 16.562293,30.1573105 16.4242031,30.571373 C16.2862168,30.9854355 15.8721543,36.5062344 15.8031094,37.4724492 C15.734168,38.438457 15.4859375,42.0011543 15.4859375,42.0011543" id="Shape" fill="#5C546A"></path>
            <path d="M52.7685391,0.253613281 C52.5388379,0.0158378906 52.1911289,-0.0617988281 51.883791,0.0514472656 L0.540041016,19.0983223 C0.226285156,19.2147773 0.0135605469,19.5083477 0.00062109375,19.8427031 C-0.0123183594,20.1770586 0.176908203,20.4864668 0.481037109,20.6267305 L9.71742578,24.8890898 C10.4356172,25.2210645 10.9572324,25.8822188 11.1125059,26.6577578 L14.0942734,41.568459 C14.1630078,41.9105781 14.4387734,42.1734043 14.7841016,42.2251621 C15.1237363,42.274125 15.4690645,42.1059121 15.6357246,41.7985742 L20.3433047,33.0563691 C20.471043,32.8190078 20.6975352,32.6624922 20.9643984,32.6277109 C21.2337461,32.5929297 21.4900508,32.684748 21.6744121,32.8812207 L33.3496289,45.2861191 C33.5081113,45.453918 33.7265293,45.5465645 33.952918,45.5465645 C34.0022949,45.5465645 34.0523965,45.5421133 34.1017734,45.5332109 C34.3783672,45.4826953 34.6104492,45.2954355 34.718002,45.0358184 L52.936752,1.14519336 C53.062834,0.841167969 52.996584,0.490974609 52.7685391,0.253613281 Z" id="Shape" fill="#B9BBC1"></path>
            <path d="M52.3994023,0.0377832031 L10.4785762,25.4591504 C10.7903652,25.7929883 11.020791,26.2001152 11.1125059,26.6576543 L14.0942734,41.5683555 C14.1630078,41.9104746 14.4387734,42.1733008 14.7841016,42.2250586 C15.1237363,42.2740215 15.4690645,42.1058086 15.6357246,41.7984707 L20.3433047,33.0562656 C20.3764297,32.9947773 20.4318105,32.9558555 20.4771504,32.9059609 C20.4807734,32.8877422 20.484293,32.869627 20.484293,32.869627 L52.7621211,0.248748047 C52.6597441,0.144818359 52.5336621,0.0763945313 52.3994023,0.0377832031 Z" id="Shape" fill="#8B8996"></path>
        </g>
    </g>
</svg>