<?xml version="1.0" encoding="UTF-8"?>
<svg width="73px" height="73px" viewBox="0 0 73 73" version="1.1" xmlns="http://www.w3.org/2000/svg" xmlns:xlink="http://www.w3.org/1999/xlink">
    <!-- Generator: Sketch 51.3 (57544) - http://www.bohemiancoding.com/sketch -->
    <title>fundamentals/the-browser/w3c</title>
    <desc>Created with Sketch.</desc>
    <defs></defs>
    <g id="fundamentals/the-browser/w3c" stroke="none" stroke-width="1" fill="none" fill-rule="evenodd">
        <g id="container" transform="translate(2.000000, 2.000000)" fill="#FFFFFF" fill-rule="nonzero" stroke="#034372" stroke-width="2">
            <rect id="mask" x="-1" y="-1" width="71" height="71" rx="14"></rect>
        </g>
        <g id="W3C®_Icon" transform="translate(9.000000, 23.000000)" fill-rule="nonzero">
            <path d="M13.25856,0.39536 L18.00596,16.5354 L22.7528,0.39536 L35.62272,0.39536 L35.62272,1.99976 L30.77676,10.34824 C32.47916,10.89396 33.7666,11.88768 34.63936,13.32772 C35.51268,14.7686 35.94976,16.45924 35.94976,18.4016 C35.94976,20.80344 35.31052,22.82196 34.03344,24.45828 C32.75636,26.0946 31.10324,26.91332 29.0738,26.91332 C27.54556,26.91332 26.21472,26.42836 25.08044,25.45704 C23.94532,24.48572 23.10532,23.17112 22.55988,21.51184 L25.24368,20.39884 C25.6368,21.40292 26.15536,22.1942 26.79936,22.77184 C27.44308,23.35032 28.2016,23.63984 29.07436,23.63984 C29.99024,23.63984 30.76584,23.12688 31.39864,22.10152 C32.032,21.0756 32.34868,19.84304 32.34868,18.40132 C32.34868,16.80784 32.01016,15.57444 31.33424,14.70168 C30.54716,13.67632 29.31404,13.1628 27.63376,13.1628 L26.32504,13.1628 L26.32504,11.59172 L30.9078,3.66856 L25.3764,3.66856 L25.06168,4.20448 L18.333,26.90912 L18.00568,26.90912 L13.09448,10.47564 L8.1844,26.90912 L7.85736,26.90912 L0.00168,0.39424 L3.43896,0.39424 L8.1858,16.53428 L11.3946,5.66608 L9.82352,0.3948 L13.25996,0.3948 L13.25996,0.39368 L13.25856,0.39536 Z" id="Shape" fill="#005A9C"></path>
            <path d="M53.4856,0.39536 C52.8108,0.39536 52.20488,0.63868 51.7454,1.10516 C51.2582,1.6002 50.98688,2.23944 50.98688,2.90052 C50.98688,3.5616 51.24504,4.17424 51.71796,4.655 C52.19872,5.1422 52.8178,5.40708 53.48588,5.40708 C54.1394,5.40708 54.77388,5.14248 55.26696,4.66284 C55.73988,4.20336 55.99804,3.591 55.99804,2.90192 C55.99804,2.23356 55.73344,1.60748 55.27452,1.141 C54.79852,0.6524 54.17132,0.39536 53.48812,0.39536 L53.4856,0.39536 Z M55.664,2.92208 C55.664,3.5 55.44028,4.0362 55.0312,4.43212 C54.59916,4.85044 54.06324,5.07304 53.4716,5.07304 C52.91552,5.07304 52.36588,4.844 51.95456,4.42596 C51.54436,4.00764 51.3142,3.47228 51.3142,2.90192 C51.3142,2.331 51.55108,1.77436 51.97528,1.34344 C52.37176,0.9394 52.90712,0.72436 53.49176,0.72436 C54.09068,0.72436 54.62604,0.94808 55.0438,1.37144 C55.4498,1.77408 55.6654,2.31588 55.6654,2.92208 L55.664,2.92208 Z M53.5556,1.4322 L52.48432,1.4322 L52.48432,4.27224 L53.02024,4.27224 L53.02024,3.06152 L53.54972,3.06152 L54.12736,4.27224 L54.72572,4.27224 L54.0918,2.97836 C54.502,2.89408 54.73944,2.61632 54.73944,2.21284 C54.74224,1.69764 54.35024,1.4322 53.55784,1.4322 L53.5556,1.4322 Z M53.4576,1.78052 C53.95852,1.78052 54.18812,1.91996 54.18812,2.26772 C54.18812,2.6012 53.95852,2.72048 53.47048,2.72048 L53.01772,2.72048 L53.01772,1.78052 L53.45732,1.78052 L53.4576,1.78052 Z" id="Shape" fill="#000000"></path>
            <path d="M49.2716,0.24668 L49.82824,3.63188 L47.85732,7.4032 C47.85732,7.4032 47.10104,5.803 45.84384,4.9182 C44.78516,4.17228 44.09496,4.00988 43.01584,4.23248 C41.63012,4.51836 40.05876,6.17512 39.37304,8.218 C38.55264,10.66156 38.54452,11.84484 38.5154,12.93096 C38.46948,14.6734 38.74388,15.70184 38.74388,15.70184 C38.74388,15.70184 37.54688,13.48816 37.55836,10.24576 C37.56592,7.93072 37.9302,5.83184 39.00092,3.76096 C39.94312,1.93984 41.34368,0.84672 42.58688,0.7182 C43.87208,0.58576 44.88708,1.20484 45.67248,1.87488 C46.49596,2.57936 47.32896,4.11768 47.32896,4.11768 L49.26656,0.24668 L49.2716,0.24668 Z" id="Shape" fill="#000000"></path>
            <path d="M49.5152,19.40092 C49.5152,19.40092 48.64412,20.95856 48.10148,21.55832 C47.55856,22.15892 46.58724,23.21536 45.388,23.74428 C44.18876,24.27264 43.55988,24.37148 42.37408,24.25836 C41.18996,24.14468 40.08928,23.45896 39.70372,23.1728 C39.31816,22.88664 38.33228,22.04468 37.7748,21.25872 C37.21704,20.47276 36.34624,18.90224 36.34624,18.90224 C36.34624,18.90224 36.8312,20.47668 37.13584,21.14504 C37.31028,21.53004 37.84732,22.70632 38.61032,23.73 C39.3218,24.6848 40.70332,26.32924 42.80276,26.70052 C44.9022,27.07236 46.34476,26.12904 46.70204,25.90112 C47.05848,25.6732 47.81112,25.04264 48.28796,24.5322 C48.78496,24.00132 49.25592,23.3226 49.51576,22.91576 C49.70672,22.61812 50.01668,22.01556 50.01668,22.01556 L49.51548,19.40288 L49.5152,19.40092 Z" id="Shape" fill="#000000"></path>
        </g>
    </g>
</svg>