<?xml version="1.0" encoding="UTF-8"?>
<svg width="73px" height="73px" viewBox="0 0 73 73" version="1.1" xmlns="http://www.w3.org/2000/svg" xmlns:xlink="http://www.w3.org/1999/xlink">
    <!-- Generator: Sketch 51.3 (57544) - http://www.bohemiancoding.com/sketch -->
    <title>fundamentals/the-browser/webkit</title>
    <desc>Created with Sketch.</desc>
    <defs>
        <linearGradient x1="50%" y1="0%" x2="50%" y2="100%" id="linearGradient-1">
            <stop stop-color="#34AADC" offset="0%"></stop>
            <stop stop-color="#007AFF" offset="100%"></stop>
        </linearGradient>
    </defs>
    <g id="fundamentals/the-browser/webkit" stroke="none" stroke-width="1" fill="none" fill-rule="evenodd">
        <g id="container" transform="translate(2.000000, 2.000000)" fill="#FFFFFF" fill-rule="nonzero" stroke="#074483" stroke-width="2">
            <rect id="mask" x="-1" y="-1" width="71" height="71" rx="14"></rect>
        </g>
        <g id="WebKit_logo_(2015)" transform="translate(12.000000, 10.000000)" fill-rule="nonzero">
            <path d="M46.2041595,30.1240072 C49.5483945,32.7317084 49.5483945,37.0217974 46.2041595,39.6500394 L30.4718766,52.0155903 C27.1276416,54.6232915 21.6833562,54.6232915 18.3391212,52.0155903 L2.60683832,39.6715584 C-0.737005399,37.0638571 -0.737005399,32.7737681 2.60674051,30.1445479 L18.3390234,17.7799752 C21.6832584,15.172274 27.1275438,15.172274 30.4717788,17.7799752 L46.2040617,30.1240072 L46.2041595,30.1240072 Z" id="ID0.8302284553647041" fill="#FF9D00"></path>
            <path d="M18.3772684,44.2971469 L2.57455995,31.8777987 C0.98157338,30.6297017 0.0989066243,28.9580732 0.0989066243,27.1808065 C0.0989066243,25.4035398 0.98157338,23.7319114 2.57475557,22.4838143 L18.377464,10.0429472 C19.9708418,8.79485016 22.1237114,8.09665919 24.4056945,8.09665919 C26.6876776,8.09665919 28.8190283,8.79485016 30.433925,10.0429472 L46.2366335,22.4622954 C47.8300113,23.7113706 48.7122868,25.3820209 48.7122868,27.1592876 C48.7122868,28.9365543 47.8300113,30.6081827 46.2366335,31.8562798 L30.433925,44.2766061 C28.8190283,45.5452439 26.6876776,46.2436305 24.4056945,46.2436305 C22.1237114,46.2436305 19.9923608,45.5452439 18.377464,44.2971469 L18.3772684,44.2971469 Z" id="ID0.3712872979231179" fill="#FFCC00"></path>
            <path d="M18.3772684,36.472087 L2.57455995,24.0527388 C0.98157338,22.8046418 0.0989066243,21.1330133 0.0989066243,19.3557466 C0.0989066243,17.5784799 0.98157338,15.9068515 2.57475557,14.6587544 L18.377464,2.21788732 C19.9708418,0.969790267 22.1237114,0.271599298 24.4056945,0.271599298 C26.6876776,0.271599298 28.8190283,0.969790267 30.433925,2.21808295 L46.2366335,14.6374311 C47.8300113,15.8865063 48.7122868,17.5571566 48.7122868,19.3344233 C48.7122868,21.1116901 47.8300113,22.7833185 46.2366335,24.0314155 L30.433925,36.4517418 C28.8190283,37.7203797 26.6876776,38.4187663 24.4056945,38.4187663 C22.1237114,38.4187663 19.9923608,37.7203797 18.377464,36.4722826 L18.3772684,36.472087 Z" id="ID0.9957641870714724" fill="url(#linearGradient-1)"></path>
            <path d="M24.4602743,31.2576627 C32.534758,31.2576627 39.0813987,25.907278 39.0813987,19.30684 C39.0813987,12.7054238 32.534758,7.35503914 24.4602743,7.35503914 C16.3848125,7.35484351 9.83914992,12.7054238 9.83914992,19.30684 C9.83914992,25.907278 16.3848125,31.2576627 24.4602743,31.2576627 Z M24.4602743,32.4881534 C15.5533999,32.4881534 8.33380403,26.586102 8.33380403,19.30684 C8.33380403,12.0265999 15.5533999,6.12454847 24.4602743,6.12454847 C33.3661706,6.12454847 40.5867446,12.0265999 40.5867446,19.30684 C40.5867446,26.586102 33.3661706,32.4881534 24.4602743,32.4881534 Z" id="ID0.6257995660416782" fill="#FFFFFF"></path>
            <path d="M25.5381763,24.3794351 C26.3461138,24.2737968 27.1335104,24.0478481 27.8553722,23.7035455 L32.4574855,25.5952537 L30.046389,21.9839886 C31.3150268,20.3495292 31.3150268,18.280779 30.046389,16.6472978 L32.4574855,13.0360326 L28.119468,14.81819 L27.9952451,16.7255484 C29.7685993,18.2132879 29.7236052,20.561784 27.8808036,21.9976825 C27.4103219,22.3732853 26.8703928,22.6373811 26.3040541,22.8251825 L25.5381763,24.3794351 Z M23.3862849,14.2479388 C22.051134,14.4220464 21.0505045,14.9277408 21.0505045,14.9277408 L16.4523037,13.0360326 L18.8634002,16.6472978 C17.5947624,18.280779 17.5947624,20.3495292 18.8634002,21.9839886 L16.4523037,25.5952537 L20.9086753,23.7632116 L21.0035541,21.9771417 C19.1392336,20.4942928 19.1539056,18.1223215 21.0338762,16.6326258 C21.4711015,16.2413728 22.4599934,15.8266446 22.6076914,15.8051257 L23.3862849,14.2479388 Z" id="ID0.301041669677943" fill="#8CC8F6"></path>
            <path d="M22.2477386,18.9116745 L21.6354277,29.7689451 L26.5955375,19.7000492 L27.3056617,8.86331943 L22.2477386,18.9116745 Z M22.18416,27.6825885 L26.1563561,19.6217986 L22.6751825,18.9869907 L22.18416,27.6825885 Z" id="ID0.4981478536501527" fill="#FFFFFF"></path>
        </g>
    </g>
</svg>