<?xml version="1.0" encoding="UTF-8"?>
<svg width="73px" height="73px" viewBox="0 0 73 73" version="1.1" xmlns="http://www.w3.org/2000/svg" xmlns:xlink="http://www.w3.org/1999/xlink">
    <!-- Generator: Sketch 51.3 (57544) - http://www.bohemiancoding.com/sketch -->
    <title>the-modern-web/beacon</title>
    <desc>Created with Sketch.</desc>
    <defs></defs>
    <g id="the-modern-web/beacon" stroke="none" stroke-width="1" fill="none" fill-rule="evenodd">
        <g id="container" transform="translate(2.000000, 2.000000)" fill="#FFFFFF" fill-rule="nonzero" stroke="#470C05" stroke-width="2">
            <rect id="mask" x="-1" y="-1" width="71" height="71" rx="14"></rect>
        </g>
        <g id="egg" transform="translate(12.000000, 12.000000)" fill-rule="nonzero">
            <circle id="Oval" fill="#F2D383" cx="24.9737537" cy="24.9737537" r="24.9737537"></circle>
            <circle id="Oval" fill="#D9A460" cx="24.9737537" cy="24.9737537" r="20.2555718"></circle>
            <g id="Group" transform="translate(26.246334, 18.914956)">
                <path d="M15.373607,2.80205279 C14.2922287,4.87346041 15.1875367,6.04765396 14.0844575,8.15997067 C13.0030792,10.231085 11.5277126,10.1671554 10.4244868,12.2796188 C9.34296188,14.3510264 10.238563,15.5252199 9.13533724,17.63739 C8.05381232,19.708651 6.57844575,19.6445748 5.47521994,21.7567449 L0.125513196,18.9631965 C1.22859238,16.8508798 2.70381232,16.9145161 3.78548387,14.8435484 C4.88856305,12.731085 3.9931085,11.5570381 5.07463343,9.48577713 C6.17771261,7.37346041 7.65307918,7.43768328 8.73445748,5.36612903 C9.83768328,3.25381232 8.94222874,2.07947214 10.0237537,0.00835777126 L15.373607,2.80205279 Z" id="Shape" fill="#BF4132"></path>
                <path d="M11.9466276,1.01260997 C10.864956,3.08357771 11.7605572,4.25806452 10.6576246,6.37038123 C9.57595308,8.4414956 8.10058651,8.37756598 6.99750733,10.4900293 C5.9159824,12.5611437 6.81158358,13.7353372 5.70835777,15.8473607 C4.62683284,17.918915 3.15146628,17.8548387 2.04853372,19.9673021 L1.24090909,19.5456012 C2.34384164,17.4334311 3.81920821,17.4972141 4.90087977,15.4258065 C6.00395894,13.313783 5.10865103,12.1394428 6.19002933,10.0683284 C7.2931085,7.95615836 8.76847507,8.01994135 9.85014663,5.94882698 C10.9532258,3.83621701 10.0576246,2.66202346 11.1391496,0.590615836 L11.9466276,1.01260997 Z" id="Shape" fill="#F47660"></path>
                <path d="M13.9398827,2.05337243 C12.8583578,4.12478006 13.7536657,5.29868035 12.6507331,7.4111437 C11.5692082,9.48240469 10.0938416,9.41818182 8.99061584,11.5306452 C7.90909091,13.6020528 8.80469208,14.7765396 7.7016129,16.8882698 C6.62008798,18.9596774 5.14472141,18.8957478 4.04164223,21.0082111 L3.23387097,20.586217 C4.33680352,18.4741935 5.81231672,18.5379765 6.89398827,16.4665689 C7.99692082,14.3543988 7.10131965,13.1802053 8.1829912,11.1090909 C9.28607038,8.99648094 10.7611437,9.06055718 11.8428152,6.98944282 C12.9458944,4.8771261 12.0505865,3.70278592 13.1321114,1.63167155 L13.9398827,2.05337243 Z" id="Shape" fill="#F47660"></path>
            </g>
            <g id="Group" transform="translate(14.076246, 9.237537)">
                <path d="M0.351319648,1.19266862 C2.6856305,1.29662757 3.37111437,-0.0112903226 5.75190616,0.095601173 C8.08592375,0.199853372 8.6516129,1.56392962 11.0326979,1.67052786 C13.3670088,1.77492669 14.052346,0.466715543 16.4329912,0.573313783 C18.7673021,0.677859238 19.3329912,2.04193548 21.7134897,2.14868035 L21.4438416,8.17785924 C19.0630499,8.071261 18.4970674,6.70733138 16.1630499,6.60307918 C13.7822581,6.49618768 13.0967742,7.80410557 10.76261,7.69985337 C8.38196481,7.59325513 7.81642229,6.22917889 5.48196481,6.12492669 C3.10117302,6.01818182 2.41554252,7.32639296 0.0815249267,7.22184751 L0.351319648,1.19266862 Z" id="Shape" fill="#BF4132"></path>
                <path d="M0.178592375,5.05469208 C2.5127566,5.15938416 3.1983871,3.85117302 5.57888563,3.95777126 C7.91304985,4.06217009 8.47888563,5.42609971 10.8595308,5.53255132 C13.1938416,5.63709677 13.8793255,4.32932551 16.2596774,4.43592375 C18.5942815,4.54017595 19.1599707,5.9042522 21.5406158,6.01070381 L21.5,6.92052786 C19.1196481,6.81422287 18.5536657,5.45 16.2190616,5.34604106 C13.8387097,5.23914956 13.1530792,6.54706745 10.818915,6.44266862 C8.43856305,6.33607038 7.87243402,4.97214076 5.53841642,4.86759531 C3.15733138,4.76129032 2.47199413,6.06920821 0.137683284,5.96480938 L0.178592375,5.05469208 Z" id="Shape" fill="#F47660"></path>
                <path d="M0.279032258,2.80821114 C2.61348974,2.9127566 3.29868035,1.60513196 5.67947214,1.71143695 C8.01378299,1.8159824 8.57917889,3.1797654 10.9602639,3.28651026 C13.2944282,3.39076246 13.9802053,2.08269795 16.3604106,2.18944282 C18.6945748,2.29369501 19.2604106,3.65791789 21.6412023,3.7643695 L21.6004399,4.6744868 C19.2202346,4.56803519 18.6541056,3.20410557 16.3196481,3.09985337 C13.9391496,2.99325513 13.2539589,4.30117302 10.9196481,4.19662757 C8.53870968,4.09002933 7.97302053,2.72624633 5.6388563,2.62155425 C3.25821114,2.51495601 2.57272727,3.8228739 0.238416422,3.71847507 L0.279032258,2.80821114 Z" id="Shape" fill="#F47660"></path>
            </g>
            <g id="Group" transform="translate(8.651026, 18.035191)">
                <circle id="Oval" fill="#FFFFFF" cx="9.87800587" cy="9.90659824" r="9.7627566"></circle>
                <circle id="Oval" fill="#FEDD3D" cx="11.3340176" cy="8.93607038" r="3.6797654"></circle>
                <path d="M3.86363636,11.7024927 C3.86363636,11.13739 3.40557185,10.6790323 2.84061584,10.6790323 C2.2755132,10.6790323 1.81730205,11.13739 1.81730205,11.7024927 C1.81730205,12.2673021 2.2755132,12.7258065 2.84061584,12.7258065 C3.40557185,12.7258065 3.86363636,12.2673021 3.86363636,11.7024927 Z" id="Shape" fill="#D1D3D3"></path>
                <circle id="Oval" fill="#D1D3D3" cx="4.5840176" cy="6.58255132" r="1"></circle>
                <circle id="Oval" fill="#D1D3D3" cx="9.15777126" cy="17.066129" r="1"></circle>
            </g>
        </g>
    </g>
</svg>