<?xml version="1.0" encoding="UTF-8"?>
<svg width="73px" height="73px" viewBox="0 0 73 73" version="1.1" xmlns="http://www.w3.org/2000/svg" xmlns:xlink="http://www.w3.org/1999/xlink">
    <!-- Generator: Sketch 51.3 (57544) - http://www.bohemiancoding.com/sketch -->
    <title>the-modern-web/browser-extensions</title>
    <desc>Created with Sketch.</desc>
    <defs>
        <rect id="path-1" x="6" y="0" width="69" height="69" rx="14"></rect>
    </defs>
    <g id="the-modern-web/browser-extensions" stroke="none" stroke-width="1" fill="none" fill-rule="evenodd">
        <g id="container" transform="translate(-4.000000, 2.000000)">
            <rect id="mask" stroke="#61130D" stroke-width="2" fill="#FFFFFF" fill-rule="nonzero" x="5" y="-1" width="71" height="71" rx="14"></rect>
            <mask id="mask-2" fill="white">
                <use xlink:href="#path-1"></use>
            </mask>
            <rect stroke="#61130D" stroke-width="2" x="5" y="-1" width="71" height="71" rx="14"></rect>
            <g id="electric-car" mask="url(#mask-2)" fill-rule="nonzero">
                <g transform="translate(0.000000, 11.000000)">
                    <polygon id="Shape" fill="#C7463B" points="62.6822134 27.9749646 56.7856616 27.9749646 63.1034483 13.2335853 64.8842069 12.1279818 67.6612371 12.1369495 69 13.2335853"></polygon>
                    <path d="M64.0862069,29.9404818 L64.0862069,36.5741025 L56.2241379,36.6969473 L56.2241379,29.9404818 C56.2241379,27.7694314 57.984122,26.0094473 60.1551724,26.0094473 C62.3262228,26.0094473 64.0862069,27.7694314 64.0862069,29.9404818 Z" id="Shape" fill="#F55648"></path>
                    <path d="M38.5344828,24.0439301 C37.9917202,24.0439301 37.5517241,23.6039341 37.5517241,23.0611715 L37.5517241,19.130137 C37.5517241,18.5873744 37.9917202,18.1473784 38.5344828,18.1473784 C39.0772454,18.1473784 39.5172414,18.5873744 39.5172414,19.130137 L39.5172414,23.0611715 C39.5172414,23.6039341 39.0772454,24.0439301 38.5344828,24.0439301 Z" id="Shape" fill="#C3C3C3"></path>
                    <path d="M46.3965517,30.9232404 L44.9245022,31.3471779 L26.8213513,31.6603094 L24.7758621,30.9232404 L29.1512263,27.4228999 C29.4999003,27.1439663 29.9331575,26.9920664 30.3796746,26.992206 L41.4827586,26.992206 L46.3965517,30.9232404 Z" id="Shape" fill="#EAEAE8"></path>
                    <path d="M48.362069,32.8887577 L48.362069,36.8197922 C48.362069,37.9053174 47.4820769,38.7853094 46.3965517,38.7853094 L12,38.7853094 L12,37.3111715 C12,33.7832146 14.8599741,30.9232404 18.387931,30.9232404 L46.3965517,30.9232404 C47.4820769,30.9232404 48.362069,31.8032325 48.362069,32.8887577 Z" id="Shape" fill="#6CBAE5"></path>
                    <polygon id="Shape" fill="#C7463B" points="54.2586207 35.8370335 66.0517241 35.8370335 66.0517241 43.1792232 54.2586207 43.1792232"></polygon>
                    <path d="M36.5689655,30.9232404 L36.5689655,34.8542749 C36.5688229,35.0068518 36.5335123,35.1573425 36.4657759,35.2940594 L34.7201509,38.7853094 L32.5224569,38.7853094 L34.6034483,34.6220982 L34.6034483,30.9232404 L36.5689655,30.9232404 Z" id="Shape" fill="#4799CF"></path>
                    <polygon id="Shape" fill="#4799CF" points="23.7931034 30.9232404 25.7586207 30.9232404 25.7586207 38.7853094 23.7931034 38.7853094"></polygon>
                    <polygon id="Shape" fill="#DBDBDB" points="37.5517241 26.992206 39.5172414 26.992206 39.5172414 30.9232404 37.5517241 30.9232404"></polygon>
                    <polygon id="Shape" fill="#C7463B" points="41.4827586 14.2163439 35.5862069 14.2163439 35.5862069 5.3715163 41.4827586 6.35427492"></polygon>
                    <polygon id="Shape" fill="#C7463B" points="36.5689655 16.1818611 36.5689655 19.130137 38.5344828 21.0956542 40.5 19.130137 40.5 16.1818611"></polygon>
                    <path d="M63.1034483,13.2335853 L41.4827586,6.35427492 L35.5862069,6.35427492 L35.5862069,2.42324043 C35.5862069,1.33771524 36.4661989,0.457723193 37.5517241,0.457723193 L41.4827586,0.457723193 L67.6364224,8.86411759 C68.4490612,9.12554974 69.0000417,9.881634 69,10.73529 L69,13.2335853 L63.1034483,13.2335853 Z" id="Shape" fill="#F55648"></path>
                    <polygon id="Shape" fill="#428DC5" points="0 41.7335853 91 41.7335853 91 76 0 76"></polygon>
                    <polygon id="Shape" fill="#3775A4" points="2 41.7335853 82 41.7335853 82 43.6991025 2 43.6991025"></polygon>
                    <polygon id="Shape" fill="#4799CF" points="27.7241379 33.8715163 31.6551724 33.8715163 31.6551724 35.8370335 27.7241379 35.8370335"></polygon>
                    <polygon id="Shape" fill="#DC4D41" points="57.2068966 35.8370335 59.1724138 35.8370335 59.1724138 41.7335853 57.2068966 41.7335853"></polygon>
                    <circle id="Oval" fill="#C3C3C3" cx="19.862069" cy="37.8025508" r="3.93103448"></circle>
                    <circle id="Oval" fill="#EAEAE8" cx="19.862069" cy="37.8025508" r="1.96551724"></circle>
                    <circle id="Oval" fill="#C3C3C3" cx="42.4655172" cy="37.8025508" r="3.93103448"></circle>
                    <circle id="Oval" fill="#EAEAE8" cx="42.4655172" cy="37.8025508" r="1.96551724"></circle>
                    <circle id="Oval" fill="#F55648" cx="38.5344828" cy="14.2163439" r="2.94827586"></circle>
                    <polygon id="Shape" fill="#B94137" points="35.5862069 6.35427492 41.4827586 6.35427492 41.4827586 8.31979216 35.5862069 8.31979216"></polygon>
                </g>
            </g>
        </g>
    </g>
</svg>