<?xml version="1.0" encoding="UTF-8"?>
<svg width="73px" height="73px" viewBox="0 0 73 73" version="1.1" xmlns="http://www.w3.org/2000/svg" xmlns:xlink="http://www.w3.org/1999/xlink">
    <!-- Generator: Sketch 51.3 (57544) - http://www.bohemiancoding.com/sketch -->
    <title>the-modern-web/clipboard</title>
    <desc>Created with Sketch.</desc>
    <defs></defs>
    <g id="the-modern-web/clipboard" stroke="none" stroke-width="1" fill="none" fill-rule="evenodd">
        <g id="container" transform="translate(2.000000, 2.000000)" fill="#FFFFFF" fill-rule="nonzero" stroke="#540903" stroke-width="2">
            <rect id="mask" x="-1" y="-1" width="71" height="71" rx="14"></rect>
        </g>
        <g id="clipboard" transform="translate(19.000000, 17.000000)" fill-rule="nonzero">
            <path d="M2.53520362,2.49497738 L32.4746154,2.49497738 C33.8468213,2.49497738 34.9695928,3.61766968 34.9695928,4.98995475 L34.9695928,37.4243439 C34.9695928,38.7965498 33.8469005,39.9193213 32.4746154,39.9193213 L2.53520362,39.9193213 C1.16299774,39.9193213 0.0402262443,38.796629 0.0402262443,37.4243439 L0.0402262443,4.98995475 C0.0403054299,3.61766968 1.16299774,2.49497738 2.53520362,2.49497738 Z" id="Shape" fill="#E2574C"></path>
            <path d="M32.4746946,2.49497738 L2.53520362,2.49497738 C1.16299774,2.49497738 0.0402262443,3.61766968 0.0402262443,4.98995475 L0.0402262443,6.54927602 C0.0402262443,5.17707014 1.16291855,4.05429864 2.53520362,4.05429864 L32.4746154,4.05429864 C33.8468213,4.05429864 34.9695928,5.17699095 34.9695928,6.54927602 L34.9695928,4.98987557 C34.9695928,3.61766968 33.8469005,2.49497738 32.4746946,2.49497738 Z" id="Shape" fill="#D05046"></path>
            <path d="M5.65392534,6.8611086 L29.3559729,6.8611086 C30.0421154,6.8611086 30.6034615,7.42245475 30.6034615,8.10859729 L30.6034615,34.3056222 C30.6034615,34.9917647 30.0421154,35.5531109 29.3559729,35.5531109 L5.65392534,35.5531109 C4.96778281,35.5531109 4.40643665,34.9917647 4.40643665,34.3056222 L4.40643665,8.10859729 C4.40643665,7.42245475 4.96778281,6.8611086 5.65392534,6.8611086 Z" id="Shape" fill="#F0DDAB"></path>
            <path d="M8.14890271,4.98987557 L26.8610747,4.98987557 C27.2041063,4.98987557 27.484819,5.27058824 27.484819,5.61361991 L27.484819,8.10859729 C27.484819,9.13777149 26.6427602,9.97983032 25.613586,9.97983032 L9.3963914,9.97983032 C8.36721719,9.97983032 7.52515837,9.13777149 7.52515837,8.10859729 L7.52515837,5.61361991 C7.52515837,5.27058824 7.80579186,4.98987557 8.14890271,4.98987557 Z" id="Shape" fill="#CCD0D2"></path>
            <path d="M12.2032014,15.905362 L25.9254186,15.905362 C26.2684502,15.905362 26.5491629,15.6246493 26.5491629,15.2816176 C26.5491629,14.938586 26.2684502,14.6578733 25.9254186,14.6578733 L12.2032014,14.6578733 C11.8601697,14.6578733 11.579457,14.938586 11.579457,15.2816176 C11.579457,15.6246493 11.8600905,15.905362 12.2032014,15.905362 Z M25.9254186,17.7765158 L12.2032014,17.7765158 C11.8601697,17.7765158 11.579457,18.0572285 11.579457,18.4002602 C11.579457,18.7432919 11.8601697,19.0240045 12.2032014,19.0240045 L25.9254186,19.0240045 C26.2684502,19.0240045 26.5491629,18.7432919 26.5491629,18.4002602 C26.5491629,18.0572285 26.2684502,17.7765158 25.9254186,17.7765158 Z M25.9254186,20.8952376 L12.2032014,20.8952376 C11.8601697,20.8952376 11.579457,21.1759502 11.579457,21.5189819 C11.579457,21.8620136 11.8601697,22.1427262 12.2032014,22.1427262 L25.9254186,22.1427262 C26.2684502,22.1427262 26.5491629,21.8620136 26.5491629,21.5189819 C26.5491629,21.1759502 26.2684502,20.8952376 25.9254186,20.8952376 Z M9.70822398,14.6578733 L9.08447964,14.6578733 C8.74144796,14.6578733 8.46073529,14.938586 8.46073529,15.2816176 C8.46073529,15.6246493 8.74144796,15.905362 9.08447964,15.905362 L9.70822398,15.905362 C10.0512557,15.905362 10.3319683,15.6246493 10.3319683,15.2816176 C10.3319683,14.9385068 10.0512557,14.6578733 9.70822398,14.6578733 Z M9.70822398,17.7765158 L9.08447964,17.7765158 C8.74144796,17.7765158 8.46073529,18.0572285 8.46073529,18.4002602 C8.46073529,18.7432919 8.74144796,19.0240045 9.08447964,19.0240045 L9.70822398,19.0240045 C10.0512557,19.0240045 10.3319683,18.7432919 10.3319683,18.4002602 C10.3319683,18.0572285 10.0512557,17.7765158 9.70822398,17.7765158 Z M9.70822398,20.8952376 L9.08447964,20.8952376 C8.74144796,20.8952376 8.46073529,21.1759502 8.46073529,21.5189819 C8.46073529,21.8620136 8.74144796,22.1427262 9.08447964,22.1427262 L9.70822398,22.1427262 C10.0512557,22.1427262 10.3319683,21.8620136 10.3319683,21.5189819 C10.3319683,21.1759502 10.0512557,20.8952376 9.70822398,20.8952376 Z M25.9254186,24.0139593 L12.2032014,24.0139593 C11.8601697,24.0139593 11.579457,24.2946719 11.579457,24.6377036 C11.579457,24.9807353 11.8601697,25.261448 12.2032014,25.261448 L25.9254186,25.261448 C26.2684502,25.261448 26.5491629,24.9807353 26.5491629,24.6377036 C26.5491629,24.2946719 26.2684502,24.0139593 25.9254186,24.0139593 Z M25.9254186,27.1326018 L12.2032014,27.1326018 C11.8601697,27.1326018 11.579457,27.4133145 11.579457,27.7563462 C11.579457,28.0993778 11.8601697,28.3800905 12.2032014,28.3800905 L25.9254186,28.3800905 C26.2684502,28.3800905 26.5491629,28.0993778 26.5491629,27.7563462 C26.5491629,27.4133145 26.2684502,27.1326018 25.9254186,27.1326018 Z M9.70822398,24.0139593 L9.08447964,24.0139593 C8.74144796,24.0139593 8.46073529,24.2946719 8.46073529,24.6377036 C8.46073529,24.9807353 8.74144796,25.261448 9.08447964,25.261448 L9.70822398,25.261448 C10.0512557,25.261448 10.3319683,24.9807353 10.3319683,24.6377036 C10.3319683,24.2946719 10.0512557,24.0139593 9.70822398,24.0139593 Z M9.70822398,27.1326018 L9.08447964,27.1326018 C8.74144796,27.1326018 8.46073529,27.4133145 8.46073529,27.7563462 C8.46073529,28.0993778 8.74144796,28.3800905 9.08447964,28.3800905 L9.70822398,28.3800905 C10.0512557,28.3800905 10.3319683,28.0993778 10.3319683,27.7563462 C10.3319683,27.4133145 10.0512557,27.1326018 9.70822398,27.1326018 Z" id="Shape" fill="#D8C69A"></path>
            <path d="M13.45069,0 L21.5592873,0 C22.5884615,0 23.4305204,0.842058824 23.4305204,1.87123303 L23.4305204,4.98995475 L11.579457,4.98995475 L11.579457,1.87123303 C11.579457,0.842058824 12.4215158,0 13.45069,0 Z" id="Shape" fill="#CCD0D2"></path>
            <path d="M7.52515837,5.61361991 L7.52515837,6.8611086 L27.484819,6.8611086 L27.484819,5.61361991 C27.484819,5.27058824 27.2041063,4.98987557 26.8610747,4.98987557 L8.14890271,4.98987557 C7.80579186,4.98987557 7.52515837,5.27058824 7.52515837,5.61361991 Z" id="Shape" fill="#BCC0C2"></path>
            <polygon id="Shape" fill="#AEB1B3" points="11.579457 3.74246606 23.4305204 3.74246606 23.4305204 4.98995475 11.579457 4.98995475"></polygon>
        </g>
    </g>
</svg>