<?xml version="1.0" encoding="UTF-8"?>
<svg width="73px" height="73px" viewBox="0 0 73 73" version="1.1" xmlns="http://www.w3.org/2000/svg" xmlns:xlink="http://www.w3.org/1999/xlink">
    <!-- Generator: Sketch 51.3 (57544) - http://www.bohemiancoding.com/sketch -->
    <title>the-modern-web/fullscreen</title>
    <desc>Created with Sketch.</desc>
    <defs></defs>
    <g id="the-modern-web/fullscreen" stroke="none" stroke-width="1" fill="none" fill-rule="evenodd">
        <g id="container" transform="translate(2.000000, 2.000000)" fill="#FFFFFF" fill-rule="nonzero" stroke="#722C54" stroke-width="2">
            <rect id="mask" x="-1" y="-1" width="71" height="71" rx="14"></rect>
        </g>
        <g id="expand" transform="translate(15.000000, 15.000000)" fill-rule="nonzero">
            <path d="M44,12.1378984 L44,0 L31.8621016,0 L36.322,4.45989844 L28.2722344,12.5096641 C26.4735625,11.3178828 24.3190234,10.6206719 22,10.6206719 C19.6809766,10.6206719 17.5264375,11.3178828 15.7277656,12.5096641 L7.678,4.45989844 L12.1378984,0 L0,0 L0,12.1378984 L4.45989844,7.678 L12.5096641,15.7277656 C11.3178828,17.5264375 10.6206719,19.6809766 10.6206719,22 C10.6206719,24.3190234 11.3178828,26.4735625 12.5096641,28.2722344 L4.45989844,36.322 L0,31.8621016 L0,44 L12.1378984,44 L7.678,39.5401016 L15.7277656,31.4903359 C17.5264375,32.6821172 19.6809766,33.3793281 22,33.3793281 C24.3190234,33.3793281 26.4735625,32.6821172 28.2722344,31.4903359 L36.322,39.5401016 L31.8621016,44 L44,44 L44,31.8621016 L39.5401016,36.322 L31.4903359,28.2722344 C32.6821172,26.4735625 33.3793281,24.3190234 33.3793281,22 C33.3793281,19.6809766 32.6821172,17.5264375 31.4903359,15.7277656 L39.5401016,7.678 L44,12.1378984 Z" id="Shape" fill="#CC66A1"></path>
            <path d="M29.5862187,22 C29.5862187,17.8101172 26.1898828,14.4137812 22,14.4137812 C17.8101172,14.4137812 14.4137812,17.8101172 14.4137812,22 C14.4137812,26.1898828 17.8101172,29.5862187 22,29.5862187 C26.1898828,29.5862187 29.5862187,26.1898828 29.5862187,22" id="Shape" fill="#EB86C4"></path>
        </g>
    </g>
</svg>