<?xml version="1.0" encoding="UTF-8"?>
<svg width="73px" height="73px" viewBox="0 0 73 73" version="1.1" xmlns="http://www.w3.org/2000/svg" xmlns:xlink="http://www.w3.org/1999/xlink">
    <!-- Generator: Sketch 51.3 (57544) - http://www.bohemiancoding.com/sketch -->
    <title>the-modern-web/generators</title>
    <desc>Created with Sketch.</desc>
    <defs>
        <rect id="path-1" x="0" y="0" width="69" height="69" rx="14"></rect>
    </defs>
    <g id="the-modern-web/generators" stroke="none" stroke-width="1" fill="none" fill-rule="evenodd">
        <g id="container" transform="translate(2.000000, 2.000000)">
            <mask id="mask-2" fill="white">
                <use xlink:href="#path-1"></use>
            </mask>
            <rect stroke="#094D85" stroke-width="2" x="-1" y="-1" width="71" height="71" rx="14"></rect>
            <g id="eolic-energy" mask="url(#mask-2)">
                <g transform="translate(13.000000, 17.000000)">
                    <path d="M22.9611585,39.7404666 C12.2481222,39.7404666 3.53248592,31.0248303 3.53248592,20.311794 C3.53248592,9.59875775 12.2481222,0.883121479 22.9611585,0.883121479 C33.6741947,0.883121479 42.389831,9.59875775 42.389831,20.311794 C42.389831,31.0248303 33.6741947,39.7404666 22.9611585,39.7404666 Z M22.9611585,2.64936444 C13.2217636,2.64936444 5.29872888,10.5723992 5.29872888,20.311794 C5.29872888,30.0511889 13.2217636,37.9742236 22.9611585,37.9742236 C32.7005533,37.9742236 40.623588,30.0511889 40.623588,20.311794 C40.623588,10.5723992 32.7005533,2.64936444 22.9611585,2.64936444 Z" id="Shape" fill="#E0E0DE" fill-rule="nonzero"></path>
                    <path d="M22.9611585,35.3248592 C14.6827777,35.3248592 7.94809331,28.5901748 7.94809331,20.311794 C7.94809331,12.0334133 14.6827777,5.29872887 22.9611585,5.29872887 C31.2395392,5.29872887 37.9742236,12.0334133 37.9742236,20.311794 C37.9742236,28.5901748 31.2395392,35.3248592 22.9611585,35.3248592 Z M22.9611585,7.06497183 C15.6451406,7.06497183 9.71433627,12.9957761 9.71433627,20.311794 C9.71433627,27.6278119 15.6451406,33.5586162 22.9611585,33.5586162 C30.2771763,33.5586162 36.2079806,27.6278119 36.2079806,20.311794 C36.2000106,12.99908 30.2738725,7.07294184 22.9611585,7.06497183 Z" id="Shape" fill="#E0E0DE" fill-rule="nonzero"></path>
                    <polygon id="Shape" fill="#348FD9" fill-rule="nonzero" points="25.6105229 51.2210458 20.311794 51.2210458 20.3901711 48.5716814 21.0779019 25.1811051 21.1949155 21.1949155 24.7274014 21.1949155 24.8455189 25.1998714 25.5321459 48.5716814"></polygon>
                    <path d="M24.8455189,25.1998714 C23.6727094,25.8526387 22.2441506,25.8455231 21.0779019,25.1811051 L21.1949155,21.1949155 L24.7274014,21.1949155 L24.8455189,25.1998714 Z" id="Shape" fill="#3086CD" fill-rule="nonzero"></path>
                    <path d="M39.4278416,27.3493891 L24.7274014,18.8621501 L24.7274014,16.7793081 L25.6105229,10.5974577 L24.0439758,1.19850624 C23.9212236,0.462452643 23.2545909,-0.0565138682 22.5109144,0.00503416263 C21.7672378,0.0665821934 21.194992,0.688080551 21.1949155,1.43429967 L21.1949155,19.097502 L19.8563241,19.8702333 L14.0608394,22.1963753 L6.70443749,28.2524912 C6.12853478,28.7268629 6.01250425,29.5635411 6.43758417,30.1767291 C6.86266408,30.7899171 7.6868685,30.9747968 8.33313428,30.6019255 L23.164718,22.0389589 L24.3722762,22.7361833 L29.2846394,26.5918916 L38.2075885,29.9347272 C38.9065031,30.1967885 39.6895842,29.878992 40.0082098,29.2039843 C40.3268354,28.5289765 40.0744842,27.7224224 39.4279519,27.3493891 L39.4278416,27.3493891 Z" id="Shape" fill="#3086CD" fill-rule="nonzero"></path>
                    <circle id="Oval" fill="#348FD9" fill-rule="nonzero" cx="22.9611585" cy="20.311794" r="3.53248592"></circle>
                    <g id="Group" stroke-width="1" fill="none" fill-rule="evenodd">
                        <path d="M38.6425258,4.38845141 L38.1052568,4.32011989 C37.4490975,1.98437396 39.3515619,-0.274209219 41.7215288,0.0271559855 L42.2587979,0.0954875099 C42.9149571,2.43123343 41.0124927,4.68981662 38.6425258,4.38845141 Z" id="Shape" fill="#7EB457" fill-rule="nonzero"></path>
                        <path d="M28.2870433,14.7982458 L28.3553748,14.2609768 C30.6911208,13.6048176 32.9497039,15.507282 32.6483387,17.8772489 L32.5800072,18.4145179 C30.2442613,19.0706772 27.9856781,17.1682127 28.2870433,14.7982458 Z" id="Shape" fill="#7EB457" fill-rule="nonzero"></path>
                        <path d="M37.7594043,40.5964321 L37.2221353,40.5281005 C36.565976,38.1923546 38.4684405,35.9337714 40.8384073,36.2351366 L41.3756764,36.3034682 C42.0318356,38.6392141 40.1293712,40.8977973 37.7594043,40.5964321 Z" id="Shape" fill="#7EB457" fill-rule="nonzero"></path>
                        <path d="M0.668302179,9.68718029 L0.131033149,9.61884876 C-0.52512611,7.28310284 1.37733834,5.02451966 3.74730522,5.32588486 L4.28457425,5.39421638 C4.94073351,7.72996231 3.03826906,9.98854549 0.668302179,9.68718029 Z" id="Shape" fill="#7EB457" fill-rule="nonzero"></path>
                        <path d="M2.67652042,35.1100399 L2.74485195,34.5727708 C5.08059787,33.9166116 7.33918105,35.819076 7.03781585,38.1890429 L6.96948432,38.7263119 C4.6337384,39.3824712 2.37515522,37.4800067 2.67652042,35.1100399 Z" id="Shape" fill="#7EB457" fill-rule="nonzero"></path>
                    </g>
                    <polygon id="Shape" fill="#3086CD" fill-rule="nonzero" points="25.6105229 51.2210458 20.311794 51.2210458 20.3901711 48.5716814 25.5321459 48.5716814"></polygon>
                    <polygon id="Shape" fill="#348FD9" fill-rule="nonzero" points="16.7793081 50.3379243 29.1430088 50.3379243 29.1430088 52.1041673 16.7793081 52.1041673"></polygon>
                </g>
            </g>
        </g>
    </g>
</svg>