<?xml version="1.0" encoding="UTF-8"?>
<svg width="73px" height="73px" viewBox="0 0 73 73" version="1.1" xmlns="http://www.w3.org/2000/svg" xmlns:xlink="http://www.w3.org/1999/xlink">
    <!-- Generator: Sketch 51.3 (57544) - http://www.bohemiancoding.com/sketch -->
    <title>the-modern-web/generators</title>
    <desc>Created with Sketch.</desc>
    <defs></defs>
    <g id="the-modern-web/generators" stroke="none" stroke-width="1" fill="none" fill-rule="evenodd">
        <g id="container" transform="translate(2.000000, 2.000000)" fill="#FFFFFF" fill-rule="nonzero" stroke="#343B3F" stroke-width="2">
            <rect id="mask" x="-1" y="-1" width="71" height="71" rx="14"></rect>
        </g>
        <g id="generator" transform="translate(14.000000, 15.000000)" fill-rule="nonzero">
            <path d="M15.9734786,0.0438596491 C15.5910773,0.0438596491 -0.43517,0.0438596491 0.100740175,0.0438596491 L0.100740175,2.67475333 L2.81935307,2.67475333 L2.81935307,6.62075105 L13.342585,6.62075105 L13.342585,2.67475333 L15.9734786,2.67475333 L15.9734786,0.0438596491 Z" id="Shape" fill="#575F64"></path>
            <polygon id="Shape" fill="#575F64" points="45 32.9290022 45 42.1367873 35.1517955 42.1367873 32.5212446 39.5058937 12.5798382 39.5058937 9.94894465 42.1367873 0.100740175 42.1367873 0.100740175 32.9290022 22.5503701 31.6135554"></polygon>
            <polygon id="Shape" fill="#474F54" points="45 32.9290022 45 42.1367873 35.1517955 42.1367873 32.5212446 39.5058937 22.5503701 39.5058937 22.5503701 31.6135554"></polygon>
            <polygon id="Shape" fill="#FFE17A" points="0.100740175 5.3053043 45 5.3053043 45 32.9290022 0.100740175 32.9290022"></polygon>
            <polygon id="Shape" fill="#FDBF00" points="22.5503701 5.3053043 45 5.3053043 45 32.9290022 22.5503701 32.9290022"></polygon>
            <path d="M22.5503701,10.5670916 C17.4729304,10.5670916 13.342585,14.6974369 13.342585,19.7748767 C13.342585,24.8523163 17.4729304,28.9826618 22.5503701,28.9826618 C27.6278097,28.9826618 31.7581552,24.8523163 31.7581552,19.7748767 C31.7581552,14.6974369 27.6278097,10.5670916 22.5503701,10.5670916 Z" id="Shape" fill="#575F64"></path>
            <path d="M31.7581552,19.7748767 C31.7581552,24.8523163 27.6278097,28.9826618 22.5503701,28.9826618 L22.5503701,10.5670916 C27.6278097,10.5670916 31.7581552,14.6974369 31.7581552,19.7748767 Z" id="Shape" fill="#474F54"></path>
            <polygon id="Shape" fill="#D1ECFF" points="25.6811952 18.4594298 23.7866639 24.1419956 21.3140762 23.3004386 22.0504386 21.0903235 19.4198876 21.0903235 21.3140762 15.4077577 23.7866639 16.2496574 23.0503016 18.4594298"></polygon>
            <polygon id="Shape" fill="#CBD7F1" points="25.6811952 18.4594298 23.7866639 24.1419956 22.5503701 23.7212171 22.5503701 15.8285361 23.7866639 16.2496574 23.0503016 18.4594298"></polygon>
        </g>
    </g>
</svg>