<?xml version="1.0" encoding="UTF-8"?>
<svg width="73px" height="73px" viewBox="0 0 73 73" version="1.1" xmlns="http://www.w3.org/2000/svg" xmlns:xlink="http://www.w3.org/1999/xlink">
    <!-- Generator: Sketch 51.3 (57544) - http://www.bohemiancoding.com/sketch -->
    <title>the-modern-web/geolocation</title>
    <desc>Created with Sketch.</desc>
    <defs></defs>
    <g id="the-modern-web/geolocation" stroke="none" stroke-width="1" fill="none" fill-rule="evenodd">
        <g id="container" transform="translate(2.000000, 2.000000)" fill="#FFFFFF" fill-rule="nonzero" stroke="#09547B" stroke-width="2">
            <rect id="mask" x="-1" y="-1" width="71" height="71" rx="14"></rect>
        </g>
        <g id="map-(1)" transform="translate(12.000000, 15.000000)" fill-rule="nonzero">
            <g id="Group" transform="translate(12.537109, 15.695312)" fill="#44C868">
                <path d="M36.4513105,27.2452441 L32.601748,6.03637891 C32.5633711,5.82468359 32.4320664,5.64131641 32.2439141,5.53671289 L22.5547383,0.147669922 C22.4289844,0.0776152344 22.2880137,0.049765625 22.1495312,0.060484375 L23.9122871,22.8003125 L23.8532383,22.8267266 L35.4490117,28.0288613 C35.543375,28.0710664 35.6436719,28.0919297 35.7434902,28.0919297 C35.9014961,28.0919297 36.0580664,28.0399629 36.1867871,27.9391875 C36.3971426,27.7749609 36.498875,27.5077578 36.4513105,27.2452441 Z" id="Shape"></path>
                <path d="M11.9628906,5.29956055 L2.05331055,0.138195312 C1.93454297,0.0762753906 1.80285547,0.0510097656 1.67317773,0.05971875 C1.70753516,0.0576132812 1.74208398,0.0578046875 1.7763457,0.060484375 L0.0135898437,22.8003125 L11.6684121,28.028957 C11.7624883,28.0710664 11.8628809,28.0920254 11.9628906,28.0920254 L11.9628906,5.29956055 Z" id="Shape"></path>
            </g>
            <g id="Group" transform="translate(0.000000, 15.695312)" fill="#4CE166">
                <path d="M14.3133594,0.0605800781 C14.174877,0.0498613281 14.0339063,0.0777109375 13.9081523,0.147669922 L4.21888086,5.53671289 C4.03072852,5.64131641 3.89942383,5.82458789 3.86104687,6.03637891 L0.0115800781,27.2452441 C-0.0360800781,27.5076621 0.0657480469,27.7748652 0.276007813,27.9392832 C0.404919922,28.0400586 0.561394531,28.0920254 0.719304688,28.0920254 C0.819123047,28.0920254 0.919515625,28.0712578 1.0137832,28.028957 L12.5463926,22.8551504 L14.3133594,0.0605800781 Z" id="Shape"></path>
                <path d="M34.6865449,0.0601015625 C34.5912246,0.0674707031 34.496957,0.0928320312 34.4095801,0.138386719 L24.5,5.29965625 L24.5,28.0921211 C24.5,28.0921211 24.5,28.0921211 24.5,28.0921211 C24.6001055,28.0921211 24.7005937,28.0712578 24.7945742,28.0290527 L36.4493965,22.8004082 L34.6865449,0.0601015625 Z" id="Shape"></path>
            </g>
            <polygon id="Shape" fill="#FFDB56" points="2.69442578 28.1590176 1.91243555 32.4674766 13.4919395 26.3514727 13.7607695 22.8832871 13.8053672 22.3081113"></polygon>
            <path d="M13.5961602,25.0066523 L13.4919395,26.3514727 L1.91243555,32.4674766 L0.0115800781,42.9405566 C-0.0360800781,43.2029746 0.0657480469,43.4701777 0.276007812,43.6345957 C0.404919922,43.7353711 0.561394531,43.7873379 0.719304687,43.7873379 C0.819123047,43.7873379 0.919515625,43.7665703 1.0137832,43.7242695 L12.5463926,38.5504629 L13.5961602,25.0066523 Z" id="Shape" fill="#A8EEFC"></path>
            <g id="Group" transform="translate(13.398438, 18.183594)" fill="#FFBB24">
                <polygon id="Shape" points="11.1044336 5.65414062 0.406929688 4.12451758 0.0935019531 8.16787891 11.1015625 24.8852051 11.1015625 18.806334 4.53278711 8.46293164 11.1044336 9.24894141"></polygon>
                <polygon id="Shape" points="30.619832 2.62427539 25.9653105 0.0354101563 21.5589473 1.06498437 21.6140723 1.77663281 21.8317012 4.58398828"></polygon>
            </g>
            <polygon id="Shape" fill="#FFDB56" points="35.6208945 27.8090312 35.2036289 22.4258262 35.2036289 22.4258262 34.9573848 19.2485781 24.5028711 23.8377344 24.5028711 27.4325352 31.3318633 24.4628672"></polygon>
            <path d="M48.9884199,42.9405566 L48.0215312,37.6131465 L35.2301387,22.767582 L35.6209902,27.8090313 L48.7390176,43.6211973 C48.9384629,43.455918 49.0348359,43.1963711 48.9884199,42.9405566 Z" id="Shape" fill="#FFBB24"></path>
            <path d="M24.5460332,0.0445019531 C18.998793,0.0445019531 14.4857207,4.5538418 14.4857207,10.096584 C14.4857207,13.5252441 16.1135352,17.2063691 19.3240879,21.0375566 C21.6821172,23.8515156 24.0080859,25.6613574 24.1059902,25.7370586 C24.2355723,25.8372598 24.3908027,25.8873125 24.5461289,25.8873125 C24.7013594,25.8873125 24.8566855,25.8372598 24.9862676,25.7370586 C25.0840762,25.6613574 27.4101406,23.8515156 29.7681699,21.0375566 C32.9787227,17.2063691 34.6065371,13.5253398 34.6065371,10.096584 C34.6063457,4.5538418 30.0932734,0.0445019531 24.5460332,0.0445019531 Z M28.2717559,10.0964883 C28.2717559,12.1523828 26.6036504,13.8191484 24.5460332,13.8191484 C22.488416,13.8191484 20.8203105,12.1524785 20.8203105,10.0964883 C20.8203105,8.04049805 22.488416,6.37382812 24.5460332,6.37382812 C26.6036504,6.37382812 28.2717559,8.04059375 28.2717559,10.0964883 Z" id="Shape" fill="#FF4A4A"></path>
            <path d="M24.5460332,0.0445019531 C24.106373,0.0445019531 23.6733164,0.0730214844 23.2483945,0.127955078 C28.1850488,0.766007812 32.0111641,4.99311914 32.0111641,10.096584 C32.0111641,13.5252441 30.3833496,17.2063691 27.1727969,21.0375566 C25.6563809,22.8471113 24.1543203,24.2404531 23.2484902,25.0254102 C23.7513145,25.4610508 24.0711543,25.7100703 24.1059902,25.7370586 C24.2355723,25.8372598 24.3908027,25.8873125 24.5461289,25.8873125 C24.7013594,25.8873125 24.8566855,25.8372598 24.9862676,25.7370586 C25.0840762,25.6613574 27.4101406,23.8515156 29.7681699,21.0375566 C32.9787227,17.2063691 34.6065371,13.5253398 34.6065371,10.096584 C34.6063457,4.5538418 30.0932734,0.0445019531 24.5460332,0.0445019531 Z" id="Shape" fill="#E7343F"></path>
            <path d="M24.7945742,43.7242695 L29.1284902,41.7799648 L24.5,36.9899277 L24.5,43.7873379 C24.5,43.7873379 24.5,43.7873379 24.5000957,43.7873379 C24.6001055,43.7873379 24.700498,43.7665703 24.7945742,43.7242695 Z" id="Shape" fill="#FFDB56"></path>
            <g id="Group" transform="translate(12.537109, 20.767578)" fill="#1EA4E9">
                <path d="M32.6016523,0.964113281 C32.5632754,0.752417969 32.4319707,0.569050781 32.2438184,0.464447266 L31.4810645,0.0401953125 L22.6929336,1.9999082 L35.4842305,16.8454727 L32.6016523,0.964113281 Z" id="Shape"></path>
                <path d="M11.9628667,23.0197598 C11.9628667,23.0197598 11.9628667,23.0197598 11.9628667,23.0197598 L11.9627949,22.3012207 L0.954830078,5.58389453 L0.0133984375,17.7281426 L11.6682207,22.9567871 C11.7622969,22.9989922 11.8626895,23.0197598 11.9628667,23.0197598 Z" id="Shape"></path>
            </g>
        </g>
    </g>
</svg>