<?xml version="1.0" encoding="UTF-8"?>
<svg width="73px" height="73px" viewBox="0 0 73 73" version="1.1" xmlns="http://www.w3.org/2000/svg" xmlns:xlink="http://www.w3.org/1999/xlink">
    <!-- Generator: Sketch 51.3 (57544) - http://www.bohemiancoding.com/sketch -->
    <title>the-modern-web/houdini</title>
    <desc>Created with Sketch.</desc>
    <defs></defs>
    <g id="the-modern-web/houdini" stroke="none" stroke-width="1" fill="none" fill-rule="evenodd">
        <g id="container" transform="translate(2.000000, 2.000000)" fill="#FFFFFF" fill-rule="nonzero" stroke="#2C2F38" stroke-width="2">
            <rect id="mask" x="-1" y="-1" width="71" height="71" rx="14"></rect>
        </g>
        <g id="harry-potter-(1)" transform="translate(15.000000, 9.000000)" fill-rule="nonzero">
            <g id="Group" fill="#2C2F38">
                <path d="M10.2825904,22.8699065 C10.2809053,22.8985524 10.2842754,22.926777 10.2918582,22.954159 C10.2825904,22.9634268 10.2825904,22.9634268 10.2918582,22.9731159 C10.2825904,23.0097656 10.2825904,23.0485217 10.2918582,23.0851716 C10.2905944,23.0957031 10.2939645,23.1058134 10.3011259,23.1133962 C8.94255515,21.3904335 7.97786453,19.3907016 7.47487745,17.254902 C4.66758578,6.96051626 11.2186351,5.08884804 11.2186351,5.08884804 C10.2825904,4.15280325 7.47487745,5.08884804 7.47487745,5.08884804 C12.1542586,-0.526577765 17.7692631,2.28113514 17.7692631,2.28113514 C24.3203125,-3.33386943 33.6790748,2.28113514 35.550743,9.76780793 C37.3756511,17.0581725 33.0425475,20.8486903 32.752719,20.9889706 L10.2825904,22.8699065 Z" id="Shape"></path>
                <path d="M14.9619715,37.8436734 L17.7692631,54.689171 L0.952052696,54.6891085 C0.697189059,54.6920573 0.452435608,54.5905331 0.274241755,54.4085478 C0.0956265588,54.2265625 -0.00084252451,53.9801241 0.00674019608,53.7252605 C0.381242314,44.8720129 5.97771145,37.8436734 14.9619715,37.8436734 Z" id="Shape"></path>
                <path d="M43.945236,53.7252605 C43.9570312,53.9792815 43.8630898,54.2269837 43.6861596,54.4098116 C43.5088082,54.5922181 43.2640548,54.6933211 43.0096124,54.6891085 L25.2563572,54.6895297 L28.0640702,37.8436734 C37.0483302,37.8436734 43.5151271,44.8720129 43.945236,53.7252605 Z" id="Shape"></path>
            </g>
            <path d="M28.0640702,40.6513864 L28.0640702,54.6891085 L14.9619715,54.6891085 L14.9619715,40.6513864 C14.9619715,40.6513864 15.9725797,30.7454044 18.3590303,34.0114506 C19.1514247,35.1143153 20.1300168,36.0710018 21.2509958,36.8376992 C21.4131817,36.9312194 21.61286,36.9312194 21.7750459,36.8376992 C22.8960248,36.0710018 23.874617,35.1143153 24.66659,34.0114506 C27.0530408,30.7454044 28.0640702,40.6513864 28.0640702,40.6513864 Z" id="Shape" fill="#95A5A5"></path>
            <path d="M28.0640702,34.100337 L28.0640702,37.8436734 L21.5130208,38.7797181 L14.9619715,37.8436734 L14.9619715,34.100337 C16.8054151,35.4854473 19.070121,35.0363817 21.5130208,35.0363817 C23.6467141,35.0363817 25.6586627,35.6724877 27.3525582,34.5961627 C27.5960478,34.4373468 27.8298484,34.2781096 28.0640702,34.100337 Z" id="Shape" fill="#FDD7AD"></path>
            <path d="M28.0640702,31.9009268 L28.0640702,34.100337 C27.8298484,34.2781096 27.5960478,34.4373468 27.3525582,34.5961627 C23.5249694,37.0382199 18.5818781,36.840648 14.9619715,34.100337 L14.9619715,31.9009268 C16.8054151,33.2860371 19.070121,33.1642923 21.5130208,33.1642923 C23.5974265,33.1048943 25.6220129,32.4561504 27.3525582,31.2926241 C27.5960478,31.1338082 27.8298484,32.0786994 28.0640702,31.9009268 Z" id="Shape" fill="#CBB292"></path>
            <path d="M19.6413526,22.8699065 C19.629136,25.3216529 17.7267157,27.3479244 15.280867,27.5151654 C12.8350184,27.6824065 10.6752068,25.9333256 10.3293505,23.5064338 C10.3196614,23.4959023 10.3196614,23.479473 10.3293505,23.4689415 L10.3293505,23.4596737 C10.3200827,23.3471967 10.310815,23.2444086 10.3011259,23.1319317 C10.2985984,23.1294041 10.2973346,23.126034 10.2973346,23.1226639 C10.2973346,23.1192938 10.2985984,23.1159237 10.3011259,23.1133962 C10.2939645,23.1058134 10.2905944,23.0957031 10.2918582,23.0851716 C10.2825904,23.0485217 10.2825904,23.0097656 10.2918582,22.9731159 C10.2825904,22.9634268 10.2825904,22.9634268 10.2918582,22.954159 L10.2918582,22.7671185 C10.2825904,22.756587 10.2825904,22.7401578 10.2918582,22.7296262 C10.4350873,20.2260646 12.5266544,18.2806756 15.0340074,18.3181679 C17.5413603,18.3556602 19.5731082,20.3633962 19.6413526,22.8699065 Z" id="Shape" fill="#B0D3F0"></path>
            <path d="M32.7337623,22.7296262 C32.7434513,22.7401578 32.7434513,22.756587 32.7337623,22.7671185 L32.7337623,22.954159 C32.7244944,23.1226639 32.7152267,23.2911688 32.6962699,23.4596737 L32.6962699,23.4689415 C32.705959,23.479473 32.705959,23.4959023 32.6962699,23.5064338 C32.367264,26.0057828 30.1253064,27.8007812 27.6145833,27.575406 C25.1034391,27.3500306 23.2174479,25.1843214 23.3387714,22.6660156 C23.4600949,20.1481311 25.5457644,18.1736749 28.0665977,18.1909467 C30.5878523,18.2077972 32.6465609,20.2100567 32.7337623,22.7296262 Z" id="Shape" fill="#B0D3F0"></path>
            <path d="M32.6962699,23.5064338 C32.5960095,24.5688572 32.3567325,25.6131663 31.9851793,26.613243 C31.2142693,28.7166054 29.8527497,30.5524664 28.0640702,31.9009268 C27.8298484,32.0786994 27.5960478,32.2379366 27.3525582,32.3971737 C23.5249694,34.8392311 18.5818781,34.6412377 14.9619715,31.9009268 C14.8962546,31.8541667 14.830959,31.8074065 14.7745098,31.7606464 C13.0759804,30.4252451 11.7827052,28.6428845 11.0404412,26.613243 C10.6688879,25.6131663 10.429611,24.5688572 10.3293505,23.5064338 C10.6752068,25.9333256 12.8350184,27.6824065 15.280867,27.5151654 C17.7267157,27.3479244 19.629136,25.3216529 19.6413526,22.8699065 C19.6413526,22.8699065 19.6413526,21.9342831 21.5130208,21.9342831 C23.3846891,21.9342831 23.3846891,22.8699065 23.3846891,22.8699065 C23.3969056,25.3216529 25.2989047,27.3479244 27.7447533,27.5151654 C30.190602,27.6824065 32.3508349,25.9333256 32.6962699,23.5064338 Z" id="Shape" fill="#FDD7AD"></path>
            <path d="M32.752719,20.9889706 L32.7430301,20.9982384 L32.7430301,22.4018841 C32.7430301,22.5143612 32.7430301,22.6171492 32.7337623,22.7296262 C32.5905331,20.2260646 30.4993873,18.2806756 27.9920343,18.3181679 C25.4846814,18.3556602 23.4525123,20.3633962 23.3846891,22.8699065 C23.3846891,22.8699065 23.3846891,21.9342831 21.5130208,21.9342831 C19.6413526,21.9342831 19.6413526,22.8699065 19.6413526,22.8699065 C19.5731082,20.3633962 17.5413603,18.3556602 15.0340074,18.3181679 C12.5266544,18.2806756 10.4350873,20.2260646 10.2918582,22.7296262 C10.2825904,22.7401578 10.2825904,22.756587 10.2918582,22.7671185 C10.2842754,22.8008195 10.2809053,22.8353631 10.2825904,22.8699065 C9.34654568,14.4471891 10.2825904,14.3351332 10.2825904,14.3351332 C10.3200827,14.3722043 10.3483073,14.4096967 10.3853783,14.4471891 C11.025697,15.1064645 11.764591,15.6621094 12.5755208,16.0943244 C12.6972656,16.1558288 12.8392311,16.1608839 12.9651884,16.1090686 C13.0911458,16.0568321 13.1880361,15.9523591 13.2305837,15.8230315 C13.9711627,13.2369026 16.0757889,11.2691866 18.7053079,10.7038526 C22.5611213,9.93631283 24.5077742,14.877719 25.0785846,16.6465993 C25.1236596,16.7877221 25.2327665,16.8993566 25.3730469,16.9473806 C25.512906,16.9954044 25.6679305,16.97392 25.7896752,16.8896676 C29.1964231,14.4661458 29.8889783,12.4820007 29.9824984,11.4617034 C29.9955576,11.2978324 30.094133,11.1524969 30.241996,11.0796185 C30.3894378,11.0067402 30.5646829,11.0168505 30.702857,11.1061581 C31.7437959,11.8458946 32.4713158,12.9470742 32.7430301,14.1944317 C33.2106311,16.4351257 33.21358,18.7474342 32.752719,20.9889706 Z" id="Shape" fill="#FDD7AD"></path>
            <path d="M14.9619715,28.4853324 C12.1580499,28.4781709 9.78718594,26.4080882 9.40215229,23.6307062 C9.39414828,23.5772059 9.39077819,23.5232843 9.39162076,23.4689415 L9.37182141,23.270527 C9.34654568,23.1492034 9.34064795,23.024931 9.35412834,22.9019225 L9.35412834,22.7671185 C9.35412834,22.7456341 9.35412834,22.7258349 9.35412834,22.7043505 C9.44512099,19.6253447 11.9992341,17.1946614 15.0790824,17.2561658 C18.1585095,17.31767 20.6140472,19.8486136 20.58161,22.928462 C20.549594,26.0087316 18.0422411,28.48786 14.9619715,28.4853324 Z M11.2653953,23.4373468 C11.5581725,25.4269685 13.3637025,26.8348269 15.3646982,26.6334636 C17.365694,26.4325214 18.8548561,24.6935508 18.7457491,22.6849724 C18.6366422,20.6768153 16.9676012,19.1097197 14.9564951,19.1265702 C12.945389,19.1434207 11.3033088,20.7387409 11.2279029,22.7481618 L11.2279029,22.981541 C11.232958,23.0169271 11.2359069,23.0523131 11.2371707,23.0881204 L11.2624464,23.3838465 L11.2653953,23.4373468 Z" id="Shape" fill="#95A5A5"></path>
            <path d="M28.0640702,28.4853324 C24.9833792,28.4891238 22.4751838,26.0099954 22.4423253,22.9297258 C22.4094669,19.8494562 24.8641621,17.31767 27.9444317,17.2561658 C31.0242801,17.1942402 33.5788144,19.6253447 33.669807,22.7043505 L33.669807,22.7671185 L33.669807,22.954159 C33.6592754,23.1685815 33.6491651,23.3425628 33.6323146,23.5110677 C33.6310508,23.5510876 33.6276807,23.5911075 33.6217831,23.6307062 C33.2367493,26.4072458 30.8671492,28.4773284 28.0640702,28.4853324 Z M28.0640702,19.1265702 C26.0698146,19.1248851 24.4243643,20.6873468 24.3224188,22.6786535 C24.2208946,24.6703815 25.69784,26.3920802 27.6819853,26.5942861 C29.6657092,26.7960707 31.4598652,25.4075904 31.761489,23.436083 C31.761489,23.4099648 31.763174,23.3838465 31.7661229,23.3577283 C31.7829734,23.2069163 31.7913986,23.0544195 31.7998239,22.902765 L31.7998239,22.7481618 C31.7290518,20.7336856 30.07981,19.1349954 28.0640702,19.1265702 Z" id="Shape" fill="#95A5A5"></path>
            <path d="M28.0640702,40.6513864 L28.0640702,49.1583563 C26.6220895,51.734375 24.2941943,53.6995634 21.5130208,54.6891085 C18.7314261,53.6995634 16.403531,51.734375 14.9619715,49.1583563 L14.9619715,40.6513864 C15.6730622,43.2619485 16.8218444,45.7334942 18.3590303,47.9602864 C19.1514247,49.0635723 20.1300168,50.0198376 21.2509958,50.786535 C21.4131817,50.8804764 21.61286,50.8804764 21.7750459,50.786535 C22.8960248,50.0198376 23.874617,49.0635723 24.66659,47.9602864 C26.2041973,45.7334942 27.3525582,43.2619485 28.0640702,40.6513864 Z" id="Shape" fill="#7F8C8D"></path>
            <path d="M28.0640702,37.8436734 L28.0640702,40.6513864 C27.3525582,43.2619485 26.2041973,45.7334942 24.66659,47.9602864 L24.6573223,47.9510187 L23.3846891,41.5870098 L24.1147365,40.8573836 C24.166973,40.8085172 24.1939338,40.7390089 24.1884574,40.6678155 C24.1829811,40.5970435 24.1454886,40.5321691 24.0865119,40.4921492 L21.6440334,38.8639706 C21.6052773,38.837431 21.5593596,38.8243719 21.5130208,38.8264783 L21.5130208,38.7797181 L28.0640702,37.8436734 Z" id="Shape" fill="#F5EFCA"></path>
            <path d="M24.66659,47.9602864 C23.874617,49.0635723 22.8960248,50.0198376 21.7750459,50.786535 C21.61286,50.8804764 21.4131817,50.8804764 21.2509958,50.786535 C20.1300168,50.0198376 19.1514247,49.0635723 18.3590303,47.9602864 L18.3682981,47.9510187 L19.6413526,41.5870098 L21.3445159,43.2905944 C21.3887484,43.3356695 21.4494102,43.3609452 21.5130208,43.3609452 C21.5762101,43.3609452 21.6368719,43.3356695 21.6815257,43.2905944 L23.3846891,41.5870098 L24.6573223,47.9510187 L24.66659,47.9602864 Z" id="Shape" fill="#C03A2B"></path>
            <path d="M21.5130208,38.7797181 L21.5130208,38.8264783 C21.4662607,38.8243719 21.4203431,38.837431 21.3820082,38.8639706 L18.9391085,40.4921492 C18.8801317,40.5321691 18.8426394,40.5970435 18.837163,40.6678155 C18.8316866,40.7390089 18.8590686,40.8085172 18.9113051,40.8573836 L19.6413526,41.5870098 L18.3682981,47.9510187 L18.3590303,47.9602864 C16.8218444,45.7334942 15.6730622,43.2619485 14.9619715,40.6513864 L14.9619715,37.8436734 L21.5130208,38.7797181 Z" id="Shape" fill="#F5EFCA"></path>
            <path d="M24.1147365,40.8573836 L21.6815257,43.2905944 C21.6368719,43.3352482 21.5762101,43.3605238 21.5130208,43.3605238 C21.4498315,43.3605238 21.3891698,43.3352482 21.3445159,43.2905944 L18.9113051,40.8573836 C18.8590686,40.8085172 18.8316866,40.7390089 18.837163,40.6678155 C18.8426394,40.5970435 18.8801317,40.5321691 18.9391085,40.4921492 L21.3820082,38.8639706 C21.4620481,38.8138404 21.5635723,38.8138404 21.6440334,38.8639706 L24.0865119,40.4921492 C24.1454886,40.5321691 24.1829811,40.5970435 24.1884574,40.6678155 C24.1939338,40.7390089 24.166973,40.8085172 24.1147365,40.8573836 Z" id="Shape" fill="#CC4B4C"></path>
            <path d="M20.1493949,18.7756586 C20.1135876,18.7756586 20.0773591,18.7735524 20.0415518,18.7689185 C19.5284543,18.7099418 19.1602712,18.246132 19.2192479,17.7330346 L19.3687959,16.422909 L18.0494026,15.9203431 C17.6125536,15.751417 17.3185126,15.3390012 17.3003983,14.8714002 L17.2671185,13.8915441 C17.2494256,13.3750766 17.6538373,12.9424403 18.1698836,12.9247472 C18.4196921,12.9095818 18.6648668,12.9976257 18.8476945,13.1682369 C19.0305224,13.3392693 19.1349954,13.5777038 19.1366805,13.8279335 L19.1556373,14.3376609 L20.5500154,14.8684513 C21.0483685,15.0592831 21.35589,15.5618489 21.2985984,16.0926394 L21.0841758,17.9436658 C21.0310968,18.4192708 20.6279489,18.7781863 20.1493949,18.7756586 Z" id="Shape" fill="#FB7B76"></path>
            <path d="M23.3846891,23.8059513 C22.9356234,23.8059513 22.5501685,23.4870557 22.4654948,23.0459942 C22.1710325,22.8989737 21.8407629,22.8378906 21.5130208,22.8699065 C21.1852787,22.8378906 20.8550091,22.8989737 20.5601257,23.0459942 C20.469133,23.519493 20.0331266,23.8463925 19.5528876,23.8008962 C19.0726486,23.7553998 18.7057292,23.3522518 18.7053079,22.8699065 C18.7053079,22.7932369 18.7373239,20.9982384 21.5130208,20.9982384 C24.2887178,20.9982384 24.3203125,22.7932369 24.3203125,22.8699065 C24.3203125,23.3867953 23.9015778,23.8059513 23.3846891,23.8059513 Z" id="Shape" fill="#7F8C8D"></path>
        </g>
    </g>
</svg>