<?xml version="1.0" encoding="UTF-8"?>
<svg width="73px" height="73px" viewBox="0 0 73 73" version="1.1" xmlns="http://www.w3.org/2000/svg" xmlns:xlink="http://www.w3.org/1999/xlink">
    <!-- Generator: Sketch 51.3 (57544) - http://www.bohemiancoding.com/sketch -->
    <title>the-modern-web/http-2</title>
    <desc>Created with Sketch.</desc>
    <defs></defs>
    <g id="the-modern-web/http-2" stroke="none" stroke-width="1" fill="none" fill-rule="evenodd">
        <g id="container" transform="translate(2.000000, 2.000000)" fill="#FFFFFF" fill-rule="nonzero" stroke="#053E69" stroke-width="2">
            <rect id="mask" x="-1" y="-1" width="71" height="71" rx="14"></rect>
        </g>
        <g id="www-(1)" transform="translate(15.000000, 15.000000)" fill-rule="nonzero">
            <path d="M37.1724138,27.3103448 L37.1724138,23.5172414 L34.137931,20.4827586 L34.137931,17.4482759 L35.6551724,15.9310345 L35.6551724,11.3793103 L31.862069,7.5862069 L28.0689655,7.5862069 L25.0344828,4.55172414 L25.0344828,0.0151724138 C22.790485,0.10812637 20.5833265,0.617470626 18.5255172,1.51724138 L18.9655172,1.51724138 L21.2413793,3.79310345 L21.2413793,6.82758621 L18.2068966,9.86206897 L18.2068966,12.8965517 L15.1724138,15.9310345 L12.8965517,15.9310345 L12.8965517,18.2068966 L15.9310345,21.2413793 L16.6896552,22 L16.6896552,24.2758621 L15.1344828,25.8310345 L14.4137931,26.5517241 L14.4137931,28.8275862 L13.2075862,30.0337931 L12.5475862,30.6937931 C15.1635434,33.4623462 18.5801482,35.3430704 22.3186207,36.0724138 C23.4624741,36.3019588 24.6264479,36.4163231 25.7931034,36.4137931 L25.7931034,33.3793103 L24.2758621,31.862069 L24.2758621,28.8275862 L21.2413793,28.8275862 L19.7241379,27.3103448 L19.7241379,25.0344828 L21.2413793,23.5172414 L22.7586207,22 L28.8275862,22 L32.6206897,25.7931034 L32.6206897,28.8275862 L31.1034483,30.3448276 L31.1034483,33.3793103 L28.8275862,35.6551724 L28.8275862,36.1558621 C33.1002751,35.4382681 36.975197,33.2155699 39.7517241,29.8896552 L37.1724138,27.3103448 Z" id="Shape" fill="#3FA3F0"></path>
            <polygon id="Shape" fill="#78B9EB" points="22.3186207 36.0724138 21.2413793 33.3793103 15.7413793 33.3793103 3.03448276 33.3793103 0 40.9655172 8.34482759 40.9655172 15.9310345 40.9655172 24.2758621 40.9655172"></polygon>
            <path d="M28.8275862,22 L22.7586207,22 L22,22.7586207 L21.2413793,23.5172414 L19.7241379,25.0344828 L19.7241379,27.3103448 L21.2413793,28.8275862 L24.2758621,28.8275862 L24.2758621,31.862069 L25.7931034,33.3793103 L25.7931034,36.4137931 C26.8101861,36.4165232 27.8255557,36.3302168 28.8275862,36.1558621 L28.8275862,35.6551724 L31.1034483,33.3793103 L31.1034483,30.3448276 L32.6206897,28.8275862 L32.6206897,25.7931034 L28.8275862,22 Z" id="Shape" fill="#00CCB3"></path>
            <path d="M18.9655172,1.51724138 L18.5255172,1.51724138 C11.8815847,4.40646574 7.58477201,10.9619359 7.5862069,18.2068966 C7.58907447,20.8174305 8.15307898,23.3968456 9.24,25.7703448 C9.54963703,26.4643875 9.90704665,27.1361148 10.3096552,27.7806897 C10.7154112,28.4433129 11.1666074,29.0770154 11.66,29.6772414 C11.9406897,30.0262069 12.2365517,30.3675862 12.5475862,30.6937931 L13.2075862,30.0337931 L14.4137931,28.8275862 L14.4137931,26.5517241 L15.1344828,25.8310345 L16.6896552,24.2758621 L16.6896552,22 L15.9310345,21.2413793 L12.8965517,18.2068966 L12.8965517,15.9310345 L15.1724138,15.9310345 L18.2068966,12.8965517 L18.2068966,9.86206897 L21.2413793,6.82758621 L21.2413793,3.79310345 L18.9655172,1.51724138 Z" id="Shape" fill="#00CCB3"></path>
            <path d="M24.2758621,40.9655172 L24.2758621,43.2413793 C24.2758621,43.6603539 23.936216,44 23.5172414,44 L0.75862069,44 C0.339646052,44 0,43.6603539 0,43.2413793 L0,40.9655172 L24.2758621,40.9655172 Z" id="Shape" fill="#5AAAE7"></path>
            <polygon id="Shape" fill="#BDDBFF" points="15.1724138 37.9310345 15.9310345 40.9655172 8.34482759 40.9655172 9.10344828 37.9310345"></polygon>
            <path d="M21.2413793,22.7586207 L21.2414438,33.3793103 L3.03448276,33.3793103 L3.03448276,22.7586207 C3.03698226,21.9217089 3.71481238,21.2438788 4.55172414,21.2413793 L19.7241379,21.2413793 C20.1443191,21.2443582 20.544805,21.4199137 20.8317241,21.7268966 C21.0979207,22.0040142 21.2449772,22.3743788 21.2413793,22.7586207 Z" id="Shape" fill="#5AAAE7"></path>
            <polygon id="Shape" fill="#00CCB3" points="30.3448276 13.6551724 30.3448276 15.9310345 28.8275862 17.4482759 27.3103448 17.4482759 27.3103448 14.4137931 25.7931034 12.8965517 25.7931034 11.3793103 30.3448276 11.3793103"></polygon>
            <path d="M44,18.2068966 C44.0035733,22.4798698 42.4991463,26.6170439 39.7517241,29.8896552 L37.1724138,27.3103448 L37.1724138,23.5172414 L34.137931,20.4827586 L34.137931,17.4482759 L35.6551724,15.9310345 L35.6551724,11.3793103 L31.862069,7.5862069 L28.0689655,7.5862069 L25.0344828,4.55172414 L25.0344828,0.0151724138 C25.2848276,0.0075862069 25.5351724,0 25.7931034,0 C35.8474538,0.00251264546 43.9974874,8.1525462 44,18.2068966 Z" id="Shape" fill="#00CCB3"></path>
            <path d="M21.2413793,22.7586207 L21.2414438,33.3793103 L9.25517241,33.3793103 C13.6902798,30.1135991 17.595051,26.1832397 20.8317241,21.7268966 C21.0979207,22.0040142 21.2449772,22.3743788 21.2413793,22.7586207 Z" id="Shape" fill="#3D9AE2"></path>
            <g id="Group" transform="translate(6.827586, 24.275862)" fill="#F1F2F2">
                <path d="M5.84668966,6.29124138 C5.54666957,6.00435947 5.07402009,6.00435947 4.774,6.29124138 L3.70055172,5.21855172 C4.60127779,4.35810232 6.01941186,4.35810232 6.92013793,5.21855172 L5.84668966,6.29124138 Z" id="Shape"></path>
                <path d="M7.45648276,4.68144828 C6.27013329,3.49875558 4.35055636,3.49875558 3.1642069,4.68144828 L2.09151724,3.60875862 C3.87035032,1.83376414 6.75033933,1.83376414 8.52917241,3.60875862 L7.45648276,4.68144828 Z" id="Shape"></path>
                <path d="M9.06551724,3.07241379 C8.06961883,2.07641376 6.71882973,1.51685822 5.31034483,1.51685822 C3.90185993,1.51685822 2.55107082,2.07641376 1.55517241,3.07241379 L0.482482759,1.99972414 C1.76290595,0.719285262 3.49954189,-5.91260475e-05 5.31034483,-5.91260475e-05 C7.12114776,-5.91260475e-05 8.8577837,0.719285262 10.1382069,1.99972414 L9.06551724,3.07241379 Z" id="Shape"></path>
            </g>
        </g>
    </g>
</svg>