<?xml version="1.0" encoding="UTF-8"?>
<svg width="73px" height="73px" viewBox="0 0 73 73" version="1.1" xmlns="http://www.w3.org/2000/svg" xmlns:xlink="http://www.w3.org/1999/xlink">
    <!-- Generator: Sketch 51.3 (57544) - http://www.bohemiancoding.com/sketch -->
    <title>the-modern-web/media-recorder</title>
    <desc>Created with Sketch.</desc>
    <defs></defs>
    <g id="the-modern-web/media-recorder" stroke="none" stroke-width="1" fill="none" fill-rule="evenodd">
        <g id="container" transform="translate(2.000000, 2.000000)" fill="#FFFFFF" fill-rule="nonzero" stroke="#464655" stroke-width="2">
            <rect id="mask" x="-1" y="-1" width="71" height="71" rx="14"></rect>
        </g>
        <g id="polaroid" transform="translate(14.000000, 17.000000)" fill-rule="nonzero">
            <path d="M43.7368359,0.0123984375 C44.5685195,0.0123984375 45.2586992,0.649480469 45.3185352,1.47900781 C45.5372148,4.50692188 46,11.7768984 46,19.046875 C46,20.3461055 46,22.7346914 46,25.3914609 C46,29.5318203 45.5849219,34.3232773 45.3552813,36.6566992 C45.2754102,37.4684375 44.5928672,38.0813516 43.7771758,38.0813516 L2.22273438,38.0813516 C1.40704297,38.0813516 0.7245,37.4684375 0.644628906,36.6566992 C0.415078125,34.3233672 0,29.5319102 0,25.3914609 C0,22.7346914 0,20.3461055 0,19.046875 C0,11.7768984 0.462785156,4.50692188 0.681375,1.47900781 C0.741121094,0.649390625 2.22453125,0.0123984375 3.05621484,0.0123984375 L43.7368359,0.0123984375 Z" id="Shape" fill="#F0EBD2"></path>
            <path d="M0,20.6330664 C0,21.9304102 0,23.5949453 0,25.3914609 L0,25.3916406 L46,25.3916406 L46,25.3914609 C46,23.5948555 46,21.9303203 46,20.6330664 L0,20.6330664 Z" id="Shape" fill="#FAF7E6"></path>
            <rect id="Rectangle-path" fill="#FFD264" x="22.2068594" y="16.667543" width="1.58619141" height="8.72409766"></rect>
            <rect id="Rectangle-path" fill="#FF7364" x="20.620668" y="16.667543" width="1.58619141" height="8.72409766"></rect>
            <rect id="Rectangle-path" fill="#FF8CBE" x="19.0344766" y="16.667543" width="1.58619141" height="8.72409766"></rect>
            <rect id="Rectangle-path" fill="#B9F564" x="23.7931406" y="16.667543" width="1.58619141" height="8.72409766"></rect>
            <rect id="Rectangle-path" fill="#50B9FF" x="25.379332" y="16.667543" width="1.58619141" height="8.72409766"></rect>
            <path d="M0,25.3917305 C0,29.5320898 0.415078125,34.3233672 0.64471875,36.6566992 C0.724589844,37.4684375 1.40713281,38.0814414 2.22282422,38.0814414 L43.7771758,38.0814414 C44.5928672,38.0814414 45.2754102,37.4684375 45.3552813,36.6566992 C45.5849219,34.3233672 46,29.5320898 46,25.3917305 L0,25.3917305 Z" id="Shape" fill="#5B5D6E"></path>
            <circle id="Oval" fill="#464655" cx="36.4827617" cy="15.0813516" r="2.37933203"></circle>
            <circle id="Oval" fill="#FF6464" cx="9.51723828" cy="15.0813516" r="2.37933203"></circle>
            <path d="M42.0344766,2.39173047 L36.4827617,2.39173047 C36.0447734,2.39173047 35.6896211,2.74688281 35.6896211,3.18487109 L35.6896211,8.73658594 C35.6896211,9.17457422 36.0447734,9.52972656 36.4827617,9.52972656 L42.0344766,9.52972656 C42.4724648,9.52972656 42.8276172,9.17457422 42.8276172,8.73658594 L42.8276172,3.18478125 C42.8276172,2.74679297 42.4724648,2.39173047 42.0344766,2.39173047 Z" id="Shape" fill="#464655"></path>
            <path d="M42.0344766,35.7020195 L3.96552344,35.7020195 C3.52753516,35.7020195 3.17238281,35.3468672 3.17238281,34.9088789 L3.17238281,28.5640234 C3.17238281,28.1260352 3.52753516,27.7708828 3.96552344,27.7708828 L42.0344766,27.7708828 C42.4724648,27.7708828 42.8276172,28.1260352 42.8276172,28.5640234 L42.8276172,34.9088789 C42.8276172,35.346957 42.4724648,35.7020195 42.0344766,35.7020195 Z" id="Shape" fill="#707487"></path>
            <circle id="Oval" fill="#5B5D6E" cx="39.2586641" cy="5.96068359" r="3.56895312"></circle>
            <circle id="Oval" fill="#464655" cx="39.2586641" cy="5.96068359" r="1.98276172"></circle>
            <path d="M40.4482852,3.97792187 C40.0109258,3.97792187 39.6551445,4.33361328 39.6551445,4.7710625 C39.6551445,5.20851172 40.0108359,5.56420312 40.4482852,5.56420312 C40.8856445,5.56420312 41.2414258,5.20851172 41.2414258,4.7710625 C41.2414258,4.33361328 40.8856445,3.97792187 40.4482852,3.97792187 Z" id="Shape" fill="#FFFFFF"></path>
            <path d="M42.0344766,35.7020195 L3.96552344,35.7020195 C3.52753516,35.7020195 3.17238281,35.3468672 3.17238281,34.9088789 L3.17238281,33.3226875 L42.8276172,33.3226875 L42.8276172,34.9088789 C42.8276172,35.346957 42.4724648,35.7020195 42.0344766,35.7020195 Z" id="Shape" fill="#464655"></path>
            <rect id="Rectangle-path" fill="#F5B950" x="22.2068594" y="16.667543" width="1.58619141" height="3.96552344"></rect>
            <rect id="Rectangle-path" fill="#F05F46" x="20.620668" y="16.667543" width="1.58619141" height="3.96552344"></rect>
            <rect id="Rectangle-path" fill="#FF699B" x="19.0344766" y="16.667543" width="1.58619141" height="3.96552344"></rect>
            <rect id="Rectangle-path" fill="#A0DC64" x="23.7931406" y="16.667543" width="1.58619141" height="3.96552344"></rect>
            <rect id="Rectangle-path" fill="#46A0FF" x="25.379332" y="16.667543" width="1.58619141" height="3.96552344"></rect>
            <circle id="Oval" fill="#464655" cx="23" cy="10.3227773" r="7.93104688"></circle>
            <circle id="Oval" fill="#5B5D6E" cx="23" cy="10.3227773" r="5.55171484"></circle>
            <circle id="Oval" fill="#464655" cx="23" cy="10.3227773" r="2.37933203"></circle>
            <path d="M26.9655234,5.16754297 C26.0907148,5.16754297 25.379332,5.87892578 25.379332,6.75373437 C25.379332,7.62854297 26.0907148,8.33992578 26.9655234,8.33992578 C27.840332,8.33992578 28.5517148,7.62854297 28.5517148,6.75373437 C28.5517148,5.87892578 27.840332,5.16754297 26.9655234,5.16754297 Z" id="Shape" fill="#D7DEED"></path>
            <g id="Group" transform="translate(23.000000, 5.570313)" fill="#FFFFFF">
                <path d="M1.18962109,2.76970312 C0.533492187,2.76970312 0,3.30328516 0,3.95932422 C0,4.61545313 0.533582031,5.14894531 1.18962109,5.14894531 C1.84575,5.14894531 2.37924219,4.61536328 2.37924219,3.95932422 C2.37933203,3.30319531 1.84575,2.76970312 1.18962109,2.76970312 Z" id="Shape"></path>
                <path d="M3.96552344,2.76970313 C4.35858984,2.76970313 4.71410156,2.62083203 4.99153906,2.38328516 C4.52713672,1.40695313 3.79401172,0.595574219 2.87760547,0.0349492188 C2.57231641,0.324335938 2.37933203,0.730699219 2.37933203,1.18360156 C2.37933203,2.05823047 3.09071484,2.76970313 3.96552344,2.76970313 Z" id="Shape"></path>
            </g>
        </g>
    </g>
</svg>