<?xml version="1.0" encoding="UTF-8"?>
<svg width="73px" height="73px" viewBox="0 0 73 73" version="1.1" xmlns="http://www.w3.org/2000/svg" xmlns:xlink="http://www.w3.org/1999/xlink">
    <!-- Generator: Sketch 51.3 (57544) - http://www.bohemiancoding.com/sketch -->
    <title>the-modern-web/mutation-observer</title>
    <desc>Created with Sketch.</desc>
    <defs>
        <rect id="path-1" x="0" y="10" width="69" height="69" rx="14"></rect>
    </defs>
    <g id="the-modern-web/mutation-observer" stroke="none" stroke-width="1" fill="none" fill-rule="evenodd">
        <g id="container" transform="translate(2.000000, -8.000000)">
            <rect id="mask" stroke="#000000" stroke-width="2" fill="#2F373B" fill-rule="nonzero" x="-1" y="9" width="71" height="71" rx="14"></rect>
            <mask id="mask-2" fill="white">
                <use xlink:href="#path-1"></use>
            </mask>
            <rect stroke="#000000" stroke-width="2" x="-1" y="9" width="71" height="71" rx="14"></rect>
            <g id="fertilization-(1)" mask="url(#mask-2)">
                <g transform="translate(4.000000, 0.000000)">
                    <g id="Group" stroke-width="1" fill="none" fill-rule="evenodd" transform="translate(33.000000, 0.734094)">
                        <path d="M51,41.9516129 C51,42.1417317 50.9980796,42.333771 50.9967994,42.5232497 C48.5054103,44.8078767 45.6197006,46.6687368 42.4536135,47.9944478 C38.9572191,49.4565065 35.1202749,50.2649918 31.0925718,50.2649918 C14.8255676,50.2649918 1.63759273,37.0782971 1.63759273,20.8112929 C1.63759273,12.6931538 4.9221038,5.34381202 10.2300687,0.0166433192 C12.7643464,0.0870577904 15.2416527,0.381517964 17.6440636,0.883380521 C36.6905159,4.8477106 51,21.7292404 51,41.9516129 Z" id="Shape" fill="#EA2F69" fill-rule="nonzero"></path>
                        <path d="M51,41.9516129 C51,42.1417317 50.9980796,42.333771 50.9967994,42.5232497 C48.5054103,44.8078767 45.6197006,46.6687368 42.4536135,47.9944478 C42.0394488,48.0110911 41.6214434,48.020053 41.2021579,48.020053 C24.9351535,48.020053 11.7471786,34.8333583 11.7471786,18.5663541 C11.7471786,11.9294778 13.9421871,5.80598655 17.6440636,0.883380521 C36.6905159,4.8477106 51,21.7292404 51,41.9516129 Z" id="Shape" fill="#FF648D" fill-rule="nonzero"></path>
                        <path d="M50.1761516,33.6401544 C46.047948,39.7719675 39.0410762,43.8041516 31.0925718,43.8041516 C18.394297,43.8041516 8.09971332,33.5102078 8.09971332,20.8112929 C8.09971332,12.5183982 12.4903704,5.25035284 19.0721955,1.20536636 C34.7554004,5.05127228 46.9761376,17.7136998 50.1761516,33.6401544 Z" id="Shape" fill="#D174B7" fill-rule="nonzero"></path>
                        <path d="M19.0677146,1.20856697 C17.9084376,1.92103253 16.8189351,2.73591901 15.8075284,3.6365831 C13.2284412,8.01379768 11.7471786,13.1162803 11.7471786,18.5663541 C11.7471786,28.6484143 16.8144541,37.5455925 24.5395528,42.8548375 C26.6161371,43.4719236 28.8156266,43.8041516 31.0925718,43.8041516 C39.0417163,43.8041516 46.047948,39.7719675 50.1767917,33.6401544 L50.1767917,33.6395143 C46.9748575,17.7130597 34.7521996,5.05063203 19.0677146,1.20856697 Z" id="Shape" fill="#ED96D0" fill-rule="nonzero"></path>
                    </g>
                    <path d="M24.082199,35.2157211 C24.42733,36.0666809 24.4732437,36.9643326 24.2713013,37.7931137 C23.9596329,39.0604095 23.0666504,40.1650619 21.7655029,40.6926803 C21.0950851,40.9646606 20.3943176,41.0510407 19.7215653,40.9755554 C19.6849899,40.9712753 19.5939408,40.9599915 19.4986115,40.9490967 C19.4032821,40.938591 19.304451,40.9280853 19.2550354,40.9245834 C18.5663299,40.8802262 17.2052612,40.9132996 15.7757111,41.6210709 C13.734108,42.6319504 11.7605973,42.0058899 10.7843475,40.8638839 C9.80965421,39.7230453 8.37776945,40.3405457 8.37776945,40.3405457 C9.52794645,38.8487396 11.3104095,40.1755676 13.133728,39.4362793 C14.884285,38.7265625 14.8119125,35.8503418 17.090866,33.8974533 C17.1830826,33.8172989 17.2803573,33.7398682 17.380745,33.6628265 C17.7328796,33.3484344 18.1433792,33.0865707 18.6052399,32.899025 C20.7573471,32.0266647 23.2098389,33.064003 24.082199,35.2157211 Z" id="Shape" fill="#FCF8F2" fill-rule="nonzero"></path>
                    <path d="M20.7048187,35.8534546 C20.3670807,35.0203934 19.681488,34.5118408 19.1737137,34.7180633 C18.6655502,34.9238968 18.5278092,35.7662964 18.8655472,36.5993576 C19.2032852,37.4324188 19.8888778,37.9405823 20.3970413,37.7347489 C20.9048157,37.5285263 21.0429459,36.6861267 20.7048187,35.8534546 Z" id="Shape" fill="#2F373B" fill-rule="nonzero"></path>
                    <path d="M23.2394104,34.8254548 C22.9012833,33.9923935 22.2156906,33.4842301 21.7079163,33.6900635 C21.1997528,33.896286 21.0620117,34.7382966 21.3997498,35.5713578 C21.7374878,36.4044189 22.4230804,36.9129715 22.9312439,36.7067489 C23.4390182,36.5009155 23.5771484,35.658516 23.2394104,34.8254548 Z" id="Shape" fill="#2F373B" fill-rule="nonzero"></path>
                    <path d="M20.2943192,35.67836 C20.172142,35.3775863 19.9608612,35.1791458 19.8219528,35.2355652 C19.6830444,35.2919845 19.6694259,35.5814743 19.7916031,35.8822479 C19.9133911,36.1830216 20.125061,36.3814621 20.2639694,36.3250427 C20.4024887,36.2686234 20.4161072,35.9791336 20.2943192,35.67836 Z" id="Shape" fill="#FCF8F2" fill-rule="nonzero"></path>
                    <path d="M22.845253,34.6437454 C22.723465,34.3429719 22.5117951,34.1449203 22.3728866,34.2009506 C22.2343673,34.2573699 22.2203598,34.5468597 22.342537,34.8476334 C22.464325,35.148407 22.6759949,35.3468475 22.8149032,35.2904281 C22.9538117,35.2343979 22.9674301,34.944519 22.845253,34.6437454 Z" id="Shape" fill="#FCF8F2" fill-rule="nonzero"></path>
                    <path d="M24.2713013,37.7931137 C23.9596329,39.0604095 23.0666504,40.1650619 21.7655029,40.6926803 C21.0950851,40.9646606 20.3943176,41.0510407 19.7215653,40.9755554 C19.6849899,40.9712753 19.5939408,40.9599915 19.4986115,40.9490967 C19.4032821,40.938591 19.304451,40.9280853 19.2550354,40.9245834 C18.5663299,40.8802262 17.2052612,40.9132996 15.7757111,41.6210709 C13.734108,42.6319504 11.7605973,42.0058899 10.7843475,40.8638839 C9.80965421,39.7230453 8.37776945,40.3405457 8.37776945,40.3405457 C9.52794645,38.8487396 11.3104095,40.1755676 13.133728,39.4362793 C14.884285,38.7265625 14.8119125,35.8503418 17.090866,33.8974533 C17.090866,33.8974533 16.2146149,35.9666825 17.8282089,37.8989486 C19.4402466,39.8304367 22.6697693,39.2522354 24.2701339,37.7923355 L24.2713013,37.7931137 Z" id="Shape" fill="#EAE0D3" fill-rule="nonzero"></path>
                    <path d="M28.1556778,50.7808533 C28.5004196,51.631424 28.5467224,52.5294647 28.3447799,53.3578568 C28.0331116,54.6255417 27.1401291,55.7301941 25.8389816,56.2574234 C25.1685638,56.5294036 24.4677963,56.6157837 23.7950439,56.5406876 C23.7584686,56.5360184 23.6674194,56.5247345 23.5720902,56.5142288 C23.4763717,56.5033341 23.3779297,56.4928284 23.328125,56.4893265 C22.6398087,56.4449692 21.2783508,56.4780427 19.8491898,57.1858139 C17.8075867,58.1966934 15.8340759,57.570633 14.8578263,56.4290161 C13.8827438,55.2877884 12.450859,55.9056778 12.450859,55.9056778 C13.6014251,54.4134827 15.3838883,55.7403107 17.2068176,55.0014115 C18.9573746,54.2913055 18.8853913,51.4150848 21.1639557,49.4625854 C21.2561722,49.382431 21.3538361,49.3046112 21.4542236,49.2279587 C21.8063583,48.9131775 22.2164688,48.6513138 22.6787186,48.4641571 C24.8304367,47.5914078 27.2829285,48.628746 28.1556778,50.7808533 Z" id="Shape" fill="#FCF8F2" fill-rule="nonzero"></path>
                    <path d="M24.7786865,51.4178085 C24.4409485,50.5847473 23.7553558,50.0765838 23.2471924,50.2824173 C22.7394181,50.4886398 22.6012878,51.3306503 22.9390259,52.1637116 C23.277153,52.9967728 23.9627457,53.5049362 24.47052,53.2991028 C24.9786834,53.0932694 25.1164246,52.2508698 24.7786865,51.4178085 Z" id="Shape" fill="#2F373B" fill-rule="nonzero"></path>
                    <path d="M27.3128891,50.3901978 C26.975151,49.5571366 26.2895584,49.0489731 25.7813949,49.2548065 C25.2736206,49.46064 25.1354904,50.3030396 25.4736175,51.1361007 C25.8113556,51.9691619 26.4969482,52.4773254 27.0047226,52.271492 C27.5128861,52.0652694 27.6506271,51.2232589 27.3128891,50.3901978 Z" id="Shape" fill="#2F373B" fill-rule="nonzero"></path>
                    <path d="M24.3681869,51.242714 C24.2460099,50.9419403 24.034729,50.7438888 23.8958206,50.8003083 C23.7569123,50.8563386 23.7432938,51.1458283 23.8650818,51.4466019 C23.987259,51.7477646 24.1985397,51.9458161 24.3374481,51.8893966 C24.4763565,51.8333664 24.4899749,51.5438766 24.3681869,51.242714 Z" id="Shape" fill="#FCF8F2" fill-rule="nonzero"></path>
                    <path d="M26.9187317,50.2084884 C26.7969437,49.9073258 26.5852738,49.7092742 26.4467545,49.7656937 C26.307846,49.821724 26.2942276,50.1116028 26.4160156,50.4123764 C26.5381927,50.7131501 26.7494735,50.9112015 26.888382,50.8551712 C27.0272904,50.7987518 27.0409089,50.509262 26.9187317,50.2084884 Z" id="Shape" fill="#FCF8F2" fill-rule="nonzero"></path>
                    <path d="M28.3447799,53.3578568 C28.0331116,54.6255417 27.1401291,55.7301941 25.8389816,56.2574234 C25.1685638,56.5294036 24.4677963,56.6157837 23.7950439,56.5406876 C23.7584686,56.5360184 23.6674194,56.5247345 23.5720902,56.5142288 C23.4763717,56.5033341 23.3779297,56.4928284 23.328125,56.4893265 C22.6398087,56.4449692 21.2783508,56.4780427 19.8491898,57.1858139 C17.8075867,58.1966934 15.8340759,57.570633 14.8578263,56.4290161 C13.8827438,55.2877884 12.450859,55.9056778 12.450859,55.9056778 C13.6014251,54.4134827 15.3838883,55.7403107 17.2068176,55.0014115 C18.9573746,54.2913055 18.8853913,51.4150848 21.1639557,49.4625854 C21.1639557,49.4625854 20.2880936,51.5314255 21.9016877,53.4636917 C23.5137253,55.3955688 26.7428589,54.8173675 28.3432235,53.3574676 L28.3447799,53.3578568 Z" id="Shape" fill="#EAE0D3" fill-rule="nonzero"></path>
                    <path d="M43.3126449,52.2049561 C43.6577759,53.0555267 43.7036896,53.9535676 43.5017472,54.7819596 C43.1904679,56.0496444 42.2970963,57.1539078 40.9959488,57.6815262 C40.325531,57.9535065 39.6251526,58.0398865 38.9520111,57.9647904 C38.9154358,57.9601212 38.8243865,57.9488372 38.7290573,57.9383316 C38.633728,57.9274369 38.535286,57.9169312 38.4854813,57.9134293 C37.7967758,57.8690719 36.4357071,57.9021453 35.0065461,58.6099167 C32.9645539,59.6207962 30.9910431,58.9947357 30.0147934,57.8531189 C29.0401001,56.7118912 27.6082153,57.3297806 27.6082153,57.3297806 C28.7587814,55.8375854 30.5412445,57.1644134 32.3641739,56.4255142 C34.1147308,55.7154084 34.0423584,52.8391877 36.3213119,50.8866882 C36.4135285,50.8065339 36.5111923,50.728714 36.6115799,50.6520614 C36.9633255,50.3372803 37.373825,50.0754166 37.8360749,49.8882599 C39.987793,49.0155106 42.4402848,50.0528488 43.3126449,52.2049561 Z" id="Shape" fill="#FCF8F2" fill-rule="nonzero"></path>
                    <path d="M39.9356536,52.8415222 C39.5979157,52.008461 38.912323,51.5002975 38.4045487,51.706131 C37.8963852,51.9123535 37.7586441,52.754364 38.0963822,53.5874252 C38.4341202,54.4204865 39.1197128,54.9286499 39.6274871,54.7228165 C40.1356506,54.5165939 40.2733918,53.6745834 39.9356536,52.8415222 Z" id="Shape" fill="#2F373B" fill-rule="nonzero"></path>
                    <path d="M42.4702454,51.8139115 C42.1325073,50.9808503 41.4465255,50.4726868 40.9387512,50.6785202 C40.4305877,50.8843537 40.2928467,51.7267533 40.6305847,52.5598145 C40.9683228,53.3928756 41.6539154,53.9010391 42.1620789,53.6952057 C42.6698532,53.4889832 42.8079834,52.6469727 42.4702454,51.8139115 Z" id="Shape" fill="#2F373B" fill-rule="nonzero"></path>
                    <path d="M39.5251541,52.6664276 C39.402977,52.365654 39.1916961,52.1676025 39.0527878,52.2236328 C38.9138794,52.2800522 38.9002609,52.5695419 39.0224381,52.8703156 C39.1442261,53.1710892 39.355896,53.3695297 39.4944153,53.3131104 C39.6333236,53.256691 39.6469421,52.9672013 39.5251541,52.6664276 Z" id="Shape" fill="#FCF8F2" fill-rule="nonzero"></path>
                    <path d="M42.076088,51.6322021 C41.9539108,51.3314286 41.7426301,51.132988 41.6037216,51.1894074 C41.4648132,51.2454377 41.4511947,51.5353165 41.5733719,51.8360901 C41.6951599,52.1368637 41.9068298,52.3349152 42.0457382,52.2788849 C42.1842575,52.2224655 42.197876,51.9329757 42.076088,51.6322021 Z" id="Shape" fill="#FCF8F2" fill-rule="nonzero"></path>
                    <path d="M43.5017472,54.7823486 C43.1904679,56.0496444 42.2970963,57.1542969 40.9959488,57.6819153 C40.325531,57.9535065 39.6251526,58.0398865 38.9520111,57.9647904 C38.9154358,57.9605103 38.8243865,57.9492264 38.7290573,57.9383316 C38.633728,57.9274369 38.535286,57.9169312 38.4854813,57.9134293 C37.7967758,57.8694611 36.4357071,57.9025345 35.0065461,58.6099167 C32.9645539,59.6211853 30.9910431,58.9947357 30.0147934,57.8531189 C29.0401001,56.7118912 27.6082153,57.3297806 27.6082153,57.3297806 C28.7587814,55.8379745 30.5412445,57.1648026 32.3641739,56.4255142 C34.1147308,55.7154084 34.0423584,52.8395767 36.3213119,50.8866882 C36.3213119,50.8866882 35.4450607,52.9555282 37.0586548,54.8881836 C38.6710815,56.8196716 41.9002152,56.2414704 43.5005798,54.7815705 L43.5017472,54.7823486 Z" id="Shape" fill="#EAE0D3" fill-rule="nonzero"></path>
                    <path d="M27.8949814,64.7113801 C27.5837021,65.9790649 26.6895523,67.0833283 25.3884049,67.6109466 C24.7183761,67.8829269 24.0176086,67.9689178 23.3452454,67.8942108 C23.3078918,67.8899308 23.2172318,67.8786468 23.1215133,67.8681412 C23.0269622,67.8568573 22.9281311,67.8463516 22.8779373,67.8432389 C22.2024613,67.7996598 20.878746,67.8307877 19.4787674,68.5019836 C19.4787674,68.5019836 19.4787674,68.5008163 19.4779892,68.5019836 C18.2966842,67.9346771 17.1640168,67.2778778 16.093216,66.5409241 C16.3126678,66.5035706 16.5344543,66.4444275 16.757019,66.3549347 C18.5079651,65.6448288 18.4348145,62.7693863 20.7141571,60.8157196 C20.8059845,60.7355652 20.9036484,60.6585236 21.0048141,60.5814819 C21.3565597,60.2670898 21.7666703,60.0048371 22.2285309,59.8172913 C24.3810272,58.9453202 26.8331299,59.9830475 27.7054901,62.1343766 C28.0510101,62.9845581 28.0965348,63.882988 27.8949814,64.7113801 Z" id="Shape" fill="#FCF8F2" fill-rule="nonzero"></path>
                    <path d="M24.329277,62.7713318 C23.9911499,61.9382706 23.3055573,61.4301071 22.7977829,61.6359406 C22.2896195,61.8421631 22.1518783,62.6841736 22.4896164,63.5172348 C22.8273544,64.3502961 23.5129471,64.8584595 24.0211105,64.6526261 C24.5288849,64.4467927 24.6670151,63.604393 24.329277,62.7713318 Z" id="Shape" fill="#2F373B" fill-rule="nonzero"></path>
                    <path d="M26.8634797,61.743721 C26.5257415,60.9106598 25.8401489,60.4021073 25.3319855,60.6083297 C24.8242111,60.8141633 24.6860809,61.6565628 25.023819,62.489624 C25.361557,63.3226852 26.0475387,63.8308487 26.5553132,63.6250153 C27.0630875,63.4187927 27.2012176,62.5763932 26.8634797,61.743721 Z" id="Shape" fill="#2F373B" fill-rule="nonzero"></path>
                    <path d="M23.9183883,62.5962371 C23.7966003,62.2954635 23.5849304,62.0974121 23.4460221,62.1534424 C23.3071136,62.2098617 23.2934952,62.4993515 23.4156723,62.8001252 C23.5374603,63.1008988 23.7491302,63.2993393 23.8880387,63.2429199 C24.026947,63.1868896 24.0405655,62.8970108 23.9183883,62.5962371 Z" id="Shape" fill="#FCF8F2" fill-rule="nonzero"></path>
                    <path d="M26.4693222,61.5620117 C26.3475342,61.2612381 26.1358643,61.0627975 25.9969559,61.119217 C25.8580475,61.1756363 25.844429,61.4651261 25.9666061,61.7658997 C26.0883942,62.0666733 26.3000641,62.2647248 26.4389725,62.2086945 C26.5778809,62.1522751 26.5914994,61.8627853 26.4693222,61.5620117 Z" id="Shape" fill="#FCF8F2" fill-rule="nonzero"></path>
                    <path d="M25.3884049,67.6109466 C24.7183761,67.8829269 24.0176086,67.9689178 23.3452454,67.8942108 C23.3078918,67.8899308 23.2172318,67.8786468 23.1215133,67.8681412 C23.0269622,67.8568573 22.9281311,67.8463516 22.8779373,67.8432389 C22.2024613,67.7996598 20.238772,68.2669724 18.8387934,68.9381683 C17.4388148,69.6093643 13.2299303,68.3479003 12.1579622,67.6109466 C17.2508348,66.7258822 18.4348145,62.7693863 20.7141571,60.8157196 C20.7141571,60.8157196 19.8379059,62.8845597 21.4511108,64.8176041 C23.0635376,66.7494812 26.2930603,66.1705017 27.8938141,64.7113801 C27.5837021,65.9790649 26.6895523,67.0833283 25.3884049,67.6109466 Z" id="Shape" fill="#EAE0D3" fill-rule="nonzero"></path>
                    <path d="M15.9192887,49.7975998 C15.6080094,51.0652848 14.7150269,52.169548 13.4127121,52.6971664 C12.7426834,52.9687577 12.0419158,53.0551376 11.3699417,52.9804306 C11.3333664,52.9761506 11.2419281,52.9648666 11.1458206,52.9531937 C11.0512695,52.942688 10.9524383,52.9325715 10.9022445,52.9294587 C10.2143173,52.8843231 8.85285955,52.9177856 7.42408757,53.625557 C7.09607699,53.7878113 6.76923373,53.9088211 6.44861605,53.9909211 C6.09064486,52.9792634 5.79492953,51.9372559 5.56691739,50.8715133 C6.58090975,49.7341766 6.86611938,47.5054168 8.73846436,45.9015503 C8.83107,45.821785 8.92795565,45.7443542 9.02873225,45.6673127 C9.38086703,45.3533097 9.79097745,45.0910568 10.2528381,44.9035111 C12.4053345,44.0311508 14.8574372,45.0677109 15.7297974,47.2202072 C16.0753174,48.0707779 16.1212311,48.9688187 15.9192887,49.7975998 Z" id="Shape" fill="#FCF8F2" fill-rule="nonzero"></path>
                    <path d="M12.3531951,47.8579407 C12.0154572,47.0248795 11.3298645,46.5163269 10.821701,46.7225495 C10.3139267,46.9283829 10.1757966,47.7707825 10.5139237,48.6038437 C10.8516617,49.436905 11.5372543,49.9450684 12.0450286,49.7392349 C12.5531921,49.5330124 12.6909333,48.6906128 12.3531951,47.8579407 Z" id="Shape" fill="#2F373B" fill-rule="nonzero"></path>
                    <path d="M14.8877869,46.8299407 C14.5496598,45.9972687 13.8640671,45.4887162 13.3562927,45.6949386 C12.8481292,45.9007721 12.7103882,46.7431717 13.0481262,47.5762329 C13.3858643,48.408905 14.0714569,48.9174576 14.5796204,48.711235 C15.0873947,48.5054016 15.2255249,47.663002 14.8877869,46.8299407 Z" id="Shape" fill="#2F373B" fill-rule="nonzero"></path>
                    <path d="M11.9426956,47.682846 C11.8205185,47.3820724 11.6092376,47.1836319 11.4703293,47.2400513 C11.3314209,47.2964706 11.3178024,47.5859604 11.4399796,47.8867341 C11.5617676,48.1875077 11.7734375,48.3859482 11.9119568,48.3295288 C12.0508651,48.2731095 12.0644836,47.9836197 11.9426956,47.682846 Z" id="Shape" fill="#FCF8F2" fill-rule="nonzero"></path>
                    <path d="M14.4936295,46.6482315 C14.3718415,46.3474578 14.1601716,46.1494064 14.0212631,46.2054367 C13.8823547,46.2618561 13.8687362,46.5513459 13.9909134,46.8521195 C14.1127014,47.1528931 14.3243713,47.3513337 14.4632797,47.2949142 C14.6021882,47.2384949 14.6158066,46.9490051 14.4936295,46.6482315 Z" id="Shape" fill="#FCF8F2" fill-rule="nonzero"></path>
                    <path d="M13.4127121,52.6971664 C12.7426834,52.9687577 12.0419158,53.0551376 11.3699417,52.9804306 C11.3333664,52.9761506 11.2419281,52.9648666 11.1458206,52.9531937 C11.0512695,52.942688 10.9524383,52.9325715 10.9022445,52.9294587 C10.2143173,52.8843231 8.85285955,52.9177856 7.42408757,53.625557 C7.09607699,53.7878113 4.59615208,55.5296327 0.192631033,55.3284577 C7.77126934,49.9034347 4.07093615,50.7775559 8.73846436,45.9015503 C8.73846436,45.9015503 7.86221313,47.9707795 9.47658536,49.9034347 C11.088623,51.8353118 14.3173675,51.2567215 15.9181213,49.7964324 C15.6080094,51.0652848 14.7150269,52.169548 13.4127121,52.6971664 Z" id="Shape" fill="#EAE0D3" fill-rule="nonzero"></path>
                    <path d="M35.504982,39.42733 C35.8497238,40.2779007 35.8960266,41.1755524 35.6940841,42.0043335 C35.3824158,43.2716293 34.4894333,44.3762817 33.1882858,44.9039001 C32.517868,45.1758805 31.8171005,45.2622604 31.1443481,45.1867752 C31.1077728,45.1824951 31.0167236,45.1712113 30.9213944,45.1603165 C30.8260651,45.1498108 30.7272339,45.1393051 30.6774292,45.1358032 C29.9891129,45.091446 28.627655,45.1245194 27.198494,45.8322907 C25.1568909,46.8431702 23.1833801,46.2171097 22.2071305,45.0754928 C21.232048,43.9342651 19.8001632,44.5517655 19.8001632,44.5517655 C20.9507293,43.0599594 22.7331925,44.3867874 24.5561218,43.6478882 C26.3070679,42.9377823 26.2346955,40.0615616 28.5132599,38.1086731 C28.6054764,38.0285187 28.7031403,37.951088 28.8035278,37.8744354 C29.1556625,37.5596542 29.5661621,37.2977905 30.0280228,37.1106339 C32.1801301,36.2378845 34.6322327,37.2752228 35.504982,39.42733 Z" id="Shape" fill="#FCF8F2" fill-rule="nonzero"></path>
                    <path d="M32.1276016,40.0642853 C31.7898636,39.231224 31.1042709,38.7230606 30.5964966,38.928894 C30.0883332,39.1347275 29.950592,39.9771271 30.2883301,40.8101883 C30.6260681,41.6432495 31.3116608,42.1514129 31.8194351,41.9455795 C32.3275985,41.739357 32.4653397,40.8973465 32.1276016,40.0642853 Z" id="Shape" fill="#2F373B" fill-rule="nonzero"></path>
                    <path d="M34.6618042,39.0362854 C34.3240662,38.2036133 33.6384735,37.6950607 33.1306991,37.9012833 C32.6225357,38.1071167 32.4847946,38.9495163 32.8225326,39.7825775 C33.1602707,40.6152497 33.8458634,41.1238022 34.3540268,40.9175797 C34.8618011,40.7117463 34.9999313,39.8693466 34.6618042,39.0362854 Z" id="Shape" fill="#2F373B" fill-rule="nonzero"></path>
                    <path d="M31.7171021,39.8891907 C31.594925,39.5884171 31.3836441,39.3899765 31.2447357,39.4463958 C31.1058273,39.5028153 31.0922088,39.792305 31.2139969,40.0930786 C31.336174,40.3938522 31.5474548,40.5922928 31.6863632,40.5358734 C31.8252717,40.479454 31.8388901,40.1899643 31.7171021,39.8891907 Z" id="Shape" fill="#FCF8F2" fill-rule="nonzero"></path>
                    <path d="M34.2680359,38.8545761 C34.1458587,38.5538025 33.934578,38.3557511 33.7956696,38.4117813 C33.6567611,38.4682007 33.6431428,38.7576904 33.7653198,39.058464 C33.8871078,39.3592376 34.0987777,39.5576782 34.237297,39.5012589 C34.3762054,39.4448395 34.3898239,39.1553498 34.2680359,38.8545761 Z" id="Shape" fill="#FCF8F2" fill-rule="nonzero"></path>
                    <path d="M35.6940841,42.0043335 C35.3824158,43.2716293 34.4894333,44.3762817 33.1882858,44.9039001 C32.517868,45.1758805 31.8171005,45.2622604 31.1443481,45.1867752 C31.1077728,45.1824951 31.0167236,45.1712113 30.9213944,45.1603165 C30.8260651,45.1498108 30.7272339,45.1393051 30.6774292,45.1358032 C29.9891129,45.091446 28.627655,45.1245194 27.198494,45.8322907 C25.1568909,46.8431702 23.1833801,46.2171097 22.2071305,45.0754928 C21.232048,43.9342651 19.8001632,44.5517655 19.8001632,44.5517655 C20.9507293,43.0599594 22.7331925,44.3867874 24.5561218,43.6478882 C26.3070679,42.9377823 26.2346955,40.0615616 28.5132599,38.1086731 C28.5132599,38.1086731 27.6373978,40.1779022 29.2509919,42.1101685 C30.8630295,44.0420456 34.0921631,43.4638443 35.6925277,42.0039444 L35.6940841,42.0043335 Z" id="Shape" fill="#EAE0D3" fill-rule="nonzero"></path>
                </g>
            </g>
        </g>
    </g>
</svg>