<?xml version="1.0" encoding="UTF-8"?>
<svg width="73px" height="73px" viewBox="0 0 73 73" version="1.1" xmlns="http://www.w3.org/2000/svg" xmlns:xlink="http://www.w3.org/1999/xlink">
    <!-- Generator: Sketch 51.3 (57544) - http://www.bohemiancoding.com/sketch -->
    <title>the-modern-web/network-information-api</title>
    <desc>Created with Sketch.</desc>
    <defs></defs>
    <g id="the-modern-web/network-information-api" stroke="none" stroke-width="1" fill="none" fill-rule="evenodd">
        <g id="container" transform="translate(2.000000, 2.000000)" fill="#FFFFFF" fill-rule="nonzero" stroke="#1B4145" stroke-width="2">
            <rect id="mask" x="-1" y="-1" width="71" height="71" rx="14"></rect>
        </g>
        <g id="wifi-signal" transform="translate(12.000000, 15.000000)" fill-rule="nonzero">
            <path d="M13.1151367,13.1925781 C12.1947266,13.1925781 11.4485352,13.9386719 11.4485352,14.8591797 L11.4485352,29.0762695 L14.7817383,29.0762695 L14.7817383,14.859082 C14.7816406,13.9386719 14.0355469,13.1925781 13.1151367,13.1925781 Z" id="Shape" fill="#609399"></path>
            <path d="M50,32.4651367 C50,30.0207031 48,28.0207031 45.5555664,28.0207031 L4.44443359,28.0207031 C2,28.0207031 0,30.0207031 0,32.4651367 L0,37.8725586 C0,40.3169922 2,42.3169922 4.44443359,42.3169922 L45.5555664,42.3169922 C48,42.3169922 50,40.3169922 50,37.8725586 L50,32.4651367 Z" id="Shape" fill="#1B4145"></path>
            <path d="M18.9147461,8.22998047 C18.7015625,8.22998047 18.4881836,8.14863281 18.3253906,7.9859375 C15.4525391,5.11279297 10.7776367,5.11259766 7.90449219,7.9859375 C7.57890625,8.31123047 7.05136719,8.31123047 6.72597656,7.9859375 C6.40048828,7.66035156 6.40048828,7.1328125 6.72597656,6.80742187 C10.2490234,3.28457031 15.9810547,3.28466797 19.5041016,6.80742187 C19.8295898,7.13300781 19.8295898,7.66054687 19.5041016,7.9859375 C19.3413086,8.14853516 19.1280273,8.22998047 18.9147461,8.22998047 Z" id="Shape" fill="#FEE191"></path>
            <path d="M21.8146484,5.33017578 C21.6014648,5.33017578 21.3880859,5.24882813 21.225293,5.08613281 C16.7533203,0.6140625 9.47675781,0.613769531 5.00478516,5.08613281 C4.67919922,5.41142578 4.15166016,5.41142578 3.82626953,5.08613281 C3.50078125,4.76054688 3.50078125,4.23300781 3.82626953,3.90761719 C6.30371094,1.43017578 9.60263672,0.0658203125 13.1152344,0.0658203125 C16.6276367,0.0658203125 19.9266602,1.43017578 22.4041016,3.90761719 C22.7295898,4.23320313 22.7295898,4.76074219 22.4041016,5.08613281 C22.2412109,5.24882813 22.0279297,5.33017578 21.8146484,5.33017578 Z" id="Shape" fill="#FFF1CD"></path>
            <path d="M16.0150391,11.1297852 C15.8018555,11.1297852 15.5884766,11.0484375 15.4256836,10.8857422 C14.1516602,9.61171875 12.0787109,9.61152344 10.8044922,10.8857422 C10.4789062,11.2110352 9.95136719,11.2110352 9.62597656,10.8857422 C9.30048828,10.5601562 9.30048828,10.0326172 9.62597656,9.70722656 C11.5500977,7.78349609 14.6804687,7.78349609 16.6043945,9.70722656 C16.9298828,10.0328125 16.9298828,10.5603516 16.6043945,10.8857422 C16.4416016,11.0484375 16.2282227,11.1297852 16.0150391,11.1297852 Z" id="Shape" fill="#FFD24D"></path>
            <g id="Group" transform="translate(24.121094, 32.812500)" fill="#FFFFFF">
                <path d="M0.87890625,4.70869141 C0.418554688,4.70869141 0.0456054688,4.33564453 0.0456054688,3.87539062 L0.0456054688,0.837304687 C0.0456054688,0.376953125 0.418652344,0.00400390625 0.87890625,0.00400390625 C1.33925781,0.00400390625 1.71220703,0.377050781 1.71220703,0.837304687 L1.71220703,3.87539062 C1.71220703,4.33564453 1.33925781,4.70869141 0.87890625,4.70869141 Z" id="Shape"></path>
                <path d="M7.12890625,4.70869141 C6.66855469,4.70869141 6.29560547,4.33564453 6.29560547,3.87539062 L6.29560547,0.837304687 C6.29560547,0.376953125 6.66865234,0.00400390625 7.12890625,0.00400390625 C7.58925781,0.00400390625 7.96220703,0.377050781 7.96220703,0.837304687 L7.96220703,3.87539062 C7.96220703,4.33564453 7.58925781,4.70869141 7.12890625,4.70869141 Z" id="Shape"></path>
            </g>
            <path d="M43.75,37.5211914 C43.2896484,37.5211914 42.9166992,37.1481445 42.9166992,36.6878906 L42.9166992,33.6498047 C42.9166992,33.1894531 43.2897461,32.8165039 43.75,32.8165039 C44.2103516,32.8165039 44.5833008,33.1895508 44.5833008,33.6498047 L44.5833008,36.6878906 C44.5833008,37.1481445 44.2103516,37.5211914 43.75,37.5211914 Z" id="Shape" fill="#FFD24D"></path>
            <path d="M37.5,37.5211914 C37.0396484,37.5211914 36.6666992,37.1481445 36.6666992,36.6878906 L36.6666992,33.6498047 C36.6666992,33.1894531 37.0397461,32.8165039 37.5,32.8165039 C37.9603516,32.8165039 38.3333008,33.1895508 38.3333008,33.6498047 L38.3333008,36.6878906 C38.3333008,37.1481445 37.9603516,37.5211914 37.5,37.5211914 Z" id="Shape" fill="#FFFFFF"></path>
        </g>
    </g>
</svg>