<?xml version="1.0" encoding="UTF-8"?>
<svg width="73px" height="73px" viewBox="0 0 73 73" version="1.1" xmlns="http://www.w3.org/2000/svg" xmlns:xlink="http://www.w3.org/1999/xlink">
    <!-- Generator: Sketch 51.3 (57544) - http://www.bohemiancoding.com/sketch -->
    <title>the-modern-web/presentation</title>
    <desc>Created with Sketch.</desc>
    <defs></defs>
    <g id="the-modern-web/presentation" stroke="none" stroke-width="1" fill="none" fill-rule="evenodd">
        <g id="container" transform="translate(2.000000, 2.000000)" fill="#FFFFFF" fill-rule="nonzero" stroke="#1E2D3D" stroke-width="2">
            <rect id="mask" x="-1" y="-1" width="71" height="71" rx="14"></rect>
        </g>
        <g id="projection" transform="translate(12.000000, 12.000000)" fill-rule="nonzero">
            <path d="M23.2758789,35.3448242 L26.7241211,35.3448242 L26.7241211,48.2758789 C26.7241211,49.228125 25.9522461,50 25,50 C24.0477539,50 23.2758789,49.2280273 23.2758789,48.2758789 L23.2758789,35.3448242 Z" id="Shape" fill="#805333"></path>
            <g id="Group" transform="translate(12.890625, 36.132812)" fill="#CB8252">
                <path d="M10.6481445,0.0741210938 L3.25585938,13.0051758 C2.77978516,13.8288086 1.72607422,14.1105469 0.902441406,13.6344727 C0.0788085938,13.1583984 -0.202929687,12.1046875 0.273144531,11.2810547 L6.67402344,0.0741210938 L10.6481445,0.0741210938 Z" id="Shape"></path>
                <path d="M17.5447266,0.0741210938 L23.9456055,11.2810547 C24.4216797,12.1046875 24.1399414,13.1583984 23.3163086,13.6344727 C22.4926758,14.1105469 21.4389648,13.8288086 20.9628906,13.0051758 L13.5706055,0.0741210938 L17.5447266,0.0741210938 Z" id="Shape"></path>
            </g>
            <path d="M21.5517578,3.44824219 C21.5517578,1.54384766 23.0956055,0 25,0 C26.9043945,0 28.4482422,1.54384766 28.4482422,3.44824219 L28.4482422,5.17236328 L21.5517578,5.17236328 L21.5517578,3.44824219 Z" id="Shape" fill="#805333"></path>
            <path d="M31.9051758,3.44824219 L1.72412109,3.44824219 C0.773046875,3.45107422 0.00283203125,4.22138672 0,5.17246094 L0,36.2069336 C0.00283203125,37.1580078 0.773046875,37.9283203 1.72412109,37.9310547 L48.2758789,37.9310547 C49.2269531,37.9282227 49.9972656,37.1580078 50,36.2069336 L50,5.17246094 C49.997168,4.22138672 49.2269531,3.45107422 48.2758789,3.44833984 L42.2328125,3.44833984" id="Shape" fill="#CBB292"></path>
            <path d="M45.6896484,34.4827148 L4.31035156,34.4827148 C4.08164063,34.4828125 3.86230469,34.3920898 3.70058594,34.2303711 C3.53886719,34.0686523 3.44814453,33.8493164 3.44824219,33.6206055 L3.44824219,7.75859375 C3.44824219,7.28251953 3.83417969,6.89648437 4.31035156,6.89648437 C4.78652344,6.89648437 5.17246094,7.28242187 5.17246094,7.75859375 L5.17246094,32.7585937 L45.6897461,32.7585937 C46.1658203,32.7585937 46.5518555,33.1445312 46.5518555,33.6207031 C46.5518555,34.096875 46.1657227,34.4827148 45.6896484,34.4827148 Z" id="Shape" fill="#4482C3"></path>
            <g id="Group" transform="translate(11.523438, 16.699219)" fill="#35495E">
                <path d="M12.2946289,10.1629883 C12.102832,10.162793 11.9165039,10.0988281 11.7651367,9.98115234 L8.09296875,7.11884766 C7.71914063,6.82539062 7.65302734,6.28476562 7.9453125,5.90996094 C8.23759766,5.53515625 8.77792969,5.46738281 9.15371094,5.75839844 L12.8258789,8.62070312 C13.1166016,8.84716797 13.23125,9.23320312 13.1112305,9.58164062 C12.9911133,9.92998047 12.6630859,10.1635742 12.2946289,10.1629883 Z" id="Shape"></path>
                <path d="M0.865429687,10.1629883 C0.496972656,10.1635742 0.168847656,9.92998047 0.048828125,9.58164062 C-0.0711914063,9.23330078 0.0434570312,8.84716797 0.334179687,8.62070312 L4.00634766,5.75839844 C4.38203125,5.46640625 4.92324219,5.53388672 5.21582031,5.90908203 C5.50839844,6.284375 5.44179687,6.82558594 5.06708984,7.11884766 L1.39492187,9.98115234 C1.24355469,10.0989258 1.05722656,10.1629883 0.865429687,10.1629883 Z" id="Shape"></path>
                <path d="M15.7512695,9.57705078 C15.4352539,9.57695313 15.1445312,9.40390625 14.9938477,9.12607422 C14.8431641,8.84824219 14.8566406,8.51025391 15.0289062,8.2453125 L20.1238281,0.4 C20.3838867,0.0021484375 20.9167969,-0.110351562 21.3154297,0.148632812 C21.7140625,0.407519531 21.8279297,0.940234375 21.5701172,1.33955078 L16.4751953,9.18486328 C16.3161133,9.42988281 16.0435547,9.57753906 15.7512695,9.57705078 Z" id="Shape"></path>
            </g>
            <g id="Group" transform="translate(7.714844, 18.945312)" fill="#E6E7E8">
                <circle id="Oval" cx="2.62998047" cy="8.64091797" r="2.58623047"></circle>
                <circle id="Oval" cx="10.3885742" cy="2.60644531" r="2.58623047"></circle>
                <circle id="Oval" cx="18.1472656" cy="8.64091797" r="2.58623047"></circle>
            </g>
            <circle id="Oval" fill="#F3D55B" cx="37.0689453" cy="10.3448242" r="8.62070312"></circle>
            <path d="M37.9310547,9.58681641 L37.9310547,7.24208984 C38.3989258,7.38359375 38.737793,7.78984375 38.7931641,8.27548828 C38.7931641,8.7515625 39.1791016,9.13759766 39.6552734,9.13759766 C40.1314453,9.13759766 40.5173828,8.75166016 40.5173828,8.27548828 C40.4241211,6.84375 39.3490234,5.66875 37.9311523,5.44902344 L37.9311523,5.17236328 C37.9311523,4.69628906 37.5452148,4.31025391 37.069043,4.31025391 C36.5928711,4.31025391 36.2069336,4.69619141 36.2069336,5.17236328 L36.2069336,5.44902344 C34.7890625,5.66875 33.7139648,6.84375 33.6207031,8.27548828 C33.7136719,9.70751953 34.7887695,10.8829102 36.2069336,11.1027344 L36.2069336,13.4474609 C35.7390625,13.305957 35.4001953,12.899707 35.3448242,12.4140625 C35.3448242,11.9379883 34.9588867,11.5519531 34.4827148,11.5519531 C34.006543,11.5519531 33.6206055,11.9378906 33.6206055,12.4140625 C33.7138672,13.8458008 34.7889648,15.0208008 36.2068359,15.2405273 L36.2068359,15.5171875 C36.2068359,15.9932617 36.5927734,16.3792969 37.0689453,16.3792969 C37.5451172,16.3792969 37.9310547,15.9933594 37.9310547,15.5171875 L37.9310547,15.2405273 C39.3489258,15.0208008 40.4240234,13.8458008 40.5172852,12.4140625 C40.4242187,10.9821289 39.3491211,9.80673828 37.9310547,9.58681641 Z M35.3448242,8.27548828 C35.4000977,7.78984375 35.7390625,7.38359375 36.2069336,7.24208984 L36.2069336,9.30947266 C35.7389648,9.16767578 35.4001953,8.76132812 35.3448242,8.27548828 Z M37.9310547,13.4475586 L37.9310547,11.3800781 C38.3989258,11.521875 38.737793,11.9283203 38.7931641,12.4140625 C38.737793,12.8998047 38.3989258,13.3060547 37.9310547,13.4475586 Z" id="Shape" fill="#F9EAB0"></path>
        </g>
    </g>
</svg>