<?xml version="1.0" encoding="UTF-8"?>
<svg width="73px" height="73px" viewBox="0 0 73 73" version="1.1" xmlns="http://www.w3.org/2000/svg" xmlns:xlink="http://www.w3.org/1999/xlink">
    <!-- Generator: Sketch 51.3 (57544) - http://www.bohemiancoding.com/sketch -->
    <title>the-modern-web/project-fugu</title>
    <desc>Created with Sketch.</desc>
    <defs></defs>
    <g id="the-modern-web/project-fugu" stroke="none" stroke-width="1" fill="none" fill-rule="evenodd">
        <g id="container" transform="translate(2.000000, 2.000000)" fill="#FFFFFF" fill-rule="nonzero" stroke="#544129" stroke-width="2">
            <rect id="mask" x="-1" y="-1" width="71" height="71" rx="14"></rect>
        </g>
        <g id="blowfish" transform="translate(9.000000, 12.000000)" fill-rule="nonzero">
            <path d="M53.5086562,19.2012187 C56.6162187,19.2012187 55.9371094,21.7204531 55.9371094,24.828125 C55.9371094,27.9357969 56.6162187,30.4550312 53.5086562,30.4550312 C50.4010937,30.4550312 45.8432187,27.9356875 45.8432187,24.828125 C45.8432187,21.7205625 50.4010937,19.2012187 53.5086562,19.2012187 Z" id="Shape" fill="#FFC477"></path>
            <g id="Group" transform="translate(51.625000, 21.218750)" fill="#FFB655">
                <path d="M0.935921875,7.15509375 C0.4738125,7.15509375 0.0931875,6.7895625 0.079734375,6.32515625 C0.076234375,6.202875 0.0756875,4.50515625 0.075578125,3.780875 C0.075578125,3.3075 0.459265625,2.92370312 0.932640625,2.92370312 C1.406125,2.92370312 1.78992188,3.30739062 1.78992188,3.780875 C1.79003125,5.15757812 1.7915625,6.1845 1.7933125,6.278125 C1.80315625,6.74996875 1.42953125,7.14328125 0.957796875,7.15498437 C0.95046875,7.15498437 0.94325,7.15509375 0.935921875,7.15509375 Z" id="Shape"></path>
                <path d="M0.93428125,2.26646875 C0.933625,2.26646875 0.932859375,2.26646875 0.932203125,2.26646875 C0.45871875,2.265375 0.076015625,1.88059375 0.077109375,1.40721875 C0.077765625,1.11595313 0.078859375,0.926296875 0.079625,0.8938125 C0.0931875,0.420546875 0.490984375,0.047796875 0.961078125,0.0616875 C1.43357813,0.07525 1.80578125,0.46878125 1.79320313,0.940953125 C1.7924375,0.98196875 1.79189063,1.1536875 1.79123438,1.41126563 C1.79035938,1.88409375 1.40667188,2.26646875 0.93428125,2.26646875 Z" id="Shape"></path>
            </g>
            <path d="M45.8432187,24.828125 C45.8432187,26.950875 47.9700156,28.7987656 50.3084531,29.757 C50.6409531,28.1654844 50.8167187,26.5169844 50.8167187,24.828125 C50.8167187,23.1392656 50.6409531,21.4907656 50.3084531,19.89925 C47.9699062,20.8574844 45.8432187,22.705375 45.8432187,24.828125 Z" id="Shape" fill="#A78966"></path>
            <g id="Group" transform="translate(10.500000, 36.968750)" fill="#FFB655">
                <path d="M25.9312812,3.13884375 C25.9312812,3.13884375 30.9584844,7.82053125 32.1537344,6.8175625 C33.3489844,5.81459375 29.6113125,0.050859375 29.6113125,0.050859375 L25.9312812,3.13884375 Z" id="Shape"></path>
                <path d="M13.8438125,5.789875 C13.8438125,5.789875 14.6855625,12.6076562 16.2459062,12.6076562 C17.8061406,12.6076562 18.648,5.789875 18.648,5.789875 L13.8438125,5.789875 Z" id="Shape"></path>
                <path d="M7.85607813,3.88696875 C7.85607813,3.88696875 6.31520313,10.5814844 7.78148438,11.1152344 C9.24765625,11.648875 12.3705313,5.53010937 12.3705313,5.53010937 L7.85607813,3.88696875 Z" id="Shape"></path>
                <path d="M2.88028125,0.05096875 C2.88028125,0.05096875 -0.85728125,5.81470312 0.337859375,6.81767187 C1.53310937,7.82064062 6.5603125,3.13895312 6.5603125,3.13895312 L2.88028125,0.05096875 Z" id="Shape"></path>
                <path d="M20.1212812,5.53010937 C20.1212812,5.53010937 23.2440469,11.648875 24.7103281,11.1152344 C26.1765,10.5815938 24.6357344,3.88696875 24.6357344,3.88696875 L20.1212812,5.53010937 Z" id="Shape"></path>
            </g>
            <g id="Group" transform="translate(10.500000, 0.000000)" fill="#957856">
                <path d="M13.8438125,6.897625 C13.8438125,6.897625 14.6855625,0.07984375 16.2459062,0.07984375 C17.8061406,0.07984375 18.648,6.897625 18.648,6.897625 L13.8438125,6.897625 Z" id="Shape"></path>
                <path d="M20.1212812,7.15739062 C20.1212812,7.15739062 23.2440469,1.038625 24.7103281,1.57226562 C26.1765,2.10590625 24.6357344,8.80042187 24.6357344,8.80042187 L20.1212812,7.15739062 Z" id="Shape"></path>
                <path d="M25.9312812,9.54854687 C25.9312812,9.54854687 30.9584844,4.86685937 32.1537344,5.86982812 C33.3489844,6.87279687 29.6113125,12.6365312 29.6113125,12.6365312 L25.9312812,9.54854687 Z" id="Shape"></path>
                <path d="M7.85607813,8.80042187 C7.85607813,8.80042187 6.31520313,2.10590625 7.78148438,1.57226562 C9.24776563,1.038625 12.3705313,7.15739062 12.3705313,7.15739062 L7.85607813,8.80042187 Z" id="Shape"></path>
                <path d="M2.88028125,12.6364219 C2.88028125,12.6364219 -0.85728125,6.8726875 0.337859375,5.86971875 C1.533,4.86675 6.5603125,9.5484375 6.5603125,9.5484375 L2.88028125,12.6364219 Z" id="Shape"></path>
            </g>
            <path d="M47.9595156,24.828125 C47.9595156,36.5441562 38.4619375,46.0418437 26.7459062,46.0418437 C15.029875,46.0418437 5.5321875,36.5440469 5.5321875,24.828125 C5.5321875,13.1122031 15.029875,4.75726562 26.7457969,4.75726562 C38.4617187,4.75726562 47.9595156,13.1120937 47.9595156,24.828125 Z" id="Shape" fill="#FFDAAA"></path>
            <path d="M7.50104687,22.2808906 L2.54723437,22.2808906 C1.14625,22.2808906 0,23.4271406 0,24.828125 C0,26.229 1.14625,27.3753594 2.54723437,27.3753594 L7.5009375,27.3753594 C8.9018125,27.3753594 10.0481719,26.2291094 10.0481719,24.828125 C10.0480625,23.4271406 8.90192187,22.2808906 7.50104687,22.2808906 Z" id="Shape" fill="#A78966"></path>
            <path d="M10.3875625,24.828125 C10.3875625,13.9332812 18.6010781,4.95829687 29.1734844,3.75364062 C28.3766875,3.66275 27.5669844,3.61451562 26.7457969,3.61451562 C15.0297656,3.61451562 5.53207812,13.1122031 5.5321875,24.8282344 C5.5321875,36.5442656 15.029875,46.0419531 26.7459062,46.0419531 C27.5670937,46.0419531 28.3767969,45.9936094 29.1735937,45.9028281 C18.6011875,44.6979531 10.3875625,35.7229687 10.3875625,24.828125 Z" id="Shape" fill="#FFC477"></path>
            <path d="M26.7456875,3.61440625 C15.029875,3.61440625 5.53207812,13.1120938 5.53207812,24.828125 L47.9594062,24.828125 C47.9594062,13.1120938 38.4617187,3.61440625 26.7456875,3.61440625 Z" id="Shape" fill="#B39A7C"></path>
            <path d="M0,24.828125 C0,26.229 1.14625,27.3753594 2.54723437,27.3753594 L7.50104688,27.3753594 C8.90203125,27.3753594 10.0482813,26.2291094 10.0482813,24.828125 C10.0482813,24.8280156 10.0482813,24.8277969 10.0482813,24.8276875 L0,24.8276875 C0,24.8277969 0,24.8280156 0,24.828125 Z" id="Shape" fill="#FFC477"></path>
            <path d="M5.53207812,24.828125 L10.3874531,24.828125 C10.3874531,13.9332812 18.6009687,4.95829687 29.1732656,3.75364062 C28.3764687,3.66285937 27.5667656,3.61451562 26.7455781,3.61451562 C15.029875,3.61440625 5.53207812,13.1120937 5.53207812,24.828125 Z" id="Shape" fill="#A78966"></path>
            <circle id="Oval" fill="#FFFFFF" cx="11.1897187" cy="19.4395469" r="3.17471875"></circle>
            <circle id="Oval" fill="#3E3D42" cx="11.1897187" cy="19.4395469" r="1.76826563"></circle>
            <g id="Group" transform="translate(16.953125, 8.312500)" fill="#A78966">
                <path d="M0.8763125,7.63164063 C1.10260937,7.63164063 1.32321875,7.54020313 1.48203125,7.3801875 C1.64204688,7.221375 1.73348438,6.9995625 1.73348438,6.77446875 C1.73348438,6.549375 1.64204688,6.3275625 1.48203125,6.16875 C1.32321875,6.00873438 1.10271875,5.91729687 0.8763125,5.91729687 C0.650125,5.91729687 0.42940625,6.00873438 0.27059375,6.16875 C0.110578125,6.3275625 0.019140625,6.549375 0.019140625,6.77446875 C0.019140625,6.9995625 0.110578125,7.221375 0.27059375,7.3801875 C0.429515625,7.54020313 0.650125,7.63164063 0.8763125,7.63164063 Z" id="Shape"></path>
                <path d="M3.89615625,1.75557812 C4.12245312,1.75557812 4.3430625,1.66414062 4.501875,1.504125 C4.66189062,1.3453125 4.75332813,1.1235 4.75332813,0.89840625 C4.75332813,0.6733125 4.66189062,0.4515 4.501875,0.2926875 C4.3430625,0.132671875 4.1225625,0.041234375 3.89615625,0.041234375 C3.66996875,0.041234375 3.44925,0.132671875 3.2904375,0.2926875 C3.13042188,0.4515 3.03898438,0.6733125 3.03898438,0.89840625 C3.03898438,1.1235 3.13042188,1.3453125 3.2904375,1.504125 C3.44925,1.66414062 3.66985937,1.75557812 3.89615625,1.75557812 Z" id="Shape"></path>
                <path d="M9.935625,1.75557812 C10.1619219,1.75557812 10.3825312,1.66414062 10.5413437,1.504125 C10.7013594,1.3453125 10.7927969,1.1235 10.7927969,0.89840625 C10.7927969,0.6733125 10.7013594,0.4515 10.5413437,0.2926875 C10.3825312,0.132671875 10.1620312,0.041234375 9.935625,0.041234375 C9.7094375,0.041234375 9.48871875,0.132671875 9.32990625,0.2926875 C9.16989062,0.4515 9.07845312,0.6733125 9.07845312,0.89840625 C9.07845312,1.1235 9.16989062,1.3453125 9.32990625,1.504125 C9.48882812,1.66414062 9.70954687,1.75557812 9.935625,1.75557812 Z" id="Shape"></path>
                <path d="M15.9752031,1.75557812 C16.2015,1.75557812 16.4221094,1.66414062 16.5809219,1.504125 C16.7409375,1.3453125 16.832375,1.1235 16.832375,0.89840625 C16.832375,0.6733125 16.7409375,0.4515 16.5809219,0.2926875 C16.4221094,0.132671875 16.2016094,0.041234375 15.9752031,0.041234375 C15.7490156,0.041234375 15.5282969,0.132671875 15.3694844,0.2926875 C15.2094687,0.4515 15.1180312,0.6733125 15.1180312,0.89840625 C15.1180312,1.1235 15.2094688,1.3453125 15.3694844,1.504125 C15.5284062,1.66414062 15.7490156,1.75557812 15.9752031,1.75557812 Z" id="Shape"></path>
                <path d="M6.91589062,7.63164063 C7.1421875,7.63164063 7.36279687,7.54020313 7.52160937,7.3801875 C7.681625,7.221375 7.7730625,6.9995625 7.7730625,6.77446875 C7.7730625,6.549375 7.681625,6.3275625 7.52160937,6.16875 C7.36279687,6.00873438 7.14229687,5.91729687 6.91589062,5.91729687 C6.68970312,5.91729687 6.46898437,6.00873438 6.31017187,6.16875 C6.15015625,6.3275625 6.05871875,6.549375 6.05871875,6.77446875 C6.05871875,6.9995625 6.15015625,7.221375 6.31017187,7.3801875 C6.46909375,7.54020313 6.68959375,7.63164063 6.91589062,7.63164063 Z" id="Shape"></path>
                <path d="M12.9554687,7.63164063 C13.1817656,7.63164063 13.402375,7.54020313 13.5611875,7.3801875 C13.7212031,7.221375 13.8126406,6.9995625 13.8126406,6.77446875 C13.8126406,6.549375 13.7212031,6.3275625 13.5611875,6.16875 C13.402375,6.00873438 13.181875,5.91729687 12.9554687,5.91729687 C12.7292812,5.91729687 12.5085625,6.00873438 12.34975,6.16875 C12.1897344,6.3275625 12.0982969,6.549375 12.0982969,6.77446875 C12.0982969,6.9995625 12.1897344,7.221375 12.34975,7.3801875 C12.5085625,7.54020313 12.7292812,7.63164063 12.9554687,7.63164063 Z" id="Shape"></path>
                <path d="M18.9949375,7.63164063 C19.2212344,7.63164063 19.4418437,7.54020313 19.6006562,7.3801875 C19.7606719,7.221375 19.8521094,6.9995625 19.8521094,6.77446875 C19.8521094,6.549375 19.7606719,6.3275625 19.6006562,6.16875 C19.4418437,6.00873438 19.2213437,5.91729687 18.9949375,5.91729687 C18.76875,5.91729687 18.5480312,6.00873438 18.3892187,6.16875 C18.2292031,6.3275625 18.1377656,6.549375 18.1377656,6.77446875 C18.1377656,6.9995625 18.2292031,7.221375 18.3892187,7.3801875 C18.5481406,7.54020313 18.7688594,7.63164063 18.9949375,7.63164063 Z" id="Shape"></path>
                <path d="M25.034625,7.63164063 C25.2609219,7.63164063 25.4815312,7.54020313 25.6403437,7.3801875 C25.8003594,7.221375 25.8917969,6.9995625 25.8917969,6.77446875 C25.8917969,6.549375 25.8003594,6.3275625 25.6403437,6.16875 C25.4815312,6.00873438 25.2610312,5.91729687 25.034625,5.91729687 C24.8084375,5.91729687 24.5877187,6.00873438 24.4289062,6.16875 C24.2688906,6.3275625 24.1774531,6.549375 24.1774531,6.77446875 C24.1774531,6.9995625 24.2688906,7.221375 24.4289062,7.3801875 C24.5877187,7.54020313 24.8083281,7.63164063 25.034625,7.63164063 Z" id="Shape"></path>
                <path d="M3.89615625,14.2363594 C4.12245312,14.2363594 4.3430625,14.1449219 4.501875,13.9849062 C4.66189062,13.8260937 4.75332813,13.6042812 4.75332813,13.3791875 C4.75332813,13.1540937 4.66189062,12.9322812 4.501875,12.7734687 C4.3430625,12.6134531 4.1225625,12.5220156 3.89615625,12.5220156 C3.66996875,12.5220156 3.44925,12.6134531 3.2904375,12.7734687 C3.13042188,12.9322812 3.03898438,13.1540937 3.03898438,13.3791875 C3.03898438,13.6042812 3.13042188,13.8260937 3.2904375,13.9849062 C3.44925,14.1449219 3.66985937,14.2363594 3.89615625,14.2363594 Z" id="Shape"></path>
                <path d="M9.935625,14.2363594 C10.1619219,14.2363594 10.3825312,14.1449219 10.5413437,13.9849062 C10.7013594,13.8260937 10.7927969,13.6042812 10.7927969,13.3791875 C10.7927969,13.1540937 10.7013594,12.9322812 10.5413437,12.7734687 C10.3825312,12.6134531 10.1620312,12.5220156 9.935625,12.5220156 C9.7094375,12.5220156 9.48871875,12.6134531 9.32990625,12.7734687 C9.16989062,12.9322812 9.07845312,13.1540937 9.07845312,13.3791875 C9.07845312,13.6042812 9.16989062,13.8260937 9.32990625,13.9849062 C9.48882812,14.1449219 9.70954687,14.2363594 9.935625,14.2363594 Z" id="Shape"></path>
                <path d="M15.9752031,14.2363594 C16.2015,14.2363594 16.4221094,14.1449219 16.5809219,13.9849062 C16.7409375,13.8260937 16.832375,13.6042812 16.832375,13.3791875 C16.832375,13.1540937 16.7409375,12.9322812 16.5809219,12.7734687 C16.4221094,12.6134531 16.2016094,12.5220156 15.9752031,12.5220156 C15.7490156,12.5220156 15.5282969,12.6134531 15.3694844,12.7734687 C15.2094687,12.9322812 15.1180312,13.1540937 15.1180312,13.3791875 C15.1180312,13.6042812 15.2094688,13.8260937 15.3694844,13.9849062 C15.5284062,14.1449219 15.7490156,14.2363594 15.9752031,14.2363594 Z" id="Shape"></path>
                <path d="M22.0147813,14.2363594 C22.2410781,14.2363594 22.4616875,14.1449219 22.6205,13.9849062 C22.7805156,13.8260937 22.8719531,13.6042812 22.8719531,13.3791875 C22.8719531,13.1540937 22.7805156,12.9322812 22.6205,12.7734687 C22.4616875,12.6134531 22.2411875,12.5220156 22.0147813,12.5220156 C21.7885938,12.5220156 21.567875,12.6134531 21.4090625,12.7734687 C21.2490469,12.9322812 21.1576094,13.1540937 21.1576094,13.3791875 C21.1576094,13.6042812 21.2490469,13.8260937 21.4090625,13.9849062 C21.567875,14.1449219 21.7885937,14.2363594 22.0147813,14.2363594 Z" id="Shape"></path>
            </g>
            <g id="Group" transform="translate(10.828125, 27.015625)" fill="#FFC477">
                <path d="M31.159625,1.806 C31.3859219,1.806 31.6065312,1.7145625 31.7653437,1.55454687 C31.9253594,1.39573437 32.0167969,1.17403125 32.0167969,0.948828125 C32.0167969,0.723734375 31.9253594,0.501921875 31.7653437,0.343109375 C31.6065312,0.18309375 31.3860312,0.09165625 31.159625,0.09165625 C30.9334375,0.09165625 30.7127187,0.18309375 30.5539062,0.343109375 C30.3938906,0.501921875 30.3024531,0.723625 30.3024531,0.948828125 C30.3024531,1.17392187 30.3938906,1.39573437 30.5539062,1.55454687 C30.7127187,1.7145625 30.9333281,1.806 31.159625,1.806 Z" id="Shape"></path>
                <path d="M28.1397812,8.41071875 C28.3660781,8.41071875 28.5866875,8.31928125 28.7455,8.15926562 C28.9055156,8.00045312 28.9969531,7.77875 28.9969531,7.55354687 C28.9969531,7.32845312 28.9055156,7.10664062 28.7455,6.94782812 C28.5866875,6.7878125 28.3661875,6.696375 28.1397812,6.696375 C27.9135937,6.696375 27.692875,6.7878125 27.5340625,6.94782812 C27.3740469,7.10664062 27.2826094,7.32834375 27.2826094,7.55354687 C27.2826094,7.77864062 27.3740469,8.00045312 27.5340625,8.15926562 C27.692875,8.31928125 27.9135937,8.41071875 28.1397812,8.41071875 Z" id="Shape"></path>
                <path d="M22.1002031,8.41071875 C22.3265,8.41071875 22.5471094,8.31928125 22.7059219,8.15926562 C22.8659375,8.00045312 22.957375,7.77875 22.957375,7.55354687 C22.957375,7.32845312 22.8659375,7.10664062 22.7059219,6.94782812 C22.5471094,6.7878125 22.3266094,6.696375 22.1002031,6.696375 C21.8740156,6.696375 21.6532969,6.7878125 21.4944844,6.94782812 C21.3344687,7.10664062 21.2430313,7.32834375 21.2430313,7.55354687 C21.2430313,7.77864062 21.3344688,8.00045312 21.4944844,8.15926562 C21.6534062,8.31928125 21.8740156,8.41071875 22.1002031,8.41071875 Z" id="Shape"></path>
                <path d="M16.060625,8.41071875 C16.2869219,8.41071875 16.5075312,8.31928125 16.6663438,8.15926562 C16.8263594,8.00045312 16.9177969,7.77875 16.9177969,7.55354687 C16.9177969,7.32845312 16.8263594,7.10664062 16.6663438,6.94782812 C16.5075312,6.7878125 16.2870313,6.696375 16.060625,6.696375 C15.8344375,6.696375 15.6137187,6.7878125 15.4549062,6.94782812 C15.2948906,7.10664062 15.2034531,7.32834375 15.2034531,7.55354687 C15.2034531,7.77864062 15.2948906,8.00045312 15.4549062,8.15926562 C15.6138281,8.31928125 15.8345469,8.41071875 16.060625,8.41071875 Z" id="Shape"></path>
                <path d="M10.0211562,8.41071875 C10.2474531,8.41071875 10.4680625,8.31928125 10.626875,8.15926562 C10.7868906,8.00045312 10.8783281,7.77875 10.8783281,7.55354687 C10.8783281,7.32845312 10.7868906,7.10664062 10.626875,6.94782812 C10.4680625,6.7878125 10.2475625,6.696375 10.0211562,6.696375 C9.79496875,6.696375 9.57425,6.7878125 9.4154375,6.94782812 C9.25542188,7.10664062 9.16398438,7.32834375 9.16398438,7.55354687 C9.16398438,7.77864062 9.25542188,8.00045312 9.4154375,8.15926562 C9.57425,8.31928125 9.79485937,8.41071875 10.0211562,8.41071875 Z" id="Shape"></path>
                <path d="M3.98157812,8.41071875 C4.207875,8.41071875 4.42848437,8.31928125 4.58729687,8.15926562 C4.7473125,8.00045312 4.83875,7.77875 4.83875,7.55354687 C4.83875,7.32845312 4.7473125,7.10664062 4.58729687,6.94782812 C4.42848437,6.7878125 4.20798437,6.696375 3.98157812,6.696375 C3.75539062,6.696375 3.53467187,6.7878125 3.37585937,6.94782812 C3.21584375,7.10664062 3.12440625,7.32834375 3.12440625,7.55354687 C3.12440625,7.77864062 3.21584375,8.00045312 3.37585937,8.15926562 C3.5345625,8.31928125 3.75528125,8.41071875 3.98157812,8.41071875 Z" id="Shape"></path>
                <path d="M13.0408906,14.315 C13.2671875,14.315 13.4877969,14.2235625 13.6466094,14.0635469 C13.806625,13.9047344 13.8980625,13.6830312 13.8980625,13.4578281 C13.8980625,13.2327344 13.806625,13.0109219 13.6466094,12.8521094 C13.4877969,12.6920937 13.2672969,12.6006562 13.0408906,12.6006562 C12.8147031,12.6006562 12.5939844,12.6920937 12.4351719,12.8521094 C12.2751562,13.0109219 12.1837187,13.232625 12.1837187,13.4578281 C12.1837187,13.6829219 12.2751562,13.9047344 12.4351719,14.0635469 C12.5940937,14.2235625 12.8145937,14.315 13.0408906,14.315 Z" id="Shape"></path>
                <path d="M19.0804687,14.315 C19.3067656,14.315 19.527375,14.2235625 19.6861875,14.0635469 C19.8462031,13.9047344 19.9376406,13.6830312 19.9376406,13.4578281 C19.9376406,13.2327344 19.8462031,13.0109219 19.6861875,12.8521094 C19.527375,12.6920937 19.306875,12.6006562 19.0804687,12.6006562 C18.8542812,12.6006562 18.6335625,12.6920937 18.47475,12.8521094 C18.3147344,13.0109219 18.2232969,13.232625 18.2232969,13.4578281 C18.2232969,13.6829219 18.3147344,13.9047344 18.47475,14.0635469 C18.6335625,14.2235625 18.8542812,14.315 19.0804687,14.315 Z" id="Shape"></path>
                <path d="M25.1199375,1.806 C25.3462344,1.806 25.5668437,1.7145625 25.7256562,1.55454687 C25.8856719,1.39573437 25.9771094,1.17403125 25.9771094,0.948828125 C25.9771094,0.723734375 25.8856719,0.501921875 25.7256562,0.343109375 C25.5668437,0.18309375 25.3463437,0.09165625 25.1199375,0.09165625 C24.89375,0.09165625 24.6730312,0.18309375 24.5142187,0.343109375 C24.3542031,0.501921875 24.2627656,0.723625 24.2627656,0.948828125 C24.2627656,1.17392187 24.3542031,1.39573437 24.5142187,1.55454687 C24.6731406,1.7145625 24.8938594,1.806 25.1199375,1.806 Z" id="Shape"></path>
                <path d="M19.0804687,1.806 C19.3067656,1.806 19.527375,1.7145625 19.6861875,1.55454687 C19.8462031,1.39573437 19.9376406,1.17403125 19.9376406,0.948828125 C19.9376406,0.723734375 19.8462031,0.501921875 19.6861875,0.343109375 C19.527375,0.18309375 19.306875,0.09165625 19.0804687,0.09165625 C18.8542812,0.09165625 18.6335625,0.18309375 18.47475,0.343109375 C18.3147344,0.501921875 18.2232969,0.723625 18.2232969,0.948828125 C18.2232969,1.17392187 18.3147344,1.39573437 18.47475,1.55454687 C18.6335625,1.7145625 18.8542812,1.806 19.0804687,1.806 Z" id="Shape"></path>
                <path d="M13.0408906,1.806 C13.2671875,1.806 13.4877969,1.7145625 13.6466094,1.55454687 C13.806625,1.39573437 13.8980625,1.17403125 13.8980625,0.948828125 C13.8980625,0.723734375 13.806625,0.501921875 13.6466094,0.343109375 C13.4877969,0.18309375 13.2672969,0.09165625 13.0408906,0.09165625 C12.8147031,0.09165625 12.5939844,0.18309375 12.4351719,0.343109375 C12.2751562,0.501921875 12.1837187,0.723625 12.1837187,0.948828125 C12.1837187,1.17392187 12.2751562,1.39573437 12.4351719,1.55454687 C12.5940937,1.7145625 12.8145937,1.806 13.0408906,1.806 Z" id="Shape"></path>
                <path d="M7.0013125,1.806 C7.22760937,1.806 7.44821875,1.7145625 7.60703125,1.55454687 C7.76704687,1.39573437 7.85848437,1.17403125 7.85848437,0.948828125 C7.85848437,0.723734375 7.76704687,0.501921875 7.60703125,0.343109375 C7.44821875,0.18309375 7.22771875,0.09165625 7.0013125,0.09165625 C6.775125,0.09165625 6.55440625,0.18309375 6.39559375,0.343109375 C6.23557812,0.501921875 6.14414062,0.723625 6.14414062,0.948828125 C6.14414062,1.17392187 6.23557812,1.39573437 6.39559375,1.55454687 C6.55451562,1.7145625 6.775125,1.806 7.0013125,1.806 Z" id="Shape"></path>
                <path d="M0.96184375,1.806 C1.18814062,1.806 1.40875,1.7145625 1.5675625,1.55454687 C1.72757812,1.39573437 1.81901562,1.17403125 1.81901562,0.948828125 C1.81901562,0.723734375 1.72757812,0.501921875 1.5675625,0.343109375 C1.40875,0.18309375 1.18825,0.09165625 0.96184375,0.09165625 C0.73565625,0.09165625 0.5149375,0.18309375 0.356125,0.343109375 C0.196109375,0.501921875 0.104671875,0.723625 0.104671875,0.948828125 C0.104671875,1.17392187 0.196109375,1.39573437 0.356125,1.55454687 C0.514828125,1.7145625 0.735546875,1.806 0.96184375,1.806 Z" id="Shape"></path>
            </g>
        </g>
    </g>
</svg>