<?xml version="1.0" encoding="UTF-8"?>
<svg width="73px" height="73px" viewBox="0 0 73 73" version="1.1" xmlns="http://www.w3.org/2000/svg" xmlns:xlink="http://www.w3.org/1999/xlink">
    <!-- Generator: Sketch 51.3 (57544) - http://www.bohemiancoding.com/sketch -->
    <title>the-modern-web/proxies</title>
    <desc>Created with Sketch.</desc>
    <defs></defs>
    <g id="the-modern-web/proxies" stroke="none" stroke-width="1" fill="none" fill-rule="evenodd">
        <g id="container" transform="translate(2.000000, 2.000000)" fill="#FFFFFF" fill-rule="nonzero" stroke="#3B3E45" stroke-width="2">
            <rect id="mask" x="-1" y="-1" width="71" height="71" rx="14"></rect>
        </g>
        <g id="agent" transform="translate(14.000000, 13.000000)" fill-rule="nonzero">
            <path d="M25.3626578,33.9943967 L28.5862459,30.9455878 C29.1441815,30.4176757 28.8657498,29.4798007 28.11016,29.3421933 C27.2312595,29.1684862 26.5961208,28.1519783 26.5929039,27.256279 L26.5793219,23.2642338 L18.0683917,23.2935425 L18.0819738,27.2855876 C18.0851906,28.1812869 17.4568428,29.2020839 16.5790147,29.381867 C15.824497,29.5244784 15.552499,30.4644979 16.1140088,30.9884785 L19.3586847,34.0147697 C21.0514348,35.594217 23.6806304,35.5852815 25.3626578,33.9943967 Z" id="Shape" fill="#FAE0C1"></path>
            <path d="M42.2644245,35.2543088 C41.8054948,33.3027853 40.2785884,31.7805254 38.3256352,31.3276718 L31.3298164,29.5437791 L28.9333026,28.9879881 C28.793908,28.9558201 28.6530838,28.9393788 28.512617,28.9383065 C28.0919314,28.9347322 27.677322,29.0687654 27.3349119,29.3264666 C24.3518687,31.5721484 20.2461633,31.5864453 17.2477511,29.3611366 C17.1351631,29.2774998 17.014712,29.2074451 16.8892569,29.1509725 C16.881751,29.1473983 16.8738877,29.1445389 16.8660245,29.1409647 C16.7881065,29.107367 16.7084014,29.0787733 16.6269092,29.0555409 C16.5900948,29.0451756 16.5529229,29.0355252 16.5153936,29.0273045 C16.3684932,28.9947791 16.218376,28.9786951 16.0671865,28.9808397 C15.9971318,28.981912 15.9267197,28.9869158 15.856665,28.995494 C15.7866103,29.0044295 15.7165557,29.0169393 15.6472158,29.0337381 L13.2542762,29.6059706 L6.27096716,31.4381153 C4.32087329,31.9041934 2.80468965,33.4368185 2.35898452,35.3919162 L0.0253769776,45.6309813 C-0.116876983,46.2557548 0.358851585,46.8501475 0.999709023,46.8480029 L43.7026902,46.8480029 C44.3435476,46.8458583 44.8153445,46.1009912 44.6688016,45.4772899 L42.2644245,35.2543088 Z" id="Shape" fill="#CC966A"></path>
            <path d="M27.6208494,29.1481131 C27.5211287,29.198867 27.4253396,29.2581991 27.3345544,29.3264666 C24.3515113,31.5721484 20.2461633,31.5864453 17.2477511,29.3611366 C17.1737647,29.306451 17.0965616,29.2574842 17.0164991,29.2142362 C16.9746807,29.1924335 16.5443448,30.1192284 16.7970421,30.6192617 L22.3478041,43.7605925 L27.8985662,30.6192617 C28.1634158,30.095996 27.7298631,29.0927127 27.6208494,29.1481131 Z" id="Shape" fill="#EDEDED"></path>
            <polygon id="Shape" fill="#274354" points="25.0202476 33.6401915 22.3478041 31.0199316 19.6753606 33.6401915 21.027845 34.2821213 23.6677631 34.2821213"></polygon>
            <path d="M14.8308642,13.3382704 L13.8851259,13.3414872 C13.5423582,13.3429169 13.2271122,13.4597938 12.9762019,13.6549462 C12.5405047,13.9944969 12.3507137,14.5631552 12.4511492,15.1060791 L12.829659,17.1505323 C13.1234598,18.6652864 14.8490927,17.9668839 14.8490927,17.9668839 L14.8308642,13.3382704 Z" id="Shape" fill="#EFD0AF"></path>
            <path d="M29.9673241,13.2875164 L30.9130624,13.2842997 C31.25583,13.2832274 31.571791,13.3976024 31.8241309,13.591325 C32.2623301,13.9276591 32.4560528,14.4952451 32.3591915,15.0388837 L31.9946211,17.0854815 C31.711543,18.6027375 29.9809061,17.9157726 29.9809061,17.9157726 L29.9673241,13.2875164 Z" id="Shape" fill="#EFD0AF"></path>
            <path d="M27.6158455,5.6780043 C26.3820251,4.54497684 24.6496011,3.55849241 22.3656752,3.53883418 C20.0817493,3.57386157 18.3561163,4.57249831 17.1301593,5.71410389 C15.5660811,7.17024065 14.7236376,9.32763922 14.7311435,11.5508034 L14.7322157,11.8192273 L14.7343603,11.8192273 L14.7608095,19.5684914 C14.8115634,21.7294643 16.3084463,23.2206284 17.6087471,24.5012711 C18.8053957,25.6796911 20.1625267,27.0711345 22.4468099,27.0907927 C24.7303785,27.0554079 26.0782164,25.6543141 27.2666443,24.4680308 C28.5580096,23.1784526 30.0445273,21.6769232 30.0806269,19.515593 L30.0538202,11.7663288 L30.0559648,11.7663288 L30.0548925,11.497905 C30.0470291,9.27474078 29.1895741,7.12341836 27.6158455,5.6780043 Z" id="Shape" fill="#FAE0C1"></path>
            <path d="M30.0534628,11.7666862 L30.0556073,11.7666862 L30.0548925,11.497905 C30.0470291,9.27474078 29.1899315,7.12341836 27.6158455,5.6780043 C26.9717712,5.08647104 26.1915192,4.53496903 25.267941,4.14001786 L25.2918882,19.5159504 C25.2561461,21.6769232 23.7696284,23.1784526 22.4779057,24.4680308 C21.7734272,25.1710797 21.0128334,25.949902 20.0349271,26.4749548 C20.7165305,26.8398825 21.5025013,27.082572 22.4464525,27.0907927 C24.7303785,27.0554079 26.077859,25.6543141 27.2662869,24.4676734 C28.5580096,23.1784526 30.0445273,21.6769232 30.0802695,19.515593 L30.0534628,11.7666862 Z" id="Shape" fill="#EFD0AF"></path>
            <path d="M37.2844652,11.2984636 C37.2791039,9.75368612 30.6131854,8.22713718 22.3796147,8.24500832 L22.3796147,8.24465092 C22.3653178,8.24465092 22.3513784,8.24465092 22.3374389,8.24500832 C22.323142,8.24500832 22.3092025,8.24500832 22.2949056,8.24500832 C14.0613348,8.28396728 7.40613911,9.85626623 7.41150046,11.4010436 C7.41972118,13.7989872 14.0870692,15.7212021 22.32064,15.7061904 L22.3628159,15.7061904 L22.4053491,15.7061904 L22.4053491,15.705833 C30.6385624,15.664372 37.2926858,13.6960497 37.2844652,11.2984636 Z" id="Shape" fill="#525467"></path>
            <path d="M33.5890802,9.33728964 C33.562631,11.726655 26.9220896,13.6842548 18.7099641,13.7260731 C18.6956672,13.7264305 18.6817277,13.7260731 18.6677882,13.7260731 C18.6534914,13.7264305 18.639552,13.7264305 18.6252551,13.7264305 L18.6252551,13.7260731 C14.3655009,13.7339364 10.5246452,13.2231805 7.80859621,12.3961062 C9.35837755,14.3090282 15.264417,15.7190576 22.32064,15.7061904 L22.3628159,15.7061904 L22.4049916,15.7061904 L22.4049916,15.705833 C30.6385624,15.6640146 37.2926858,13.6960497 37.2844652,11.2984636 C37.2819632,10.5921979 35.8880178,9.88986394 33.5890802,9.33728964 Z" id="Shape" fill="#454851"></path>
            <path d="M30.3394003,9.51028184 L28.4747303,1.55264072 C28.1902225,0.338478559 26.8802712,-0.326326169 25.732232,0.160839808 L23.0208295,1.31138092 C22.5165072,1.52511926 21.9467768,1.52440437 21.4431692,1.30852154 L18.9004699,0.218027311 C17.7463546,-0.277001993 16.4260381,0.396023462 16.1479639,1.62055093 C16.1479639,1.62055093 14.3018798,9.6875631 14.3018798,9.74975455 C14.305454,10.7365964 17.9079093,11.5239968 22.348519,11.5086277 C26.7891286,11.4936159 30.3862226,10.681196 30.3826483,9.69435414 C30.3822909,9.63216268 30.3676367,9.57068611 30.3394003,9.51028184 Z" id="Shape" fill="#676A75"></path>
            <path d="M22.348519,11.5086277 C26.7891286,11.4936159 30.3858652,10.681196 30.3826483,9.69435414 C30.3822909,9.63216268 30.3676367,9.57068611 30.3394003,9.50992444 L28.4747303,1.55264072 C28.1902225,0.338478559 26.8802712,-0.326326169 25.732232,0.160839808 L23.1945366,1.23775205 L24.9991598,8.9387642 C25.1478473,9.57426038 24.686773,10.1936725 24.0348354,10.2265553 C23.4908394,10.2544342 22.9268276,10.2698033 22.348519,10.2719479 C18.5090929,10.2851725 15.2965849,9.6982858 14.4945302,8.90159232 L14.4888114,8.9033795 C14.3737216,9.41377788 14.3018798,9.73760216 14.3018798,9.74975455 C14.305454,10.7365964 17.9079093,11.5239968 22.348519,11.5086277 Z" id="Shape" fill="#454851"></path>
            <path d="M33.8660822,27.1472653 C32.5482676,26.1375485 29.178494,24.0916655 28.2013026,23.5029917 C27.8932048,23.8407554 27.5743845,24.1602906 27.2662869,24.4680308 C27.0464724,24.6874879 26.8212966,24.9140933 26.5857556,25.1381969 L26.5929039,27.256279 C26.5929039,27.265572 26.5932614,27.2752224 26.5932614,27.2845153 C26.5932614,27.2877321 26.5932614,27.290949 26.5936188,27.2945231 C26.5936188,27.3009568 26.5939762,27.3073903 26.5939762,27.313824 C26.6172087,28.0172303 27.0214528,28.7817557 27.6208494,29.1481131 C27.7298631,29.0927127 28.1634158,30.095996 27.8985662,30.6192617 L22.3478041,43.7605925 L32.2437442,35.3711857 L30.5284765,33.0826134 L34.0505119,28.6141248 C34.4090061,28.1591267 34.3260842,27.4993259 33.8660822,27.1472653 Z" id="Shape" fill="#A37C52"></path>
            <path d="M22.3478041,43.7605925 L16.7973995,30.6192617 C16.5443448,30.1192284 16.9750381,29.1917186 17.0168565,29.2142362 C17.6405577,28.8571717 18.0608859,28.0683415 18.0812589,27.3463494 C18.0812589,27.3388435 18.0816163,27.3313376 18.0816163,27.3238318 C18.0819738,27.320615 18.0819738,27.3177556 18.0819738,27.3145388 C18.0819738,27.3048884 18.0819738,27.295238 18.0819738,27.2855876 L18.0741105,24.9573413 C17.9154152,24.8040074 17.7606515,24.6510308 17.6087471,24.5012711 C17.2699113,24.1677964 16.9185655,23.8200249 16.5822314,23.4500932 C15.7390733,23.9572749 12.1905887,26.1046657 10.8295261,27.1472653 C10.3695241,27.4993259 10.2866022,28.1591267 10.6450964,28.6141248 L14.1671317,33.0826134 L12.4518641,35.3711857 L22.3478041,43.7605925 Z" id="Shape" fill="#A37C52"></path>
            <polygon id="Shape" fill="#2A4D5E" points="23.6681206 34.2821213 21.027845 34.2821213 20.4213001 39.1988169 22.3478041 43.7605925 24.2746656 39.1988169"></polygon>
            <path d="M27.8985662,30.6192617 C28.1594841,30.1035019 27.7427302,29.1223788 27.6262107,29.146326 C27.5247028,29.1970799 27.4271267,29.2571268 27.3349119,29.3264666 C25.8609039,30.4359042 24.1131109,30.999916 22.3603139,31.0188593 C22.3560248,31.0188593 22.3517358,31.0192167 22.3478041,31.0192167 L22.3478041,31.0199316 L26.153275,34.7510588 L27.8985662,30.6192617 Z" id="Shape" fill="#BEBEBE"></path>
            <path d="M17.0168565,29.2142362 C16.9746807,29.1924335 16.5443448,30.1195858 16.7973995,30.6192617 L18.5423332,34.7510588 L22.3478041,31.0199316 L22.3478041,31.0192167 C20.5567629,31.036373 18.7614328,30.4845136 17.2477511,29.3611366 C17.1737647,29.306451 17.0965616,29.2574842 17.0168565,29.2142362 Z" id="Shape" fill="#BEBEBE"></path>
            <path d="M27.6219216,29.1484705 C27.0053689,28.7724627 26.5954059,27.9754119 26.5929039,27.256279 L26.5857556,25.1385543 C25.6078493,26.0685661 24.4519468,26.9524704 22.7663452,27.0764958 L22.7699193,29.2135214 C22.7720639,29.8307889 23.0744429,30.5052441 23.549814,30.921998 C24.8922906,30.7161229 26.1954508,30.1842792 27.3349119,29.3264666 C27.425697,29.2581991 27.5218435,29.198867 27.6219216,29.1484705 Z" id="Shape" fill="#EFD0AF"></path>
            <path d="M33.1948438,43.5332723 L28.8450194,43.5332723 C28.6234178,43.5332723 28.4432772,43.353489 28.4432772,43.13153 L28.4432772,41.4527193 C28.4432772,41.2307604 28.6230603,41.0509771 28.8450194,41.0509771 L33.1948438,41.0509771 C33.4164454,41.0509771 33.596586,41.2307604 33.596586,41.4527193 L33.596586,43.13153 C33.596586,43.353489 33.4168029,43.5332723 33.1948438,43.5332723 Z" id="Shape" fill="#F79F48"></path>
            <path d="M36.1206995,37.5796957 C36.0395647,37.1979691 35.6639143,36.9549222 35.2821877,37.0353421 C34.9001037,37.1164769 34.6563419,37.4921273 34.7378342,37.8738539 L36.651471,46.8480029 L38.0968852,46.8480029 L36.1206995,37.5796957 Z" id="Shape" fill="#A37C52"></path>
            <path d="M8.06879935,46.8236982 L9.90380332,37.9592778 C9.98243614,37.5768363 9.73617247,37.202973 9.353731,37.1246976 C8.97093222,37.0460648 8.59742636,37.2923284 8.51879345,37.6747699 L6.62409999,46.8287021 L8.06879935,46.8236982 Z" id="Shape" fill="#A37C52"></path>
            <path d="M44.6688016,45.4772899 L42.2644245,35.2543088 C41.8054948,33.3027853 40.2785884,31.7805254 38.3256352,31.3276718 L32.9850372,29.9658944 L30.5284765,33.0826134 L30.7300624,33.3513947 L33.9114748,34.1627423 C35.864428,34.6155959 37.3913344,36.1378558 37.850264,38.0893793 L39.9065122,46.8480029 L43.7030476,46.8480029 C44.3435476,46.8458583 44.8153445,46.1009912 44.6688016,45.4772899 Z" id="Shape" fill="#B7825A"></path>
        </g>
    </g>
</svg>