<?xml version="1.0" encoding="UTF-8"?>
<svg width="73px" height="73px" viewBox="0 0 73 73" version="1.1" xmlns="http://www.w3.org/2000/svg" xmlns:xlink="http://www.w3.org/1999/xlink">
    <!-- Generator: Sketch 51.3 (57544) - http://www.bohemiancoding.com/sketch -->
    <title>the-modern-web/resize-observer</title>
    <desc>Created with Sketch.</desc>
    <defs></defs>
    <g id="the-modern-web/resize-observer" stroke="none" stroke-width="1" fill="none" fill-rule="evenodd">
        <g id="container" transform="translate(2.000000, 2.000000)" fill="#FFFFFF" fill-rule="nonzero" stroke="#021F34" stroke-width="2">
            <rect id="mask" x="-1" y="-1" width="71" height="71" rx="14"></rect>
        </g>
        <g id="fat" transform="translate(15.000000, 15.000000)" fill-rule="nonzero">
            <path d="M43.9053937,27.2527484 L10.5978418,27.2527484 C10.5934022,31.872086 12.5135054,36.2845763 15.8967742,39.4296774 L15.8967742,43.9065118 L40.1204301,43.9065118 L40.1204301,37.8218323 C42.5725075,34.8460129 43.9109591,31.1086624 43.9053937,27.2527484 Z" id="Shape" fill="#1D5C88"></path>
            <path d="M31.7935484,37.8505978 C28.867028,37.8505978 26.4946237,35.4781935 26.4946237,32.5516731 L26.4946237,31.7946839 L31.7935484,31.7946839 L31.7935484,37.8505978 Z" id="Shape" fill="#2BB3CE"></path>
            <path d="M21.1956989,27.2527484 L21.1956989,31.7946839 L43.2725333,31.7946839 C43.6930409,30.3173247 43.9067957,28.7887742 43.9076473,27.2527484 L21.1956989,27.2527484 Z" id="Shape" fill="#9A615B"></path>
            <polygon id="Shape" fill="#1D5C88" points="34.8237763 27.2527484 37.8517333 27.2527484 37.8517333 34.0656516 34.8237763 34.0656516"></polygon>
            <polygon id="Shape" fill="#1473A8" points="31.0388301 31.7946839 32.5528086 31.7946839 32.5528086 43.9065118 31.0388301 43.9065118"></polygon>
            <path d="M43.9053763,0.00113548387 L17.4107527,0.00113548387 C7.79509677,0.00113548387 9.99276108e-16,7.79623226 9.99276108e-16,17.4118882 L9.99276108e-16,18.1688774 C-0.00378494624,26.9446538 7.10737204,34.0618667 15.8831484,34.0656516 C21.0858409,34.0679226 25.9600946,31.5230194 28.932129,27.2527484 L43.9053763,27.2527484 L43.9053763,0.00113548387 Z" id="Shape" fill="#F8C09C"></path>
            <path d="M21.9526882,18.9258667 C25.3456086,22.3187871 29.9474409,24.224886 34.7458065,24.2247914 L43.9053763,24.1702882 L43.9053763,0.00113548387 L17.4107527,0.00113548387 C9.25372043,0.00151397849 2.19034839,5.66492903 0.417101075,13.6269419 L9.15956989,13.6269419 C13.9579355,13.6268473 18.5597677,15.5329462 21.9526882,18.9258667 Z" id="Shape" fill="#7D8F9F"></path>
            <path d="M4.16344086,22.7108129 L4.16344086,21.1968344 C4.79051183,21.1968344 5.29892473,20.6884215 5.29892473,20.0613505 C5.29892473,19.4342796 4.79051183,18.9258667 4.16344086,18.9258667 L4.16344086,17.4118882 C5.62670108,17.4118882 6.81290323,18.5980903 6.81290323,20.0613505 C6.81290323,21.5246108 5.62670108,22.7108129 4.16344086,22.7108129 Z" id="Shape" fill="#EF937D"></path>
            <polygon id="Shape" fill="#FFD884" points="0.00227096774 8.3280172 43.9076473 8.3280172 43.9076473 13.6269419 0.00227096774 13.6269419"></polygon>
            <g id="Group" transform="translate(3.784946, 10.597849)" fill="#EA676B">
                <polygon id="Shape" points="3.03022796 0.758124731 4.54420645 0.758124731 4.54420645 3.02909247 3.03022796 3.02909247"></polygon>
                <polygon id="Shape" points="6.05818495 0.758124731 7.57216344 0.758124731 7.57216344 3.02909247 6.05818495 3.02909247"></polygon>
                <polygon id="Shape" points="9.08614194 0.758124731 10.6001204 0.758124731 10.6001204 3.02909247 9.08614194 3.02909247"></polygon>
                <polygon id="Shape" points="12.1140989 0.00113548387 13.6280774 0.00113548387 13.6280774 3.02909247 12.1140989 3.02909247"></polygon>
                <polygon id="Shape" points="0.00227096774 0.00113548387 1.51624946 0.00113548387 1.51624946 3.02909247 0.00227096774 3.02909247"></polygon>
                <polygon id="Shape" points="15.1420559 0.758124731 16.6560344 0.758124731 16.6560344 3.02909247 15.1420559 3.02909247"></polygon>
                <polygon id="Shape" points="18.1700129 0.758124731 19.6839914 0.758124731 19.6839914 3.02909247 18.1700129 3.02909247"></polygon>
                <polygon id="Shape" points="21.1979699 0.758124731 22.7119484 0.758124731 22.7119484 3.02909247 21.1979699 3.02909247"></polygon>
                <polygon id="Shape" points="24.2259269 0.00113548387 25.7399054 0.00113548387 25.7399054 3.02909247 24.2259269 3.02909247"></polygon>
                <polygon id="Shape" points="27.2538839 0.758124731 28.7678624 0.758124731 28.7678624 3.02909247 27.2538839 3.02909247"></polygon>
                <polygon id="Shape" points="30.2818409 0.758124731 31.7958194 0.758124731 31.7958194 3.02909247 30.2818409 3.02909247"></polygon>
                <polygon id="Shape" points="33.3097978 0.758124731 34.8237763 0.758124731 34.8237763 3.02909247 33.3097978 3.02909247"></polygon>
                <polygon id="Shape" points="36.3377548 0.00113548387 37.8517333 0.00113548387 37.8517333 3.02909247 36.3377548 3.02909247"></polygon>
            </g>
        </g>
    </g>
</svg>