<?xml version="1.0" encoding="UTF-8"?>
<svg width="73px" height="73px" viewBox="0 0 73 73" version="1.1" xmlns="http://www.w3.org/2000/svg" xmlns:xlink="http://www.w3.org/1999/xlink">
    <!-- Generator: Sketch 51.3 (57544) - http://www.bohemiancoding.com/sketch -->
    <title>the-modern-web/share</title>
    <desc>Created with Sketch.</desc>
    <defs></defs>
    <g id="the-modern-web/share" stroke="none" stroke-width="1" fill="none" fill-rule="evenodd">
        <g id="container" transform="translate(2.000000, 2.000000)" fill="#FFFFFF" fill-rule="nonzero" stroke="#48000A" stroke-width="2">
            <rect id="mask" x="-1" y="-1" width="71" height="71" rx="14"></rect>
        </g>
        <g id="collaboration" transform="translate(15.000000, 15.000000)" fill-rule="nonzero">
            <path d="M15.9310078,17.4482344 L15.9310078,12.8964687 C15.9310078,11.2206875 17.2896797,9.86201562 18.9654609,9.86201562 C20.8756797,10.817125 23.1242344,10.817125 25.0344531,9.86201562 C26.7102344,9.86201562 28.0689062,11.2206875 28.0689062,12.8964687 L28.0689062,17.4482344 C28.0689062,18.2864687 27.3899141,18.9654609 26.5516797,18.9654609 L17.4482344,18.9654609 C16.61,18.9655469 15.9310078,18.2865547 15.9310078,17.4482344 Z" id="Shape" fill="#EF2648"></path>
            <circle id="Oval" fill="#FFD4B0" cx="22" cy="3.79310937" r="3.79310938"></circle>
            <g id="Group" transform="translate(3.781250, 3.781250)" fill="#FFDC13">
                <path d="M0.770515625,18.9774062 C0.351742188,18.9774062 0.011859375,18.6375234 0.011859375,18.21875 C0.004984375,10.9132031 4.36940625,4.31320313 11.0937578,1.45853125 C11.4791016,1.29464844 11.9252031,1.47374219 12.0890859,1.85908594 C12.2529687,2.24442969 12.073875,2.69053125 11.6885312,2.85441406 C5.52397656,5.47086719 1.52298438,11.5216406 1.52908594,18.21875 C1.52908594,18.6375234 1.18920313,18.9774062 0.770515625,18.9774062 Z" id="Shape"></path>
                <path d="M35.6669844,18.9774063 C35.2482109,18.9774063 34.9083281,18.6375234 34.9083281,18.21875 C34.9144297,11.5216406 30.9134375,5.47086719 24.7488828,2.85441406 C24.3635391,2.69053125 24.1844453,2.24451563 24.3483281,1.85908594 C24.5122109,1.47374219 24.9582266,1.29464844 25.3436562,1.45853125 C32.0680937,4.31320313 36.4324297,10.9132031 36.4256406,18.21875 C36.4256406,18.6375234 36.0857578,18.9774063 35.6669844,18.9774063 Z" id="Shape"></path>
                <path d="M18.21875,36.4256406 C15.7706484,36.4301953 13.3468672,35.9378594 11.0937578,34.9789687 C10.7084141,34.8150859 10.5293203,34.3690703 10.6932031,33.9836406 C10.8570859,33.5982109 11.3031016,33.4192031 11.6885312,33.5830859 C15.86475,35.3415391 20.57275,35.3415391 24.7489687,33.5830859 C25.1343125,33.4192031 25.5804141,33.5982969 25.7442969,33.9836406 C25.9081797,34.3689844 25.7290859,34.8150859 25.3437422,34.9789687 C23.0906328,35.9378594 20.6668516,36.4301953 18.21875,36.4256406 Z" id="Shape"></path>
                <path d="M12.9084141,37.9428672 C12.6254219,37.9436406 12.3659766,37.7865469 12.23475,37.5355234 L10.7175234,34.6322969 C10.5233047,34.2613047 10.6674219,33.8023984 11.0384141,33.6089531 C11.0824141,33.5861797 11.1294219,33.5671875 11.1772031,33.5528359 L14.2116563,32.6629531 C14.6137578,32.5453906 15.0355391,32.7759609 15.1531016,33.1780625 C15.2706641,33.5801641 15.0400938,34.0019453 14.6379922,34.1195078 L12.4903281,34.7491719 L13.5804453,36.8330703 C13.7746641,37.2048359 13.6305469,37.6629687 13.2595547,37.8564141 C13.1511875,37.9133047 13.0305313,37.9428672 12.9084141,37.9428672 Z" id="Shape"></path>
                <path d="M35.6669844,18.9774062 C35.4659766,18.9774062 35.2725313,18.8977422 35.1306484,18.7551719 L32.8547656,16.4792891 C32.5634375,16.1780781 32.5717734,15.6979453 32.8737578,15.4066172 C33.1680938,15.1228516 33.633875,15.1228516 33.9275234,15.4066172 L35.6670703,17.1461641 L37.4066172,15.4066172 C37.7078281,15.1152891 38.1879609,15.123625 38.4792891,15.4256094 C38.7630547,15.7199453 38.7630547,16.1857266 38.4792891,16.479375 L36.2034063,18.7552578 C36.0615234,18.8977422 35.8680781,18.9774062 35.6669844,18.9774062 Z" id="Shape"></path>
                <path d="M9.87396094,6.08085156 C9.76017969,6.08085156 9.64863281,6.05507031 9.54619531,6.00496875 C9.1691875,5.82364063 9.00985937,5.37075 9.1911875,4.99296875 L10.3738594,2.52441406 L8.04263281,1.4623125 C7.66863281,1.27342188 7.51841406,0.817523438 7.70653125,0.443523438 C7.88476562,0.0899765625 8.30585937,-0.06703125 8.67229687,0.0831875 L11.70675,1.4691875 C12.0875391,1.64441406 12.2537422,2.09507031 12.0785156,2.47585938 C12.0769687,2.47886719 12.0755078,2.48196094 12.0739609,2.48496875 L10.5567344,5.65073438 C10.43075,5.9131875 10.1652031,6.08007813 9.87396094,6.08085156 Z" id="Shape"></path>
            </g>
            <path d="M24.2667734,0.767765625 C25.5275625,2.42988281 25.2021172,4.79909375 23.5407734,6.05988281 C22.1912109,7.084 20.3242187,7.084 18.9746562,6.05988281 C20.2210937,7.7364375 22.5902187,8.08542969 24.2667734,6.83976563 C25.9433281,5.59410156 26.2923203,3.22420312 25.0466562,1.54764844 C24.8258828,1.25099219 24.5633437,0.987765625 24.2667734,0.767765625 Z" id="Shape" fill="#EDC4A2"></path>
            <circle id="Oval" fill="#FFD4B0" cx="37.9310078" cy="28.8275625" r="3.79310938"></circle>
            <path d="M40.1977812,25.8022187 C41.4585703,27.4643359 41.133125,29.8335469 39.4717812,31.0943359 C38.1222187,32.1184531 36.2552266,32.1184531 34.9056641,31.0943359 C36.1521016,32.7708906 38.5212266,33.1198828 40.1977812,31.8742188 C41.8743359,30.6285547 42.2233281,28.2586562 40.9776641,26.5821016 C40.7568906,26.2854453 40.4944375,26.0222187 40.1977812,25.8022187 Z" id="Shape" fill="#EDC4A2"></path>
            <circle id="Oval" fill="#FFD4B0" cx="6.06899219" cy="28.8275625" r="3.79310937"></circle>
            <path d="M8.33576562,25.8022187 C9.59655469,27.4643359 9.27110937,29.8335469 7.60976562,31.0943359 C6.26020312,32.1184531 4.39321094,32.1184531 3.04364844,31.0943359 C4.29008594,32.7708906 6.65921094,33.1198828 8.33576562,31.8742188 C10.0123203,30.6277812 10.3613125,28.2586562 9.11564844,26.5821016 C8.89478906,26.2854453 8.63233594,26.0222187 8.33576562,25.8022187 Z" id="Shape" fill="#EDC4A2"></path>
            <path d="M15.9310078,17.4482344 C15.9310078,18.2864687 16.61,18.9654609 17.4482344,18.9654609 L26.5516797,18.9654609 C27.3899141,18.9654609 28.0689062,18.2864687 28.0689062,17.4482344 L28.0689062,12.8964687 C28.0658984,12.3684687 27.9240156,11.851125 27.6570078,11.3959141 C24.9586562,15.1928906 20.5889922,17.4482344 15.9310078,17.4482344 Z" id="Shape" fill="#B20D24"></path>
            <path d="M0,42.4827734 L0,37.9310078 C0,36.2552266 1.35867188,34.8965547 3.03445313,34.8965547 C4.94467188,35.8516641 7.19322656,35.8516641 9.10344531,34.8965547 C10.7792266,34.8965547 12.1378984,36.2552266 12.1378984,37.9310078 L12.1378984,42.4827734 C12.1378984,43.3210078 11.4589063,44 10.6206719,44 L1.51722656,44 C0.678992188,44 0,43.3210078 0,42.4827734 Z" id="Shape" fill="#FFA511"></path>
            <path d="M0,42.4827734 C0,43.3210078 0.678992188,44 1.51722656,44 L10.6206719,44 C11.4589063,44 12.1378984,43.3210078 12.1378984,42.4827734 L12.1378984,37.9310078 C12.1348906,37.4030078 11.9930078,36.8856641 11.726,36.4304531 C9.0275625,40.2273437 4.65789844,42.4827734 0,42.4827734 Z" id="Shape" fill="#F08015"></path>
            <path d="M31.8621016,42.4827734 L31.8621016,37.9310078 C31.8621016,36.2552266 33.2207734,34.8965547 34.8965547,34.8965547 C36.8067734,35.8516641 39.0553281,35.8516641 40.9655469,34.8965547 C42.6413281,34.8965547 44,36.2552266 44,37.9310078 L44,42.4827734 C44,43.3210078 43.3210078,44 42.4827734,44 L33.3793281,44 C32.5410078,44 31.8621016,43.3210078 31.8621016,42.4827734 Z" id="Shape" fill="#4DB5FF"></path>
            <path d="M31.8621016,42.4827734 C31.8621016,43.3210078 32.5410937,44 33.3793281,44 L42.4827734,44 C43.3210078,44 44,43.3210078 44,42.4827734 L44,37.9310078 C43.9969922,37.4030078 43.8551094,36.8856641 43.5881016,36.4304531 C40.8896641,40.2273437 36.52,42.4827734 31.8621016,42.4827734 Z" id="Shape" fill="#3596D8"></path>
        </g>
    </g>
</svg>