<?xml version="1.0" encoding="UTF-8"?>
<svg width="73px" height="73px" viewBox="0 0 73 73" version="1.1" xmlns="http://www.w3.org/2000/svg" xmlns:xlink="http://www.w3.org/1999/xlink">
    <!-- Generator: Sketch 51.3 (57544) - http://www.bohemiancoding.com/sketch -->
    <title>the-modern-web/speech-synthesis</title>
    <desc>Created with Sketch.</desc>
    <defs></defs>
    <g id="the-modern-web/speech-synthesis" stroke="none" stroke-width="1" fill="none" fill-rule="evenodd">
        <g id="container" transform="translate(2.000000, 2.000000)" fill="#FFFFFF" fill-rule="nonzero" stroke="#5B3300" stroke-width="2">
            <rect id="mask" x="-1" y="-1" width="71" height="71" rx="14"></rect>
        </g>
        <g id="text-lines-(1)" transform="translate(15.000000, 15.000000)" fill-rule="nonzero">
            <path d="M44,16.9362188 C44,7.5989375 34.1497578,0.029390625 21.9999141,0.029390625 C9.84921094,0.029390625 0,7.5989375 0,16.9362188 C0,25.2696641 7.84566406,32.1929609 18.170625,33.5853203 C18.7132344,36.8868672 17.7120625,40.3929453 15.1657344,42.9393594 C20.6294688,42.9393594 25.1398984,38.863 25.8248203,33.5858359 C36.1513281,32.1948516 44,25.2707813 44,16.9362188 Z" id="Shape" fill="#FFB14D"></path>
            <g id="Group" transform="translate(13.234375, 10.226562)" fill="#181818">
                <path d="M16.4073594,2.1154375 L1.12389062,2.1154375 C0.548109375,2.1154375 0.0812109375,1.648625 0.0812109375,1.07275781 C0.0812109375,0.496890625 0.548109375,0.030078125 1.12389062,0.030078125 L16.4073594,0.030078125 C16.9831406,0.030078125 17.4500391,0.496890625 17.4500391,1.07275781 C17.4500391,1.648625 16.9830547,2.1154375 16.4073594,2.1154375 Z" id="Shape"></path>
                <path d="M16.4073594,7.75233594 L1.12389062,7.75233594 C0.548109375,7.75233594 0.0812109375,7.28552344 0.0812109375,6.70965625 C0.0812109375,6.13378906 0.548109375,5.66697656 1.12389062,5.66697656 L16.4073594,5.66697656 C16.9831406,5.66697656 17.4500391,6.13378906 17.4500391,6.70965625 C17.4500391,7.28552344 16.9830547,7.75233594 16.4073594,7.75233594 Z" id="Shape"></path>
                <path d="M16.4073594,13.3872578 L1.12389062,13.3872578 C0.548109375,13.3872578 0.0812109375,12.9204453 0.0812109375,12.3445781 C0.0812109375,11.7687109 0.548109375,11.3018984 1.12389062,11.3018984 L16.4073594,11.3018984 C16.9831406,11.3018984 17.4500391,11.7687109 17.4500391,12.3445781 C17.4500391,12.9204453 16.9830547,13.3872578 16.4073594,13.3872578 Z" id="Shape"></path>
            </g>
        </g>
    </g>
</svg>