<?xml version="1.0" encoding="UTF-8"?>
<svg width="73px" height="73px" viewBox="0 0 73 73" version="1.1" xmlns="http://www.w3.org/2000/svg" xmlns:xlink="http://www.w3.org/1999/xlink">
    <!-- Generator: Sketch 51.3 (57544) - http://www.bohemiancoding.com/sketch -->
    <title>the-modern-web/streams</title>
    <desc>Created with Sketch.</desc>
    <defs>
        <rect id="path-1" x="0" y="0" width="69" height="69" rx="14"></rect>
    </defs>
    <g id="the-modern-web/streams" stroke="none" stroke-width="1" fill="none" fill-rule="evenodd">
        <g id="container" transform="translate(2.000000, 2.000000)">
            <rect id="mask" stroke="#5F3B00" stroke-width="2" fill="#FFFFFF" fill-rule="nonzero" x="-1" y="-1" width="71" height="71" rx="14"></rect>
            <mask id="mask-2" fill="white">
                <use xlink:href="#path-1"></use>
            </mask>
            <rect stroke="#5F3B00" stroke-width="2" x="-1" y="-1" width="71" height="71" rx="14"></rect>
            <g id="slide" mask="url(#mask-2)">
                <g transform="translate(5.000000, 18.000000)">
                    <polygon id="Shape" fill="#FBB540" fill-rule="nonzero" points="14.8794179 5.38877339 7.69438669 5.38877339 7.69438669 0.898128898 11.2869023 0 14.8794179 0.898128898"></polygon>
                    <polygon id="Shape" fill="#EA9D2D" fill-rule="nonzero" points="7.69438669 2.69438669 14.8794179 2.69438669 14.8794179 4.49064449 7.69438669 4.49064449"></polygon>
                    <polygon id="Shape" fill="#F3AF3E" fill-rule="nonzero" points="7.69438669 11.6756757 11.2869023 11.6756757 11.2869023 52.0914761 7.69438669 52.0914761"></polygon>
                    <polygon id="Shape" fill="#D18D28" fill-rule="nonzero" points="19.3700624 12.5738046 5.8981289 12.5738046 5.8981289 4.49064449 18.4719335 4.49064449"></polygon>
                    <polygon id="Shape" fill="#C38325" fill-rule="nonzero" points="8.59251559 8.98128898 10.3887734 8.98128898 10.3887734 10.7775468 8.59251559 10.7775468"></polygon>
                    <polygon id="Shape" fill="#C38325" fill-rule="nonzero" points="12.1850312 8.98128898 15.7775468 8.98128898 15.7775468 10.7775468 12.1850312 10.7775468"></polygon>
                    <polygon id="Shape" fill="#D18D28" fill-rule="nonzero" points="17.5738046 18.8607069 33.3256383 8.08316008 41.8232848 11.6756757 41.573605 17.042894 32.8419958 22.4532225 17.5738046 22.4532225"></polygon>
                    <polygon id="Shape" fill="#D18D28" fill-rule="nonzero" points="17.5738046 32.3326403 32.8419958 21.8859418 41.8232848 25.1476091 41.573605 30.5148274 31.045738 35.9251559 17.5738046 35.9251559"></polygon>
                    <polygon id="Shape" fill="#F55648" fill-rule="nonzero" points="27.4532225 12.5738046 31.045738 12.5738046 31.045738 52.0914761 27.4532225 52.0914761"></polygon>
                    <path d="M46.3139293,41.3139293 C46.3157188,42.1968987 45.9205556,43.0339164 45.2376587,43.5936394 C44.5547617,44.1533625 43.6564541,44.3765127 42.7910187,44.2014137 L18.0655301,39.2572141 C15.9189911,38.8281543 14.526699,36.7402189 14.9557588,34.5936798 C15.3848186,32.4471408 17.4727541,31.0548487 19.6192931,31.4839085 L31.045738,33.7696466 C31.0466466,36.3802088 32.8891188,38.6276303 35.448815,39.1404574 L35.5307692,39.1572973 L46.3139293,41.3139293 Z" id="Shape" fill="#FBB540" fill-rule="nonzero"></path>
                    <path d="M14.8794179,21.9270312 C14.8794609,20.7397485 15.4118204,19.615032 16.3300217,18.8623391 C17.2482231,18.1096463 18.4555231,17.8082819 19.6197422,18.0411642 L43.1282661,22.7427568 C44.9805956,23.1132839 46.3139145,24.7397111 46.3139293,26.628736 C46.3139536,27.816058 45.7816227,28.9408376 44.8634123,29.6935814 C43.9452018,30.4463252 42.7378626,30.7477175 41.573605,30.5148274 L18.0650811,25.8131227 C16.2127102,25.4425872 14.8793792,23.8160982 14.8794179,21.9270312 Z" id="Shape" fill="#FBB540" fill-rule="nonzero"></path>
                    <path d="M14.8794179,8.45509771 C14.8794609,7.267815 15.4118204,6.14309852 16.3300217,5.39040567 C17.2482231,4.63771282 18.4555231,4.33634846 19.6197422,4.56923077 L43.1282661,9.27082328 C44.9805956,9.64135042 46.3139145,11.2677777 46.3139293,13.1568025 C46.3139536,14.3441245 45.7816227,15.4689041 44.8634123,16.2216479 C43.9452018,16.9743917 42.7378626,17.275784 41.573605,17.042894 L18.0650811,12.3411892 C16.2127102,11.9706538 14.8793792,10.3441647 14.8794179,8.45509771 Z" id="Shape" fill="#FBB540" fill-rule="nonzero"></path>
                    <g id="Group" stroke-width="1" fill="none" fill-rule="evenodd" transform="translate(22.738046, 8.756757)">
                        <polygon id="Shape" fill="#FBEDBF" fill-rule="nonzero" transform="translate(1.125883, 1.141240) rotate(-78.701300) translate(-1.125883, -1.141240) " points="0.227405687 0.224961198 2.02436119 0.224961198 2.02436119 2.05751889 0.227405687 2.05751889"></polygon>
                        <polygon id="Shape" fill="#FBEDBF" fill-rule="nonzero" transform="translate(8.759428, 2.664433) rotate(-78.701300) translate(-8.759428, -2.664433) " points="7.86095015 -1.45879397 9.65790566 -1.45879397 9.65790566 6.78765947 7.86095015 6.78765947"></polygon>
                        <polygon id="Shape" fill="#FBEDBF" fill-rule="nonzero" transform="translate(1.131451, 14.555022) rotate(-78.701300) translate(-1.131451, -14.555022) " points="0.232973525 13.6387431 2.02992903 13.6387431 2.02992903 15.4713008 0.232973525 15.4713008"></polygon>
                        <polygon id="Shape" fill="#FBEDBF" fill-rule="nonzero" transform="translate(8.764998, 16.078080) rotate(-78.701300) translate(-8.764998, -16.078080) " points="7.86652012 11.9548536 9.66347563 11.9548536 9.66347563 20.2013071 7.86652012 20.2013071"></polygon>
                        <polygon id="Shape" fill="#FBEDBF" fill-rule="nonzero" transform="translate(1.137065, 28.025720) rotate(-78.701300) translate(-1.137065, -28.025720) " points="0.238586831 27.1094416 2.03554234 27.1094416 2.03554234 28.9419993 0.238586831 28.9419993"></polygon>
                        <path d="M12.7927235,30.4005405 L12.622079,31.253763 L4.53891892,29.637131 L4.89143451,27.8756757 L9.90523909,28.8782121 C10.6697529,29.6480605 11.6466081,30.1722553 12.7107692,30.3837006 L12.7927235,30.4005405 Z" id="Shape" fill="#FBEDBF" fill-rule="nonzero"></path>
                    </g>
                    <path d="M56.1405821,41.3130312 C55.9442957,41.3130779 55.7485741,41.2920002 55.5567983,41.2501622 L55.5378254,41.2457838 L47.8993514,39.4009148 L48.3210229,37.6549522 L55.9488316,39.4970146 C56.2059631,39.5509816 56.47396,39.495841 56.6888995,39.3447449 C56.9038391,39.1936488 57.046451,38.9601436 57.0827193,38.6999252 C57.1488441,38.2098234 56.8288345,37.7506602 56.3461414,37.643052 L55.2417796,37.4015676 L55.6252807,35.646736 L56.7297547,35.8882204 C58.0997554,36.1871902 59.0239039,37.4710152 58.8726118,38.8650725 C58.7213197,40.2591297 57.5432727,41.3148108 56.1410312,41.3129189 L56.1405821,41.3130312 Z" id="Shape" fill="#C0F5F9" fill-rule="nonzero"></path>
                    <polygon id="Shape" fill="#C0F5F9" fill-rule="nonzero" transform="translate(44.076048, 37.563472) rotate(-76.408440) translate(-44.076048, -37.563472) " points="43.1779151 36.1775407 44.974181 36.1775407 44.974181 38.9494035 43.1779151 38.9494035"></polygon>
                    <polygon id="Shape" fill="#C0F5F9" fill-rule="nonzero" transform="translate(39.136062, 36.371306) rotate(-76.408440) translate(-39.136062, -36.371306) " points="38.2379287 35.4473517 40.0341945 35.4473517 40.0341945 37.2952602 38.2379287 37.2952602"></polygon>
                    <polygon id="Shape" fill="#DC4D41" fill-rule="nonzero" points="7.69438669 17.962578 11.2869023 16.1663202 11.2869023 12.5738046 7.69438669 12.5738046"></polygon>
                    <polygon id="Shape" fill="#DC4D41" fill-rule="nonzero" points="11.2869023 25.1476091 7.69438669 26.9438669 7.69438669 22.4532225 11.2869023 20.6569647"></polygon>
                    <polygon id="Shape" fill="#DC4D41" fill-rule="nonzero" points="11.2869023 34.1288981 7.69438669 35.9251559 7.69438669 31.4345114 11.2869023 29.6382536"></polygon>
                    <polygon id="Shape" fill="#DC4D41" fill-rule="nonzero" points="11.2869023 43.1101871 7.69438669 44.9064449 7.69438669 40.4158004 11.2869023 38.6195426"></polygon>
                    <polygon id="Shape" fill="#DC4D41" fill-rule="nonzero" points="7.69438669 49.3970894 11.2869023 47.6008316 11.2869023 52.0914761 7.69438669 52.0914761"></polygon>
                    <path d="M58.8877339,50.7442827 L58.8877339,52.989605 L5,52.989605 L0.525539904,50.2952183 C2.14485426,48.4989605 3.93571726,47.6008316 5.8981289,47.6008316 C8.84174636,47.6008316 8.84174636,50.7442827 11.7853638,50.7442827 C14.7289813,50.7442827 14.7289813,47.6008316 17.6737214,47.6008316 C20.6184615,47.6008316 20.6173389,50.7442827 23.5609563,50.7442827 C26.5045738,50.7442827 26.5045738,47.6008316 29.4481913,47.6008316 C32.3918087,47.6008316 32.3918087,50.7442827 35.3354262,50.7442827 C38.2790437,50.7442827 38.2801663,47.6008316 41.2237838,47.6008316 C44.1674012,47.6008316 44.1674012,50.7442827 47.1110187,50.7442827 C50.0546362,50.7442827 50.0557588,47.6008316 52.9993763,47.6008316" id="Shape" fill="#4799CF" fill-rule="nonzero"></path>
                    <path d="M58.8877339,52.5405405 L58.8877339,52.989605 L5,52.989605 L5,49.3970894 L5.8981289,49.3970894 C8.84174636,49.3970894 8.84174636,52.5405405 11.7853638,52.5405405 C14.7289813,52.5405405 14.7289813,49.3970894 17.6737214,49.3970894 C20.6184615,49.3970894 20.6173389,52.5405405 23.5609563,52.5405405 C26.5045738,52.5405405 26.5045738,49.3970894 29.4481913,49.3970894 C32.3918087,49.3970894 32.3918087,52.5405405 35.3354262,52.5405405 C38.2790437,52.5405405 38.2801663,49.3970894 41.2237838,49.3970894 C44.1674012,49.3970894 44.1674012,52.5405405 47.1110187,52.5405405 C50.0546362,52.5405405 50.0557588,49.3970894 52.9993763,49.3970894 C55.9429938,49.3970894 55.9441164,52.5405405 58.8877339,52.5405405 Z" id="Shape" fill="#428DC5" fill-rule="nonzero"></path>
                    <polygon id="Shape" fill="#C7463B" fill-rule="nonzero" points="7.69438669 12.5738046 11.2869023 12.5738046 11.2869023 13.4719335 7.69438669 13.4719335"></polygon>
                </g>
            </g>
        </g>
    </g>
</svg>