<?xml version="1.0" encoding="UTF-8"?>
<svg width="73px" height="73px" viewBox="0 0 73 73" version="1.1" xmlns="http://www.w3.org/2000/svg" xmlns:xlink="http://www.w3.org/1999/xlink">
    <!-- Generator: Sketch 51.3 (57544) - http://www.bohemiancoding.com/sketch -->
    <title>the-modern-web/trusted-web-activities</title>
    <desc>Created with Sketch.</desc>
    <defs></defs>
    <g id="the-modern-web/trusted-web-activities" stroke="none" stroke-width="1" fill="none" fill-rule="evenodd">
        <g id="container" transform="translate(2.000000, 2.000000)" fill="#FFFFFF" fill-rule="nonzero" stroke="#422814" stroke-width="2">
            <rect id="mask" x="-1" y="-1" width="71" height="71" rx="14"></rect>
        </g>
        <g id="high-five" transform="translate(12.000000, 12.000000)" fill-rule="nonzero">
            <path d="M41.8222656,26.03125 C38.6554641,26.03125 36.0800781,23.4543686 36.0800781,20.2890625 C36.0800781,17.1237564 38.6554641,14.546875 41.8222656,14.546875 C44.9890671,14.546875 47.5644531,17.1237564 47.5644531,20.2890625 C47.5644531,23.4543686 44.9890671,26.03125 41.8222656,26.03125 Z" id="Shape" fill="#FAAAAA"></path>
            <path d="M41.8222656,26.03125 L38.9511719,26.03125 C33.4108582,26.03125 28.7109375,21.5227356 28.7109375,15.9824219 L23.3997879,26.2921905 C26.0256424,30.2399444 30.0728379,33.0519714 34.6359329,34.1398468 L34.6445313,47.5644531 C34.6445313,48.3577423 35.2879104,49 36.0800781,49 L47.5644531,49 C48.3577423,49 49,48.3577423 49,47.5644531 L49,33.2089844 C49,29.2500152 45.7797393,26.03125 41.8222656,26.03125 Z" id="Shape" fill="#FF637B"></path>
            <path d="M25.9355469,1.43554688 L25.9355469,4.30664062 C25.9355469,5.11039739 25.3041306,5.7421875 24.5,5.7421875 C23.6958694,5.7421875 23.0644531,5.11039739 23.0644531,4.30664062 L23.0644531,1.43554688 C23.0644531,0.631416297 23.6958694,0 24.5,0 C25.3041306,0 25.9355469,0.631416297 25.9355469,1.43554688 Z" id="Shape" fill="#EFE2DD"></path>
            <path d="M30.2421875,8.70898438 C29.8747024,8.70898438 29.5075913,8.56879423 29.227211,8.28841403 C28.6664505,7.72765353 28.6664505,6.81922147 29.227211,6.25846097 L32.0983047,3.38736722 C32.6590652,2.82660673 33.5674973,2.82660673 34.1282578,3.38736722 C34.6890183,3.94812772 34.6890183,4.85655978 34.1282578,5.41732028 L31.257164,8.28841403 C30.9767837,8.56879423 30.6096726,8.70898438 30.2421875,8.70898438 Z" id="Shape" fill="#CDBFBA"></path>
            <path d="M18.7578125,8.70898438 C18.3903274,8.70898438 18.0232163,8.56879423 17.742836,8.28841403 L14.8717422,5.41732028 C14.3109817,4.85655978 14.3109817,3.94812772 14.8717422,3.38736722 C15.4325027,2.82660673 16.3409348,2.82660673 16.9016953,3.38736722 L19.772789,6.25846097 C20.3335495,6.81922147 20.3335495,7.72765353 19.772789,8.28841403 C19.4924087,8.56879423 19.1252976,8.70898438 18.7578125,8.70898438 Z" id="Shape" fill="#EFE2DD"></path>
            <path d="M7.17773438,26.03125 C4.0109329,26.03125 1.43554688,23.4543686 1.43554688,20.2890625 C1.43554688,17.1237564 4.0109329,14.546875 7.17773438,14.546875 C10.3445359,14.546875 12.9199219,17.1237564 12.9199219,20.2890625 C12.9199219,23.4543686 10.3445359,26.03125 7.17773438,26.03125 Z" id="Shape" fill="#895D3C"></path>
            <path d="M24.5,11.5800781 C22.1167679,11.5800781 20.1933594,13.5034866 20.1933594,15.8867188 C20.1933594,21.4277802 15.5898896,26.03125 10.0488281,26.03125 L7.17773438,26.03125 C3.21577449,26.03125 0,29.2470245 0,33.2089844 L0,47.5644531 C0,48.3682099 0.631416297,49 1.43554688,49 L12.9199219,49 C13.7240525,49 14.3554688,48.3682099 14.3554688,47.5644531 L14.3554688,34.1562958 C18.4037857,33.1801987 21.973587,30.8736038 24.5,27.8305435 C27.1987534,24.5859833 28.8066406,20.3944854 28.8066406,15.8867188 C28.8066406,13.5034866 26.8832321,11.5800781 24.5,11.5800781 Z" id="Shape" fill="#7ED8F6"></path>
            <path d="M28.8066406,15.8867187 C28.8066406,20.3944854 27.1987534,24.5859833 24.5,27.8305435 L24.5,11.5800781 C26.8832321,11.5800781 28.8066406,13.5034866 28.8066406,15.8867187 Z" id="Shape" fill="#6AA9FF"></path>
            <path d="M24.5,5.7421875 L24.5,0 C25.3041306,0 25.9355469,0.631416297 25.9355469,1.43554688 L25.9355469,4.30664062 C25.9355469,5.11039739 25.3041306,5.7421875 24.5,5.7421875 Z" id="Shape" fill="#CDBFBA"></path>
        </g>
    </g>
</svg>