<?xml version="1.0" encoding="UTF-8"?>
<svg width="73px" height="73px" viewBox="0 0 73 73" version="1.1" xmlns="http://www.w3.org/2000/svg" xmlns:xlink="http://www.w3.org/1999/xlink">
    <!-- Generator: Sketch 51.3 (57544) - http://www.bohemiancoding.com/sketch -->
    <title>the-modern-web/web-assembly</title>
    <desc>Created with Sketch.</desc>
    <defs></defs>
    <g id="the-modern-web/web-assembly" stroke="none" stroke-width="1" fill="none" fill-rule="evenodd">
        <g id="container" transform="translate(2.000000, 2.000000)" fill="#FFFFFF" fill-rule="nonzero" stroke="#0D1B25" stroke-width="2">
            <rect id="mask" x="-1" y="-1" width="71" height="71" rx="14"></rect>
        </g>
        <g id="machine" transform="translate(15.000000, 12.000000)" fill-rule="nonzero">
            <path d="M42.0926067,1.97865854 L42.0926067,47.9721799 C42.0926067,49.0647865 41.2065549,49.9508384 40.1139482,49.9508384 L3.81326224,49.9508384 C2.72027434,49.9508384 1.83460371,49.0647865 1.83460371,47.9721799 L1.83460371,1.97865854 C1.83460371,0.885670732 2.72027434,0 3.81326224,0 L40.1139482,0 C41.206936,0 42.0926067,0.885670732 42.0926067,1.97865854 Z" id="Shape" fill="#BDDFF4"></path>
            <path d="M20.336128,40.6665396 L20.336128,49.9512195 L7.88262195,49.9512195 L7.88262195,40.6665396 C7.88262195,40.0865092 8.35289639,39.6162347 8.93407015,39.6162347 L19.285061,39.6162347 C19.8650915,39.6162347 20.336128,40.0865092 20.336128,40.6665396 Z" id="Shape" fill="#9CC6DB"></path>
            <path d="M42.0926067,1.97865854 L42.0926067,47.9721799 C42.0926067,49.0647865 41.2065549,49.9508384 40.1139482,49.9508384 L37.3483231,49.9508384 C38.4409299,49.9508384 39.3269817,49.0647865 39.3269817,47.9721799 L39.3269817,1.97865854 C39.3269817,0.885670732 38.4409299,0 37.3483231,0 L40.1139482,0 C41.206936,0 42.0926067,0.885670732 42.0926067,1.97865854 Z" id="Shape" fill="#9CC6DB"></path>
            <path d="M38.2759146,18.3441311 L5.65129571,18.3441311 C5.0708841,18.3441311 4.60022868,17.8738567 4.60022868,17.2934451 L4.60022868,3.92378049 C4.60022868,3.34336888 5.0708841,2.87271337 5.65129571,2.87271337 L38.2755336,2.87271337 C38.8559452,2.87271337 39.3266006,3.34336888 39.3266006,3.92378049 L39.3266006,17.2934451 C39.3266006,17.8738567 38.8559452,18.3441311 38.2759146,18.3441311 Z" id="Shape" fill="#5BE167"></path>
            <path d="M39.3269817,3.92378049 L39.3269817,17.2938262 C39.3269817,17.8738567 38.8567073,18.3441311 38.2755336,18.3441311 L37.0022866,18.3441311 C37.5830792,18.3441311 38.0537347,17.8738567 38.0537347,17.2938262 L38.0537347,3.92378049 C38.0537347,3.34375005 37.5830792,2.87309454 37.0022866,2.87309454 L38.2755336,2.87309454 C38.8563262,2.87309454 39.3269817,3.34375005 39.3269817,3.92378049 Z" id="Shape" fill="#1FC974"></path>
            <path d="M11.6657775,18.3441311 L5.65129571,18.3441311 C5.0708841,18.3441311 4.60022868,17.8738567 4.60022868,17.2934451 L4.60022868,3.92378049 C4.60022868,3.34336888 5.0708841,2.87271337 5.65129571,2.87271337 L11.6657775,2.87271337 L11.6657775,18.3441311 Z" id="Shape" fill="#FD9E28"></path>
            <path d="M42.8761433,35.4897103 L1.05068595,35.4897103 C0.470655512,35.4897103 2.84217094e-14,35.019436 2.84217094e-14,34.4390244 L2.84217094e-14,33.4241616 C2.84217094e-14,32.84375 0.470274341,32.3734756 1.05068595,32.3734756 L42.8761433,32.3734756 C43.4565549,32.3734756 43.9272103,32.84375 43.9272103,33.4241616 L43.9272103,34.4390244 C43.9272103,35.019436 43.4565549,35.4897103 42.8761433,35.4897103 Z" id="Shape" fill="#618BAA"></path>
            <path d="M15.3060214,13.3940548 C15.1204268,13.3940548 14.9348323,13.3262195 14.7892531,13.1886433 C14.4862805,12.9032012 14.4721799,12.4260671 14.757622,12.1230945 L19.6673019,6.91463415 C19.9249238,6.64138722 20.3441311,6.59946644 20.6509146,6.81592985 L25.8056402,10.4550304 L32.5994664,5.61623473 C32.8159299,5.46227132 33.0983231,5.4333079 33.3414634,5.54077746 L35.71875,6.59184449 C36.0994664,6.75990849 36.2717225,7.20503044 36.1032775,7.58574693 C35.9352135,7.96646341 35.4897103,8.13910059 35.108994,7.97065551 L33.1242379,7.09336888 L26.2446646,11.9935214 C25.983994,12.1791159 25.6341463,12.179878 25.3727134,11.9950458 L20.3155488,8.4249238 L15.8548019,13.1573933 C15.7061738,13.3147865 15.5064786,13.3940548 15.3060214,13.3940548 Z" id="Shape" fill="#1685FB"></path>
            <path d="M35.4131098,13.394436 C35.3014482,13.394436 35.1882622,13.3692835 35.0815549,13.3166921 L25.4352135,8.57850615 L20.008003,12.5148628 C19.7549542,12.6985518 19.4146341,12.706936 19.1528201,12.535442 L14.8936738,9.75114332 C14.5453506,9.52324693 14.4474086,9.05602137 14.6753049,8.70769815 C14.9032012,8.35937502 15.3700458,8.26143298 15.7183689,8.48932927 L19.543064,10.9897103 L24.9173019,7.09146341 C25.1432927,6.92759141 25.4416921,6.90205795 25.6920732,7.02515239 L35.7458079,11.9637957 C36.1196646,12.1474848 36.2736281,12.5990854 36.0903201,12.972561 C35.9592225,13.2393293 35.6916921,13.394436 35.4131098,13.394436 Z" id="Shape" fill="#FD6096"></path>
            <path d="M8.61852137,7.12957317 L7.14710361,7.12957317 C6.73094517,7.12957317 6.39329268,6.79230185 6.39329268,6.37576215 C6.39329268,5.95960371 6.73094517,5.62233229 7.14710361,5.62233229 L8.61852137,5.62233229 C9.0346799,5.62233229 9.37195122,5.95960371 9.37195122,6.37576215 C9.37195122,6.79230185 9.0346799,7.12957317 8.61852137,7.12957317 Z" id="Shape" fill="#BDDFF4"></path>
            <path d="M8.61852137,9.09108234 L7.14710361,9.09108234 C6.73094517,9.09108234 6.39329268,8.75381093 6.39329268,8.33765249 C6.39329268,7.92111278 6.73094517,7.58384146 7.14710361,7.58384146 L8.61852137,7.58384146 C9.0346799,7.58384146 9.37195122,7.92111278 9.37195122,8.33765249 C9.37233229,8.75381093 9.0346799,9.09108234 8.61852137,9.09108234 Z" id="Shape" fill="#BDDFF4"></path>
            <path d="M8.61852137,11.0525914 L7.14710361,11.0525914 C6.73094517,11.0525914 6.39329268,10.7153201 6.39329268,10.2987805 C6.39329268,9.88262195 6.73094517,9.54535063 7.14710361,9.54535063 L8.61852137,9.54535063 C9.0346799,9.54535063 9.37195122,9.88262195 9.37195122,10.2987805 C9.37233229,10.7153201 9.0346799,11.0525914 8.61852137,11.0525914 Z" id="Shape" fill="#BDDFF4"></path>
            <path d="M7.15205795,13.714558 C6.73589941,13.714558 6.39329268,13.3772866 6.39329268,12.9607469 C6.39329268,12.5445884 6.72599083,12.206936 7.14253054,12.206936 L7.15205795,12.206936 C7.56859756,12.206936 7.90586888,12.5445884 7.90586888,12.9607469 C7.90586888,13.3772866 7.56821649,13.714558 7.15205795,13.714558 Z" id="Shape" fill="#1685FB"></path>
            <path d="M7.15205795,15.5358232 C6.73932927,15.5358232 6.39786585,15.2035061 6.39367376,14.7900152 C6.38948176,14.3734756 6.71836888,14.0327744 7.13490849,14.0285823 L7.144436,14.0282012 L7.15243902,14.0282012 C7.56516771,14.0282012 7.90167688,14.3608994 7.90586888,14.7743902 C7.91006098,15.1909299 7.57583844,15.5316311 7.1596799,15.5358232 C7.1570122,15.5358232 7.15472566,15.5358232 7.15205795,15.5358232 Z" id="Shape" fill="#FD6096"></path>
            <g id="Group" transform="translate(14.536585, 14.926829)" fill="#19AA60">
                <path d="M0.774009171,1.5903201 C0.357469463,1.5903201 0.0156249756,1.25266771 0.0156249756,0.836509171 C0.0156249756,0.419969561 0.348323122,0.0826981463 0.764862829,0.0826981463 L0.774009171,0.0826981463 C1.19016771,0.0826981463 1.5278201,0.419969561 1.5278201,0.836509171 C1.52743902,1.25266771 1.19016771,1.5903201 0.774009171,1.5903201 Z" id="Shape"></path>
                <path d="M5.79954263,1.59108234 C5.3833842,1.59108234 5.04115854,1.25342985 5.04115854,0.837271317 C5.04115854,0.420731707 5.37423785,0.0834603902 5.79039629,0.0834603902 L5.79954263,0.0834603902 C6.21608234,0.0834603902 6.55335366,0.420731707 6.55335366,0.837271317 C6.55335366,1.25342985 6.21608234,1.59108234 5.79954263,1.59108234 Z" id="Shape"></path>
                <path d="M10.8254574,1.59184449 C10.4127287,1.59184449 10.0716463,1.25952741 10.0670732,0.846036585 C10.0628811,0.429878049 10.3921494,0.0887957073 10.8083079,0.0842225366 L10.8174542,0.0842225366 L10.8258384,0.0842225366 C11.238186,0.0842225366 11.5750762,0.416158537 11.5792683,0.829649366 C11.5838415,1.24618907 11.25,1.58727132 10.8338415,1.59184449 C10.8307927,1.59184449 10.828125,1.59184449 10.8254574,1.59184449 Z" id="Shape"></path>
                <path d="M15.8513719,1.59260673 C15.4352135,1.59260673 15.0929878,1.25495424 15.0929878,0.838795707 C15.0929878,0.422637171 15.4260671,0.0849847805 15.8422256,0.0849847805 L15.8513719,0.0849847805 C16.2675305,0.0849847805 16.6051829,0.422637171 16.6051829,0.838795707 C16.6051829,1.25495424 16.2675305,1.59260673 15.8513719,1.59260673 Z" id="Shape"></path>
                <path d="M20.8772866,1.59336888 C20.4607469,1.59336888 20.1189024,1.25571649 20.1189024,0.839557951 C20.1189024,0.423399415 20.4516006,0.0857469268 20.8681403,0.0857469268 L20.8772866,0.0857469268 C21.2934451,0.0857469268 21.6310976,0.423399415 21.6310976,0.839557951 C21.6310976,1.25571649 21.2934451,1.59336888 20.8772866,1.59336888 Z" id="Shape"></path>
            </g>
            <path d="M24.8532775,28.8978659 L19.0739329,28.8978659 C18.4935214,28.8978659 18.0228659,28.4275914 18.0228659,27.8471799 L18.0228659,22.0678353 C18.0228659,21.4874238 18.4935214,21.0171494 19.0739329,21.0171494 L24.8532775,21.0171494 C25.4333079,21.0171494 25.9039634,21.4874238 25.9039634,22.0678353 L25.9039634,27.8471799 C25.9039634,28.4275914 25.433689,28.8978659 24.8532775,28.8978659 Z" id="Shape" fill="#1685FB"></path>
            <path d="M36.6208079,28.8978659 L30.8414634,28.8978659 C30.2610518,28.8978659 29.7907775,28.4275914 29.7907775,27.8471799 L29.7907775,22.0678353 C29.7907775,21.4874238 30.2610518,21.0171494 30.8414634,21.0171494 L36.6208079,21.0171494 C37.2012195,21.0171494 37.671875,21.4874238 37.671875,22.0678353 L37.671875,27.8471799 C37.6714939,28.4275914 37.2012195,28.8978659 36.6208079,28.8978659 Z" id="Shape" fill="#1685FB"></path>
            <path d="M13.0857469,21.0167683 L7.3056402,21.0167683 C6.72599083,21.0167683 6.25533541,21.488186 6.25533541,22.0678353 L6.25533541,27.8471799 C6.25533541,28.4279726 6.72599083,28.8982469 7.3056402,28.8982469 L13.0857469,28.8982469 C13.6657775,28.8982469 14.1360518,28.4279726 14.1360518,27.8471799 L14.1360518,22.0678353 C14.1360518,21.488186 13.6657775,21.0167683 13.0857469,21.0167683 Z" id="Shape" fill="#1685FB"></path>
            <path d="M14.1360518,22.0678353 L14.1360518,27.8471799 C14.1360518,28.4279726 13.6657775,28.8982469 13.0857469,28.8982469 L11.5811738,28.8982469 C12.1619664,28.8982469 12.632622,28.4279726 12.632622,27.8471799 L12.632622,22.0678353 C12.632622,21.488186 12.1623475,21.0167683 11.5811738,21.0167683 L13.0857469,21.0167683 C13.6657775,21.0167683 14.1360518,21.488186 14.1360518,22.0678353 Z" id="Shape" fill="#4C60E1"></path>
            <path d="M10.9500762,48.2324695 L10.9500762,49.9512195 L9.44245424,49.9512195 L9.44245424,48.2324695 C9.44245424,47.816311 9.77934449,47.4786585 10.1962653,47.4786585 C10.6124238,47.4786585 10.9500762,47.816311 10.9500762,48.2324695 Z" id="Shape" fill="#618BAA"></path>
            <path d="M13.1551067,48.2324695 L13.1551067,49.9512195 L11.6474848,49.9512195 L11.6474848,48.2324695 C11.6474848,47.816311 11.9851372,47.4786585 12.4012957,47.4786585 C12.8174542,47.4786585 13.1551067,47.816311 13.1551067,48.2324695 Z" id="Shape" fill="#618BAA"></path>
            <path d="M15.3601372,48.2324695 L15.3601372,49.9512195 L13.8525152,49.9512195 L13.8525152,48.2324695 C13.8525152,47.816311 14.1901677,47.4786585 14.6063262,47.4786585 C15.0224848,47.4786585 15.3601372,47.816311 15.3601372,48.2324695 Z" id="Shape" fill="#618BAA"></path>
            <path d="M25.9043445,22.0678353 L25.9043445,27.8471799 C25.9043445,28.4279726 25.4340701,28.8982469 24.8528964,28.8982469 L23.3494664,28.8982469 C23.929497,28.8982469 24.3997713,28.4279726 24.3997713,27.8471799 L24.3997713,22.0678353 C24.3997713,21.488186 23.929497,21.0167683 23.3494664,21.0167683 L24.8528964,21.0167683 C25.4340701,21.0167683 25.9043445,21.488186 25.9043445,22.0678353 Z" id="Shape" fill="#4C60E1"></path>
            <path d="M37.6714939,22.0678353 L37.6714939,27.8471799 C37.6714939,28.4279726 37.2012195,28.8982469 36.6211891,28.8982469 L35.1166158,28.8982469 C35.6974086,28.8982469 36.168064,28.4279726 36.168064,27.8471799 L36.168064,22.0678353 C36.168064,21.488186 35.6977897,21.0167683 35.1166158,21.0167683 L36.6211891,21.0167683 C37.2012195,21.0167683 37.6714939,21.488186 37.6714939,22.0678353 Z" id="Shape" fill="#4C60E1"></path>
        </g>
    </g>
</svg>