<?xml version="1.0" encoding="UTF-8"?>
<svg width="73px" height="73px" viewBox="0 0 73 73" version="1.1" xmlns="http://www.w3.org/2000/svg" xmlns:xlink="http://www.w3.org/1999/xlink">
    <!-- Generator: Sketch 51.3 (57544) - http://www.bohemiancoding.com/sketch -->
    <title>the-modern-web/web-bluetooth</title>
    <desc>Created with Sketch.</desc>
    <defs>
        <rect id="path-1" x="0" y="0" width="69" height="69" rx="14"></rect>
    </defs>
    <g id="the-modern-web/web-bluetooth" stroke="none" stroke-width="1" fill="none" fill-rule="evenodd">
        <g id="container" transform="translate(2.000000, 2.000000)" fill="#FFFFFF" fill-rule="nonzero" stroke="#00345A" stroke-width="2">
            <rect id="mask" x="-1" y="-1" width="71" height="71" rx="14"></rect>
        </g>
        <g id="bluetooth" transform="translate(23.000000, 16.000000)" fill-rule="nonzero">
            <path d="M14,0 C6.29385965,0 0.0468304094,6.24702924 0.0468304094,13.9531696 L0.0468304094,27.9650409 C0.0468304094,35.6710994 6.29385965,41.9181287 14,41.9181287 C21.7061404,41.9181287 27.9531696,35.6710994 27.9531696,27.9649591 L27.9531696,13.9531696 C27.9531696,6.24702924 21.7061404,0 14,0 Z" id="Shape" fill="#1F84CE"></path>
            <path d="M15.9107135,22.4993099 L21.5531228,16.6423158 C22.0602339,16.1159649 22.0602339,15.2827602 21.5531228,14.7564912 L15.0021871,7.95650292 C14.6174737,7.55738012 14.0289825,7.43178947 13.515076,7.63900585 C13.0010058,7.84630409 12.664269,8.34506433 12.664269,8.8994152 L12.664269,19.1294854 L8.40433918,14.707614 C7.88363743,14.167345 7.02333333,14.1510526 6.4825731,14.6717544 C5.94205848,15.192538 5.9260117,16.0528421 6.44679532,16.5935205 L12.1361988,22.4992281 L6.44679532,28.4049357 C5.92609357,28.945614 5.94214035,29.8058363 6.4825731,30.3267018 C6.74619883,30.5807485 7.08596491,30.7069942 7.42532164,30.7069942 C7.7817076,30.7069942 8.1374386,30.567731 8.40433918,30.2908421 L12.664269,25.8689708 L12.664269,36.0990409 C12.664269,36.6533918 13.000924,37.152152 13.515076,37.3594503 C13.6798012,37.425848 13.8522222,37.4581871 14.0230877,37.4581871 C14.3852865,37.4581053 14.7408538,37.3131111 15.0021871,37.0419532 L21.5531228,30.2419649 C22.0602339,29.715614 22.0602339,28.8824094 21.5531228,28.3561404 L15.9107135,22.4993099 Z M15.3825614,12.2691579 L18.6872982,15.6994854 L15.3825614,19.1298129 L15.3825614,12.2691579 Z M15.3825614,32.7295439 L15.3825614,25.8688889 L18.6872982,29.2992164 L15.3825614,32.7295439 Z" id="Shape" fill="#145587" opacity="0.3"></path>
            <path d="M15.9107135,20.9590643 L21.5531228,15.1020702 C22.0602339,14.5757193 22.0602339,13.7425146 21.5531228,13.2162456 L15.0021871,6.41625731 C14.6174737,6.0171345 14.0289825,5.89154386 13.515076,6.09876023 C13.0010058,6.30605848 12.664269,6.80481871 12.664269,7.35916959 L12.664269,17.5892398 L8.40433918,13.1673684 C7.88363743,12.6270994 7.02333333,12.610807 6.4825731,13.1315088 C5.94205848,13.6522924 5.9260117,14.5125965 6.44679532,15.0532749 L12.1361988,20.9589825 L6.44679532,26.8646901 C5.92609357,27.4053684 5.94214035,28.2655906 6.4825731,28.7864561 C6.74619883,29.0405029 7.08596491,29.1667485 7.42532164,29.1667485 C7.7817076,29.1667485 8.1374386,29.0274854 8.40433918,28.7505965 L12.664269,24.3287251 L12.664269,34.5587135 C12.664269,35.1130643 13.000924,35.6118246 13.515076,35.8191228 C13.6798012,35.8855205 13.8522222,35.9178596 14.0230877,35.9178596 C14.3852865,35.9177778 14.7408538,35.7727836 15.0021871,35.5016257 L21.5531228,28.7016374 C22.0602339,28.1752865 22.0602339,27.3420819 21.5531228,26.8158129 L15.9107135,20.9590643 Z M15.3825614,10.7289123 L18.6872982,14.1592398 L15.3825614,17.5895673 L15.3825614,10.7289123 Z M15.3825614,31.1892164 L15.3825614,24.3285614 L18.6872982,27.7588889 L15.3825614,31.1892164 Z" id="Shape" fill="#FFFFFF"></path>
        </g>
        <g id="Group-2" transform="translate(2.000000, 2.000000)">
            <mask id="mask-2" fill="white">
                <use xlink:href="#path-1"></use>
            </mask>
            <g id="Mask" fill-rule="nonzero"></g>
            <g id="Group-3" mask="url(#mask-2)">
                <g transform="translate(36.179470, 18.534830) rotate(21.000000) translate(-36.179470, -18.534830) translate(-13.820530, 10.034830)">
                    <rect id="Rectangle-5" stroke="#00345A" stroke-width="2" fill="#FFFFFF" fill-rule="nonzero" transform="translate(50.136196, 8.394249) rotate(-90.000000) translate(-50.136196, -8.394249) " x="43" y="-40" width="14.2723918" height="96.7884973"></rect>
                    <text id="EXPERIMENTAL" stroke="none" fill="none" font-family="Rubik-Bold, Rubik" font-size="8" font-weight="bold" letter-spacing="0.100000001">
                        <tspan x="19.406" y="11" fill="#00345A">EXPERIMENTA</tspan>
                        <tspan x="77.794" y="11" fill="#00345A">L</tspan>
                    </text>
                </g>
            </g>
        </g>
    </g>
</svg>