<?xml version="1.0" encoding="UTF-8"?>
<svg width="73px" height="73px" viewBox="0 0 73 73" version="1.1" xmlns="http://www.w3.org/2000/svg" xmlns:xlink="http://www.w3.org/1999/xlink">
    <!-- Generator: Sketch 51.3 (57544) - http://www.bohemiancoding.com/sketch -->
    <title>the-modern-web/web-usb</title>
    <desc>Created with Sketch.</desc>
    <defs>
        <rect id="path-1" x="0" y="0" width="69" height="69" rx="14"></rect>
    </defs>
    <g id="the-modern-web/web-usb" stroke="none" stroke-width="1" fill="none" fill-rule="evenodd">
        <g id="container" transform="translate(2.000000, 2.000000)" fill="#FFFFFF" fill-rule="nonzero" stroke="#252B42" stroke-width="2">
            <rect id="mask" x="-1" y="-1" width="71" height="71" rx="14"></rect>
        </g>
        <g id="usb" transform="translate(16.000000, 16.000000)" fill-rule="nonzero">
            <path d="M9.19223197,40.1724873 L7.24573099,38.9131559 C5.1101345,37.5310643 3.2919883,35.7129181 1.90989669,33.5773216 L0.897444444,32.0124483 C-0.490321637,29.8676608 -0.191173489,27.045614 1.61498441,25.2394561 L20.9681033,5.88633723 L34.9366355,19.8548694 L15.2618304,39.5297544 C13.6434094,41.1482554 11.114117,41.4163138 9.19223197,40.1724873" id="Shape" fill="#434C6D"></path>
            <polygon id="Shape" fill="#D9DBE8" points="32.9410624 17.8595361 22.9635965 7.88207018 31.0460312 0 40.9232749 9.87724366"></polygon>
            <g id="Group" transform="translate(28.931774, 3.836257)" fill="#B1B4C4">
                <polygon id="Shape" points="2.01379532 4.04573294 0.0186218324 2.05055945 2.01379532 0.0545867446 4.00904873 2.05055945"></polygon>
                <polygon id="Shape" points="6.0048616 8.0367193 4.00968811 6.04146589 6.0048616 4.0455731 8.00003509 6.04146589"></polygon>
            </g>
            <path d="M24.9590897,25.8415088 L22.9639162,23.8463353 L20.9680234,25.8415088 L21.4675361,26.3403021 L21.4668168,26.3410214 L19.8300136,27.9771053 L15.7033996,26.1166803 L21.8738596,19.9462203 L21.8738596,21.1660702 C21.8738596,21.5555302 22.1899513,21.8716218 22.5794113,21.8716218 C22.9695906,21.8716218 23.284963,21.5555302 23.284963,21.1660702 L23.284963,18.3580897 C23.284963,17.9679103 22.9695906,17.652538 22.5794113,17.652538 L19.0518129,17.652538 C18.6623528,17.652538 18.3462612,17.9679103 18.3462612,18.3580897 C18.3462612,18.748269 18.6623528,19.0636413 19.0518129,19.0636413 L20.7612651,19.0636413 L13.2072749,26.6183509 L11.3362203,22.5023665 L12.9864503,20.8528558 C13.1028967,20.7364094 13.1586023,20.5883138 13.1769045,20.4373411 C13.2524308,20.4493294 13.3285965,20.4605984 13.4076394,20.4605984 C14.1872788,20.4605984 14.8186628,19.8284152 14.8186628,19.049575 C14.8186628,18.2699357 14.1871988,17.6385517 13.4076394,17.6385517 C12.6287193,17.6385517 11.996616,18.2700156 11.996616,19.049575 C11.996616,19.2971735 12.0664678,19.5264698 12.1786784,19.7289922 C12.1116238,19.7621598 12.0446491,19.7995634 11.9888635,19.855269 L9.99297076,21.8504425 C9.7848538,22.0585595 9.72770955,22.3739318 9.84903119,22.6413509 L12.1419942,27.6837115 L10.9905575,28.8351481 C10.898807,28.9261793 10.8494152,29.0383099 10.8184055,29.1547563 C10.5347622,29.013614 10.2187505,28.9268986 9.88004094,28.9268986 C8.71174074,28.9268986 7.76346589,29.8743743 7.76346589,31.0434737 C7.76346589,32.2117739 8.71166082,33.1600487 9.88004094,33.1600487 C11.0490604,33.1600487 11.996616,32.2118538 11.996616,31.0434737 C11.996616,30.6604074 11.8872827,30.306193 11.7094561,29.9964951 C11.811037,29.9626082 11.9070234,29.9132164 11.9881442,29.8328148 L13.5042651,28.3159747 C13.5049844,28.3159747 13.5057037,28.3152554 13.5057037,28.3145361 L14.635961,27.1842788 L19.6945458,29.4638148 C19.7869357,29.5054542 19.8864386,29.5259142 19.9845029,29.5259142 C20.1672047,29.5259142 20.3478285,29.4546238 20.4832963,29.3192359 L22.4644035,27.338848 L22.4651228,27.3381287 L22.9639162,27.836922 L24.9590897,25.8415088 Z" id="Shape" fill="#7383BF"></path>
        </g>
        <g id="Group-2" transform="translate(2.000000, 2.000000)">
            <g id="Rectangle-5">
                <mask id="mask-2" fill="white">
                    <use xlink:href="#path-1"></use>
                </mask>
                <g id="Mask" fill-rule="nonzero"></g>
                <g id="Group-3" mask="url(#mask-2)">
                    <g transform="translate(48.500000, 14.000000) rotate(-330.000000) translate(-48.500000, -14.000000) translate(6.000000, 6.000000)">
                        <rect id="Rectangle-5" stroke="#252B42" stroke-width="2" fill="#FFFFFF" fill-rule="nonzero" transform="translate(42.530445, 8.258053) rotate(-90.000000) translate(-42.530445, -8.258053) " x="36" y="-33" width="13.0608891" height="82.5161056"></rect>
                        <text id="PROPOSAL" stroke="none" fill="none" font-family="Rubik-Bold, Rubik" font-size="8" font-weight="bold">
                            <tspan x="20.124" y="11" fill="#252B42">PROPOSAL</tspan>
                        </text>
                    </g>
                </g>
            </g>
        </g>
    </g>
</svg>