<?xml version="1.0" encoding="UTF-8"?>
<svg width="73px" height="73px" viewBox="0 0 73 73" version="1.1" xmlns="http://www.w3.org/2000/svg" xmlns:xlink="http://www.w3.org/1999/xlink">
    <!-- Generator: Sketch 51.3 (57544) - http://www.bohemiancoding.com/sketch -->
    <title>the-modern-web/web-authentication-api</title>
    <desc>Created with Sketch.</desc>
    <defs></defs>
    <g id="the-modern-web/web-authentication-api" stroke="none" stroke-width="1" fill="none" fill-rule="evenodd">
        <g id="container" transform="translate(2.000000, 2.000000)" fill="#FFFFFF" fill-rule="nonzero" stroke="#3F3F49" stroke-width="2">
            <rect id="mask" x="-1" y="-1" width="71" height="71" rx="14"></rect>
        </g>
        <g id="fingerprint" transform="translate(18.000000, 14.000000)" fill-rule="nonzero">
            <path d="M16.6903497,39.7101158 L13.8654888,39.7101158 C6.20778311,39.7101158 0,33.5023326 0,25.8446269 L0,13.8654888 C0,6.20778311 6.20778311,2.84217094e-14 13.8654888,2.84217094e-14 L16.6900042,2.84217094e-14 C24.3477098,2.84217094e-14 30.5554929,6.20778311 30.5554929,13.8654888 L30.5554929,25.8446269 C30.5554929,33.5023326 24.3477098,39.7101158 16.6903497,39.7101158 Z" id="Shape" fill="#BCE8F1"></path>
            <path d="M16.6903497,0 L13.8654888,0 C13.5157934,0 13.1695536,0.0131308964 12.8264237,0.038701459 C19.9989789,0.570155378 25.6528475,6.55747843 25.6528475,13.8654888 L25.6528475,25.8446269 C25.6528475,33.1526373 19.9989789,39.1399603 12.8264237,39.6714143 C13.1695536,39.6966393 13.5157934,39.7101158 13.8654888,39.7101158 L16.6903497,39.7101158 C24.3477098,39.7101158 30.5554929,33.5023326 30.5554929,25.8446269 L30.5554929,13.8654888 C30.5554929,6.20778311 24.3477098,2.51419799e-15 16.6903497,0 Z" id="Shape" fill="#95DAE8"></path>
            <path d="M14.9107737,34.7473447 L10.5983255,34.7473447 C10.2189129,34.7473447 9.91172008,34.4398064 9.91172008,34.0607393 C9.91172008,33.6816724 10.2189129,33.3741341 10.5983255,33.3741341 L14.9107737,33.3741341 C20.9119187,33.3741341 25.7941769,28.4918759 25.7941769,22.4907309 L25.7941769,14.8126379 C25.7941769,10.145311 21.9969417,6.34807594 17.3299604,6.34807594 L13.4905684,6.34807594 C8.82324159,6.34807594 5.02635194,10.145311 5.02635194,14.8126379 L5.02635194,22.0173291 C5.02635194,26.5108449 8.68191209,30.1664051 13.1750824,30.1664051 L14.7265962,30.1664051 C19.0604685,30.1664051 22.5861024,26.6404257 22.5861024,22.3065534 L22.5861024,15.0756005 C22.5861024,11.9449289 20.0394081,9.3982347 16.9090821,9.3982347 L13.8585778,9.3982347 C10.7282518,9.3982347 8.18155751,11.9452744 8.18155751,15.0756005 L8.18155751,21.4388805 C8.18155751,24.5692066 10.7282518,27.1159008 13.8585778,27.1159008 C16.9892494,27.1159008 19.5359436,24.5692066 19.5359436,21.4388805 L19.5359436,15.6274418 C19.5359436,13.9615513 18.1803559,12.6063091 16.5144654,12.6063091 L14.4107647,12.6063091 C12.7448742,12.6063091 11.389632,13.9615513 11.389632,15.6274418 L11.389632,21.4869118 C11.389632,22.8165834 12.4715452,23.8984964 13.8015622,23.8984964 L13.9159389,23.8984964 C15.245956,23.8984964 16.3275236,22.8165834 16.3275236,21.4869118 L16.3275236,16.7321612 C16.3275236,16.2259322 15.915975,15.8143837 15.4100916,15.8143837 C14.9042083,15.8143837 14.4923142,16.2259322 14.4923142,16.7321612 L14.4923142,21.2809647 C14.4923142,21.6603773 14.1851214,21.9675701 13.8060543,21.9675701 C13.4269874,21.9675701 13.1194491,21.6603773 13.1194491,21.2809647 L13.1194491,16.7321612 C13.1194491,15.4691805 14.147111,14.4415185 15.4100916,14.4415185 C16.6730723,14.4415185 17.7007342,15.468835 17.7007342,16.7321612 L17.7007342,21.4869118 C17.7007342,23.5736806 16.0027078,25.2717072 13.9159389,25.2717072 L13.8015622,25.2717072 C11.7147935,25.2717072 10.0167669,23.5736806 10.0167669,21.4869118 L10.0167669,15.6274418 C10.0167669,13.2047996 11.9881224,11.233444 14.4107647,11.233444 L16.5144654,11.233444 C18.9374532,11.233444 20.9088087,13.2047996 20.9088087,15.6274418 L20.9088087,21.4388805 C20.9088087,25.3263038 17.7460011,28.4887659 13.8585778,28.4887659 C9.97149999,28.4887659 6.80869239,25.3263038 6.80869239,21.4388805 L6.80869239,15.0756005 C6.80869239,11.1881771 9.97149999,8.02536948 13.8585778,8.02536948 L16.9090821,8.02536948 C20.7965054,8.02536948 23.9589675,11.1881771 23.9589675,15.0756005 L23.9589675,22.3065534 C23.9589675,27.397523 19.8172203,31.5389247 14.7265962,31.5389247 L13.1750824,31.5389247 C7.92481487,31.5389247 3.65348681,27.2675967 3.65348681,22.0173291 L3.65348681,14.8122923 C3.65348681,9.38821372 8.06648981,4.97521081 13.4905684,4.97521081 L17.3296149,4.97521081 C22.754039,4.97521081 27.167042,9.38821372 27.167042,14.8122923 L27.167042,22.4907309 C27.167042,29.2489731 21.6686704,34.7473447 14.9107737,34.7473447 Z" id="Shape" fill="#738C96"></path>
            <path d="M27.7638047,27.124194 L27.7676058,31.9166094 C27.7676058,32.0572478 27.8505375,32.1868286 27.9808093,32.2403887 C28.8277492,32.5904295 29.4238209,33.4235475 29.4248574,34.3969583 C29.4258941,35.3700236 28.8312047,36.2045238 27.9849559,36.5559469 C27.8550296,36.610198 27.7724434,36.7397788 27.7724434,36.8804171 L27.7741711,37.7149173 C27.7741711,37.8089066 27.8114904,37.8987492 27.8781814,37.9650946 L29.9525104,40.0356226 C30.0910754,40.1734966 30.0910754,40.3977577 29.9532015,40.5359772 L27.8826735,42.6103063 C27.8163281,42.6769972 27.7790088,42.7668399 27.7793544,42.8608291 L27.7810821,44.9382682 C27.7814277,45.1335033 27.9400345,45.2917646 28.1352696,45.2917646 L32.3810269,45.287618 C32.5766076,45.2872724 32.7348688,45.1286655 32.7345233,44.9334305 L32.7175914,27.1193562 C32.7172458,26.9237757 32.558639,26.7655143 32.3634039,26.7658599 L28.117301,26.7700065 C27.922066,26.770352 27.7638047,26.9289589 27.7638047,27.124194 Z" id="Shape" fill="#8F8F99"></path>
            <path d="M32.3630584,26.7658599 L31.2331141,26.7668966 L31.2493548,43.7682402 C31.2497004,43.9634752 31.091439,44.1220821 30.8958585,44.1224276 L27.7800454,44.125192 L27.7810821,44.9382682 C27.7810821,45.1338488 27.939689,45.2921101 28.1352696,45.2917646 L32.3810269,45.287618 C32.5766076,45.2872724 32.7348688,45.1286655 32.7345233,44.9334305 L32.7172458,27.1193562 C32.7172458,26.9241212 32.558639,26.7658599 32.3630584,26.7658599 Z" id="Shape" fill="#777784"></path>
            <path d="M30.2572844,14.8143656 C26.2109086,14.8143656 22.9302689,18.0950054 22.9302689,22.1413811 C22.9302689,26.1877568 26.2109086,29.4683966 30.2572844,29.4683966 C34.3036601,29.4683966 37.5842999,26.1877568 37.5842999,22.1413811 C37.5842999,18.0950054 34.3040057,14.8143656 30.2572844,14.8143656 Z M30.2572844,21.5580948 C29.0447539,21.5580948 28.0616677,20.5750087 28.0616677,19.3624781 C28.0616677,18.1499476 29.0447539,17.1668614 30.2572844,17.1668614 C31.4698149,17.1668614 32.4529011,18.1499476 32.4529011,19.3624781 C32.4529011,20.5750087 31.4698149,21.5580948 30.2572844,21.5580948 Z" id="Shape" fill="#8F8F99"></path>
            <path d="M32.3682416,15.1246683 C34.0286033,16.4678163 35.0908202,18.5207215 35.0908202,20.8227671 C35.0908202,24.8691428 31.8105259,28.1494371 27.7638047,28.1494371 C27.0298592,28.1494371 26.3214842,28.0402437 25.6528475,27.8394799 C26.9113359,28.8574664 28.5126088,29.4683966 30.2572844,29.4683966 C34.3040057,29.4683966 37.5842999,26.1881024 37.5842999,22.1413811 C37.5842999,18.8289508 35.3855733,16.0310427 32.3682416,15.1246683 Z" id="Shape" fill="#777784"></path>
        </g>
    </g>
</svg>