<?xml version="1.0" encoding="UTF-8"?>
<svg width="73px" height="73px" viewBox="0 0 73 73" version="1.1" xmlns="http://www.w3.org/2000/svg" xmlns:xlink="http://www.w3.org/1999/xlink">
    <!-- Generator: Sketch 51.3 (57544) - http://www.bohemiancoding.com/sketch -->
    <title>the-modern-web/web-xr</title>
    <desc>Created with Sketch.</desc>
    <defs>
        <rect id="path-1" x="0" y="0" width="69" height="69" rx="14"></rect>
    </defs>
    <g id="the-modern-web/web-xr" stroke="none" stroke-width="1" fill="none" fill-rule="evenodd">
        <g id="container" transform="translate(2.000000, 2.000000)">
            <mask id="mask-2" fill="white">
                <use xlink:href="#path-1"></use>
            </mask>
            <rect stroke="#103E78" stroke-width="2" x="-1" y="-1" width="71" height="71" rx="14"></rect>
        </g>
        <g id="panorama" transform="translate(10.000000, 13.000000)" fill-rule="nonzero">
            <g id="Group" fill="#5D9CEC">
                <path d="M41.8870968,0 L41.8870968,23.9354839 L41.8785484,23.9354839 L32.483871,11.1214516 L29.5945161,15.0537097 C28.6285484,14.712629 27.5865,14.5322581 26.5,14.5322581 C21.3025806,14.5322581 17.0967742,18.7466129 17.0967742,23.9354839 L11.1129032,23.9354839 L11.1129032,0 L41.8870968,0 Z M19.6612903,6.83870968 C19.6612903,5.89069355 18.9004839,5.12903226 17.9516129,5.12903226 C17.0112903,5.12903226 16.2419355,5.89069355 16.2419355,6.83870968 C16.2419355,7.77903226 17.0112903,8.5483871 17.9516129,8.5483871 C18.9004839,8.5483871 19.6612903,7.77903226 19.6612903,6.83870968 Z" id="Shape"></path>
                <path d="M53,5.12903226 L53,29.0645161 C53,31.8948871 50.7013387,34.1935484 47.8709677,34.1935484 L47.8709677,23.9354839 L47.8709677,10.2580645 C50.7013387,10.2580645 53,7.95940323 53,5.12903226 Z" id="Shape"></path>
                <path d="M5.12903226,23.9354839 L5.12903226,34.1935484 C2.29182258,34.1935484 0,31.8948871 0,29.0645161 L0,5.12903226 C0,7.95940323 2.29182258,10.2580645 5.12903226,10.2580645 L5.12903226,23.9354839 Z" id="Shape"></path>
            </g>
            <path d="M17.9516129,5.12903226 C18.9004839,5.12903226 19.6612903,5.89069355 19.6612903,6.83870968 C19.6612903,7.77903226 18.9004839,8.5483871 17.9516129,8.5483871 C17.0112903,8.5483871 16.2419355,7.77903226 16.2419355,6.83870968 C16.2419355,5.89069355 17.0112903,5.12903226 17.9516129,5.12903226 Z" id="Shape" fill="#FFCE54"></path>
            <path d="M11.1129032,0 L11.1129032,23.9354839 L5.12903226,23.9354839 L5.12903226,10.2580645 C2.29182258,10.2580645 0,7.95940323 0,5.12903226 C0,2.29096774 2.29182258,0 5.12903226,0 L11.1129032,0 Z" id="Shape" fill="#4A89DC"></path>
            <path d="M32.483871,11.1214516 L41.8785484,23.9354839 L35.9032258,23.9354839 C35.9032258,19.8331129 33.2617742,16.3351129 29.5945161,15.0528548 L32.483871,11.1214516 Z" id="Shape" fill="#E6E9ED"></path>
            <path d="M47.8709677,0 C50.7013387,0 53,2.29096774 53,5.12903226 C53,7.95940323 50.7013387,10.2580645 47.8709677,10.2580645 L47.8709677,23.9354839 L41.8870968,23.9354839 L41.8870968,0 L47.8709677,0 Z" id="Shape" fill="#4A89DC"></path>
            <path d="M26.5,35.9032258 C32.9548871,35.9032258 35.5441935,31.6290323 35.5441935,31.6290323 C34.8346774,34.1602097 33.0737097,36.2622581 30.7741935,37.4427903 C29.4919355,38.1001613 28.0395645,38.4677419 26.5,38.4677419 C24.9612903,38.4677419 23.5080645,38.1001613 22.2258065,37.4427903 C19.9271452,36.2622581 18.1747258,34.1687581 17.4558065,31.6375806 C17.6105323,31.8948871 20.251129,35.9032258 26.5,35.9032258 Z" id="Shape" fill="#EAC6BB"></path>
            <path d="M39.3225806,46.1612903 L13.6774194,46.1612903 L13.6774194,45.3064516 C13.6774194,42.4683871 15.9692419,40.1774194 18.8064516,40.1774194 L22.2258065,40.1774194 L30.7741935,40.1774194 L34.1935484,40.1774194 C37.0239194,40.1774194 39.3225806,42.4683871 39.3225806,45.3064516 L39.3225806,46.1612903 Z" id="Shape" fill="#AC92EC"></path>
            <path d="M34.1935484,40.1774194 L31.6264677,40.1774194 C34.4568387,40.1774194 36.7555,42.4683871 36.7555,45.3064516 L36.7555,46.1612903 L39.3225806,46.1612903 L39.3225806,45.3064516 C39.3225806,42.4683871 37.0239194,40.1774194 34.1935484,40.1774194 Z" id="Shape" fill="#967ADC"></path>
            <path d="M30.7741935,40.1774194 L22.2258065,40.1774194 L22.2258065,37.4427903 C23.5080645,38.1001613 24.9612903,38.4677419 26.5,38.4677419 C28.0395645,38.4677419 29.4919355,38.1001613 30.7741935,37.4427903 L30.7741935,40.1774194 Z" id="Shape" fill="#D3B1A9"></path>
            <path d="M29.5945161,15.0528548 C33.2617742,16.3351129 35.9032258,19.8331129 35.9032258,23.9354839 L35.9032258,29.0645161 C35.9032258,29.9544032 35.7835484,30.8177903 35.5441935,31.6290323 C35.5441935,31.6290323 32.9548871,35.9032258 26.5,35.9032258 C20.251129,35.9032258 17.6105323,31.8948871 17.4558065,31.6375806 C17.225,30.8177903 17.0967742,29.9544032 17.0967742,29.0645161 L17.0967742,23.9354839 C17.0967742,18.7466129 21.3025806,14.5322581 26.5,14.5322581 C27.5865,14.5322581 28.6285484,14.712629 29.5945161,15.0528548 Z" id="Shape" fill="#965353"></path>
            <path d="M31.2144355,35.0082097 C30.3929355,36.0117903 29.3705484,36.8461129 28.2071129,37.4427903 C27.2881613,37.9138065 26.2794516,38.2292419 25.2168871,38.3745645 C25.3382742,38.3916613 25.4605161,38.4010645 25.5836129,38.4130323 C25.885371,38.4429516 26.1896935,38.4677419 26.5,38.4677419 C28.0395645,38.4677419 29.4919355,38.1001613 30.7741935,37.4427903 C33.0737097,36.2622581 34.8346774,34.1602097 35.5441935,31.6290323 C35.5441935,31.6290323 34.2448387,33.755871 31.2144355,35.0082097 Z" id="Shape" fill="#D3B1A9"></path>
            <path d="M29.5945161,15.0528548 C28.6285484,14.712629 27.5865,14.5322581 26.5,14.5322581 C26.2512419,14.5322581 26.0059032,14.5502097 25.7622742,14.5707258 C25.5861774,14.5861129 25.4109355,14.6040645 25.2374032,14.6271452 C25.2374032,14.6271452 25.2339839,14.6271452 25.2322742,14.6271452 C25.8528871,14.712629 26.4546935,14.8511129 27.0282903,15.0528548 C30.6955484,16.3351129 33.337,19.8331129 33.337,23.9354839 L33.337,29.0645161 C33.337,29.9544032 33.2173226,30.8177903 32.9779677,31.6290323 C32.6274839,32.881371 32.017129,34.0268548 31.2144355,35.0082097 C34.2448387,33.755871 35.5441935,31.6290323 35.5441935,31.6290323 C35.7835484,30.8177903 35.9032258,29.9544032 35.9032258,29.0645161 L35.9032258,23.9354839 C35.9032258,19.8331129 33.2617742,16.3351129 29.5945161,15.0528548 Z" id="Shape" fill="#844747"></path>
        </g>
    </g>
</svg>