<?xml version="1.0" encoding="UTF-8"?>
<svg width="73px" height="73px" viewBox="0 0 73 73" version="1.1" xmlns="http://www.w3.org/2000/svg" xmlns:xlink="http://www.w3.org/1999/xlink">
    <!-- Generator: Sketch 51.3 (57544) - http://www.bohemiancoding.com/sketch -->
    <title>the-modern-web/web-sockets</title>
    <desc>Created with Sketch.</desc>
    <defs></defs>
    <g id="the-modern-web/web-sockets" stroke="none" stroke-width="1" fill="none" fill-rule="evenodd">
        <g id="container" transform="translate(2.000000, 2.000000)" fill="#FFFFFF" fill-rule="nonzero" stroke="#38454F" stroke-width="2">
            <rect id="mask" x="-1" y="-1" width="71" height="71" rx="14"></rect>
        </g>
        <g id="socket" transform="translate(15.000000, 17.000000)" fill-rule="nonzero">
            <path d="M0,28.0956328 L0,3.81975 C0,1.69563281 1.66899219,0.026640625 3.79310937,0.026640625 L40.2068906,0.026640625 C42.3310078,0.026640625 44,1.69563281 44,3.81975 L44,28.0956328 C44,30.21975 42.3310078,31.8887422 40.2068906,31.8887422 L3.79310937,31.8887422 C1.66899219,31.8887422 0,30.21975 0,28.0956328" id="Shape" fill="#E8EDEE"></path>
            <path d="M4.93100781,3.06117969 L39.0689062,3.06117969 C40.1310078,3.06117969 40.9654609,3.89563281 40.9654609,4.95773437 L40.9654609,26.9577344 C40.9654609,28.0198359 40.1310078,28.8542891 39.0689062,28.8542891 L4.93100781,28.8542891 C3.86890625,28.8542891 3.03445313,28.0198359 3.03445313,26.9577344 L3.03445313,4.95773437 C3.03445313,3.89563281 3.86899219,3.06117969 4.93100781,3.06117969" id="Shape" fill="#CBD4D8"></path>
            <polygon id="Shape" fill="#E8EDEE" points="6.06899219 22.7852969 19.7242031 22.7852969 19.7242031 9.13008594 6.06899219 9.13008594"></polygon>
            <g id="Group" transform="translate(9.023438, 9.109375)" fill="#38454F">
                <path d="M26.6317734,13.6759219 L17.5283281,13.6759219 C16.3145469,13.6759219 15.2524453,12.6897031 15.2524453,11.4000391 L15.2524453,5.40692969 C15.2524453,4.42071094 15.6317734,3.43449219 16.3903437,2.75171875 L18.2868984,0.77928125 C18.8179062,0.248273437 19.5006797,0.020625 20.1834531,0.020625 L24.0524453,0.020625 C24.7352187,0.020625 25.4179922,0.324070312 25.949,0.77928125 L27.8455547,2.67583594 C28.5283281,3.35860937 28.9834531,4.34482812 28.9834531,5.33104687 L28.9834531,11.4000391 C28.9075703,12.6897031 27.9213516,13.6759219 26.6317734,13.6759219" id="Shape"></path>
                <path d="M0.838664063,6.08970313 C0.383453125,6.08970313 0.0800078125,5.78625781 0.0800078125,5.33104688 L0.0800078125,3.05516406 C0.0800078125,2.59995313 0.383453125,2.29650781 0.838664063,2.29650781 C1.293875,2.29650781 1.59732031,2.59995313 1.59732031,3.05516406 L1.59732031,5.33104688 C1.59723438,5.78625781 1.29378906,6.08970313 0.838664063,6.08970313" id="Shape"></path>
                <path d="M6.90757031,6.08970313 C6.45235938,6.08970313 6.14891406,5.78625781 6.14891406,5.33104688 L6.14891406,3.05516406 C6.14891406,2.59995313 6.45235938,2.29650781 6.90757031,2.29650781 C7.36278125,2.29650781 7.66622656,2.59995313 7.66622656,3.05516406 L7.66622656,5.33104688 C7.66622656,5.78625781 7.36278125,6.08970313 6.90757031,6.08970313" id="Shape"></path>
                <path d="M3.87311719,11.4000391 C3.41790625,11.4000391 3.11446094,11.0965938 3.11446094,10.6413828 L3.11446094,9.12415625 C3.11446094,8.66894531 3.41790625,8.3655 3.87311719,8.3655 C4.32832812,8.3655 4.63177344,8.66894531 4.63177344,9.12415625 L4.63177344,10.6413828 C4.63177344,11.0965938 4.32832813,11.4000391 3.87311719,11.4000391" id="Shape"></path>
            </g>
            <g id="Group" transform="translate(29.562500, 15.125000)" fill="#546A79">
                <path d="M12.9202734,22.8327344 C12.6927109,22.8327344 12.5409453,22.7568516 12.3892656,22.6051719 C11.4030469,21.6189531 9.05136719,21.5430703 7.53405469,22.0741641 C4.95472656,23.0603828 2.14783594,21.9223984 1.2375,19.5707187 C0.934054688,18.9638281 0.782289063,18.2810547 0.782289063,17.5223984 L0.782289063,3.10853125 C0.782289063,2.65332031 1.08573438,2.349875 1.54094531,2.349875 C1.99615625,2.349875 2.29960156,2.65332031 2.29960156,3.10853125 L2.29960156,17.5223125 C2.29960156,18.0533203 2.37548437,18.5844141 2.60304687,19.0395391 C3.28582031,20.6326484 5.182375,21.3913047 7.00304687,20.7085312 C8.97548437,19.949875 12.0099375,20.1016406 13.4512812,21.5429844 C13.7547266,21.8464297 13.7547266,22.3016406 13.4512812,22.6050859 C13.2996016,22.7568516 13.1478359,22.8327344 12.9202734,22.8327344" id="Shape"></path>
                <path d="M2.29960156,1.59130469 L0.782375,1.59130469 C0.327164063,1.59130469 0.02371875,1.28785937 0.02371875,0.832648437 C0.02371875,0.3774375 0.327164063,0.0739921875 0.782375,0.0739921875 L2.29960156,0.0739921875 C2.7548125,0.0739921875 3.05825781,0.3774375 3.05825781,0.832648437 C3.05825781,1.28785937 2.75472656,1.59130469 2.29960156,1.59130469" id="Shape"></path>
            </g>
        </g>
    </g>
</svg>