<?xml version="1.0" encoding="UTF-8"?>
<svg width="73px" height="73px" viewBox="0 0 73 73" version="1.1" xmlns="http://www.w3.org/2000/svg" xmlns:xlink="http://www.w3.org/1999/xlink">
    <!-- Generator: Sketch 51.3 (57544) - http://www.bohemiancoding.com/sketch -->
    <title>the-modern-web/web-rtc</title>
    <desc>Created with Sketch.</desc>
    <defs></defs>
    <g id="the-modern-web/web-rtc" stroke="none" stroke-width="1" fill="none" fill-rule="evenodd">
        <g id="container" transform="translate(2.000000, 2.000000)" fill-rule="nonzero">
            <rect id="mask" stroke="#25394A" stroke-width="2" fill="#FFFFFF" x="-1" y="-1" width="71" height="71" rx="14"></rect>
            <g id="computer-monitor" transform="translate(11.000000, 11.000000)">
                <path d="M36.9622845,22.6310327 L24.2100263,22.6310327 L24.2100263,16.5350371 L22.6492558,16.5350371 L22.6492558,22.6310327 L9.89718347,22.6310327 C9.46624457,22.6310327 9.11684471,22.9803396 9.11684471,23.4113714 L9.11684471,30.2877988 L10.6776152,30.2877988 L10.6776152,24.1918032 L36.1820387,24.1918032 L36.1820387,30.2877988 L37.7428092,30.2877988 L37.7428092,23.4113714 C37.7427162,22.9803396 37.3933164,22.6310327 36.9622845,22.6310327 Z" id="Shape" fill="#FFD24D"></path>
                <rect id="Rectangle-path" fill="#8B7E7F" x="20.2165662" y="12.2748319" width="6.42717237" height="5.300223"></rect>
                <path d="M28.8771828,18.3558585 L17.9821922,18.3558585 C17.5512533,18.3558585 17.2018534,18.0065516 17.2018534,17.5755197 C17.2018534,17.1443949 17.5512533,16.795181 17.9821922,16.795181 L28.8772758,16.795181 C29.3084006,16.795181 29.6576146,17.1444879 29.6576146,17.5755197 C29.6576146,18.0065516 29.3082147,18.3558585 28.8771828,18.3558585 Z" id="Shape" fill="#C2B8B9"></path>
                <path d="M33.3114371,11.3170969 C33.3114371,12.4209885 32.4166462,13.3157794 31.3127546,13.3157794 L15.5466204,13.3157794 C14.4427288,13.3157794 13.5479379,12.4209885 13.5479379,11.3170969 L13.5479379,1.99868251 C13.5479379,0.894790923 14.4427288,0 15.5466204,0 L31.3127546,0 C32.4166462,0 33.3114371,0.894790923 33.3114371,1.99868251 L33.3114371,11.3170969 Z" id="Shape" fill="#463836"></path>
                <rect id="Rectangle-path" fill="#8B7E7F" x="33.7484194" y="41.5224269" width="6.42717237" height="5.300223"></rect>
                <path d="M42.4097798,47.6031746 L31.5146962,47.6031746 C31.0837573,47.6031746 30.7343575,47.2538677 30.7343575,46.8228358 C30.7343575,46.391711 31.0837573,46.0424971 31.5146962,46.0424971 L42.4096868,46.0424971 C42.8408117,46.0424971 43.1900256,46.391804 43.1900256,46.8228358 C43.1901186,47.2538677 42.8407187,47.6031746 42.4097798,47.6031746 Z" id="Shape" fill="#C2B8B9"></path>
                <path d="M46.8440341,40.56432 C46.8440341,41.6682116 45.9491502,42.5630025 44.8453516,42.5630025 L29.0791244,42.5630025 C27.9752328,42.5630025 27.0804419,41.6682116 27.0804419,40.56432 L27.0804419,31.2459986 C27.0804419,30.142107 27.9752328,29.2473161 29.0791244,29.2473161 L44.8452586,29.2473161 C45.9491502,29.2473161 46.8439412,30.1422 46.8439412,31.2459986 L46.8440341,40.56432 Z" id="Shape" fill="#463836"></path>
                <rect id="Rectangle-path" fill="#8B7E7F" x="6.68359728" y="41.5224269" width="6.42717237" height="5.300223"></rect>
                <path d="M15.3446788,47.6031746 L4.44959518,47.6031746 C4.01865628,47.6031746 3.66925642,47.2538677 3.66925642,46.8228358 C3.66925642,46.391711 4.01865628,46.0424971 4.44959518,46.0424971 L15.3446788,46.0424971 C15.7758036,46.0424971 16.1250175,46.391804 16.1250175,46.8228358 C16.1250175,47.2538677 15.7757107,47.6031746 15.3446788,47.6031746 Z" id="Shape" fill="#C2B8B9"></path>
                <path d="M19.7789331,40.56432 C19.7789331,41.6682116 18.8841422,42.5630025 17.7802506,42.5630025 L2.01411635,42.5630025 C0.910224764,42.5630025 0.0154338418,41.6682116 0.0154338418,40.56432 L0.0154338418,31.2459986 C0.0154338418,30.142107 0.910224764,29.2473161 2.01411635,29.2473161 L17.7802506,29.2473161 C18.8841422,29.2473161 19.7789331,30.1422 19.7789331,31.2459986 L19.7789331,40.56432 Z" id="Shape" fill="#463836"></path>
            </g>
        </g>
    </g>
</svg>