<?xml version="1.0" encoding="UTF-8"?>
<svg width="74px" height="73px" viewBox="0 0 74 73" version="1.1" xmlns="http://www.w3.org/2000/svg" xmlns:xlink="http://www.w3.org/1999/xlink">
    <!-- Generator: Sketch 51.3 (57544) - http://www.bohemiancoding.com/sketch -->
    <title>architecture-and-paradigmes/bem-pattern</title>
    <desc>Created with Sketch.</desc>
    <defs>
        <rect id="path-1" x="0" y="0" width="69" height="69" rx="14"></rect>
    </defs>
    <g id="architecture-and-paradigmes/bem-pattern" stroke="none" stroke-width="1" fill="none" fill-rule="evenodd">
        <g id="container" transform="translate(2.000000, 2.000000)">
            <mask id="mask-2" fill="white">
                <use xlink:href="#path-1"></use>
            </mask>
            <rect stroke="#25224D" stroke-width="2" x="-1" y="-1" width="71" height="71" rx="14"></rect>
        </g>
        <g id="css" transform="translate(12.000000, 12.000000)" fill-rule="nonzero">
            <polygon id="Shape" fill="#65DCFF" points="6.84946237 0 49 0 49 42.9935484 6.84946237 42.9935484"></polygon>
            <g id="Group" transform="translate(11.907527, 10.116129)" fill="#57C1FF">
                <polygon id="Shape" points="9.27311828 0 22.7612903 0 22.7612903 5.05806452 9.27311828 5.05806452"></polygon>
                <polygon id="Shape" points="0 8.43010753 10.116129 8.43010753 10.116129 15.1741935 0 15.1741935"></polygon>
                <polygon id="Shape" points="21.9182796 7.58709677 31.1913978 7.58709677 31.1913978 9.27311828 21.9182796 9.27311828"></polygon>
                <polygon id="Shape" points="16.8602151 7.58709677 20.2322581 7.58709677 20.2322581 9.27311828 16.8602151 9.27311828"></polygon>
                <polygon id="Shape" points="15.1741935 10.9591398 31.1913978 10.9591398 31.1913978 12.6451613 15.1741935 12.6451613"></polygon>
                <polygon id="Shape" points="18.5462366 14.3311828 24.4473118 14.3311828 24.4473118 16.0172043 18.5462366 16.0172043"></polygon>
                <polygon id="Shape" points="22.7612903 18.5462366 24.4473118 18.5462366 24.4473118 20.2322581 22.7612903 20.2322581"></polygon>
                <polygon id="Shape" points="17.7032258 18.5462366 21.0752688 18.5462366 21.0752688 20.2322581 17.7032258 20.2322581"></polygon>
                <polygon id="Shape" points="12.6451613 23.6043011 23.6043011 23.6043011 23.6043011 25.2903226 12.6451613 25.2903226"></polygon>
                <polygon id="Shape" points="0 19.3892473 10.116129 19.3892473 10.116129 27.8193548 0 27.8193548"></polygon>
            </g>
            <polygon id="Shape" fill="#3EA7FF" points="6.84946237 0 49 0 49 6.74408602 6.84946237 6.74408602"></polygon>
            <polygon id="Shape" fill="#A0EAFF" points="45.627957 6.74408602 49 6.74408602 49 42.9935484 45.627957 42.9935484"></polygon>
            <polygon id="Shape" fill="#57C1FF" points="45.627957 13.488172 49 13.488172 49 18.5462366 45.627957 18.5462366"></polygon>
            <circle id="Oval" fill="#EB352F" cx="10.2215054" cy="3.37204301" r="1"></circle>
            <circle id="Oval" fill="#F2E368" cx="13.5935484" cy="3.37204301" r="1"></circle>
            <circle id="Oval" fill="#A0CC00" cx="16.9655914" cy="3.37204301" r="1"></circle>
            <path d="M8.53548387,40.4645161 L8.53548387,44.6795699 C8.53548387,47.0074798 6.64834002,48.8946237 4.32043011,48.8946237 C1.99252019,48.8946237 0.105376344,47.0074798 0.105376344,44.6795699 L0.105376344,40.4645161 L8.53548387,40.4645161 Z" id="Shape" fill="#B3B3B3"></path>
            <polygon id="Shape" fill="#104F91" points="0.105376344 32.0344086 8.53548387 32.0344086 8.53548387 40.4645161 0.105376344 40.4645161"></polygon>
            <polygon id="Shape" fill="#2B7CD4" points="0.105376344 23.6043011 8.53548387 23.6043011 8.53548387 32.0344086 0.105376344 32.0344086"></polygon>
            <polygon id="Shape" fill="#3EA7FF" points="0.105376344 15.1741935 8.53548387 15.1741935 8.53548387 23.6043011 0.105376344 23.6043011"></polygon>
            <path d="M10.2815699,44.6795699 L7.30047312,47.6596129 C6.23631245,48.7268051 4.68327639,49.1445187 3.22734904,48.7551439 C1.77142169,48.3657691 0.634230942,47.2285783 0.244856136,45.772651 C-0.14451867,44.3167236 0.273194872,42.7636876 1.3403871,41.6995269 L4.32148387,38.7194839 L10.2815699,44.6795699 Z" id="Shape" fill="#CCCCCC"></path>
            <polygon id="Shape" fill="#A8070F" transform="translate(10.276308, 38.715903) rotate(-45.000000) translate(-10.276308, -38.715903) " points="6.06178585 34.5021181 14.4908311 34.5021181 14.4908311 42.9296883 6.06178585 42.9296883"></polygon>
            <polygon id="Shape" fill="#C7161F" transform="translate(16.237448, 32.756030) rotate(-45.000000) translate(-16.237448, -32.756030) " points="12.0229256 28.5422449 20.4519708 28.5422449 20.4519708 36.9698151 12.0229256 36.9698151"></polygon>
            <polygon id="Shape" fill="#EB352F" transform="translate(22.197831, 26.799443) rotate(-45.000000) translate(-22.197831, -26.799443) " points="17.9836774 22.5856576 26.4119851 22.5856576 26.4119851 31.0132277 17.9836774 31.0132277"></polygon>
            <path d="M8.53548387,40.4645161 L8.53548387,48.8946237 L4.32043011,48.8946237 C1.99252019,48.8946237 0.105376344,47.0074798 0.105376344,44.6795699 C0.105376344,42.35166 1.99252019,40.4645161 4.32043011,40.4645161 L8.53548387,40.4645161 Z" id="Shape" fill="#E6E6E6"></path>
            <circle id="Oval" fill="#808080" cx="4.32043011" cy="44.6795699" r="1"></circle>
            <polygon id="Shape" fill="#E0B82F" points="8.53548387 40.4645161 16.9655914 40.4645161 16.9655914 48.8946237 8.53548387 48.8946237"></polygon>
            <polygon id="Shape" fill="#EACF4D" points="16.9655914 40.4645161 25.3956989 40.4645161 25.3956989 48.8946237 16.9655914 48.8946237"></polygon>
            <polygon id="Shape" fill="#F2E368" points="25.3956989 40.4645161 33.8258065 40.4645161 33.8258065 48.8946237 25.3956989 48.8946237"></polygon>
        </g>
    </g>
</svg>