<?xml version="1.0" encoding="UTF-8"?>
<svg width="74px" height="73px" viewBox="0 0 74 73" version="1.1" xmlns="http://www.w3.org/2000/svg" xmlns:xlink="http://www.w3.org/1999/xlink">
    <!-- Generator: Sketch 51.3 (57544) - http://www.bohemiancoding.com/sketch -->
    <title>architecture-and-paradigmes/proxy</title>
    <desc>Created with Sketch.</desc>
    <defs>
        <rect id="path-1" x="0" y="0" width="69" height="69" rx="14"></rect>
    </defs>
    <g id="architecture-and-paradigmes/proxy" stroke="none" stroke-width="1" fill="none" fill-rule="evenodd">
        <g id="container" transform="translate(2.000000, 2.000000)">
            <mask id="mask-2" fill="white">
                <use xlink:href="#path-1"></use>
            </mask>
            <rect stroke="#575774" stroke-width="2" x="-1" y="-1" width="71" height="71" rx="14"></rect>
        </g>
        <g id="database-(1)" transform="translate(19.000000, 11.000000)" fill-rule="nonzero">
            <path d="M35.0651584,49.8484545 L0.788976659,49.8484545 C0.353267357,49.8484545 0,49.4951872 0,49.0594779 L0,47.3674928 C0,46.9317835 0.353267357,46.5785161 0.788976659,46.5785161 L35.0651584,46.5785161 C35.5008677,46.5785161 35.8541351,46.9317835 35.8541351,47.3674928 L35.8541351,49.0594779 C35.8541351,49.4951872 35.5008677,49.8484545 35.0651584,49.8484545 Z" id="Shape" fill="#C4C4CE"></path>
            <path d="M34.8686848,46.5785161 L27.2324077,46.5785161 C27.7767555,46.5785161 28.2182433,47.0284794 28.2182433,47.583999 L28.2182433,48.8429715 C28.2182433,49.398106 27.7767555,49.8484545 27.2324077,49.8484545 L34.8686848,49.8484545 C35.4130324,49.8484545 35.8541351,49.398106 35.8541351,48.8429715 L35.8541351,47.583999 C35.8541351,47.0284794 35.4130324,46.5785161 34.8686848,46.5785161 Z" id="Shape" fill="#AEAEB7"></path>
            <path d="M16.2476029,46.5646474 L16.2476029,36.667382 C16.2476029,36.2316727 16.6008702,35.8784054 17.0365795,35.8784054 L18.8175557,35.8784054 C19.2532649,35.8784054 19.6065323,36.2316727 19.6065323,36.667382 L19.6065323,46.5646474 C19.6065323,47.0003566 19.2532649,47.353624 18.8175557,47.353624 L17.0365795,47.353624 C16.6008702,47.353624 16.2476029,47.0003566 16.2476029,46.5646474 Z" id="Shape" fill="#C4C4CE"></path>
            <path d="M18.8121622,35.8784054 L18.2061758,35.8784054 L18.2061758,47.353624 L18.8121622,47.353624 C19.2509535,47.353624 19.6065323,46.9980452 19.6065323,46.5588687 L19.6065323,36.6731607 C19.6065323,36.2343695 19.2509535,35.8784054 18.8121622,35.8784054 Z" id="Shape" fill="#AEAEB7"></path>
            <path d="M21.1320927,50.4945062 L14.7220425,50.4945062 C14.2863332,50.4945062 13.9330659,50.1412388 13.9330659,49.7055295 L13.9330659,46.7214411 C13.9330659,46.2857318 14.2863332,45.9324645 14.7220425,45.9324645 L21.1320927,45.9324645 C21.5678019,45.9324645 21.9210693,46.2857318 21.9210693,46.7214411 L21.9210693,49.7055295 C21.9210693,50.1412388 21.5681871,50.4945062 21.1320927,50.4945062 Z" id="Shape" fill="#AEAEB7"></path>
            <path d="M21.1266992,45.9324645 L19.4470419,45.9324645 C19.8858331,45.9324645 20.2417972,46.2880432 20.2417972,46.7272197 L20.2417972,49.6997509 C20.2417972,50.1389273 19.8858331,50.4945062 19.4470419,50.4945062 L21.1266992,50.4945062 C21.5654905,50.4945062 21.9210693,50.1389273 21.9210693,49.6997509 L21.9210693,46.7272197 C21.9210693,46.2880432 21.5654905,45.9324645 21.1266992,45.9324645 Z" id="Shape" fill="#8F8F99"></path>
            <path d="M32.5221726,38.1147381 L3.46833834,38.1147381 C2.32686476,38.1147381 1.4015123,37.1893857 1.4015123,36.0479121 L1.4015123,2.06682604 C1.40189752,0.925352458 2.32686476,-2.84217094e-14 3.46833834,-2.84217094e-14 L32.5221726,-2.84217094e-14 C33.6636462,-2.84217094e-14 34.5889987,0.925352458 34.5889987,2.06682604 L34.5889987,36.0479121 C34.5889987,37.1893857 33.6636462,38.1147381 32.5221726,38.1147381 Z" id="Shape" fill="#AEAEB7"></path>
            <path d="M32.5075335,-7.68561038e-14 L28.4578642,-7.68561038e-14 C28.4594051,0.035057093 28.4628723,0.0697288696 28.4628723,0.10517118 L28.4628723,34.0565936 C28.4628723,35.2061572 27.5309707,36.1380589 26.381407,36.1380589 L1.40690564,36.1380589 C1.46199535,37.2386967 2.36924148,38.1147381 3.48336272,38.1147381 L32.5075335,38.1147381 C33.6570971,38.1147381 34.5889987,37.1824513 34.5889987,36.0328876 L34.5889987,2.0814653 C34.5889987,0.931901655 33.6570971,-8.52651283e-14 32.5075335,-7.68561038e-14 Z" id="Shape" fill="#8F8F99"></path>
            <g id="Group" transform="translate(4.142127, 5.424215)" fill="#DEF4F8">
                <path d="M11.7290935,4.73077802 L2.16198096,4.73077802 C0.97158156,4.73077802 0.00654909801,3.76574555 0.00654909801,2.57534615 L0.00654909801,2.2463491 C0.00654909801,1.05594969 0.97158156,0.0909172322 2.16198096,0.0909172322 L11.7290935,0.0909172322 C12.9194928,0.0909172322 13.8845253,1.05594969 13.8845253,2.2463491 L13.8845253,2.57534615 C13.8845253,3.76574555 12.9194928,4.73077802 11.7290935,4.73077802 Z" id="Shape"></path>
                <path d="M11.7290935,12.0927624 L2.16198096,12.0927624 C0.97158156,12.0927624 0.00654909801,11.1277299 0.00654909801,9.93733056 L0.00654909801,9.60794819 C0.00654909801,8.41754878 0.97158156,7.45251632 2.16198096,7.45251632 L11.7290935,7.45251632 C12.9194928,7.45251632 13.8845253,8.41754878 13.8845253,9.60794819 L13.8845253,9.93733056 C13.8845253,11.1277299 12.9194928,12.0927624 11.7290935,12.0927624 Z" id="Shape"></path>
                <path d="M11.7290935,19.3800096 L2.16198096,19.3800096 C0.97158156,19.3800096 0.00654909801,18.4149772 0.00654909801,17.2245779 L0.00654909801,16.8951955 C0.00654909801,15.7047962 0.97158156,14.7401489 2.16198096,14.7401489 L11.7290935,14.7401489 C12.9194928,14.7401489 13.8845253,15.7047962 13.8845253,16.8951955 L13.8845253,17.2245779 C13.8845253,18.4149772 12.9194928,19.3800096 11.7290935,19.3800096 Z" id="Shape"></path>
            </g>
            <path d="M25.223368,7.83506211 C25.223368,9.11637874 24.1847542,10.1549925 22.9034377,10.1549925 C21.6221211,10.1549925 20.5835073,9.11637874 20.5835073,7.83506211 C20.5835073,6.55374557 21.6221211,5.51513177 22.9034377,5.51513177 C24.1847542,5.51513177 25.223368,6.55374557 25.223368,7.83506211 Z" id="Shape" fill="#FFE046"></path>
            <path d="M25.223368,15.159678 C25.223368,16.4406093 24.1847542,17.4796084 22.9034377,17.4796084 C21.6221211,17.4796084 20.5835073,16.4406093 20.5835073,15.159678 C20.5835073,13.8783614 21.6221211,12.8393624 22.9034377,12.8393624 C24.1847542,12.8393624 25.223368,13.8783614 25.223368,15.159678 Z" id="Shape" fill="#FBA72D"></path>
            <path d="M25.223368,22.4839086 C25.223368,23.7652251 24.1847542,24.8042242 22.9034377,24.8042242 C21.6221211,24.8042242 20.5835073,23.7652251 20.5835073,22.4839086 C20.5835073,21.202592 21.6221211,20.1639782 22.9034377,20.1639782 C24.1847542,20.1639782 25.223368,21.202592 25.223368,22.4839086 Z" id="Shape" fill="#95DAE8"></path>
            <path d="M31.8048511,7.83506211 C31.8048511,9.11637874 30.7662373,10.1549925 29.4849207,10.1549925 C28.2036041,10.1549925 27.1649903,9.11637874 27.1649903,7.83506211 C27.1649903,6.55374557 28.2036041,5.51513177 29.4849207,5.51513177 C30.7662373,5.51513177 31.8048511,6.55374557 31.8048511,7.83506211 Z" id="Shape" fill="#FBA72D"></path>
            <path d="M31.8048511,15.159678 C31.8048511,16.4406093 30.7662373,17.4796084 29.4849207,17.4796084 C28.2036041,17.4796084 27.1649903,16.4406093 27.1649903,15.159678 C27.1649903,13.8783614 28.2036041,12.8393624 29.4849207,12.8393624 C30.7662373,12.8393624 31.8048511,13.8783614 31.8048511,15.159678 Z" id="Shape" fill="#FFE046"></path>
            <path d="M31.8048511,22.4839086 C31.8048511,23.7652251 30.7662373,24.8042242 29.4849207,24.8042242 C28.2036041,24.8042242 27.1649903,23.7652251 27.1649903,22.4839086 C27.1649903,21.202592 28.2036041,20.1639782 29.4849207,20.1639782 C30.7662373,20.1639782 31.8048511,21.202592 31.8048511,22.4839086 Z" id="Shape" fill="#FFE046"></path>
            <path d="M15.8558113,5.51513177 L14.1761539,5.51513177 C15.3750286,5.51513177 16.3469954,6.48671342 16.3469954,7.68597333 L16.3469954,7.98415098 C16.3469954,9.18302567 15.3750286,10.1549925 14.1761539,10.1549925 L15.8558113,10.1549925 C17.0546859,10.1549925 18.0266527,9.18302567 18.0266527,7.98415098 L18.0266527,7.68597333 C18.0266527,6.48671342 17.0546859,5.51513177 15.8558113,5.51513177 Z" id="Shape" fill="#BCE8F1"></path>
            <path d="M15.8558113,12.8767309 L14.1761539,12.8767309 C15.3750286,12.8767309 16.3469954,13.8486977 16.3469954,15.0475724 L16.3469954,15.3461354 C16.3469954,16.5450101 15.3750286,17.516977 14.1761539,17.516977 L15.8558113,17.516977 C17.0546859,17.516977 18.0266527,16.5450101 18.0266527,15.3461354 L18.0266527,15.0475724 C18.0266527,13.8486977 17.0546859,12.8767309 15.8558113,12.8767309 Z" id="Shape" fill="#BCE8F1"></path>
            <path d="M15.8558113,20.1639782 L14.1761539,20.1639782 C15.3750286,20.1639782 16.3469954,21.135945 16.3469954,22.3348197 L16.3469954,22.6333827 C16.3469954,23.8322574 15.3750286,24.8042242 14.1761539,24.8042242 L15.8558113,24.8042242 C17.0546859,24.8042242 18.0266527,23.8322574 18.0266527,22.6333827 L18.0266527,22.3348197 C18.0266527,21.135945 17.0546859,20.1639782 15.8558113,20.1639782 Z" id="Shape" fill="#BCE8F1"></path>
            <path d="M22.9034377,5.51513177 C22.6071862,5.51513177 22.3240329,5.5709919 22.063609,5.67231071 C22.9300194,6.00901271 23.544096,6.84999704 23.544096,7.83506211 C23.544096,8.82012728 22.9300194,9.6611117 22.063609,9.99742839 C22.3240329,10.0987472 22.6071862,10.1549925 22.9034377,10.1549925 C24.1847542,10.1549925 25.223368,9.11637874 25.223368,7.83506211 C25.2237533,6.55374557 24.1847542,5.51513177 22.9034377,5.51513177 Z" id="Shape" fill="#EEC707"></path>
            <path d="M22.9034377,12.8393624 C22.6071862,12.8393624 22.3240329,12.8956077 22.063609,12.9969265 C22.9300194,13.3332432 23.544096,14.1746128 23.544096,15.159678 C23.544096,16.1443579 22.9300194,16.9857275 22.063609,17.3220442 C22.3240329,17.423363 22.6071862,17.4796084 22.9034377,17.4796084 C24.1847542,17.4796084 25.223368,16.4409946 25.223368,15.159678 C25.2237533,13.8783614 24.1847542,12.8393624 22.9034377,12.8393624 Z" id="Shape" fill="#FB8723"></path>
            <path d="M22.9034377,20.1639782 C22.6071862,20.1639782 22.3240329,20.2202236 22.063609,20.3215424 C22.9300194,20.6578591 23.544096,21.4988435 23.544096,22.4839086 C23.544096,23.4689737 22.9300194,24.3099581 22.063609,24.64666 C22.3240329,24.7479788 22.6071862,24.8042242 22.9034377,24.8042242 C24.1847542,24.8042242 25.223368,23.7656104 25.223368,22.4842938 C25.2237533,21.202592 24.1847542,20.1639782 22.9034377,20.1639782 Z" id="Shape" fill="#7CD2E3"></path>
            <path d="M29.4849207,5.51513177 C29.1886692,5.51513177 28.9059012,5.5709919 28.645092,5.67231071 C29.5115024,6.00901271 30.125579,6.84999704 30.125579,7.83506211 C30.125579,8.82012728 29.5115024,9.6611117 28.645092,9.99742839 C28.9059012,10.0987472 29.1886692,10.1549925 29.4849207,10.1549925 C30.7662373,10.1549925 31.8048511,9.11637874 31.8048511,7.83506211 C31.8052364,6.55374557 30.7662373,5.51513177 29.4849207,5.51513177 Z" id="Shape" fill="#FB8723"></path>
            <path d="M29.4849207,12.8393624 C29.1886692,12.8393624 28.9059012,12.8956077 28.645092,12.9969265 C29.5115024,13.3332432 30.125579,14.1746128 30.125579,15.159678 C30.125579,16.1443579 29.5115024,16.9857275 28.645092,17.3220442 C28.9059012,17.423363 29.1886692,17.4796084 29.4849207,17.4796084 C30.7662373,17.4796084 31.8048511,16.4409946 31.8048511,15.159678 C31.8052364,13.8783614 30.7662373,12.8393624 29.4849207,12.8393624 Z" id="Shape" fill="#EEC707"></path>
            <path d="M29.4849207,20.1639782 C29.1886692,20.1639782 28.9059012,20.2202236 28.645092,20.3215424 C29.5115024,20.6578591 30.125579,21.4988435 30.125579,22.4839086 C30.125579,23.4689737 29.5115024,24.3099581 28.645092,24.64666 C28.9059012,24.7479788 29.1886692,24.8042242 29.4849207,24.8042242 C30.7662373,24.8042242 31.8048511,23.7656104 31.8048511,22.4842938 C31.8052364,21.202592 30.7662373,20.1639782 29.4849207,20.1639782 Z" id="Shape" fill="#EEC707"></path>
            <path d="M21.3004436,30.6784019 C21.3004436,32.503681 19.8207271,33.9833975 17.9954481,33.9833975 C16.1701691,33.9833975 14.6900674,32.503681 14.6900674,30.6784019 C14.6900674,28.8527378 16.1701691,27.3730213 17.9954481,27.3730213 C19.8207271,27.3730213 21.3004436,28.8527378 21.3004436,30.6784019 Z" id="Shape" fill="#DEF4F8"></path>
            <path d="M17.9954481,27.3730213 C17.6926475,27.3730213 17.3998632,27.4146274 17.1213329,27.4909055 C18.5224599,27.8742218 19.5525983,29.1555383 19.5525983,30.6784019 C19.5525983,32.2008803 18.5224599,33.4825822 17.1213329,33.8658985 C17.3998632,33.9417913 17.6926475,33.9833975 17.9954481,33.9833975 C19.8207271,33.9833975 21.3004436,32.503681 21.3004436,30.6784019 C21.3004436,28.8527378 19.8207271,27.3730213 17.9954481,27.3730213 Z" id="Shape" fill="#BCE8F1"></path>
        </g>
    </g>
</svg>