<?xml version="1.0" encoding="UTF-8"?>
<svg width="74px" height="73px" viewBox="0 0 74 73" version="1.1" xmlns="http://www.w3.org/2000/svg" xmlns:xlink="http://www.w3.org/1999/xlink">
    <!-- Generator: Sketch 51.3 (57544) - http://www.bohemiancoding.com/sketch -->
    <title>architecture-and-paradigmes/singleton</title>
    <desc>Created with Sketch.</desc>
    <defs>
        <rect id="path-1" x="0" y="0" width="69" height="69" rx="14"></rect>
    </defs>
    <g id="architecture-and-paradigmes/singleton" stroke="none" stroke-width="1" fill="none" fill-rule="evenodd">
        <g id="container" transform="translate(2.000000, 2.000000)">
            <mask id="mask-2" fill="white">
                <use xlink:href="#path-1"></use>
            </mask>
            <rect stroke="#B27B04" stroke-width="2" x="-1" y="-1" width="71" height="71" rx="14"></rect>
        </g>
        <g id="star" transform="translate(7.000000, 11.000000)" fill-rule="nonzero">
            <g id="Group" fill="#FFF082">
                <path d="M11.5119609,0.897527344 C12.2843125,1.97030078 14.4642969,6.57744922 15.7106172,9.26244141 C15.9065937,9.68452734 15.3770039,10.065832 15.0388594,9.74603906 C12.8879883,7.71241406 9.2103125,4.18347656 8.43796094,3.11058984 C7.82680859,2.26177344 8.0195,1.07821094 8.86842969,0.467058594 C9.71724609,-0.14409375 10.9008086,0.0487109375 11.5119609,0.897527344 Z" id="Shape"></path>
                <path d="M45.4880391,2.89752734 C44.7156875,3.97030078 42.5357031,8.57744922 41.2893828,11.2624414 C41.0934062,11.6845273 41.6229961,12.065832 41.9611406,11.7460391 C44.1120117,9.71241406 47.7895742,6.18336328 48.5620391,5.11058984 C49.1731914,4.26177344 48.9805,3.07821094 48.1315703,2.46705859 C47.2827539,1.85590625 46.0991914,2.04871094 45.4880391,2.89752734 Z" id="Shape"></path>
                <path d="M57.6928477,35.3564102 C56.4361055,34.9465586 51.3843281,34.2694766 48.4477383,33.8979141 C47.9861172,33.8394609 47.7837969,34.4599023 48.191043,34.6848789 C50.782125,36.1161875 55.2616055,38.5476562 56.5183477,38.9575078 C57.5127305,39.281832 58.5817656,38.7386484 58.9060898,37.7441523 C59.2304141,36.7496562 58.6872305,35.6807344 57.6928477,35.3564102 Z" id="Shape"></path>
                <path d="M1.30715234,34.3564102 C2.56389453,33.9465586 7.61567188,33.2694766 10.5522617,32.8979141 C11.0138828,32.8394609 11.2162031,33.4599023 10.808957,33.6848789 C8.217875,35.1161875 3.73839453,37.5476562 2.48165234,37.9575078 C1.48726953,38.281832 0.418234375,37.7386484 0.0939101563,36.7441523 C-0.230414062,35.7496562 0.312769531,34.6807344 1.30715234,34.3564102 Z" id="Shape"></path>
                <path d="M28.1641641,53.7304297 C28.1641641,52.4085508 29.0868398,47.3958555 29.6441836,44.4887188 C29.73175,44.0317422 30.3843633,44.0317422 30.4719297,44.4887188 C31.0292734,47.3958555 31.9519492,52.4085508 31.9519492,53.7304297 C31.9519492,54.7763555 31.1040391,55.6242656 30.0581133,55.6242656 C29.0120742,55.6243789 28.1641641,54.7763555 28.1641641,53.7304297 Z" id="Shape"></path>
            </g>
            <g id="Group-2" transform="translate(6.000000, 3.000000)">
                <path d="M46.2835547,16.7584883 L31.133207,15.3533477 L25.1150273,1.37863281 C24.6936211,0.400109375 23.3062656,0.400109375 22.8849727,1.37863281 L16.866793,15.3532344 L1.71644531,16.7584883 C0.655566406,16.8568164 0.226910156,18.1763164 1.02724219,18.8794531 L12.4582266,28.9213828 L9.11291797,43.7645117 C8.87865234,44.8038672 10.0011563,45.6192656 10.9171484,45.0754023 L24,37.3070273 L37.0828516,45.0754023 C37.998957,45.6193789 39.1212344,44.8038672 38.887082,43.7645117 L35.5416602,28.9213828 L46.9727578,18.8794531 C47.7730898,18.1763164 47.3443203,16.8568164 46.2835547,16.7584883 Z" id="Shape" fill="#FFDC64"></path>
                <path d="M27.3033945,6.46042969 L25.1149141,1.37863281 C24.6935078,0.400109375 23.3061523,0.400109375 22.8848594,1.37863281 L16.8666797,15.3532344 L1.71644531,16.7584883 C0.655566406,16.8568164 0.226910156,18.1763164 1.02724219,18.8794531 L12.4582266,28.9213828 L9.11291797,43.7645117 C8.87865234,44.8038672 10.0011563,45.6192656 10.9171484,45.0754023 L12.6583945,44.0414844 C15.5129688,25.5630469 23.5380391,11.9985234 27.3033945,6.46042969 Z" id="Shape" fill="#FFC850"></path>
            </g>
        </g>
    </g>
</svg>