<?xml version="1.0" encoding="UTF-8"?>
<svg width="74px" height="73px" viewBox="0 0 74 73" version="1.1" xmlns="http://www.w3.org/2000/svg" xmlns:xlink="http://www.w3.org/1999/xlink">
    <!-- Generator: Sketch 51.3 (57544) - http://www.bohemiancoding.com/sketch -->
    <title>architecture-and-paradigmes/solid</title>
    <desc>Created with Sketch.</desc>
    <defs>
        <rect id="path-1" x="0" y="0" width="69" height="69" rx="14"></rect>
    </defs>
    <g id="architecture-and-paradigmes/solid" stroke="none" stroke-width="1" fill="none" fill-rule="evenodd">
        <g id="container" transform="translate(2.000000, 2.000000)">
            <mask id="mask-2" fill="white">
                <use xlink:href="#path-1"></use>
            </mask>
            <rect stroke="#5B361C" stroke-width="2" x="-1" y="-1" width="71" height="71" rx="14"></rect>
            <g id="great-wall-of-china" mask="url(#mask-2)">
                <g transform="translate(10.000000, 10.000000)">
                    <polygon id="Shape" fill="#976947" fill-rule="nonzero" points="9.16666667 17.5 10.8333333 17.5 10.8333333 22.5 9.16666667 22.5"></polygon>
                    <path d="M33.3333333,25.8333333 L33.3333333,20 C30.2,20 27.2633333,18.4708333 25.4658333,15.9041667 C23.6075,13.2483333 20.5691667,11.6666667 17.3275,11.6666667 L16.6666667,11.6666667 C20.21,11.6666667 23.4175,13.7641667 24.8383333,17.0108333 L26.8425,21.5925 C27.7483333,23.6625 29.7933333,25 32.0525,25 L33.3333333,25 L33.3333333,25.8333333 Z" id="Shape" fill="#8892A0" fill-rule="nonzero"></path>
                    <path d="M33.3333333,25 C30.2958333,25 27.5466667,23.2016667 26.3291667,20.4191667 L24.5041667,16.2475 C23.2866667,13.465 20.5375,11.6666667 17.5,11.6666667 L16.6666667,11.6666667 L16.6666667,15 C19.6216667,15 22.2141667,16.97 23.005,19.8175 L24.495,25.1825 C25.2858333,28.03 27.8783333,30 30.8333333,30 L33.3333333,30" id="Shape" fill="#4D5D7A" fill-rule="nonzero"></path>
                    <polyline id="Shape" fill="#976947" fill-rule="nonzero" points="33.3333333 45 33.3333333 20 36.6666667 20 36.6666667 23.3333333 40 23.3333333 40 20 43.3333333 20 43.3333333 23.3333333 46.6666667 23.3333333 46.6666667 20 50 20 50 45 45 45"></polyline>
                    <path d="M45.8333333,25 C45.8333333,24.4358333 45.7975,23.8808333 45.7383333,23.3333333 L43.3333333,23.3333333 L43.3333333,20 L40,20 L40,23.3333333 L36.6666667,23.3333333 L36.6666667,20 L33.3333333,20 L33.3333333,39.8291667 C40.3975,38.7875 45.8333333,32.555 45.8333333,25 Z" id="Shape" fill="#C18E59" fill-rule="nonzero"></path>
                    <path d="M38.3333333,35 C35.7416667,39.1475 31.1958333,41.6666667 26.305,41.6666667 L18.3333333,41.6666667 L18.3333333,45 L30,45 C36.56,45 42.4766667,41.0558333 45,35" id="Shape" fill="#8892A0" fill-rule="nonzero"></path>
                    <path d="M18.3333333,45 L30,45 C36.56,45 42.4766667,41.0558333 45,35 L45,45 C40.11,48.26 34.3633333,50 28.4858333,50 L18.3333333,50" id="Shape" fill="#4D5D7A" fill-rule="nonzero"></path>
                    <path d="M16.6666667,31.6666667 L16.6666667,25 C14.0133333,24.4691667 11.7058333,22.8433333 10.3141667,20.5233333 L10,20 L9.68583333,20.5233333 C8.29416667,22.8433333 5.98666667,24.4691667 3.33333333,25 L3.33333333,31.6666667" id="Shape" fill="#C18E59" fill-rule="nonzero"></path>
                    <polyline id="Shape" fill="#976947" fill-rule="nonzero" points="18.3333333 35 18.3333333 28.3333333 15 28.3333333 15 31.6666667 11.6666667 31.6666667 11.6666667 28.3333333 8.33333333 28.3333333 8.33333333 31.6666667 5 31.6666667 5 28.3333333 1.66666667 28.3333333 1.66666667 35"></polyline>
                    <polygon id="Shape" fill="#C18E59" fill-rule="nonzero" points="20 35 0 35 1.66666667 38.3333333 18.3333333 38.3333333"></polygon>
                    <polygon id="Shape" fill="#976947" fill-rule="nonzero" points="1.66666667 38.3333333 18.3333333 38.3333333 18.3333333 50 1.66666667 50"></polygon>
                    <polygon id="Shape" fill="#976947" fill-rule="nonzero" points="16.6666667 15 16.6666667 0 13.3333333 0 13.3333333 3.33333333 10 3.33333333 10 0 6.66666667 0 6.66666667 3.33333333 3.33333333 3.33333333 3.33333333 0 0 0 0 15"></polygon>
                    <path d="M0,0 L0,11.2108333 C0.926666667,11.5025 1.90333333,11.6666667 2.91666667,11.6666667 C7.73416667,11.6666667 11.7758333,8.13 12.9675,3.33333333 L10,3.33333333 L10,0 L6.66666667,0 L6.66666667,3.33333333 L3.33333333,3.33333333 L3.33333333,0 L0,0 Z" id="Shape" fill="#C18E59" fill-rule="nonzero"></path>
                    <g id="Group" stroke-width="1" fill="none" fill-rule="evenodd" transform="translate(5.000000, 8.333333)">
                        <path d="M1.66666667,41.6666667 L1.66666667,38.3333333 C1.66666667,36.4925 3.15916667,35 5,35 C6.84083333,35 8.33333333,36.4925 8.33333333,38.3333333 L8.33333333,41.6666667" id="Shape" fill="#674025" fill-rule="nonzero"></path>
                        <path d="M33.3333333,26.6666667 L33.3333333,23.3333333 C33.3333333,21.4925 34.8258333,20 36.6666667,20 C38.5075,20 40,21.4925 40,23.3333333 L40,26.6666667 L33.3333333,26.6666667 Z" id="Shape" fill="#674025" fill-rule="nonzero"></path>
                        <path d="M0,6.66666667 L0,3.33333333 C0,1.4925 1.4925,0 3.33333333,0 C5.17416667,0 6.66666667,1.4925 6.66666667,3.33333333 L6.66666667,6.66666667" id="Shape" fill="#674025" fill-rule="nonzero"></path>
                    </g>
                    <path d="M47.5,3.33333333 C47.4716667,3.33333333 47.445,3.34083333 47.4166667,3.34166667 C47.0341667,1.43583333 45.3516667,0 43.3333333,0 C41.315,0 39.6325,1.43583333 39.25,3.34166667 C39.2216667,3.34083333 39.195,3.33333333 39.1666667,3.33333333 C37.7858333,3.33333333 36.6666667,4.4525 36.6666667,5.83333333 C36.6666667,7.21416667 37.7858333,8.33333333 39.1666667,8.33333333 C39.8675,8.33333333 40.4983333,8.04333333 40.9525,7.57916667 C41.6283333,8.05166667 42.4466667,8.33333333 43.3333333,8.33333333 C44.22,8.33333333 45.0383333,8.05166667 45.7141667,7.57916667 C46.1683333,8.04333333 46.7991667,8.33333333 47.5,8.33333333 C48.8808333,8.33333333 50,7.21416667 50,5.83333333 C50,4.4525 48.8808333,3.33333333 47.5,3.33333333 Z" id="Shape" fill="#A1CDFB" fill-rule="nonzero"></path>
                    <path d="M30.8333333,3.33333333 C30.805,3.33333333 30.7783333,3.34083333 30.75,3.34166667 C30.3675,1.43583333 28.685,0 26.6666667,0 C24.6483333,0 22.9658333,1.43583333 22.5833333,3.34166667 C22.555,3.34083333 22.5283333,3.33333333 22.5,3.33333333 C21.1191667,3.33333333 20,4.4525 20,5.83333333 C20,7.21416667 21.1191667,8.33333333 22.5,8.33333333 C23.2008333,8.33333333 23.8316667,8.04333333 24.2858333,7.57916667 C24.9616667,8.05166667 25.78,8.33333333 26.6666667,8.33333333 C27.5533333,8.33333333 28.3716667,8.05166667 29.0475,7.57916667 C29.5016667,8.04333333 30.1325,8.33333333 30.8333333,8.33333333 C32.2141667,8.33333333 33.3333333,7.21416667 33.3333333,5.83333333 C33.3333333,4.4525 32.2141667,3.33333333 30.8333333,3.33333333 Z" id="Shape" fill="#A1CDFB" fill-rule="nonzero"></path>
                    <polygon id="Shape" fill="#8892A0" fill-rule="nonzero" points="0 48.3333333 50 48.3333333 50 50 0 50"></polygon>
                </g>
            </g>
        </g>
    </g>
</svg>