<?xml version="1.0" encoding="UTF-8"?>
<svg width="73px" height="73px" viewBox="0 0 73 73" version="1.1" xmlns="http://www.w3.org/2000/svg" xmlns:xlink="http://www.w3.org/1999/xlink">
    <!-- Generator: Sketch 51.3 (57544) - http://www.bohemiancoding.com/sketch -->
    <title>basics/html/discoverable-content</title>
    <desc>Created with Sketch.</desc>
    <defs>
        <rect id="path-1" x="0" y="0" width="69" height="69" rx="14"></rect>
    </defs>
    <g id="basics/html/discoverable-content" stroke="none" stroke-width="1" fill="none" fill-rule="evenodd">
        <g id="Bitmap" transform="translate(2.000000, 2.000000)">
            <mask id="mask-2" fill="white">
                <use xlink:href="#path-1"></use>
            </mask>
            <rect stroke="#1C1C2C" stroke-width="2" x="-1" y="-1" width="71" height="71" rx="14"></rect>
            <path d="M38.9313615,24.4887308 C40.6883814,25.5903657 41.9204293,27.4545613 42.1447398,29.61847 C42.8613004,29.9532759 43.6565831,30.1458131 44.4997629,30.1458131 C47.5779858,30.1458131 50.0729065,27.6508923 50.0729065,24.5731436 C50.0729065,21.4949208 47.5779858,19 44.4997629,19 C41.4509422,19.0009485 38.977836,21.4512917 38.9313615,24.4887308 Z M35.2802696,35.8996381 C38.3584924,35.8996381 40.8534132,33.4042431 40.8534132,30.3264944 C40.8534132,27.2487458 38.3580182,24.753825 35.2802696,24.753825 C32.2025209,24.753825 29.7061775,27.24922 29.7061775,30.3269687 C29.7061775,33.4047173 32.2025209,35.8996381 35.2802696,35.8996381 Z M37.644303,36.2794958 L32.9152877,36.2794958 C28.9806065,36.2794958 25.7795582,39.4810183 25.7795582,43.4156995 L25.7795582,49.1989267 L25.7942593,49.2895046 L26.192612,49.4142269 C29.9475602,50.5874704 33.2097841,50.9787096 35.8948708,50.9787096 C41.1393735,50.9787096 44.1791838,49.4834644 44.3665044,49.3881443 L44.7387745,49.1998752 L44.7786098,49.1998752 L44.7786098,43.4156995 C44.7800324,39.4810183 41.5789842,36.2794958 37.644303,36.2794958 Z M46.8647448,30.526145 L42.1722451,30.526145 C42.1215026,32.4036191 41.3200549,34.0942468 40.0524398,35.310171 C43.5498814,36.350156 46.1088232,39.5934107 46.1088232,43.4242356 L46.1088232,45.2063896 C50.7420442,45.0366155 53.4119556,43.7234744 53.5878947,43.6352677 L53.9601647,43.4465244 L54,43.4465244 L54,37.6614002 C54,33.7271933 50.7989517,30.526145 46.8647448,30.526145 Z M25.5011856,30.1467615 C26.5914389,30.1467615 27.6058155,29.8285536 28.4651192,29.2865094 C28.7382753,27.5048297 29.6933733,25.9479346 31.0577312,24.8875577 C31.0634219,24.7832273 31.0733808,24.6798453 31.0733808,24.5745663 C31.0733808,21.4963434 28.5779858,19.0014227 25.5011856,19.0014227 C22.4224885,19.0014227 19.9280419,21.4963434 19.9280419,24.5745663 C19.9280419,27.6513665 22.4224885,30.1467615 25.5011856,30.1467615 Z M30.5062024,35.310171 C29.2447523,34.1004118 28.44615,32.4187945 28.3878198,30.5527019 C28.2137776,30.5398977 28.0416323,30.526145 27.8642706,30.526145 L23.1357294,30.526145 C19.2010483,30.526145 16,33.7271933 16,37.6614002 L16,43.4455759 L16.0147011,43.5347311 L16.4130538,43.6604018 C19.4253588,44.6007987 22.1137651,45.0342444 24.4488706,45.1708224 L24.4488706,43.4242356 C24.449819,39.5934107 27.0078123,36.3511045 30.5062024,35.310171 Z" id="Shape" fill="#1C1C2C" fill-rule="nonzero" mask="url(#mask-2)"></path>
        </g>
    </g>
</svg>