<?xml version="1.0" encoding="UTF-8"?>
<svg width="73px" height="73px" viewBox="0 0 73 73" version="1.1" xmlns="http://www.w3.org/2000/svg" xmlns:xlink="http://www.w3.org/1999/xlink">
    <!-- Generator: Sketch 51.3 (57544) - http://www.bohemiancoding.com/sketch -->
    <title>basics/html/svg</title>
    <desc>Created with Sketch.</desc>
    <defs>
        <rect id="path-1" x="0" y="0" width="69" height="69" rx="14"></rect>
    </defs>
    <g id="basics/html/svg" stroke="none" stroke-width="1" fill="none" fill-rule="evenodd">
        <g id="Bitmap" transform="translate(2.000000, 2.000000)">
            <mask id="mask-2" fill="white">
                <use xlink:href="#path-1"></use>
            </mask>
            <rect stroke="#E57E25" stroke-width="2" x="-1" y="-1" width="71" height="71" rx="14"></rect>
            <g id="svg" mask="url(#mask-2)">
                <g transform="translate(18.000000, 13.000000)">
                    <path d="M23.3954651,0 L1.12276744,0 C0.502674419,0 0,0.502946429 0,1.47889286 L0,42.2321429 C0,42.4970536 0.502674419,43 1.12276744,43 L31.8772326,43 C32.4973256,43 33,42.4970536 33,42.2321429 L33,9.96525 C33,9.43082143 32.9286279,9.25882143 32.8027674,9.132125 L23.872814,0.197339286 C23.746186,0.0714107143 23.5742791,0 23.3954651,0 Z" id="Shape" fill="#DEDEDE" fill-rule="nonzero"></path>
                    <polygon id="Shape" fill="#D9D7CA" fill-rule="nonzero" points="24 0 24 9 33 9"></polygon>
                    <path d="M31.8772326,43 L1.12276744,43 C0.502674419,43 0,42.4991176 0,41.8812353 L0,30 L33,30 L33,41.8812353 C33,42.4991176 32.4973256,43 31.8772326,43 Z" id="Shape" fill="#E57E25" fill-rule="nonzero"></path>
                    <g id="Group" stroke-width="1" fill="none" fill-rule="evenodd" transform="translate(7.000000, 32.000000)">
                        <path d="M4.96846154,6.1785 C4.96846154,6.4515 4.91076923,6.717 4.79461538,6.9735 C4.67846154,7.23 4.51615385,7.45575 4.30538462,7.65 C4.09461538,7.84425 3.83615385,8.00025 3.52692308,8.1165 C3.21769231,8.23275 2.86846154,8.2905 2.47538462,8.2905 C2.30692308,8.2905 2.13384615,8.2815 1.95461538,8.265 C1.77538462,8.2485 1.59538462,8.2185 1.41307692,8.178 C1.23076923,8.1375 1.05692308,8.0805 0.892307692,8.0085 C0.727692308,7.9365 0.586153846,7.8495 0.466153846,7.74675 L0.686923077,6.86475 C0.785384615,6.9195 0.909230769,6.97275 1.06,7.02375 C1.21076923,7.07475 1.36615385,7.12275 1.52769231,7.167 C1.68923077,7.21125 1.85,7.24725 2.01153846,7.275 C2.17307692,7.30275 2.32307692,7.31625 2.46384615,7.31625 C2.89153846,7.31625 3.21923077,7.21875 3.44692308,7.02375 C3.67461538,6.82875 3.78846154,6.54 3.78846154,6.1575 C3.78846154,5.925 3.70846154,5.727 3.54692308,5.56275 C3.38538462,5.3985 3.18384615,5.25 2.94230769,5.1165 C2.70076923,4.983 2.43923077,4.85025 2.15846154,4.71675 C1.87769231,4.58325 1.61538462,4.42575 1.37,4.245 C1.12461538,4.06425 0.921538462,3.8505 0.76,3.6045 C0.598461538,3.3585 0.518461538,3.051 0.518461538,2.682 C0.518461538,2.3475 0.581538462,2.04975 0.707692308,1.79025 C0.833846154,1.53075 1.00384615,1.3095 1.21769231,1.12875 C1.43153846,0.948 1.68076923,0.80925 1.96461538,0.71325 C2.24846154,0.61725 2.54846154,0.57 2.86384615,0.57 C3.18615385,0.57 3.51230769,0.59925 3.84153846,0.657 C4.17076923,0.71475 4.43692308,0.80925 4.64076923,0.939 C4.59846154,1.0275 4.55,1.125 4.49384615,1.2315 C4.43769231,1.338 4.38461538,1.43625 4.33615385,1.5285 C4.28769231,1.62075 4.24538462,1.698 4.21,1.7595 C4.17461538,1.821 4.15384615,1.8555 4.14692308,1.86225 C4.10461538,1.842 4.05769231,1.815 4.00461538,1.7805 C3.95153846,1.746 3.87692308,1.71225 3.77846154,1.67775 C3.68,1.64325 3.55076923,1.62 3.38923077,1.60575 C3.22769231,1.5915 3.02076923,1.59525 2.76846154,1.61625 C2.62769231,1.6305 2.49538462,1.66875 2.36846154,1.734 C2.24153846,1.79925 2.13,1.87875 2.03153846,1.97475 C1.93307692,2.07075 1.85615385,2.178 1.8,2.298 C1.74384615,2.418 1.71615385,2.53275 1.71615385,2.6415 C1.71615385,2.9145 1.79615385,3.135 1.95769231,3.303 C2.11923077,3.471 2.31923077,3.61725 2.55692308,3.744 C2.79461538,3.87075 3.05461538,3.99375 3.33538462,4.113 C3.61615385,4.23225 3.87692308,4.3785 4.11923077,4.54875 C4.36153846,4.719 4.56230769,4.9335 4.72384615,5.18925 C4.88538462,5.445 4.96846154,5.775 4.96846154,6.1785 Z" id="Shape" fill="#FFFFFF" fill-rule="nonzero"></path>
                        <polygon id="Shape" fill="#FFFFFF" fill-rule="nonzero" points="8.35461538 8.29125 5.94615385 0.693 7.38692308 0.693 9.18538462 7.21425 11.0892308 0.693 12.5192308 0.693 9.99538462 8.29125"></polygon>
                        <path d="M19.7446154,4.35375 L19.7446154,7.27575 C19.5830769,7.4745 19.4030769,7.63575 19.2030769,7.7625 C19.0030769,7.88925 18.7930769,7.9935 18.5723077,8.07525 C18.3515385,8.157 18.1238462,8.2155 17.8884615,8.25 C17.6530769,8.2845 17.4207692,8.301 17.1892308,8.301 C16.7261538,8.301 16.3007692,8.21925 15.9115385,8.055 C15.5223077,7.89075 15.1823077,7.6485 14.8915385,7.32675 C14.6007692,7.005 14.3723077,6.60225 14.2076923,6.117 C14.0430769,5.63175 13.9607692,5.07075 13.9607692,4.4355 C13.9607692,3.80025 14.0430769,3.24075 14.2076923,2.75925 C14.3723077,2.27775 14.6007692,1.87575 14.8915385,1.55475 C15.1823077,1.23375 15.5238462,0.98925 15.9169231,0.82125 C16.31,0.65325 16.7338462,0.57 17.1892308,0.57 C17.61,0.57 18.0030769,0.63825 18.3669231,0.77475 C18.7307692,0.91125 19.0569231,1.11675 19.3446154,1.38975 L18.4715385,2.14875 C18.3030769,1.95 18.11,1.80675 17.8930769,1.71825 C17.6761538,1.62975 17.4515385,1.58475 17.22,1.58475 C16.9607692,1.58475 16.7138462,1.632 16.4784615,1.728 C16.2430769,1.824 16.0330769,1.986 15.8476923,2.21475 C15.6623077,2.4435 15.5161538,2.739 15.4115385,3.102 C15.3069231,3.465 15.25,3.90825 15.2430769,4.43475 C15.25,4.94775 15.3046154,5.39175 15.4061538,5.7675 C15.5076923,6.14325 15.6476923,6.45075 15.8269231,6.69 C16.0061538,6.92925 16.2092308,7.107 16.4369231,7.22325 C16.6646154,7.3395 16.9046154,7.39725 17.1576923,7.39725 C17.2353846,7.39725 17.3376923,7.392 17.4676923,7.3815 C17.5976923,7.371 17.7269231,7.3545 17.8569231,7.3305 C17.9869231,7.3065 18.1107692,7.27425 18.23,7.233 C18.3492308,7.19175 18.4369231,7.134 18.4930769,7.059 L18.4930769,5.193 L17.1784615,5.193 L17.1784615,4.35225 L19.7446154,4.35225 L19.7446154,4.35375 Z" id="Shape" fill="#FFFFFF" fill-rule="nonzero"></path>
                    </g>
                    <path d="M30,17 L30,12.5 L25.4117647,12.5 L25.4117647,14 L20.8235294,14 L20.8235294,11 L13.1764706,11 L13.1764706,14 L8.58823529,14 L8.58823529,12.5 L4,12.5 L4,17 L8.58823529,17 L8.58823529,15.5 L11.3014118,15.5 C7.80976471,17.477 5.52941176,21.191 5.52941176,25.25 C5.52941176,25.664 5.87123529,26 6.29411765,26 C6.717,26 7.05882353,25.664 7.05882353,25.25 C7.05882353,21.3155 9.52805882,17.75075 13.1764706,16.25375 L13.1764706,18.5 L20.8235294,18.5 L20.8235294,16.25375 C24.4719412,17.7515 26.9411765,21.31625 26.9411765,25.25 C26.9411765,25.664 27.283,26 27.7058824,26 C28.1287647,26 28.4705882,25.664 28.4705882,25.25 C28.4705882,21.191 26.1902353,17.477 22.6985882,15.5 L25.4117647,15.5 L25.4117647,17 L30,17 Z M7.05882353,15.5 L5.52941176,15.5 L5.52941176,14 L7.05882353,14 L7.05882353,15.5 Z M19.2941176,17 L14.7058824,17 L14.7058824,14.1845 L14.7058824,12.5 L19.2941176,12.5 L19.2941176,14.1845 L19.2941176,17 Z M26.9411765,14 L28.4705882,14 L28.4705882,15.5 L26.9411765,15.5 L26.9411765,14 Z" id="Shape" fill="#727171" fill-rule="nonzero"></path>
                </g>
            </g>
        </g>
    </g>
</svg>