<?xml version="1.0" encoding="UTF-8"?>
<svg width="73px" height="73px" viewBox="0 0 73 73" version="1.1" xmlns="http://www.w3.org/2000/svg" xmlns:xlink="http://www.w3.org/1999/xlink">
    <!-- Generator: Sketch 51.3 (57544) - http://www.bohemiancoding.com/sketch -->
    <title>progressive-webapps/security/browser-sandbox</title>
    <desc>Created with Sketch.</desc>
    <defs></defs>
    <g id="progressive-webapps/security/browser-sandbox" stroke="none" stroke-width="1" fill="none" fill-rule="evenodd">
        <g id="container" transform="translate(2.000000, 2.000000)" fill="#FFFFFF" fill-rule="nonzero" stroke="#002B5A" stroke-width="2">
            <rect id="mask" x="-1" y="-1" width="71" height="71" rx="14"></rect>
        </g>
        <g id="sandbox" transform="translate(9.000000, 15.000000)" fill-rule="nonzero">
            <circle id="XMLID_1870_" fill="#37D0F5" cx="43.2974062" cy="18.598125" r="4.53053125"></circle>
            <path d="M47.8276094,18.5986719 C47.8276094,21.1000781 45.7994687,23.1282187 43.2968594,23.1282187 C41.7047969,23.1282187 40.3030469,22.3057187 39.4973906,21.0628906 C40.0877969,21.3457344 40.7491875,21.5034531 41.4466719,21.5034531 C43.9480781,21.5034531 45.9774219,19.4753125 45.9774219,16.9727031 C45.9774219,16.0645625 45.7103281,15.2183281 45.2495312,14.5095781 C46.7752031,15.2386719 47.8276094,16.7958437 47.8276094,18.5986719 Z" id="XMLID_1018_" fill="#00ACEF"></path>
            <g id="XMLID_1019_" transform="translate(7.000000, 0.000000)">
                <g id="XMLID_1020_" transform="translate(0.000000, 6.234375)">
                    <path d="M12.4983906,0.02625 C12.8988125,-0.048234375 13.27375,0.24565625 13.2969375,0.6523125 L14.1517031,15.61 C14.1765312,16.0461875 13.8720312,16.4343594 13.4421875,16.5144219 L7.11429687,17.6910781 L5.611375,17.9706406 C5.18109375,18.0497187 4.75846875,17.7977187 4.6239375,17.3813281 L0.046921875,3.115 C-0.077546875,2.72715625 0.1666875,2.31820312 0.567109375,2.24382812 L9.51507812,0.581 L12.4983906,0.02625 Z" id="XMLID_1868_" fill="#F73E3E"></path>
                    <path d="M12.4983906,0.02625 C12.8988125,-0.048234375 13.27375,0.24565625 13.2969375,0.6523125 L14.1517031,15.61 C14.1765312,16.0461875 13.8720312,16.4343594 13.4421875,16.5144219 L7.11429687,17.6910781 C10.6556406,13.4830937 10.261125,5.67415625 9.51507812,0.581 L12.4983906,0.02625 Z" id="XMLID_1867_" fill="#EB1410"></path>
                </g>
                <path d="M6.41560937,10.257625 C5.5755,10.257625 4.89453125,9.57654687 4.89453125,8.73654687 L4.89453125,1.52523437 C4.89453125,0.685125 5.57560937,0.00415625 6.41560937,0.00415625 C7.25571875,0.00415625 7.9366875,0.685234375 7.9366875,1.52523437 L7.9366875,8.73654688 C7.93679687,9.57654687 7.25571875,10.257625 6.41560937,10.257625 Z" id="XMLID_1865_" fill="#F8B159"></path>
            </g>
            <path d="M53.6044687,28.1412031 L2.60509375,28.1412031 C2.46990625,25.876375 3.26539063,23.5653906 4.99603125,21.83475 C6.66585937,20.1660156 8.87326562,19.3648437 11.059125,19.4313437 C13.0028281,19.4899687 14.854,18.5659687 15.9684219,16.9739062 C17.4535156,14.8499531 19.9177344,13.4606719 22.7064687,13.4606719 C25.3296094,13.4606719 27.6642187,14.6888437 29.1695469,16.6020312 C29.8692187,17.4910312 31.0342812,17.87975 32.1149062,17.5417812 C32.89125,17.2984219 33.7160469,17.1665156 34.5723437,17.1665156 C35.3982344,17.1665156 36.1949219,17.28825 36.9464375,17.5158594 C38.7346094,18.0544219 40.2647656,19.1856875 41.3114844,20.6820469 C41.9345937,21.5733437 43.0095312,22.0172969 44.079875,21.8200937 C46.648875,21.3457344 49.4004219,22.1017344 51.3880937,24.0894062 C52.5430937,25.2430937 53.2799531,26.6561094 53.6044687,28.1412031 Z" id="XMLID_1021_" fill="#F9DAC0"></path>
            <path d="M53.6044687,28.1412031 L25.0388906,28.1412031 C33.1392031,25.1744062 36.0248437,20.8916094 36.9465469,17.5158594 C38.7347187,18.0544219 40.264875,19.1856875 41.3115938,20.6820469 C41.9347031,21.5733437 43.0096406,22.0172969 44.0799844,21.8200937 C46.6489844,21.3457344 49.4005312,22.1017344 51.3882031,24.0894062 C52.5430937,25.2430937 53.2799531,26.6561094 53.6044687,28.1412031 Z" id="XMLID_1022_" fill="#F9C6A5"></path>
            <g id="XMLID_1023_" transform="translate(0.000000, 26.359375)">
                <path d="M52.4775781,16.0739688 L3.52242187,16.0739688 C2.90007812,16.0739688 2.39564062,15.5695312 2.39564062,14.9471875 L2.39564062,3.15098438 L53.6043594,3.15098438 L53.6043594,14.9471875 C53.6043594,15.5694219 53.0999219,16.0739688 52.4775781,16.0739688 Z" id="XMLID_1612_" fill="#439EF4"></path>
                <path d="M53.6044687,3.15120312 L53.6044687,14.9472969 C53.6044687,15.5693125 53.0997031,16.0740781 52.4776875,16.0740781 L48.5937812,16.0740781 C49.2157969,16.0740781 49.7205625,15.5693125 49.7205625,14.9472969 L49.7205625,3.15120312 L53.6044687,3.15120312 Z" id="XMLID_1027_" fill="#1680F6"></path>
                <path d="M53.6044687,10.8222187 L53.6044687,14.9472969 C53.6044687,15.5693125 53.0997031,16.0740781 52.4776875,16.0740781 L3.52220312,16.0740781 C2.9001875,16.0740781 2.39542187,15.5693125 2.39542187,14.9472969 L2.39542187,10.8222187 L53.6044687,10.8222187 Z" id="XMLID_1030_" fill="#1680F6"></path>
                <path d="M53.6044687,10.8222187 L53.6044687,14.9472969 C53.6044687,15.5693125 53.0997031,16.0740781 52.4776875,16.0740781 L48.5937812,16.0740781 C49.2157969,16.0740781 49.7205625,15.5693125 49.7205625,14.9472969 L49.7205625,10.8222187 L53.6044687,10.8222187 Z" id="XMLID_1033_" fill="#4C60DC"></path>
                <path d="M55.3239531,5.99615625 L0.676046875,5.99615625 C0.302640625,5.99615625 0,5.69351562 0,5.32010938 L0,0.7805 C0,0.40709375 0.302640625,0.104453125 0.676046875,0.104453125 L55.3239531,0.104453125 C55.6973594,0.104453125 56,0.40709375 56,0.7805 L56,5.32010938 C56,5.69340625 55.6973594,5.99615625 55.3239531,5.99615625 Z" id="XMLID_1588_" fill="#37D0F5"></path>
            </g>
            <g id="XMLID_1034_" transform="translate(37.843750, 21.218750)" fill="#F9DAC0">
                <path d="M0.933625,1.78303125 C0.466921875,1.78303125 0.083234375,1.40470313 0.083234375,0.938 C0.083234375,0.471296875 0.4563125,0.09296875 0.923125,0.09296875 L0.933625,0.09296875 C1.40032812,0.09296875 1.77865625,0.471296875 1.77865625,0.938 C1.77876562,1.40470313 1.40032812,1.78303125 0.933625,1.78303125 Z" id="XMLID_1035_"></path>
            </g>
            <g id="XMLID_1036_" transform="translate(19.796875, 16.953125)" fill="#F9C6A5">
                <path d="M0.85684375,1.7644375 C0.390140625,1.7644375 0.0065625,1.38610937 0.0065625,0.91940625 C0.0065625,0.452703125 0.379640625,0.074375 0.846453125,0.074375 L0.856953125,0.074375 C1.32365625,0.074375 1.70198438,0.452703125 1.70198438,0.91940625 C1.701875,1.38610937 1.32354688,1.7644375 0.85684375,1.7644375 Z" id="XMLID_1037_"></path>
            </g>
            <g id="XMLID_1038_" transform="translate(17.390625, 19.687500)" fill="#F9C6A5">
                <path d="M0.942046875,1.75 C0.47534375,1.75 0.091765625,1.37167187 0.091765625,0.90496875 C0.091765625,0.438265625 0.46484375,0.0599375 0.93165625,0.0599375 L0.94215625,0.0599375 C1.40885938,0.0599375 1.7871875,0.438265625 1.7871875,0.90496875 C1.7871875,1.37167187 1.40875,1.75 0.942046875,1.75 Z" id="XMLID_1039_"></path>
            </g>
            <path d="M32.6113594,12.8288125 L34.8240156,7.24904688 C35.1374844,6.45848438 34.7507344,5.56346875 33.9601719,5.24989063 C33.1696094,4.93642188 32.2745937,5.32317188 31.9610156,6.11373438 L29.7483594,11.6935 C29.514625,12.2828125 29.0013281,12.7328906 28.3758125,12.8361406 C27.7990781,12.9312969 27.2853437,13.3173906 27.054125,13.9004688 L24.8741719,19.3977656 L30.8807187,21.779625 L33.0606719,16.2823281 C33.2918906,15.6993594 33.1824062,15.0659687 32.8275937,14.6015625 C32.4430312,14.0976719 32.377625,13.418125 32.6113594,12.8288125 Z" id="XMLID_915_" fill="#5AC034"></path>
            <path d="M32.0592344,22.7398281 C31.5628906,19.8829531 29.0739531,17.7097812 26.0751094,17.7097812 C23.0762656,17.7097812 20.5873281,19.8829531 20.0909844,22.7398281 L32.0592344,22.7398281 Z" id="XMLID_1040_" fill="#F9DAC0"></path>
            <g id="XMLID_1041_" transform="translate(22.640625, 16.843750)" fill="#F9C6A5">
                <path d="M9.39290625,6.11460937 C8.9726875,6.17246875 8.58014062,5.90810937 8.46310937,5.50035937 C7.83048437,3.296125 5.78451562,1.7110625 3.43448437,1.7110625 C2.69204687,1.7110625 1.97542187,1.86309375 1.30429687,2.163 C0.8894375,2.34839062 0.38478125,2.18826562 0.18090625,1.78226562 C-0.035984375,1.35034375 0.151703125,0.829171875 0.587671875,0.632078125 C1.48498437,0.226515625 2.44289062,0.020890625 3.43459375,0.020890625 C6.54773437,0.020890625 9.25760937,2.12373437 10.0912656,5.04678125 C10.2319219,5.5405 9.90128125,6.0445 9.39290625,6.11460937 Z" id="XMLID_1042_"></path>
            </g>
        </g>
    </g>
</svg>