<?xml version="1.0" encoding="UTF-8"?>
<svg width="73px" height="73px" viewBox="0 0 73 73" version="1.1" xmlns="http://www.w3.org/2000/svg" xmlns:xlink="http://www.w3.org/1999/xlink">
    <!-- Generator: Sketch 51.3 (57544) - http://www.bohemiancoding.com/sketch -->
    <title>progressive-webapps/security/content-security-policy</title>
    <desc>Created with Sketch.</desc>
    <defs></defs>
    <g id="progressive-webapps/security/content-security-policy" stroke="none" stroke-width="1" fill="none" fill-rule="evenodd">
        <g id="container" transform="translate(2.000000, 2.000000)" fill="#FFFFFF" fill-rule="nonzero" stroke="#525F65" stroke-width="2">
            <rect id="mask" x="-1" y="-1" width="71" height="71" rx="14"></rect>
        </g>
        <g id="browser" transform="translate(13.000000, 13.000000)" fill-rule="nonzero">
            <path d="M39.2740021,44.2396393 L5.05779264,44.2396393 C2.269104,44.2396393 -2.84217094e-14,41.9705353 -2.84217094e-14,39.1811295 L-2.84217094e-14,5.05850985 C-2.84217094e-14,2.26946256 2.269104,-2.84217094e-14 5.05779264,-2.84217094e-14 L39.2740021,-2.84217094e-14 C42.0626908,-2.84217094e-14 44.3317948,2.26946256 44.3317948,5.05850985 L44.3317948,39.1811295 C44.3317948,41.9705353 42.0626908,44.2396393 39.2740021,44.2396393 Z" id="Shape" fill="#B6D2E0"></path>
            <path d="M39.2740021,-2.58126853e-14 L22.1660767,-2.84217094e-14 L22.1660767,44.2396393 L39.2740021,44.2396393 C42.0626908,44.2396393 44.3317948,41.9705353 44.3317948,39.1811295 L44.3317948,5.05850985 C44.3317948,2.269104 42.0626908,-2.84217094e-14 39.2740021,-2.84217094e-14 Z" id="Shape" fill="#AAC3CE"></path>
            <path d="M5.0581512,41.4803543 C3.79056551,41.4803543 2.759285,40.4487152 2.759285,39.1811295 L2.759285,5.05850985 C2.759285,3.79056551 3.79056551,2.759285 5.0581512,2.759285 L39.2740021,2.759285 C40.5412292,2.759285 41.5725098,3.79092407 41.5725098,5.05850985 L41.5725098,39.1811295 C41.5725098,40.4490738 40.5412292,41.4803543 39.2740021,41.4803543 L5.0581512,41.4803543 Z" id="Shape" fill="#D6F3FE"></path>
            <path d="M41.5725098,5.05850985 L41.5725098,39.1811295 C41.5725098,40.4494324 40.5415878,41.4803543 39.2740021,41.4803543 L22.1660767,41.4803543 L22.1660767,2.759285 L39.2740021,2.759285 C40.5415878,2.759285 41.5725098,3.79020686 41.5725098,5.05850985 Z" id="Shape" fill="#BDECFC"></path>
            <path d="M44.3317948,5.05850985 C44.3317948,2.26946256 42.0626908,0 39.2740021,0 L5.05779264,0 C2.269104,0 2.84217094e-14,2.26946256 2.84217094e-14,5.05850985 L2.84217094e-14,12.5084 L44.3317948,12.5084 L44.3317948,5.05850985 Z" id="Shape" fill="#B6D2E0"></path>
            <path d="M44.3317948,5.05850985 L44.3317948,12.5084 L22.1660767,12.5084 L22.1660767,0 L39.2740021,0 C42.0626908,0 44.3317948,2.269104 44.3317948,5.05850985 Z" id="Shape" fill="#AAC3CE"></path>
            <g id="Group" transform="translate(24.876953, 5.599609)" fill="#BDECFC">
                <path d="M13.8419647,1.39057927 C13.8419647,2.15220637 13.2244873,2.7700424 12.4625015,2.7700424 C11.7008744,2.7700424 11.0830383,2.15220637 11.0830383,1.39057927 C11.0830383,0.628593422 11.7008744,0.0107574922 12.4625015,0.0107574922 C13.2244873,0.0107574922 13.8419647,0.628593422 13.8419647,1.39057927 Z" id="Shape"></path>
                <path d="M8.32447054,1.39057927 C8.32447054,2.15220637 7.70663452,2.7700424 6.94500732,2.7700424 C6.18302157,2.7700424 5.56554411,2.15220637 5.56554411,1.39057927 C5.56554411,0.628593422 6.18302157,0.0107574922 6.94500732,0.0107574922 C7.70663452,0.0107574922 8.32447054,0.628593422 8.32447054,1.39057927 Z" id="Shape"></path>
                <path d="M2.80661776,1.39057927 C2.80661776,2.15220637 2.1891403,2.7700424 1.42715454,2.7700424 C0.665168785,2.7700424 0.0476913223,2.15220637 0.0476913223,1.39057927 C0.0476913223,0.628593422 0.665168785,0.0107574922 1.42715454,0.0107574922 C2.1891403,0.0107574922 2.80661776,0.628593422 2.80661776,1.39057927 Z" id="Shape"></path>
            </g>
            <path d="M20.694458,19.3146362 L6.89803312,19.3146362 C6.13604736,19.3146362 5.51856999,18.6968002 5.51856999,17.935173 C5.51856999,17.1731873 6.13604736,16.5553512 6.89803312,16.5553512 L20.694458,16.5553512 C21.4560852,16.5553512 22.0739212,17.1731873 22.0739212,17.935173 C22.0739212,18.6968002 21.4560852,19.3146362 20.694458,19.3146362 Z" id="Shape" fill="#DD5C60"></path>
            <path d="M15.175888,24.8332062 L6.89803312,24.8332062 C6.13604736,24.8332062 5.51856999,24.2153702 5.51856999,23.4533844 C5.51856999,22.6913986 6.13604736,22.0739212 6.89803312,22.0739212 L15.175888,22.0739212 C15.9375153,22.0739212 16.5553512,22.6913986 16.5553512,23.4533844 C16.5553512,24.2153702 15.9378739,24.8332062 15.175888,24.8332062 Z" id="Shape" fill="#EEBB2C"></path>
            <path d="M15.175888,30.3514176 L6.89803312,30.3514176 C6.13604736,30.3514176 5.51856999,29.7339401 5.51856999,28.9719543 C5.51856999,28.2099686 6.13604736,27.5921326 6.89803312,27.5921326 L15.175888,27.5921326 C15.9375153,27.5921326 16.5553512,28.2099686 16.5553512,28.9719543 C16.5553512,29.7339401 15.9378739,30.3514176 15.175888,30.3514176 Z" id="Shape" fill="#DD5C60"></path>
            <path d="M15.175888,35.8699875 L6.89803312,35.8699875 C6.13604736,35.8699875 5.51856999,35.2521515 5.51856999,34.4905242 C5.51856999,33.7285385 6.13604736,33.1107025 6.89803312,33.1107025 L15.175888,33.1107025 C15.9375153,33.1107025 16.5553512,33.7285385 16.5553512,34.4905242 C16.5553512,35.2521515 15.9378739,35.8699875 15.175888,35.8699875 Z" id="Shape" fill="#EEBB2C"></path>
            <path d="M45.7865601,39.9334335 L37.7722625,31.9191361 C36.8600311,34.6766281 34.6766281,36.8600311 31.9191361,37.7722625 L39.9334335,45.7865601 C41.5509949,47.4041214 44.1689987,47.40448 45.7865601,45.7865601 C47.4041214,44.1689987 47.40448,41.5509949 45.7865601,39.9334335 Z" id="Shape" fill="#EEBB2C"></path>
            <path d="M45.7869186,45.7865601 C44.1689987,47.40448 41.5506363,47.40448 39.9334335,45.7865601 L31.9187775,37.771904 C33.2975235,37.3157882 34.5328369,36.5423279 35.537941,35.537941 L45.7869186,45.7865601 Z" id="Shape" fill="#E79B34"></path>
            <path d="M29.0375748,38.6948929 C23.7126388,38.6948929 19.3802567,34.3625107 19.3802567,29.0375748 C19.3802567,23.7122803 23.7126388,19.3802567 29.0375748,19.3802567 C34.3628693,19.3802567 38.6948929,23.7122803 38.6948929,29.0375748 C38.6948929,34.3625107 34.3628693,38.6948929 29.0375748,38.6948929 Z" id="Shape" fill="#7280F8"></path>
            <path d="M22.2119751,22.2119751 C20.4635315,23.9611359 19.3798981,26.3743896 19.3798981,29.0372161 C19.3798981,34.3625107 23.7129974,38.6945343 29.0372161,38.6945343 C30.1739197,38.6945343 31.2668762,38.4965973 32.2802277,38.1333542 C33.640686,37.6478348 34.860939,36.8650513 35.8628158,35.8624573 L22.2119751,22.2119751 Z" id="Shape" fill="#434AF2"></path>
            <path d="M29.0375748,35.9356079 C25.2341003,35.9356079 22.1395417,32.8410491 22.1395417,29.0375748 C22.1395417,25.2337418 25.2341003,22.1395417 29.0375748,22.1395417 C32.8414078,22.1395417 35.9356079,25.2337418 35.9356079,29.0375748 C35.9356079,32.8410491 32.8414078,35.9356079 29.0375748,35.9356079 Z" id="Shape" fill="#D6F3FE"></path>
            <path d="M33.9128494,33.9128494 C32.6639099,35.1617889 30.9391326,35.9352494 29.0372161,35.9352494 C25.2341003,35.9352494 22.139183,32.8414078 22.139183,29.0372161 C22.139183,27.1360168 22.9126434,25.4105225 24.1619416,24.1615829 L33.9128494,33.9128494 Z" id="Shape" fill="#BDECFC"></path>
        </g>
    </g>
</svg>