<?xml version="1.0" encoding="UTF-8"?>
<svg width="73px" height="73px" viewBox="0 0 73 73" version="1.1" xmlns="http://www.w3.org/2000/svg" xmlns:xlink="http://www.w3.org/1999/xlink">
    <!-- Generator: Sketch 51.3 (57544) - http://www.bohemiancoding.com/sketch -->
    <title>progressive-webapps/security/cross-site-scripting</title>
    <desc>Created with Sketch.</desc>
    <defs></defs>
    <g id="progressive-webapps/security/cross-site-scripting" stroke="none" stroke-width="1" fill="none" fill-rule="evenodd">
        <g id="container" transform="translate(2.000000, 2.000000)" fill="#FFFFFF" fill-rule="nonzero" stroke="#2F2B2B" stroke-width="2">
            <rect id="mask" x="-1" y="-1" width="71" height="71" rx="14"></rect>
        </g>
        <g id="injection" transform="translate(14.000000, 14.000000)" fill-rule="nonzero">
            <path d="M43.4543609,8.96896362 L35.9778213,1.49242403 C35.6430816,1.15768433 35.6430816,0.614547773 35.9778213,0.279464766 L36.0063171,0.251312256 C36.3410568,-0.083770752 36.8841934,-0.083770752 37.2192764,0.251312256 L44.6954727,7.72750854 C45.0305557,8.06259155 45.0305557,8.60572811 44.6954727,8.94046781 L44.6673203,8.96896362 C44.3322373,9.30370333 43.7891006,9.30370333 43.4543609,8.96896362 Z" id="Shape" fill="#737373"></path>
            <path d="M0.717201211,45 C0.544853232,45 0.372505166,44.934082 0.241012617,44.8025894 C-0.0219726562,44.5399475 -0.0219726562,44.1135406 0.241012617,43.8505554 L9.39296725,34.6986008 C9.65595243,34.4356155 10.0823593,34.4356155 10.3453445,34.6986008 C10.6079864,34.961586 10.6079864,35.3879929 10.3453445,35.6506348 L1.19338989,44.8025894 C1.06189726,44.934082 0.889549277,45 0.717201211,45 Z" id="Shape" fill="#737373"></path>
            <path d="M14.212532,33.8128281 L12.3970413,35.6283188 C11.844635,36.1803818 10.9495926,36.1803818 10.3975296,35.6283188 L9.31846623,34.5489121 C8.76640324,33.9968491 8.76640324,33.1018066 9.31846623,32.5497437 L11.133957,30.7342529" id="Shape" fill="#D7E4EF"></path>
            <path d="M22.2040557,30.7799148 C20.1197434,32.8642273 17.2279358,33.9323044 14.289093,33.7029648 C12.6624298,33.5762787 11.370163,32.2840118 11.2434768,30.6573486 C11.0144805,27.7188492 12.0825577,24.8270416 14.1668701,22.7427292 L28.4830857,8.42651367 L36.5202713,16.463356 L22.2040557,30.7799148 Z" id="Shape" fill="#D7E4EF"></path>
            <path d="M34.7250366,14.6681213 L31.7861938,17.6069641 L30.1629639,19.2298508 L20.4084778,28.9843369 C18.3241653,31.0686493 15.4323578,32.1367264 12.4938584,31.9077301 C12.1385193,31.8799209 11.7993164,31.7968369 11.4844895,31.6667175 C11.9507217,32.7928162 13.0177688,33.6040879 14.289093,33.7029648 C17.2279358,33.9323044 20.1197434,32.863884 22.2040557,30.7799148 L31.9581985,21.0254287 L36.5202713,16.463356 L34.7250366,14.6681213 Z" id="Shape" fill="#C1CCD6"></path>
            <path d="M27.4884796,25.495491 C27.4884796,25.495491 24.9798203,25.6321335 23.2292175,21.7172241 C21.4789581,17.8026581 19.210968,17.6989746 19.210968,17.6989746 L14.1668701,22.7427292 C12.0825577,24.8270416 11.0144805,27.7188492 11.2434768,30.6576919 C11.3705063,32.2843552 12.6624298,33.576622 14.289093,33.7033081 C17.2279358,33.9323044 20.1197434,32.8642273 22.2040557,30.7799148 L27.4884796,25.495491 Z" id="Shape" fill="#5B9ED6"></path>
            <path d="M25.0302887,24.3628692 L20.4084778,28.9843369 C18.3241653,31.0686493 15.4323578,32.1367264 12.4938584,31.9077301 C12.1385193,31.8799209 11.7993164,31.7968369 11.4844895,31.6667175 C11.9507217,32.7928162 13.0177688,33.6040879 14.289093,33.7029648 C17.2279358,33.9323044 20.1197434,32.863884 22.2040557,30.7799148 L27.4884796,25.4951477 C27.4884796,25.495491 26.3253022,25.5583191 25.0302887,24.3628692 Z" id="Shape" fill="#4F8ABA"></path>
            <path d="M37.7387237,17.6821518 L27.2646332,7.20771785 C26.8523025,6.79538725 26.8523025,6.12693791 27.2646332,5.71495061 L27.2993088,5.68027494 C27.7116394,5.26794434 28.3800888,5.26794434 28.7924194,5.68027494 L39.26651,16.1543655 C39.6788406,16.5666962 39.6788406,17.2351455 39.26651,17.6471329 L39.2318344,17.6821518 C38.8195038,18.0941391 38.1510544,18.0941391 37.7387237,17.6821518 Z" id="Shape" fill="#B1BAC4"></path>
            <path d="M38.1579209,15.0454331 L36.6301346,16.5732193 L37.7215576,17.6646423 C38.1435013,18.086586 38.8274002,18.086586 39.2493438,17.6646423 C39.6712876,17.2426987 39.6712876,16.5587998 39.2493438,16.136856 L38.1579209,15.0454331 Z" id="Shape" fill="#8F969E"></path>
            <polygon id="Shape" fill="#BDBDBD" points="31.1860657 8.07392118 36.8725205 2.38746639 42.5589752 8.07392118 36.8725205 13.760376"></polygon>
            <path d="M36.8728638,2.38746639 L35.9077835,3.35220337 L38.8929749,6.33739474 C39.5119858,6.95674898 39.5119858,7.96028133 38.8929749,8.57929228 L35.2925491,12.1800613 L31.186409,8.07392118 L36.8728638,13.760376 L42.5593186,8.07392118 L36.8728638,2.38746639 Z" id="Shape" fill="#A1A1A1"></path>
            <g id="Group" transform="translate(13.183594, 10.546875)" fill="#737373">
                <path d="M14.5239258,3.38893893 C14.3515777,3.38893893 14.179573,3.32302096 14.0480805,3.19152832 L12.0664215,1.20986938 C11.8034363,0.9472275 11.8034363,0.520820596 12.0664215,0.25783541 C12.3294067,-0.00514986328 12.7554703,-0.00514986328 13.0184555,0.25783541 L15.0001145,2.23949435 C15.2630996,2.50247953 15.2630996,2.92888644 15.0001145,3.19152832 C14.8686218,3.32302096 14.6962738,3.38893893 14.5239258,3.38893893 Z" id="Shape"></path>
                <path d="M12.1574021,5.75511935 C11.9853974,5.75511935 11.8130493,5.68954468 11.6815567,5.55805204 L9.69989774,3.57639311 C9.43691256,3.31340792 9.43691256,2.88700102 9.69989774,2.62435913 C9.96288302,2.36137395 10.3892898,2.36137395 10.6519317,2.62435913 L12.6335907,4.60601807 C12.8965759,4.86900334 12.8965759,5.29506686 12.6335907,5.55805204 C12.5020981,5.68954468 12.3300933,5.75511935 12.1574021,5.75511935 Z" id="Shape"></path>
                <path d="M11.5734101,9.9038315 C11.4014053,9.9038315 11.2290573,9.83825684 11.0975647,9.7067642 L7.33337402,5.94291691 C7.07073214,5.67993164 7.07073214,5.25352482 7.33337402,4.99053955 C7.5963593,4.72789767 8.02276611,4.72789767 8.28575139,4.99053955 L12.0495987,8.75473022 C12.3125839,9.01771541 12.3125839,9.44377901 12.0495987,9.7067642 C11.918106,9.83825684 11.7457581,9.9038315 11.5734101,9.9038315 Z" id="Shape"></path>
                <path d="M7.42469783,10.4881668 C7.25234985,10.4881668 7.08000187,10.4222488 6.94850924,10.2907563 L4.9671936,8.30944063 C4.70420842,8.04645536 4.70420842,7.62004854 4.9671936,7.35706327 C5.22983549,7.09407809 5.65624239,7.09407809 5.91922758,7.35706327 L7.90088651,9.33872221 C8.1635284,9.60170748 8.1635284,10.0281143 7.90088651,10.2907563 C7.76939396,10.4222488 7.5970459,10.4881668 7.42469783,10.4881668 Z" id="Shape"></path>
                <path d="M5.0585175,12.8543472 C4.88616943,12.8543472 4.71382137,12.7887725 4.58232882,12.65728 L2.60066988,10.6756211 C2.33768461,10.4126358 2.33768461,9.98622896 2.60066988,9.72358699 C2.86365507,9.46060181 3.29006197,9.46060181 3.55270386,9.72358699 L5.53436279,11.705246 C5.79734807,11.9678879 5.79734807,12.3942947 5.53436279,12.65728 C5.40287016,12.7887725 5.23052218,12.8543472 5.0585175,12.8543472 Z" id="Shape"></path>
                <path d="M4.47418213,17.0034028 C4.30183406,17.0034028 4.12948608,16.9374848 3.99799345,16.8059921 L0.234146074,13.0421448 C-0.0288391113,12.7791596 -0.0288391113,12.3527527 0.234146074,12.0901108 C0.497131348,11.8271255 0.923538164,11.8271255 1.18652344,12.0901108 L4.95037081,15.8539581 C5.213356,16.1169434 5.213356,16.5433502 4.95037081,16.8059921 C4.81887817,16.9374848 4.6465302,17.0034028 4.47418213,17.0034028 Z" id="Shape"></path>
            </g>
        </g>
    </g>
</svg>