<?xml version="1.0" encoding="UTF-8"?>
<svg width="73px" height="73px" viewBox="0 0 73 73" version="1.1" xmlns="http://www.w3.org/2000/svg" xmlns:xlink="http://www.w3.org/1999/xlink">
    <!-- Generator: Sketch 51.3 (57544) - http://www.bohemiancoding.com/sketch -->
    <title>progressive-webapps/security/https</title>
    <desc>Created with Sketch.</desc>
    <defs></defs>
    <g id="progressive-webapps/security/https" stroke="none" stroke-width="1" fill="none" fill-rule="evenodd">
        <g id="container" transform="translate(2.000000, 2.000000)" fill="#FFFFFF" fill-rule="nonzero" stroke="#04673E" stroke-width="2">
            <rect id="mask" x="-1" y="-1" width="71" height="71" rx="14"></rect>
        </g>
        <g id="shield" transform="translate(17.000000, 13.000000)" fill-rule="nonzero">
            <path d="M37.190789,30.7536379 C35.95297,34.108363 34.0809575,37.0253015 31.6260491,39.4225877 C28.8317332,42.1512005 25.1727357,44.3194042 20.7505981,45.8660632 C20.6054891,45.9166581 20.4540556,45.9581179 20.3019195,45.9886856 C20.1009451,46.0283886 19.8964573,46.0498212 19.6937262,46.052632 L19.6540232,46.052632 C19.4379407,46.052632 19.2208041,46.030848 19.0054243,45.9886856 C18.8532882,45.9581179 18.7039628,45.9166581 18.5595565,45.8671173 C14.1321485,44.3229177 10.4685835,42.1557681 7.67145662,39.4271553 C5.21549431,37.029869 3.34383313,34.1146874 2.10777086,30.7599623 C-0.139838817,24.6604621 -0.0119459808,17.9411739 0.0910006305,12.5415703 L0.0927573765,12.4586508 C0.113487267,12.012783 0.126838663,11.5444285 0.134217158,11.0272358 C0.171811936,8.4880027 2.19069033,6.38725891 4.73027487,6.24566335 C10.0251751,5.95017491 14.1212565,4.22327146 17.6210907,0.811978421 L17.6516585,0.783870125 C18.2327975,0.250866496 18.9650186,-0.0105406559 19.6937262,0.000351353699 C20.3964336,0.00948657236 21.0963302,0.270542303 21.6567393,0.783870125 L21.6866044,0.811978421 C25.1871413,4.22327146 29.2832227,5.95017491 34.578123,6.24566335 C37.1177074,6.38725891 39.1365858,8.4880027 39.1741807,11.0272358 C39.1815591,11.547942 39.1949105,12.0155938 39.2156404,12.4586508 L39.2166945,12.4937862 C39.3192897,17.9035791 39.4464798,24.6362187 37.190789,30.7536379 Z" id="Shape" fill="#00DD80"></path>
            <path d="M37.190789,30.7536379 C35.95297,34.108363 34.0809575,37.0253015 31.6260491,39.4225877 C28.8317332,42.1512005 25.1727357,44.3194042 20.7505981,45.8660632 C20.6054891,45.9166581 20.4540556,45.9581179 20.3019195,45.9886856 C20.1009451,46.0283886 19.8964573,46.0498212 19.6937262,46.052632 L19.6937262,0.000351353699 C20.3964336,0.00948657236 21.0963302,0.270542303 21.6567393,0.783870125 L21.6866044,0.811978421 C25.1871413,4.22327146 29.2832227,5.95017491 34.578123,6.24566335 C37.1177074,6.38725891 39.1365858,8.4880027 39.1741807,11.0272358 C39.1815591,11.547942 39.1949105,12.0155938 39.2156404,12.4586508 L39.2166945,12.4937862 C39.3192897,17.9035791 39.4464798,24.6362187 37.190789,30.7536379 Z" id="Shape" fill="#00AA63"></path>
            <path d="M31.1306404,23.026316 C31.1306404,29.341196 26.0033359,34.4815007 19.6937262,34.5039873 L19.6533205,34.5039873 C13.325089,34.5039873 8.1756492,29.3548988 8.1756492,23.026316 C8.1756492,16.6980845 13.325089,11.5489961 19.6533205,11.5489961 L19.6937262,11.5489961 C26.0033359,11.5714828 31.1306404,16.7117873 31.1306404,23.026316 Z" id="Shape" fill="#FFFFFF"></path>
            <path d="M31.1306404,23.026316 C31.1306404,29.341196 26.0033359,34.4815007 19.6937262,34.5039873 L19.6937262,11.5489961 C26.0033359,11.5714828 31.1306404,16.7117873 31.1306404,23.026316 Z" id="Shape" fill="#E1EBF0"></path>
            <path d="M24.8628418,21.3735482 L19.6937262,26.5433665 L18.5767728,27.6603199 C18.3129061,27.9241866 17.9668227,28.0559442 17.6210907,28.0559442 C17.2750073,28.0559442 16.9292753,27.9241866 16.6650573,27.6603199 L14.2635548,25.2577634 C13.7358215,24.7300301 13.7358215,23.8751865 14.2635548,23.3471019 C14.7905853,22.8193687 15.6464829,22.8193687 16.1742161,23.3471019 L17.6210907,24.7939765 L22.9521804,19.4628868 C23.4799137,18.9348022 24.3358113,18.9348022 24.8628418,19.4628868 C25.390575,19.9906201 25.390575,20.8465177 24.8628418,21.3735482 Z" id="Shape" fill="#B4D2D7"></path>
            <path d="M24.8628418,21.3735482 L19.6937262,26.5433665 L19.6937262,22.7209897 L22.9521804,19.4628868 C23.4799137,18.9348022 24.3358113,18.9348022 24.8628418,19.4628868 C25.390575,19.9906201 25.390575,20.8465177 24.8628418,21.3735482 Z" id="Shape" fill="#6FA5AA"></path>
        </g>
    </g>
</svg>