<?xml version="1.0" encoding="UTF-8"?>
<svg width="73px" height="73px" viewBox="0 0 73 73" version="1.1" xmlns="http://www.w3.org/2000/svg" xmlns:xlink="http://www.w3.org/1999/xlink">
    <!-- Generator: Sketch 51.3 (57544) - http://www.bohemiancoding.com/sketch -->
    <title>progressive-webapps/security/owasp</title>
    <desc>Created with Sketch.</desc>
    <defs></defs>
    <g id="progressive-webapps/security/owasp" stroke="none" stroke-width="1" fill="none" fill-rule="evenodd">
        <g id="container" transform="translate(2.000000, 2.000000)" fill="#FFFFFF" fill-rule="nonzero" stroke="#000000" stroke-width="2">
            <rect id="mask" x="-1" y="-1" width="71" height="71" rx="14"></rect>
        </g>
        <g id="wasp" transform="translate(36.562991, 36.614206) rotate(-330.000000) translate(-36.562991, -36.614206) translate(12.776442, 12.687736)" fill-rule="nonzero">
            <g id="Group" transform="translate(3.171540, 0.000000)" fill="#805333">
                <path d="M19.7910621,10.7047868 C19.4032015,10.7047868 19.0581566,10.4305419 18.9832523,10.0361516 C18.5674074,7.85898267 16.7641071,1.64696203 14.0278144,1.64696203 C13.5724186,1.64696203 13.2043334,1.27803731 13.2043334,0.823481016 C13.2043334,0.368924719 13.5724186,0 14.0278144,0 C18.6168461,0 20.4110982,8.73180912 20.6005511,9.72729954 C20.6861827,10.1736471 20.3922555,10.6050699 19.9459079,10.6898619 C19.8939506,10.6998429 19.8420866,10.7047868 19.7910621,10.7047868" id="Shape"></path>
                <path d="M21.4396099,10.7047868 C21.3885855,10.7047868 21.3358819,10.6998429 21.2840179,10.6899552 C20.8376703,10.6043236 20.5445827,10.1728076 20.6302143,9.72655329 C20.8211597,8.73096959 22.6269785,0 27.2028577,0 C27.6582535,0 28.0263387,0.368924719 28.0263387,0.823481016 C28.0263387,1.27803731 27.6582535,1.64696203 27.2028577,1.64696203 C24.4715088,1.64696203 22.6648505,7.8598222 22.2474198,10.0361516 C22.1724222,10.4305419 21.8266311,10.7047868 21.4396099,10.7047868" id="Shape"></path>
                <path d="M17.3207124,17.2922618 C17.1370429,17.2922618 16.9534667,17.2313496 16.8003,17.106167 L7.74247522,9.69521102 C7.66421281,9.63094069 7.59835672,9.55435733 7.54901129,9.46630046 L4.25527378,3.70221319 C4.02878852,3.30782287 4.16637739,2.80466739 4.56160723,2.57902165 C4.9552513,2.35253639 5.45915303,2.49012525 5.68479877,2.88535509 L8.90279243,8.51689065 L17.8428971,15.8314878 C18.1953112,16.1197248 18.2471752,16.6384582 17.9590314,16.9900327 C17.7958837,17.1893733 17.5595107,17.2922618 17.3207124,17.2922618" id="Shape"></path>
                <path d="M23.9099597,17.2922618 C23.6711614,17.2922618 23.4347884,17.1893733 23.2718272,16.9900327 C22.9835902,16.6384582 23.0354542,16.1196316 23.3879616,15.8314878 L32.3280662,8.51689065 L35.5460599,2.88535509 C35.7708661,2.49012525 36.2740216,2.35262967 36.6692514,2.57902165 C37.0644813,2.80466739 37.2019769,3.30772959 36.9755849,3.70221319 L33.6818474,9.46630046 C33.6324087,9.55445061 33.5665526,9.63103397 33.4883834,9.69521102 L24.4305587,17.106167 C24.2772054,17.2313496 24.0935359,17.2922618 23.9099597,17.2922618" id="Shape"></path>
                <path d="M6.61676511,47.7600333 C6.52040626,47.7600333 6.42330117,47.7427764 6.32778185,47.7073298 C5.90204925,47.5475401 5.68629126,47.0733016 5.84524138,46.6467295 L7.36618134,42.5912627 C7.99032174,40.9295624 8.96612995,39.4366999 10.266368,38.1537187 L10.449198,37.9717283 C11.9964431,36.4186998 13.0035003,34.4803292 13.3592724,32.3665911 C13.6021751,30.9239136 14.2305131,28.7640016 15.8460396,26.6708785 C16.1235493,26.311002 16.6381783,26.2427206 17.0013197,26.5218161 C17.3611962,26.7993259 17.4278918,27.3164734 17.150382,27.6762567 C15.7431511,29.500172 15.1955008,31.3817347 14.9839404,32.6399965 C14.5706141,35.0922498 13.4054463,37.3377001 11.6144591,39.1344708 L11.4209951,39.3279347 C10.2936993,40.440399 9.44801746,41.7331746 8.90866911,43.1693225 L7.38856868,47.2256288 C7.26403909,47.5558421 6.94949696,47.7600333 6.61676511,47.7600333" id="Shape"></path>
                <path d="M0.851931594,34.58499 C0.493734143,34.58499 0.164360393,34.348617 0.0606323811,33.9871547 C-0.0637106404,33.5499486 0.189079748,33.0945528 0.627125382,32.9693703 L6.24466885,31.3644778 L16.0041502,24.0449367 C16.368131,23.7699456 16.8844391,23.8456894 17.157005,24.2088307 C17.4304104,24.5728116 17.3562523,25.0891196 16.9922714,25.3616855 L7.11096565,32.7726415 C7.03027795,32.8335537 6.94054202,32.8788881 6.84250413,32.9060327 L1.07832358,34.5529015 C1.00341927,34.5742627 0.92767543,34.58499 0.851931594,34.58499" id="Shape"></path>
                <path d="M34.6138137,47.7600333 C34.2811751,47.7600333 33.966633,47.5558421 33.84229,47.2256288 L32.32135,43.1693225 C31.7836807,41.7348537 30.9379989,40.4412385 29.8081845,39.3263489 L29.6130415,39.1320455 C27.825319,37.3377934 26.6601512,35.0922498 26.246825,32.6399965 C26.0343318,31.3817347 25.4867747,29.4994257 24.0803833,27.6762567 C23.8028736,27.3163802 23.8695692,26.7993259 24.2302852,26.5218161 C24.5901618,26.2443064 25.107216,26.311002 25.3847258,26.6708785 C26.9986665,28.7632553 27.6277508,30.9231673 27.8714929,32.3658449 C28.2272651,34.4804225 29.2343223,36.4187931 30.7824069,37.9726611 L30.9627183,38.1521329 C32.2662212,39.4392184 33.2411899,40.9320809 33.8637445,42.591356 L35.3854307,46.6468228 C35.5443808,47.0733949 35.3286228,47.5476334 34.9037298,47.707423 C34.8073709,47.7427764 34.7101726,47.7600333 34.6138137,47.7600333" id="Shape"></path>
                <path d="M40.3787405,34.58499 C40.3029967,34.58499 40.2272528,34.5742627 40.1522552,34.5529015 L34.388168,32.9060327 C34.2901301,32.8788881 34.2003942,32.8335537 34.1197064,32.7726415 L24.2384007,25.3616855 C23.8744198,25.0891196 23.800355,24.5728116 24.0736671,24.2088307 C24.3470725,23.8456894 24.8625411,23.7716246 25.2265219,24.0449367 L34.9860032,31.3644778 L40.6035467,32.9693703 C41.0415923,33.0945528 41.2943827,33.5498553 41.1700397,33.9871547 C41.0663117,34.3487103 40.736938,34.58499 40.3787405,34.58499" id="Shape"></path>
            </g>
            <g id="Group" transform="translate(19.588923, 13.152563)" fill="#F0C419">
                <path d="M8.31512474,16.647693 L8.31512474,11.6897365 C8.31512474,10.7032943 7.51552356,9.90369313 6.52908136,9.90369313 L1.86673109,9.90369313 C0.880288893,9.90369313 0.0806877071,10.7032943 0.0806877071,11.6897365 L0.0806877071,16.647693 C0.0806877071,20.8027834 1.53819687,24.8269079 4.19790622,28.0194359 C6.85770886,24.8270012 8.31512474,20.8027834 8.31512474,16.647693" id="Shape"></path>
                <path d="M6.66825599,0.0224806213 L1.72764974,0.0224806213 L0.904168723,3.31621812 L0.904168723,6.60995562 C0.904168723,8.42892706 2.37893479,9.90369313 4.19790622,9.90369313 C6.01687766,9.90369313 7.49164373,8.42892706 7.49164373,6.60995562 L7.49164373,3.31621812 L6.66825599,0.0224806213 Z" id="Shape"></path>
            </g>
            <path d="M26.2571791,13.1750433 L21.3165729,13.1750433 C20.4074603,13.1750433 19.6697041,12.4371938 19.6697041,11.5281745 C19.6697041,10.6191552 20.4075535,9.88130578 21.3165729,9.88130578 L26.2571791,9.88130578 C27.1662917,9.88130578 27.9040479,10.6191552 27.9040479,11.5281745 C27.9040479,12.4371938 27.1662917,13.1750433 26.2571791,13.1750433" id="Shape" fill="#95A5A5"></path>
            <g id="Group" transform="translate(0.000000, 13.992088)" fill="#DBCB95">
                <path d="M6.49456754,0.00643636045 C6.49456754,0.00643636045 3.18758419,0.245234661 1.09604689,2.35981227 C-0.0764900807,3.54643461 -0.341686788,5.44273565 0.640651067,6.79157293 C1.21619228,7.58203261 2.23323052,8.24087339 4.02421777,8.24087339 L7.31795527,8.24087339 C7.31795527,8.24087339 8.23854138,8.47062348 8.95493628,9.07172358 C10.5820295,10.4337134 12.8736537,10.7910713 14.8235911,9.95695634 C16.44658,9.26360174 19.0264412,7.18605652 20.4929986,4.94713589 L19.4349169,4.59472184 C17.4223882,3.9236613 15.5177852,2.98488548 13.695549,1.89956586 C12.1895339,1.0027663 9.77767105,0.00643636045 6.49456754,0.00643636045" id="Shape"></path>
                <path d="M41.0791844,0.00643636045 C41.0791844,0.00643636045 44.3861678,0.245234661 46.4768656,2.35981227 C47.650242,3.54643461 47.9154388,5.44273565 46.9322614,6.79157293 C46.3566269,7.58203261 45.3405214,8.24087339 43.5495342,8.24087339 L40.2557967,8.24087339 C40.2557967,8.24087339 39.3352106,8.47062348 38.6179762,9.07172358 C36.9916291,10.4337134 34.700005,10.7910713 32.7493214,9.95695634 C31.127172,9.26360174 28.5473108,7.18605652 27.0807534,4.94713589 L28.1380888,4.59472184 C30.1513637,3.9236613 32.05606,2.98488548 33.8782963,1.89956586 C35.3833785,1.0027663 37.7952414,0.00643636045 41.0791844,0.00643636045" id="Shape"></path>
            </g>
            <g id="Group" transform="translate(19.588923, 26.305125)" fill="#000000">
                <polygon id="Shape" points="0.0806877071 1.69192327 8.31512474 1.69192327 8.31512474 0.0450545232 0.0806877071 0.0450545232"></polygon>
                <path d="M0.248779324,5.80914179 L8.14721969,5.80914179 C8.21885918,5.26401004 8.26493979,4.71477395 8.28639432,4.16227304 L0.109604689,4.16227304 C0.130219698,4.71477395 0.177139833,5.26401004 0.248779324,5.80914179" id="Shape"></path>
                <path d="M0.754639943,8.30962119 C0.908646191,8.85801775 1.09390144,9.39578033 1.29977169,9.92608047 L7.09594748,9.92608047 C7.30181773,9.39578033 7.48707298,8.85811103 7.64107922,8.30962119 C7.59089427,8.29973344 7.54472038,8.27911843 7.49201685,8.27911843 L0.904448565,8.27911843 C0.850998789,8.27911843 0.805664424,8.29973344 0.754639943,8.30962119" id="Shape"></path>
            </g>
        </g>
    </g>
</svg>