<?xml version="1.0" encoding="UTF-8"?>
<svg width="73px" height="73px" viewBox="0 0 73 73" version="1.1" xmlns="http://www.w3.org/2000/svg" xmlns:xlink="http://www.w3.org/1999/xlink">
    <!-- Generator: Sketch 51.3 (57544) - http://www.bohemiancoding.com/sketch -->
    <title>team-collaboration/version-control/bitbucket</title>
    <desc>Created with Sketch.</desc>
    <defs></defs>
    <g id="team-collaboration/version-control/bitbucket" stroke="none" stroke-width="1" fill="none" fill-rule="evenodd">
        <g id="container" transform="translate(2.000000, 2.000000)" fill-rule="nonzero">
            <rect id="mask" stroke="#000000" stroke-width="2" fill="#000000" x="-1" y="-1" width="71" height="71" rx="14"></rect>
            <g id="bitbucket-logotype-camera-lens-in-perspective" transform="translate(14.000000, 11.000000)" fill="#FFFFFF">
                <path d="M34.7539846,32.7791907 C30.4755321,35.605701 25.6278636,37.0196085 20.2128859,37.0196085 C14.7978079,37.0196085 9.96017493,35.605701 5.70068955,32.7791907 L5.18486269,33.0367027 L5.01285351,33.4952266 C5.62411836,37.2389855 6.16844615,40.0276618 6.64603759,41.8615568 C7.02829138,42.5298235 7.52484999,43.1178059 8.1362152,43.6239986 C8.74737969,44.1294889 9.44434808,44.5454621 10.2275218,44.8703126 C11.0106954,45.1947616 11.7414836,45.4524743 12.4194848,45.6433504 C13.0975864,45.8346278 13.8758426,46.0060348 14.754655,46.1595786 C16.7220227,46.4844291 18.6462375,46.6609543 20.5277008,46.6894552 C22.4097664,46.7182572 24.3384971,46.5077116 26.3155992,46.0593236 C28.2927013,45.6107348 30.1026113,44.9277159 31.7449277,44.0110695 C32.4325631,43.6285146 32.9864246,43.0886025 33.4071145,42.3921359 C33.8268009,41.6949668 34.0991655,41.0259976 34.2231044,40.3865328 C34.3474448,39.7466667 34.4814193,38.9441244 34.6246265,37.9794078 C34.7685361,37.0150925 34.916159,36.2846055 35.0694017,35.7879465 C35.0694017,35.6159373 35.1463743,35.2621844 35.2984128,34.7277918 C35.4506519,34.1930982 35.4986218,33.7631756 35.4417203,33.4385258 C35.3845177,33.1130732 35.1551052,32.8935959 34.7539846,32.7791907 Z" id="Shape"></path>
                <path d="M39.940453,5.24437346 C38.7939927,3.7930334 36.7403194,2.62790699 33.7799349,1.74909459 C28.1064417,0.0871085032 21.6498751,-0.390482933 14.4109377,0.31652099 C10.8203212,0.660137943 7.83113472,1.27120209 5.4432779,2.15011484 C4.87004775,2.36015873 4.41182491,2.53668391 4.06780653,2.67999145 C3.72388851,2.82319863 3.28483356,3.03805958 2.74973847,3.32467466 C2.21484409,3.61118938 1.78482112,3.8977041 1.46007098,4.18421882 C1.13552156,4.47053283 0.834856726,4.82870131 0.55767506,5.25852357 C0.280493395,5.68834583 0.113602334,6.15138573 0.0562993898,6.6480447 C0.2278068,8.02351606 0.437850691,9.53235978 0.686531418,11.175178 C0.935212145,12.8177955 1.15940615,14.2265848 1.35991628,15.401245 C1.56032605,16.5758048 1.82767288,18.1181672 2.16205714,20.0284326 C2.49654174,21.9387984 2.74933704,23.3715727 2.92134623,24.3263541 C2.95958165,24.4984637 3.01196717,24.8322458 3.07880388,25.3292058 C3.14574095,25.8260655 3.20294354,26.2035022 3.25081307,26.4611146 C3.29858225,26.7193291 3.38448649,27.0442799 3.50852578,27.4357664 C3.63266544,27.8279554 3.79514086,28.1617375 3.99565099,28.4389192 C4.19636182,28.7156994 4.43972371,28.9694983 4.72633879,29.1978069 C7.51521587,31.3373844 11.2781426,32.6647855 16.0151191,33.1807127 C22.8531366,33.9060817 28.6798726,33.0663075 33.4931191,30.6591825 C34.1232508,30.3350345 34.6432926,30.0388856 35.0540473,29.7714384 C35.464802,29.5034895 35.880976,29.1215367 36.3006623,28.6249781 C36.7207501,28.1284195 36.9786635,27.5937259 37.0741015,27.0208971 C38.6978522,17.6988823 39.7577058,11.4432273 40.2542644,8.25332997 C40.3689706,7.8140743 40.4211554,7.29824745 40.4129263,6.70605013 C40.404095,6.11375245 40.2454331,5.62622582 39.940453,5.24437346 Z M25.1546878,26.4751644 C23.9890596,27.9269058 22.5373181,28.728846 20.7990619,28.8822894 C19.0421396,29.0350304 17.4618428,28.5003367 16.0578705,27.277807 C14.6538982,26.055478 13.9136766,24.5749345 13.8374065,22.836578 C13.7800032,21.5185099 14.1095704,20.2817297 14.8260077,19.1261371 C15.5424451,17.9705444 16.5021439,17.1254514 17.7055058,16.5905571 C19.5774354,15.7499801 21.458397,15.8741197 23.3493941,16.962976 C25.2402909,18.051732 26.3201152,19.6180793 26.5872614,21.6620181 C26.7976063,23.4193419 26.320617,25.0235232 25.1546878,26.4751644 Z M31.2863035,7.46513851 C30.4074911,7.79932206 29.715139,8.00464924 29.2096488,8.08091936 C28.7033557,8.15728983 27.8489297,8.27189572 26.6455679,8.42533916 C22.4425826,8.95973176 18.1639293,8.95029835 13.8092066,8.39653715 C12.6631478,8.26276338 11.8273878,8.15267348 11.3021276,8.06646818 C10.777068,7.98076465 10.0750819,7.77072076 9.19626948,7.43623615 C8.31745708,7.1018519 7.59158634,6.667614 7.01875761,6.13251891 C7.36267563,5.63606066 7.84026707,5.22530593 8.45153192,4.90065615 C9.06259606,4.57610673 9.58805703,4.36606284 10.0273127,4.27042412 C10.4665684,4.17478541 11.0971015,4.06027988 11.9183099,3.9265061 C17.1713139,2.99049111 22.5768581,2.97142359 28.1353441,3.86930351 C29.0715598,4.02214482 29.749561,4.14146741 30.1698495,4.227472 C30.5901379,4.31327589 31.1437988,4.5237212 31.8313338,4.85770403 C32.5189691,5.19188757 33.0543652,5.61699313 33.4358162,6.13251891 C32.8818543,6.68658118 32.1652162,7.13125604 31.2863035,7.46513851 Z" id="Shape"></path>
                <path d="M22.6191078,20.3294989 C22.0940482,19.7658025 21.4823819,19.4268019 20.7854136,19.3120957 C20.0884452,19.1975901 19.3963942,19.3120957 18.7085582,19.6560137 C17.9826874,19.9807638 17.4861288,20.534525 17.2183806,21.3176987 C16.9511341,22.1008724 16.9556501,22.8841464 17.2328317,23.6677215 C17.5100134,24.4507949 18.0207221,25.0046564 18.7657608,25.3293062 C19.7780459,25.9409725 20.8423151,25.8832681 21.9604752,25.1574977 C23.077732,24.4321288 23.5601405,23.4671111 23.4069982,22.2637492 C23.4068978,21.5378785 23.1438662,20.8931953 22.6191078,20.3294989 Z" id="Shape"></path>
            </g>
        </g>
    </g>
</svg>