<?xml version="1.0" encoding="UTF-8"?>
<svg width="73px" height="73px" viewBox="0 0 73 73" version="1.1" xmlns="http://www.w3.org/2000/svg" xmlns:xlink="http://www.w3.org/1999/xlink">
    <!-- Generator: Sketch 51.3 (57544) - http://www.bohemiancoding.com/sketch -->
    <title>databases-and-servers/servers/architectural-models</title>
    <desc>Created with Sketch.</desc>
    <defs></defs>
    <g id="databases-and-servers/servers/architectural-models" stroke="none" stroke-width="1" fill="none" fill-rule="evenodd">
        <g id="container" transform="translate(2.000000, 2.000000)" fill="#FFFFFF" fill-rule="nonzero" stroke="#2C3C40" stroke-width="2">
            <rect id="mask" x="-1" y="-1" width="71" height="71" rx="14"></rect>
        </g>
        <g id="sketch-(1)" transform="translate(14.000000, 14.000000)" fill-rule="nonzero">
            <path d="M41.1534211,9.16289474 L0.00305803169,9.16289474 C0.00305803169,9.16289474 0.0384210526,33.6733333 0.00324561404,35.0295614 C0.00298245614,35.0412281 0.00298245614,35.0528947 0.00333333333,35.0644737 C0.0386842105,36.3694737 0.573333333,37.590614 1.50868421,38.5030702 C2.44622807,39.4174561 3.68377193,39.9211404 4.99368421,39.9211404 L26.7289474,39.9211404 C26.9037719,39.9211404 27.0714912,39.8516667 27.1950877,39.7281579 L41.6196491,25.3035965 C41.7432456,25.1799123 41.8126316,25.0123684 41.8126316,24.8374561 L41.8126316,9.82201754 C41.8126316,9.45789474 41.5174561,9.16289474 41.1534211,9.16289474 Z" id="Shape" fill="#E0E0E2"></path>
            <g id="Group" transform="translate(11.842105, 9.122807)" fill="#C6C5CA">
                <polygon id="Shape" points="0.0842105263 17.2764912 2.77789474 17.2764912 4.93780702 10.4985088 15.3963158 0.0400877193 12.9353509 0.0400877193 2.47684211 10.4985088"></polygon>
                <path d="M29.3113158,0.0400877193 L27.1140351,0.0400877193 L27.1140351,18.8442105 L29.7774561,16.1807895 C29.9010526,16.0571053 29.9704386,15.8895614 29.9704386,15.7146491 L29.9704386,0.699210526 C29.9705263,0.335087719 29.6753509,0.0400877193 29.3113158,0.0400877193 Z" id="Shape"></path>
            </g>
            <path d="M30.035614,26.9392982 L11.78,26.9392982 C11.4159649,26.9392982 11.1207895,26.6442105 11.1207895,26.2800877 C11.1207895,25.9159649 11.4159649,25.6208772 11.78,25.6208772 L30.035614,25.6208772 C30.3997368,25.6208772 30.6948246,25.9159649 30.6948246,26.2800877 C30.6948246,26.6442105 30.3996491,26.9392982 30.035614,26.9392982 Z" id="Shape" fill="#3C5156"></path>
            <path d="M5.00947368,29.8042105 C5.29377193,29.8042105 5.5722807,29.8288596 5.84385965,29.8739474 L5.84385965,2.64140351 C5.84385965,2.2772807 5.54868421,1.98219298 5.18464912,1.98219298 C2.32587719,1.98219298 0,4.30798246 0,7.16684211 L0,34.1662281 C0.339561404,31.7022807 2.4522807,29.8042105 5.00947368,29.8042105 Z" id="Shape" fill="#919191"></path>
            <path d="M35.7852632,8.53385965 L31.8264035,4.57491228 C31.7027193,4.45131579 31.5350877,4.38192982 31.3602632,4.38192982 C31.1854386,4.38192982 31.017807,4.45140351 30.8941228,4.57491228 L16.3137719,19.1551754 C16.305,19.1639474 16.297193,19.1733333 16.2889474,19.1826316 L21.2512281,23.9999123 L35.7851754,9.46614035 C36.0427193,9.20859649 36.0427193,8.79131579 35.7852632,8.53385965 Z" id="Shape" fill="#FFD039"></path>
            <path d="M19.4402632,22.2419298 L21.2512281,24 L35.7851754,9.46622807 C36.0426316,9.20868421 36.0426316,8.79140351 35.7851754,8.53394737 L34.4659649,7.21473684 L19.4402632,22.2419298 Z" id="Shape" fill="#FFA304"></path>
            <path d="M16.2907018,19.1842982 C16.2323684,19.2484211 16.1858772,19.3238596 16.1560526,19.4082456 L13.9983333,25.5207895 C13.9138596,25.7601754 13.9742982,26.0267544 14.1537719,26.2063158 C14.2795614,26.3321053 14.4480702,26.3992982 14.6199123,26.3992982 C14.6935088,26.3992982 14.7675439,26.3870175 14.8392982,26.3616667 L20.9517544,24.2039474 C21.069386,24.1624561 21.1697368,24.0884211 21.2454386,23.9942105 L16.2907018,19.1842982 Z" id="Shape" fill="#FFC89F"></path>
            <path d="M14.62,26.3992982 C14.6935965,26.3992982 14.7676316,26.3870175 14.839386,26.3616667 L20.9518421,24.2039474 C21.0694737,24.1624561 21.1698246,24.0884211 21.2455263,23.9942105 L19.4382456,22.2397368 L14.5374561,23.9936842 L13.9984211,25.520614 C13.9139474,25.76 13.974386,26.0265789 14.1538596,26.2061404 C14.2796491,26.3320175 14.4480702,26.3992982 14.62,26.3992982 Z" id="Shape" fill="#F7B081"></path>
            <path d="M14.62,26.3992982 C14.6935965,26.3992982 14.7676316,26.3870175 14.839386,26.3616667 L18.6941228,25.0009649 L15.3528947,21.6836842 L13.9985088,25.520614 C13.9140351,25.76 13.9744737,26.0265789 14.1539474,26.2061404 C14.2796491,26.3320175 14.4480702,26.3992982 14.62,26.3992982 Z" id="Shape" fill="#3C5156"></path>
            <path d="M16.8470175,23.167193 L14.5374561,23.9937719 L13.9984211,25.5207018 C13.9139474,25.7600877 13.974386,26.0266667 14.1538596,26.2062281 C14.2796491,26.3320175 14.4481579,26.3992105 14.62,26.3992105 C14.6935965,26.3992105 14.7676316,26.3869298 14.839386,26.3615789 L18.6941228,25.0008772 L16.8470175,23.167193 Z" id="Shape" fill="#304144"></path>
            <path d="M37.9271053,6.39192982 L33.9681579,2.43307018 C33.710614,2.17570175 33.2933333,2.17570175 33.0358772,2.43307018 L30.4297368,5.03921053 L35.3189474,9.93245614 L37.9271053,7.32429825 C38.0507018,7.20061404 38.1200877,7.03307018 38.1200877,6.85815789 C38.1200877,6.68333333 38.050614,6.51570175 37.9271053,6.39192982 Z" id="Shape" fill="#FF6137"></path>
            <path d="M33.5342105,8.14631579 L34.1535965,8.76614035 L35.319386,9.93192982 L37.9271053,7.32421053 C38.0507018,7.20052632 38.1200877,7.03298246 38.1200877,6.85807018 C38.1200877,6.68324561 38.050614,6.51561404 37.9271053,6.39192982 L36.6078947,5.0727193 L33.5342105,8.14631579 Z" id="Shape" fill="#E04F32"></path>
            <path d="M39.6994737,2.70921053 L37.6507895,0.660614035 C37.2712281,0.281052632 36.7663158,0.0720175439 36.2294737,0.0720175439 C35.6926316,0.0720175439 35.187807,0.281052632 34.8081579,0.660614035 L33.5028947,1.96587719 L33.0357018,2.43307018 L32.5607018,2.90807018 L37.4609649,7.79026316 L38.1607895,7.09035088 L39.699386,5.55175439 C40.0789474,5.17219298 40.2879825,4.6672807 40.2879825,4.1304386 C40.2879825,3.59359649 40.0790351,3.08885965 39.6994737,2.70921053 Z" id="Shape" fill="#546F7A"></path>
            <g id="Group" transform="translate(32.543860, 1.052632)" fill="#475D63">
                <polygon id="Shape" points="0.025 1.84745614 0.0169298246 1.85552632 1.47894737 3.31201754"></polygon>
                <path d="M7.15561404,1.65657895 L5.53894737,0.0399122807 C5.80333333,0.391315789 5.94842105,0.817017544 5.94842105,1.26614035 C5.94842105,1.80894737 5.73938596,2.31929825 5.35982456,2.70324561 L3.82122807,4.25894737 L3.13052632,4.95754386 L4.91736842,6.73780702 L5.61719298,6.03789474 L7.15578947,4.49929825 C7.53535088,4.11973684 7.74438596,3.61482456 7.74438596,3.07798246 C7.74438596,2.54114035 7.53517544,2.03622807 7.15561404,1.65657895 Z" id="Shape"></path>
            </g>
            <path d="M44.5053509,21.1287719 C44.2590351,21.0266667 43.9755263,21.0830702 43.7869298,21.2715789 L21.3435965,43.7149123 C21.1550877,43.9035088 21.0986842,44.1870175 21.2007018,44.4333333 C21.3027193,44.6796491 21.5431579,44.8402632 21.8097368,44.8402632 L44.2531579,44.8402632 C44.617193,44.8402632 44.9123684,44.5451754 44.9123684,44.1810526 L44.9123684,21.737807 C44.9122807,21.4712281 44.7515789,21.2307018 44.5053509,21.1287719 Z M32.2835088,39.5079825 L39.4875439,32.3039474 L39.4875439,39.5079825 L32.2835088,39.5079825 Z" id="Shape" fill="#FFCA10"></path>
            <path d="M44.5053509,21.1287719 C44.2590351,21.0266667 43.9755263,21.0830702 43.7869298,21.2715789 L42.0557018,23.002807 L42.0557018,44.8403509 L44.2529825,44.8403509 C44.6170175,44.8403509 44.912193,44.5452632 44.912193,44.1811404 L44.912193,21.737807 C44.9122807,21.4712281 44.7515789,21.2307018 44.5053509,21.1287719 Z" id="Shape" fill="#FFA304"></path>
            <g id="Group" transform="translate(41.666667, 29.122807)" fill="#C96E14">
                <path d="M3.24561404,0.0221929825 L0.711052632,0.0221929825 C0.346929825,0.0221929825 0.0518421053,0.317280702 0.0518421053,0.681403509 C0.0518421053,1.04552632 0.346929825,1.34061404 0.711052632,1.34061404 L3.24561404,1.34061404 L3.24561404,0.0221929825 Z" id="Shape"></path>
                <path d="M3.24561404,3.32710526 L0.711052632,3.32710526 C0.346929825,3.32710526 0.0518421053,3.62219298 0.0518421053,3.98631579 C0.0518421053,4.3504386 0.346929825,4.64552632 0.711052632,4.64552632 L3.24561404,4.64552632 L3.24561404,3.32710526 Z" id="Shape"></path>
                <path d="M3.24561404,6.63175439 L0.711052632,6.63175439 C0.346929825,6.63175439 0.0518421053,6.92684211 0.0518421053,7.29096491 C0.0518421053,7.65508772 0.346929825,7.95017544 0.711052632,7.95017544 L3.24561404,7.95017544 L3.24561404,6.63175439 Z" id="Shape"></path>
                <path d="M3.24561404,9.93666667 L0.711052632,9.93666667 C0.346929825,9.93666667 0.0518421053,10.2318421 0.0518421053,10.5958772 C0.0518421053,10.96 0.346929825,11.2550877 0.711052632,11.2550877 L3.24561404,11.2550877 L3.24561404,9.93666667 Z" id="Shape"></path>
            </g>
        </g>
    </g>
</svg>