<?xml version="1.0" encoding="UTF-8"?>
<svg width="73px" height="73px" viewBox="0 0 73 73" version="1.1" xmlns="http://www.w3.org/2000/svg" xmlns:xlink="http://www.w3.org/1999/xlink">
    <!-- Generator: Sketch 51.3 (57544) - http://www.bohemiancoding.com/sketch -->
    <title>databases-and-servers/servers/client-many-servers</title>
    <desc>Created with Sketch.</desc>
    <defs></defs>
    <g id="databases-and-servers/servers/client-many-servers" stroke="none" stroke-width="1" fill="none" fill-rule="evenodd">
        <g id="container" transform="translate(2.000000, 2.000000)" fill="#FFFFFF" fill-rule="nonzero" stroke="#383845" stroke-width="2">
            <rect id="mask" x="-1" y="-1" width="71" height="71" rx="14"></rect>
        </g>
        <g id="client-server" transform="translate(16.000000, 12.000000)" fill-rule="nonzero">
            <g id="Group-2" transform="translate(5.906250, 0.336371)">
                <path d="M15.7427552,5.8866734 L0.00524213269,5.8866734 L0.00524213269,2.23975754 C0.00524213269,1.00292015 1.00779681,0 2.24499967,0 L13.5029976,0 C14.739835,0 15.7427552,1.00292015 15.7427552,2.23975754 L15.7427552,5.8866734 Z" id="Shape" fill="#707384"></path>
                <polygon id="Shape" fill="#5B5C6C" points="0.00524213269 5.88703897 15.7427552 5.88703897 15.7427552 11.7737124 0.00524213269 11.7737124"></polygon>
                <path d="M13.5029976,17.6603859 L2.24499967,17.6603859 C1.00816228,17.6603859 0.00524213269,16.6574657 0.00524213269,15.4206283 L0.00524213269,11.7737124 L15.7427552,11.7737124 L15.7427552,15.4206283 C15.7427552,16.6574657 14.739835,17.6603859 13.5029976,17.6603859 Z" id="Shape" fill="#707384"></path>
                <path d="M15.7427552,2.23902659 L15.7427552,5.88703897 L12.6777084,5.88703897 L12.6777084,2.23902659 C12.6777084,1.00255468 11.6747883,0.000365495682 10.4379509,0.000365495682 L13.5029976,0.000365495682 C14.739835,0.000365495682 15.7427552,1.00255468 15.7427552,2.23902659 Z" id="Shape" fill="#5B5C6C"></path>
                <polygon id="Shape" fill="#3B3B47" points="12.6777084 5.88703897 15.7427552 5.88703897 15.7427552 11.7733469 12.6777084 11.7733469"></polygon>
                <path d="M15.7427552,11.7733469 L15.7427552,15.4213593 C15.7427552,16.6578312 14.739835,17.6603859 13.5029976,17.6603859 L10.4379509,17.6603859 C11.6747883,17.6603859 12.6777084,16.6578312 12.6777084,15.4213593 L12.6777084,11.7733469 L15.7427552,11.7733469 Z" id="Shape" fill="#5B5C6C"></path>
                <path d="M3.56553555,2.9433367 C3.56553555,3.36402225 3.2245281,3.7050297 2.80420802,3.7050297 C2.38352246,3.7050297 2.04251502,3.36402225 2.04251502,2.9433367 C2.04251502,2.52301671 2.38352246,2.18200917 2.80420802,2.18200917 C3.2245281,2.18200917 3.56553555,2.52301671 3.56553555,2.9433367 Z" id="Shape" fill="#FFB96A"></path>
                <path d="M6.3323379,2.9433367 C6.3323379,3.36402225 5.99133036,3.7050297 5.57101037,3.7050297 C5.15032482,3.7050297 4.80931737,3.36402225 4.80931737,2.9433367 C4.80931737,2.52301671 5.15032482,2.18200917 5.57101037,2.18200917 C5.99133036,2.18200917 6.3323379,2.52301671 6.3323379,2.9433367 Z" id="Shape" fill="#A7D16C"></path>
                <path d="M3.56553555,8.83037567 C3.56553555,9.25069575 3.2245281,9.5917032 2.80420802,9.5917032 C2.38352246,9.5917032 2.04251502,9.25069575 2.04251502,8.83037567 C2.04251502,8.40969012 2.38352246,8.06868267 2.80420802,8.06868267 C3.2245281,8.06868267 3.56553555,8.40969012 3.56553555,8.83037567 Z" id="Shape" fill="#FFB96A"></path>
                <path d="M6.3323379,8.83037567 C6.3323379,9.25069575 5.99133036,9.5917032 5.57101037,9.5917032 C5.15032482,9.5917032 4.80931737,9.25069575 4.80931737,8.83037567 C4.80931737,8.40969012 5.15032482,8.06868267 5.57101037,8.06868267 C5.99133036,8.06868267 6.3323379,8.40969012 6.3323379,8.83037567 Z" id="Shape" fill="#A7D16C"></path>
                <path d="M3.56553555,14.7170491 C3.56553555,15.1373692 3.2245281,15.4783766 2.80420802,15.4783766 C2.38352246,15.4783766 2.04251502,15.1373692 2.04251502,14.7170491 C2.04251502,14.2963636 2.38352246,13.9557216 2.80420802,13.9557216 C3.2245281,13.9557216 3.56553555,14.2963636 3.56553555,14.7170491 Z" id="Shape" fill="#FFB96A"></path>
                <path d="M6.3323379,14.7170491 C6.3323379,15.1373692 5.99133036,15.4783766 5.57101037,15.4783766 C5.15032482,15.4783766 4.80931737,15.1373692 4.80931737,14.7170491 C4.80931737,14.2963636 5.15032482,13.9557216 5.57101037,13.9557216 C5.99133036,13.9557216 6.3323379,14.2963636 6.3323379,14.7170491 Z" id="Shape" fill="#A7D16C"></path>
                <path d="M11.0885332,3.66299777 L13.1013179,3.66299777 C13.4989772,3.66299777 13.8213444,3.340996 13.8213444,2.94370227 C13.8213444,2.54640844 13.4989772,2.2240412 13.1013179,2.2240412 L11.0885332,2.2240412 C10.6908739,2.2240412 10.3688721,2.54640844 10.3688721,2.94370227 C10.3688721,3.340996 10.6908739,3.66299777 11.0885332,3.66299777 Z" id="Shape" fill="#D7DEED"></path>
                <path d="M13.1013179,8.1107147 L11.0885332,8.1107147 C10.6908739,8.1107147 10.3688721,8.43271637 10.3688721,8.83037567 C10.3688721,9.2276695 10.6908739,9.54967117 11.0885332,9.54967117 L13.1013179,9.54967117 C13.4989772,9.54967117 13.8213444,9.2276695 13.8213444,8.83037567 C13.8213444,8.43271637 13.4989772,8.1107147 13.1013179,8.1107147 Z" id="Shape" fill="#D7DEED"></path>
                <path d="M13.1013179,13.9973881 L11.0885332,13.9973881 C10.6908739,13.9973881 10.3688721,14.3197553 10.3688721,14.7170491 C10.3688721,15.1143429 10.6908739,15.4363446 11.0885332,15.4363446 L13.1013179,15.4363446 C13.4989772,15.4363446 13.8213444,15.1143429 13.8213444,14.7170491 C13.8213444,14.3197553 13.4989772,13.9973881 13.1013179,13.9973881 Z" id="Shape" fill="#D7DEED"></path>
            </g>
            <g id="Group-2" transform="translate(24.281250, 0.336371)">
                <path d="M15.7427552,5.8866734 L0.00524213269,5.8866734 L0.00524213269,2.23975754 C0.00524213269,1.00292015 1.00779681,0 2.24499967,0 L13.5029976,0 C14.739835,0 15.7427552,1.00292015 15.7427552,2.23975754 L15.7427552,5.8866734 Z" id="Shape" fill="#707384"></path>
                <polygon id="Shape" fill="#5B5C6C" points="0.00524213269 5.88703897 15.7427552 5.88703897 15.7427552 11.7737124 0.00524213269 11.7737124"></polygon>
                <path d="M13.5029976,17.6603859 L2.24499967,17.6603859 C1.00816228,17.6603859 0.00524213269,16.6574657 0.00524213269,15.4206283 L0.00524213269,11.7737124 L15.7427552,11.7737124 L15.7427552,15.4206283 C15.7427552,16.6574657 14.739835,17.6603859 13.5029976,17.6603859 Z" id="Shape" fill="#707384"></path>
                <path d="M15.7427552,2.23902659 L15.7427552,5.88703897 L12.6777084,5.88703897 L12.6777084,2.23902659 C12.6777084,1.00255468 11.6747883,0.000365495682 10.4379509,0.000365495682 L13.5029976,0.000365495682 C14.739835,0.000365495682 15.7427552,1.00255468 15.7427552,2.23902659 Z" id="Shape" fill="#5B5C6C"></path>
                <polygon id="Shape" fill="#3B3B47" points="12.6777084 5.88703897 15.7427552 5.88703897 15.7427552 11.7733469 12.6777084 11.7733469"></polygon>
                <path d="M15.7427552,11.7733469 L15.7427552,15.4213593 C15.7427552,16.6578312 14.739835,17.6603859 13.5029976,17.6603859 L10.4379509,17.6603859 C11.6747883,17.6603859 12.6777084,16.6578312 12.6777084,15.4213593 L12.6777084,11.7733469 L15.7427552,11.7733469 Z" id="Shape" fill="#5B5C6C"></path>
                <path d="M3.56553555,2.9433367 C3.56553555,3.36402225 3.2245281,3.7050297 2.80420802,3.7050297 C2.38352246,3.7050297 2.04251502,3.36402225 2.04251502,2.9433367 C2.04251502,2.52301671 2.38352246,2.18200917 2.80420802,2.18200917 C3.2245281,2.18200917 3.56553555,2.52301671 3.56553555,2.9433367 Z" id="Shape" fill="#FFB96A"></path>
                <path d="M6.3323379,2.9433367 C6.3323379,3.36402225 5.99133036,3.7050297 5.57101037,3.7050297 C5.15032482,3.7050297 4.80931737,3.36402225 4.80931737,2.9433367 C4.80931737,2.52301671 5.15032482,2.18200917 5.57101037,2.18200917 C5.99133036,2.18200917 6.3323379,2.52301671 6.3323379,2.9433367 Z" id="Shape" fill="#A7D16C"></path>
                <path d="M3.56553555,8.83037567 C3.56553555,9.25069575 3.2245281,9.5917032 2.80420802,9.5917032 C2.38352246,9.5917032 2.04251502,9.25069575 2.04251502,8.83037567 C2.04251502,8.40969012 2.38352246,8.06868267 2.80420802,8.06868267 C3.2245281,8.06868267 3.56553555,8.40969012 3.56553555,8.83037567 Z" id="Shape" fill="#FFB96A"></path>
                <path d="M6.3323379,8.83037567 C6.3323379,9.25069575 5.99133036,9.5917032 5.57101037,9.5917032 C5.15032482,9.5917032 4.80931737,9.25069575 4.80931737,8.83037567 C4.80931737,8.40969012 5.15032482,8.06868267 5.57101037,8.06868267 C5.99133036,8.06868267 6.3323379,8.40969012 6.3323379,8.83037567 Z" id="Shape" fill="#A7D16C"></path>
                <path d="M3.56553555,14.7170491 C3.56553555,15.1373692 3.2245281,15.4783766 2.80420802,15.4783766 C2.38352246,15.4783766 2.04251502,15.1373692 2.04251502,14.7170491 C2.04251502,14.2963636 2.38352246,13.9557216 2.80420802,13.9557216 C3.2245281,13.9557216 3.56553555,14.2963636 3.56553555,14.7170491 Z" id="Shape" fill="#FFB96A"></path>
                <path d="M6.3323379,14.7170491 C6.3323379,15.1373692 5.99133036,15.4783766 5.57101037,15.4783766 C5.15032482,15.4783766 4.80931737,15.1373692 4.80931737,14.7170491 C4.80931737,14.2963636 5.15032482,13.9557216 5.57101037,13.9557216 C5.99133036,13.9557216 6.3323379,14.2963636 6.3323379,14.7170491 Z" id="Shape" fill="#A7D16C"></path>
                <path d="M11.0885332,3.66299777 L13.1013179,3.66299777 C13.4989772,3.66299777 13.8213444,3.340996 13.8213444,2.94370227 C13.8213444,2.54640844 13.4989772,2.2240412 13.1013179,2.2240412 L11.0885332,2.2240412 C10.6908739,2.2240412 10.3688721,2.54640844 10.3688721,2.94370227 C10.3688721,3.340996 10.6908739,3.66299777 11.0885332,3.66299777 Z" id="Shape" fill="#D7DEED"></path>
                <path d="M13.1013179,8.1107147 L11.0885332,8.1107147 C10.6908739,8.1107147 10.3688721,8.43271637 10.3688721,8.83037567 C10.3688721,9.2276695 10.6908739,9.54967117 11.0885332,9.54967117 L13.1013179,9.54967117 C13.4989772,9.54967117 13.8213444,9.2276695 13.8213444,8.83037567 C13.8213444,8.43271637 13.4989772,8.1107147 13.1013179,8.1107147 Z" id="Shape" fill="#D7DEED"></path>
                <path d="M13.1013179,13.9973881 L11.0885332,13.9973881 C10.6908739,13.9973881 10.3688721,14.3197553 10.3688721,14.7170491 C10.3688721,15.1143429 10.6908739,15.4363446 11.0885332,15.4363446 L13.1013179,15.4363446 C13.4989772,15.4363446 13.8213444,15.1143429 13.8213444,14.7170491 C13.8213444,14.3197553 13.4989772,13.9973881 13.1013179,13.9973881 Z" id="Shape" fill="#D7DEED"></path>
            </g>
            <path d="M18.7883055,43.3900051 L0.0467834473,43.3900051 L0.0467834473,32.5446518 C0.0467834473,31.6111758 0.803359555,30.8545997 1.73647001,30.8545997 L17.098619,30.8545997 C18.0317295,30.8545997 18.7883055,31.6111758 18.7883055,32.5446518 L18.7883055,43.3900051 Z" id="Shape" fill="#54A1FF"></path>
            <path d="M17.0982535,30.8545997 L14.4754565,30.8545997 C15.4089325,30.8545997 16.1655085,31.6111758 16.1655085,32.5442863 L16.1655085,42.4543362 L18.7883055,42.4543362 L18.7883055,32.5442863 C18.7883055,31.6111758 18.0317295,30.8545997 17.0982535,30.8545997 Z" id="Shape" fill="#4A7FDD"></path>
            <polygon id="Shape" fill="#C7CFE2" points="7.28579097 44.8103214 11.5492981 44.8103214 11.5492981 47.4689369 7.28579097 47.4689369"></polygon>
            <path d="M0.0467834473,42.4543362 L18.7883055,42.4543362 L18.7883055,44.7719443 C18.7883055,45.0000136 18.6037302,45.184589 18.3756609,45.184589 L0.459428049,45.184589 C0.231724215,45.184589 0.0467834473,45.0000136 0.0467834473,44.7719443 L0.0467834473,42.4543362 Z" id="Shape" fill="#5B5C6C"></path>
            <path d="M16.1673359,42.4543362 L16.1673359,44.7719443 C16.1673359,45.0000136 15.9827606,45.184589 15.7546913,45.184589 L18.3756609,45.184589 C18.6037302,45.184589 18.7883055,45.0000136 18.7883055,44.7719443 L18.7883055,42.4543362 L16.1673359,42.4543362 Z" id="Shape" fill="#464655"></path>
            <path d="M12.4688852,48.5625 L6.36620374,48.5625 C5.96854444,48.5625 5.64654276,48.2404983 5.64654276,47.8432045 C5.64654276,47.4455452 5.96854444,47.1235435 6.36620374,47.1235435 L12.4688852,47.1235435 C12.8665445,47.1235435 13.1885462,47.4455452 13.1885462,47.8432045 C13.1885462,48.2404983 12.8665445,48.5625 12.4688852,48.5625 Z" id="Shape" fill="#707487"></path>
            <g id="Group" transform="translate(3.929810, 39.299377)" fill="#FFFFFF">
                <path d="M3.853421,0.769002914 C3.853421,1.16629674 3.53105376,1.48866389 3.13339446,1.48866389 C2.73610072,1.48866389 2.41373348,1.16629674 2.41373348,0.769002914 C2.41373348,0.371343613 2.73610072,0.0493419404 3.13339446,0.0493419404 C3.53105376,0.0493419404 3.853421,0.371343613 3.853421,0.769002914 Z" id="Shape"></path>
                <path d="M6.18491788,0.769002914 C6.18491788,1.16629674 5.86255074,1.48866389 5.46525691,1.48866389 C5.0675976,1.48866389 4.74523046,1.16629674 4.74523046,0.769002914 C4.74523046,0.371343613 5.0675976,0.0493419404 5.46525691,0.0493419404 C5.86255074,0.0493419404 6.18491788,0.371343613 6.18491788,0.769002914 Z" id="Shape"></path>
                <path d="M8.51056693,0.769002914 C8.51056693,1.16629674 8.18819978,1.48866389 7.79090595,1.48866389 C7.39324665,1.48866389 7.07124498,1.16629674 7.07124498,0.769002914 C7.07124498,0.371343613 7.39324665,0.0493419404 7.79090595,0.0493419404 C8.18819978,0.0493419404 8.51056693,0.371343613 8.51056693,0.769002914 Z" id="Shape"></path>
                <path d="M10.9414787,0.769002914 C10.9414787,1.16629674 10.6191116,1.48866389 10.2218178,1.48866389 C9.82415845,1.48866389 9.50215678,1.16629674 9.50215678,0.769002914 C9.50215678,0.371343613 9.82415845,0.0493419404 10.2218178,0.0493419404 C10.6191116,0.0493419404 10.9414787,0.371343613 10.9414787,0.769002914 Z" id="Shape"></path>
                <path d="M1.47331312,0.769002914 C1.47331312,1.16629674 1.15131144,1.48866389 0.753652143,1.48866389 C0.356358313,1.48866389 0.033991075,1.16629674 0.033991075,0.769002914 C0.033991075,0.371343613 0.356358313,0.0493419404 0.753652143,0.0493419404 C1.15131144,0.0493419404 1.47331312,0.371343613 1.47331312,0.769002914 Z" id="Shape"></path>
            </g>
            <path d="M40.3953137,47.8432045 L33.6723862,47.8432045 C32.8317461,47.8432045 32.1500967,47.1615551 32.1500967,46.320915 L32.1500967,32.3768892 C32.1500967,31.5362492 32.8317461,30.8545997 33.6723862,30.8545997 L40.3953137,30.8545997 C41.2359539,30.8545997 41.9176033,31.5362492 41.9176033,32.3768892 L41.9176033,46.320915 C41.9176033,47.1615551 41.2363193,47.8432045 40.3953137,47.8432045 Z" id="Shape" fill="#5B5C6C"></path>
            <path d="M41.9179688,32.3765238 L41.9179688,46.3212805 C41.9179688,47.1615551 41.2363193,47.842839 40.3949482,47.842839 L38.5236103,47.842839 C39.3653469,47.842839 40.0466309,47.1615551 40.0466309,46.3212805 L40.0466309,32.3765238 C40.0466309,31.5362492 39.3653469,30.8549652 38.5236103,30.8549652 L40.3949482,30.8549652 C41.2366848,30.8549652 41.9179688,31.5362492 41.9179688,32.3765238 Z" id="Shape" fill="#464655"></path>
            <path d="M40.3953137,45.8581974 L33.6723862,45.8581974 C32.8317461,45.8581974 32.1500967,45.176548 32.1500967,44.3359079 L32.1500967,34.3618963 C32.1500967,33.5212562 32.8317461,32.8396068 33.6723862,32.8396068 L40.3953137,32.8396068 C41.2359539,32.8396068 41.9176033,33.5212562 41.9176033,34.3618963 L41.9176033,44.3359079 C41.9176033,45.176548 41.2363193,45.8581974 40.3953137,45.8581974 Z" id="Shape" fill="#FFD764"></path>
            <path d="M41.9179687,34.3611653 L41.9179687,44.3359079 C41.9179687,45.1769135 41.2355883,45.8581974 40.3949482,45.8581974 L40.0466309,45.8581974 L40.0466309,32.8399723 L40.3949482,32.8399723 C41.2355883,32.8399723 41.9179687,33.5208908 41.9179687,34.3611653 Z" id="Shape" fill="#FFB442"></path>
            <path d="M23.6874096,23.7314544 L22.2477222,23.7314544 L11.1534662,23.7314544 C9.6914835,23.7314544 8.50179503,24.9207773 8.50179503,26.3823946 L8.50179503,28.0684261 C8.50179503,28.46572 8.8237968,28.7877216 9.2214561,28.7877216 C9.6191154,28.7877216 9.94111707,28.46572 9.94111707,28.0684261 L9.94111707,26.3823946 C9.94111707,25.7142685 10.4849746,25.1704109 11.1534662,25.1704109 L34.7816656,25.1704109 C35.4501572,25.1704109 35.9940147,25.7142685 35.9940147,26.3823946 L35.9940147,28.0684261 C35.9940147,28.46572 36.3163819,28.7877216 36.7136757,28.7877216 C37.111335,28.7877216 37.4337023,28.46572 37.4337023,28.0684261 L37.4337023,26.3823946 C37.4337023,24.9207773 36.2440138,23.7314544 34.7816656,23.7314544 L23.6874096,23.7314544 Z" id="Shape" fill="#E4EAF7"></path>
            <rect id="Rectangle" fill="#E4EAF7" x="13.125" y="20.34375" width="1.3125" height="3.9375" rx="0.65625"></rect>
            <rect id="Rectangle" fill="#E4EAF7" x="31.5" y="20.34375" width="1.3125" height="3.9375" rx="0.65625"></rect>
        </g>
    </g>
</svg>