<?xml version="1.0" encoding="UTF-8"?>
<svg width="73px" height="73px" viewBox="0 0 73 73" version="1.1" xmlns="http://www.w3.org/2000/svg" xmlns:xlink="http://www.w3.org/1999/xlink">
    <!-- Generator: Sketch 51.3 (57544) - http://www.bohemiancoding.com/sketch -->
    <title>databases-and-servers/servers/client-server</title>
    <desc>Created with Sketch.</desc>
    <defs></defs>
    <g id="databases-and-servers/servers/client-server" stroke="none" stroke-width="1" fill="none" fill-rule="evenodd">
        <g id="container" transform="translate(2.000000, 2.000000)" fill="#FFFFFF" fill-rule="nonzero" stroke="#585555" stroke-width="2">
            <rect id="mask" x="-1" y="-1" width="71" height="71" rx="14"></rect>
        </g>
        <g id="server-(3)" transform="translate(11.000000, 11.000000)" fill-rule="nonzero">
            <rect id="Rectangle-path" fill="#E6E6E6" x="33.4137931" y="0" width="17.5862069" height="24.6206897"></rect>
            <rect id="Rectangle-path" fill="#B3B3B3" x="33.4137931" y="17.5862069" width="17.5862069" height="7.03448276"></rect>
            <rect id="Rectangle-path" fill="#E6E6E6" x="4.39655172" y="33.4137931" width="17.5862069" height="12.3103448"></rect>
            <rect id="Rectangle-path" fill="#B3B3B3" x="11.4310345" y="45.7241379" width="3.51724138" height="3.51724138"></rect>
            <rect id="Rectangle-path" fill="#E6E6E6" x="8.79310345" y="48.362069" width="8.79310345" height="1.75862069"></rect>
            <circle id="Oval" fill="#FFE9CC" cx="4.39655172" cy="41.3275862" r="2.63793103"></circle>
            <path d="M0,51 L0,48.362069 C0,45.9339205 1.96840326,43.9655172 4.39655172,43.9655172 C6.82470019,43.9655172 8.79310345,45.9339205 8.79310345,48.362069 L8.79310345,51 L0,51 Z" id="Shape" fill="#83BEB9"></path>
            <path d="M47.4827586,4.39655172 C47.3678528,4.39516242 47.2543334,4.37126362 47.1486207,4.3262069 C47.0421017,4.28160023 46.9439706,4.2191532 46.8584483,4.14155172 C46.7810364,4.05588487 46.718611,3.95778779 46.6737931,3.85137931 C46.5800543,3.63848221 46.5800543,3.39600055 46.6737931,3.18310345 C46.7162841,3.07549229 46.7789614,2.97699933 46.8584483,2.89293103 C47.2110691,2.56757002 47.7544481,2.56757002 48.107069,2.89293103 C48.1865558,2.97699933 48.2492332,3.07549229 48.2917241,3.18310345 C48.3855716,3.39597765 48.3855716,3.63850511 48.2917241,3.85137931 C48.2469062,3.95778779 48.1844808,4.05588487 48.107069,4.14155172 C48.0215466,4.2191532 47.9234156,4.28160023 47.8168966,4.3262069 C47.7111838,4.37126362 47.5976645,4.39516242 47.4827586,4.39655172 Z" id="Shape" fill="#6CBBC7"></path>
            <rect id="Rectangle-path" fill="#6CBBC7" x="36.0517241" y="2.63793103" width="3.51724138" height="1.75862069"></rect>
            <path d="M47.4827586,7.9137931 C47.3678528,7.9124038 47.2543334,7.88850499 47.1486207,7.84344828 C47.0421017,7.79884161 46.9439706,7.73639458 46.8584483,7.6587931 C46.6067286,7.4071114 46.5335988,7.02753287 46.6737931,6.70034483 C46.7537433,6.47943546 46.9277113,6.30546748 47.1486207,6.22551724 C47.4760733,6.08782012 47.8542139,6.16067289 48.107069,6.41017241 C48.2677486,6.57867799 48.35883,6.80167041 48.362069,7.03448276 C48.364444,7.26841039 48.2725656,7.49344903 48.1071452,7.65886937 C47.9417249,7.82428971 47.7166862,7.91616819 47.4827586,7.9137931 Z" id="Shape" fill="#6CBBC7"></path>
            <rect id="Rectangle-path" fill="#6CBBC7" x="36.0517241" y="6.15517241" width="3.51724138" height="1.75862069"></rect>
            <path d="M47.4827586,11.4310345 C47.3684369,11.4324351 47.2549393,11.4115276 47.1486207,11.3694828 C47.0435531,11.3184894 46.9459297,11.2534071 46.8584483,11.1760345 C46.6067286,10.9243528 46.5335988,10.5447743 46.6737931,10.2175862 C46.7537433,9.99667684 46.9277113,9.82270886 47.1486207,9.74275862 C47.4760733,9.6050615 47.8542139,9.67791426 48.107069,9.92741379 C48.2677486,10.0959194 48.35883,10.3189118 48.362069,10.5517241 C48.3651067,10.667075 48.3410116,10.7815271 48.2917241,10.8858621 C48.2469062,10.9922706 48.1844808,11.0903676 48.107069,11.1760345 C48.0195876,11.2534071 47.9219641,11.3184894 47.8168966,11.3694828 C47.710578,11.4115276 47.5970803,11.4324351 47.4827586,11.4310345 Z" id="Shape" fill="#6CBBC7"></path>
            <rect id="Rectangle-path" fill="#6CBBC7" x="36.0517241" y="9.67241379" width="3.51724138" height="1.75862069"></rect>
            <path d="M36.9310345,21.9827586 C36.6368481,21.9857532 36.3610533,21.8399531 36.1978596,21.5951626 C36.0346659,21.350372 36.0061561,21.0397152 36.122069,20.7693103 C36.1645599,20.6616992 36.2272373,20.5632062 36.3067241,20.4791379 C36.5582864,20.2254921 36.9383036,20.1492542 37.2682337,20.2862428 C37.5981639,20.4232313 37.8124223,20.7462152 37.8103448,21.1034483 C37.8127199,21.3373759 37.7208414,21.5624146 37.5554211,21.7278349 C37.3900008,21.8932552 37.1649621,21.9851337 36.9310345,21.9827586 Z" id="Shape" fill="#E6E6E6"></path>
            <rect id="Rectangle-path" fill="#E6E6E6" x="39.5689655" y="20.2241379" width="8.79310345" height="1.75862069"></rect>
            <rect id="Rectangle-path" fill="#6CBBC7" x="41.3275862" y="2.63793103" width="3.51724138" height="1.75862069"></rect>
            <rect id="Rectangle-path" fill="#6CBBC7" x="41.3275862" y="6.15517241" width="3.51724138" height="1.75862069"></rect>
            <rect id="Rectangle-path" fill="#6CBBC7" x="41.3275862" y="9.67241379" width="3.51724138" height="1.75862069"></rect>
            <rect id="Rectangle-path" fill="#B3B3B3" x="41.3275862" y="27.2586207" width="1.75862069" height="3.51724138"></rect>
            <rect id="Rectangle-path" fill="#B3B3B3" x="41.3275862" y="32.5344828" width="1.75862069" height="3.51724138"></rect>
            <polygon id="Shape" fill="#B3B3B3" points="43.0862069 40.4482759 40.4482759 40.4482759 40.4482759 38.6896552 41.3275862 38.6896552 41.3275862 37.8103448 43.0862069 37.8103448"></polygon>
            <rect id="Rectangle-path" fill="#B3B3B3" x="35.1724138" y="38.6896552" width="3.51724138" height="1.75862069"></rect>
            <rect id="Rectangle-path" fill="#B3B3B3" x="29.8965517" y="38.6896552" width="3.51724138" height="1.75862069"></rect>
            <rect id="Rectangle-path" fill="#B3B3B3" x="24.6206897" y="38.6896552" width="3.51724138" height="1.75862069"></rect>
            <rect id="Rectangle-path" fill="#B3B3B3" x="12.3103448" y="16.7068966" width="1.75862069" height="3.51724138"></rect>
            <rect id="Rectangle-path" fill="#B3B3B3" x="12.3103448" y="21.9827586" width="1.75862069" height="3.51724138"></rect>
            <rect id="Rectangle-path" fill="#B3B3B3" x="12.3103448" y="27.2586207" width="1.75862069" height="3.51724138"></rect>
            <polygon id="Shape" fill="#B3B3B3" points="14.0689655 9.67241379 12.3103448 9.67241379 12.3103448 7.03448276 14.9482759 7.03448276 14.9482759 8.79310345 14.0689655 8.79310345"></polygon>
            <rect id="Rectangle-path" fill="#B3B3B3" x="12.3103448" y="11.4310345" width="1.75862069" height="3.51724138"></rect>
            <rect id="Rectangle-path" fill="#B3B3B3" x="16.7068966" y="7.03448276" width="3.51724138" height="1.75862069"></rect>
            <rect id="Rectangle-path" fill="#B3B3B3" x="21.9827586" y="7.03448276" width="3.51724138" height="1.75862069"></rect>
            <rect id="Rectangle-path" fill="#B3B3B3" x="27.2586207" y="7.03448276" width="3.51724138" height="1.75862069"></rect>
            <path d="M47.4827586,14.9482759 C47.3684369,14.9496765 47.2549393,14.928769 47.1486207,14.8867241 C47.0435531,14.8357308 46.9459297,14.7706485 46.8584483,14.6932759 C46.693019,14.5278867 46.6011139,14.3028778 46.6034483,14.0689655 C46.6066872,13.8361532 46.6977686,13.6131607 46.8584483,13.4446552 C47.2088579,13.1136852 47.7566594,13.1136852 48.107069,13.4446552 C48.2677486,13.6131607 48.35883,13.8361532 48.362069,14.0689655 C48.3644033,14.3028778 48.2724983,14.5278867 48.107069,14.6932759 C48.0195876,14.7706485 47.9219641,14.8357308 47.8168966,14.8867241 C47.710578,14.928769 47.5970803,14.9496765 47.4827586,14.9482759 Z" id="Shape" fill="#6CBBC7"></path>
            <rect id="Rectangle-path" fill="#6CBBC7" x="36.0517241" y="13.1896552" width="3.51724138" height="1.75862069"></rect>
            <rect id="Rectangle-path" fill="#6CBBC7" x="41.3275862" y="13.1896552" width="3.51724138" height="1.75862069"></rect>
        </g>
    </g>
</svg>