<?xml version="1.0" encoding="UTF-8"?>
<svg width="73px" height="73px" viewBox="0 0 73 73" version="1.1" xmlns="http://www.w3.org/2000/svg" xmlns:xlink="http://www.w3.org/1999/xlink">
    <!-- Generator: Sketch 51.3 (57544) - http://www.bohemiancoding.com/sketch -->
    <title>databases-and-servers/servers/docker</title>
    <desc>Created with Sketch.</desc>
    <defs></defs>
    <g id="databases-and-servers/servers/docker" stroke="none" stroke-width="1" fill="none" fill-rule="evenodd">
        <g id="container" transform="translate(2.000000, 2.000000)" fill="#FFFFFF" fill-rule="nonzero" stroke="#022A4A" stroke-width="2">
            <rect id="mask" x="-1" y="-1" width="71" height="71" rx="14"></rect>
        </g>
        <g id="docker" transform="translate(11.000000, 11.000000)" fill-rule="nonzero">
            <path d="M51,25.5 C51,39.5832715 39.5832715,51 25.5,51 C11.4167285,51 0,39.5832715 0,25.5 C0,11.4167285 11.4167285,0 25.5,0 C38.4987246,0 49.2253594,9.72645703 50.8001836,22.2984551 C50.9146348,23.2070918 50.9812734,24.1302715 50.9958164,25.066002 C50.9990039,25.2106348 51,25.3553672 51,25.5 Z" id="Shape" fill="#006BC0"></path>
            <g id="Group" transform="translate(5.378906, 10.060547)" fill="#F2F2F2">
                <path d="M45.6169102,15.0054551 C43.4395488,17.6574551 39.1731797,17.4503672 39.1731797,17.4503672 C36.541998,28.7859141 20.6518125,34.5551895 9.61917773,31.7210039 C-1.41236133,28.8878145 0.1051875,15.7298145 0.1051875,15.7298145 L32.3923711,15.7298145 C35.0568223,15.7298145 35.2598262,14.9200898 35.2598262,14.9200898 C32.8981875,9.31945313 36.5420977,6.31672852 36.5420977,6.31672852 C39.3762832,6.82364063 40.0840078,11.6810918 40.0840078,11.6810918 C42.4101855,11.2637285 44.278459,11.7601816 45.4212773,12.2379082 C45.5357285,13.1465449 45.6023672,14.0697246 45.6169102,15.0054551 Z" id="Shape"></path>
                <rect id="Rectangle-path" x="3.54609375" y="10.6017246" width="4.52126953" height="4.11585938"></rect>
                <rect id="Rectangle-path" x="9.22791211" y="10.6017246" width="4.52126953" height="4.11585938"></rect>
                <rect id="Rectangle-path" x="26.2712754" y="10.6017246" width="4.52126953" height="4.11585938"></rect>
                <rect id="Rectangle-path" x="20.5904531" y="10.6017246" width="4.52126953" height="4.11585938"></rect>
                <rect id="Rectangle-path" x="20.5904531" y="0.0760019531" width="4.52126953" height="4.11585937"></rect>
                <rect id="Rectangle-path" x="14.9086348" y="10.6017246" width="4.52126953" height="4.11585938"></rect>
                <rect id="Rectangle-path" x="9.22791211" y="5.33836523" width="4.52126953" height="4.11585938"></rect>
                <rect id="Rectangle-path" x="20.5904531" y="5.33836523" width="4.52126953" height="4.11585938"></rect>
                <rect id="Rectangle-path" x="14.9086348" y="5.33836523" width="4.52126953" height="4.11585938"></rect>
            </g>
        </g>
    </g>
</svg>