<?xml version="1.0" encoding="UTF-8"?>
<svg width="73px" height="73px" viewBox="0 0 73 73" version="1.1" xmlns="http://www.w3.org/2000/svg" xmlns:xlink="http://www.w3.org/1999/xlink">
    <!-- Generator: Sketch 51.3 (57544) - http://www.bohemiancoding.com/sketch -->
    <title>databases-and-servers/servers/express</title>
    <desc>Created with Sketch.</desc>
    <defs></defs>
    <g id="databases-and-servers/servers/express" stroke="none" stroke-width="1" fill="none" fill-rule="evenodd">
        <g id="container" transform="translate(2.000000, 2.000000)" fill="#FFFFFF" fill-rule="nonzero" stroke="#2B4747" stroke-width="2">
            <rect id="mask" x="-1" y="-1" width="71" height="71" rx="14"></rect>
        </g>
        <g id="outlet-(1)" transform="translate(15.000000, 17.000000)" fill-rule="nonzero">
            <path d="M38.4117126,0 C37.699707,0 37.1226501,0.577056906 37.1226501,1.2890625 L37.1226501,7.30804439 L39.7007751,7.30804439 L39.7007751,1.2890625 C39.7007751,0.577056906 39.1237182,0 38.4117126,0 Z" id="Shape" fill="#2B4747"></path>
            <path d="M34.1772766,0 C33.465271,0 32.8882141,0.577056906 32.8882141,1.2890625 L32.8882141,7.30804439 L35.4663391,7.30804439 L35.4663391,1.2890625 C35.4663391,0.577056906 34.8892822,0 34.1772766,0 Z" id="Shape" fill="#2A5959"></path>
            <path d="M37.5838928,16.7000732 L37.5838928,33.6549378 C37.5838928,36.5630494 35.2162475,38.9296875 32.3064576,38.9296875 C29.3956604,38.9296875 27.0290222,36.5630494 27.0290222,33.6549378 L27.0290222,31.6464844 C27.0290222,30.2560424 25.8963928,29.1250915 24.5049439,29.1250915 C23.1128235,29.1250915 21.9812012,30.2560424 21.9812012,31.6464844 L21.9812012,33.5498658 C21.9812012,36.5167236 19.5672302,38.9296875 16.5997009,38.9296875 L16.5986939,38.9296875 C15.1619263,38.9296875 13.8110962,38.3700866 12.794281,37.3546143 C11.7778015,36.3388061 11.2175293,34.9876404 11.2175293,33.5508728 L11.2175293,23.6395264 L13.7956543,23.6395264 L13.7956543,33.5508728 C13.7956543,34.2984619 14.0870361,35.0024109 14.6160889,35.5307923 C15.1464844,36.0601807 15.8504333,36.3515625 16.5986939,36.3515625 C18.1448975,36.3515625 19.4030762,35.0950622 19.4030762,33.5498658 L19.4030762,31.6464844 C19.4030762,28.8347168 21.6914978,26.5469665 24.5049439,26.5469665 C27.3177185,26.5469665 29.6071472,28.8347168 29.6071472,31.6464844 L29.6071472,33.6549378 C29.6071472,35.1417236 30.8179932,36.3515625 32.3064576,36.3515625 C33.7949219,36.3515625 35.0057678,35.1417236 35.0057678,33.6549378 L35.0057678,16.7000732 L37.5838928,16.7000732 Z" id="Shape" fill="#2A5959"></path>
            <path d="M37.5838928,16.7000732 L37.5838928,33.6549378 C37.5838928,36.5630494 35.2162475,38.9296875 32.3064576,38.9296875 C29.3956604,38.9296875 27.0290222,36.5630494 27.0290222,33.6549378 L27.0290222,31.6464844 C27.0290222,30.2560424 25.8963928,29.1250915 24.5049439,29.1250915 L24.5049439,26.5469665 C27.3177185,26.5469665 29.6071472,28.8347168 29.6071472,31.6464844 L29.6071472,33.6549378 C29.6071472,35.1417236 30.8179932,36.3515625 32.3064576,36.3515625 C33.7949219,36.3515625 35.0057678,35.1417236 35.0057678,33.6549378 L35.0057678,16.7000732 L37.5838928,16.7000732 Z" id="Shape" fill="#2B4747"></path>
            <path d="M25.0138549,4.68795774 L25.0138549,20.3121338 C25.0138549,22.8973083 22.9100647,25.0000915 20.3258972,25.0000915 L4.68795774,25.0000915 C2.1027832,25.0000915 0,22.8973083 0,20.3121338 L0,4.68795774 C0,2.1027832 2.1027832,2.84217094e-14 4.68795774,2.84217094e-14 L20.3258972,2.84217094e-14 C22.9100647,2.84217094e-14 25.0138549,2.1027832 25.0138549,4.68795774 Z" id="Shape" fill="#B0E7FF"></path>
            <path d="M25.0138549,4.68795774 L25.0138549,20.3121338 C25.0138549,22.8973083 22.9100647,25.0000915 20.3258972,25.0000915 L12.5065918,25.0000915 L12.5065918,5.68434189e-14 L20.3258972,5.68434189e-14 C22.9100647,5.68434189e-14 25.0138549,2.1027832 25.0138549,4.68795774 Z" id="Shape" fill="#7CC8F0"></path>
            <path d="M20.4840088,12.5005494 C20.4840088,16.8971253 16.9065247,20.4729309 12.5072631,20.4736023 L12.5065918,20.4736023 C8.10833736,20.4736023 4.52883913,16.8971253 4.52883913,12.5005494 C4.52883913,8.10296627 8.10833736,4.52648926 12.5065918,4.52648926 L12.5072631,4.52648926 C16.9065247,4.52716069 20.4840088,8.10296627 20.4840088,12.5005494 Z" id="Shape" fill="#FFFFFF"></path>
            <path d="M20.4840088,12.5005494 C20.4840088,16.8971253 16.9065247,20.4729309 12.5072631,20.4736023 L12.5072631,4.52648926 C16.9065247,4.52716069 20.4840088,8.10296627 20.4840088,12.5005494 Z" id="Shape" fill="#B0E7FF"></path>
            <path d="M14.6238098,10.3470764 C13.9121399,10.3470764 13.3347473,10.9241333 13.3347473,11.6361389 L13.3347473,13.3639526 C13.3347473,14.0759583 13.9121399,14.6530151 14.6238098,14.6530151 C15.3358154,14.6530151 15.9128723,14.0759583 15.9128723,13.3639526 L15.9128723,11.6361389 C15.9128723,10.9241333 15.3358154,10.3470764 14.6238098,10.3470764 Z" id="Shape" fill="#2B4747"></path>
            <path d="M10.3893738,10.3470764 C9.67770384,10.3470764 9.10031126,10.9241333 9.10031126,11.6361389 L9.10031126,13.3639526 C9.10031126,14.0759583 9.67770384,14.6530151 10.3893738,14.6530151 C11.1013794,14.6530151 11.6784363,14.0759583 11.6784363,13.3639526 L11.6784363,11.6361389 C11.6784363,10.9241333 11.1013794,10.3470764 10.3893738,10.3470764 Z" id="Shape" fill="#2A5959"></path>
            <path d="M42.2829284,7.30804439 L42.2829284,14.0068054 C42.2829284,16.2025756 40.4963684,17.9891357 38.2999268,17.9891357 L34.2890625,17.9891357 C32.0932923,17.9891357 30.3067322,16.2025756 30.3067322,14.0068054 L30.3067322,7.30804439 L42.2829284,7.30804439 Z" id="Shape" fill="#B0E7FF"></path>
            <path d="M42.2829284,7.30804439 L42.2829284,14.0068054 C42.2829284,16.2025756 40.4963684,17.9891357 38.2999268,17.9891357 L36.2948303,17.9891357 L36.2948303,7.30804439 L42.2829284,7.30804439 Z" id="Shape" fill="#7CC8F0"></path>
            <path d="M44,7.30804439 C44,8.01971431 43.4226074,8.59710689 42.7109375,8.59710689 L29.8780518,8.59710689 C29.1663818,8.59710689 28.5889893,8.01971431 28.5889893,7.30804439 C28.5889893,6.59570312 29.1663818,6.01898189 29.8780518,6.01898189 L42.7109375,6.01898189 C43.4226074,6.01898189 44,6.59570312 44,7.30804439 Z" id="Shape" fill="#7CC8F0"></path>
            <path d="M44,7.30804439 C44,8.01971431 43.4226074,8.59710689 42.7109375,8.59710689 L36.2948303,8.59710689 L36.2948303,6.01898189 L42.7109375,6.01898189 C43.4226074,6.01898189 44,6.59570312 44,7.30804439 Z" id="Shape" fill="#4BB9EC"></path>
        </g>
    </g>
</svg>