<?xml version="1.0" encoding="UTF-8"?>
<svg width="73px" height="73px" viewBox="0 0 73 73" version="1.1" xmlns="http://www.w3.org/2000/svg" xmlns:xlink="http://www.w3.org/1999/xlink">
    <!-- Generator: Sketch 51.3 (57544) - http://www.bohemiancoding.com/sketch -->
    <title>databases-and-servers/servers/gnu-linux</title>
    <desc>Created with Sketch.</desc>
    <defs></defs>
    <g id="databases-and-servers/servers/gnu-linux" stroke="none" stroke-width="1" fill="none" fill-rule="evenodd">
        <g id="container" transform="translate(2.000000, 2.000000)" fill="#FFFFFF" fill-rule="nonzero" stroke="#293A4B" stroke-width="2">
            <rect id="mask" x="-1" y="-1" width="71" height="71" rx="14"></rect>
        </g>
        <g id="linux-icon" transform="translate(16.000000, 11.000000)">
            <path d="M8.35582222,41.1247122 C6.17921111,37.9920567 5.75477778,27.8069011 10.8337444,21.5412011 C13.3504,18.5354011 13.9924556,16.4403789 14.1909444,13.6280122 C14.3259667,10.4217011 11.9232556,0.84889 20.9850667,0.119567778 C30.1635444,-0.61271 29.6706667,8.44762333 29.6177778,13.2421567 C29.5739889,17.29049 32.5902889,19.5850122 34.6535,22.7403011 C38.4723889,28.5377789 38.1493,38.5194678 33.9341333,43.9223789 C28.595,50.6858567 24.0221333,47.7527789 20.9850667,47.9988678 C15.2982667,48.3100567 15.1102,51.3423011 8.35582222,41.1247122 Z" id="path106" fill="#000000" fill-rule="nonzero"></path>
            <path d="M30.5263778,23.3326567 C32.1026222,24.7836011 36.2049333,31.3145233 29.7178778,35.37779 C27.4312111,36.7926456 31.7569,42.2128233 33.8337222,39.5873567 C37.499,34.8741789 35.1615444,27.3683122 32.9629222,24.6789122 C31.4699,22.7723456 29.1868111,22.0336122 30.5263778,23.3326567 Z" id="path113" fill="#FFFFFF" fill-rule="nonzero"></path>
            <path d="M30.0806333,22.4420233 C32.6790333,24.54179 37.4102556,31.9338678 30.5097333,36.7354011 C28.2432889,38.2324678 32.5180333,42.9528789 34.9185667,40.5384233 C43.2642,32.1454233 34.7007889,22.4943678 31.7529333,19.1764456 C29.1182111,16.2910456 26.7844889,19.8581678 30.0806333,22.4420233 Z" id="path111" stroke="#000000" stroke-width="0.9773" fill="#000000" fill-rule="nonzero"></path>
            <path d="M18.7379111,10.4206122 C18.8277444,11.9852678 18.0790556,13.3012678 17.0656111,13.35999 C16.0520889,13.4187122 15.1575667,12.1978344 15.0676556,10.6331789 C14.9778222,9.06844556 15.7265111,7.75244556 16.7400333,7.69380111 C17.7536333,7.63507889 18.6480778,8.85587889 18.7379111,10.4206122 Z" id="path115" fill="#FFFFFF" fill-rule="nonzero"></path>
            <path d="M20.5774333,10.54039 C20.6145333,12.3506678 21.7849333,13.7870678 23.1917778,13.7485678 C24.5987778,13.7100678 25.7093667,12.2113678 25.6723444,10.40109 C25.6354,8.59081222 24.465,7.15441222 23.058,7.19291222 C21.651,7.23133444 20.5405667,8.73011222 20.5774333,10.54039 Z" id="path116" fill="#FFFFFF" fill-rule="nonzero"></path>
            <path d="M21.7430889,10.9495789 C21.7218556,11.9432678 22.2231333,12.7499789 22.8627,12.7513789 C23.5024222,12.7527789 24.038,11.9483233 24.0593111,10.9545567 C24.0805444,9.96079 23.5792667,9.15415667 22.9397,9.15275667 C22.2999778,9.15143444 21.7643222,9.95589 21.7430889,10.9495789 Z" id="path117" fill="#000000" fill-rule="nonzero"></path>
            <path d="M17.6887667,10.9601567 C17.7689556,11.7827344 17.4597111,12.4951011 16.9978667,12.5513344 C16.5360222,12.60749 16.0965778,11.9861233 16.0163889,11.1635456 C15.9363556,10.34089 16.2455222,9.62852333 16.7074444,9.57236778 C17.1692111,9.51621222 17.6085778,10.1375011 17.6887667,10.9601567 Z" id="path118" fill="#000000" fill-rule="nonzero"></path>
            <path d="M11.7659111,27.7668456 C13.0138556,24.9373678 15.6659222,19.9671344 15.7223889,16.1237456 C15.7223889,13.0669233 24.8787,12.3368233 25.6134667,15.3889789 C26.3481556,18.4410567 28.2133444,23.01929 29.4003111,25.22359 C30.5873556,27.4278122 34.0485444,34.4300678 30.3612556,40.5406789 C27.0404556,45.9505122 16.9713444,50.23039 11.5963556,39.8059122 C9.78771111,36.18839 10.1102556,31.7056678 11.7659111,27.7668456 Z" id="path128" fill="#FFFFFF" fill-rule="nonzero"></path>
            <path d="M10.6376667,25.6671567 C9.57133333,27.6852567 7.35248889,32.9931233 12.7604556,35.8973456 C18.5819667,38.9805344 18.5538889,45.3261122 11.5664111,42.3067011 C5.17828889,39.57779 8.00247778,28.5503789 9.78911111,25.9118456 C10.9605222,24.0638456 12.7173667,21.8019122 10.6376667,25.6671567 Z" id="path112" fill="#FFFFFF" fill-rule="nonzero"></path>
            <path d="M11.5530333,23.3797122 C9.85506667,26.1512456 5.78028889,32.6947678 11.2333667,36.0887567 C18.5802556,40.59559 16.5001667,45.1025011 9.79455556,41.0446789 C0.353422222,35.3801233 8.64492222,23.9709011 12.4323111,19.6229678 C16.7532556,14.7424122 13.2639889,20.5063678 11.5530333,23.3797122 Z" id="path109" stroke="#000000" stroke-width="1.25" fill="#000000" fill-rule="nonzero"></path>
            <path d="M8.09215556,49.3575678 C4.16033333,47.2753789 -1.55734444,49.7584344 0.518388889,44.1010344 C0.934111111,42.8140456 -0.101422222,40.8919233 0.574855556,39.6361233 C1.36616667,38.10989 3.0618,38.4490789 4.07928889,37.4317456 C5.08238889,36.3728011 5.71837778,34.5490678 7.58356667,34.83179 C9.44867778,35.1143567 10.6893111,37.4042122 11.9920111,40.2011789 C12.9528778,42.2077678 16.3612556,45.0296233 16.1385778,47.2748344 C15.8763111,50.7263011 11.9553,51.3767567 8.09215556,49.3575678 Z" id="path132" stroke="#E68C3F" fill="#FFD429" fill-rule="nonzero"></path>
            <path d="M36.7511667,36.0802011 C36.1469111,37.2129567 33.6567778,39.0105567 31.9970778,38.5420233 C30.3037,38.0825122 29.5410111,35.51919 29.8726556,33.5791011 C30.1805,31.3944789 31.9970778,31.2859011 34.2751889,32.3635122 C36.7241778,33.5565456 37.4647778,34.5789344 36.7511667,36.0802011 Z" id="path177" fill="#FFFFFF" fill-rule="nonzero"></path>
            <path d="M35.3766778,48.3869011 C38.2604444,44.8897789 44.6625667,45.6071233 40.3450444,40.81189 C39.4315444,39.7839011 39.7042333,37.5552567 38.5943444,36.6138344 C37.2743778,35.4594567 35.8183778,36.4061678 34.4802889,35.8024567 C33.1400222,35.1555011 31.7390889,33.8973678 30.1029556,34.7922789 C28.4669,35.6868789 28.2908111,38.0147678 28.1365778,41.0618678 C28.0014,43.2568344 26.0012667,46.92709 27.0630889,48.9438678 C28.6204333,52.0714678 32.6268444,51.6573789 35.3766778,48.3869011 Z" id="path133" stroke="#E68C3F" fill="#FFD429" fill-rule="nonzero"></path>
            <path d="M36.3502222,36.0186789 C35.8296556,36.9265011 33.6832222,38.3671789 32.2528111,37.9916678 C30.7930778,37.6234678 30.1357778,35.5690456 30.4217667,34.01419 C30.6869889,32.2632567 32.2527333,32.1762233 34.216,33.0400233 C36.3270444,33.99599 36.9653667,34.8154567 36.3502222,36.0186789 Z" id="path136" fill="#000000" fill-rule="nonzero"></path>
            <path d="M16.7487444,12.5889011 C17.4436889,11.9307456 19.1610222,9.95752333 22.3838222,12.0294456 C22.9829444,12.4192678 23.4690556,12.4549678 24.6219556,12.9486233 C26.9286111,13.8965011 25.8258,16.1821567 23.3828778,16.9452344 C22.337,17.2844233 21.3863222,18.5548456 19.4815444,18.4462678 C17.8545889,18.3513011 17.4282889,17.2918122 16.4289222,16.7054456 C14.6527889,15.7029678 14.3906778,14.3473789 15.3497556,13.62809 C16.3089889,12.9085678 16.6841889,12.6501122 16.7487444,12.5889011 Z" id="path119" stroke="#E68C3F" fill="#FFD429" fill-rule="nonzero"></path>
            <path d="M24.6526,14.4279567 C23.6917333,14.4845011 21.6006,16.5757122 19.3962222,16.5757122 C17.1918444,16.5757122 15.8919444,14.5409678 15.5527556,14.5409678" id="path120" stroke="#E68C3F"></path>
        </g>
    </g>
</svg>