<?xml version="1.0" encoding="utf-8"?>
<!-- Generator: Adobe Illustrator 23.0.1, SVG Export Plug-In . SVG Version: 6.00 Build 0)  -->
<svg version="1.2" baseProfile="tiny" id="Camada_1"
	 xmlns="http://www.w3.org/2000/svg" xmlns:xlink="http://www.w3.org/1999/xlink" x="0px" y="0px" viewBox="0 0 73 73"
	 xml:space="preserve">
<title>databases-and-servers/servers/client-server</title>
<desc>Created with Sketch.</desc>
<g>
	<g id="container" transform="translate(2.000000, 2.000000)">
		<path id="mask" fill="#FFFFFF" stroke="#000000" stroke-width="2" d="M13-1h43c7.7,0,14,6.3,14,14v43c0,7.7-6.3,14-14,14H13
			C5.3,70-1,63.7-1,56V13C-1,5.3,5.3-1,13-1z"/>
	</g>
</g>
<g id="layer1" transform="translate(238.75386,-148.45869)">
	<path id="path3054-2-9" fill="#FFFFFF" d="M-202,166.6l16.8,7.4l4.2,16.6l-11.7,13.3h-18.7l-11.7-13.3l4.2-16.6L-202,166.6z"/>
	<path id="path3055" fill="#326CE5" d="M-202.3,161.3c-0.4,0-0.9,0.2-1.3,0.4l-17.7,8.3c-1,0.4-1.6,1.2-1.8,2.3l-4.3,18.7
		c-0.2,0.9,0,1.8,0.4,2.5c0.1,0.1,0.1,0.2,0.2,0.3l12.3,15c0.6,0.8,1.7,1.2,2.7,1.2h19.7c1,0,2-0.4,2.7-1.2l12.3-15
		c0.6-0.8,0.9-1.8,0.7-2.8l-4.3-18.7c-0.3-1-0.9-1.8-1.8-2.3l-17.7-8.3C-201.2,161.4-201.8,161.3-202.3,161.3L-202.3,161.3z"/>
	<path id="path3059" fill="#FFFFFF" d="M-202.2,168.1c-0.6,0-1,0.4-1,1.1l0,0c0,0.1,0,0.2,0,0.3c0,0.4,0.1,0.6,0.2,0.9
		c0.1,0.7,0.2,1.2,0.1,1.8c-0.1,0.2-0.2,0.4-0.3,0.5v0.4c-0.6,0.1-1.3,0.2-1.9,0.3c-2.8,0.5-5.2,1.8-7,3.6c-0.1-0.1-0.3-0.2-0.3-0.3
		c-0.2,0-0.3,0.1-0.6-0.1c-0.5-0.3-1-0.7-1.5-1.1c-0.3-0.3-0.4-0.4-0.7-0.7c-0.1-0.1-0.2-0.1-0.3-0.2c-0.3-0.2-0.5-0.3-0.8-0.3
		c-0.3,0-0.7,0.1-0.9,0.4c-0.3,0.4-0.3,1.1,0.3,1.4l0,0c0.1,0.1,0.2,0.1,0.3,0.2c0.3,0.2,0.6,0.3,0.9,0.4c0.6,0.4,1.2,0.6,1.7,1
		c0.2,0.2,0.2,0.4,0.2,0.5l0.3,0.3c-1.8,2.5-2.7,5.5-2.2,8.7l-0.4,0.1c-0.1,0.2-0.3,0.4-0.4,0.4c-0.5,0.2-1.2,0.2-1.9,0.3
		c-0.3,0-0.7,0-1,0.1c-0.1,0-0.2,0-0.3,0.1l0,0l0,0c-0.6,0.2-1,0.7-1,1.1c0.2,0.5,0.8,0.8,1.4,0.7l0,0l0,0c0.1,0,0.2,0,0.3-0.1
		c0.3-0.1,0.6-0.2,1-0.4c0.7-0.3,1.3-0.4,1.9-0.5c0.3,0,0.5,0.2,0.6,0.2l0.4-0.1c1,3,3.4,5.4,6.3,6.9l-0.2,0.4
		c0.1,0.2,0.2,0.4,0.1,0.5c-0.2,0.5-0.6,1-1,1.6c-0.2,0.3-0.4,0.4-0.6,0.8c0,0.1-0.1,0.2-0.2,0.3c-0.3,0.5-0.1,1.1,0.4,1.4
		c0.5,0.3,1.2,0,1.5-0.5l0,0l0,0c0-0.1,0.1-0.2,0.2-0.3c0.2-0.4,0.2-0.6,0.3-0.9c0.3-0.6,0.4-1.3,0.9-1.8c0.1-0.1,0.3-0.2,0.4-0.2
		l0.3-0.4c2.5,0.9,5.3,1.1,8.1,0.5c0.6-0.1,1.2-0.3,1.8-0.5c0.1,0.1,0.2,0.4,0.3,0.4c0.2,0.1,0.3,0.1,0.5,0.3c0.3,0.4,0.5,1,0.8,1.6
		c0.1,0.3,0.2,0.6,0.3,0.9c0,0.1,0.1,0.2,0.2,0.3c0.3,0.5,1,0.8,1.5,0.5c0.5-0.3,0.7-0.9,0.4-1.4c0-0.1-0.1-0.2-0.2-0.3
		c-0.2-0.3-0.3-0.5-0.6-0.8c-0.4-0.6-0.8-1.1-1-1.5c-0.1-0.3,0-0.4,0.1-0.5c0,0-0.1-0.3-0.2-0.4c3-1.6,5.2-4.1,6.3-7
		c0.2,0,0.3,0.1,0.4,0.1c0.2-0.1,0.3-0.3,0.6-0.2c0.6,0.1,1.1,0.3,1.9,0.5c0.3,0.1,0.6,0.3,1,0.4c0.1,0,0.2,0,0.3,0.1l0,0l0,0
		c0.6,0.1,1.3-0.2,1.4-0.7c0.2-0.5-0.3-1.1-1-1.1c-0.1,0-0.3-0.1-0.3-0.1c-0.3-0.1-0.7-0.1-1-0.1c-0.8-0.1-1.4-0.1-1.9-0.3
		c-0.3-0.1-0.3-0.4-0.4-0.4l-0.4-0.1c0.3-1.5,0.2-3-0.3-4.5c-0.4-1.5-1.1-2.9-2-4.2c0.1-0.1,0.3-0.3,0.3-0.3c0-0.2,0-0.4,0.2-0.5
		c0.4-0.4,1-0.6,1.7-1c0.3-0.2,0.6-0.3,0.9-0.4c0.1-0.1,0.2-0.1,0.3-0.2c0.5-0.4,0.6-1,0.3-1.4c-0.3-0.4-1.1-0.4-1.7-0.1
		c-0.1,0.1-0.2,0.1-0.3,0.2c-0.3,0.3-0.4,0.4-0.7,0.7c-0.5,0.5-1,0.9-1.5,1.1c-0.2,0.1-0.5,0.1-0.7,0.1l-0.4,0.3
		c-2.3-2.2-5.6-3.6-9-3.9c0-0.1,0-0.4,0-0.4c-0.2-0.1-0.3-0.3-0.3-0.4c-0.1-0.5,0-1.1,0.1-1.8c0.1-0.4,0.2-0.6,0.2-0.9
		c0-0.1,0-0.2,0-0.3C-201.1,168.6-201.6,168.1-202.2,168.1L-202.2,168.1z M-203.5,175.6l-0.3,5.1l0,0c0,0.4-0.4,0.8-1,0.8
		c-0.2,0-0.4-0.1-0.5-0.2l0,0l-4.7-2.9c1.4-1.2,3.2-2.2,5.4-2.6C-204.3,175.7-203.9,175.6-203.5,175.6z M-200.9,175.6
		c2.4,0.3,4.7,1.2,6.5,2.8l-4.6,2.9l0,0c-0.4,0.3-1,0.2-1.3-0.2c-0.2-0.2-0.2-0.4-0.2-0.5l0,0L-200.9,175.6z M-211.7,180.2l4.3,3.4
		l0,0c0.3,0.3,0.4,0.8,0.1,1.1c-0.2,0.2-0.3,0.3-0.5,0.3l0,0l-5.5,1.4C-213.6,184.2-213,182.1-211.7,180.2L-211.7,180.2z
		 M-192.7,180.2c0.6,0.9,1.1,1.9,1.4,3.1c0.3,1.1,0.3,2.2,0.3,3.2l-5.5-1.4l0,0c-0.5-0.1-0.8-0.5-0.7-1.1c0.1-0.2,0.2-0.4,0.3-0.4
		l0,0L-192.7,180.2L-192.7,180.2z M-203,183.9h1.7l1,1.2l-0.3,1.5l-1.6,0.7l-1.6-0.7l-0.3-1.5L-203,183.9z M-197.5,188
		c0.1,0,0.2,0,0.3,0l0,0l5.7,0.9c-0.8,2.1-2.4,3.9-4.5,5.1l-2.2-4.7l0,0c-0.2-0.4,0-0.9,0.4-1.1C-197.7,188-197.6,188-197.5,188
		L-197.5,188z M-206.9,188c0.4,0,0.8,0.3,1,0.7c0.1,0.2,0,0.4-0.1,0.5l0,0l-2.2,4.6c-2-1.1-3.7-2.9-4.5-5l5.6-0.9l0,0
		C-207.1,188-207,188-206.9,188L-206.9,188z M-202.2,190c0.2,0,0.3,0,0.4,0.1s0.3,0.2,0.4,0.4l0,0l2.8,4.5c-0.3,0.1-0.7,0.2-1.1,0.3
		c-2.1,0.4-4.2,0.3-6.1-0.3l2.8-4.4l0,0C-202.9,190.2-202.6,190-202.2,190z"/>
</g>
</svg>
