<?xml version="1.0" encoding="UTF-8"?>
<svg width="73px" height="73px" viewBox="0 0 73 73" version="1.1" xmlns="http://www.w3.org/2000/svg" xmlns:xlink="http://www.w3.org/1999/xlink">
    <!-- Generator: Sketch 51.3 (57544) - http://www.bohemiancoding.com/sketch -->
    <title>databases-and-servers/servers/middleware</title>
    <desc>Created with Sketch.</desc>
    <defs></defs>
    <g id="databases-and-servers/servers/middleware" stroke="none" stroke-width="1" fill="none" fill-rule="evenodd">
        <g id="container" transform="translate(2.000000, 2.000000)" fill="#FFFFFF" fill-rule="nonzero" stroke="#3A4049" stroke-width="2">
            <rect id="mask" x="-1" y="-1" width="71" height="71" rx="14"></rect>
        </g>
        <g id="file-(1)" transform="translate(16.000000, 13.000000)" fill-rule="nonzero">
            <path d="M21.00075,27.38625 C20.586,27.38625 20.25075,27.051 20.25075,26.63625 L20.25075,22.8975 C20.25075,22.48275 20.586,22.1475 21.00075,22.1475 C21.4155,22.1475 21.75075,22.48275 21.75075,22.8975 L21.75075,26.63625 C21.75075,27.05025 21.4155,27.38625 21.00075,27.38625 Z" id="Shape" fill="#656D78"></path>
            <path d="M5.99925,19.8975 C5.5845,19.8975 5.24925,19.56225 5.24925,19.1475 L5.24925,10.113 C5.24925,9.69825 5.5845,9.363 5.99925,9.363 C6.414,9.363 6.74925,9.69825 6.74925,10.113 L6.74925,19.1475 C6.74925,19.56225 6.414,19.8975 5.99925,19.8975 Z" id="Shape" fill="#656D78"></path>
            <path d="M36.00975,19.89675 C35.595,19.89675 35.25975,19.5615 35.25975,19.14675 L35.25975,10.11225 C35.25975,9.6975 35.595,9.36225 36.00975,9.36225 C36.4245,9.36225 36.75975,9.6975 36.75975,10.11225 L36.75975,19.14675 C36.75975,19.5615 36.42375,19.89675 36.00975,19.89675 Z" id="Shape" fill="#656D78"></path>
            <path d="M21.00075,16.14675 C20.586,16.14675 20.25075,15.8115 20.25075,15.39675 L20.25075,10.893 C20.25075,10.47825 20.586,10.143 21.00075,10.143 C21.4155,10.143 21.75075,10.47825 21.75075,10.893 L21.75075,15.39675 C21.75075,15.8115 21.4155,16.14675 21.00075,16.14675 Z" id="Shape" fill="#656D78"></path>
            <polygon id="Shape" fill="#FFCE54" points="36.00825 10.14975 30.75075 10.14975 30.75075 1.14975 34.50075 1.14975 35.25075 2.64975 41.25075 2.64975 41.25075 10.14975"></polygon>
            <path d="M22.50075,8.64975 L19.50075,8.64975 L16.50075,8.64975 C16.08825,8.64975 15.75075,8.31225 15.75075,7.89975 L15.75075,1.89975 C15.75075,1.48725 16.08825,1.14975 16.50075,1.14975 L25.50075,1.14975 C25.91325,1.14975 26.25075,1.48725 26.25075,1.89975 L26.25075,7.89975 C26.25075,8.31225 25.91325,8.64975 25.50075,8.64975 L22.50075,8.64975 Z" id="Shape" fill="#5D9CEC"></path>
            <polygon id="Shape" fill="#CCD1D9" points="22.50075 8.64975 23.25075 10.8915 21.00075 10.8915 18.75075 10.8915 19.50075 8.64975"></polygon>
            <path d="M25.4985,0.40125 L16.503,0.40125 C15.67575,0.40125 15.003,1.074 15.003,1.90125 L15.003,7.89825 C15.003,8.7255 15.67575,9.39825 16.503,9.39825 L25.4985,9.39825 C26.32575,9.39825 26.9985,8.7255 26.9985,7.89825 L26.9985,1.90125 C26.9985,1.07475 26.32575,0.40125 25.4985,0.40125 Z M25.4955,7.89825 L16.503,7.89825 L16.503,1.90125 L25.4985,1.90125 L25.4955,7.89825 Z" id="Shape" fill="#E6E9ED"></path>
            <path d="M23.25,11.643 L18.7515,11.643 C18.33675,11.643 18.0015,11.30775 18.0015,10.893 C18.0015,10.47825 18.33675,10.143 18.7515,10.143 L23.25,10.143 C23.66475,10.143 24,10.47825 24,10.893 C24,11.30775 23.66475,11.643 23.25,11.643 Z" id="Shape" fill="#E6E9ED"></path>
            <path d="M41.2485,10.896 L30.75,10.896 C30.33525,10.896 30,10.56075 30,10.146 L30,1.14675 C30,0.732 30.33525,0.39675 30.75,0.39675 L34.50075,0.39675 C34.785,0.39675 35.04525,0.55725 35.172,0.8115 L35.715,1.89825 L41.24925,1.89825 C41.664,1.89825 41.99925,2.2335 41.99925,2.64825 L41.99925,10.146 C41.9985,10.56075 41.66325,10.896 41.2485,10.896 Z M31.5,9.396 L40.4985,9.396 L40.4985,3.39825 L35.25075,3.39825 C34.9665,3.39825 34.70625,3.23775 34.5795,2.9835 L34.0365,1.89675 L31.5,1.89675 L31.5,9.396 Z" id="Shape" fill="#FFCE54"></path>
            <path d="M17.25825,19.8975 L5.99925,19.8975 C5.5845,19.8975 5.24925,19.56225 5.24925,19.1475 C5.24925,18.73275 5.5845,18.3975 5.99925,18.3975 L17.25825,18.3975 C17.673,18.3975 18.00825,18.73275 18.00825,19.1475 C18.00825,19.56225 17.67225,19.8975 17.25825,19.8975 Z" id="Shape" fill="#656D78"></path>
            <path d="M36.00975,19.89675 L24.75075,19.89675 C24.336,19.89675 24.00075,19.5615 24.00075,19.14675 C24.00075,18.732 24.336,18.39675 24.75075,18.39675 L36.00975,18.39675 C36.4245,18.39675 36.75975,18.732 36.75975,19.14675 C36.75975,19.5615 36.42375,19.89675 36.00975,19.89675 Z" id="Shape" fill="#656D78"></path>
            <polygon id="Shape" fill="#656D78" points="11.25075 29.6325 30.75075 29.6325 30.75075 47.6325 11.25075 47.6325"></polygon>
            <polygon id="Shape" fill="#545C66" points="11.25075 35.6325 30.75075 35.6325 30.75075 41.6325 11.25075 41.6325"></polygon>
            <polygon id="Shape" fill="#545C66" points="28.50075 26.6325 30.75075 29.6325 11.25075 29.6325 13.50075 26.6325"></polygon>
            <path d="M27.77325,33.756 C27.153,33.756 26.64525,33.25425 26.64525,32.634 C26.64525,32.01375 27.14175,31.512 27.76125,31.512 L27.77325,31.512 C28.39275,31.512 28.89525,32.01375 28.89525,32.634 C28.89525,33.25425 28.39275,33.756 27.77325,33.756 Z" id="Shape" fill="#5D9CEC"></path>
            <path d="M13.5,34.134 C13.308,34.134 13.116,34.0605 12.96975,33.91425 C12.6765,33.621 12.6765,33.147 12.96975,32.85375 L14.46975,31.35375 C14.763,31.0605 15.237,31.0605 15.53025,31.35375 C15.8235,31.647 15.8235,32.121 15.53025,32.41425 L14.03025,33.91425 C13.884,34.0605 13.692,34.134 13.5,34.134 Z" id="Shape" fill="#545C66"></path>
            <path d="M17.25,34.134 C17.058,34.134 16.866,34.0605 16.71975,33.91425 C16.4265,33.621 16.4265,33.147 16.71975,32.85375 L18.21975,31.35375 C18.513,31.0605 18.987,31.0605 19.28025,31.35375 C19.5735,31.647 19.5735,32.121 19.28025,32.41425 L17.78025,33.91425 C17.634,34.0605 17.442,34.134 17.25,34.134 Z" id="Shape" fill="#545C66"></path>
            <path d="M21,34.134 C20.808,34.134 20.616,34.0605 20.46975,33.91425 C20.1765,33.621 20.1765,33.147 20.46975,32.85375 L21.96975,31.35375 C22.263,31.0605 22.737,31.0605 23.03025,31.35375 C23.3235,31.647 23.3235,32.121 23.03025,32.41425 L21.53025,33.91425 C21.384,34.0605 21.192,34.134 21,34.134 Z" id="Shape" fill="#545C66"></path>
            <path d="M27.77325,39.756 C27.153,39.756 26.64525,39.25425 26.64525,38.634 C26.64525,38.01375 27.14175,37.512 27.76125,37.512 L27.77325,37.512 C28.39275,37.512 28.89525,38.01375 28.89525,38.634 C28.89525,39.25425 28.39275,39.756 27.77325,39.756 Z" id="Shape" fill="#5D9CEC"></path>
            <path d="M13.5,40.134 C13.308,40.134 13.116,40.0605 12.96975,39.91425 C12.6765,39.621 12.6765,39.147 12.96975,38.85375 L14.46975,37.35375 C14.763,37.0605 15.237,37.0605 15.53025,37.35375 C15.8235,37.647 15.8235,38.121 15.53025,38.41425 L14.03025,39.91425 C13.884,40.0605 13.692,40.134 13.5,40.134 Z" id="Shape" fill="#434A54"></path>
            <path d="M17.25,40.134 C17.058,40.134 16.866,40.0605 16.71975,39.91425 C16.4265,39.621 16.4265,39.147 16.71975,38.85375 L18.21975,37.35375 C18.513,37.0605 18.987,37.0605 19.28025,37.35375 C19.5735,37.647 19.5735,38.121 19.28025,38.41425 L17.78025,39.91425 C17.634,40.0605 17.442,40.134 17.25,40.134 Z" id="Shape" fill="#434A54"></path>
            <path d="M21,40.134 C20.808,40.134 20.616,40.0605 20.46975,39.91425 C20.1765,39.621 20.1765,39.147 20.46975,38.85375 L21.96975,37.35375 C22.263,37.0605 22.737,37.0605 23.03025,37.35375 C23.3235,37.647 23.3235,38.121 23.03025,38.41425 L21.53025,39.91425 C21.384,40.0605 21.192,40.134 21,40.134 Z" id="Shape" fill="#434A54"></path>
            <path d="M27.77325,45.756 C27.153,45.756 26.64525,45.25425 26.64525,44.634 C26.64525,44.01375 27.14175,43.512 27.76125,43.512 L27.77325,43.512 C28.39275,43.512 28.89525,44.01375 28.89525,44.634 C28.89525,45.25425 28.39275,45.756 27.77325,45.756 Z" id="Shape" fill="#5D9CEC"></path>
            <path d="M13.5,46.134 C13.308,46.134 13.116,46.0605 12.96975,45.91425 C12.6765,45.621 12.6765,45.147 12.96975,44.85375 L14.46975,43.35375 C14.763,43.0605 15.237,43.0605 15.53025,43.35375 C15.8235,43.647 15.8235,44.121 15.53025,44.41425 L14.03025,45.91425 C13.884,46.0605 13.692,46.134 13.5,46.134 Z" id="Shape" fill="#545C66"></path>
            <path d="M17.25,46.134 C17.058,46.134 16.866,46.0605 16.71975,45.91425 C16.4265,45.621 16.4265,45.147 16.71975,44.85375 L18.21975,43.35375 C18.513,43.0605 18.987,43.0605 19.28025,43.35375 C19.5735,43.647 19.5735,44.121 19.28025,44.41425 L17.78025,45.91425 C17.634,46.0605 17.442,46.134 17.25,46.134 Z" id="Shape" fill="#545C66"></path>
            <path d="M21,46.134 C20.808,46.134 20.616,46.0605 20.46975,45.91425 C20.1765,45.621 20.1765,45.147 20.46975,44.85375 L21.96975,43.35375 C22.263,43.0605 22.737,43.0605 23.03025,43.35375 C23.3235,43.647 23.3235,44.121 23.03025,44.41425 L21.53025,45.91425 C21.384,46.0605 21.192,46.134 21,46.134 Z" id="Shape" fill="#545C66"></path>
            <path d="M11.23425,1.88025 L11.23425,3.36525 L0.765,3.36525 L0.75,3.36525 L0.75,1.86525 L0.7575,1.86525 C0.7575,1.45275 1.0875,1.11525 1.5,1.11525 L1.515,1.11525 L6.0075,1.11525 L10.4775,1.11525 C10.89,1.11525 11.2275,1.45275 11.235,1.86525 L11.235,1.88025 L11.23425,1.88025 Z" id="Shape" fill="#CCD1D9"></path>
            <polygon id="Shape" fill="#E6E9ED" points="11.25 3.36525 11.25 10.11525 0.765 10.11525 0.765 3.36525 11.23425 3.36525"></polygon>
            <g id="Group" fill="#CCD1D9">
                <path d="M0.75075,2.61525 C0.33675,2.61525 0.003,2.27775 0.003,1.863 C0.003,1.038 0.67425,0.3675 1.49925,0.3675 C1.914,0.3675 2.24925,0.70275 2.24925,1.1175 C2.24925,1.53225 1.914,1.8675 1.49925,1.8675 C1.49925,2.28225 1.1655,2.61525 0.75075,2.61525 Z" id="Shape"></path>
                <path d="M0.7515,4.8675 C0.33675,4.8675 0.0015,4.53225 0.0015,4.1175 L0.0015,1.866 C0.0015,1.45125 0.33675,1.116 0.7515,1.116 C1.16625,1.116 1.5015,1.45125 1.5015,1.866 L1.5015,4.1175 C1.5015,4.53225 1.16625,4.8675 0.7515,4.8675 Z" id="Shape"></path>
                <path d="M11.2365,2.6295 C10.82175,2.6295 10.4865,2.29425 10.4865,1.8795 C10.4865,1.8735 10.48125,1.8675 10.473,1.8675 C10.05825,1.8675 9.723,1.53225 9.723,1.1175 C9.723,0.70275 10.05825,0.3675 10.473,0.3675 C11.307,0.3675 11.9865,1.0455 11.9865,1.8795 C11.9865,2.29425 11.65125,2.6295 11.2365,2.6295 Z" id="Shape"></path>
                <path d="M11.235,4.8675 C10.82025,4.8675 10.485,4.53225 10.485,4.1175 L10.485,1.866 C10.485,1.45125 10.82025,1.116 11.235,1.116 C11.64975,1.116 11.985,1.45125 11.985,1.866 L11.985,4.1175 C11.985,4.53225 11.64975,4.8675 11.235,4.8675 Z" id="Shape"></path>
                <path d="M10.47375,1.8675 L1.5135,1.8675 C1.09875,1.8675 0.7635,1.53225 0.7635,1.1175 C0.7635,0.70275 1.09875,0.3675 1.5135,0.3675 L10.47375,0.3675 C10.8885,0.3675 11.22375,0.70275 11.22375,1.1175 C11.22375,1.53225 10.8885,1.8675 10.47375,1.8675 Z" id="Shape"></path>
                <path d="M8.99775,6.36675 L2.99925,6.36675 C2.5845,6.36675 2.24925,6.0315 2.24925,5.61675 C2.24925,5.202 2.5845,4.86675 2.99925,4.86675 L8.99775,4.86675 C9.4125,4.86675 9.74775,5.202 9.74775,5.61675 C9.74775,6.0315 9.4125,6.36675 8.99775,6.36675 Z" id="Shape"></path>
                <path d="M6.7455,8.61675 L5.2515,8.61675 C4.83675,8.61675 4.5015,8.2815 4.5015,7.86675 C4.5015,7.452 4.83675,7.11675 5.2515,7.11675 L6.7455,7.11675 C7.16025,7.11675 7.4955,7.452 7.4955,7.86675 C7.4955,8.2815 7.16025,8.61675 6.7455,8.61675 Z" id="Shape"></path>
            </g>
            <path d="M11.2485,10.86375 L0.765,10.86375 C0.35025,10.86375 0.015,10.5285 0.015,10.11375 L0.015,3.366 C0.015,2.95125 0.35025,2.616 0.765,2.616 L11.24925,2.616 C11.664,2.616 11.99925,2.95125 11.99925,3.366 L11.99925,10.11375 C11.9985,10.5285 11.66325,10.86375 11.2485,10.86375 Z M1.515,9.36375 L10.49925,9.36375 L10.49925,4.116 L1.515,4.116 L1.515,9.36375 Z" id="Shape" fill="#E6E9ED"></path>
            <polygon id="Shape" fill="#E6E9ED" points="0.015 2.61525 11.99925 2.61525 11.99925 3.366 0.015 3.366"></polygon>
            <path d="M21.00075,23.27475 C18.72375,23.27475 16.87575,21.42675 16.87575,19.14975 C16.87575,16.86375 18.72375,15.02475 21.00075,15.02475 C23.27775,15.02475 25.12575,16.86375 25.12575,19.14975 C25.12575,21.42675 23.27775,23.27475 21.00075,23.27475 Z" id="Shape" fill="#ED5565"></path>
            <path d="M21.00075,21.396 C20.586,21.396 20.25075,21.06075 20.25075,20.646 L20.25075,19.14675 C20.25075,18.732 20.586,18.39675 21.00075,18.39675 C21.4155,18.39675 21.75075,18.732 21.75075,19.14675 L21.75075,20.646 C21.75075,21.06075 21.4155,21.396 21.00075,21.396 Z" id="Shape" fill="#DA4453"></path>
            <path d="M21.02325,18.396 C20.6085,18.396 20.2695,18.06075 20.2695,17.646 C20.2695,17.23125 20.601,16.896 21.015,16.896 L21.02325,16.896 C21.43725,16.896 21.77325,17.23125 21.77325,17.646 C21.77325,18.06075 21.43725,18.396 21.02325,18.396 Z" id="Shape" fill="#DA4453"></path>
        </g>
    </g>
</svg>