<?xml version="1.0" encoding="UTF-8"?>
<svg width="73px" height="73px" viewBox="0 0 73 73" version="1.1" xmlns="http://www.w3.org/2000/svg" xmlns:xlink="http://www.w3.org/1999/xlink">
    <!-- Generator: Sketch 57.1 (83088) - https://sketch.com -->
    <title>Untitled</title>
    <desc>Created with Sketch.</desc>
    <g id="Page-1" stroke="none" stroke-width="1" fill="none" fill-rule="evenodd">
        <g id="graphql" transform="translate(1.000000, 1.000000)" fill="#FFFFFF" fill-rule="nonzero" stroke="#640B47" stroke-width="2">
            <g id="container">
                <rect id="mask" x="0" y="0" width="71" height="71" rx="14"></rect>
            </g>
        </g>
        <g id="swagger-seeklogo.com" transform="translate(7.000000, 7.000000)" fill-rule="nonzero">
            <path d="M29.7796071,59.9992784 C13.7931221,59.8890169 -0.107126629,46.6215099 0.00062227982,29.7652273 C0.104214703,13.5459054 13.5824202,-0.109914276 30.2601609,0.000666925808 C46.468858,0.108371738 60.1436973,13.5625245 59.9988599,30.0455154 C60.1331462,46.3789343 46.390844,60.1146537 29.7796071,59.9992784 Z M29.7796071,59.9992784 C13.7931221,59.8890169 -0.107126629,46.6215099 0.00062227982,29.7652273 C0.104214703,13.5459054 13.5824202,-0.109914276 30.2601609,0.000666925808 C46.468858,0.108371738 60.1436973,13.5625245 59.9988599,30.0455154 C60.1331462,46.3789343 46.390844,60.1146537 29.7796071,59.9992784 Z" id="Shape" fill="#FFFFFF"></path>
            <path d="M29.8090157,55.999374 C15.9535296,55.9037933 3.90715168,44.4051113 4.00053939,29.7965508 C4.09042109,15.7394908 15.7715351,3.90436464 30.225595,4.00058259 C44.2729563,4.0939331 56.1245904,15.7544651 55.9990111,30.0396444 C56.1153473,44.1951524 44.2057043,56.0994152 29.8090157,55.999374 Z M29.8090157,55.999374 C15.9535296,55.9037933 3.90715168,44.4051113 4.00053939,29.7965508 C4.09042109,15.7394908 15.7715351,3.90436464 30.225595,4.00058259 C44.2729563,4.0939331 56.1245904,15.7544651 55.9990111,30.0396444 C56.1153473,44.1951524 44.2057043,56.0994152 29.8090157,55.999374 Z" id="Shape" fill="#49A32B"></path>
            <path d="M40.3846875,29.5288653 C40.3193749,30.7744046 39.2587499,31.8086672 38.2134376,31.6281682 C38.2084376,31.6281682 38.2031251,31.6281682 38.1978126,31.6281682 C37.04,31.6297713 36.1003125,30.6679647 36.0990625,29.4801337 C36.1384376,28.2890964 37.10125,27.3503735 38.2625,27.3705713 C39.4203124,27.376342 40.4471876,28.3801476 40.3846875,29.5288653 Z M21.766875,41.5985755 C22.2034375,41.61172 22.6403125,41.6021019 23.14375,41.6021019 L23.14375,44.8478786 C20.0146875,45.3906579 17.4371875,44.4791859 16.8046875,41.765609 C16.588125,40.7678951 16.455,39.7528685 16.40625,38.7317507 C16.3390625,37.6506803 16.4553125,36.5574267 16.375,35.4782798 C16.1525,32.5088625 15.7775,31.4951184 13,31.3546945 L13,27.6591133 C13.1990625,27.6113435 13.4009375,27.5760773 13.6040625,27.5526734 C15.126875,27.4757288 15.76875,26.9967491 16.109375,25.4578587 C16.264375,24.5931946 16.35625,23.7179506 16.3834375,22.8391801 C16.5040625,21.1399886 16.46125,19.4132252 16.7371875,17.7416055 C17.1359375,15.3242651 18.59875,14.1498993 21.015,14.0184524 C21.7025,13.9806213 22.3921875,14.0126815 23.17125,14.0126815 L23.17125,17.3302729 C22.850625,17.3536768 22.556875,17.4014466 22.265,17.3924697 C20.2959375,17.3305935 20.1940625,18.0186058 20.0503125,19.6908667 C19.960625,20.7395564 20.084375,21.8061999 20.0146875,22.8584163 C19.941875,23.9055029 19.8053125,24.9471393 19.6059375,25.9769137 C19.321875,27.4693168 18.4275,28.5792416 17.188125,29.5211708 C19.5940625,31.1273875 19.8678125,33.6232755 20.0240625,36.1576359 C20.108125,37.5195538 20.0696875,38.89109 20.204375,40.2462754 C20.309375,41.2981712 20.708125,41.5665151 21.766875,41.5985755 Z M23.7946875,27.3705713 C23.8071875,27.3705713 23.819375,27.3705713 23.831875,27.3705713 C24.9821876,27.3901281 25.8996875,28.3625144 25.8806249,29.5429716 C25.8806249,29.5817644 25.8793749,29.6202369 25.8771876,29.6587091 C25.8125,30.8122357 24.84875,31.6932506 23.724375,31.6268858 C23.6790625,31.6278475 23.6340625,31.6268858 23.58875,31.6246415 C22.44375,31.5662921 21.5615625,30.5666543 21.6184375,29.3919681 C21.6753125,28.2172816 22.6496875,27.3122217 23.7946875,27.3705713 Z M30.9631251,27.3705713 C32.2212499,27.3606326 33.056875,28.1970837 33.0634376,29.4730803 C33.0703125,30.7833815 32.278125,31.6217562 31.0281251,31.6272365 C29.7568749,31.6329774 28.92,30.8080679 28.9131251,29.5397655 C28.9093749,29.4750041 28.9084375,29.4102424 28.9103124,29.3454807 C28.9456251,28.2185641 29.8646876,27.3343431 30.9631251,27.3705713 Z M45.9718749,25.7540952 C46.3065624,27.0365038 46.9581249,27.4872704 48.2740625,27.5488261 C48.4896876,27.5590855 48.704375,27.5965959 49,27.6302592 L49,31.3248786 C48.8400001,31.3787398 48.6759375,31.4191355 48.5093751,31.445425 C46.7459376,31.5579563 45.9421876,32.3001505 45.7640626,34.1141174 C45.6503125,35.2721325 45.6596875,36.4429718 45.5815626,37.6051547 C45.5487501,38.8811512 45.4356251,40.1536214 45.2428124,41.4145498 C44.7928124,43.6991609 43.4025001,44.8389016 41.1053125,44.978043 C40.3659375,45.0229273 39.6212501,44.9850962 38.8240626,44.9850962 L38.8240626,41.6828937 C39.2531251,41.6556427 39.6318751,41.618132 40.0115626,41.6088346 C41.3840626,41.5751714 41.869375,41.1211987 41.9365625,39.7227319 C42.0109375,38.1864064 42.0434375,36.6481571 42.1103125,35.111511 C42.2075001,32.8903789 42.8003126,30.9061722 44.8171875,29.5208501 C43.663125,28.6767045 42.7365624,27.6543042 42.4965625,26.2757149 C42.2062501,24.6047364 42.1125,22.8968885 41.95625,21.202506 C41.8790626,20.355475 41.8828125,19.5010702 41.8021875,18.6546805 C41.7153126,17.7409643 41.1034375,17.4248505 40.2928126,17.404332 C39.8284374,17.3927903 39.3621876,17.4020878 38.7684376,17.4020878 L38.7684376,14.1774711 C42.5571874,13.5320989 45.1743751,14.8254081 45.4175,18.5443933 C45.5193751,20.1060465 45.504375,21.6750736 45.601875,23.2367269 C45.6446874,24.0863225 45.7684376,24.9295064 45.9718749,25.7540952 Z" id="Shape" fill="#FFFFFF"></path>
        </g>
    </g>
</svg>