<?xml version="1.0" encoding="UTF-8"?>
<svg width="73px" height="73px" viewBox="0 0 73 73" version="1.1" xmlns="http://www.w3.org/2000/svg" xmlns:xlink="http://www.w3.org/1999/xlink">
    <!-- Generator: Sketch 51.3 (57544) - http://www.bohemiancoding.com/sketch -->
    <title>databases-and-servers/servers/peer-to-peer</title>
    <desc>Created with Sketch.</desc>
    <defs></defs>
    <g id="databases-and-servers/servers/peer-to-peer" stroke="none" stroke-width="1" fill="none" fill-rule="evenodd">
        <g id="container" transform="translate(2.000000, 2.000000)" fill="#FFFFFF" fill-rule="nonzero" stroke="#080D4B" stroke-width="2">
            <rect id="mask" x="-1" y="-1" width="71" height="71" rx="14"></rect>
        </g>
        <g id="phone-(1)" transform="translate(15.000000, 15.000000)" fill-rule="nonzero">
            <path d="M21.5531463,41.1060868 C20.8261566,41.1060868 20.2369538,40.5165558 20.2369538,39.7898941 L20.2369538,29.7570419 C20.2369538,29.0300522 20.8261566,28.4408493 21.5531463,28.4408493 C22.279808,28.4408493 22.869339,29.0303802 22.869339,29.7570419 L22.869339,39.7895661 C22.869339,40.5165558 22.279808,41.1060868 21.5531463,41.1060868 Z" id="Shape" fill="#DAE3E5"></path>
            <path d="M24.0139542,40.0349578 C24.0139542,38.6771012 22.9123153,37.5761185 21.5531463,37.5761185 C20.1939774,37.5761185 19.0920105,38.6771012 19.0920105,40.0349578 C19.0920105,41.3931427 20.1939774,42.4937973 21.5531463,42.4937973 C22.9123153,42.4937973 24.0139542,41.3931427 24.0139542,40.0349578 Z" id="Shape" fill="#176EE5"></path>
            <path d="M20.2366257,29.7570419 L20.2366257,39.7895661 C20.2366257,40.5165558 20.8261566,41.1057586 21.5531463,41.1057586 L21.5531463,28.4408493 C20.8261566,28.4408493 20.2366257,29.0303802 20.2366257,29.7570419 Z" id="Shape" fill="#E6EFF2"></path>
            <path d="M19.0920105,40.0349578 C19.0920105,41.3931427 20.1939774,42.4937973 21.5531463,42.4937973 L21.5531463,37.5761185 C20.1939774,37.5761185 19.0920105,38.6771012 19.0920105,40.0349578 Z" id="Shape" fill="#3399FF"></path>
            <path d="M21.5531463,14.0782089 C20.8261566,14.0782089 20.2369538,13.489006 20.2369538,12.7620163 L20.2369538,2.54971313 C20.2369538,1.82272339 20.8261566,1.23352051 21.5531463,1.23352051 C22.279808,1.23352051 22.869339,1.82305143 22.869339,2.54971313 L22.869339,12.7620163 C22.869339,13.489006 22.279808,14.0782089 21.5531463,14.0782089 Z" id="Shape" fill="#DAE3E5"></path>
            <path d="M24.0139542,2.50083162 C24.0139542,1.14297485 22.9123153,0.0419921875 21.5531463,0.0419921875 C20.1939774,0.0419921875 19.0920105,1.14297485 19.0920105,2.50083162 C19.0920105,3.85868831 20.1939774,4.95967106 21.5531463,4.95967106 C22.9123153,4.95967106 24.0139542,3.85868831 24.0139542,2.50083162 Z" id="Shape" fill="#176EE5"></path>
            <path d="M20.2366257,2.54971313 L20.2366257,12.7620163 C20.2366257,13.489006 20.8261566,14.0782089 21.5531463,14.0782089 L21.5531463,1.23352051 C20.8261566,1.23352051 20.2366257,1.82305143 20.2366257,2.54971313 Z" id="Shape" fill="#E6EFF2"></path>
            <path d="M19.0920105,2.50083162 C19.0920105,3.85868831 20.1939774,4.95967106 21.5531463,4.95967106 L21.5531463,0.0419921875 C20.1939774,0.0419921875 19.0920105,1.14297485 19.0920105,2.50083162 Z" id="Shape" fill="#3399FF"></path>
            <path d="M14.1740036,22.5314331 L2.41947176,22.5314331 C1.69248202,22.5314331 1.10327913,21.9422302 1.10327913,21.2152405 C1.10327913,20.4882507 1.69248202,19.8990479 2.41947176,19.8990479 L14.1740036,19.8990479 C14.9009933,19.8990479 15.4901962,20.4882507 15.4901962,21.2152405 C15.4901962,21.9422302 14.9009933,22.5314331 14.1740036,22.5314331 Z" id="Shape" fill="#E6EFF2"></path>
            <path d="M15.1070175,16.2782059 C14.7727204,16.2782059 14.4380951,16.1515732 14.1815491,15.8976517 L2.53921509,4.37145231 C2.02218628,3.8603287 2.01759343,3.0267181 2.52904508,2.51001742 C3.04016878,1.99331665 3.87345125,1.9887238 4.39048006,2.49984741 L16.032814,14.0260467 C16.5498429,14.5371704 16.5541077,15.3707809 16.0429841,15.8874817 C15.7854538,16.1476364 15.4465637,16.2782059 15.1070175,16.2782059 Z" id="Shape" fill="#E6EFF2"></path>
            <path d="M3.00440983,40.8770981 C2.66486361,40.8770981 2.32564543,40.7465286 2.06844328,40.4860458 C1.55731966,39.969017 1.56191252,39.1357345 2.07894132,38.6246109 L13.6248245,27.1948624 C14.1418534,26.6837387 14.9751358,26.6886597 15.4862594,27.2056885 C15.9973831,27.7227173 15.9924622,28.5559998 15.4754333,29.0671234 L3.92955013,40.4968719 C3.67300415,40.7504654 3.33870695,40.8770981 3.00440983,40.8770981 Z" id="Shape" fill="#E6EFF2"></path>
            <g id="Group" transform="translate(27.042969, 1.847656)" fill="#DAE3E5">
                <path d="M12.1797028,20.6837769 L1.72725675,20.6837769 C1.00026701,20.6837769 0.411064127,20.094574 0.411064127,19.3675842 C0.411064127,18.6405945 1.00026701,18.0513916 1.72725675,18.0513916 L12.1797028,18.0513916 C12.9066925,18.0513916 13.4958953,18.6405945 13.4958953,19.3675842 C13.4958953,20.094574 12.9066925,20.6837769 12.1797028,20.6837769 Z" id="Shape"></path>
                <path d="M1.34768677,14.0398254 C1.00814054,14.0398254 0.669250488,13.909256 0.411720297,13.6487732 C-0.0994034023,13.1317444 -0.0948104648,12.2984619 0.422218344,11.7873382 L11.9015046,0.424186686 C12.4182052,-0.0869369297 13.2518158,-0.0820159492 13.7629395,0.435012859 C14.2740632,0.952041668 14.2691422,1.78532405 13.7521134,2.29644775 L2.27315519,13.6595993 C2.01660921,13.9131927 1.68198397,14.0398254 1.34768677,14.0398254 Z" id="Shape"></path>
                <path d="M13.0864715,39.0563431 C12.7521744,39.0563431 12.4178772,38.9297104 12.1613312,38.6761169 L0.431404135,27.0626526 C-0.0852966309,26.551529 -0.0902176113,25.7179184 0.421234131,25.2012176 C0.932029703,24.6841888 1.7656403,24.6795959 2.28266911,25.1907196 L14.0122681,36.8041839 C14.5289688,37.3153076 14.5338898,38.1485901 14.0224381,38.6656189 C13.7652359,38.9261017 13.4260177,39.0563431 13.0864715,39.0563431 Z" id="Shape"></path>
            </g>
            <polygon id="Shape" fill="#141B73" points="13.8032913 12.1455841 29.3036576 12.1455841 29.3036576 28.9503327 13.8032913 28.9503327"></polygon>
            <path d="M4.92194369,2.50083162 C4.92194369,1.14297485 3.82030485,0.0419921875 2.46113591,0.0419921875 C1.10196688,0.0419921875 0,1.14297485 0,2.50083162 C0,3.85868831 1.10196688,4.95967106 2.46113591,4.95967106 C3.82030485,4.95967106 4.92194369,3.85868831 4.92194369,2.50083162 Z" id="Shape" fill="#3399FF"></path>
            <path d="M43,2.50083162 C43,1.14297485 41.8980331,0.0419921875 40.5388641,0.0419921875 C39.1796952,0.0419921875 38.0780563,1.14297485 38.0780563,2.50083162 C38.0780563,3.85868831 39.1796952,4.95967106 40.5388641,4.95967106 C41.8980331,4.95967106 43,3.85868831 43,2.50083162 Z" id="Shape" fill="#176EE5"></path>
            <path d="M4.92194369,40.0349578 C4.92194369,38.6771012 3.82030485,37.5761185 2.46113591,37.5761185 C1.10196688,37.5761185 0,38.6771012 0,40.0349578 C0,41.3931427 1.10196688,42.4937973 2.46113591,42.4937973 C3.82030485,42.4937973 4.92194369,41.3931427 4.92194369,40.0349578 Z" id="Shape" fill="#3399FF"></path>
            <path d="M43,40.0349578 C43,38.6771012 41.8980331,37.5761185 40.5388641,37.5761185 C39.1796952,37.5761185 38.0780563,38.6771012 38.0780563,40.0349578 C38.0780563,41.3931427 39.1796952,42.4937973 40.5388641,42.4937973 C41.8980331,42.4937973 43,41.3931427 43,40.0349578 Z" id="Shape" fill="#176EE5"></path>
            <path d="M4.92194369,21.2680588 C4.92194369,19.9098739 3.82030485,18.8092194 2.46113591,18.8092194 C1.10196688,18.8092194 0,19.9098739 0,21.2680588 C0,22.6259155 1.10196688,23.7268982 2.46113591,23.7268982 C3.82030485,23.7268982 4.92194369,22.6259155 4.92194369,21.2680588 Z" id="Shape" fill="#3399FF"></path>
            <path d="M43,21.2680588 C43,19.9098739 41.8980331,18.8092194 40.5388641,18.8092194 C39.1796952,18.8092194 38.0780563,19.9098739 38.0780563,21.2680588 C38.0780563,22.6259155 39.1796952,23.7268982 40.5388641,23.7268982 C41.8980331,23.7268982 43,22.6259155 43,21.2680588 Z" id="Shape" fill="#176EE5"></path>
            <polygon id="Shape" fill="#004199" points="13.8032913 12.1455841 21.5531463 12.1455841 21.5531463 28.9503327 13.8032913 28.9503327"></polygon>
            <path d="M29.3036576,12.3165055 C29.3036576,10.7378617 28.0192871,9.45349121 26.4406433,9.45349121 L16.6659775,9.45349121 C15.0873337,9.45349121 13.8032913,10.7378617 13.8032913,12.3165055 L13.8032913,13.2452546 L29.3036576,13.2452546 L29.3036576,12.3165055 Z" id="Shape" fill="#0059B2"></path>
            <path d="M16.6659775,9.45349121 C15.0873337,9.45349121 13.8032913,10.7378617 13.8032913,12.3165055 L13.8032913,13.2452546 L21.5528183,13.2452546 L21.5528183,9.45349121 L16.6659775,9.45349121 Z" id="Shape" fill="#176EE5"></path>
            <path d="M13.8032913,27.8506623 L13.8032913,30.2196121 C13.8032913,31.7982559 15.0876618,33.0822983 16.6663055,33.0822983 L26.4406433,33.0822983 C28.0196152,33.0822983 29.3039856,31.7982559 29.3039856,30.2196121 L29.3039856,27.8506623 L13.8032913,27.8506623 Z" id="Shape" fill="#0059B2"></path>
            <path d="M22.8585129,30.4200592 C22.9671021,31.280571 22.2424088,32.0042801 21.3812409,31.8953629 C20.7949906,31.8212204 20.3215942,31.3481522 20.2474518,30.7619019 C20.1391907,29.9013901 20.8635559,29.177681 21.7247238,29.2865982 C22.3109741,29.3607406 22.7843704,29.8338089 22.8585129,30.4200592 Z" id="Shape" fill="#141B73"></path>
            <path d="M13.8032913,30.2196121 C13.8032913,31.7982559 15.0876618,33.0822983 16.6663055,33.0822983 L21.5531463,33.0822983 L21.5531463,27.8506623 L13.8032913,27.8506623 L13.8032913,30.2196121 Z" id="Shape" fill="#176EE5"></path>
            <path d="M20.2474518,30.7619019 C20.3215942,31.3481522 20.7949906,31.8212204 21.3812409,31.8953629 C21.4393082,31.9025802 21.4963913,31.9058609 21.5531463,31.9058609 L21.5531463,29.2761002 C20.7697297,29.2761002 20.146408,29.9591293 20.2474518,30.7619019 Z" id="Shape" fill="#004199"></path>
        </g>
    </g>
</svg>