<?xml version="1.0" encoding="UTF-8"?>
<svg width="73px" height="73px" viewBox="0 0 73 73" version="1.1" xmlns="http://www.w3.org/2000/svg" xmlns:xlink="http://www.w3.org/1999/xlink">
    <!-- Generator: Sketch 51.3 (57544) - http://www.bohemiancoding.com/sketch -->
    <title>databases-and-servers/servers/proxy-server</title>
    <desc>Created with Sketch.</desc>
    <defs></defs>
    <g id="databases-and-servers/servers/proxy-server" stroke="none" stroke-width="1" fill="none" fill-rule="evenodd">
        <g id="container" transform="translate(2.000000, 2.000000)" fill="#FFFFFF" fill-rule="nonzero" stroke="#293A4B" stroke-width="2">
            <rect id="mask" x="-1" y="-1" width="71" height="71" rx="14"></rect>
        </g>
        <g id="server" transform="translate(13.000000, 13.000000)" fill-rule="nonzero">
            <path d="M21.8793103,27.5517241 L21.8793103,33.2241379 L4.05172414,33.2241379 C2.71072643,33.2280543 1.62460604,34.3141747 1.62068966,35.6551724 L1.62068966,42.9482759 L4.86206897,42.9482759 L4.86206897,36.4655172 L21.8793103,36.4655172 L21.8793103,42.9482759 L25.1206897,42.9482759 L25.1206897,36.4655172 L42.137931,36.4655172 L42.137931,42.9482759 L45.3793103,42.9482759 L45.3793103,35.6551724 C45.3753939,34.3141747 44.2892735,33.2280543 42.9482759,33.2241379 L25.1206897,33.2241379 L25.1206897,27.5517241 L21.8793103,27.5517241 Z" id="Shape" fill="#F3D55B"></path>
            <path d="M33.2241401,9.7241401 C33.8691543,9.72327838 34.4879983,9.97912774 34.9440926,10.4352221 C35.4001869,10.8913164 35.6560363,11.5101604 35.6551746,12.1551746 L35.6551746,17.0172435 C35.6560363,17.6622578 35.4001869,18.2811017 34.9440926,18.7371961 C34.4879983,19.1932904 33.8691543,19.4491398 33.2241401,19.448278 C33.8691543,19.4474163 34.4879983,19.7032657 34.9440926,20.15936 C35.4001869,20.6154543 35.6560363,21.2342983 35.6551746,21.8793125 L35.6551746,26.7413815 C35.6560363,27.3863957 35.4001869,28.0052397 34.9440926,28.461334 C34.4879983,28.9174283 33.8691543,29.1732777 33.2241401,29.172416 L13.7758642,29.172416 C13.13085,29.1732777 12.512006,28.9174283 12.0559117,28.461334 C11.5998174,28.0052397 11.343968,27.3863957 11.3448298,26.7413815 L11.3448298,21.8793125 C11.343968,21.2342983 11.5998174,20.6154543 12.0559117,20.15936 C12.512006,19.7032657 13.13085,19.4474163 13.7758642,19.448278 C13.13085,19.4491398 12.512006,19.1932904 12.0559117,18.7371961 C11.5998174,18.2811017 11.343968,17.6622578 11.3448298,17.0172435 L11.3448298,12.1551746 C11.343968,11.5101604 11.5998174,10.8913164 12.0559117,10.4352221 C12.512006,9.97912774 13.13085,9.72327838 13.7758642,9.7241401 C13.13085,9.72500182 12.512006,9.46915246 12.0559117,9.01305814 C11.5998174,8.55696382 11.343968,7.93811984 11.3448298,7.29310562 L11.3448298,2.43103665 C11.343968,1.78602243 11.5998174,1.16717848 12.0559117,0.71108414 C12.512006,0.254989803 13.13085,-0.000859575161 13.7758642,2.16983933e-06 L33.2241401,2.16983933e-06 C33.8691543,-0.000859575161 34.4879983,0.254989803 34.9440926,0.71108414 C35.4001869,1.16717848 35.6560363,1.78602243 35.6551746,2.43103665 L35.6551746,7.29310562 C35.6560363,7.93811984 35.4001869,8.55696382 34.9440926,9.01305814 C34.4879983,9.46915246 33.8691543,9.72500182 33.2241401,9.7241401 Z" id="Shape" fill="#3F5C6C"></path>
            <circle id="Oval" fill="#3F5C6C" cx="3.24137931" cy="43.7586207" r="3.24137931"></circle>
            <circle id="Oval" fill="#3F5C6C" cx="43.7586207" cy="43.7586207" r="3.24137931"></circle>
            <circle id="Oval" fill="#3F5C6C" cx="23.5" cy="43.7586207" r="3.24137931"></circle>
            <rect id="Rectangle-path" fill="#547580" x="11.3448276" y="9.72413793" width="24.3103448" height="9.72413793" rx="3"></rect>
            <g id="Group" transform="translate(14.586207, 3.241379)" fill="#14A085">
                <circle id="Oval" cx="16.2068966" cy="1.62068966" r="1.62068966"></circle>
                <path d="M0.810344828,3.24137931 C0.362803778,3.24137931 0,2.87857557 0,2.43103448 L0,0.810344828 C0,0.362803737 0.362803778,0 0.810344828,0 C1.25788588,0 1.62068966,0.362803737 1.62068966,0.810344828 L1.62068966,2.43103448 C1.62068966,2.87857557 1.25788588,3.24137931 0.810344828,3.24137931 Z" id="Shape"></path>
                <path d="M4.05172414,3.24137931 C3.60418309,3.24137931 3.24137931,2.87857557 3.24137931,2.43103448 L3.24137931,0.810344828 C3.24137931,0.362803737 3.60418309,0 4.05172414,0 C4.49926519,0 4.86206897,0.362803737 4.86206897,0.810344828 L4.86206897,2.43103448 C4.86206897,2.87857557 4.49926519,3.24137931 4.05172414,3.24137931 Z" id="Shape"></path>
                <path d="M7.29310345,3.24137931 C6.8455624,3.24137931 6.48275862,2.87857557 6.48275862,2.43103448 L6.48275862,0.810344828 C6.48275862,0.362803737 6.8455624,0 7.29310345,0 C7.7406445,0 8.10344828,0.362803737 8.10344828,0.810344828 L8.10344828,2.43103448 C8.10344828,2.87857557 7.7406445,3.24137931 7.29310345,3.24137931 Z" id="Shape"></path>
                <path d="M10.5344828,3.24137931 C10.0869417,3.24137931 9.72413793,2.87857557 9.72413793,2.43103448 L9.72413793,0.810344828 C9.72413793,0.362803737 10.0869417,0 10.5344828,0 C10.9820238,0 11.3448276,0.362803737 11.3448276,0.810344828 L11.3448276,2.43103448 C11.3448276,2.87857557 10.9820238,3.24137931 10.5344828,3.24137931 Z" id="Shape"></path>
                <circle id="Oval" cx="16.2068966" cy="11.3448276" r="1.62068966"></circle>
                <path d="M0.810344828,12.9655172 C0.362803778,12.9655172 0,12.6027135 0,12.1551724 L0,10.5344828 C0,10.0869417 0.362803778,9.72413793 0.810344828,9.72413793 C1.25788588,9.72413793 1.62068966,10.0869417 1.62068966,10.5344828 L1.62068966,12.1551724 C1.62068966,12.6027135 1.25788588,12.9655172 0.810344828,12.9655172 Z" id="Shape"></path>
                <path d="M4.05172414,12.9655172 C3.60418309,12.9655172 3.24137931,12.6027135 3.24137931,12.1551724 L3.24137931,10.5344828 C3.24137931,10.0869417 3.60418309,9.72413793 4.05172414,9.72413793 C4.49926519,9.72413793 4.86206897,10.0869417 4.86206897,10.5344828 L4.86206897,12.1551724 C4.86206897,12.6027135 4.49926519,12.9655172 4.05172414,12.9655172 Z" id="Shape"></path>
                <path d="M7.29310345,12.9655172 C6.8455624,12.9655172 6.48275862,12.6027135 6.48275862,12.1551724 L6.48275862,10.5344828 C6.48275862,10.0869417 6.8455624,9.72413793 7.29310345,9.72413793 C7.7406445,9.72413793 8.10344828,10.0869417 8.10344828,10.5344828 L8.10344828,12.1551724 C8.10344828,12.6027135 7.7406445,12.9655172 7.29310345,12.9655172 Z" id="Shape"></path>
                <path d="M10.5344828,12.9655172 C10.0869417,12.9655172 9.72413793,12.6027135 9.72413793,12.1551724 L9.72413793,10.5344828 C9.72413793,10.0869417 10.0869417,9.72413793 10.5344828,9.72413793 C10.9820238,9.72413793 11.3448276,10.0869417 11.3448276,10.5344828 L11.3448276,12.1551724 C11.3448276,12.6027135 10.9820238,12.9655172 10.5344828,12.9655172 Z" id="Shape"></path>
                <circle id="Oval" cx="16.2068966" cy="21.0689655" r="1.62068966"></circle>
                <path d="M0.810344828,22.6896552 C0.362803778,22.6896552 0,22.3268514 0,21.8793103 L0,20.2586207 C0,19.8110796 0.362803778,19.4482759 0.810344828,19.4482759 C1.25788588,19.4482759 1.62068966,19.8110796 1.62068966,20.2586207 L1.62068966,21.8793103 C1.62068966,22.3268514 1.25788588,22.6896552 0.810344828,22.6896552 Z" id="Shape"></path>
                <path d="M4.05172414,22.6896552 C3.60418309,22.6896552 3.24137931,22.3268514 3.24137931,21.8793103 L3.24137931,20.2586207 C3.24137931,19.8110796 3.60418309,19.4482759 4.05172414,19.4482759 C4.49926519,19.4482759 4.86206897,19.8110796 4.86206897,20.2586207 L4.86206897,21.8793103 C4.86206897,22.3268514 4.49926519,22.6896552 4.05172414,22.6896552 Z" id="Shape"></path>
                <path d="M7.29310345,22.6896552 C6.8455624,22.6896552 6.48275862,22.3268514 6.48275862,21.8793103 L6.48275862,20.2586207 C6.48275862,19.8110796 6.8455624,19.4482759 7.29310345,19.4482759 C7.7406445,19.4482759 8.10344828,19.8110796 8.10344828,20.2586207 L8.10344828,21.8793103 C8.10344828,22.3268514 7.7406445,22.6896552 7.29310345,22.6896552 Z" id="Shape"></path>
                <path d="M10.5344828,22.6896552 C10.0869417,22.6896552 9.72413793,22.3268514 9.72413793,21.8793103 L9.72413793,20.2586207 C9.72413793,19.8110796 10.0869417,19.4482759 10.5344828,19.4482759 C10.9820238,19.4482759 11.3448276,19.8110796 11.3448276,20.2586207 L11.3448276,21.8793103 C11.3448276,22.3268514 10.9820238,22.6896552 10.5344828,22.6896552 Z" id="Shape"></path>
            </g>
        </g>
    </g>
</svg>