<?xml version="1.0" encoding="UTF-8"?>
<svg width="73px" height="73px" viewBox="0 0 73 73" version="1.1" xmlns="http://www.w3.org/2000/svg" xmlns:xlink="http://www.w3.org/1999/xlink">
    <!-- Generator: Sketch 51.3 (57544) - http://www.bohemiancoding.com/sketch -->
    <title>databases-and-servers/servers/request-reply-protocol</title>
    <desc>Created with Sketch.</desc>
    <defs></defs>
    <g id="databases-and-servers/servers/request-reply-protocol" stroke="none" stroke-width="1" fill="none" fill-rule="evenodd">
        <g id="container" transform="translate(2.000000, 2.000000)" fill="#FFFFFF" fill-rule="nonzero" stroke="#481F55" stroke-width="2">
            <rect id="mask" x="-1" y="-1" width="71" height="71" rx="14"></rect>
        </g>
        <g id="email" transform="translate(16.000000, 17.000000)" fill-rule="nonzero">
            <path d="M37.68,1.32 C36.8395329,0.471912638 35.693995,-0.0035936175 34.5,9.99200722e-16 L4.5,9.99200722e-16 C2.01626,0.003717255 0.003717255,2.01625999 0,4.5 L0,28.5 C0.010599555,30.9808776 2.01912237,32.9894005 4.5,33 L32.25,33 L36.1125,30.105 L39,27.9375 L39,4.5 C39.0035936,3.30600492 38.5280873,2.16046713 37.68,1.32 Z" id="Shape" fill="#F3D55B"></path>
            <path d="M39,4.5 L39,27.9375 L36.1125,30.105 L23.2125,17.1525 L22.53,16.47 L37.68,1.32 C38.5280873,2.16046713 39.0035936,3.30600492 39,4.5 Z" id="Shape" fill="#F0C419"></path>
            <path d="M37.68,1.32 L22.53,16.47 L21.6225,17.3775 C20.4493563,18.5475028 18.5506437,18.5475028 17.3775,17.3775 L16.47,16.47 L1.32,1.32 C2.16046713,0.471912638 3.30600492,-0.0035936175 4.5,1.03058499e-15 L34.5,1.03058499e-15 C35.693995,-0.0035936175 36.8395329,0.471912638 37.68,1.32 Z" id="Shape" fill="#F3D55B"></path>
            <path d="M16.47,16.47 L1.2975,31.65 C0.461999355,30.8152005 -0.005154645,29.6810694 1.66513125e-16,28.5 L1.66513125e-16,4.5 C-0.0035936175,3.30600492 0.471912637,2.16046713 1.32,1.32 L16.47,16.47 Z" id="Shape" fill="#F0C419"></path>
            <path d="M36.1125,30.105 L32.25,33 L4.5,33 C3.29393026,33.0012559 2.13870811,32.514277 1.2975,31.65 L16.47,16.47 L17.3775,17.3775 C18.5506437,18.5475029 20.4493563,18.5475029 21.6225,17.3775 L22.53,16.47 L23.2125,17.1525 L36.1125,30.105 Z" id="Shape" fill="#F29C1F"></path>
            <path d="M41.01,30.555 L33.51,38.055 C33.2895858,38.2549119 32.9721802,38.3064203 32.6998588,38.1864692 C32.4275374,38.0665182 32.251287,37.797566 32.25,37.5 L32.25,33.7425 C32.2470091,33.3324427 31.9175066,32.9996119 31.5075,32.9925 C17.5875,32.7075 16.4775,24.33 16.47,21.75 C16.4691771,21.6389098 16.492195,21.5289355 16.5375,21.4275 C16.6630858,21.164917 16.9289345,20.9983963 17.22,21 L26.295,21 C26.6790607,21.0010836 26.9999269,21.29278 27.0375,21.675 C27.18,23.2125 27.87,26.9025 31.08,27.63 C31.185,27.6525 31.29,27.675 31.4025,27.69 C31.4371654,27.6959697 31.472338,27.698482 31.5075,27.6975 C31.9199863,27.6893303 32.2500809,27.3525671 32.25,26.94 L32.25,22.5 C32.251287,22.202434 32.4275374,21.9334818 32.6998588,21.8135308 C32.9721802,21.6935797 33.2895858,21.7450881 33.51,21.945 L41.01,29.445 C41.164294,29.5883239 41.2519602,29.7894094 41.2519602,30 C41.2519602,30.2105905 41.164294,30.4116761 41.01,30.555 Z" id="Shape" fill="#894B9D"></path>
        </g>
    </g>
</svg>