<?xml version="1.0" encoding="UTF-8"?>
<svg width="73px" height="73px" viewBox="0 0 73 73" version="1.1" xmlns="http://www.w3.org/2000/svg" xmlns:xlink="http://www.w3.org/1999/xlink">
    <!-- Generator: Sketch 51.3 (57544) - http://www.bohemiancoding.com/sketch -->
    <title>databases-and-servers/servers/rest-api</title>
    <desc>Created with Sketch.</desc>
    <defs></defs>
    <g id="databases-and-servers/servers/rest-api" stroke="none" stroke-width="1" fill="none" fill-rule="evenodd">
        <g id="container" transform="translate(2.000000, 2.000000)" fill="#FFFFFF" fill-rule="nonzero" stroke="#5C0510" stroke-width="2">
            <rect id="mask" x="-1" y="-1" width="71" height="71" rx="14"></rect>
        </g>
        <g id="dreamcatcher" transform="translate(15.000000, 12.000000)">
            <polygon id="Shape" fill="#FDBF00" fill-rule="nonzero" points="21.580078 35.9667967 20.1414061 35.9667967 20.1414061 41.7214841 21.580078 41.7214841 23.0187499 41.7214841 23.0187499 35.9667967"></polygon>
            <polygon id="Shape" fill="#FF9100" fill-rule="nonzero" points="21.580078 35.9667967 23.0187499 35.9667967 23.0187499 41.7214841 21.580078 41.7214841"></polygon>
            <g id="Group" transform="translate(10.933906, 8.056562)">
                <path d="M7.13255147,14.159984 C5.66261247,14.323513 4.19181026,13.8694682 2.70499084,12.7291769 C1.25471369,15.0057312 0.439849945,18.7209574 0.0766332548,21.2156145 C2.57129027,20.8523978 6.28632468,20.0377258 8.56287904,18.5874487 C7.42441004,17.1030271 6.96892652,15.6321289 7.13255147,14.159984 Z" id="Shape"></path>
                <path d="M2.70470311,8.5625913 C4.18902883,7.42402639 5.65983103,6.96883061 7.13255147,7.13255147 C6.96883061,5.66031059 7.42441004,4.18922065 8.56297495,2.70479902 C6.28642059,1.25461778 2.57138618,0.439849945 0.0767291662,0.0767291662 C0.439849945,2.57138618 1.25442596,6.28603694 2.70470311,8.5625913 Z" id="Shape"></path>
                <path d="M8.43512498,10.6507756 C7.21330892,9.79112117 6.09603634,9.72072216 4.74761716,10.6440618 C6.15473416,11.602409 7.27622683,11.4720654 8.43512498,10.6507756 Z" id="Shape"></path>
            </g>
            <path d="M35.2221401,6.60887491 L33.6738414,5.06057625 C33.3229973,5.08906195 25.6939122,5.73195645 21.5799821,8.70348524 C17.4662438,5.73205236 9.83715867,5.08906195 9.48621864,5.06067216 L7.93791998,6.60897082 C7.96640568,6.95981493 8.60930018,14.5889 11.580829,18.7028302 C8.6093961,22.8166644 7.96640568,30.4457495 7.93791998,30.7966895 L9.48621864,32.3449882 C9.83706276,32.3165025 17.4661478,31.673608 21.580078,28.7020792 C25.6939122,31.6735121 33.3229973,32.3165025 33.6739374,32.3449882 L35.222236,30.7966895 C35.1937503,30.4458454 34.5508558,22.8167603 31.579327,18.7028302 C34.5507599,14.5889 35.1937503,6.95981493 35.2221401,6.60887491 Z M32.1495206,8.13329162 C31.786304,10.6279486 30.9718239,14.3427912 29.5215467,16.6193456 C28.037221,15.4807807 26.5666106,15.0253931 25.0937943,15.1891139 C25.2575151,13.716873 24.8017439,12.245879 23.663179,10.7613615 C25.9398292,9.31118023 29.6548636,8.4964124 32.1495206,8.13329162 Z M27.479304,18.7012956 C26.0723789,19.6605061 24.9505984,19.5298747 23.7907412,18.7072421 C25.0102554,17.8488346 26.1279116,17.7754623 27.479304,18.7012956 Z M11.0106354,29.2721769 C11.373852,26.7775199 12.1887158,23.0622937 13.6389929,20.7857393 C15.1258124,21.9260306 16.5966146,22.3799796 18.0665536,22.2165464 C17.9028327,23.6887873 18.3584121,25.1595895 19.496977,26.6441071 C17.2203268,28.0942883 13.5052924,28.9090561 11.0106354,29.2721769 Z M15.6815233,18.7006242 C17.0299425,17.7771887 18.1472151,17.8476836 19.3690312,18.707338 C18.210133,19.5286278 17.0886403,19.6589715 15.6815233,18.7006242 Z M18.0664577,15.1891139 C16.5937372,15.0253931 15.122935,15.4806848 13.6386093,16.6191538 C12.1883321,14.3425994 11.373852,10.6279486 11.0106354,8.13319571 C13.5052924,8.4964124 17.2203268,9.31108432 19.4968811,10.7613615 C18.3583162,12.2457831 17.9028327,13.716873 18.0664577,15.1891139 Z M21.580078,24.5975484 C20.6227857,23.1895682 20.7552395,22.0680755 21.580078,20.9074509 C22.4049165,22.0681714 22.5373703,23.1896641 21.580078,24.5975484 Z M21.580078,16.4980176 C20.7552395,15.337393 20.6227857,14.2158044 21.580078,12.8079202 C22.5373703,14.2158044 22.4049165,15.3372971 21.580078,16.4980176 Z M32.1495206,29.2721769 C29.6548636,28.9089602 25.9398292,28.0942883 23.6632749,26.6440111 C24.8018398,25.1596854 25.2575151,23.6888832 25.0938902,22.2166423 C26.5638292,22.3801714 28.0344396,21.9261265 29.521259,20.7857393 C30.9714402,23.0622937 31.7863999,26.7775199 32.1495206,29.2721769 Z" id="Shape" fill="#76E2F8" fill-rule="nonzero"></path>
            <path d="M35.2221401,30.7965936 C35.1936544,30.4457495 34.5507599,22.8166644 31.5792311,18.7027343 C34.550664,14.5889 35.1936544,6.95981493 35.2221401,6.60887491 L33.6738414,5.06057625 C33.3229973,5.08906195 25.6939122,5.73195645 21.5799821,8.70348524 L21.5799821,12.8079202 C22.5372743,14.2159004 22.4048206,15.337393 21.5799821,16.4980176 L21.5799821,20.9074509 C22.4048206,22.0680755 22.5372743,23.1896641 21.5799821,24.5975484 L21.5799821,28.7019833 C25.6938163,31.6734162 33.3229014,32.3164066 33.6738414,32.3448923 L35.2221401,30.7965936 Z M32.1495206,8.13329162 C31.786304,10.6279486 30.9718239,14.3427912 29.5215467,16.6193456 C28.037221,15.4807807 26.5666106,15.0253931 25.0937943,15.1891139 C25.2575151,13.716873 24.8017439,12.245879 23.663179,10.7613615 C25.9398292,9.31118023 29.6548636,8.4964124 32.1495206,8.13329162 Z M27.479304,18.7012956 C26.0723789,19.6605061 24.9505984,19.5298747 23.7907412,18.7072421 C25.0102554,17.8488346 26.1279116,17.7754623 27.479304,18.7012956 Z M23.6632749,26.6440111 C24.8018398,25.1596854 25.2575151,23.6888832 25.0938902,22.2166423 C26.5638292,22.3801714 28.0344396,21.9261265 29.521259,20.7857393 C30.9715361,23.0622937 31.7863999,26.7775199 32.1496166,29.2721769 C29.6548636,28.9090561 25.9398292,28.0942883 23.6632749,26.6440111 Z" id="Shape" fill="#4BB9EC" fill-rule="nonzero"></path>
            <path d="M21.580078,0 C11.2508936,0 2.87734373,8.37354982 2.87734373,18.7027343 C2.87734373,29.0319187 11.2508936,37.4054685 21.580078,37.4054685 C31.9092624,37.4054685 40.2828123,29.0319187 40.2828123,18.7027343 C40.2828123,8.37354982 31.9092624,0 21.580078,0 Z M21.580078,34.5281248 C12.8539577,34.5281248 5.75468747,27.4288546 5.75468747,18.7027343 C5.75468747,9.97661393 12.8539577,2.87734373 21.580078,2.87734373 C30.3061983,2.87734373 37.4054685,9.97661393 37.4054685,18.7027343 C37.4054685,27.4288546 30.3061983,34.5281248 21.580078,34.5281248 Z" id="Shape" fill="#FF637B" fill-rule="nonzero"></path>
            <path d="M40.2828123,18.7027343 C40.2828123,8.37354982 31.9092624,0 21.580078,0 L21.580078,2.87734373 C30.3061983,2.87734373 37.4054685,9.97661393 37.4054685,18.7027343 C37.4054685,27.4288546 30.3061983,34.5281248 21.580078,34.5281248 L21.580078,37.4054685 C31.9092624,37.4054685 40.2828123,29.0319187 40.2828123,18.7027343 Z" id="Shape" fill="#E63950" fill-rule="nonzero"></path>
            <polygon id="Shape" fill="#FFF7CC" fill-rule="nonzero" points="38.8441404 20.1414061 37.4054685 20.1414061 37.4054685 31.6507811 38.8441404 34.5281248 40.2828123 31.6507811 40.2828123 20.1414061"></polygon>
            <polygon id="Shape" fill="#FFE6B3" fill-rule="nonzero" points="40.2828123 20.1414061 38.8441404 20.1414061 38.8441404 34.5281248 40.2828123 31.6507811"></polygon>
            <path d="M40.2828123,31.6507811 L38.8441404,31.6507811 L37.4054685,31.6507811 C36.2163583,32.8051714 34.5281248,35.5105459 34.5281248,40.0355525 L34.5281248,40.530072 C34.5281248,43.4945033 35.7307586,45.9932846 37.8269994,48.0894295 L38.8441404,49.1066664 L39.8612814,48.0895254 C41.9575222,45.9932846 43.160156,43.4945033 43.160156,40.530072 L43.160156,40.0355525 C43.160156,35.4836907 41.4738407,32.795772 40.2828123,31.6507811 Z" id="Shape" fill="#54E360" fill-rule="nonzero"></path>
            <path d="M43.160156,40.530072 L43.160156,40.0355525 C43.160156,35.4836907 41.4738407,32.795868 40.2828123,31.6507811 L38.8441404,31.6507811 L38.8441404,49.1066664 L39.8612814,48.0895254 C41.9575222,45.9932846 43.160156,43.4945033 43.160156,40.530072 Z" id="Shape" fill="#00CC71" fill-rule="nonzero"></path>
            <circle id="Oval" fill="#FFDA2D" fill-rule="nonzero" cx="38.8441404" cy="18.7027343" r="4.3160156"></circle>
            <path d="M43.160156,18.7027343 C43.160156,16.3227874 41.2240873,14.3867187 38.8441404,14.3867187 L38.8441404,23.0187499 C41.2240873,23.0187499 43.160156,21.0826812 43.160156,18.7027343 Z" id="Shape" fill="#FDBF00" fill-rule="nonzero"></path>
            <polygon id="Shape" fill="#FFF7CC" fill-rule="nonzero" points="4.3160156 20.1414061 2.87734373 20.1414061 2.87734373 31.6507811 4.3160156 34.5281248 5.75468747 31.6507811 5.75468747 20.1414061"></polygon>
            <polygon id="Shape" fill="#FFE6B3" fill-rule="nonzero" points="5.75468747 20.1414061 4.3160156 20.1414061 4.3160156 34.5281248 5.75468747 31.6507811"></polygon>
            <path d="M5.75468747,31.6507811 L4.3160156,31.6507811 L2.87734373,31.6507811 C1.68823348,32.8051714 0,35.5105459 0,40.0355525 L0,40.530072 C0,43.4945033 1.20263377,45.9932846 3.29887459,48.0894295 L4.3160156,49.1066664 L5.33315661,48.0895254 C7.42939743,45.9932846 8.6320312,43.4945033 8.6320312,40.530072 L8.6320312,40.0355525 C8.6320312,35.4836907 6.94571595,32.795772 5.75468747,31.6507811 Z" id="Shape" fill="#54E360" fill-rule="nonzero"></path>
            <path d="M8.6320312,40.530072 L8.6320312,40.0355525 C8.6320312,35.4836907 6.94571595,32.795868 5.75468747,31.6507811 L4.3160156,31.6507811 L4.3160156,49.1066664 L5.33315661,48.0895254 C7.42939743,45.9932846 8.6320312,43.4945033 8.6320312,40.530072 Z" id="Shape" fill="#00CC71" fill-rule="nonzero"></path>
            <circle id="Oval" fill="#FFDA2D" fill-rule="nonzero" cx="4.3160156" cy="18.7027343" r="4.3160156"></circle>
            <path d="M8.6320312,18.7027343 C8.6320312,16.3227874 6.69596251,14.3867187 4.3160156,14.3867187 L4.3160156,23.0187499 C6.69596251,23.0187499 8.6320312,21.0826812 8.6320312,18.7027343 Z" id="Shape" fill="#FDBF00" fill-rule="nonzero"></path>
            <path d="M21.580078,40.2828123 C19.2001311,40.2828123 17.2640624,42.4107039 17.2640624,44.7906508 L17.2640624,49.1066664 L21.580078,49.1066664 L25.8960936,49.1066664 L25.8960936,44.7906508 C25.8960936,42.4107039 23.9600249,40.2828123 21.580078,40.2828123 Z" id="Shape" fill="#FFDA2D" fill-rule="nonzero"></path>
            <path d="M25.8960936,44.7906508 C25.8960936,42.4107039 23.9600249,40.2828123 21.580078,40.2828123 L21.580078,49.1066664 L25.8960936,49.1066664 L25.8960936,44.7906508 Z" id="Shape" fill="#FDBF00" fill-rule="nonzero"></path>
        </g>
    </g>
</svg>