<?xml version="1.0" encoding="UTF-8"?>
<svg width="73px" height="73px" viewBox="0 0 73 73" version="1.1" xmlns="http://www.w3.org/2000/svg" xmlns:xlink="http://www.w3.org/1999/xlink">
    <!-- Generator: Sketch 51.3 (57544) - http://www.bohemiancoding.com/sketch -->
    <title>databases-and-servers/servers/ssh</title>
    <desc>Created with Sketch.</desc>
    <defs></defs>
    <g id="databases-and-servers/servers/ssh" stroke="none" stroke-width="1" fill="none" fill-rule="evenodd">
        <g id="container" transform="translate(2.000000, 2.000000)" fill="#FFFFFF" fill-rule="nonzero" stroke="#000000" stroke-width="2">
            <rect id="mask" x="-1" y="-1" width="71" height="71" rx="14"></rect>
        </g>
        <g id="terminal" transform="translate(11.000000, 17.000000)" fill="#000000" fill-rule="nonzero">
            <path d="M49.2407485,0.0215730994 L1.65983626,0.0215730994 C0.743128655,0.0215730994 0,0.76480117 0,1.68140936 L0,9.94480117 L50.9005848,9.94480117 L50.9005848,1.68140936 C50.9005848,0.76480117 50.1574561,0.0215730994 49.2407485,0.0215730994 Z M32.0399298,7.19626901 C30.8196082,7.19626901 29.826848,6.20350877 29.826848,4.98318713 C29.826848,3.7628655 30.8196082,2.77010526 32.0399298,2.77010526 C33.2602515,2.77010526 34.2530117,3.7628655 34.2530117,4.98318713 C34.2530117,6.20350877 33.2602515,7.19626901 32.0399298,7.19626901 Z M38.0686667,7.19626901 C36.848345,7.19626901 35.8555848,6.20350877 35.8555848,4.98318713 C35.8555848,3.7628655 36.848345,2.77010526 38.0686667,2.77010526 C39.2889883,2.77010526 40.2817485,3.7628655 40.2817485,4.98318713 C40.2817485,6.20350877 39.2889883,7.19626901 38.0686667,7.19626901 Z M44.0974035,7.19626901 C42.8770819,7.19626901 41.8843216,6.20350877 41.8843216,4.98318713 C41.8843216,3.7628655 42.8770819,2.77010526 44.0974035,2.77010526 C45.3177251,2.77010526 46.3104854,3.7628655 46.3104854,4.98318713 C46.3104854,6.20350877 45.3177251,7.19626901 44.0974035,7.19626901 Z" id="Shape"></path>
            <path d="M0,13.2643743 L0,37.0905205 C0,38.0071287 0.743128655,38.7503567 1.65983626,38.7503567 L49.240848,38.7503567 C50.1574561,38.7503567 50.9006842,38.0072281 50.9006842,37.0905205 L50.9006842,13.2643743 L0,13.2643743 Z M23.4073099,27.2714795 L17.9739708,31.8946842 C17.2758772,32.4887895 16.2283392,32.404386 15.6342339,31.706193 C15.0401287,31.0080994 15.1245322,29.9605614 15.8227251,29.3664561 L19.7704035,26.0073158 L15.8227251,22.6481754 C15.1245322,22.0540702 15.0402281,21.0066316 15.6342339,20.3084386 C16.2282398,19.6101462 17.2758772,19.5259415 17.9739708,20.1199474 L23.4073099,24.743152 C24.185731,25.4055556 24.185731,26.6091754 23.4073099,27.2714795 Z M34.0021871,32.2903567 L27.4453567,32.2903567 C26.5287485,32.2903567 25.7855205,31.5472281 25.7855205,30.6305205 C25.7855205,29.7138129 26.5286491,28.9706842 27.4453567,28.9706842 L34.0021871,28.9706842 C34.9187953,28.9706842 35.6620234,29.7138129 35.6620234,30.6305205 C35.6620234,31.5472281 34.9187953,32.2903567 34.0021871,32.2903567 Z" id="Shape"></path>
        </g>
    </g>
</svg>