<?xml version="1.0" encoding="UTF-8"?>
<svg width="73px" height="73px" viewBox="0 0 73 73" version="1.1" xmlns="http://www.w3.org/2000/svg" xmlns:xlink="http://www.w3.org/1999/xlink">
    <!-- Generator: Sketch 51.3 (57544) - http://www.bohemiancoding.com/sketch -->
    <title>databases-and-servers/servers/tcp</title>
    <desc>Created with Sketch.</desc>
    <defs>
        <rect id="path-1" x="5" y="0" width="69" height="69" rx="14"></rect>
    </defs>
    <g id="databases-and-servers/servers/tcp" stroke="none" stroke-width="1" fill="none" fill-rule="evenodd">
        <g id="container" transform="translate(-3.000000, 2.000000)">
            <rect id="mask" stroke="#06203B" stroke-width="2" fill="#FFFFFF" fill-rule="nonzero" x="4" y="-1" width="71" height="71" rx="14"></rect>
            <mask id="mask-2" fill="white">
                <use xlink:href="#path-1"></use>
            </mask>
            <rect stroke="#06203B" stroke-width="2" x="4" y="-1" width="71" height="71" rx="14"></rect>
            <g id="pipeline" mask="url(#mask-2)">
                <g transform="translate(0.000000, 6.000000)">
                    <polygon id="Shape" fill="#2D75BB" fill-rule="nonzero" points="23.4482759 16.0689655 27.862069 16.0689655 27.862069 35.9310345 23.4482759 35.9310345"></polygon>
                    <polygon id="Shape" fill="#2D75BB" fill-rule="nonzero" points="45.5172414 16.0689655 49.9310345 16.0689655 49.9310345 35.9310345 45.5172414 35.9310345"></polygon>
                    <polygon id="Shape" fill="#92CDDE" fill-rule="nonzero" points="27.862069 18.2758621 45.5172414 18.2758621 45.5172414 33.7241379 27.862069 33.7241379"></polygon>
                    <polygon id="Shape" fill="#2D75BB" fill-rule="nonzero" points="67.5862069 16.0689655 72 16.0689655 72 35.9310345 67.5862069 35.9310345"></polygon>
                    <polygon id="Shape" fill="#92CDDE" fill-rule="nonzero" points="49.9310345 18.2758621 67.5862069 18.2758621 67.5862069 33.7241379 49.9310345 33.7241379"></polygon>
                    <rect id="Rectangle" fill="#D3843D" fill-rule="nonzero" x="0" y="49" width="76" height="19"></rect>
                    <polygon id="Rectangle-2" fill="#9AE3EF" fill-rule="nonzero" points="0 49 26 49 20.0529323 68 0 68"></polygon>
                    <polygon id="Shape" fill="#FFD782" fill-rule="nonzero" points="28.9655172 52.4827586 31.1724138 52.4827586 31.1724138 54.6896552 28.9655172 54.6896552"></polygon>
                    <polygon id="Shape" fill="#FFD782" fill-rule="nonzero" points="55.4482759 52.4827586 62.0689655 52.4827586 62.0689655 54.6896552 55.4482759 54.6896552"></polygon>
                    <polygon id="Shape" fill="#FFD782" fill-rule="nonzero" points="37.7931034 52.4827586 42.2068966 52.4827586 42.2068966 54.6896552 37.7931034 54.6896552"></polygon>
                    <polygon id="Shape" fill="#FFD782" fill-rule="nonzero" points="47.7241379 52.4827586 49.9310345 52.4827586 49.9310345 54.6896552 47.7241379 54.6896552"></polygon>
                    <path d="M23.4482759,33.7241379 L21.2413793,33.7241379 C20.0226292,33.7241379 19.0344828,34.7122844 19.0344828,35.9310345 L19.0344828,49.1724138 L10.2068966,49.1724138 L10.2068966,33.7241379 C10.2068966,28.8485992 14.158944,24.8965517 19.0344828,24.8965517 L23.4482759,24.8965517 L23.4482759,33.7241379 Z" id="Shape" fill="#CDEEF6" fill-rule="nonzero"></path>
                    <polygon id="Shape" fill="#87CEE9" fill-rule="nonzero" points="13.5172414 45.862069 15.7241379 45.862069 15.7241379 49.1724138 13.5172414 49.1724138"></polygon>
                    <polygon id="Shape" fill="#87CEE9" fill-rule="nonzero" points="13.5172414 38.137931 15.7241379 38.137931 15.7241379 42.5517241 13.5172414 42.5517241"></polygon>
                    <path d="M15.7241379,35.9310345 L13.5172414,35.9310345 L13.5172414,33.7241379 C13.521013,30.6783406 15.9886854,28.2106681 19.0344828,28.2068966 L20.137931,28.2068966 L20.137931,30.4137931 L19.0344828,30.4137931 C17.2063578,30.4137931 15.7241379,31.896013 15.7241379,33.7241379 L15.7241379,35.9310345 Z" id="Shape" fill="#87CEE9" fill-rule="nonzero"></path>
                    <polygon id="Shape" fill="#CDEEF6" fill-rule="nonzero" points="11.3103448 52.4827586 13.5172414 52.4827586 13.5172414 54.6896552 11.3103448 54.6896552"></polygon>
                    <polygon id="Shape" fill="#CDEEF6" fill-rule="nonzero" points="15.7241379 52.4827586 17.9310345 52.4827586 17.9310345 54.6896552 15.7241379 54.6896552"></polygon>
                    <polygon id="Shape" fill="#B11E48" fill-rule="nonzero" points="38.8965517 29.3103448 38.8965517 37.0344828 34.4827586 37.0344828 34.4827586 33.7241379 32.2758621 33.7241379 32.2758621 49.1724138 34.4827586 49.1724138 34.4827586 39.2413793 38.8965517 39.2413793 38.8965517 49.1724138 41.1034483 49.1724138 41.1034483 29.3103448"></polygon>
                    <polygon id="Shape" fill="#B11E48" fill-rule="nonzero" points="60.9655172 29.3103448 60.9655172 37.0344828 56.5517241 37.0344828 56.5517241 33.7241379 54.3448276 33.7241379 54.3448276 49.1724138 56.5517241 49.1724138 56.5517241 39.2413793 60.9655172 39.2413793 60.9655172 49.1724138 63.1724138 49.1724138 63.1724138 29.3103448"></polygon>
                    <g id="Group" stroke-width="1" fill="none" fill-rule="evenodd" transform="translate(11.793103, 0.000000)">
                        <polygon id="Shape" fill="#CDEEF6" fill-rule="nonzero" points="28.2068966 21.5862069 33.7241379 21.5862069 33.7241379 23.7931034 28.2068966 23.7931034"></polygon>
                        <polygon id="Shape" fill="#CDEEF6" fill-rule="nonzero" points="23.7931034 21.5862069 26 21.5862069 26 23.7931034 23.7931034 23.7931034"></polygon>
                        <polygon id="Shape" fill="#CDEEF6" fill-rule="nonzero" points="39.2413793 21.5862069 48.0689655 21.5862069 48.0689655 23.7931034 39.2413793 23.7931034"></polygon>
                        <path d="M52.2758621,7.72413793 L52.2758621,6.62068966 C52.3550647,5.7209051 52.0317888,4.83189655 51.3927801,4.19342676 C50.7543103,3.55441807 49.8653018,3.23114221 48.9655172,3.31034483 L47.862069,3.31034483 C47.2079741,1.21390083 45.6551724,0 42.3448276,0 C39.8873923,0 37.359375,1.028556 36.8275862,3.31034483 L35.7241379,3.31034483 C34.8389008,3.28556028 33.9822199,3.62607752 33.3561422,4.25269393 C32.7295258,4.87877159 32.3890086,5.73545255 32.4137931,6.62068966 L32.4137931,7.72413793 L52.2758621,7.72413793 Z" id="Shape" fill="#CDEEF6" fill-rule="nonzero"></path>
                        <path d="M20,10.3448276 L20,9.24137931 C20.0792026,8.34159476 19.7559268,7.45258621 19.1169181,6.81411641 C18.4784483,6.17510772 17.5894397,5.85183186 16.6896552,5.93103448 L15.5862069,5.93103448 C14.932112,3.83459048 13.3793103,2.62068966 10.0689655,2.62068966 C7.61153021,2.62068966 5.08351297,3.64924566 4.55172414,5.93103448 L3.44827586,5.93103448 C2.56303876,5.90624993 1.70635779,6.24676717 1.08028014,6.87338359 C0.453663724,7.49946124 0.113146483,8.35614221 0.137931034,9.24137931 L0.137931034,10.3448276 L20,10.3448276 Z" id="Shape" fill="#CDEEF6" fill-rule="nonzero"></path>
                    </g>
                </g>
            </g>
        </g>
    </g>
</svg>