<?xml version="1.0" encoding="UTF-8"?>
<svg width="73px" height="73px" viewBox="0 0 73 73" version="1.1" xmlns="http://www.w3.org/2000/svg" xmlns:xlink="http://www.w3.org/1999/xlink">
    <!-- Generator: Sketch 51.3 (57544) - http://www.bohemiancoding.com/sketch -->
    <title>databases-and-servers/servers/udp</title>
    <desc>Created with Sketch.</desc>
    <defs></defs>
    <g id="databases-and-servers/servers/udp" stroke="none" stroke-width="1" fill="none" fill-rule="evenodd">
        <g id="container" transform="translate(2.000000, 2.000000)" fill="#FFFFFF" fill-rule="nonzero" stroke="#26353C" stroke-width="2">
            <rect id="mask" x="-1" y="-1" width="71" height="71" rx="14"></rect>
        </g>
        <g id="assembly-line" transform="translate(12.000000, 15.000000)" fill-rule="nonzero">
            <g id="Group" transform="translate(18.652344, 10.351562)" fill="#FFC107">
                <path d="M1.13925781,6.31503906 L9.47255859,6.31503906 C10.0478516,6.31503906 10.5142578,6.78144531 10.5142578,7.35673828 L10.5142578,15.6900391 C10.5142578,16.265332 10.0478516,16.7317383 9.47255859,16.7317383 L1.13925781,16.7317383 C0.563964844,16.7317383 0.0975585938,16.265332 0.0975585938,15.6900391 L0.0975585938,7.35673828 C0.0975585937,6.78144531 0.563964844,6.31503906 1.13925781,6.31503906 Z" id="Shape"></path>
                <path d="M7.38925781,8.3984375 C6.81396484,8.39960938 6.34667969,7.93417969 6.34550781,7.35888672 C6.34472656,6.96054687 6.57119141,6.59667969 6.92880859,6.42138672 C9.12255859,5.34638672 12.5975586,2.95263672 12.5975586,1.10683594 C12.5975586,0.531542969 13.0639648,0.0651367188 13.6392578,0.0651367188 C14.2145508,0.0651367188 14.680957,0.531542969 14.680957,1.10683594 C14.680957,4.83808594 8.54765625,7.95058594 7.84765625,8.29228516 C7.70488281,8.36201172 7.54814453,8.3984375 7.38925781,8.3984375 Z" id="Shape"></path>
            </g>
            <g id="Group" transform="translate(10.351562, 33.300781)" fill="#455A64">
                <path d="M1.10664062,10.4492188 C0.531347656,10.4492188 0.0649414062,9.9828125 0.0649414062,9.40751953 L0.0649414062,1.07421875 C0.0649414062,0.498925781 0.531347656,0.0325195313 1.10664062,0.0325195313 C1.68193359,0.0325195313 2.14833984,0.498925781 2.14833984,1.07421875 L2.14833984,9.40751953 C2.14833984,9.9828125 1.68193359,10.4492188 1.10664062,10.4492188 Z" id="Shape"></path>
                <path d="M30.2733398,10.4492188 C29.6980469,10.4492188 29.2316406,9.9828125 29.2316406,9.40751953 L29.2316406,1.07421875 C29.2316406,0.498925781 29.6980469,0.0325195313 30.2733398,0.0325195313 C30.8486328,0.0325195313 31.3150391,0.498925781 31.3150391,1.07421875 L31.3150391,9.40751953 C31.3150391,9.9828125 30.8486328,10.4492188 30.2733398,10.4492188 Z" id="Shape"></path>
            </g>
            <path d="M36.4582031,0 L40.6249023,0 C41.2001953,0 41.6666016,0.46640625 41.6666016,1.04169922 L41.6666016,11.4583984 C41.6666016,12.0336914 41.2001953,12.5000977 40.6249023,12.5000977 L36.4582031,12.5000977 C35.8829102,12.5000977 35.4165039,12.0336914 35.4165039,11.4583984 L35.4165039,1.04160156 C35.4166016,0.466308594 35.8829102,0 36.4582031,0 Z" id="Shape" fill="#CFD8DC"></path>
            <path d="M12.4686523,23.70625 L10.3853516,15.3729492 C10.2459961,14.8150391 9.68085938,14.4755859 9.12285156,14.6146484 L0.789453125,16.6978516 C0.231542969,16.837207 -0.107910156,17.4023437 0.0311523438,17.9603516 L2.11445313,26.2936523 C2.23017578,26.7575195 2.64677734,27.0831055 3.12490234,27.0832031 C3.21054688,27.0829102 3.29589844,27.0723633 3.37910156,27.0519531 L11.7124023,24.9686523 C12.2695312,24.828418 12.6078125,24.2635742 12.4686523,23.70625 Z" id="Shape" fill="#FFB300"></path>
            <path d="M32.2916016,10.4166016 L44.7916016,10.4166016 C45.3668945,10.4166016 45.8333008,10.8830078 45.8333008,11.4583008 L45.8333008,26.0416016 C45.8333008,26.6168945 45.3668945,27.0833008 44.7916016,27.0833008 L32.2916016,27.0833008 C31.7163086,27.0833008 31.2499023,26.6168945 31.2499023,26.0416016 L31.2499023,11.4583008 C31.2499023,10.8830078 31.7163086,10.4166016 32.2916016,10.4166016 Z" id="Shape" fill="#90A4AE"></path>
            <path d="M44.7916016,26.0416016 L7.29160156,26.0416016 C4.99042969,26.0416016 3.12490234,27.9071289 3.12490234,30.2083008 C3.12490234,32.5094727 4.99042969,34.375 7.29160156,34.375 L44.7916016,34.375 C47.0927734,34.375 48.9583008,32.5094727 48.9583008,30.2083008 C48.9582031,27.9071289 47.0927734,26.0416016 44.7916016,26.0416016 Z" id="Shape" fill="#B0BEC5"></path>
            <g id="Group" transform="translate(2.050781, 25.000000)" fill="#455A64">
                <path d="M42.7408203,10.4166016 L5.24082031,10.4166016 C2.36435547,10.4166016 0.0325195312,8.08476563 0.0325195312,5.20830078 C0.0325195312,2.33183594 2.36435547,0 5.24082031,0 L42.7408203,0 C45.6172852,0 47.9491211,2.33183594 47.9491211,5.20830078 C47.9491211,8.08476563 45.6172852,10.4166016 42.7408203,10.4166016 Z M5.24082031,2.08330078 C3.51494141,2.08330078 2.11582031,3.48242188 2.11582031,5.20830078 C2.11582031,6.93417969 3.51494141,8.33330078 5.24082031,8.33330078 L42.7408203,8.33330078 C44.4666992,8.33330078 45.8658203,6.93417969 45.8658203,5.20830078 C45.8658203,3.48242188 44.4666992,2.08330078 42.7408203,2.08330078 L5.24082031,2.08330078 Z" id="Shape"></path>
                <path d="M5.28242187,6.25 C4.70712891,6.25 4.24072266,5.78359375 4.24072266,5.20830078 C4.24072266,4.63701172 4.70078125,4.17236328 5.27197266,4.16660156 L5.29277344,4.16660156 C5.86806641,4.16660156 6.33447266,4.63300781 6.33447266,5.20830078 C6.33447266,5.78359375 5.86806641,6.25 5.29277344,6.25 L5.28242187,6.25 Z" id="Shape"></path>
                <path d="M42.7824219,6.25 C42.2071289,6.25 41.7407227,5.78359375 41.7407227,5.20830078 C41.7407227,4.63701172 42.2007812,4.17236328 42.7719727,4.16660156 L42.7927734,4.16660156 C43.3680664,4.16660156 43.8344727,4.63300781 43.8344727,5.20830078 C43.8344727,5.78359375 43.3680664,6.25 42.7927734,6.25 L42.7824219,6.25 Z" id="Shape"></path>
                <path d="M24.0324219,6.25 C23.4571289,6.25 22.9907227,5.78359375 22.9907227,5.20830078 C22.9907227,4.63701172 23.4507812,4.17236328 24.0219727,4.16660156 L24.0427734,4.16660156 C24.6180664,4.16660156 25.0844727,4.63300781 25.0844727,5.20830078 C25.0844727,5.78359375 24.6180664,6.25 24.0427734,6.25 L24.0324219,6.25 Z" id="Shape"></path>
            </g>
        </g>
    </g>
</svg>