<?xml version="1.0" encoding="UTF-8"?>
<svg width="73px" height="73px" viewBox="0 0 73 73" version="1.1" xmlns="http://www.w3.org/2000/svg" xmlns:xlink="http://www.w3.org/1999/xlink">
    <!-- Generator: Sketch 51.3 (57544) - http://www.bohemiancoding.com/sketch -->
    <title>fundamentals/javascript/async-await</title>
    <desc>Created with Sketch.</desc>
    <defs></defs>
    <g id="fundamentals/javascript/async-await" stroke="none" stroke-width="1" fill="none" fill-rule="evenodd">
        <g id="container" transform="translate(2.000000, 2.000000)" fill="#FFFFFF" fill-rule="nonzero" stroke="#78462C" stroke-width="2">
            <rect id="mask" x="-1" y="-1" width="71" height="71" rx="14"></rect>
        </g>
        <g id="hourglass" transform="translate(17.000000, 13.000000)" fill-rule="nonzero">
            <path d="M29.4856,17.6768 C31.056,16.6288 32,14.8656 32,12.9776 L32,4 L8,4 L8,12.9776 C8,14.8656 8.944,16.6288 10.5144,17.6768 L17.9696,23.1512 C18.24,23.3496 18.4,23.6648 18.4,24 C18.4,24.3352 18.24,24.6504 17.9704,24.8488 L10.5152,30.3232 C8.944,31.3712 8,33.1344 8,35.0224 L8,44 L32,44 L32,35.0224 C32,33.1344 31.056,31.3712 29.4856,30.3232 L22.0304,24.8488 C21.76,24.6504 21.6,24.3352 21.6,24 C21.6,23.6648 21.76,23.3496 22.0296,23.1512 L29.4856,17.6768 Z" id="Shape" fill="#E6E6E6"></path>
            <rect id="Rectangle-path" fill="#9E6C53" x="4" y="44" width="32" height="3.2"></rect>
            <rect id="Rectangle-path" fill="#9E6C53" x="4" y="0.8" width="32" height="3.2"></rect>
            <g id="Group" fill="#8A5336">
                <path d="M39.2,46.4 L36,46.4 L0.8,46.4 C0.3584,46.4 0,46.7576 0,47.2 C0,47.6424 0.3584,48 0.8,48 L36,48 L39.2,48 C39.6416,48 40,47.6424 40,47.2 C40,46.7576 39.6416,46.4 39.2,46.4 Z" id="Shape"></path>
                <path d="M0.8,1.6 L36,1.6 L39.2,1.6 C39.6416,1.6 40,1.2424 40,0.8 C40,0.3576 39.6416,0 39.2,0 L36,0 L0.8,0 C0.3584,0 0,0.3576 0,0.8 C0,1.2424 0.3584,1.6 0.8,1.6 Z" id="Shape"></path>
            </g>
            <path d="M28.1536,15.68 C29.0592,15.076 29.6,14.0656 29.6,12.9784 C29.6,11.9336 28.8888,11.0224 27.8752,10.7688 L15.8328,7.7584 C13.0736,7.068 10.4,9.1552 10.4,12 L10.4,12.9784 C10.4,14.0656 10.9408,15.076 11.8464,15.68 L19.2,21.0768 L19.2,33.7784 C19.2,36.6824 16.1888,38.6072 13.5536,37.3872 C12.1344,36.7304 10.416,37.7024 10.4008,39.2664 C10.4008,39.2776 10.4008,39.288 10.4008,39.2992 L10.4008,44 L29.6008,44 L29.6008,35.0216 C29.6008,35.0104 29.6008,35 29.6008,34.9888 C29.5856,33.444 28.0896,32.3312 26.568,32.596 L24.9288,32.8816 C22.7728,33.2568 20.8,31.5976 20.8,29.4104 L20.8,21.0768 L28.1536,15.68 Z" id="Shape" fill="#EBBA16"></path>
        </g>
    </g>
</svg>