<?xml version="1.0" encoding="UTF-8"?>
<svg width="73px" height="73px" viewBox="0 0 73 73" version="1.1" xmlns="http://www.w3.org/2000/svg" xmlns:xlink="http://www.w3.org/1999/xlink">
    <!-- Generator: Sketch 51.3 (57544) - http://www.bohemiancoding.com/sketch -->
    <title>fundamentals/javascript/best-practices</title>
    <desc>Created with Sketch.</desc>
    <defs></defs>
    <g id="fundamentals/javascript/best-practices" stroke="none" stroke-width="1" fill="none" fill-rule="evenodd">
        <g id="Bitmap" transform="translate(2.000000, 2.000000)" fill-rule="nonzero">
            <rect id="Mask" stroke="#B68916" stroke-width="2" fill="#FFFFFF" x="-1" y="-1" width="71" height="71" rx="14"></rect>
            <g id="award" transform="translate(10.000000, 10.000000)">
                <path d="M44.6933594,0 L40.5553208,0 L37.6176834,2.87109375 L44.6933594,2.87109375 C45.4855271,2.87109375 46.1289062,3.51447294 46.1289062,4.30664062 L46.1289062,6.49360652 C46.1289062,9.38713079 45.1337432,12.2245789 43.3251038,14.4844436 C41.7815171,16.4149551 39.7265167,17.8475113 37.3825378,18.6284638 L35.3581924,19.3028717 C34.6067734,19.5537185 34.2000351,20.3668213 34.4497605,21.1197358 C34.6501389,21.7212448 35.2108994,22.1010666 35.8124084,22.1010666 C35.9623184,22.1010666 36.1152192,22.0771408 36.2666245,22.0281677 L38.2909698,21.3522644 C41.1605683,20.3963547 43.6768875,18.6411743 45.5681458,16.2788772 C47.7805328,13.5117111 49,10.0361176 49,6.49360652 L49,4.30664062 C49,1.93200684 47.0679932,0 44.6933594,0 Z" id="Shape" fill="#FFC823"></path>
                <path d="M13.6418076,19.3028717 L11.6174622,18.6299591 C9.27348332,17.8475113 7.21848295,16.4149551 5.67489624,14.4844436 C3.86625676,12.2245789 2.87109375,9.38713079 2.87109375,6.49360652 L2.87109375,4.30664062 C2.87109375,3.51447294 3.51447294,2.87109375 4.30664062,2.87109375 L11.7251282,2.87109375 L8.44467924,0 L4.30664062,0 C1.93200684,0 0,1.93200684 0,4.30664062 L0,6.49360652 C0,10.0361176 1.21946721,13.5117111 3.43185425,16.2788772 C5.32311251,18.6411743 7.83943171,20.3963547 10.7090302,21.3537598 L12.7333755,22.0281677 C12.8847808,22.0771408 13.0376816,22.1010666 13.1875916,22.1010666 C13.7891006,22.1010666 14.3498611,21.7212448 14.5502395,21.1197358 C14.7999649,20.3668213 14.3932266,19.5537185 13.6418076,19.3028717 Z" id="Shape" fill="#FFC823"></path>
                <path d="M28.9023437,28.0219497 L28.9023437,30.1464844 C28.9023437,30.9502411 29.53376,31.5820313 30.3378906,31.5820313 C32.7211228,31.5820313 34.6445312,33.5054397 34.6445312,35.8886719 L34.6445312,38.7597656 C34.6445312,39.5635224 34.013115,40.1953125 33.2089844,40.1953125 L15.7910156,40.1953125 C14.986885,40.1953125 14.3554687,39.5635224 14.3554687,38.7597656 L14.3554687,35.8886719 C14.3554687,33.5054397 16.2788772,31.5820313 18.6621094,31.5820313 C19.46624,31.5820313 20.0976562,30.9502411 20.0976562,30.1464844 L20.0976562,28.0219497 C14.7573471,26.3277054 10.8529587,21.6191864 10.2211685,16.0205536 L8.44094088,2.84217094e-14 L40.5590591,2.84217094e-14 L38.7788315,16.0205536 C38.1470413,21.6191864 34.2426529,26.3277054 28.9023437,28.0219497 Z" id="Shape" fill="#FFE79E"></path>
                <path d="M33.2089844,40.1953125 L24.5,40.1953125 L24.5,0 L40.5590591,0 L38.7788315,16.0205536 C38.1470413,21.6191864 34.2426529,26.3277054 28.9023437,28.0219497 L28.9023437,30.1464844 C28.9023437,30.9502411 29.53376,31.5820312 30.3378906,31.5820312 C32.7211228,31.5820312 34.6445312,33.5054397 34.6445312,35.8886719 L34.6445312,38.7597656 C34.6445312,39.5635224 34.013115,40.1953125 33.2089844,40.1953125 Z" id="Shape" fill="#F4D687"></path>
                <path d="M31.620163,10.8237991 C31.4478225,10.2783661 30.9887466,9.90527344 30.4433136,9.81929011 L27.2275391,9.35984037 L25.7919922,6.51715848 C25.5336685,6.02929688 25.0166474,5.79938505 24.5,5.79938505 C23.9833526,5.79938505 23.4663315,6.02929688 23.2080078,6.51715848 L21.7724609,9.35984037 L18.5566864,9.8189163 C18.0112534,9.90527344 17.5521775,10.2783661 17.379837,10.8237991 C17.2362823,11.3408203 17.379837,11.9146652 17.7817154,12.2881318 L20.0785904,14.4990234 L19.5331573,17.5996552 C19.4468003,18.1166763 19.6479263,18.6621094 20.1073761,19.0067901 C20.5380401,19.3223114 21.1410446,19.3798828 21.6001206,19.1215591 L24.5,17.6284409 L27.3998794,19.1215591 C27.8877411,19.3798828 28.4619599,19.3223114 28.8929978,19.0067901 C29.3520737,18.6621094 29.5531997,18.1166763 29.4668427,17.5996552 L28.9214096,14.4990234 L31.2182846,12.2881318 C31.620163,11.9150391 31.7640915,11.3408203 31.620163,10.8237991 Z" id="Shape" fill="#FFC823"></path>
                <path d="M37.515625,38.7597656 L37.515625,47.4496841 L11.484375,47.4496841 L11.484375,38.7597656 C11.484375,37.955635 12.1157913,37.3242188 12.9199219,37.3242188 L36.0800781,37.3242188 C36.8842087,37.3242188 37.515625,37.955635 37.515625,38.7597656 Z" id="Shape" fill="#FFC823"></path>
                <path d="M27.3998794,19.1215591 L24.5,17.6284409 L24.5,5.79938505 C25.0166474,5.79938505 25.5336685,6.02929688 25.7919922,6.51715848 L27.2275391,9.35984037 L30.4433136,9.81929011 C30.9887466,9.90527344 31.4478225,10.2783661 31.620163,10.8237991 C31.7637177,11.3408203 31.620163,11.9150391 31.2182846,12.2881318 L28.9214096,14.4990234 L29.4668427,17.600029 C29.5531997,18.1166763 29.3520737,18.6621094 28.8926239,19.0067901 C28.4619599,19.3223114 27.8877411,19.3798828 27.3998794,19.1215591 Z" id="Shape" fill="#DBA51A"></path>
                <path d="M37.515625,38.7597656 L37.515625,47.4496841 L24.5,47.4496841 L24.5,37.3242188 L36.0800781,37.3242188 C36.8842087,37.3242188 37.515625,37.955635 37.515625,38.7597656 Z" id="Shape" fill="#DBA51A"></path>
                <path d="M40.3867188,47.5644531 C40.3867188,48.3682099 39.7553025,49 38.9511719,49 L10.0488281,49 C9.24469755,49 8.61328125,48.3682099 8.61328125,47.5644531 C8.61328125,46.7603225 9.24469755,46.1289062 10.0488281,46.1289062 L38.9511719,46.1289062 C39.7553025,46.1289062 40.3867188,46.7603225 40.3867188,47.5644531 Z" id="Shape" fill="#697C86"></path>
                <path d="M40.3867188,47.5644531 C40.3867188,48.3682099 39.7553025,49 38.9511719,49 L24.5,49 L24.5,46.1289062 L38.9511719,46.1289062 C39.7553025,46.1289062 40.3867188,46.7603225 40.3867188,47.5644531 Z" id="Shape" fill="#465A61"></path>
            </g>
        </g>
    </g>
</svg>