<?xml version="1.0" encoding="UTF-8"?>
<svg width="73px" height="73px" viewBox="0 0 73 73" version="1.1" xmlns="http://www.w3.org/2000/svg" xmlns:xlink="http://www.w3.org/1999/xlink">
    <!-- Generator: Sketch 51.3 (57544) - http://www.bohemiancoding.com/sketch -->
    <title>fundamentals/javascript/callbacks</title>
    <desc>Created with Sketch.</desc>
    <defs></defs>
    <g id="fundamentals/javascript/callbacks" stroke="none" stroke-width="1" fill="none" fill-rule="evenodd">
        <g id="container" transform="translate(2.000000, 2.000000)" fill="#FFFFFF" fill-rule="nonzero" stroke="#245307" stroke-width="2">
            <rect id="mask" x="-1" y="-1" width="71" height="71" rx="14"></rect>
        </g>
        <g id="phone" transform="translate(12.000000, 12.000000)" fill-rule="nonzero">
            <g id="Group" transform="translate(0.000000, 4.166667)">
                <path d="M43.7291667,34.9533333 C42.1475,31.9641667 36.3133333,28.545 36.3133333,28.545 C34.9933333,27.7925 33.4008333,27.7083333 32.6475,29.05 C32.6475,29.05 30.7525,31.3233333 30.27,31.65 C28.0675,33.1425 26.0275,33.085 23.9683333,31.025 L19.1825,26.2391667 L14.3966667,21.4533333 C12.3366667,19.3933333 12.2791667,17.3541667 13.7716667,15.1516667 C14.0983333,14.6691667 16.3716667,12.7741667 16.3716667,12.7741667 C17.7125,12.0208333 17.6291667,10.4283333 16.8766667,9.10833333 C16.8766667,9.10833333 13.4575,3.27416667 10.4683333,1.6925 C9.19666667,1.01916667 7.635,1.25416667 6.6175,2.27166667 L4.50333333,4.38583333 C-2.20083333,11.09 1.1,18.66 7.80416667,25.3641667 L13.9316667,31.4916667 L20.0591667,37.6191667 C26.7633333,44.3233333 34.3333333,47.625 41.0375,40.92 L43.1516667,38.8058333 C44.1675,37.7875 44.4025,36.225 43.7291667,34.9533333 Z" id="Shape" fill="#52C306"></path>
                <path d="M33.045,45.425 C32.1666667,45.425 31.2716667,45.3191667 30.3583333,45.1083333 C26.915,44.3125 23.2508333,41.9908333 19.4683333,38.2075 L7.21416667,25.9516667 C-1.11333333,17.625 -2.255,9.96416667 3.9125,3.79583333 L6.02666667,1.68166667 C7.31083333,0.396666667 9.24916667,0.105833333 10.8566667,0.955 C14.02,2.62833333 17.45,8.43916667 17.5941667,8.68583333 C18.2058333,9.75833333 18.3975,10.8591667 18.1383333,11.795 C17.9433333,12.4991667 17.4983333,13.0716667 16.85,13.4583333 C15.8333333,14.3083333 14.645,15.3625 14.4591667,15.6208333 C13.1233333,17.5908333 13.2808333,19.16 14.985,20.8641667 L24.5566667,30.4358333 C26.2591667,32.1383333 27.8266667,32.2966667 29.8025,30.96 C30.0566667,30.7758333 31.1108333,29.5883333 31.9625,28.5708333 C32.3483333,27.9225 32.9216667,27.4775 33.625,27.2825 C34.5616667,27.0216667 35.6625,27.2141667 36.7258333,27.8208333 C36.9816667,27.9708333 42.7925,31.4016667 44.4658333,34.5641667 C45.3158333,36.1691667 45.0233333,38.11 43.7391667,39.3941667 L41.625,41.5083333 C39.0191667,44.1133333 36.1425,45.425 33.045,45.425 Z M8.93083333,2.14083333 C8.29916667,2.14083333 7.6775,2.3875 7.20583333,2.85916667 L5.09166667,4.97333333 C-0.381666667,10.4475 0.729166667,17.1091667 8.39333333,24.7733333 L20.6475,37.0283333 C28.3116667,44.6933333 34.9733333,45.8025 40.4475,40.3291667 L42.5616667,38.215 C43.325,37.4516667 43.4983333,36.2975 42.9941667,35.3433333 C41.7875,33.0633333 37.4583333,30.1816667 35.8933333,29.2633333 C35.2466667,28.8941667 34.56,28.7558333 34.0725,28.8883333 C33.7725,28.9725 33.5441667,29.1583333 33.3758333,29.4583333 L33.2891667,29.5841667 C32.6966667,30.295 31.2616667,31.985 30.7391667,32.34 C28.1141667,34.1175 25.6391667,33.8741667 23.38,31.615 L13.8066667,22.0425 C11.5466667,19.7833333 11.3025,17.3066667 13.0808333,14.6833333 C13.435,14.1608333 15.1266667,12.7258333 15.8375,12.1325 L15.9625,12.0458333 C16.2625,11.8775 16.4491667,11.6491667 16.5325,11.3491667 C16.6683333,10.8591667 16.5258333,10.175 16.1516667,9.51916667 C16.1241667,9.47166667 12.8225,3.87916667 10.0775,2.42666667 C9.71333333,2.235 9.31916667,2.14083333 8.93083333,2.14083333 Z" id="Shape" fill="#388F04"></path>
            </g>
            <path d="M33.3316667,40.4233333 C33.3033333,40.4233333 33.2741667,40.4216667 33.245,40.4191667 C27.4991667,39.8225 23.7375,36.1716667 23.5791667,36.0166667 C23.2516667,35.6941667 23.2483333,35.1675 23.57,34.84 C23.8916667,34.5108333 24.4191667,34.5066667 24.7483333,34.8291667 C24.7825,34.8625 28.2708333,38.2266667 33.4166667,38.7608333 C33.8741667,38.8091667 34.2066667,39.2183333 34.16,39.6766667 C34.115,40.1041667 33.7533333,40.4233333 33.3316667,40.4233333 Z" id="Shape" fill="#388F04"></path>
            <path d="M14.9966667,27.09 C14.81,27.09 14.6233333,27.0275 14.4675,26.8991667 C14.2766667,26.7425 9.76916667,22.97 9.16833333,17.1758333 C9.12083333,16.7175 9.45416667,16.3083333 9.91166667,16.26 C10.3716667,16.2191667 10.7791667,16.5458333 10.8275,17.0033333 C11.3566667,22.1033333 15.4875,25.5791667 15.5291667,25.6133333 C15.8833333,25.9075 15.9333333,26.4316667 15.6408333,26.7866667 C15.4741667,26.9866667 15.2366667,27.09 14.9966667,27.09 Z" id="Shape" fill="#388F04"></path>
            <g id="Group" transform="translate(21.666667, 0.000000)" fill="#EFCE4A">
                <path d="M1.135,0.405833333 C0.674166667,0.405833333 0.301666667,0.778333333 0.301666667,1.23916667 C0.301666667,1.7 0.674166667,2.0725 1.135,2.0725 C15.2116667,2.0725 26.6641667,13.525 26.6641667,27.6016667 C26.6641667,28.0625 27.0366667,28.435 27.4975,28.435 C27.9583333,28.435 28.3308333,28.0625 28.3308333,27.6016667 C28.3308333,12.6058333 16.1308333,0.405833333 1.135,0.405833333 Z" id="Shape"></path>
                <path d="M1.135,6.26416667 C0.674166667,6.26416667 0.301666667,6.63666667 0.301666667,7.0975 C0.301666667,7.55833333 0.674166667,7.93083333 1.135,7.93083333 C11.9816667,7.93083333 20.805,16.755 20.805,27.6008333 C20.805,28.0616667 21.1775,28.4341667 21.6383333,28.4341667 C22.0991667,28.4341667 22.4716667,28.0616667 22.4716667,27.6008333 C22.4725,15.8366667 12.9,6.26416667 1.135,6.26416667 Z" id="Shape"></path>
                <path d="M1.135,12.1225 C0.674166667,12.1225 0.301666667,12.495 0.301666667,12.9558333 C0.301666667,13.4166667 0.674166667,13.7891667 1.135,13.7891667 C8.75166667,13.7891667 14.9475,19.9858333 14.9475,27.6016667 C14.9475,28.0625 15.32,28.435 15.7808333,28.435 C16.2416667,28.435 16.6141667,28.0625 16.6141667,27.6016667 C16.6141667,19.0666667 9.67,12.1225 1.135,12.1225 Z" id="Shape"></path>
            </g>
        </g>
    </g>
</svg>