<?xml version="1.0" encoding="UTF-8"?>
<svg width="73px" height="73px" viewBox="0 0 73 73" version="1.1" xmlns="http://www.w3.org/2000/svg" xmlns:xlink="http://www.w3.org/1999/xlink">
    <!-- Generator: Sketch 51.3 (57544) - http://www.bohemiancoding.com/sketch -->
    <title>fundamentals/javascript/classes</title>
    <desc>Created with Sketch.</desc>
    <defs></defs>
    <g id="fundamentals/javascript/classes" stroke="none" stroke-width="1" fill="none" fill-rule="evenodd">
        <g id="container" transform="translate(2.000000, 2.000000)" fill="#F7FCFF" fill-rule="nonzero" stroke="#104677" stroke-width="2">
            <rect id="mask" x="-1" y="-1" width="71" height="71" rx="14"></rect>
        </g>
        <g id="blueprint-(1)" transform="translate(13.000000, 13.000000)">
            <path d="M4.94736842,0 C2.21477193,0 0,2.21477193 0,4.94736842 L0,42.0526316 C0,39.3200351 2.21477193,37.1052632 4.94736842,37.1052632 C7.67996491,37.1052632 9.89473684,39.3200351 9.89473684,42.0526316 L9.89473684,4.94736842 C9.89473684,2.21477193 7.67996491,0 4.94736842,0 Z" id="Shape" fill="#226BAC" fill-rule="nonzero"></path>
            <path d="M9.89473684,5.77192982 L9.89473684,42.0526316 C9.89473684,39.3200351 7.67996491,37.1052632 4.94736842,37.1052632 C2.21477193,37.1052632 0,39.3200351 0,42.0526316 L0,42.1021053 C0,44.8066667 2.19333333,47 4.89789474,47 L47,47 L47,5.77192982 L9.89473684,5.77192982 Z" id="Shape" fill="#3083C9" fill-rule="nonzero"></path>
            <path d="M42.877193,33.8070175 L40.4035088,33.8070175 C39.9475263,33.8070175 39.5789474,33.4384386 39.5789474,32.9824561 C39.5789474,32.5264737 39.9475263,32.1578947 40.4035088,32.1578947 L41.2280702,32.1578947 L41.2280702,31.6491404 C41.2280702,31.1931579 41.5966491,30.8245789 42.0526316,30.8245789 C42.508614,30.8245789 42.877193,31.1931579 42.877193,31.6491404 L42.877193,33.8070175 Z M37.1052632,33.8070175 L35.4561404,33.8070175 C35.0001579,33.8070175 34.6315789,33.4384386 34.6315789,32.9824561 C34.6315789,32.5264737 35.0001579,32.1578947 35.4561404,32.1578947 L37.1052632,32.1578947 C37.5612456,32.1578947 37.9298246,32.5264737 37.9298246,32.9824561 C37.9298246,33.4384386 37.5612456,33.8070175 37.1052632,33.8070175 Z M32.1578947,33.8070175 L30.5087719,33.8070175 C30.0527895,33.8070175 29.6842105,33.4384386 29.6842105,32.9824561 C29.6842105,32.5264737 30.0527895,32.1578947 30.5087719,32.1578947 L32.1578947,32.1578947 C32.6138772,32.1578947 32.9824561,32.5264737 32.9824561,32.9824561 C32.9824561,33.4384386 32.6138772,33.8070175 32.1578947,33.8070175 Z M27.2105263,33.8070175 L25.5614035,33.8070175 C25.1054211,33.8070175 24.7368421,33.4384386 24.7368421,32.9824561 C24.7368421,32.5264737 25.1054211,32.1578947 25.5614035,32.1578947 L27.2105263,32.1578947 C27.6665088,32.1578947 28.0350877,32.5264737 28.0350877,32.9824561 C28.0350877,33.4384386 27.6665088,33.8070175 27.2105263,33.8070175 Z M22.2631579,33.8070175 L20.6140351,33.8070175 C20.1580526,33.8070175 19.7894737,33.4384386 19.7894737,32.9824561 C19.7894737,32.5264737 20.1580526,32.1578947 20.6140351,32.1578947 L22.2631579,32.1578947 C22.7191404,32.1578947 23.0877193,32.5264737 23.0877193,32.9824561 C23.0877193,33.4384386 22.7191404,33.8070175 22.2631579,33.8070175 Z M17.3157895,33.8070175 L15.6666667,33.8070175 C15.2106842,33.8070175 14.8421053,33.4384386 14.8421053,32.9824561 C14.8421053,32.5264737 15.2106842,32.1578947 15.6666667,32.1578947 L17.3157895,32.1578947 C17.7717719,32.1578947 18.1403509,32.5264737 18.1403509,32.9824561 C18.1403509,33.4384386 17.7717719,33.8070175 17.3157895,33.8070175 Z M14.0175439,32.1578947 C13.5615614,32.1578947 13.1929825,31.7893158 13.1929825,31.3333333 L13.1929825,29.6842105 C13.1929825,29.2282281 13.5615614,28.8596491 14.0175439,28.8596491 C14.4735263,28.8596491 14.8421053,29.2282281 14.8421053,29.6842105 L14.8421053,31.3333333 C14.8421053,31.7893158 14.4735263,32.1578947 14.0175439,32.1578947 Z M42.0526316,29.1754561 C41.5966491,29.1754561 41.2280702,28.8068772 41.2280702,28.3508947 L41.2280702,26.7017719 C41.2280702,26.2457895 41.5966491,25.8772105 42.0526316,25.8772105 C42.508614,25.8772105 42.877193,26.2457895 42.877193,26.7017719 L42.877193,28.3508947 C42.877193,28.8068772 42.508614,29.1754561 42.0526316,29.1754561 Z M14.0175439,27.2105263 C13.5615614,27.2105263 13.1929825,26.8419474 13.1929825,26.3859649 L13.1929825,24.7368421 C13.1929825,24.2808596 13.5615614,23.9122807 14.0175439,23.9122807 C14.4735263,23.9122807 14.8421053,24.2808596 14.8421053,24.7368421 L14.8421053,26.3859649 C14.8421053,26.8419474 14.4735263,27.2105263 14.0175439,27.2105263 Z M42.0526316,24.2280877 C41.5966491,24.2280877 41.2280702,23.8595088 41.2280702,23.4035263 L41.2280702,21.7544035 C41.2280702,21.2984211 41.5966491,20.9298421 42.0526316,20.9298421 C42.508614,20.9298421 42.877193,21.2984211 42.877193,21.7544035 L42.877193,23.4035263 C42.877193,23.8595088 42.508614,24.2280877 42.0526316,24.2280877 Z M14.0175439,22.2631579 C13.5615614,22.2631579 13.1929825,21.8945789 13.1929825,21.4385965 L13.1929825,19.7894737 C13.1929825,19.3334912 13.5615614,18.9649123 14.0175439,18.9649123 C14.4735263,18.9649123 14.8421053,19.3334912 14.8421053,19.7894737 L14.8421053,21.4385965 C14.8421053,21.8945789 14.4735263,22.2631579 14.0175439,22.2631579 Z M41.6362281,19.4959298 C41.4721404,19.4959298 41.3064035,19.4464561 41.1621053,19.3450351 L39.8139474,18.3943158 C39.4420702,18.1321053 39.352193,17.6175789 39.6152281,17.2448772 C39.8782632,16.873 40.3919649,16.7839474 40.7646667,17.0461579 L42.1128246,17.9968772 C42.4847018,18.2590877 42.5745789,18.773614 42.3115439,19.1463158 C42.1499298,19.3738947 41.8959649,19.4959298 41.6362281,19.4959298 Z M16.0393684,18.3629825 C15.7804561,18.3629825 15.5256667,18.2417719 15.3648772,18.014193 C15.1026667,17.6423158 15.1908947,17.1277895 15.5627719,16.8639298 L16.9101053,15.9132105 C17.2836316,15.6518246 17.7973333,15.7400526 18.0603684,16.1111053 C18.3225789,16.4829825 18.2343509,16.9975088 17.8624737,17.2613684 L16.5151404,18.2120877 C16.3700175,18.3135088 16.2034561,18.3629825 16.0393684,18.3629825 Z M37.5942281,16.6429474 C37.4301404,16.6429474 37.2644035,16.5934737 37.1192807,16.4920526 L35.7719474,15.5413333 C35.4000702,15.2782982 35.3110175,14.7637719 35.5740526,14.3910702 C35.8370877,14.0200175 36.3499649,13.9309649 36.7243158,14.1931754 L38.0716491,15.1438947 C38.4435263,15.4069298 38.5325789,15.9214561 38.2695439,16.2941579 C38.1079298,16.5209123 37.8531404,16.6429474 37.5942281,16.6429474 Z M20.0813684,15.51 C19.8224561,15.51 19.5676667,15.3887895 19.4068772,15.1612105 C19.1446667,14.7893333 19.2328947,14.274807 19.6047719,14.0109474 L20.9521053,13.0602281 C21.3256316,12.7996667 21.8385088,12.8878947 22.1023684,13.2581228 C22.3645789,13.63 22.2763509,14.1445263 21.9044737,14.408386 L20.5571404,15.3591053 C20.411193,15.4605263 20.2454561,15.51 20.0813684,15.51 Z M33.5522281,13.7899649 C33.3881404,13.7899649 33.2224035,13.7404912 33.0772807,13.6390702 L31.7299474,12.6883509 C31.3580702,12.4253158 31.2690175,11.9107895 31.5320526,11.5380877 C31.7950877,11.1670351 32.3079649,11.0779825 32.6823158,11.340193 L34.0296491,12.2909123 C34.4015263,12.5539474 34.4905789,13.0684737 34.2275439,13.4411754 C34.0659298,13.6679298 33.8119649,13.7899649 33.5522281,13.7899649 Z M24.1233684,12.6570175 C23.8644561,12.6570175 23.6096667,12.535807 23.4488772,12.3082281 C23.1866667,11.9363509 23.2748947,11.4218246 23.6467719,11.1579649 L24.9941053,10.2072456 C25.3684561,9.94503509 25.8805088,10.0349123 26.1443684,10.4051404 C26.4065789,10.7770175 26.3183509,11.2915439 25.9464737,11.5554035 L24.5991404,12.5061228 C24.453193,12.6075439 24.2874561,12.6570175 24.1233684,12.6570175 Z M29.5102281,10.9369825 C29.3461404,10.9369825 29.1804035,10.8875088 29.0352807,10.7860877 L27.6879474,9.83536842 C27.3160702,9.57233333 27.2270175,9.05780702 27.4900526,8.68510526 C27.7530877,8.31487719 28.2659649,8.22582456 28.6403158,8.48721053 L29.9876491,9.43792982 C30.3595263,9.70096491 30.4485789,10.2154912 30.1855439,10.588193 C30.0239298,10.8149474 29.7699649,10.9369825 29.5102281,10.9369825 Z" id="Shape" fill="#7FABDA" fill-rule="nonzero"></path>
            <rect id="Rectangle-path" stroke="#EFCE4A" stroke-width="2" stroke-linecap="round" x="33.8070175" y="37.9298246" width="9.07017544" height="4.94736842"></rect>
            <path d="M24.7368421,29.6842105 L23.0877193,29.6842105 C22.6317368,29.6842105 22.2631579,29.3156316 22.2631579,28.8596491 C22.2631579,28.4036667 22.6317368,28.0350877 23.0877193,28.0350877 L23.9122807,28.0350877 L23.9122807,27.2105263 C23.9122807,26.7545439 24.2808596,26.3859649 24.7368421,26.3859649 C25.1928246,26.3859649 25.5614035,26.7545439 25.5614035,27.2105263 L25.5614035,28.8596491 C25.5614035,29.3156316 25.1928246,29.6842105 24.7368421,29.6842105 Z M19.7894737,29.6842105 L18.1403509,29.6842105 C17.6843684,29.6842105 17.3157895,29.3156316 17.3157895,28.8596491 C17.3157895,28.4036667 17.6843684,28.0350877 18.1403509,28.0350877 L19.7894737,28.0350877 C20.2454561,28.0350877 20.6140351,28.4036667 20.6140351,28.8596491 C20.6140351,29.3156316 20.2454561,29.6842105 19.7894737,29.6842105 Z M18.1403509,26.3859649 C17.6843684,26.3859649 17.3157895,26.017386 17.3157895,25.5614035 L17.3157895,23.9122807 C17.3157895,23.4562982 17.6843684,23.0877193 18.1403509,23.0877193 C18.5963333,23.0877193 18.9649123,23.4562982 18.9649123,23.9122807 L18.9649123,25.5614035 C18.9649123,26.017386 18.5963333,26.3859649 18.1403509,26.3859649 Z M24.7368421,24.7368421 C24.2808596,24.7368421 23.9122807,24.3682632 23.9122807,23.9122807 L23.9122807,22.2631579 C23.9122807,21.8071754 24.2808596,21.4385965 24.7368421,21.4385965 C25.1928246,21.4385965 25.5614035,21.8071754 25.5614035,22.2631579 L25.5614035,23.9122807 C25.5614035,24.3682632 25.1928246,24.7368421 24.7368421,24.7368421 Z M21.4385965,23.0877193 L19.7894737,23.0877193 C19.3334912,23.0877193 18.9649123,22.7191404 18.9649123,22.2631579 C18.9649123,21.8071754 19.3334912,21.4385965 19.7894737,21.4385965 L21.4385965,21.4385965 C21.8945789,21.4385965 22.2631579,21.8071754 22.2631579,22.2631579 C22.2631579,22.7191404 21.8945789,23.0877193 21.4385965,23.0877193 Z" id="Shape" fill="#7FABDA" fill-rule="nonzero"></path>
            <path d="M37.9298246,29.6842105 L36.2807018,29.6842105 C35.8247193,29.6842105 35.4561404,29.3156316 35.4561404,28.8596491 C35.4561404,28.4036667 35.8247193,28.0350877 36.2807018,28.0350877 L37.1052632,28.0350877 L37.1052632,27.2105263 C37.1052632,26.7545439 37.4738421,26.3859649 37.9298246,26.3859649 C38.385807,26.3859649 38.754386,26.7545439 38.754386,27.2105263 L38.754386,28.8596491 C38.754386,29.3156316 38.385807,29.6842105 37.9298246,29.6842105 Z M32.9824561,29.6842105 L31.3333333,29.6842105 C30.8773509,29.6842105 30.5087719,29.3156316 30.5087719,28.8596491 C30.5087719,28.4036667 30.8773509,28.0350877 31.3333333,28.0350877 L32.9824561,28.0350877 C33.4384386,28.0350877 33.8070175,28.4036667 33.8070175,28.8596491 C33.8070175,29.3156316 33.4384386,29.6842105 32.9824561,29.6842105 Z M31.3333333,26.3859649 C30.8773509,26.3859649 30.5087719,26.017386 30.5087719,25.5614035 L30.5087719,23.9122807 C30.5087719,23.4562982 30.8773509,23.0877193 31.3333333,23.0877193 C31.7893158,23.0877193 32.1578947,23.4562982 32.1578947,23.9122807 L32.1578947,25.5614035 C32.1578947,26.017386 31.7893158,26.3859649 31.3333333,26.3859649 Z M37.9298246,24.7368421 C37.4738421,24.7368421 37.1052632,24.3682632 37.1052632,23.9122807 L37.1052632,22.2631579 C37.1052632,21.8071754 37.4738421,21.4385965 37.9298246,21.4385965 C38.385807,21.4385965 38.754386,21.8071754 38.754386,22.2631579 L38.754386,23.9122807 C38.754386,24.3682632 38.385807,24.7368421 37.9298246,24.7368421 Z M34.6315789,23.0877193 L32.9824561,23.0877193 C32.5264737,23.0877193 32.1578947,22.7191404 32.1578947,22.2631579 C32.1578947,21.8071754 32.5264737,21.4385965 32.9824561,21.4385965 L34.6315789,21.4385965 C35.0875614,21.4385965 35.4561404,21.8071754 35.4561404,22.2631579 C35.4561404,22.7191404 35.0875614,23.0877193 34.6315789,23.0877193 Z" id="Shape" fill="#7FABDA" fill-rule="nonzero"></path>
            <path d="M30.5087719,37.9298246 L26.3859649,37.9298246" id="Shape" stroke="#C6E2F7" stroke-width="2" stroke-linecap="round"></path>
            <path d="M30.5087719,40.4035088 L24.7368421,40.4035088" id="Shape" stroke="#C6E2F7" stroke-width="2" stroke-linecap="round"></path>
            <path d="M30.5087719,42.877193 L22.2631579,42.877193" id="Shape" stroke="#C6E2F7" stroke-width="2" stroke-linecap="round"></path>
        </g>
    </g>
</svg>