<?xml version="1.0" encoding="UTF-8"?>
<svg width="73px" height="73px" viewBox="0 0 73 73" version="1.1" xmlns="http://www.w3.org/2000/svg" xmlns:xlink="http://www.w3.org/1999/xlink">
    <!-- Generator: Sketch 51.3 (57544) - http://www.bohemiancoding.com/sketch -->
    <title>fundamentals/javascript/destructuring</title>
    <desc>Created with Sketch.</desc>
    <defs></defs>
    <g id="fundamentals/javascript/destructuring" stroke="none" stroke-width="1" fill="none" fill-rule="evenodd">
        <g id="Bitmap" transform="translate(2.000000, 2.000000)" fill="#FFFFFF" fill-rule="nonzero" stroke="#2A3B4D" stroke-width="2">
            <rect id="Mask" x="-1" y="-1" width="71" height="71" rx="14"></rect>
        </g>
        <g id="apocalypse" transform="translate(20.000000, 9.000000)" fill-rule="nonzero">
            <circle id="Oval" fill="#3B97D3" cx="16.5" cy="36.6666667" r="16.5"></circle>
            <path d="M24.1175,34.2375 C22.5316667,34.4208333 21.5233333,34.98 18.9566667,34.9983333 C18.3253978,34.9334236 17.6877958,34.9705655 17.0683333,35.1083333 C15.9316667,35.5025 15.5191667,36.9416667 15.5925,38.1241667 C15.84,42.2308333 21.2758333,40.9658333 21.5875,46.2733333 C21.5314089,46.8137025 21.7119235,47.3519035 22.0825,47.7491667 C22.6504465,48.0696791 23.3667227,47.9341674 23.7783333,47.4283333 C26.2258333,45.2191667 25.6116667,42.1666667 26.1066667,39.8933333 C26.3266667,38.9125 27.0783333,38.225 27.39,37.29 C27.885,35.8508333 26.73,33.9166667 24.1175,34.2375 Z" id="Shape" fill="#4FBA6F"></path>
            <path d="M12.8333333,20.4783333 C8.09416667,21.3308333 7.92,23.4391667 12.4941667,24.3741667 C15.1413488,24.8738471 17.8586513,24.8738471 20.5058333,24.3741667 C25.0891667,23.4575 24.915,21.3308333 20.1666667,20.4783333 L12.8333333,20.4783333 Z" id="Shape" fill="#ECF0F1"></path>
            <path d="M22.8525,51.8925 C18.7872673,53.5883354 14.2127327,53.5883354 10.1475,51.8925 C10.5416667,50.545 13.2366667,49.5 16.5,49.5 C19.7633333,49.5 22.4583333,50.545 22.8525,51.8925 Z" id="Shape" fill="#ECF0F1"></path>
            <path d="M7.77333333,43.1291667 C6.75583333,45.2466667 7.18666667,47.9783333 7.30583333,50.3616667 C3.29165293,47.6661503 0.661830235,43.3455344 0.111413207,38.5417345 C-0.439003831,33.7379344 1.14538466,28.9344563 4.44583333,25.4008333 C7.85583333,28.6091667 6.64583333,30.0758333 6.15083333,32.8258333 C5.92360012,34.0367426 6.23852847,35.2864051 7.0125,36.245 C7.84666667,37.2533333 9.01083333,37.6566667 9.17583333,39.1233333 C9.34083333,40.59 8.37833333,41.8458333 7.77333333,43.1291667 Z" id="Shape" fill="#4FBA6F"></path>
            <path d="M32.395,32.2483333 C29.2233333,31.57 27.9675,31.4141667 26.9775,30.6166667 C25.8676669,29.8138926 24.9810782,28.7411518 24.4016667,27.5 C23.7380156,25.8344073 23.9368553,23.9488579 24.9333333,22.4583333 C28.590271,24.6370006 31.2637244,28.1446764 32.395,32.2483333 Z" id="Shape" fill="#4FBA6F"></path>
            <path d="M22.9166667,31.1666667 C21.1990388,30.0190285 20.1674276,28.0899154 20.1666667,26.0241667 L20.1666667,14.4558333 L12.8333333,14.4558333 L12.8333333,26.0241667 C12.8325724,28.0899154 11.8009611,30.0190285 10.0833333,31.1666667 L22.9166667,31.1666667 Z" id="Shape" fill="#35495E"></path>
            <path d="M10.0833333,32.0833333 C9.67963361,32.0842377 9.32286529,31.8209316 9.20473574,31.434901 C9.0866061,31.0488703 9.23492735,30.6310013 9.57,30.4058333 C11.035015,29.4289476 11.9154496,27.7850111 11.9166667,26.0241667 L11.9166667,14.4741667 C11.9166667,13.9679057 12.3270724,13.5575 12.8333333,13.5575 C13.3395943,13.5575 13.75,13.9679057 13.75,14.4741667 L13.75,26.0241667 C13.7513321,28.3952299 12.5681575,30.6102429 10.5966667,31.9275 C10.4449241,32.0294726 10.2661558,32.0837415 10.0833333,32.0833333 Z" id="Shape" fill="#3F5C6C"></path>
            <path d="M22.9166667,32.0833333 C22.7338442,32.0837415 22.5550759,32.0294726 22.4033333,31.9275 C20.4318425,30.6102429 19.2486679,28.3952299 19.25,26.0241667 L19.25,14.4466667 C19.25,13.9404057 19.6604057,13.53 20.1666667,13.53 C20.6729276,13.53 21.0833333,13.9404057 21.0833333,14.4466667 L21.0833333,26.0241667 C21.0845504,27.7850111 21.964985,29.4289476 23.43,30.4058333 C23.7650727,30.6310013 23.9133939,31.0488703 23.7952643,31.434901 C23.6771347,31.8209316 23.3203664,32.0842377 22.9166667,32.0833333 Z" id="Shape" fill="#3F5C6C"></path>
            <path d="M30.5066667,11.7516667 C30.4875768,13.0268728 29.8484144,14.2128188 28.7937605,14.9299104 C27.7391065,15.6470021 26.4012222,15.8053112 25.2083333,15.3541667 C24.0881155,16.6130344 22.4649056,17.3068264 20.7808618,17.2465553 C19.0968181,17.1862843 17.5273586,16.3782284 16.5,15.0425 C15.4655048,16.4776936 13.7858504,17.3054987 12.0175,17.2516667 C10.4143088,17.1988868 8.89629872,16.5172641 7.79166667,15.3541667 C6.5987669,15.8098913 5.25841004,15.6535668 4.20240201,14.9355544 C3.14639398,14.2175421 2.50816801,13.0285671 2.49333333,11.7516667 C2.48901623,10.4125717 3.18409742,9.16837634 4.32666667,8.47 C4.20039251,8.04153521 4.13860424,7.59665968 4.14333333,7.15 C4.1635974,5.31427075 5.17833362,3.63408691 6.79363639,2.76167103 C8.40893916,1.88925514 10.3704221,1.96199983 11.9166667,2.95166667 C12.7595594,1.1851199 14.5426661,0.06023182 16.5,0.06023182 C18.4573339,0.06023182 20.2404405,1.1851199 21.0833333,2.95166667 C22.6279381,1.98150855 24.575623,1.91951636 26.1787965,2.78948494 C27.78197,3.65945351 28.7915411,5.32621252 28.82,7.15 C28.8247291,7.59665968 28.7629408,8.04153521 28.6366667,8.47 C29.7933033,9.15933979 30.503232,10.4051951 30.5066667,11.7516667 Z" id="Shape" fill="#547580"></path>
            <path d="M7.425,8.61666667 C6.23333333,8.61666667 6.16916667,6.67333333 6.8475,5.68333333 C7.42223044,4.90765623 8.36161103,4.49015375 9.3225,4.58333333 C9.82876097,4.58333333 10.2391667,4.99373898 10.2391667,5.5 C10.2391667,6.00626102 9.82876097,6.41666667 9.3225,6.41666667 C8.98799486,6.36707425 8.64940433,6.47542321 8.40583333,6.71 C8.28181978,6.92443553 8.25835483,7.18255005 8.34166667,7.41583333 C8.43561218,7.70268983 8.38231634,8.01740956 8.19916256,8.25734102 C8.01600878,8.49727247 7.7264758,8.63165849 7.425,8.61666667 Z" id="Shape" fill="#9FC9D3"></path>
        </g>
    </g>
</svg>