<?xml version="1.0" encoding="UTF-8"?>
<svg width="73px" height="73px" viewBox="0 0 73 73" version="1.1" xmlns="http://www.w3.org/2000/svg" xmlns:xlink="http://www.w3.org/1999/xlink">
    <!-- Generator: Sketch 51.3 (57544) - http://www.bohemiancoding.com/sketch -->
    <title>fundamentals/javascript/documentation</title>
    <desc>Created with Sketch.</desc>
    <defs></defs>
    <g id="fundamentals/javascript/documentation" stroke="none" stroke-width="1" fill="none" fill-rule="evenodd">
        <g id="Bitmap" transform="translate(2.000000, 2.000000)" fill-rule="nonzero">
            <rect id="Mask" stroke="#2A3B4D" stroke-width="2" fill="#FFFFFF" x="-1" y="-1" width="71" height="71" rx="14"></rect>
            <g id="document-(2)" transform="translate(17.000000, 12.000000)">
                <polygon id="Shape" fill="#EDEADA" points="34.6195652 10.6521739 23.9673913 0 0.380434783 0 0.380434783 44.1304348 34.6195652 44.1304348"></polygon>
                <polygon id="Shape" fill="#CEC9AE" points="23.9673913 0 23.9673913 10.6521739 34.6195652 10.6521739"></polygon>
                <g id="Group" transform="translate(6.086957, 10.652174)" fill="#CEC9AE">
                    <path d="M1.14130435,1.52173913 L7.98913043,1.52173913 C8.40913043,1.52173913 8.75,1.18163043 8.75,0.760869565 C8.75,0.340108696 8.40913043,0 7.98913043,0 L1.14130435,0 C0.721304348,0 0.380434783,0.340108696 0.380434783,0.760869565 C0.380434783,1.18163043 0.721304348,1.52173913 1.14130435,1.52173913 Z" id="Shape"></path>
                    <path d="M14.076087,16.7391304 L1.14130435,16.7391304 C0.721304348,16.7391304 0.380434783,17.0792391 0.380434783,17.5 C0.380434783,17.9207609 0.721304348,18.2608696 1.14130435,18.2608696 L14.076087,18.2608696 C14.496087,18.2608696 14.8369565,17.9207609 14.8369565,17.5 C14.8369565,17.0792391 14.496087,16.7391304 14.076087,16.7391304 Z" id="Shape"></path>
                    <path d="M21.6847826,11.4130435 L16.3586957,11.4130435 C15.9386957,11.4130435 15.5978261,11.7531522 15.5978261,12.173913 C15.5978261,12.5946739 15.9386957,12.9347826 16.3586957,12.9347826 L21.6847826,12.9347826 C22.1047826,12.9347826 22.4456522,12.5946739 22.4456522,12.173913 C22.4456522,11.7531522 22.1047826,11.4130435 21.6847826,11.4130435 Z" id="Shape"></path>
                    <path d="M1.14130435,7.60869565 L4.94565217,7.60869565 C5.36565217,7.60869565 5.70652174,7.26858696 5.70652174,6.84782609 C5.70652174,6.42706522 5.36565217,6.08695652 4.94565217,6.08695652 L1.14130435,6.08695652 C0.721304348,6.08695652 0.380434783,6.42706522 0.380434783,6.84782609 C0.380434783,7.26858696 0.721304348,7.60869565 1.14130435,7.60869565 Z" id="Shape"></path>
                    <path d="M12.5543478,7.60869565 L17.8804348,7.60869565 C18.3004348,7.60869565 18.6413043,7.26858696 18.6413043,6.84782609 C18.6413043,6.42706522 18.3004348,6.08695652 17.8804348,6.08695652 L12.5543478,6.08695652 C12.1343478,6.08695652 11.7934783,6.42706522 11.7934783,6.84782609 C11.7934783,7.26858696 12.1343478,7.60869565 12.5543478,7.60869565 Z" id="Shape"></path>
                    <path d="M7.98913043,6.84782609 C7.98913043,7.04565217 8.07282609,7.24347826 8.20978261,7.38804348 C8.35434783,7.525 8.55217391,7.60869565 8.75,7.60869565 C8.94782609,7.60869565 9.14565217,7.525 9.29021739,7.38804348 C9.42717391,7.24347826 9.51086957,7.04565217 9.51086957,6.84782609 C9.51086957,6.64923913 9.42717391,6.45141304 9.29021739,6.3076087 C9.00869565,6.02608696 8.49891304,6.02608696 8.20978261,6.3076087 C8.07282609,6.45141304 7.98913043,6.64923913 7.98913043,6.84782609 Z" id="Shape"></path>
                    <path d="M4.94565217,11.4130435 C4.52565217,11.4130435 4.18478261,11.7531522 4.18478261,12.173913 C4.18478261,12.5946739 4.52565217,12.9347826 4.94565217,12.9347826 L12.5543478,12.9347826 C12.9743478,12.9347826 13.3152174,12.5946739 13.3152174,12.173913 C13.3152174,11.7531522 12.9743478,11.4130435 12.5543478,11.4130435 L4.94565217,11.4130435 Z" id="Shape"></path>
                    <path d="M1.14130435,12.9347826 C1.33913043,12.9347826 1.53695652,12.851087 1.68152174,12.7141304 C1.81847826,12.5695652 1.90217391,12.3717391 1.90217391,12.173913 C1.90217391,11.9753261 1.81847826,11.7775 1.68152174,11.6336957 C1.4,11.3521739 0.882608696,11.3521739 0.601086957,11.6336957 C0.464130435,11.7775 0.380434783,11.9677174 0.380434783,12.173913 C0.380434783,12.3717391 0.464130435,12.5695652 0.601086957,12.7141304 C0.745652174,12.851087 0.943478261,12.9347826 1.14130435,12.9347826 Z" id="Shape"></path>
                    <path d="M21.6847826,22.0652174 L16.3586957,22.0652174 C15.9386957,22.0652174 15.5978261,22.4053261 15.5978261,22.826087 C15.5978261,23.2468478 15.9386957,23.5869565 16.3586957,23.5869565 L21.6847826,23.5869565 C22.1047826,23.5869565 22.4456522,23.2468478 22.4456522,22.826087 C22.4456522,22.4053261 22.1047826,22.0652174 21.6847826,22.0652174 Z" id="Shape"></path>
                    <path d="M12.5543478,22.0652174 L4.94565217,22.0652174 C4.52565217,22.0652174 4.18478261,22.4053261 4.18478261,22.826087 C4.18478261,23.2468478 4.52565217,23.5869565 4.94565217,23.5869565 L12.5543478,23.5869565 C12.9743478,23.5869565 13.3152174,23.2468478 13.3152174,22.826087 C13.3152174,22.4053261 12.9743478,22.0652174 12.5543478,22.0652174 Z" id="Shape"></path>
                    <path d="M0.601086957,22.2858696 C0.464130435,22.4228261 0.380434783,22.6198913 0.380434783,22.826087 C0.380434783,23.0315217 0.456521739,23.2217391 0.601086957,23.3663043 C0.745652174,23.5032609 0.943478261,23.5869565 1.14130435,23.5869565 C1.34673913,23.5869565 1.53695652,23.5032609 1.68152174,23.3663043 C1.81847826,23.2217391 1.90217391,23.023913 1.90217391,22.826087 C1.90217391,22.6198913 1.81847826,22.4296739 1.68152174,22.2934783 C1.4,22.0043478 0.890217391,22.0043478 0.601086957,22.2858696 Z" id="Shape"></path>
                    <path d="M21.6847826,7.60869565 C21.8826087,7.60869565 22.0804348,7.525 22.225,7.38804348 C22.3695652,7.24347826 22.4456522,7.04565217 22.4456522,6.84782609 C22.4456522,6.64923913 22.3695652,6.45141304 22.225,6.3076087 C21.9358696,6.02608696 21.4336957,6.02608696 21.1445652,6.3076087 C21.0076087,6.45141304 20.923913,6.64923913 20.923913,6.84782609 C20.923913,7.04565217 21.0076087,7.24347826 21.1445652,7.38804348 C21.2891304,7.525 21.4869565,7.60869565 21.6847826,7.60869565 Z" id="Shape"></path>
                    <path d="M18.4206522,18.0402174 C18.5576087,17.8956522 18.6413043,17.6978261 18.6413043,17.5 C18.6413043,17.301413 18.5576087,17.103587 18.4206522,16.9597826 C18.1315217,16.6782609 17.6217391,16.6782609 17.3402174,16.9597826 C17.2032609,17.103587 17.1195652,17.301413 17.1195652,17.5 C17.1195652,17.6978261 17.2032609,17.8956522 17.3402174,18.0402174 C17.4847826,18.1840217 17.675,18.2608696 17.8804348,18.2608696 C18.0858696,18.2608696 18.276087,18.1771739 18.4206522,18.0402174 Z" id="Shape"></path>
                    <path d="M21.1445652,16.9597826 C21.0076087,17.103587 20.923913,17.301413 20.923913,17.5 C20.923913,17.6978261 21.0076087,17.8956522 21.1445652,18.0402174 C21.2891304,18.1771739 21.4793478,18.2608696 21.6847826,18.2608696 C21.8902174,18.2608696 22.0804348,18.1771739 22.225,18.0402174 C22.3619565,17.8956522 22.4456522,17.6978261 22.4456522,17.5 C22.4456522,17.301413 22.3619565,17.103587 22.225,16.9597826 C21.9434783,16.6782609 21.426087,16.6782609 21.1445652,16.9597826 Z" id="Shape"></path>
                </g>
            </g>
        </g>
    </g>
</svg>