<?xml version="1.0" encoding="UTF-8"?>
<svg width="73px" height="73px" viewBox="0 0 73 73" version="1.1" xmlns="http://www.w3.org/2000/svg" xmlns:xlink="http://www.w3.org/1999/xlink">
    <!-- Generator: Sketch 51.3 (57544) - http://www.bohemiancoding.com/sketch -->
    <title>fundamentals/javascript/events</title>
    <desc>Created with Sketch.</desc>
    <defs>
        <rect id="path-1" x="0" y="0" width="69" height="69" rx="14"></rect>
    </defs>
    <g id="fundamentals/javascript/events" stroke="none" stroke-width="1" fill="none" fill-rule="evenodd">
        <g id="container" transform="translate(2.000000, 2.000000)">
            <rect id="mask" stroke="#54423C" stroke-width="2" fill="#FFFFFF" fill-rule="nonzero" x="-1" y="-1" width="71" height="71" rx="14"></rect>
            <mask id="mask-2" fill="white">
                <use xlink:href="#path-1"></use>
            </mask>
            <rect stroke="#54423C" stroke-width="2" x="-1" y="-1" width="71" height="71" rx="14"></rect>
            <g id="volcano" mask="url(#mask-2)">
                <g transform="translate(4.000000, 9.000000)">
                    <path d="M35.9415045,30.0916888 C35.5633993,29.2336111 34.6515483,28.8320631 33.7831993,28.8320631 C29.5348627,28.8320631 31.4647823,28.8320631 27.4058005,28.8320631 C26.1920936,28.8320631 25.357217,29.5098491 25.0763872,30.3860526 L25.0762664,30.3859318 C23.1361963,34.8546786 16.8161961,48.0783314 6.04122467,58.2005306 C7.26520284,58.2005306 53.8793282,58.2005306 55.1036688,58.2005306 C41.9142135,45.810546 35.1712768,28.3439944 35.9415045,30.0916888 Z" id="Shape" fill="#8C614B" fill-rule="nonzero"></path>
                    <path d="M29.445321,30.219899 C29.5251956,29.8051796 29.850615,29.1759709 30.3965656,28.832184 C29.3977105,28.832184 28.5734677,28.832184 27.4056797,28.832184 C26.1919728,28.832184 25.3570962,29.5099699 25.0762664,30.3861734 L25.0761455,30.3860526 C23.1360755,34.8547994 16.8160753,48.0784522 6.04110383,58.2006514 L15.0554511,58.2006514 C23.3597485,47.5760037 27.9917488,34.7032674 29.445321,30.219899 Z" id="Shape" fill="#725346" fill-rule="nonzero"></path>
                    <g id="Group" stroke-width="1" fill="none" fill-rule="evenodd" transform="translate(14.621518, 46.402174)">
                        <path d="M30.1355534,12.6346835 C25.0512527,8.49945233 21.6550728,1.67821195 21.513087,1.39001095 C21.2885681,0.934327102 21.4758685,0.382817933 21.9315524,0.158299082 C22.3874779,-0.0660989298 22.9387454,0.121201511 23.1631434,0.576885358 C23.2038662,0.659176713 26.5344305,7.33468526 31.2963328,11.207575 C31.6903887,11.52804 31.7500832,12.1073422 31.4294973,12.501519 C31.1091532,12.8954541 30.5296093,12.9552694 30.1355534,12.6346835 Z" id="Shape" fill="#54423C" fill-rule="nonzero"></path>
                        <path d="M0.402273011,11.9694649 C0.00108755095,11.6577003 -0.0714158455,11.0798482 0.24022792,10.6786627 C2.72322757,7.48283387 4.27250431,4.36470447 4.28785087,4.33352801 C4.51261139,3.87820668 5.0642414,3.69138959 5.51956273,3.91554592 C5.97512574,4.14006478 6.16242618,4.69145311 5.93790733,5.14689527 C5.87205008,5.2805432 4.29594708,8.45703784 1.69283347,11.8072989 C1.38131054,12.2083636 0.803579311,12.2809878 0.402273011,11.9694649 Z" id="Shape" fill="#54423C" fill-rule="nonzero"></path>
                        <path d="M8.1067256,11.8006528 C7.67243025,11.5372238 7.53382792,10.9714556 7.79725693,10.5371603 C10.8189568,5.55581443 12.4836348,0.691803241 12.5001897,0.643346804 C12.6633224,0.162286769 13.1857094,-0.0951002883 13.6666486,0.0676698367 C14.1477086,0.230802479 14.4054582,0.752947772 14.2423255,1.23412865 C14.1724806,1.44027997 12.4953562,6.33921363 9.37021812,11.491305 C9.10642659,11.9262045 8.54029591,12.063961 8.1067256,11.8006528 Z" id="Shape" fill="#54423C" fill-rule="nonzero"></path>
                    </g>
                    <path d="M25.0762664,30.3861734 C24.4787175,31.7622879 23.4651201,33.9696538 22.0346281,36.6603757 C21.9842382,37.136723 22.4688026,37.4784557 22.8974185,37.2826965 L27.7474123,35.066751 C30.4347507,37.8183758 30.3169327,37.7858701 30.661203,37.7858701 C31.0054733,37.7858701 30.8868094,37.8192217 33.5748728,35.066751 L38.0758837,36.9334718 C38.5035329,37.1114677 38.9709381,36.7669557 38.918494,36.2989463 C37.4854644,33.5760812 36.4938596,31.3818868 35.9424712,30.0943473 C35.5000797,29.2094433 34.67052,28.832184 33.7829576,28.832184 C29.5346211,28.832184 31.4645406,28.832184 27.4055588,28.832184 C26.1920936,28.832184 25.3570962,29.5099699 25.0762664,30.3861734 Z" id="Shape" fill="#FF5E48" fill-rule="nonzero"></path>
                    <path d="M22.0347489,36.6603757 C21.984359,37.136723 22.4689234,37.4784557 22.8975393,37.2826965 L27.716115,35.0811309 C28.5024144,33.0365351 29.0765204,31.357719 29.4454419,30.2200198 L29.4455627,30.2200198 C29.5253165,29.8053004 29.8507359,29.1760918 30.3966864,28.8323048 C29.3978313,28.8323048 28.5735885,28.8323048 27.4058005,28.8323048 C26.1920936,28.8323048 25.357217,29.5100907 25.0763872,30.3862943 L25.0762664,30.3861734 C24.1447186,32.5317906 22.9295616,34.998477 22.0347489,36.6603757 Z" id="Shape" fill="#CE4542" fill-rule="nonzero"></path>
                    <path d="M61.0471348,60.3978669 C61.0471348,61.2106299 60.3883206,61.869565 59.5754367,61.869565 L1.56933602,61.869565 C0.756452103,61.869565 0.0976379072,61.2106299 0.0976379072,60.3978669 L0.0976379072,59.4270464 C0.0976379072,58.6142833 0.756452103,57.9553483 1.56933602,57.9553483 L59.5754367,57.9553483 C60.3883206,57.9553483 61.0471348,58.6142833 61.0471348,59.4270464 L61.0471348,60.3978669 Z" id="Shape" fill="#95B737" fill-rule="nonzero"></path>
                    <g id="Group" stroke-width="1" fill="none" fill-rule="evenodd" transform="translate(18.730044, 0.000000)">
                        <path d="M4.48143493,10.5974589 C2.03565369,10.5974589 0.0459188177,12.5871938 0.0459188177,15.0328542 C0.0459188177,15.5408613 0.45773811,15.9526806 0.965745241,15.9526806 C1.47375237,15.9526806 1.88557166,15.5408613 1.88557166,15.0328542 C1.88557166,13.6015163 3.05009705,12.4371118 4.48143493,12.4371118 C5.91277282,12.4371118 7.0772982,13.6015163 7.0772982,15.0328542 L7.0772982,25.2165604 C7.0772982,25.7245676 7.4891175,26.1363869 7.99712463,26.1363869 C8.50513176,26.1363869 8.91695105,25.7245676 8.91695105,25.2165604 L8.91695105,15.0328542 C8.91695105,12.5871938 6.92721617,10.5974589 4.48143493,10.5974589 Z" id="Shape" fill="#FF9C01" fill-rule="nonzero"></path>
                        <path d="M22.7189393,17.4177326 C23.2269464,17.4177326 23.6387657,17.0059133 23.6387657,16.4979062 C23.6387657,14.0521249 21.6490308,12.0622692 19.2032496,12.0622692 C16.7574683,12.0622692 14.7677335,14.0521249 14.7677335,16.4979062 L14.7677335,25.2165604 C14.7677335,25.7245676 15.1795528,26.1363869 15.6875599,26.1363869 C16.195567,26.1363869 16.6073863,25.7245676 16.6073863,25.2165604 L16.6073863,16.4979062 C16.6073863,15.0664475 17.7719117,13.9019221 19.2032496,13.9019221 C20.6345875,13.9019221 21.7991129,15.0664475 21.7991129,16.4979062 C21.7991129,17.0059133 22.2109321,17.4177326 22.7189393,17.4177326 Z" id="Shape" fill="#FF9C01" fill-rule="nonzero"></path>
                        <path d="M17.9454365,4.43563696 C17.9454365,4.94364409 18.3572558,5.35546338 18.8652629,5.35546338 C19.37327,5.35546338 19.7850893,4.94364409 19.7850893,4.43563696 C19.7850893,1.98985572 17.7952336,0 15.3495732,0 C12.903792,0 10.9140571,1.98985572 10.9140571,4.43563696 L10.9140571,25.2165604 C10.9140571,25.7245676 11.3258764,26.1363869 11.8338835,26.1363869 C12.3418907,26.1363869 12.75371,25.7245676 12.75371,25.2165604 L12.75371,4.43563696 C12.75371,3.00417823 13.9182353,1.83965285 15.3495732,1.83965285 C16.7809111,1.83965285 17.9454365,3.00417823 17.9454365,4.43563696 Z" id="Shape" fill="#FF9C01" fill-rule="nonzero"></path>
                    </g>
                    <g id="Group" stroke-width="1" fill="none" fill-rule="evenodd" transform="translate(18.730044, 17.642493)">
                        <path d="M0.965745241,0.0223552139 C0.45773811,0.0223552139 0.0459188177,0.434174506 0.0459188177,0.942181637 L0.0459188177,1.28028914 C0.0459188177,1.78829627 0.45773811,2.20011557 0.965745241,2.20011557 C1.47375237,2.20011557 1.88557166,1.78829627 1.88557166,1.28028914 L1.88557166,0.942181637 C1.88557166,0.434053667 1.47375237,0.0223552139 0.965745241,0.0223552139 Z" id="Shape" fill="#F7CE4D" fill-rule="nonzero"></path>
                        <path d="M22.7189393,1.43061285 C22.2109321,1.43061285 21.7991129,1.84243214 21.7991129,2.35043927 L21.7991129,2.68854678 C21.7991129,3.19655391 22.2109321,3.6083732 22.7189393,3.6083732 C23.2269464,3.6083732 23.6387657,3.19655391 23.6387657,2.68854678 L23.6387657,2.35043927 C23.6387657,1.84243214 23.2269464,1.43061285 22.7189393,1.43061285 Z" id="Shape" fill="#F7CE4D" fill-rule="nonzero"></path>
                    </g>
                </g>
            </g>
        </g>
    </g>
</svg>