<?xml version="1.0" encoding="UTF-8"?>
<svg width="73px" height="73px" viewBox="0 0 73 73" version="1.1" xmlns="http://www.w3.org/2000/svg" xmlns:xlink="http://www.w3.org/1999/xlink">
    <!-- Generator: Sketch 51.3 (57544) - http://www.bohemiancoding.com/sketch -->
    <title>fundamentals/javascript/fetch</title>
    <desc>Created with Sketch.</desc>
    <defs></defs>
    <g id="fundamentals/javascript/fetch" stroke="none" stroke-width="1" fill="none" fill-rule="evenodd">
        <g id="container" transform="translate(2.000000, 2.000000)" fill="#FFFAED" fill-rule="nonzero" stroke="#334A5E" stroke-width="2">
            <rect id="mask" x="-1" y="-1" width="71" height="71" rx="14"></rect>
        </g>
        <g id="delivery-truck" transform="translate(14.000000, 24.000000)" fill-rule="nonzero">
            <path d="M39.9854561,8.86861598 L30.2988752,8.86861598 L30.2988752,26.4250858 L46.169575,26.4250858 L46.169575,18.5229474 L44.3186179,12.1258168 C43.7606647,10.1967096 41.9937212,8.86861598 39.9854561,8.86861598" id="Shape" fill="#FF7058"></path>
            <path d="M43.8524659,18.4418655 L42.202885,12.7395653 C41.9185029,11.759345 41.0067212,11.0733099 39.9854561,11.0733099 L32.5035692,11.0733099 L32.5035692,18.4418655 L43.8524659,18.4418655 Z" id="Shape" fill="#84DBFF"></path>
            <polygon id="Shape" fill="#CDD6E0" points="43.8544815 18.4389337 32.4997212 18.4389337 32.4997212 11.0703782"></polygon>
            <path d="M43.8524659,18.4418655 L42.202885,12.7395653 C41.9185029,11.759345 41.0067212,11.0733099 39.9854561,11.0733099 L32.5035692,11.0733099 L43.8524659,18.4418655 Z" id="Shape" fill="#F2F2F2"></path>
            <path d="M2.93177388,0.0546959064 L27.3671014,0.0546959064 C28.9854405,0.0546959064 30.2988752,1.36712281 30.2988752,2.98646979 L30.2988752,26.424078 L0,26.424078 L0,2.98646979 C0,1.36721442 1.3124269,0.0546959064 2.93177388,0.0546959064" id="Shape" fill="#FFD15C"></path>
            <polygon id="Shape" fill="#F2F2F2" points="19.8579123 0.0596432749 19.8579123 7.80630604 18.724232 6.67271735 17.5359474 7.86109357 16.3485789 6.67271735 15.1612105 7.86109357 13.9718265 6.67271735 12.768883 7.86109357 11.5824308 6.67271735 10.435191 7.82004873 10.435191 0.0596432749"></polygon>
            <path d="M46.9123216,26.4230702 L46.9123216,29.7359747 L0.00393957115,29.7359747 L0.00393957115,26.4230702 L4.90000195,26.4230702 C6.04339376,24.3708285 8.24222417,22.9830916 10.7635497,22.9830916 C13.2750721,22.9830916 15.4739025,24.3708285 16.6270975,26.4230702 L32.3805263,26.4230702 C33.5239181,24.3708285 35.7120292,22.9830916 38.2333548,22.9830916 C40.7546803,22.9830916 42.9437076,24.3708285 44.0969025,26.4230702 L46.9123216,26.4230702 Z" id="Shape" fill="#334A5E"></path>
            <path d="M42.915306,29.7154522 C42.915306,32.3012768 40.8190877,34.3974951 38.2332632,34.3974951 C35.6474386,34.3974951 33.5531442,32.3012768 33.5531442,29.7154522 C33.5531442,27.1296277 35.6483548,25.0334094 38.2332632,25.0334094 C40.8200955,25.0334094 42.915306,27.1296277 42.915306,29.7154522" id="Shape" fill="#40596B"></path>
            <path d="M40.115462,29.7154522 C40.115462,30.754308 39.2730351,31.5957271 38.2351871,31.5957271 C37.1963314,31.5957271 36.3529883,30.754308 36.3529883,29.7154522 C36.3529883,28.6765965 37.1954152,27.8351774 38.2351871,27.8351774 C39.2730351,27.8342612 40.115462,28.6766881 40.115462,29.7154522" id="Shape" fill="#ACB3BA"></path>
            <path d="M15.441653,29.7154522 C15.441653,32.3012768 13.3444269,34.3974951 10.7596101,34.3974951 C8.17378558,34.3974951 6.07756725,32.3012768 6.07756725,29.7154522 C6.07756725,27.1296277 8.17378558,25.0334094 10.7596101,25.0334094 C13.3444269,25.0334094 15.441653,27.1296277 15.441653,29.7154522" id="Shape" fill="#40596B"></path>
            <path d="M12.639885,29.7154522 C12.639885,30.754308 11.7984659,31.5957271 10.7596101,31.5957271 C9.72075439,31.5957271 8.8784191,30.754308 8.8784191,29.7154522 C8.8784191,28.6765965 9.720846,27.8351774 10.7596101,27.8351774 C11.7983743,27.8351774 12.639885,28.6766881 12.639885,29.7154522" id="Shape" fill="#ACB3BA"></path>
        </g>
    </g>
</svg>