<?xml version="1.0" encoding="UTF-8"?>
<svg width="73px" height="73px" viewBox="0 0 73 73" version="1.1" xmlns="http://www.w3.org/2000/svg" xmlns:xlink="http://www.w3.org/1999/xlink">
    <!-- Generator: Sketch 51.3 (57544) - http://www.bohemiancoding.com/sketch -->
    <title>fundamentals/javascript/intl</title>
    <desc>Created with Sketch.</desc>
    <defs></defs>
    <g id="fundamentals/javascript/intl" stroke="none" stroke-width="1" fill="none" fill-rule="evenodd">
        <g id="container" transform="translate(2.000000, 2.000000)" fill="#FFFFFF" fill-rule="nonzero" stroke="#53565C" stroke-width="2">
            <rect id="mask" x="-1" y="-1" width="71" height="71" rx="14"></rect>
        </g>
        <g id="language" transform="translate(15.000000, 15.000000)" fill-rule="nonzero">
            <path d="M39.2207031,7.64257812 L19.925293,7.64257812 L17.0254805,42.5629453 C17.5350977,42.8177539 18.0831797,43 18.6852637,43 L39.2207031,43 C41.3046914,43 43,41.3046914 43,39.2207031 L43,11.421875 C43,9.33788672 41.3046914,7.64257812 39.2207031,7.64257812 Z" id="Shape" fill="#DAE2F2"></path>
            <path d="M14.2661738,34.2538672 L14.9354453,39.6894199 C15.0698203,40.7689551 15.8004844,41.9504473 17.0254805,42.5629453 C19.4750527,39.9280195 17.8329063,41.6104785 23.6458848,35.3574219 L14.2661738,34.2538672 Z" id="Shape" fill="#4D97FF"></path>
            <path d="M23.6458848,35.3574219 C24.0579961,34.8864375 24.4194648,34.5702363 24.3222109,33.921709 L20.5059609,3.31058008 C20.2709727,1.42336719 18.6581367,0 16.7562266,0 L3.77929688,0 C1.69530859,0 0,1.69530859 0,3.77929688 L0,31.578125 C0,33.6621133 1.69530859,35.3574219 3.77929688,35.3574219 C10.3638398,35.3574219 17.0402617,35.3574219 23.6458848,35.3574219 Z" id="Shape" fill="#4DB5FF"></path>
            <path d="M13.9167988,9.91485937 C13.7987168,9.32680078 13.2819609,8.90234375 12.6816406,8.90234375 L10.1621094,8.90234375 C9.56178906,8.90234375 9.0450332,9.32680078 8.92695117,9.91485937 L6.40741992,22.5125156 C6.27086133,23.1953086 6.71371094,23.8583652 7.39532812,23.9949238 C8.08551172,24.1364375 8.7424375,23.6886328 8.87773633,23.0070156 L9.68289453,18.9804688 L13.1607715,18.9804688 L13.9659297,23.0070156 C14.103748,23.6987949 14.7803262,24.1324063 15.4483379,23.9949238 C16.1298711,23.8583652 16.5728047,23.1953086 16.4362461,22.5125156 L13.9167988,9.91485937 Z M10.1867168,16.4609375 L11.1942773,11.421875 L11.6494727,11.421875 L12.6570332,16.4609375 L10.1867168,16.4609375 Z" id="Shape" fill="#E6EEFF"></path>
            <path d="M36.6171875,18.9804688 L32.8378906,18.9804688 L32.8378906,17.7207031 C32.8378906,17.0243887 32.2744395,16.4609375 31.578125,16.4609375 C30.8818105,16.4609375 30.3183594,17.0243887 30.3183594,17.7207031 L30.3183594,18.9804688 L26.5390625,18.9804688 C25.842748,18.9804688 25.2792969,19.5439199 25.2792969,20.2402344 C25.2792969,20.9365488 25.842748,21.5 26.5390625,21.5 L26.8755039,21.5 C27.5923105,23.7997441 28.6450547,25.5992773 29.8263789,27.0179414 C28.9009551,27.864 27.9953516,28.5581309 27.0113906,29.3354062 C26.4689355,29.7696895 26.380332,30.5619141 26.815875,31.1057129 C27.2494023,31.6486719 28.0447344,31.7367715 28.5860977,31.3013125 C29.6552188,30.4575215 30.5747637,29.7512969 31.578125,28.8304082 C32.5814863,29.7513809 33.5010313,30.4576055 34.5699844,31.3013125 C35.1115156,31.7367715 35.9068477,31.6486719 36.340375,31.1057129 C36.775918,30.5619141 36.6873145,29.7696895 36.1446914,29.3354062 C35.1608145,28.5581309 34.2552109,27.864 33.3297871,27.0179414 C34.5111113,25.5993613 35.5639395,23.7998281 36.2806621,21.5 L36.6171875,21.5 C37.313502,21.5 37.8769531,20.9365488 37.8769531,20.2402344 C37.8769531,19.5439199 37.313502,18.9804688 36.6171875,18.9804688 Z M31.578125,25.1505488 C30.777418,24.1440801 30.0538926,22.9611602 29.5099258,21.5 L33.6463242,21.5 C33.1023574,22.9612441 32.378832,24.1440801 31.578125,25.1505488 Z" id="Shape" fill="#53565C"></path>
        </g>
    </g>
</svg>