<?xml version="1.0" encoding="UTF-8"?>
<svg width="73px" height="73px" viewBox="0 0 73 73" version="1.1" xmlns="http://www.w3.org/2000/svg" xmlns:xlink="http://www.w3.org/1999/xlink">
    <!-- Generator: Sketch 51.3 (57544) - http://www.bohemiancoding.com/sketch -->
    <title>fundamentals/javascript/modules</title>
    <desc>Created with Sketch.</desc>
    <defs></defs>
    <g id="fundamentals/javascript/modules" stroke="none" stroke-width="1" fill="none" fill-rule="evenodd">
        <g id="container" transform="translate(2.000000, 2.000000)" fill="#FFFEFC" fill-rule="nonzero" stroke="#951818" stroke-width="2">
            <rect id="mask" x="-1" y="-1" width="71" height="71" rx="14"></rect>
        </g>
        <g id="gift-box" transform="translate(12.000000, 14.000000)" fill-rule="nonzero">
            <path d="M22.3188301,8.10969141 C22.0348789,7.75013477 15.3041738,-0.686669922 9.99073633,0.0465117188 C8.10672461,0.306632813 6.65576953,1.63078125 5.67835352,3.98211133 C4.32989648,7.22596875 4.21782812,9.86278125 5.34530664,11.8191445 C6.74898437,14.2547891 9.53126562,14.6477461 9.64898047,14.6633457 C9.68008398,14.6674609 9.71147461,14.6694707 9.74286523,14.6694707 L21.7554258,14.6694707 C22.1518281,14.6694707 22.4731992,14.3480996 22.4731992,13.9516973 L22.4731992,8.55451953 C22.4732949,8.39316406 22.4188398,8.23640234 22.3188301,8.10969141 Z" id="Shape" fill="#FF3D43"></path>
            <path d="M43.2296758,3.98211133 C42.2522598,1.63078125 40.8014004,0.306632812 38.9173887,0.0465117187 C33.6050039,-0.686861328 26.8731504,7.75023047 26.5892949,8.10969141 C26.4892852,8.23640234 26.4348301,8.39316406 26.4348301,8.55451953 L26.4348301,13.9516973 C26.4348301,14.3480996 26.7562012,14.6694707 27.1526035,14.6694707 L39.1651641,14.6694707 C39.1965547,14.6694707 39.2279453,14.6674609 39.2590488,14.6633457 C39.3767637,14.6477461 42.1590449,14.2547891 43.5627227,11.8191445 C44.6902969,9.86268555 44.5782285,7.22596875 43.2296758,3.98211133 Z" id="Shape" fill="#FF3D43"></path>
            <path d="M21.7555215,11.3677129 L9.74296094,11.3677129 C9.71157031,11.3677129 9.68017969,11.3657031 9.64907617,11.3615879 C9.53136133,11.3459883 6.74908008,10.953127 5.34540234,8.51738672 C5.07475391,8.04777148 4.87636133,7.53853516 4.74850195,6.9915918 C4.39181641,8.89139453 4.58992187,10.5082988 5.34540234,11.8191445 C6.74908008,14.2547891 9.53136133,14.6477461 9.64907617,14.6633457 C9.68017969,14.6674609 9.71157031,14.6694707 9.74296094,14.6694707 L21.7555215,14.6694707 C22.1519238,14.6694707 22.4732949,14.3480996 22.4732949,13.9516973 L22.4732949,10.6499395 C22.4732949,11.0463418 22.1519238,11.3677129 21.7555215,11.3677129 Z" id="Shape" fill="#D62D2D"></path>
            <path d="M43.5627227,8.51738672 C42.1590449,10.9530312 39.3767637,11.3459883 39.2590488,11.3615879 C39.2279453,11.3657031 39.1965547,11.3677129 39.1651641,11.3677129 L27.1526035,11.3677129 C26.7562012,11.3677129 26.4348301,11.0463418 26.4348301,10.6499395 L26.4348301,13.9516973 C26.4348301,14.3480996 26.7562012,14.6694707 27.1526035,14.6694707 L39.1651641,14.6694707 C39.1965547,14.6694707 39.2279453,14.6674609 39.2590488,14.6633457 C39.3767637,14.6477461 42.1590449,14.2547891 43.5627227,11.8191445 C44.3182031,10.5082031 44.5163086,8.89139453 44.159623,6.9915918 C44.0318594,7.53853516 43.8333711,8.04777148 43.5627227,8.51738672 Z" id="Shape" fill="#D62D2D"></path>
            <path d="M27.1526035,7.83674609 L21.7554258,7.83674609 C21.3590234,7.83674609 21.0376523,8.15811719 21.0376523,8.55451953 L21.0376523,13.9516973 C21.0376523,14.3480996 21.3590234,14.6694707 21.7554258,14.6694707 L27.1526035,14.6694707 C27.5490059,14.6694707 27.870377,14.3480996 27.870377,13.9516973 L27.870377,8.55451953 C27.870377,8.15811719 27.5490059,7.83674609 27.1526035,7.83674609 Z" id="Shape" fill="#D62D2D"></path>
            <path d="M21.037748,11.3677129 L21.037748,13.9516973 C21.037748,14.3480996 21.3591191,14.6694707 21.7555215,14.6694707 L27.1526992,14.6694707 C27.5491016,14.6694707 27.8704727,14.3480996 27.8704727,13.9516973 L27.8704727,11.3677129 L21.037748,11.3677129 Z" id="Shape" fill="#9E1219"></path>
            <path d="M44.5641602,20.3240898 L4.34396484,20.3240898 C3.9475625,20.3240898 3.62619141,20.6454609 3.62619141,21.0418633 L3.62619141,41.9595039 C3.62619141,43.6794805 5.0254668,45.0787559 6.74544336,45.0787559 L42.1626816,45.0787559 C43.8826582,45.0787559 45.2819336,43.6794805 45.2819336,41.9595039 L45.2819336,21.0418633 C45.2819336,20.6453652 44.9605625,20.3240898 44.5641602,20.3240898 Z" id="Shape" fill="#FFD039"></path>
            <path d="M44.5641602,20.3240898 L4.34396484,20.3240898 C3.9475625,20.3240898 3.62619141,20.6454609 3.62619141,21.0418633 L3.62619141,24.1258008 L45.2819336,24.1258008 L45.2819336,21.0418633 C45.2819336,20.6453652 44.9605625,20.3240898 44.5641602,20.3240898 Z" id="Shape" fill="#F4B70C"></path>
            <path d="M48.1903516,13.2339238 L0.717773437,13.2339238 C0.321371094,13.2339238 0,13.5552949 0,13.9516973 L0,21.0417676 C0,21.4381699 0.321371094,21.759541 0.717773437,21.759541 L48.1903516,21.759541 C48.5867539,21.759541 48.908125,21.4381699 48.908125,21.0417676 L48.908125,13.9516973 C48.908125,13.5552949 48.5867539,13.2339238 48.1903516,13.2339238 Z" id="Shape" fill="#FFDF65"></path>
            <path d="M0,18.4577832 L0,21.0417676 C0,21.4381699 0.321371094,21.759541 0.717773437,21.759541 L48.1903516,21.759541 C48.5867539,21.759541 48.908125,21.4381699 48.908125,21.0417676 L48.908125,18.4577832 L0,18.4577832 Z" id="Shape" fill="#FFCD2C"></path>
            <path d="M28.0030215,13.2339238 L20.9050078,13.2339238 C20.5086055,13.2339238 20.1872344,13.5552949 20.1872344,13.9516973 L20.1872344,44.3608867 C20.1872344,44.7572891 20.5086055,45.0786602 20.9050078,45.0786602 L28.0030215,45.0786602 C28.3994238,45.0786602 28.7207949,44.7572891 28.7207949,44.3608867 L28.7207949,13.9516973 C28.7207949,13.5552949 28.3995195,13.2339238 28.0030215,13.2339238 Z" id="Shape" fill="#FF3D43"></path>
            <path d="M28.0030215,13.2339238 L25.4190371,13.2339238 L25.4190371,45.0786602 L28.0030215,45.0786602 C28.3994238,45.0786602 28.7207949,44.7572891 28.7207949,44.3608867 L28.7207949,13.9516973 C28.7207949,13.5552949 28.3995195,13.2339238 28.0030215,13.2339238 Z" id="Shape" fill="#D62D2D"></path>
        </g>
    </g>
</svg>