<?xml version="1.0" encoding="UTF-8"?>
<svg width="73px" height="73px" viewBox="0 0 73 73" version="1.1" xmlns="http://www.w3.org/2000/svg" xmlns:xlink="http://www.w3.org/1999/xlink">
    <!-- Generator: Sketch 51.3 (57544) - http://www.bohemiancoding.com/sketch -->
    <title>fundamentals/javascript/objects</title>
    <desc>Created with Sketch.</desc>
    <defs></defs>
    <g id="fundamentals/javascript/objects" stroke="none" stroke-width="1" fill="none" fill-rule="evenodd">
        <g id="container" transform="translate(2.000000, 2.000000)" fill="#FFFFFF" fill-rule="nonzero" stroke="#5D5A5A" stroke-width="2">
            <rect id="mask" x="-1" y="-1" width="71" height="71" rx="14"></rect>
        </g>
        <g id="stonehenge" transform="translate(15.000000, 15.000000)" fill-rule="nonzero">
            <path d="M38.2419644,14.7583753 L5.56908595,14.7583753 C2.5051782,14.7583753 0.0214549266,12.2745618 0.0214549266,9.21074423 L0.0214549266,7.53094969 C0.0213647799,4.46704193 2.5051782,1.98322851 5.56908595,1.98322851 L33.8158491,0.0237987421 C38.7266834,-0.336247379 42.9091321,3.43954927 42.9091321,8.36354507 L42.9091321,10.0912075 C42.9091321,12.6687736 40.8196205,14.7583753 38.2419644,14.7583753 Z" id="Shape" fill="#C1C1C1"></path>
            <path d="M15.1118407,44.736587 L9.1312348,44.736587 C6.99160168,44.736587 5.3138805,42.8993962 5.50760587,40.7685975 L7.69600839,16.8310294 C7.80274214,15.6572285 8.78687421,14.7584654 9.96554298,14.7584654 L12.1614277,14.7584654 C13.8597925,14.7584654 15.2646394,16.0807379 15.3674067,17.7759476 L16.8947631,42.8425136 C16.9568742,43.8694654 16.1407757,44.736587 15.1118407,44.736587 Z" id="Shape" fill="#C1C1C1"></path>
            <path d="M32.8897715,44.736587 L29.3178868,44.736587 C27.1782537,44.736587 25.5005325,42.8993962 25.6942579,40.7685975 L27.8826604,16.8310294 C27.9893941,15.6572285 28.9735262,14.7584654 30.152195,14.7584654 L32.3480797,14.7584654 C34.0464444,14.7584654 35.4512914,16.0807379 35.5540587,17.7759476 L36.9356478,40.5727086 C37.0768176,42.9032725 35.2246625,44.736587 32.8897715,44.736587 Z" id="Shape" fill="#C1C1C1"></path>
            <path d="M16.3973333,34.6808973 L15.3673166,17.7758574 C15.2645493,16.0805577 13.8597925,14.7583753 12.1614277,14.7583753 L9.96554298,14.7583753 C9.15999161,14.7583753 8.51210692,15.2456184 8.51210692,15.282218 C9.16026205,21.1632117 15.3803878,21.7040922 16.3973333,34.6808973 Z" id="Shape" fill="#9B9B9B"></path>
            <path d="M35.5538784,17.7758574 C35.4511111,16.0805577 34.0463543,14.7583753 32.3478994,14.7583753 L30.1520147,14.7583753 C29.4421992,14.7583753 28.938369,15.1027358 28.9473836,15.1027358 C28.5867966,21.3284507 34.3994591,23.9752495 36.3573564,31.0342809 L35.5538784,17.7758574 Z" id="Shape" fill="#9B9B9B"></path>
            <path d="M39.3881803,1.55584277 C29.7888134,4.80148637 31.3110314,12.6142348 6.23049266,14.7582851 L38.2419644,14.7582851 C40.8196205,14.7582851 42.9091321,12.6686834 42.9091321,10.0910273 L42.9091321,8.36345493 C42.9091321,5.5192348 41.5135702,3.05813836 39.3881803,1.55584277 Z" id="Shape" fill="#9B9B9B"></path>
            <path d="M42.9091321,10.0911174 C42.9091321,8.24824738 43.0071216,7.04172327 42.3509434,5.34444025 C38.2625178,6.364 42.3492306,14.0565828 28.466631,14.7582851 L38.2418742,14.7582851 C40.8196205,14.7583753 42.9091321,12.6687736 42.9091321,10.0911174 Z" id="Shape" fill="#828282"></path>
            <path d="M35.5538784,17.7758574 C35.4511111,16.0805577 34.0463543,14.7583753 32.3478994,14.7583753 C30.034283,14.7583753 29.6452096,14.6675073 28.9473836,15.1027358 C28.9424256,15.1882851 28.9390901,15.2729329 28.9364759,15.3572201 C31.2355786,18.0027568 33.8556939,17.0831698 35.5581153,19.0448532 L35.6288805,19.0149245 L35.5538784,17.7758574 Z" id="Shape" fill="#828282"></path>
            <g id="Group" transform="translate(0.000000, 1.262055)" fill="#DBDBDB">
                <path d="M15.618195,0.0240691824 L5.56908595,0.721174004 C2.5051782,0.721174004 0.0214549266,3.20498742 0.0214549266,6.26880503 C0.0214549266,8.00286792 0.00135220126,8.23986373 0.0848280922,8.78912788 C1.5813543,2.41268763 9.28655765,1.21112159 15.618195,0.0240691824 Z" id="Shape"></path>
                <path d="M7.48145912,17.9154948 C7.49047379,17.9154948 7.52013208,17.4919853 5.50760587,39.506543 C5.31442138,41.6314822 6.98574214,43.4745325 9.1312348,43.4745325 C11.6640881,35.5863312 7.81977987,28.4853816 7.48145912,17.9154948 Z" id="Shape"></path>
                <path d="M26.6794717,28.7291384 L25.6942579,39.5064528 C25.5236101,41.3833983 26.8053166,43.0317317 28.575348,43.3980881 C29.546499,43.3996205 30.2571258,43.4169287 30.3003962,43.4633543 C30.7105639,37.6399644 26.4167841,35.5016834 26.6794717,28.7291384 Z" id="Shape"></path>
                <path d="M30.3031751,43.4633543 C30.3016751,43.4843543 30.3011751,43.5043543 30.2996751,43.5253543 C30.3256751,43.5033543 30.3216751,43.4828543 30.3031751,43.4633543 Z" id="Shape"></path>
            </g>
            <path d="M12.1614277,14.7583753 L10.5932348,14.7583753 C11.7568491,17.0532411 14.2294843,18.5111845 15.586914,21.3787526 L15.3674067,17.7759476 C15.2645493,16.0805577 13.8597925,14.7583753 12.1614277,14.7583753 Z" id="Shape" fill="#828282"></path>
            <path d="M40.2158176,45.457761 L2.71476939,45.457761 C2.31650105,45.457761 1.99359539,45.1348553 1.99359539,44.736587 C1.99359539,44.3383187 2.31650105,44.015413 2.71476939,44.015413 L40.2158176,44.015413 C40.614086,44.015413 40.9369916,44.3383187 40.9369916,44.736587 C40.9369916,45.1348553 40.614086,45.457761 40.2158176,45.457761 Z" id="Shape" fill="#777776"></path>
        </g>
    </g>
</svg>