<?xml version="1.0" encoding="UTF-8"?>
<svg width="73px" height="73px" viewBox="0 0 73 73" version="1.1" xmlns="http://www.w3.org/2000/svg" xmlns:xlink="http://www.w3.org/1999/xlink">
    <!-- Generator: Sketch 51.3 (57544) - http://www.bohemiancoding.com/sketch -->
    <title>fundamentals/javascript/promises</title>
    <desc>Created with Sketch.</desc>
    <defs></defs>
    <g id="fundamentals/javascript/promises" stroke="none" stroke-width="1" fill="none" fill-rule="evenodd">
        <g id="container" transform="translate(2.000000, 2.000000)" fill="#FFFFFF" fill-rule="nonzero" stroke="#4C241D" stroke-width="2">
            <rect id="mask" x="-1" y="-1" width="71" height="71" rx="14"></rect>
        </g>
        <g id="promise-(1)" transform="translate(19.000000, 11.000000)" fill-rule="nonzero">
            <path d="M13.9616722,20.886729 L33.3707951,23.9319125 L33.3707951,40.087303 C33.3707951,45.1801416 29.2422645,49.3084415 24.1496566,49.3084415 L13.4010816,49.3084415 C7.95896962,49.3084415 3.38727256,45.2165916 2.78631021,39.8076997 L1.43812443,27.6749505 C1.24364794,25.9244314 2.61398051,24.3933039 4.37534232,24.3933039 L7.53287463,24.3933039 L13.9616722,20.886729 Z" id="Shape" fill="#EDEBDC"></path>
            <path d="M24.1494259,50.2312244 L13.4008509,50.2312244 C7.4805067,50.2312244 2.5228557,45.794023 1.86883334,39.9096673 L0.520647558,27.776918 C0.399070914,26.6818054 0.750651189,25.5830017 1.48564775,24.7621864 C2.22041361,23.941371 3.27353957,23.470521 4.37511163,23.470521 L7.2973343,23.470521 L13.5196592,20.0765256 C13.6977563,19.979172 13.9037676,19.9436449 14.1044729,19.9750195 L33.5138265,23.020203 C33.9627603,23.0905652 34.293578,23.4774419 34.293578,23.9319125 L34.293578,40.0870723 C34.293578,45.6807514 29.7428743,50.2312244 24.1494259,50.2312244 Z M4.37511163,25.3160868 C3.7893752,25.3160868 3.25139278,25.5564717 2.86082493,25.9931787 C2.47002638,26.4298857 2.29031442,26.9909377 2.35513991,27.5732137 L3.70332569,39.7059629 C4.25330429,44.6543861 8.42243732,48.3858894 13.4010816,48.3858894 L24.1496566,48.3858894 C28.7255061,48.3858894 32.4482429,44.6631525 32.4482429,40.087303 L32.4482429,24.7213532 L14.1282345,21.8468846 L7.97465693,25.2035073 C7.83923854,25.2773299 7.68721006,25.3160868 7.53287463,25.3160868 L4.37511163,25.3160868 Z" id="Shape" fill="#4C241D"></path>
            <path d="M7.31740482,24.1713746 L14.3739255,3.88376243 C14.9827315,2.13324331 16.930034,1.24552619 18.6507934,1.93369151 C20.2301363,2.56533639 21.0553349,4.30801185 20.5429597,5.93026415 L14.2996414,25.7006565" id="Shape" fill="#EDEBDC"></path>
            <path d="M14.3001028,26.6236701 C14.2080552,26.6236701 14.1143928,26.6098284 14.0221145,26.58053 C13.5360386,26.4268867 13.266586,25.9085134 13.4199987,25.4226682 L19.6633169,5.65227581 C20.0278161,4.49741304 19.4328519,3.24012137 18.308441,2.79049541 C17.7118618,2.55195604 17.0622227,2.56741265 16.4781011,2.83386621 C15.8942103,3.10008907 15.4563498,3.58062825 15.2454939,4.1868966 L8.18897325,24.4745088 C8.02125746,24.9557401 7.49596331,25.2106588 7.01403995,25.0429431 C6.53280868,24.875458 6.27835131,24.3497024 6.4456057,23.8682405 L13.5021263,3.58062825 C13.8804673,2.49359002 14.6652942,1.63194151 15.712422,1.15463207 C16.7595499,0.676861239 17.924794,0.649639144 18.9933765,1.07711831 C21.0094264,1.88363054 22.0768555,4.13752772 21.4230639,6.20825249 L15.1797456,25.9786449 C15.0554006,26.3719811 14.6918242,26.6236701 14.3001028,26.6236701 Z" id="Shape" fill="#4C241D"></path>
            <path d="M12.146789,23.470521 L4.18340348,5.8518276 C3.46247936,4.2567974 4.05075345,2.37501242 5.55165979,1.47437634 C7.32224943,0.412022554 9.62343923,1.13317737 10.4707846,3.01634652 L20.4518349,23.470521 L20.4518349,27.1616525" id="Shape" fill="#EDEBDC"></path>
            <path d="M20.4518349,28.0844354 C19.942228,28.0844354 19.529052,27.6712594 19.529052,27.1616525 L19.529052,23.6836839 L9.64143349,3.42098681 C9.63705028,3.41222038 9.63312845,3.40368463 9.62920662,3.3949182 C9.33345471,2.7374354 8.76917298,2.23682569 8.08123835,2.02112519 C7.39307302,1.80565539 6.64423472,1.89493463 6.02666228,2.26543196 C4.92716648,2.92499102 4.49645757,4.30316724 5.02428938,5.47141036 L12.9876749,23.0903345 C13.197608,23.554725 12.991366,24.1014738 12.5269755,24.3111762 C12.0625851,24.5211093 11.5160669,24.3148674 11.3061338,23.8502462 L3.34274829,6.23132206 C2.42873185,4.20950478 3.17457111,1.82411105 5.0771187,0.682628632 C6.14639336,0.0408331422 7.4426726,-0.113271598 8.6332932,0.259763379 C9.8190692,0.631414182 10.7921437,1.4923706 11.3059031,2.62324102 L21.281186,23.0654194 C21.3427817,23.1913792 21.3746178,23.3297966 21.3746178,23.4700596 L21.3746178,27.1611911 C21.3746178,27.6712594 20.9614417,28.0844354 20.4518349,28.0844354 Z" id="Shape" fill="#4C241D"></path>
            <path d="M23.6815749,33.6211327 C21.8978356,33.6211327 20.4518349,32.1751319 20.4518349,30.3913926 L20.4518349,20.240781 C20.4518349,18.4570417 21.8978356,17.0110409 23.6815749,17.0110409 C25.4653142,17.0110409 26.911315,18.4570417 26.911315,20.240781 L26.911315,30.3913926 C26.911315,32.1751319 25.4653142,33.6211327 23.6815749,33.6211327 Z" id="Shape" fill="#EDEBDC"></path>
            <path d="M23.6815749,34.5439155 C21.3919199,34.5439155 19.529052,32.6810476 19.529052,30.3913926 L19.529052,20.240781 C19.529052,17.951126 21.3919199,16.088258 23.6815749,16.088258 C25.9712299,16.088258 27.8340979,17.951126 27.8340979,20.240781 L27.8340979,30.3913926 C27.8340979,32.6810476 25.9712299,34.5439155 23.6815749,34.5439155 Z M23.6815749,17.9338238 C22.4095187,17.9338238 21.3746177,18.9687248 21.3746177,20.240781 L21.3746177,30.3913926 C21.3746177,31.6634488 22.4095187,32.6983498 23.6815749,32.6983498 C24.9536311,32.6983498 25.9885321,31.6634488 25.9885321,30.3913926 L25.9885321,20.240781 C25.9885321,18.9687248 24.9536311,17.9338238 23.6815749,17.9338238 Z" id="Shape" fill="#4C241D"></path>
            <path d="M30.1410551,33.6211327 C28.3573158,33.6211327 26.911315,32.1751319 26.911315,30.3913926 L26.911315,22.0452829 C26.911315,20.2615436 28.3573158,18.8155428 30.1410551,18.8155428 C31.9247944,18.8155428 33.3707951,20.2615436 33.3707951,22.0452829 L33.3707951,30.3913926 C33.3707951,32.1751319 31.9247944,33.6211327 30.1410551,33.6211327 Z" id="Shape" fill="#EDEBDC"></path>
            <path d="M30.1410551,34.5439155 C27.8514001,34.5439155 25.9885321,32.6810476 25.9885321,30.3913926 L25.9885321,22.0452829 C25.9885321,19.7556279 27.8514001,17.8927599 30.1410551,17.8927599 C32.4307101,17.8927599 34.293578,19.7556279 34.293578,22.0452829 L34.293578,30.3913926 C34.293578,32.6810476 32.4307101,34.5439155 30.1410551,34.5439155 Z M30.1410551,19.7383257 C28.8689989,19.7383257 27.8340979,20.7732267 27.8340979,22.0452829 L27.8340979,30.3913926 C27.8340979,31.6634488 28.8689989,32.6983498 30.1410551,32.6983498 C31.4131113,32.6983498 32.4480123,31.6634488 32.4480123,30.3913926 L32.4480123,22.0452829 C32.4480123,20.7732267 31.4131113,19.7383257 30.1410551,19.7383257 Z" id="Shape" fill="#4C241D"></path>
            <path d="M5.68730887,24.3933039 L13.5309633,24.3933039 C15.3147026,24.3933039 16.7607034,25.8393047 16.7607034,27.623044 C16.7607034,29.4067833 15.3147026,30.852784 13.5309633,30.852784 L8.4556575,30.852784 C8.4556575,30.852784 14.9151376,31.7755669 14.9151376,39.1578299" id="Shape" fill="#EDEBDC"></path>
            <path d="M14.9151376,40.0806128 C14.4055308,40.0806128 13.9923548,39.6674368 13.9923548,39.1578299 C13.9923548,32.69512 8.55324179,31.8007127 8.32162329,31.7658777 C7.84431385,31.6939006 7.50103862,31.2657294 7.53725784,30.7842674 C7.57347707,30.3028054 7.97304206,29.9302319 8.4556575,29.9302319 L13.5309633,29.9302319 C14.8030195,29.9302319 15.8379205,28.8953309 15.8379205,27.6232747 C15.8379205,26.3512185 14.8030195,25.3163175 13.5309633,25.3163175 L5.68730888,25.3163175 C5.17770203,25.3163175 4.764526,24.9031414 4.764526,24.3935346 C4.764526,23.8839278 5.17770203,23.4707517 5.68730888,23.4707517 L13.5309633,23.4707517 C15.8206183,23.4707517 17.6834863,25.3336197 17.6834863,27.6232747 C17.6834863,29.9129297 15.8206183,31.7757976 13.5309633,31.7757976 L12.5798049,31.7757976 C14.2622687,33.1085268 15.8379205,35.3681913 15.8379205,39.1580606 C15.8379205,39.6674368 15.4247445,40.0806128 14.9151376,40.0806128 Z" id="Shape" fill="#4C241D"></path>
        </g>
    </g>
</svg>