<?xml version="1.0" encoding="UTF-8"?>
<svg width="73px" height="73px" viewBox="0 0 73 73" version="1.1" xmlns="http://www.w3.org/2000/svg" xmlns:xlink="http://www.w3.org/1999/xlink">
    <!-- Generator: Sketch 51.3 (57544) - http://www.bohemiancoding.com/sketch -->
    <title>fundamentals/javascript/prototype</title>
    <desc>Created with Sketch.</desc>
    <defs></defs>
    <g id="fundamentals/javascript/prototype" stroke="none" stroke-width="1" fill="none" fill-rule="evenodd">
        <g id="container" transform="translate(2.000000, 2.000000)" fill="#42C3FF" fill-rule="nonzero" stroke="#155293" stroke-width="2">
            <rect id="mask" x="-1" y="-1" width="71" height="71" rx="14"></rect>
        </g>
        <g id="flip" transform="translate(14.000000, 14.000000)" fill-rule="nonzero">
            <path d="M20.125,4.3125 L0,4.3125 L0,41.6875 L20.125,41.6875 L20.125,46 L23,46 L23,0 L20.125,0 L20.125,4.3125 Z M20.125,38.8125 L2.875,38.8125 L2.875,7.1875 L20.125,7.1875 L20.125,38.8125 Z" id="Shape" fill="#FFFFFF"></path>
            <rect id="Rectangle-path" fill="#155293" x="31.625" y="4.3125" width="2.875" height="2.875"></rect>
            <rect id="Rectangle-path" fill="#155293" x="25.875" y="4.3125" width="2.875" height="2.875"></rect>
            <rect id="Rectangle-path" fill="#155293" x="37.375" y="4.3125" width="2.875" height="2.875"></rect>
            <rect id="Rectangle-path" fill="#155293" x="43.125" y="4.3125" width="2.875" height="2.875"></rect>
            <rect id="Rectangle-path" fill="#155293" x="31.625" y="38.8125" width="2.875" height="2.875"></rect>
            <rect id="Rectangle-path" fill="#155293" x="25.875" y="38.8125" width="2.875" height="2.875"></rect>
            <rect id="Rectangle-path" fill="#155293" x="37.375" y="38.8125" width="2.875" height="2.875"></rect>
            <rect id="Rectangle-path" fill="#155293" x="43.125" y="38.8125" width="2.875" height="2.875"></rect>
            <rect id="Rectangle-path" fill="#155293" x="43.125" y="33.0625" width="2.875" height="2.875"></rect>
            <rect id="Rectangle-path" fill="#155293" x="43.125" y="27.3125" width="2.875" height="2.875"></rect>
            <rect id="Rectangle-path" fill="#155293" x="43.125" y="21.5625" width="2.875" height="2.875"></rect>
            <rect id="Rectangle-path" fill="#155293" x="43.125" y="15.8125" width="2.875" height="2.875"></rect>
            <rect id="Rectangle-path" fill="#155293" x="43.125" y="10.0625" width="2.875" height="2.875"></rect>
        </g>
    </g>
</svg>