<?xml version="1.0" encoding="UTF-8"?>
<svg width="73px" height="73px" viewBox="0 0 73 73" version="1.1" xmlns="http://www.w3.org/2000/svg" xmlns:xlink="http://www.w3.org/1999/xlink">
    <!-- Generator: Sketch 51.3 (57544) - http://www.bohemiancoding.com/sketch -->
    <title>fundamentals/javascript/regex</title>
    <desc>Created with Sketch.</desc>
    <defs></defs>
    <g id="fundamentals/javascript/regex" stroke="none" stroke-width="1" fill="none" fill-rule="evenodd">
        <g id="container" transform="translate(2.000000, 2.000000)" fill-rule="nonzero">
            <rect id="mask" stroke="#A11225" stroke-width="2" fill="#FFFFFF" x="-1" y="-1" width="71" height="71" rx="14"></rect>
            <g id="scissors" transform="translate(13.000000, 13.000000)">
                <path d="M19.5084141,33.9023438 L18.1334141,37.1989063 L18.1334141,42.7109375 C18.1334141,43.4225 17.5559141,44 16.8443516,44 L1.28966406,44 C0.578101563,44 0.0006015625,43.4225 0.0006015625,42.7109375 L0.0006015625,23.2890625 L5.24278906,22 L0.0006015625,20.7109375 L0.0006015625,1.2890625 C0.0006015625,0.5775 0.578101563,0 1.28966406,0 L16.8443516,0 C17.5559141,0 18.1334141,0.5775 18.1334141,1.2890625 L18.1334141,17.1875 C18.1334141,17.5295312 17.9976328,17.8569531 17.7561484,18.0992969 L14.7998984,20.7109375 L11.6021641,22 L14.7998984,23.2890625 L17.7561484,26.2444531 C17.9976328,26.4867969 18.1334141,26.8142187 18.1334141,27.15625 L18.1334141,29.9053906 L19.5084141,33.9023438 Z" id="Shape" fill="#F2EBD9"></path>
                <path d="M42.4898203,31.0715625 L33.3443516,22 L30.7662266,23.2890625 L29.7272422,25.6142734 C29.7289609,25.61625 29.7325703,25.620375 29.7350625,25.6232109 C30.8135781,26.8640625 31.1613672,28.6006016 30.6408437,30.1597656 C30.0788125,31.8467188 30.5102187,33.6754688 31.7674844,34.9327344 L35.1989687,38.3633594 C37.2090469,40.3751563 40.4798281,40.3742969 42.4907656,38.3633594 C44.5016172,36.3524219 44.5033359,33.0825 42.4898203,31.0715625 Z M39.7561484,35.6288281 C39.2568516,36.128125 38.4395859,36.1358594 37.9325547,35.6288281 L34.2870859,31.9833594 C33.7834922,31.4797656 33.7834922,30.6633594 34.2870859,30.1597656 C34.7898203,29.6561719 35.6062266,29.6561719 36.1098203,30.1597656 L39.7561484,33.8060938 C40.2588828,34.3096875 40.2588828,35.1252344 39.7561484,35.6288281 Z" id="Shape" fill="#E63950"></path>
                <path d="M19.5084141,33.9023438 L18.1334141,37.1989063 L18.1334141,42.7109375 C18.1334141,43.4225 17.5559141,44 16.8443516,44 L1.28966406,44 C0.578101563,44 0.0006015625,43.4225 0.0006015625,42.7109375 L0.0006015625,23.2890625 L5.24278906,22 L11.6021641,22 L14.7998984,23.2890625 L17.7561484,26.2444531 C17.9976328,26.4867969 18.1334141,26.8142187 18.1334141,27.15625 L18.1334141,29.9053906 L19.5084141,33.9023438 Z" id="Shape" fill="#F9DCA7"></path>
                <path d="M42.4898203,5.54898437 C40.4787969,3.53796094 37.21025,3.53675781 35.1988828,5.54984375 L31.7673984,8.98046875 C30.5101328,10.236875 30.0787266,12.065625 30.6407578,13.7525781 C31.1589609,15.3054687 30.7885703,17.0766406 29.7289609,18.3107031 L30.6802891,20.7109375 L33.3443516,22 L42.4906797,12.8407812 C44.5017031,10.8297578 44.5029062,7.56207031 42.4898203,5.54898437 Z M39.7561484,10.1071094 L36.1098203,13.7525781 C35.6061406,14.2562578 34.7917109,14.2572031 34.2870859,13.7525781 C33.7834922,13.2498437 33.7834922,12.4334375 34.2870859,11.9298437 L37.9325547,8.28351562 C38.4361484,7.78078125 39.2525547,7.78078125 39.7561484,8.28351562 C40.2588828,8.78710937 40.2588828,9.60351562 39.7561484,10.1071094 Z" id="Shape" fill="#FF637B"></path>
                <path d="M5.24278906,22 C5.24278906,22.7115625 4.66528906,23.2890625 3.95372656,23.2890625 L0.0006015625,23.2890625 L0.0006015625,20.7109375 L3.95372656,20.7109375 C4.66528906,20.7109375 5.24278906,21.2884375 5.24278906,22 Z" id="Shape" fill="#F9DCA7"></path>
                <path d="M13.5108359,22 L14.7998984,23.2890625 L9.10997656,23.2890625 C8.39841406,23.2890625 7.82091406,22.7115625 7.82091406,22 C7.82091406,21.2884375 8.39841406,20.7109375 9.10997656,20.7109375 L14.7998984,20.7109375 L13.5108359,22 Z" id="Shape" fill="#F9DCA7"></path>
                <path d="M17.5017734,6.08351563 C15.9127891,4.4928125 13.5469297,4.1559375 11.6288047,5.07632813 C10.8292422,5.46064063 10.6461953,6.51861719 11.2738828,7.15 C15.9566172,11.8413281 22.1613047,18.1216406 26.0396641,22 L28.6177891,20.5390625 L29.7289609,18.3107031 C25.2344297,13.8161719 18.1609141,6.74265625 17.5017734,6.08351563 Z" id="Shape" fill="#BCDBFD"></path>
                <path d="M29.7289609,18.3107031 L26.0396641,22 C22.6502891,25.3885156 18.1480234,29.8907812 18.1334141,29.9053906 L18.1334141,37.1989063 L33.3443516,22 L29.7289609,18.3107031 Z" id="Shape" fill="#E0F4FE"></path>
                <path d="M26.0396641,22 C22.6502891,25.3885156 18.1480234,29.8907812 18.1334141,29.9053906 L18.1334141,37.1989063 L33.3443516,22 L26.0396641,22 Z" id="Shape" fill="#BCDBFD"></path>
                <g id="Group" transform="translate(0.000000, 22.000000)" fill="#FFCC75">
                    <path d="M0.0006015625,0 L5.24278906,0 C5.24278906,0.7115625 4.66528906,1.2890625 3.95372656,1.2890625 L0.0006015625,1.2890625 L0.0006015625,0 Z" id="Shape"></path>
                    <path d="M14.7998984,1.2890625 L9.10997656,1.2890625 C8.39841406,1.2890625 7.82091406,0.7115625 7.82091406,0 L13.5108359,0 L14.7998984,1.2890625 Z" id="Shape"></path>
                </g>
            </g>
        </g>
    </g>
</svg>