<?xml version="1.0" encoding="UTF-8"?>
<svg width="73px" height="73px" viewBox="0 0 73 73" version="1.1" xmlns="http://www.w3.org/2000/svg" xmlns:xlink="http://www.w3.org/1999/xlink">
    <!-- Generator: Sketch 51.3 (57544) - http://www.bohemiancoding.com/sketch -->
    <title>progressive-webapps/loading-performance/app-shell</title>
    <desc>Created with Sketch.</desc>
    <defs></defs>
    <g id="progressive-webapps/loading-performance/app-shell" stroke="none" stroke-width="1" fill="none" fill-rule="evenodd">
        <g id="container" transform="translate(2.000000, 2.000000)" fill="#FFFFFF" fill-rule="nonzero" stroke="#715132" stroke-width="2">
            <rect id="mask" x="-1" y="-1" width="71" height="71" rx="14"></rect>
        </g>
        <g id="chick" transform="translate(19.000000, 13.000000)" fill-rule="nonzero">
            <path d="M29.3530638,20.4687086 L25.5024963,17.5004546 L21.6534129,20.4687086 L17.8050716,17.5004546 L13.9571013,20.4687086 L10.108018,17.5004546 L6.25930562,20.4687086 L2.40985122,17.5004546 L0.983605169,18.6005637 C0.463477007,20.9922319 0.195979941,23.4319146 0.185515875,25.8794646 C0.185515875,37.2523298 6.4366588,46.4717267 17.809524,46.4717267 C29.1823892,46.4717267 35.4335321,37.2523298 35.4335321,25.8794646 C35.4229747,23.4341867 35.1558534,20.9967664 34.6365559,18.6072423 L33.2025182,17.5019387 L29.3530638,20.4687086 Z" id="Shape" fill="#EAEAEA"></path>
            <path d="M19.6706193,5.97769252 L17.809524,7.79166675 L15.9484287,5.97769252 C15.4334376,5.47576029 15.1429717,4.78712483 15.1429188,4.06799211 L15.1429188,2.944879 C15.1431237,1.47223849 16.3368835,0.278478673 17.809524,0.278273813 C19.2822494,0.278273813 20.4761292,1.47215362 20.4761292,2.944879 L20.4761292,4.06762108 C20.4762185,4.78689107 20.1857382,5.47569471 19.6706193,5.97769252 Z" id="Shape" fill="#FF6E6E"></path>
            <path d="M6.25930562,20.4687086 L10.108018,17.5004546 L13.9571013,20.4687086 L17.8050716,17.5004546 L21.6534129,20.4687086 L25.5024963,17.5004546 L29.3530638,20.4687086 L31.3388257,18.9374605 C31.5115228,18.0981632 31.5985433,17.2434978 31.598548,16.3866172 C31.598548,9.98372233 26.8148356,4.65014092 20.4753871,3.46321035 L20.4753871,4.06799211 C20.4754343,4.78725357 20.1849606,5.47604147 19.6698772,5.97806356 L17.809524,7.79166675 L15.9484287,5.97769252 C15.4333454,5.47567044 15.1428717,4.78688254 15.1429188,4.06762108 L15.1429188,3.46283932 C8.80347033,4.65014092 4.01975798,9.9833513 4.01975798,16.3862462 C4.02008503,17.245187 4.10785364,18.1018633 4.2817064,18.943026 L6.25930562,20.4687086 Z" id="Shape" fill="#FFCA28"></path>
            <polygon id="Shape" fill="#9B6E42" points="20.9087522 13.2295081 17.809524 14.7021331 14.7102958 13.2295081 17.809524 10.1306509"></polygon>
            <g id="Group" transform="translate(11.130952, 8.533730)" fill="#596675">
                <circle id="Oval" cx="11.803262" cy="1.25223216" r="1.20585319"></circle>
                <circle id="Oval" cx="1.55350994" cy="1.25223216" r="1.20585319"></circle>
            </g>
        </g>
    </g>
</svg>