<?xml version="1.0" encoding="UTF-8"?>
<svg width="73px" height="73px" viewBox="0 0 73 73" version="1.1" xmlns="http://www.w3.org/2000/svg" xmlns:xlink="http://www.w3.org/1999/xlink">
    <!-- Generator: Sketch 51.3 (57544) - http://www.bohemiancoding.com/sketch -->
    <title>progressive-webapps/loading-performance/caching</title>
    <desc>Created with Sketch.</desc>
    <defs></defs>
    <g id="progressive-webapps/loading-performance/caching" stroke="none" stroke-width="1" fill="none" fill-rule="evenodd">
        <g id="container" transform="translate(2.000000, 2.000000)" fill-rule="nonzero">
            <rect id="mask" stroke="#64463C" stroke-width="2" fill="#FFFFFF" x="-1" y="-1" width="71" height="71" rx="14"></rect>
            <g id="couple" transform="translate(11.000000, 13.000000)">
                <path d="M23.1171563,22.5335625 L18.8570625,21.4685625 L6.8570625,21.4685625 L2.59696875,22.5335625 C1.07071875,22.915125 0,24.2865 0,25.8597187 L0,42.0400312 C0,42.513375 0.38371875,42.8971875 0.85715625,42.8971875 L24.8571563,42.8971875 C25.3305,42.8971875 25.7143125,42.5134688 25.7143125,42.0400312 L25.7143125,25.8598125 C25.7143125,24.2865 24.6435,22.915125 23.1171563,22.5335625 Z" id="Shape" fill="#0096DC"></path>
                <path d="M23.1171562,22.5334687 L20.4195937,21.859125 C19.89525,23.1398437 17.8922812,27.4030312 13.3490625,30.5656875 C13.054125,30.771 12.6600937,30.771 12.3651562,30.5656875 C7.8219375,27.4030312 5.8190625,23.1399375 5.294625,21.859125 L2.59696875,22.5335625 C1.07071875,22.915125 0,24.2865 0,25.8597187 L0,42.0399375 C0,42.5132812 0.38371875,42.8970937 0.85715625,42.8970937 L25.7143125,42.8970937 L25.7143125,25.8598125 C25.7143125,24.2865 24.6435,22.9150312 23.1171562,22.5334687 Z" id="Shape" fill="#B48764"></path>
                <rect id="Rectangle-path" fill="#D29B6E" x="8.5715625" y="17.1825" width="8.5715625" height="5.14284375"></rect>
                <path d="M20.5714687,8.61140625 L20.5714687,6.04003125 C20.5714687,2.72625 17.8851562,0.04003125 14.5714687,0.04003125 L11.1429375,0.04003125 C7.82925,0.04003125 5.1429375,2.72625 5.1429375,6.04003125 L5.1429375,8.6115 C4.19615625,8.6115 3.428625,9.3789375 3.428625,10.3258125 C3.428625,11.2725937 4.19615625,12.040125 5.1429375,12.040125 C5.1429375,16.3005937 8.5966875,19.7544375 12.85725,19.7544375 C17.1178125,19.7544375 20.5715625,16.3006875 20.5715625,12.040125 C21.5183437,12.040125 22.285875,11.2725937 22.285875,10.3258125 C22.2856875,9.3789375 21.5181562,8.61140625 20.5714687,8.61140625 Z" id="Shape" fill="#F0C087"></path>
                <path d="M9.42853125,12.0400312 L9.42853125,6.04003125 C9.42853125,2.871 11.887125,0.28228125 15,0.0616875 C14.857875,0.0515625 14.716125,0.04003125 14.5714687,0.04003125 L11.1429375,0.04003125 C7.82925,0.04003125 5.1429375,2.72625 5.1429375,6.04003125 L5.1429375,8.6115 C4.19615625,8.6115 3.428625,9.3789375 3.428625,10.3258125 C3.428625,11.2725937 4.19615625,12.040125 5.1429375,12.040125 C5.1429375,16.3005937 8.5966875,19.7544375 12.85725,19.7544375 C13.601625,19.7544375 14.3190937,19.64325 15.0000937,19.4464687 C11.78325,18.5169375 9.42853125,15.556125 9.42853125,12.0400312 Z" id="Shape" fill="#E6AF78"></path>
                <path d="M12.8571562,16.3257188 C11.94975,16.3257188 11.0825625,15.8979375 10.4774062,15.1513125 C10.1785312,14.7838125 10.2355312,14.2439063 10.6029375,13.9459688 C10.9712812,13.6470938 11.5111875,13.70325 11.8082812,14.0715 C12.3741562,14.7679688 13.3400625,14.7679688 13.9059375,14.0715 C14.203125,13.7031562 14.7421875,13.6470938 15.1112812,13.9459688 C15.4787812,14.244 15.5356875,14.7839062 15.2368125,15.1513125 C14.6316562,15.8979375 13.7644687,16.3257188 12.8571562,16.3257188 Z" id="Shape" fill="#D29B6E"></path>
                <g id="Group" transform="translate(8.531250, 9.375000)" fill="#64463C">
                    <path d="M0.89728125,2.66503125 C0.42346875,2.66503125 0.040125,2.2816875 0.040125,1.807875 L0.040125,0.95071875 C0.040125,0.47690625 0.42346875,0.0935625 0.89728125,0.0935625 C1.37109375,0.0935625 1.7544375,0.47690625 1.7544375,0.95071875 L1.7544375,1.807875 C1.7544375,2.28159375 1.37109375,2.66503125 0.89728125,2.66503125 Z" id="Shape"></path>
                    <path d="M7.7544375,2.66503125 C7.280625,2.66503125 6.89728125,2.2816875 6.89728125,1.807875 L6.89728125,0.95071875 C6.89728125,0.47690625 7.280625,0.0935625 7.7544375,0.0935625 C8.22825,0.0935625 8.61159375,0.47690625 8.61159375,0.95071875 L8.61159375,1.807875 C8.61159375,2.28159375 8.22825,2.66503125 7.7544375,2.66503125 Z" id="Shape"></path>
                </g>
                <g id="Group" transform="translate(2.062500, 1.875000)" fill="#D5DCED">
                    <path d="M4.79465625,1.807875 C4.79465625,0.86109375 4.027125,0.0935625 3.08034375,0.0935625 C2.1335625,0.0935625 1.36603125,0.861 1.36603125,1.807875 C1.36603125,2.15709375 1.4716875,2.48109375 1.65103125,2.75203125 C0.74728125,3.00365625 0.08034375,3.823875 0.08034375,4.807875 C0.08034375,5.99128125 1.0396875,6.95071875 2.2231875,6.95071875 C3.4066875,6.95071875 4.36603125,5.99128125 4.36603125,4.807875 C4.36603125,4.24828125 4.14646875,3.74315625 3.79528125,3.36159375 C4.38384375,3.09 4.79465625,2.49853125 4.79465625,1.807875 Z" id="Shape"></path>
                    <path d="M16.7946562,1.807875 C16.7946562,0.86109375 17.5621875,0.0935625 18.5089687,0.0935625 C19.45575,0.0935625 20.2232812,0.861 20.2232812,1.807875 C20.2232812,2.15709375 20.117625,2.48109375 19.9382812,2.75203125 C20.8420312,3.00365625 21.5089687,3.823875 21.5089687,4.807875 C21.5089687,5.99128125 20.549625,6.95071875 19.366125,6.95071875 C18.182625,6.95071875 17.2232812,5.99128125 17.2232812,4.807875 C17.2232812,4.24828125 17.4428438,3.74315625 17.7940312,3.36159375 C17.2054687,3.09 16.7946562,2.49853125 16.7946562,1.807875 Z" id="Shape"></path>
                </g>
                <g id="Group" transform="translate(0.000000, 23.812500)" fill="#0096DC">
                    <path d="M3.887625,3.258 L0.663,0.033375 C0.2469375,0.6046875 0,1.3010625 0,2.04721875 L0,18.2275312 C0,18.700875 0.38371875,19.0846875 0.85715625,19.0846875 L5.14284375,19.0846875 L5.14284375,6.288375 C5.14284375,5.15175 4.69134375,4.06171875 3.887625,3.258 Z" id="Shape"></path>
                    <path d="M21.8266875,3.258 L25.0513125,0.033375 C25.467375,0.6046875 25.7143125,1.3010625 25.7143125,2.04721875 L25.7143125,19.0846875 L20.5714688,19.0846875 L20.5714688,6.288375 C20.5714688,5.15175 21.0229688,4.06171875 21.8266875,3.258 Z" id="Shape"></path>
                </g>
                <path d="M12.8571562,28.3257188 C12.3838125,28.3257188 12,27.942 12,27.4685625 L12,22.3257188 L13.7143125,22.3257188 L13.7143125,27.4685625 C13.7143125,27.942 13.3305,28.3257188 12.8571562,28.3257188 Z" id="Shape" fill="#007DC3"></path>
                <g id="Group" transform="translate(6.843750, 19.968750)" fill="#00AAF0">
                    <path d="M1.63715625,0.16884375 L6.01340625,2.35696875 L4.105875,4.90040625 C3.7696875,5.348625 3.100875,5.359125 2.7508125,4.92159375 L0.01340625,1.4998125 L0.48721875,0.5521875 C0.69890625,0.1288125 1.21378125,-0.04284375 1.63715625,0.16884375 Z" id="Shape"></path>
                    <path d="M10.3895625,0.16884375 L6.0133125,2.35696875 L7.92084375,4.90040625 C8.25703125,5.348625 8.92584375,5.359125 9.27590625,4.92159375 L12.0133125,1.4998125 L11.5395,0.5521875 C11.3279062,0.1288125 10.8130312,-0.04284375 10.3895625,0.16884375 Z" id="Shape"></path>
                </g>
                <g id="Group" transform="translate(25.687500, 20.531250)" fill="#C7CFE2">
                    <path d="M16.3125,0.08015625 C17.732625,0.08015625 18.8839687,1.23140625 18.8839687,2.651625 C18.8839687,2.7039375 18.8716875,2.75278125 18.8685937,2.80434375 C19.8729375,3.1543125 20.5982812,4.09940625 20.5982812,5.22309375 C20.5982812,6.64321875 19.4470312,7.7945625 18.0268125,7.7945625 L13.741125,7.7945625 L13.741125,2.65171875 C13.7410312,1.23140625 14.892375,0.08015625 16.3125,0.08015625 Z" id="Shape"></path>
                    <path d="M4.3125,0.08015625 C2.892375,0.08015625 1.74103125,1.23140625 1.74103125,2.651625 C1.74103125,2.7039375 1.7533125,2.75278125 1.75640625,2.80434375 C0.7520625,3.1543125 0.02671875,4.09940625 0.02671875,5.22309375 C0.02671875,6.64321875 1.17796875,7.7945625 2.5981875,7.7945625 L6.883875,7.7945625 L6.883875,2.65171875 C6.88396875,1.23140625 5.732625,0.08015625 4.3125,0.08015625 Z" id="Shape"></path>
                </g>
                <path d="M45.3059062,28.1052187 L40.5060937,26.1853125 C40.0180312,25.9900312 39.6559687,25.586625 39.5053125,25.1014687 L39.4285312,23.182875 L32.571375,23.182875 L32.4945,25.1014687 C32.3440313,25.5867187 31.981875,25.990125 31.4937187,26.1853125 L26.6939063,28.1052187 C25.0669687,28.7560312 24,30.3319687 24,32.0844375 L24,42.0403125 C24,42.51375 24.3837187,42.8974688 24.8571563,42.8974688 L47.1428438,42.8970937 C47.6161875,42.8970937 48,42.513375 48,42.0399375 L48,32.0844375 C48,30.3319687 46.9330312,28.7560312 45.3059062,28.1052187 Z" id="Shape" fill="#966D50"></path>
                <path d="M45.3059062,28.1048438 L41.55525,26.6045625 C40.21875,28.1800312 38.2275938,29.1825 36,29.1825 C33.7723125,29.1825 31.7811563,28.1799375 30.44475,26.6045625 L26.6940938,28.1048437 C25.0669687,28.7556562 24,30.3315937 24,32.0840625 L24,42.0399375 C24,42.513375 24.3838125,42.8970937 24.8571563,42.8970937 L47.1428438,42.8968125 C47.6161875,42.8968125 48,42.5130937 48,42.0396563 L48,32.0840625 C48,30.3315937 46.9330312,28.7556562 45.3059062,28.1048438 Z" id="Shape" fill="#FFDC64"></path>
                <circle id="Oval" fill="#D5DCED" cx="36" cy="12.8971875" r="9.4284375"></circle>
                <path d="M32.5714687,12.8971875 C32.5714687,8.74003125 35.2652812,5.2185 39,3.96440625 C38.0565937,3.647625 37.0500938,3.46865625 36,3.46865625 C30.79275,3.46865625 26.5714687,7.6899375 26.5714687,12.8971875 C26.5714687,18.1044375 30.79275,22.3257187 36,22.3257187 C37.0500938,22.3257187 38.0566875,22.1468437 39,21.8299687 C35.2652813,20.5757812 32.5714687,17.0543437 32.5714687,12.8971875 Z" id="Shape" fill="#C7CFE2"></path>
                <path d="M36,25.75425 C31.7395313,25.75425 28.2856875,22.3004062 28.2856875,18.0399375 L28.2856875,15.1866562 C28.2856875,14.839875 28.5049688,14.5435312 28.822125,14.4034687 C30.3285,13.7382187 31.4863125,12.538125 32.0949375,11.8056562 C32.3663437,11.4790312 32.8393125,11.4006562 33.19125,11.6385 C37.4862188,14.54025 43.7142188,13.9153125 43.7142188,17.1827812 L43.7142188,18.0399375 C43.7143125,22.3005 40.2604688,25.75425 36,25.75425 Z" id="Shape" fill="#C39772"></path>
                <path d="M32.5714687,18.0400312 L32.5714687,11.5249687 C32.391375,11.5630312 32.22075,11.6545312 32.095125,11.8058438 C31.4864062,12.5383125 30.3285937,13.7384063 28.8223125,14.4036563 C28.5050625,14.5437188 28.2857812,14.8400625 28.2857812,15.1868437 L28.2857812,18.040125 C28.2857812,22.3005937 31.7395312,25.7544375 36.0000937,25.7544375 C36.7444687,25.7544375 37.4619375,25.64325 38.1429375,25.4464687 C34.9260937,24.5169375 32.5714687,21.556125 32.5714687,18.0400312 Z" id="Shape" fill="#B48764"></path>
                <path d="M36,22.3257188 C35.0925938,22.3257188 34.2254063,21.8979375 33.62025,21.1513125 C33.321375,20.7838125 33.378375,20.2439063 33.7457813,19.9459688 C34.114125,19.6463438 34.6531875,19.70325 34.951125,20.0715 C35.517,20.7679688 36.4829062,20.7679688 37.0487812,20.0715 C37.3459688,19.7031563 37.8850312,19.64625 38.254125,19.9459688 C38.621625,20.244 38.6785312,20.7839063 38.3796562,21.1513125 C37.7745937,21.8979375 36.9074062,22.3257188 36,22.3257188 Z" id="Shape" fill="#966D50"></path>
                <path d="M34.2848437,18.0400313 C34.1207812,18.0400313 33.955875,17.9931563 33.8094375,17.8951875 C33.4160625,17.6323125 33.30975,17.1 33.573375,16.7065313 C34.0915312,15.9314063 34.998,15.4685625 36,15.4685625 C37.0011562,15.4685625 37.9084687,15.9306563 38.426625,16.7049375 C38.6903437,17.0983125 38.584875,17.6307187 38.1914062,17.8944375 C37.7980312,18.1573125 37.265625,18.0526875 37.0019062,17.6592188 C36.6085312,17.0715938 35.391375,17.0715938 34.998,17.6592188 C34.8331875,17.9060625 34.5619687,18.0400313 34.2848437,18.0400313 Z" id="Shape" fill="#707487"></path>
                <g id="Group" transform="translate(30.000000, 14.531250)" fill="#7F8499">
                    <path d="M2.57146875,5.223 C1.1535,5.223 0,4.0695 0,2.65153125 C0,1.2335625 1.1535,0.0800625 2.57146875,0.0800625 C3.9894375,0.0800625 5.1429375,1.2335625 5.1429375,2.65153125 C5.1429375,4.0695 3.9894375,5.223 2.57146875,5.223 Z" id="Shape"></path>
                    <path d="M9.42853125,5.223 C8.0105625,5.223 6.8570625,4.0695 6.8570625,2.65153125 C6.8570625,1.2335625 8.0105625,0.0800625 9.42853125,0.0800625 C10.8465,0.0800625 12,1.23365625 12,2.651625 C12,4.06959375 10.8465,5.223 9.42853125,5.223 Z" id="Shape"></path>
                </g>
                <g id="Group" transform="translate(31.687500, 16.312500)" fill="#FFFFFF">
                    <path d="M7.74103125,0.01321875 C7.2680625,0.01321875 6.883875,0.39740625 6.883875,0.870375 C6.883875,1.34334375 7.2680625,1.72753125 7.74103125,1.72753125 C8.214,1.72753125 8.5981875,1.34334375 8.5981875,0.870375 C8.5981875,0.39740625 8.214,0.01321875 7.74103125,0.01321875 Z" id="Shape"></path>
                    <path d="M0.88396875,0.01321875 C0.411,0.01321875 0.0268125,0.39740625 0.0268125,0.870375 C0.0268125,1.34334375 0.411,1.72753125 0.88396875,1.72753125 C1.3569375,1.72753125 1.741125,1.34334375 1.741125,0.870375 C1.741125,0.39740625 1.35684375,0.01321875 0.88396875,0.01321875 Z" id="Shape"></path>
                </g>
                <g id="Group" transform="translate(24.000000, 26.531250)" fill="#FFC850">
                    <path d="M3.53259375,6.184125 L0.649875,3.30140625 C0.23896875,3.96496875 -2.84217094e-14,4.73728125 -2.84217094e-14,5.55271875 L-2.84217094e-14,15.5086875 C-2.84217094e-14,15.9820313 0.38371875,16.3658438 0.85715625,16.3658438 L4.2856875,16.3658438 L4.2856875,8.0023125 C4.2856875,7.32046875 4.01475,6.666375 3.53259375,6.184125 Z" id="Shape"></path>
                    <path d="M20.4674062,6.184125 L23.350125,3.30140625 C23.7610313,3.96496875 24,4.73728125 24,5.55271875 L24,15.5086875 C24,15.9820313 23.6162813,16.3658438 23.1428437,16.3658438 L19.7143125,16.3658438 L19.7143125,8.0023125 C19.7143125,7.32046875 19.98525,6.666375 20.4674062,6.184125 Z" id="Shape"></path>
                    <path d="M12,5.223 C15.2839687,5.223 18.172875,3.5420625 19.861125,0.995625 L17.5553437,0.0733125 C16.21875,1.64878125 14.2275937,2.65125 12,2.65125 C9.7723125,2.65125 7.78115625,1.6486875 6.44475,0.0733125 L4.13896875,0.995625 C5.827125,3.5420625 8.71603125,5.223 12,5.223 Z" id="Shape"></path>
                </g>
            </g>
        </g>
    </g>
</svg>