<?xml version="1.0" encoding="UTF-8"?>
<svg width="73px" height="73px" viewBox="0 0 73 73" version="1.1" xmlns="http://www.w3.org/2000/svg" xmlns:xlink="http://www.w3.org/1999/xlink">
    <!-- Generator: Sketch 51.3 (57544) - http://www.bohemiancoding.com/sketch -->
    <title>progressive-webapps/loading-performance/codesplitting</title>
    <desc>Created with Sketch.</desc>
    <defs></defs>
    <g id="progressive-webapps/loading-performance/codesplitting" stroke="none" stroke-width="1" fill="none" fill-rule="evenodd">
        <g id="container" transform="translate(2.000000, 2.000000)" fill="#FFFFFF" fill-rule="nonzero" stroke="#77241B" stroke-width="2">
            <rect id="mask" x="-1" y="-1" width="71" height="71" rx="14"></rect>
        </g>
        <g id="bread" transform="translate(10.000000, 13.000000)" fill-rule="nonzero">
            <path d="M34.9530508,27.6677966 C40.459661,28.6738983 49.5055932,32.159322 52.2633898,36.8394915 C53.3437017,38.5930436 53.1155073,40.8529031 51.7064407,42.3550847 C49.5145763,44.8972881 45.4183051,45.2745763 42.3101695,45.5261017 C37.2077966,45.930339 32.0605085,45.8135593 26.9491525,45.8135593 C21.0113559,45.8135593 14.9118644,46.1189831 8.98305085,45.2386441 C5.91983051,44.7805085 0.377288136,43.1186441 0.736610169,39.040339 C1.00610169,35.8783051 4.59033898,33.4888136 7.06966102,32.0335593 L11.6779661,29.7967797 C13.5298626,29.0593512 15.4333962,28.4588674 17.3732203,28.0001695 C27.5330508,26.5 24.6045763,26.6437288 34.9530508,27.6677966 Z" id="Shape" fill="#CB8252"></path>
            <path d="M34.9530508,27.6677966 C40.459661,28.6738983 49.5055932,32.159322 52.2633898,36.8394915 C53.3437017,38.5930436 53.1155073,40.8529031 51.7064407,42.3550847 C49.5145763,44.8972881 45.4183051,45.2745763 42.3101695,45.5261017 C37.2077966,45.930339 32.0605085,45.8135593 26.9491525,45.8135593 C21.0113559,45.8135593 14.9118644,46.1189831 8.98305085,45.2386441 C5.91983051,44.7805085 0.377288136,43.1186441 0.736610169,39.040339 C1.00610169,35.8783051 4.59033898,33.4888136 7.06966102,32.0335593 L11.6779661,29.7967797 C13.5298626,29.0593512 15.4333962,28.4588674 17.3732203,28.0001695 C27.5330508,26.5 24.6045763,26.6437288 34.9530508,27.6677966 Z" id="Shape" fill="#CF976A"></path>
            <path d="M19.3764407,12.1181356 L17.7684746,15.0735593 L14.3010169,17.1935593 L6.91694915,9.81847458 C6.44734157,9.31865161 5.80483803,9.01667495 5.12033898,8.9740678 C3.12773592,8.84662673 1.45848511,7.41908785 1.02341597,5.47039007 C0.588346829,3.52169228 1.49192438,1.51973996 3.24111005,0.556901614 C4.99029573,-0.40593672 7.16509029,-0.0984727064 8.57881356,1.31152542 L19.3764407,12.1181356 Z" id="Shape" fill="#E64C3C"></path>
            <circle id="Oval" fill="#C03A2B" cx="8.57881356" cy="6.3959322" r="1"></circle>
            <circle id="Oval" fill="#C03A2B" cx="13.0254237" cy="10.8425424" r="1"></circle>
            <path d="M44.1516949,36.8305085 C42.0118872,38.0319164 39.4135706,38.0858374 37.2257627,36.9742373 C35.2150083,36.1789229 33.7237792,34.4458728 33.2372881,32.3389831 C32.3389831,27.8474576 26.9491525,26.9491525 26.9491525,26.9491525 C24.4791184,26.955935 22.0143925,27.1783615 19.5830508,27.6138983 L12.3966102,20.4274576 C12.2265496,20.2587859 12.1308931,20.0291828 12.1308931,19.789661 C12.1308931,19.5501392 12.2265496,19.3205361 12.3966102,19.1518644 L19.3764407,12.1810169 L44.1516949,36.8305085 Z" id="Shape" fill="#D1D4D1"></path>
            <g id="Group" transform="translate(6.288136, 26.949153)" fill="#A56A43">
                <path d="M5.38983051,2.84762712 L5.38983051,8.03084746 C5.38985943,8.40696744 5.15556665,8.74328415 4.80273981,8.8735895 C4.44991306,9.00389485 4.05326258,8.90059695 3.80881356,8.61474576 L0.781525424,5.08440678 C2.2559063,4.21783603 3.79686511,3.4698853 5.38983051,2.84762712 Z" id="Shape"></path>
                <path d="M17.9032203,0 L16.600678,7.18644068 C16.5357558,7.55837483 16.245192,7.85001855 15.8735012,7.91632021 C15.5018105,7.98262177 15.1283299,7.80942918 14.9388136,7.48288136 L11.0850847,1.0779661 C13.3194627,0.508045334 15.6020042,0.147169232 17.9032203,0 Z" id="Shape"></path>
            </g>
        </g>
    </g>
</svg>