<?xml version="1.0" encoding="UTF-8"?>
<svg width="73px" height="73px" viewBox="0 0 73 73" version="1.1" xmlns="http://www.w3.org/2000/svg" xmlns:xlink="http://www.w3.org/1999/xlink">
    <!-- Generator: Sketch 51.3 (57544) - http://www.bohemiancoding.com/sketch -->
    <title>progressive-webapps/loading-performance/compression</title>
    <desc>Created with Sketch.</desc>
    <defs></defs>
    <g id="progressive-webapps/loading-performance/compression" stroke="none" stroke-width="1" fill="none" fill-rule="evenodd">
        <g id="container" transform="translate(2.000000, 2.000000)" fill="#FFFFFF" fill-rule="nonzero" stroke="#7E3B08" stroke-width="2">
            <rect id="mask" x="-1" y="-1" width="71" height="71" rx="14"></rect>
        </g>
        <g id="zip" transform="translate(19.000000, 14.000000)" fill-rule="nonzero">
            <polygon id="Shape" fill="#FFB730" points="0 45.2608699 35.896552 45.2608699 35.896552 0 7.80359826 0 0 7.80359826"></polygon>
            <polygon id="Shape" fill="#FFD991" points="7.80359826 7.80359826 7.80359826 0 0 7.80359826"></polygon>
            <path d="M23.3825982,33.9799455 L22.240255,26.5322341 L23.0206149,26.5322341 L23.0206149,21.8500751 L16.7777363,21.8500751 L16.7777363,26.5322341 L17.5580961,26.5322341 L16.4127046,33.9799455 C16.3086821,34.6543777 16.5045341,35.3406218 16.94844,35.8588295 C17.3927269,36.3774183 18.0408675,36.6761498 18.7233013,36.6769118 L21.0697153,36.6769118 C21.7525302,36.6765308 22.4014329,36.3781803 22.8457197,35.8599726 C23.2903877,35.3413839 23.4866208,34.6547587 23.3825982,33.9799455 Z" id="Shape" fill="#F79D1E"></path>
            <path d="M21.434747,33.9799455 L20.2893555,26.5322341 L21.0697153,26.5322341 L21.0697153,21.8500751 L14.8268367,21.8500751 L14.8268367,26.5322341 L15.6071965,26.5322341 L14.461805,33.9799455 C14.3577825,34.6555208 14.5543966,35.342527 14.9994456,35.8611158 C15.4448756,36.3797045 16.0941594,36.6776738 16.7777363,36.6769118 L19.1188157,36.6769118 C19.8023926,36.6776738 20.4516764,36.3797045 20.8971064,35.8611158 C21.3421554,35.342527 21.5387695,34.6555208 21.434747,33.9799455 Z" id="Shape" fill="#DEDEDE"></path>
            <polygon id="Shape" fill="#FD882F" points="21.0697153 3.90179913 21.0697153 2.34107948 18.7286358 2.34107948 18.7286358 0 17.1679162 0 17.1679162 2.34107948 14.8268367 2.34107948 14.8268367 3.90179913 17.1679162 3.90179913 17.1679162 5.46251878 14.8268367 5.46251878 14.8268367 7.02323843 17.1679162 7.02323843 17.1679162 8.58395809 14.8268367 8.58395809 14.8268367 10.1446777 17.1679162 10.1446777 17.1679162 11.7053974 14.8268367 11.7053974 14.8268367 13.266117 17.1679162 13.266117 17.1679162 14.8268367 14.8268367 14.8268367 14.8268367 16.3875563 17.1679162 16.3875563 17.1679162 17.948276 14.8268367 17.948276 14.8268367 19.5089957 17.1679162 19.5089957 17.1679162 24.1911546 18.7286358 24.1911546 18.7286358 19.5089957 21.0697153 19.5089957 21.0697153 17.948276 18.7286358 17.948276 18.7286358 16.3875563 21.0697153 16.3875563 21.0697153 14.8268367 18.7286358 14.8268367 18.7286358 13.266117 21.0697153 13.266117 21.0697153 11.7053974 18.7286358 11.7053974 18.7286358 10.1446777 21.0697153 10.1446777 21.0697153 8.58395809 18.7286358 8.58395809 18.7286358 7.02323843 21.0697153 7.02323843 21.0697153 5.46251878 18.7286358 5.46251878 18.7286358 3.90179913"></polygon>
            <polygon id="Shape" fill="#C7C7C7" points="17.1679162 32.7751127 18.7286358 32.7751127 18.7286358 34.3358323 17.1679162 34.3358323"></polygon>
            <polygon id="Shape" fill="#F79D1E" points="0 7.80359826 6.24287861 7.80359826 6.24287861 9.36431791 0 9.36431791"></polygon>
            <polygon id="Shape" fill="#C7C7C7" points="20.5297886 28.0929537 20.2893555 26.5322341 15.6071965 26.5322341 15.3667634 28.0929537"></polygon>
            <polygon id="Shape" fill="#F79D1E" points="17.1679162 21.8500751 18.7286358 21.8500751 18.7286358 24.1911546 17.1679162 24.1911546"></polygon>
        </g>
    </g>
</svg>