<?xml version="1.0" encoding="UTF-8"?>
<svg width="73px" height="73px" viewBox="0 0 73 73" version="1.1" xmlns="http://www.w3.org/2000/svg" xmlns:xlink="http://www.w3.org/1999/xlink">
    <!-- Generator: Sketch 51.3 (57544) - http://www.bohemiancoding.com/sketch -->
    <title>progressive-webapps/loading-performance/dynamic-import</title>
    <desc>Created with Sketch.</desc>
    <defs></defs>
    <g id="progressive-webapps/loading-performance/dynamic-import" stroke="none" stroke-width="1" fill="none" fill-rule="evenodd">
        <g id="container" transform="translate(2.000000, 2.000000)" fill-rule="nonzero">
            <rect id="mask" stroke="#523D27" stroke-width="2" fill="#FFFFFF" x="-1" y="-1" width="71" height="71" rx="14"></rect>
            <g id="delivery-truck-(1)" transform="translate(8.000000, 16.000000)">
                <path d="M47.4529821,31.9504821 C47.4529821,29.430879 45.409748,27.3876448 42.8901448,27.3876448 C40.3705417,27.3876448 38.3273075,29.430879 38.3273075,31.9504821 C38.3273075,34.4700853 40.3705417,36.5133194 42.8901448,36.5133194 C45.409748,36.5132143 47.4529821,34.4699802 47.4529821,31.9504821" id="Shape" fill="#797979"></path>
                <path d="M52.354746,22.595246 L48.3659702,20.9991468 L45.9731885,11.4309643 C45.7706528,10.6188234 45.0405357,10.0484425 44.2028413,10.0484425 L32.8523234,10.0484425 L32.8523234,20.0866845 L0,20.0866845 L0,31.037494 C0,31.5421508 0.407910714,31.9500615 0.91256746,31.9500615 L5.47540476,31.9500615 C5.47540476,29.4304583 7.51769246,27.3872242 10.0382421,27.3872242 C12.5578452,27.3872242 14.6010794,29.4304583 14.6010794,31.9500615 L34.6774583,31.9500615 L38.3277282,31.9500615 C38.3277282,29.4304583 40.3700159,27.3872242 42.8905655,27.3872242 C45.4101687,27.3872242 47.4534028,29.4304583 47.4534028,31.9500615 L52.0162401,31.9500615 C52.5199504,31.9500615 52.9288075,31.5421508 52.9288075,31.037494 L52.9288075,23.4421944 C52.9287024,23.0698274 52.7014544,22.7339504 52.354746,22.595246" id="Shape" fill="#48A0DC"></path>
                <polygon id="Shape" fill="#C69666" points="17.3387817 12.7865655 30.1147262 12.7865655 30.1147262 0.0107261905 17.3387817 0.0107261905"></polygon>
                <polygon id="Shape" fill="#896745" points="4.56294246 12.7865655 17.3387817 12.7865655 17.3387817 3.66099603 4.56294246 3.66099603"></polygon>
                <path d="M14.6006587,31.9504821 C14.6006587,29.430879 12.5574246,27.3876448 10.0378214,27.3876448 C7.51821825,27.3876448 5.47498413,29.430879 5.47498413,31.9504821 C5.47498413,34.4700853 7.51821825,36.5133194 10.0378214,36.5133194 C12.5574246,36.5133194 14.6006587,34.4699802 14.6006587,31.9504821" id="Shape" fill="#797979"></path>
                <g id="Group" transform="translate(8.202381, 30.075397)" fill="#C0C0C0">
                    <path d="M1.83544048,3.70011508 C0.828019841,3.70011508 0.0103055556,2.88250595 0.0103055556,1.87498016 C0.0103055556,0.867454365 0.827914683,0.0498452381 1.83544048,0.0498452381 C2.84296627,0.0498452381 3.6605754,0.867454365 3.6605754,1.87498016 C3.6605754,2.88250595 2.84296627,3.70011508 1.83544048,3.70011508" id="Shape"></path>
                    <path d="M34.6877639,3.70011508 C33.6803433,3.70011508 32.862629,2.88250595 32.862629,1.87498016 C32.862629,0.867454365 33.6802381,0.0498452381 34.6877639,0.0498452381 C35.6952897,0.0498452381 36.5128988,0.867454365 36.5128988,1.87498016 C36.5128988,2.88250595 35.6951845,3.70011508 34.6877639,3.70011508" id="Shape"></path>
                </g>
                <path d="M40.1524425,25.5625099 L38.3273075,25.5625099 C37.8235972,25.5625099 37.4147401,25.1536528 37.4147401,24.6499425 C37.4147401,24.1462321 37.8235972,23.737375 38.3273075,23.737375 L40.1524425,23.737375 C40.6561528,23.737375 41.0650099,24.1462321 41.0650099,24.6499425 C41.0650099,25.1536528 40.6561528,25.5625099 40.1524425,25.5625099" id="Shape" fill="#337FAA"></path>
                <g id="Group" transform="translate(8.202381, 0.000000)" fill="#E8D5B2">
                    <polygon id="Shape" points="5.48571032 9.13629563 2.74800794 7.31116071 0.0103055556 9.13629563 0.0103055556 3.66099603 5.48571032 3.66099603"></polygon>
                    <polygon id="Shape" points="18.2616548 5.48602579 15.5239524 3.66099603 12.78625 5.48602579 12.78625 0.0107261905 18.2616548 0.0107261905"></polygon>
                </g>
                <polygon id="Shape" fill="#FFD479" points="2.73780754 20.0871052 32.8524286 20.0871052 32.8524286 12.7865655 2.73780754 12.7865655"></polygon>
                <path d="M39.239875,14.6117004 C39.239875,14.1079901 38.8310179,13.6991329 38.3273075,13.6991329 C37.8235972,13.6991329 37.4147401,14.1079901 37.4147401,14.6117004 L37.4147401,20.9996726 C37.4147401,21.5033829 37.8235972,21.9122401 38.3273075,21.9122401 L50.6469683,21.9122401 L48.3655496,20.9996726 L48.1374603,20.0871052 L39.2399802,20.0871052 L39.2399802,14.6117004 L39.239875,14.6117004 Z" id="Shape" fill="#337FAA"></path>
            </g>
        </g>
    </g>
</svg>