<?xml version="1.0" encoding="UTF-8"?>
<svg width="73px" height="73px" viewBox="0 0 73 73" version="1.1" xmlns="http://www.w3.org/2000/svg" xmlns:xlink="http://www.w3.org/1999/xlink">
    <!-- Generator: Sketch 51.3 (57544) - http://www.bohemiancoding.com/sketch -->
    <title>progressive-webapps/loading-performance/performance-metrics</title>
    <desc>Created with Sketch.</desc>
    <defs></defs>
    <g id="progressive-webapps/loading-performance/performance-metrics" stroke="none" stroke-width="1" fill="none" fill-rule="evenodd">
        <g id="container" transform="translate(2.000000, 2.000000)" fill="#FFFFFF" fill-rule="nonzero" stroke="#5F3932" stroke-width="2">
            <rect id="mask" x="-1" y="-1" width="71" height="71" rx="14"></rect>
        </g>
        <g id="form" transform="translate(16.000000, 10.000000)" fill-rule="nonzero">
            <path d="M37.8,3.40540541 L22.68,3.40540541 C22.68,4.33179234 21.92778,5.08288288 21,5.08288288 C20.07222,5.08288288 19.32,4.33179234 19.32,3.40540541 L4.2,3.40540541 C1.884225,3.40540541 0,5.28680124 0,7.5990991 L0,49.536036 C0,51.8483339 1.884225,53.7297297 4.2,53.7297297 L37.8,53.7297297 C40.115775,53.7297297 42,51.8483339 42,49.536036 L42,7.5990991 C42,5.28680124 40.11567,3.40540541 37.8,3.40540541 Z M37.8,48.6972973 C37.8,49.1604908 37.42389,49.536036 36.96,49.536036 L5.04,49.536036 C4.57611,49.536036 4.2,49.1604908 4.2,48.6972973 L4.2,8.43783784 C4.2,7.97464437 4.57611,7.5990991 5.04,7.5990991 L36.96,7.5990991 C37.42389,7.5990991 37.8,7.97464437 37.8,8.43783784 L37.8,48.6972973 Z" id="Shape" fill="#9F6459"></path>
            <path d="M9.91880737,38.5945946 C9.72076458,38.5945946 9.52198868,38.5249521 9.36248621,38.3824157 C9.01635643,38.0751076 8.98525188,37.5441883 9.29294607,37.1983881 L15.9956106,29.6467903 C16.23942,29.3714716 16.6338299,29.2878796 16.9684395,29.4402751 L25.3933746,33.2758574 L30.9276809,19.815554 C31.1044637,19.3878398 31.5936534,19.1862541 32.0215767,19.3591018 C32.4494999,19.5353058 32.6531981,20.0260547 32.4773579,20.4546079 L26.6125264,34.718737 C26.5258107,34.9293427 26.3571968,35.0956876 26.1461676,35.1792796 C25.9351384,35.2628716 25.69866,35.257103 25.4907727,35.1629178 L16.8375281,31.2240254 L10.5447734,38.3126683 C10.3794061,38.4995703 10.1495256,38.5945946 9.91880737,38.5945946 Z" id="Shape" fill="#D8DCE1"></path>
            <circle id="Oval" fill="#FF4F19" cx="10.027027" cy="37.6486486" r="2.45945946"></circle>
            <circle id="Oval" fill="#FF9600" cx="16.8378378" cy="30.0810811" r="2.45945946"></circle>
            <circle id="Oval" fill="#FFD200" cx="25.9189189" cy="34.2432432" r="2.45945946"></circle>
            <circle id="Oval" fill="#74D24F" cx="31.972973" cy="20.2432432" r="2.45945946"></circle>
            <path d="M26.0565111,1.7027027 L23.908442,1.7027027 C23.3143019,0.664266892 22.2097703,0 21,0 C19.7902297,0 18.6856981,0.664266892 18.091558,1.7027027 L15.9434889,1.7027027 C13.6201275,1.7027027 11.7297297,3.6123902 11.7297297,5.95945946 L11.7297297,9.36486486 C11.7297297,9.83502365 12.1066505,10.2162162 12.5724816,10.2162162 L29.4275184,10.2162162 C29.8933495,10.2162162 30.2702703,9.83502365 30.2702703,9.36486486 L30.2702703,5.95945946 C30.2702703,3.6123902 28.3798725,1.7027027 26.0565111,1.7027027 Z M21,4.25675676 C20.5345903,4.25675676 20.1572482,3.87556419 20.1572482,3.40540541 C20.1572482,2.93524662 20.5345903,2.55405405 21,2.55405405 C21.4654097,2.55405405 21.8427518,2.93524662 21.8427518,3.40540541 C21.8427518,3.87556419 21.4654097,4.25675676 21,4.25675676 Z" id="Shape" fill="#B9BBC1"></path>
        </g>
    </g>
</svg>