<?xml version="1.0" encoding="UTF-8"?>
<svg width="73px" height="73px" viewBox="0 0 73 73" version="1.1" xmlns="http://www.w3.org/2000/svg" xmlns:xlink="http://www.w3.org/1999/xlink">
    <!-- Generator: Sketch 51.3 (57544) - http://www.bohemiancoding.com/sketch -->
    <title>progressive-webapps/loading-performance/prpl-pattern</title>
    <desc>Created with Sketch.</desc>
    <defs></defs>
    <g id="progressive-webapps/loading-performance/prpl-pattern" stroke="none" stroke-width="1" fill="none" fill-rule="evenodd">
        <g id="container" transform="translate(2.000000, 2.000000)" fill="#FFFFFF" fill-rule="nonzero" stroke="#8B3CBA" stroke-width="2">
            <rect id="mask" x="-1" y="-1" width="71" height="71" rx="14"></rect>
        </g>
        <g id="purple-ribbon" transform="translate(17.000000, 11.000000)" fill-rule="nonzero">
            <path d="M32.7249082,11.8719416 C32.7249082,14.6915278 31.5970737,17.2143154 29.7569228,19.2622253 C29.7272429,13.5340135 25.0971857,8.90395622 19.3689738,8.90395622 C13.640762,8.90395622 9.01070477,13.5340135 8.98102491,19.2622253 C7.14087396,17.2143154 6.0130395,14.6916267 6.0130395,11.8719416 C6.0130395,5.31259495 11.9786902,-1.42108547e-14 19.3689738,-1.42108547e-14 C26.7592575,-1.42108547e-14 32.7249082,5.31259495 32.7249082,11.8719416 Z" id="Shape" fill="#8B3CBA"></path>
            <path d="M32.7249082,11.8719416 C32.7249082,14.6915278 31.5970737,17.2143154 29.7569228,19.2622253 C29.7272429,13.5340135 25.0971857,8.90395622 19.3689738,8.90395622 L19.3689738,0 C26.7592575,0 32.7249082,5.31259495 32.7249082,11.8719416 Z" id="Shape" fill="#6D2F98"></path>
            <path d="M38.6015193,43.5700258 C38.3641794,44.1636229 37.8298431,44.5197811 37.2066651,44.5197811 L32.7250071,44.5197811 L32.7250071,49.1696249 C32.7250071,49.763222 32.4283075,50.2974594 31.8938723,50.5347993 C31.3596349,50.772337 30.7364569,50.6536176 30.2912591,50.2677795 C26.0768187,46.4983391 22.4557776,43.0654683 19.3690728,40.3051429 C4.29160797,26.8008093 1.41276105,23.7736621 0.373867229,18.6388494 C-0.516528394,14.1868713 0.641084848,9.76457306 3.5793904,6.17331072 C6.75503586,2.31492969 11.5631722,0 16.4307672,0 L19.3690728,0 C13.6408609,0 8.98112385,4.65973709 8.98112385,10.3879489 C8.98112385,14.5430296 9.69344034,15.5224648 19.3690728,24.4561998 C23.6429718,28.4037193 29.6975631,33.9240732 38.24546,41.9674126 C38.660879,42.3827327 38.8092783,43.0061086 38.6015193,43.5700258 Z" id="Shape" fill="#B760EA"></path>
            <path d="M38.6015193,43.5700258 C38.3641794,44.1636229 37.8298431,44.5197811 37.2066651,44.5197811 L32.7250071,44.5197811 L32.7250071,49.1696249 C32.7250071,49.763222 32.4283075,50.2974594 31.8938723,50.5347993 C31.3596349,50.772337 30.7364569,50.6536176 30.2912591,50.2677795 C26.0768187,46.4983391 22.4557776,43.0654683 19.3690728,40.3051429 L19.3690728,24.4561998 C23.6429718,28.4037193 29.6975631,33.9240732 38.24546,41.9674126 C38.660879,42.3827327 38.8092783,43.0061086 38.6015193,43.5700258 Z" id="Shape" fill="#8B3CBA"></path>
            <path d="M38.4234402,18.6388494 C37.3549654,23.8625037 33.8825214,27.3944064 19.3689738,40.3645026 C16.2823679,43.124729 12.6613268,46.528019 8.47656633,50.2677795 C8.06104837,50.6536176 7.40799265,50.7722381 6.90343513,50.5347993 C6.36919775,50.2974594 6.0130395,49.7633209 6.0130395,49.1696249 L6.0130395,44.5197811 L1.56106139,44.5197811 C0.937685523,44.5197811 0.403547083,44.1636229 0.195689171,43.5700258 C-0.0416507286,43.0061086 0.106748542,42.3827327 0.55184742,41.9674126 C9.07016341,33.9240732 15.0950749,28.4036204 19.3689738,24.4561998 C29.1040649,15.463105 29.7569228,14.5135476 29.7569228,10.3879489 C29.7569228,4.65973709 25.0971857,0 19.3689738,0 L22.3369592,0 C27.2044553,0 32.0125917,2.31492969 35.188435,6.17331072 C38.1564204,9.76457306 39.2842549,14.1868713 38.4234402,18.6388494 Z" id="Shape" fill="#DA90F8"></path>
            <path d="M38.4234402,18.6388494 C37.3549654,23.8625037 33.8825214,27.3944064 19.3689738,40.3645026 L19.3689738,24.4561998 C29.1040649,15.463105 29.7569228,14.5135476 29.7569228,10.3879489 C29.7569228,4.65973709 25.0971857,0 19.3689738,0 L22.3369592,0 C27.2044553,0 32.0125917,2.31492969 35.188435,6.17331072 C38.1564204,9.76457306 39.2842549,14.1868713 38.4234402,18.6388494 Z" id="Shape" fill="#B760EA"></path>
        </g>
    </g>
</svg>