<?xml version="1.0" encoding="UTF-8"?>
<svg width="73px" height="73px" viewBox="0 0 73 73" version="1.1" xmlns="http://www.w3.org/2000/svg" xmlns:xlink="http://www.w3.org/1999/xlink">
    <!-- Generator: Sketch 51.3 (57544) - http://www.bohemiancoding.com/sketch -->
    <title>progressive-webapps/loading-performance/render-blocking-resources</title>
    <desc>Created with Sketch.</desc>
    <defs></defs>
    <g id="progressive-webapps/loading-performance/render-blocking-resources" stroke="none" stroke-width="1" fill="none" fill-rule="evenodd">
        <g id="container" transform="translate(2.000000, 2.000000)" fill="#FFFFFF" fill-rule="nonzero" stroke="#293939" stroke-width="2">
            <rect id="mask" x="-1" y="-1" width="71" height="71" rx="14"></rect>
        </g>
        <g id="traffic-light" transform="translate(21.000000, 12.000000)" fill-rule="nonzero">
            <path d="M18.3481888,39.6132691 L12.7025922,39.6132691 C11.9119882,39.6132691 11.2911931,40.2340642 11.2911931,41.0246682 L11.2911931,46.7643581 C11.2911931,47.5545946 11.9119882,48.1757572 12.7025922,48.1757572 L18.3481888,48.1757572 C19.1387928,48.1757572 19.7595879,47.5545946 19.7595879,46.7643581 L19.7595879,41.0246682 C19.7595879,40.2340642 19.1387928,39.6132691 18.3481888,39.6132691 Z" id="Shape" fill="#384949"></path>
            <path d="M19.7595879,41.0246682 L19.7595879,46.7643581 C19.7595879,47.5545946 19.1387928,48.1757572 18.3481888,48.1757572 L15.5253905,48.1757572 L15.5253905,39.6132691 L18.3481888,39.6132691 C19.1387928,39.6132691 19.7595879,40.2340642 19.7595879,41.0246682 Z" id="Shape" fill="#293939"></path>
            <g id="Group" transform="translate(0.000000, 5.645597)" fill="#384949">
                <path d="M7.05699568,8.46839482 C3.16609176,8.46839482 0,5.30230306 0,1.41139914 C0,0.63145414 0.63145414,0 1.41139914,0 L7.05699568,0 C7.83694068,0 8.46839482,0.63145414 8.46839482,1.41139914 L8.46839482,7.05699568 C8.46839482,7.83694068 7.83694068,8.46839482 7.05699568,8.46839482 Z" id="Shape"></path>
                <path d="M7.05699568,19.8536812 C3.16609176,19.8536812 0,16.6875894 0,12.7966855 C0,12.0167405 0.63145414,11.3852864 1.41139914,11.3852864 L7.05699568,11.3852864 C7.83694068,11.3852864 8.46839482,12.0167405 8.46839482,12.7966855 L8.46839482,18.442282 C8.46839482,19.222227 7.83694068,19.8536812 7.05699568,19.8536812 Z" id="Shape"></path>
                <path d="M7.05699568,31.1448743 C3.16609176,31.1448743 0,27.9787825 0,24.0878786 C0,23.3079336 0.63145414,22.6764795 1.41139914,22.6764795 L7.05699568,22.6764795 C7.83694068,22.6764795 8.46839482,23.3079336 8.46839482,24.0878786 L8.46839482,29.7334751 C8.46839482,30.5134201 7.83694068,31.1448743 7.05699568,31.1448743 Z" id="Shape"></path>
            </g>
            <path d="M21.170987,0 L9.87979395,0 C7.53665083,0 5.64559655,1.89105429 5.64559655,4.23419741 L5.64559655,38.20187 C5.64559655,40.5446456 7.53665083,42.4360674 9.87979395,42.4360674 L21.170987,42.4360674 C23.5141302,42.4360674 25.4051845,40.5446456 25.4051845,38.20187 L25.4051845,4.23419741 C25.4051845,1.89105429 23.5141302,0 21.170987,0 Z" id="Shape" fill="#4A696F"></path>
            <path d="M23.9937853,14.1139914 C23.2138403,14.1139914 22.5823862,13.4825372 22.5823862,12.7025922 L22.5823862,7.05699568 C22.5823862,6.27705069 23.2138403,5.64559655 23.9937853,5.64559655 L29.6393819,5.64559655 C30.4193269,5.64559655 31.050781,6.27705069 31.050781,7.05699568 C31.050781,10.9478996 27.8846892,14.1139914 23.9937853,14.1139914 Z" id="Shape" fill="#293939"></path>
            <path d="M23.9937853,25.4992777 C23.2138403,25.4992777 22.5823862,24.8678236 22.5823862,24.0878786 L22.5823862,18.442282 C22.5823862,17.6623371 23.2138403,17.0308829 23.9937853,17.0308829 L29.6393819,17.0308829 C30.4193269,17.0308829 31.050781,17.6623371 31.050781,18.442282 C31.050781,22.333186 27.8846892,25.4992777 23.9937853,25.4992777 Z" id="Shape" fill="#293939"></path>
            <path d="M23.9937853,36.7904708 C23.2138403,36.7904708 22.5823862,36.1590167 22.5823862,35.3790717 L22.5823862,29.7334751 C22.5823862,28.9535301 23.2138403,28.322076 23.9937853,28.322076 L29.6393819,28.322076 C30.4193269,28.322076 31.050781,28.9535301 31.050781,29.7334751 C31.050781,33.6243791 27.8846892,36.7904708 23.9937853,36.7904708 Z" id="Shape" fill="#293939"></path>
            <path d="M25.4051845,4.23419741 L25.4051845,38.20187 C25.4051845,40.5446456 23.5141302,42.4360674 21.170987,42.4360674 L15.5253905,42.4360674 L15.5253905,0 L21.170987,0 C23.5141302,0 25.4051845,1.89105429 25.4051845,4.23419741 Z" id="Shape" fill="#3E5959"></path>
            <path d="M15.5253905,5.64559655 C13.1822474,5.64559655 11.2911931,7.53665083 11.2911931,9.87979395 C11.2911931,12.2225695 13.1822474,14.1139914 15.5253905,14.1139914 C17.8685336,14.1139914 19.7595879,12.2225695 19.7595879,9.87979395 C19.7595879,7.53665083 17.8685336,5.64559655 15.5253905,5.64559655 Z" id="Shape" fill="#E63950"></path>
            <path d="M15.5253905,17.0308829 C13.1822474,17.0308829 11.2911931,18.9219372 11.2911931,21.2650803 C11.2911931,23.6078559 13.1822474,25.4992777 15.5253905,25.4992777 C17.8685336,25.4992777 19.7595879,23.6078559 19.7595879,21.2650803 C19.7595879,18.9219372 17.8685336,17.0308829 15.5253905,17.0308829 Z" id="Shape" fill="#FDBF00"></path>
            <path d="M15.5253905,28.322076 C13.1822474,28.322076 11.2911931,30.2131303 11.2911931,32.5562734 C11.2911931,34.899049 13.1822474,36.7904708 15.5253905,36.7904708 C17.8685336,36.7904708 19.7595879,34.899049 19.7595879,32.5562734 C19.7595879,30.2131303 17.8685336,28.322076 15.5253905,28.322076 Z" id="Shape" fill="#A8D32A"></path>
            <path d="M19.7595879,32.5562734 C19.7595879,34.899049 17.8685336,36.7904708 15.5253905,36.7904708 L15.5253905,28.322076 C17.8685336,28.322076 19.7595879,30.2131303 19.7595879,32.5562734 Z" id="Shape" fill="#93BF00"></path>
            <path d="M19.7595879,21.2650803 C19.7595879,23.6078559 17.8685336,25.4992777 15.5253905,25.4992777 L15.5253905,17.0308829 C17.8685336,17.0308829 19.7595879,18.9219372 19.7595879,21.2650803 Z" id="Shape" fill="#FF9F00"></path>
            <path d="M15.5253905,14.1139914 L15.5253905,5.64559655 C17.8685336,5.64559655 19.7595879,7.53665083 19.7595879,9.87979395 C19.7595879,12.2225695 17.8685336,14.1139914 15.5253905,14.1139914 Z" id="Shape" fill="#CC2E43"></path>
        </g>
    </g>
</svg>