<?xml version="1.0" encoding="UTF-8"?>
<svg width="73px" height="73px" viewBox="0 0 73 73" version="1.1" xmlns="http://www.w3.org/2000/svg" xmlns:xlink="http://www.w3.org/1999/xlink">
    <!-- Generator: Sketch 51.3 (57544) - http://www.bohemiancoding.com/sketch -->
    <title>progressive-webapps/loading-performance/resource-prioritization</title>
    <desc>Created with Sketch.</desc>
    <defs></defs>
    <g id="progressive-webapps/loading-performance/resource-prioritization" stroke="none" stroke-width="1" fill="none" fill-rule="evenodd">
        <g id="container" transform="translate(2.000000, 2.000000)" fill="#FFFFFF" fill-rule="nonzero" stroke="#575F64" stroke-width="2">
            <rect id="mask" x="-1" y="-1" width="71" height="71" rx="14"></rect>
        </g>
        <g id="priority" transform="translate(13.000000, 13.000000)" fill-rule="nonzero">
            <path d="M35.9765127,12.4066595 L35.9765127,17.9204113 C35.9765127,18.692193 35.3702153,19.2988492 34.5980747,19.2988492 C33.8259341,19.2988492 33.2196368,18.692193 33.2196368,17.9204113 L33.2196368,12.4066595 C33.2196368,11.6345189 33.8259341,11.0282215 34.5980747,11.0282215 C35.3702153,11.0282215 35.9765127,11.6345189 35.9765127,12.4066595 Z" id="Shape" fill="#7C8388"></path>
            <path d="M35.9765127,29.0394518 L35.9765127,34.5532036 C35.9765127,35.3249854 35.3702153,35.9316416 34.5980747,35.9316416 C33.8259341,35.9316416 33.2196368,35.3249854 33.2196368,34.5532036 L33.2196368,29.0394518 C33.2196368,28.2673112 33.8259341,27.6610139 34.5980747,27.6610139 C35.3702153,27.6610139 35.9765127,28.2676702 35.9765127,29.0394518 Z" id="Shape" fill="#7C8388"></path>
            <path d="M34.5980747,19.2988492 L34.5980747,11.0282215 C35.3702153,11.0282215 35.9765127,11.6345189 35.9765127,12.4066595 L35.9765127,17.9204113 C35.9765127,18.692193 35.3702153,19.2988492 34.5980747,19.2988492 Z" id="Shape" fill="#575F64"></path>
            <path d="M34.5980747,35.9316416 L34.5980747,27.6610139 C35.3702153,27.6610139 35.9765127,28.2673112 35.9765127,29.0394518 L35.9765127,34.5532036 C35.9765127,35.3249854 35.3702153,35.9316416 34.5980747,35.9316416 Z" id="Shape" fill="#575F64"></path>
            <path d="M42.9602393,33.1747657 L26.2355512,33.1747657 C23.9474877,33.1747657 22.1005962,35.0216571 22.1005962,37.3100795 L22.1005962,42.9153683 C22.1005962,45.2034317 23.9474877,47.0506821 26.2355512,47.0506821 L42.9602393,47.0506821 C45.2486617,47.0506821 47.0955531,45.2034317 47.0955531,42.9153683 L47.0955531,37.3100795 C47.0955531,35.0216571 45.2486617,33.1747657 42.9602393,33.1747657 Z" id="Shape" fill="#FFDA2D"></path>
            <path d="M47.0955531,37.3100795 L47.0955531,42.9153683 C47.0955531,45.2034317 45.2486617,47.0506821 42.9602393,47.0506821 L34.5980747,47.0506821 L34.5980747,33.1747657 L42.9602393,33.1747657 C45.2486617,33.1747657 47.0955531,35.0216571 47.0955531,37.3100795 Z" id="Shape" fill="#FDBF00"></path>
            <path d="M42.9602393,16.5419733 L26.2355512,16.5419733 C23.9474877,16.5419733 22.1005962,18.3888649 22.1005962,20.6772872 L22.1005962,26.1906801 C22.1005962,28.4787435 23.9474877,30.4178898 26.2355512,30.4178898 L42.9602393,30.4178898 C45.2486617,30.4178898 47.0955531,28.4787435 47.0955531,26.1906801 L47.0955531,20.6772872 C47.0955531,18.3888649 45.2486617,16.5419733 42.9602393,16.5419733 Z" id="Shape" fill="#FFDA2D"></path>
            <path d="M47.0955531,20.6772872 L47.0955531,26.1906801 C47.0955531,28.4787435 45.2486617,30.4178898 42.9602393,30.4178898 L34.5980747,30.4178898 L34.5980747,16.5419733 L42.9602393,16.5419733 C45.2486617,16.5419733 47.0955531,18.3888649 47.0955531,20.6772872 Z" id="Shape" fill="#FDBF00"></path>
            <path d="M42.9602393,0.00107690925 L26.2355512,0.00107690925 C23.9474877,0.00107690925 22.1005962,1.84796838 22.1005962,4.13639079 L22.1005962,9.64978356 C22.1005962,11.937847 23.9474877,13.7850974 26.2355512,13.7850974 L42.9602393,13.7850974 C45.2486617,13.7850974 47.0955531,11.937847 47.0955531,9.64978356 L47.0955531,4.13639079 C47.0955531,1.84796838 45.2486617,0.00107690925 42.9602393,0.00107690925 Z" id="Shape" fill="#FFDA2D"></path>
            <path d="M47.0955531,4.13639079 L47.0955531,9.64978356 C47.0955531,11.937847 45.2486617,13.7850974 42.9602393,13.7850974 L34.5980747,13.7850974 L34.5980747,0.00107690925 L42.9602393,0.00107690925 C45.2486617,0.00107690925 47.0955531,1.84796838 47.0955531,4.13639079 Z" id="Shape" fill="#FDBF00"></path>
            <g id="Group" fill="#00C8C8">
                <path d="M6.9381377,41.4450345 C3.13774116,41.4450345 0.0459479318,38.3532412 0.0459479318,34.5532036 C0.0459479318,33.7911142 0.662296337,33.1747657 1.42438588,33.1747657 C2.1861164,33.1747657 2.80282384,33.7911142 2.80282384,34.5532036 C2.80282384,36.8333698 4.65761264,38.6881586 6.9381377,38.6881586 C7.69986821,38.6881586 8.31621671,39.304866 8.31621671,40.0665965 C8.31621671,40.8286861 7.69986821,41.4450345 6.9381377,41.4450345 Z" id="Shape"></path>
                <path d="M1.42438588,30.4178898 C0.662296337,30.4178898 0.0459479318,29.8011824 0.0459479318,29.0394518 L0.0459479318,23.4338041 C0.0459479318,22.6720736 0.662296337,22.0553662 1.42438588,22.0553662 C2.1861164,22.0553662 2.80282384,22.6720736 2.80282384,23.4338041 L2.80282384,29.0394518 C2.80282384,29.8011824 2.1861164,30.4178898 1.42438588,30.4178898 Z" id="Shape"></path>
                <path d="M18.7298846,5.74636322 L10.4592569,0.232611405 C9.82137042,-0.191330037 8.96917982,-0.0190252925 8.54775118,0.614912533 C8.12524561,1.24885045 8.29611449,2.10355375 8.93005231,2.52641836 L13.4124885,5.51482874 L6.9381377,5.51482874 C3.13774116,5.51482874 0.0459479318,8.60662197 0.0459479318,12.4066595 L0.0459479318,17.9204113 C0.0459479318,18.6821419 0.662296337,19.2988492 1.42438588,19.2988492 C2.1861164,19.2988492 2.80282384,18.6821419 2.80282384,17.9204113 L2.80282384,12.4066595 C2.80282384,10.1264934 4.65761264,8.27170465 6.9381377,8.27170465 L13.4128474,8.27170465 L8.93041135,11.2597561 C8.29611449,11.6826206 8.12524561,12.537324 8.54811013,13.1712618 C8.96343633,13.7958665 9.81455,13.9810941 10.4596159,13.5535629 L18.7298846,8.04017017 C19.1136217,7.78422576 19.3437203,7.3534639 19.3437203,6.89326669 C19.3437203,6.43306939 19.1136217,6.00194859 18.7298846,5.74636322 Z" id="Shape"></path>
                <path d="M17.9652824,41.4450345 L12.4515306,41.4450345 C11.6898,41.4450345 11.0730926,40.8286861 11.0730926,40.0665965 C11.0730926,39.304866 11.6898,38.6881586 12.4515306,38.6881586 L17.9652824,38.6881586 C18.7270129,38.6881586 19.3437203,39.304866 19.3437203,40.0665965 C19.3437203,40.8286861 18.7270129,41.4450345 17.9652824,41.4450345 Z" id="Shape"></path>
            </g>
            <path d="M41.5818013,6.89290766 C41.5818013,7.66504831 40.975504,8.27134561 40.2037224,8.27134561 L28.9924271,8.27134561 C28.2206453,8.27134561 27.6139891,7.66504831 27.6139891,6.89290766 C27.6139891,6.12112604 28.2206453,5.5144697 28.9924271,5.5144697 L40.2037224,5.5144697 C40.975504,5.5144697 41.5818013,6.12112604 41.5818013,6.89290766 Z" id="Shape" fill="#FDBF00"></path>
            <path d="M41.5818013,23.4338041 C41.5818013,24.2055859 40.975504,24.8122421 40.2037224,24.8122421 L28.9924271,24.8122421 C28.2206453,24.8122421 27.6139891,24.2055859 27.6139891,23.4338041 C27.6139891,22.6620225 28.2206453,22.0553662 28.9924271,22.0553662 L40.2037224,22.0553662 C40.975504,22.0553662 41.5818013,22.6620225 41.5818013,23.4338041 Z" id="Shape" fill="#FDBF00"></path>
            <path d="M41.5818013,40.0665965 C41.5818013,40.8383782 40.975504,41.4450345 40.2037224,41.4450345 L28.9924271,41.4450345 C28.2206453,41.4450345 27.6139891,40.8383782 27.6139891,40.0665965 C27.6139891,39.2948148 28.2206453,38.6881586 28.9924271,38.6881586 L40.2037224,38.6881586 C40.975504,38.6881586 41.5818013,39.2948148 41.5818013,40.0665965 Z" id="Shape" fill="#FDBF00"></path>
            <path d="M41.5818013,40.0665965 C41.5818013,40.8383782 40.975504,41.4450345 40.2037224,41.4450345 L34.5980747,41.4450345 L34.5980747,38.6881586 L40.2037224,38.6881586 C40.975504,38.6881586 41.5818013,39.2948148 41.5818013,40.0665965 Z" id="Shape" fill="#FF9100"></path>
            <path d="M41.5818013,23.4338041 C41.5818013,24.2055859 40.975504,24.8122421 40.2037224,24.8122421 L34.5980747,24.8122421 L34.5980747,22.0553662 L40.2037224,22.0553662 C40.975504,22.0553662 41.5818013,22.6620225 41.5818013,23.4338041 Z" id="Shape" fill="#FF9100"></path>
            <path d="M40.2037224,8.27134561 L34.5980747,8.27134561 L34.5980747,5.5144697 L40.2037224,5.5144697 C40.975504,5.5144697 41.5818013,6.12112604 41.5818013,6.89290766 C41.5818013,7.66504831 40.975504,8.27134561 40.2037224,8.27134561 Z" id="Shape" fill="#FF9100"></path>
        </g>
    </g>
</svg>