<?xml version="1.0" encoding="UTF-8"?>
<svg width="73px" height="73px" viewBox="0 0 73 73" version="1.1" xmlns="http://www.w3.org/2000/svg" xmlns:xlink="http://www.w3.org/1999/xlink">
    <!-- Generator: Sketch 51.3 (57544) - http://www.bohemiancoding.com/sketch -->
    <title>progressive-webapps/loading-performance/time-to-interactive</title>
    <desc>Created with Sketch.</desc>
    <defs></defs>
    <g id="progressive-webapps/loading-performance/time-to-interactive" stroke="none" stroke-width="1" fill="none" fill-rule="evenodd">
        <g id="container" transform="translate(2.000000, 2.000000)" fill="#FFFFFF" fill-rule="nonzero" stroke="#78521A" stroke-width="2">
            <rect id="mask" x="-1" y="-1" width="71" height="71" rx="14"></rect>
        </g>
        <g id="interactive" transform="translate(20.000000, 10.000000)" fill-rule="nonzero">
            <path d="M29.8804219,29.7854016 C29.109317,29.7095305 28.342068,29.9631318 27.768074,30.4836028 C27.19408,31.0040737 26.8668256,31.7429169 26.8670953,32.5177453 L26.8670953,30.9749906 C26.8910775,29.5327824 25.8242381,28.3043433 24.3928969,28.1260125 C23.621792,28.0501414 22.854543,28.3037427 22.280549,28.8242137 C21.706555,29.3446846 21.3793006,30.0835278 21.3795703,30.8583562 L21.3795703,29.2735969 C21.4026634,27.831732 20.3355925,26.6041345 18.9045563,26.42625 C18.1334514,26.3503789 17.3662024,26.6039802 16.7922084,27.1244512 C16.2182143,27.6449221 15.89096,28.3837653 15.8912297,29.1585937 L15.8912297,12.5198438 C15.9181633,11.0754701 14.850579,9.8437098 13.4170313,9.66515625 C12.6459264,9.58928518 11.8786774,9.84288648 11.3046834,10.3633574 C10.7306893,10.8838284 10.403435,11.6226716 10.4037047,12.3975 L10.4037047,26.4115687 L7.94459531,28.4074031 C5.51784911,30.3769943 4.10861316,33.3358504 4.10871094,36.4612922 C4.10922306,38.020359 4.46118958,39.5592542 5.1384375,40.9635422 L10.4053359,51.8929172 L32.3570672,51.8929172 L32.3570672,32.6343797 C32.3809081,31.1913443 31.3127365,29.9625863 29.8804219,29.7854016 Z" id="Shape" fill="#FFD08B"></path>
            <g id="Group" fill="#FF6CA8">
                <path d="M7.59713906,15.9181453 C7.40784399,15.9183206 7.22628864,15.8430272 7.092675,15.7089375 C3.7541859,12.3628591 3.7541859,6.94583929 7.092675,3.59976094 C7.37369962,3.33675975 7.81265407,3.3439846 8.08487121,3.61609172 C8.35708836,3.88819884 8.36449067,4.32715033 8.10160313,4.60828125 C5.31964886,7.39670297 5.31964886,11.910772 8.10160313,14.6991938 C8.30556162,14.9032962 8.36655071,15.2101333 8.2561497,15.4767201 C8.14574869,15.7433068 7.88568171,15.9171857 7.59713906,15.9173297 L7.59713906,15.9181453 Z" id="Shape"></path>
                <path d="M18.6973875,15.9181453 C18.4088449,15.9180013 18.1487779,15.7441225 18.0383769,15.4775357 C17.9279759,15.210949 17.9889649,14.9041118 18.1929234,14.7000094 C20.9748777,11.9115877 20.9748777,7.39751859 18.1929234,4.60909687 C17.914203,4.33037645 17.914203,3.87848137 18.1929235,3.59976095 C18.4716439,3.32104054 18.9235389,3.32104053 19.2022594,3.59976094 C22.5407485,6.94583929 22.5407485,12.3628591 19.2022594,15.7089375 C19.0685717,15.8431658 18.8868328,15.9184744 18.6973875,15.9181453 Z" id="Shape"></path>
                <path d="M4.61439844,18.9004781 C4.42510337,18.9006534 4.24354801,18.82536 4.10993437,18.6912703 C-0.873304676,13.6968052 -0.873304676,5.61107763 4.10993437,0.6166125 C4.3886548,0.337892077 4.84054989,0.337892077 5.11927031,0.6166125 C5.39799074,0.895332923 5.39799074,1.34722801 5.11927031,1.62594844 C0.692566109,6.06275693 0.692566109,13.2455337 5.11927031,17.6823422 C5.3232288,17.8864446 5.3842179,18.1932818 5.27381689,18.4598685 C5.16341588,18.7264553 4.9033489,18.9003341 4.61480625,18.9004781 L4.61439844,18.9004781 Z" id="Shape"></path>
                <path d="M21.6801281,18.9004781 C21.3915855,18.9003341 21.1315185,18.7264553 21.0211175,18.4598685 C20.9107165,18.1932818 20.9717056,17.8864446 21.1756641,17.6823422 C25.6018727,13.2454879 25.6018727,6.06321049 21.1756641,1.62635625 C20.8969437,1.34763583 20.8969437,0.895740743 21.1756641,0.617020326 C21.4543845,0.338299908 21.9062796,0.338299902 22.185,0.617020312 C27.1675191,5.61162396 27.1675191,13.6966667 22.185,18.6912703 C22.0513123,18.8254987 21.8695735,18.9008073 21.6801281,18.9004781 Z" id="Shape"></path>
            </g>
            <path d="M10.4032969,40.291875 C10.0091468,40.291875 9.689625,39.9723532 9.689625,39.5782031 L9.689625,30.5520891 C9.689625,30.157939 10.0091468,29.8384172 10.4032969,29.8384172 C10.797447,29.8384172 11.1169687,30.157939 11.1169687,30.5520891 L11.1169687,39.5782031 C11.1169687,39.9723532 10.797447,40.291875 10.4032969,40.291875 Z" id="Shape" fill="#E6B56D"></path>
            <path d="M10.4032969,13.0875188 L10.4032969,12.3975 C10.4030158,11.6225932 10.7303253,10.8836781 11.3044124,10.3631931 C11.8784996,9.8427082 12.6458597,9.58916237 13.4170313,9.66515625 C14.8483725,9.84348709 15.9152119,11.0719262 15.8912297,12.5141344 L15.8912297,13.0850719 C17.3511538,11.9192875 17.9150856,9.95828906 17.2974694,8.19505856 C16.6798531,6.43182805 15.015533,5.25133137 13.1472633,5.25133137 C11.2789936,5.25133137 9.61467343,6.43182805 8.9970572,8.19505856 C8.37944097,9.95828906 8.94337274,11.9192875 10.4032969,13.0850719 L10.4032969,13.0875188 Z" id="Shape" fill="#FF6CA8"></path>
        </g>
    </g>
</svg>