<?xml version="1.0" encoding="UTF-8"?>
<svg width="73px" height="73px" viewBox="0 0 73 73" version="1.1" xmlns="http://www.w3.org/2000/svg" xmlns:xlink="http://www.w3.org/1999/xlink">
    <!-- Generator: Sketch 51.3 (57544) - http://www.bohemiancoding.com/sketch -->
    <title>progressive-webapps/loading-performance/tree-shaking</title>
    <desc>Created with Sketch.</desc>
    <defs></defs>
    <g id="progressive-webapps/loading-performance/tree-shaking" stroke="none" stroke-width="1" fill="none" fill-rule="evenodd">
        <g id="container" transform="translate(2.000000, 2.000000)" fill-rule="nonzero">
            <rect id="mask" stroke="#71502C" stroke-width="2" fill="#FFFFFF" x="-1" y="-1" width="71" height="71" rx="14"></rect>
            <g id="snow-globe" transform="translate(12.000000, 7.000000)">
                <path d="M22.1800066,38.259917 L36.9902343,38.259917 C36.9902343,38.259917 39.5863302,46.346013 39.5863302,46.3034381 C39.5863302,50.8146479 31.7981504,54.4745759 22.1374317,54.4745759 C12.5192878,54.4745759 4.6885331,50.8145398 4.6885331,46.3034381 L7.28462907,38.259917 L22.1800066,38.259917 Z" id="Shape" fill="#CC9357"></path>
                <path d="M30.3512524,49.1973422 C27.4998151,46.0905637 23.3716713,43.4945757 21.3714078,44.7287074 C20.5202341,45.23939 19.7967851,46.686396 21.2436831,50.4740487 C21.6692159,51.6657135 22.2650483,53.0275698 22.9034556,54.4745759 C23.1587969,54.4745759 23.4141382,54.4745759 23.6694795,54.432001 C23.0736471,53.1552945 22.4778147,51.7508633 21.9245572,50.2187074 C20.9457669,47.6226115 20.903192,45.8777972 21.7543657,45.3245398 C23.1587969,44.4307912 26.9038747,46.4310547 29.8830366,49.6654499 C30.7767852,50.6442402 31.585384,51.7933301 32.2662581,52.9849949 C32.4790245,52.8998451 32.6917909,52.8148034 32.9046654,52.7722285 C32.1386415,51.4103722 31.2875758,50.2187074 30.3512524,49.1973422 Z M34.521971,47.5375697 C32.1387495,44.7712823 28.8616714,43.409426 26.2656835,42.302911 C25.2017434,41.8773782 24.3079948,41.4943122 23.6271207,41.0686713 C21.9247733,40.0473061 20.9034081,39.1109826 20.5203421,38.2598089 L19.7968931,38.2598089 C20.1373842,39.4088988 21.2864741,40.5154138 23.2866296,41.7070786 C24.0100786,42.1326114 24.9464021,42.5156774 26.0103422,42.9837851 C29.4150369,44.3882163 34.0112884,46.3033301 36.011552,51.3252224 C36.2243184,51.1974977 36.4370848,51.0698811 36.6073844,50.9421564 C36.0965937,49.6654499 35.4157196,48.5589349 34.521971,47.5375697 Z M28.6063301,39.366432 C30.2661026,40.856013 32.3939828,41.3241207 33.8409889,40.5580968 C34.6921625,40.1325639 35.24542,39.2813903 35.4156116,38.2173421 L34.7346294,38.2173421 C34.5644379,39.0259409 34.138797,39.5791984 33.5429646,39.9196895 C32.3087249,40.5580968 30.5213358,40.089881 29.0743297,38.8131745 C28.8615633,38.6004081 28.6912638,38.4301085 28.5210723,38.2173421 L27.6273237,38.2173421 C27.8828811,38.6003 28.1807973,38.9407911 28.6063301,39.366432 Z M24.946294,47.9206357 C24.3504616,47.8780608 24.0525454,48.175977 23.9249288,48.4313183 C23.2865215,49.5378333 23.6270126,52.0487795 24.5633361,54.3894261 L25.2867851,54.3468512 C24.3504616,52.0486714 24.0100786,49.6654499 24.5207612,48.7717013 C24.5633361,48.7291265 24.605911,48.6015098 24.9038272,48.6015098 C26.095492,48.6440847 28.7766297,50.72939 30.7343183,53.4106358 C30.9896597,53.3680609 31.2024261,53.2829111 31.4577674,53.1978694 C29.372354,50.3464321 26.435875,48.0056774 24.946294,47.9206357 Z M37.5010249,46.5162045 C37.45845,46.346013 37.2882585,46.2182883 37.0754921,46.2608632 C36.9053006,46.3034381 36.7775759,46.4736296 36.8201508,46.686396 L37.5861747,50.1761325 C37.7989411,50.005941 38.0117075,49.7930666 38.1820071,49.622875 C37.7989411,47.8354859 37.5010249,46.5162045 37.5010249,46.5162045 Z M36.0114439,43.1966596 C33.1600067,44.3457494 26.0102341,40.5580968 23.9675037,38.259917 L23.0737551,38.259917 C23.11633,38.3024919 23.11633,38.3450668 23.1589049,38.3450668 C24.7335276,40.5155219 30.9470848,44.0904081 34.7773123,44.0904081 C35.3305698,44.0904081 35.8412524,44.0052584 36.3093601,43.8350668 C37.3307253,43.409534 37.7137913,42.0901446 37.7137913,40.3027555 C37.3307253,39.1110907 37.0328092,38.259917 37.0328092,38.259917 L36.8626176,38.259917 C37.1605338,40.8559049 37.0329172,42.8135936 36.0114439,43.1966596 Z M27.7977313,53.4957856 C27.6275398,53.4106358 27.4146653,53.4532107 27.3296236,53.6235102 C27.2445819,53.7938098 27.2870487,54.0065762 27.4573483,54.091618 C27.7978394,54.0490431 28.1383304,54.0064682 28.4361386,53.9214264 C28.1807973,53.7511269 27.9680309,53.5808273 27.7977313,53.4957856 Z M28.4361386,52.0913544 C27.7551564,51.495522 26.7763661,50.8996896 26.1379588,51.1125641 C25.4145098,51.4104803 25.2016353,52.3468037 25.6272762,53.70866 C25.6698511,53.8788515 25.7550009,54.091726 25.8400426,54.2619175 L26.5634916,54.1767677 C26.4357669,53.9640013 26.3507252,53.70866 26.2655754,53.4533187 C25.9676592,52.5595701 26.0102341,51.8361211 26.3507252,51.7083965 C26.4784499,51.6658216 27.0317074,51.7509713 27.9679228,52.5595701 C28.3934556,52.9000612 28.7765216,53.3255941 29.1595876,53.7512349 L29.9256115,53.5810434 C29.4575038,53.0275698 28.9468212,52.4743123 28.4361386,52.0913544 Z M16.9453478,41.0687794 C16.519815,40.0048393 16.1793239,39.0259409 15.8388328,38.2173421 L15.0728089,38.2173421 C15.4133,39.0685158 15.8388328,40.1324559 16.2644737,41.2815458 C18.0093959,45.7927555 19.83936,50.4315819 21.7118988,54.432001 L22.4779227,54.432001 C20.3074677,49.7931746 18.3072041,44.6010907 16.9453478,41.0687794 Z M39.5012885,46.0480968 C39.331097,45.4948393 38.948031,44.3457494 38.564965,43.0690429 C38.6501148,44.0478332 38.7351565,45.0693065 38.8203063,46.0906717 C38.8628812,46.8992705 38.948031,47.6652944 39.0330727,48.4314264 C39.3309889,47.9207438 39.5011804,47.3674863 39.5863302,46.8142288 C39.5864383,46.8141207 39.5012885,46.0480968 39.5012885,46.0480968 Z M20.0947013,52.8573783 C18.7754199,50.3464321 17.4135636,47.7503361 16.8177312,46.1757134 C16.6475397,45.7501806 16.519815,45.2819649 16.3496235,44.8138571 C15.7112162,42.8561685 14.8600425,40.5155219 13.4556113,38.3024919 L12.6044376,38.3024919 C14.1364854,40.5580968 14.9876591,43.026468 15.6686413,45.0693065 C15.8388328,45.5799891 16.0091324,46.00563 16.136749,46.4737377 C16.7325814,48.0909353 18.0944377,50.7296061 19.4137191,53.2405523 C19.6264855,53.6236183 19.8392519,54.0491511 20.0521264,54.474792 C20.3074677,54.474792 20.562809,54.5173669 20.8607252,54.5173669 C20.6905336,53.9638933 20.3926174,53.4106358 20.0947013,52.8573783 Z M7.49750353,47.4099531 C6.85909625,46.2608632 6.17822213,45.1969231 5.41219823,44.1755579 L5.15685693,44.9841567 C5.75268932,45.8779053 6.3485217,46.7716539 6.9017792,47.7504442 C7.75295289,49.282492 8.64670147,50.6444564 9.540342,51.9211629 C9.92340798,52.1339293 10.3489408,52.3042288 10.8170485,52.4744204 C9.66795862,50.9848394 8.56144363,49.3250669 7.49750353,47.4099531 Z M11.5830724,49.8357495 L10.8596234,48.9845758 C9.0296594,46.8566956 7.92314441,44.7712823 6.90167114,42.7710187 L6.30583875,41.6219288 L6.00792256,42.5582523 C6.09307235,42.7284438 6.17811407,42.8987434 6.30583875,43.1115098 C7.36977885,45.1543482 8.47629384,47.2822284 10.3914076,49.4526835 L11.1148566,50.3038572 C12.0511801,51.3677973 12.9873955,52.4317374 13.8811441,53.4532107 L15.030234,53.708552 C13.8811441,52.4743123 12.6895874,51.1550309 11.5830724,49.8357495 Z M12.6895874,46.7715458 C12.7747372,46.9417373 12.9875036,46.9843122 13.1576951,46.8566956 C13.3278866,46.7715458 13.3704615,46.5587794 13.2428449,46.3885879 L9.19985091,40.089989 C8.94450961,39.6644562 8.4764019,38.9834741 8.09333592,38.260025 L7.32731202,38.260025 C7.710378,38.8558574 8.13591081,39.5793064 8.68916831,40.4304801 C8.68906025,40.4303721 12.6895874,46.7715458 12.6895874,46.7715458 Z M7.53997037,41.7922284 C8.77421004,44.132983 10.0934914,46.6013543 12.3915631,49.1547673 C15.7111081,52.8573783 16.4345571,52.8998451 16.860198,52.602037 C17.2857308,52.3466957 17.4986053,51.7082884 15.5834915,47.7504442 C14.6047012,45.7501806 13.923719,43.9627915 13.2853117,42.3455939 C12.6469044,40.7283963 12.1362218,39.36654 11.4553477,38.2174502 L10.6467489,38.2174502 C11.3701979,39.3239651 11.9234554,40.7709712 12.6470125,42.6009352 C13.2428449,44.1755579 13.9662939,46.00563 14.9451923,48.0483604 C16.3070486,50.8572228 16.4347732,51.7083965 16.4347732,51.9637378 C16.1794319,51.878588 15.3282583,51.3679054 12.9024619,48.6867677 C10.646857,46.1758215 9.37015048,43.7926 8.13591081,41.4944202 C7.75284483,40.7709712 7.36988691,40.0474142 6.98682093,39.36654 L6.68890473,40.2602886 C6.98671287,40.7708632 7.28462907,41.2815458 7.53997037,41.7922284 Z M4.77368289,46.2608632 L4.73110799,46.346013 C4.73110799,47.9206357 5.70989831,49.4102167 7.36967079,50.6869232 C6.60375495,49.1547673 5.75258126,47.7077612 4.77368289,46.2608632 Z" id="Shape" fill="#D49D5E"></path>
                <path d="M17.3284138,47.2396535 C17.3284138,47.2396535 19.7542102,47.792911 22.1800066,47.792911 C24.6483778,47.792911 27.0741742,47.2396535 27.0741742,47.2396535 C27.6700066,47.2396535 28.1381143,47.7503361 28.1381143,48.3461685 L28.1381143,49.4526835 C28.1381143,50.0485159 27.6700066,50.5591985 27.0741742,50.5591985 C27.0741742,50.5591985 24.6058029,51.112456 22.1800066,51.112456 C19.7542102,51.112456 17.3284138,50.5591985 17.3284138,50.5591985 C16.7325814,50.5591985 16.2644737,50.0485159 16.2644737,49.4526835 L16.2644737,48.3461685 C16.2218988,47.7078693 16.7325814,47.2396535 17.3284138,47.2396535 Z" id="Shape" fill="#F6C37A"></path>
                <path d="M17.9242462,48.5164681 C17.6689049,48.5164681 17.4987133,48.6866596 17.4987133,48.9420009 C17.4987133,49.1973422 17.6689049,49.3675337 17.9242462,49.3675337 C18.1795875,49.3675337 18.349779,49.1973422 18.349779,48.9420009 C18.349779,48.6866596 18.1795875,48.5164681 17.9242462,48.5164681 Z M26.435875,48.5164681 C26.1805337,48.5164681 26.0103422,48.6866596 26.0103422,48.9420009 C26.0103422,49.1973422 26.1805337,49.3675337 26.435875,49.3675337 C26.6912163,49.3675337 26.8614078,49.1973422 26.8614078,48.9420009 C26.8614078,48.6866596 26.6912163,48.5164681 26.435875,48.5164681 Z" id="Shape" fill="#E3B470"></path>
                <path d="M22.1800066,0 C34.3942464,0 44.3103064,9.91606003 44.3103064,22.1302998 C44.3103064,34.3445396 34.3942464,44.2605997 22.1800066,44.2605997 C9.96576676,44.2605997 0.0497067281,34.3445396 0.0497067281,22.1302998 C0.0497067281,9.91606003 9.96587482,0 22.1800066,0 Z" id="Shape" fill="#93D3E8"></path>
                <path d="M22.1800066,40.0047312 C10.6893238,40.0047312 1.24137151,31.2377611 0.134856515,20.0023116 C0.0497067281,20.6832937 0.0497067281,21.4067428 0.0497067281,22.1301918 C0.0497067281,34.3444316 9.96576676,44.2604916 22.1800066,44.2604916 C34.3942464,44.2604916 44.3103064,34.3444316 44.3103064,22.1301918 C44.3103064,21.4067428 44.2677315,20.6831857 44.2251566,20.0023116 C43.1187497,31.2377611 33.6707973,40.0047312 22.1800066,40.0047312 Z" id="Shape" fill="#84BDD0"></path>
                <path d="M22.1800066,32.3442761 C13.7109526,32.3442761 6.85898819,34.8552222 6.85898819,37.9620008 L6.85898819,38.1321923 C10.8169404,41.9624199 16.2217907,44.3031745 22.1800066,44.3031745 C28.1382224,44.3031745 33.5004978,41.9624199 37.5010249,38.1321923 L37.5010249,37.9620008 C37.5010249,34.8552222 30.6491686,32.3442761 22.1800066,32.3442761 Z" id="Shape" fill="#DFF2F8"></path>
                <path d="M37.5010249,38.0896174 L37.5010249,37.9194259 C37.5010249,36.9831024 36.8626176,36.0894619 35.7561026,35.3233299 C32.0110249,38.2598089 27.2870487,40.0047312 22.1800066,40.0047312 C17.0729644,40.0047312 12.3490963,38.2598089 8.60391046,35.3659048 C7.49739547,36.1319287 6.85898819,37.0256773 6.85898819,37.9620008 L6.85898819,38.1321923 C10.8169404,41.9624199 16.2217907,44.3031745 22.1800066,44.3031745 C28.1382224,44.2605997 33.5006058,41.919845 37.5010249,38.0896174 Z" id="Shape" fill="#C8D9DF"></path>
                <path d="M31.5429171,35.0254137 C31.5429171,36.5574615 27.3721985,38.7280247 22.1801146,38.7280247 C16.9880307,38.7280247 12.8173121,36.5575696 12.8173121,35.0254137 L22.1800066,22.1302998 L31.5429171,35.0254137 Z" id="Shape" fill="#3DB39E"></path>
                <path d="M28.0104977,30.173821 L22.1800066,22.1302998 L16.3495154,30.173821 C17.6262219,30.9398449 19.7542102,31.620827 22.1800066,31.620827 C24.6058029,31.620827 26.7337912,30.9398449 28.0104977,30.173821 Z" id="Shape" fill="#37A18E"></path>
                <path d="M29.4149289,27.2798088 C29.4149289,28.5140485 26.1805337,30.2162878 22.1800066,30.2162878 C18.1794794,30.2162878 14.9450842,28.5139404 14.9450842,27.2798088 L22.1800066,17.0232577 L29.4149289,27.2798088 Z" id="Shape" fill="#3DB39E"></path>
                <path d="M26.3507252,22.9814735 L22.1800066,17.0233657 L18.0092879,22.9814735 C19.0306531,23.4921561 20.5202341,23.8752221 22.1800066,23.8752221 C23.839779,23.8752221 25.32936,23.4495812 26.3507252,22.9814735 Z" id="Shape" fill="#37A18E"></path>
                <path d="M27.7125815,20.3003358 C27.7125815,21.2366593 25.2442102,22.5559407 22.1800066,22.5559407 C19.1158029,22.5559407 16.6474316,21.2366593 16.6474316,20.3003358 L22.1800066,12.3419645 L27.7125815,20.3003358 Z" id="Shape" fill="#3DB39E"></path>
                <path d="M14.0940186,11.0651499 C13.3705696,11.0651499 12.8173121,11.6184074 12.8173121,12.3418564 C12.8173121,13.0653054 13.3705696,13.6185629 14.0940186,13.6185629 C14.8174676,13.6185629 15.3707251,13.0653054 15.3707251,12.3418564 C15.3707251,11.6609823 14.8174676,11.0651499 14.0940186,11.0651499 Z M18.7754199,14.8953775 C18.0519708,14.8953775 17.4987133,15.448635 17.4987133,16.172084 C17.4987133,16.895533 18.0519708,17.4487905 18.7754199,17.4487905 C19.4988689,17.4487905 20.0521264,16.895533 20.0521264,16.172084 C20.0521264,15.4912099 19.4988689,14.8953775 18.7754199,14.8953775 Z M26.0103422,6.38374865 C26.7337912,6.38374865 27.2870487,5.83049115 27.2870487,5.10704214 C27.2870487,4.38359313 26.7337912,3.83033563 26.0103422,3.83033563 C25.2868932,3.83033563 24.7336357,4.38359313 24.7336357,5.10704214 C24.7336357,5.83049115 25.2867851,6.38374865 26.0103422,6.38374865 Z M31.96845,22.1302998 C31.245001,22.1302998 30.6917435,22.6835573 30.6917435,23.4070063 C30.6917435,24.1304553 31.245001,24.6837128 31.96845,24.6837128 C32.691899,24.6837128 33.2451565,24.1304553 33.2451565,23.4070063 C33.2451565,22.7261322 32.691899,22.1302998 31.96845,22.1302998 Z M28.1807973,29.4077971 C27.5849649,29.4077971 27.1168572,29.8759048 27.1168572,30.514312 C27.1168572,31.1101444 27.5849649,31.620827 28.1807973,31.620827 C28.7766297,31.620827 29.2447374,31.1527193 29.2447374,30.514312 C29.2447374,29.9184797 28.7766297,29.4077971 28.1807973,29.4077971 Z M11.9660303,23.8326472 C11.2425813,23.8326472 10.6893238,24.3859047 10.6893238,25.1093537 C10.6893238,25.8328027 11.2425813,26.3860602 11.9660303,26.3860602 C12.6894793,26.3860602 13.2427368,25.8328027 13.2427368,25.1093537 C13.2428449,24.4284796 12.6895874,23.8326472 11.9660303,23.8326472 Z M10.263791,19.5767788 C10.98724,19.5767788 11.5404975,19.0235213 11.5404975,18.3000723 C11.5404975,17.5766232 10.98724,17.0233657 10.263791,17.0233657 C9.540342,17.0233657 8.9870845,17.5766232 8.9870845,18.3000723 C8.9870845,19.0235213 9.54023394,19.5767788 10.263791,19.5767788 Z M23.0311802,24.25818 C22.3077312,24.25818 21.7544737,24.8114375 21.7544737,25.5348865 C21.7544737,26.2583355 22.3077312,26.811593 23.0311802,26.811593 C23.7546293,26.811593 24.3078868,26.2583355 24.3078868,25.5348865 C24.3079948,24.8540124 23.7547373,24.25818 23.0311802,24.25818 Z M26.8615159,11.0651499 C26.8615159,10.3417009 26.3082584,9.78844341 25.5848094,9.78844341 C24.8613604,9.78844341 24.3081029,10.3417009 24.3081029,11.0651499 C24.3081029,11.7885989 24.8613604,12.3418564 25.5848094,12.3418564 C26.3082584,12.3418564 26.8615159,11.7885989 26.8615159,11.0651499 Z M28.5637552,19.1512459 C28.5637552,18.4277969 28.0104977,17.8745394 27.2870487,17.8745394 C26.5635997,17.8745394 26.0103422,18.4277969 26.0103422,19.1512459 C26.0103422,19.874695 26.5635997,20.4279524 27.2870487,20.4279524 C28.0104977,20.4279524 28.5637552,19.874695 28.5637552,19.1512459 Z M34.521971,28.9395813 C33.798522,28.9395813 33.2452645,29.4928388 33.2452645,30.2162878 C33.2452645,30.9397368 33.798522,31.4929943 34.521971,31.4929943 C35.24542,31.4929943 35.7986775,30.9397368 35.7986775,30.2162878 C35.7986775,29.5354137 35.24542,28.9395813 34.521971,28.9395813 Z M38.3521986,23.8326472 C37.6287496,23.8326472 37.0754921,24.3859047 37.0754921,25.1093537 C37.0754921,25.8328027 37.6287496,26.3860602 38.3521986,26.3860602 C39.0756476,26.3860602 39.6289051,25.8328027 39.6289051,25.1093537 C39.6289051,24.4284796 39.0756476,23.8326472 38.3521986,23.8326472 Z M23.0311802,34.0466234 C22.3077312,34.0466234 21.7544737,34.5998809 21.7544737,35.3233299 C21.7544737,36.0467789 22.3077312,36.6000364 23.0311802,36.6000364 C23.7546293,36.6000364 24.3078868,36.0467789 24.3078868,35.3233299 C24.3079948,34.6424558 23.7547373,34.0466234 23.0311802,34.0466234 Z M17.9242462,32.3442761 C17.2007972,32.3442761 16.6475397,32.8975335 16.6475397,33.6209826 C16.6475397,34.3444316 17.2007972,34.8976891 17.9242462,34.8976891 C18.6476952,34.8976891 19.2009527,34.3444316 19.2009527,33.6209826 C19.2009527,32.9401084 18.6476952,32.3442761 17.9242462,32.3442761 Z M19.2009527,4.25586845 C18.4775037,4.25586845 17.9242462,4.80912595 17.9242462,5.53257496 C17.9242462,6.25602397 18.4775037,6.80928146 19.2009527,6.80928146 C19.9244017,6.80928146 20.4776592,6.25602397 20.4776592,5.53257496 C20.4777672,4.85159278 19.9245097,4.25586845 19.2009527,4.25586845 Z M6.00792256,22.5558326 C5.28447355,22.5558326 4.73121605,23.1090901 4.73121605,23.8325391 C4.73121605,24.5559882 5.28447355,25.1092457 6.00792256,25.1092457 C6.73137157,25.1092457 7.28462907,24.5559882 7.28462907,23.8325391 C7.28462907,23.151665 6.73137157,22.5558326 6.00792256,22.5558326 Z M32.3940908,14.4698447 C32.3940908,13.7463957 31.8408333,13.1931382 31.1173843,13.1931382 C30.3939353,13.1931382 29.8406778,13.7463957 29.8406778,14.4698447 C29.8406778,15.1932937 30.3939353,15.7465512 31.1173843,15.7465512 C31.8408333,15.7465512 32.3940908,15.1932937 32.3940908,14.4698447 Z M11.5404975,8.93726972 C12.2639465,8.93726972 12.817204,8.38401222 12.817204,7.66056321 C12.817204,6.9371142 12.2639465,6.3838567 11.5404975,6.3838567 C10.8170485,6.3838567 10.263791,6.9371142 10.263791,7.66056321 C10.263791,8.38401222 10.8170485,8.93726972 11.5404975,8.93726972 Z M9.41261732,28.5140485 C8.68916831,28.5140485 8.13591081,29.067306 8.13591081,29.790755 C8.13591081,30.514204 8.68916831,31.0674615 9.41261732,31.0674615 C10.1360663,31.0674615 10.6893238,30.514204 10.6893238,29.790755 C10.6893238,29.1098809 10.1360663,28.5140485 9.41261732,28.5140485 Z M6.43345537,13.1930301 C5.71000636,13.1930301 5.15674887,13.7462876 5.15674887,14.4697366 C5.15674887,15.1931856 5.71000636,15.7464431 6.43345537,15.7464431 C7.15690439,15.7464431 7.71016188,15.1931856 7.71016188,14.4697366 C7.71026994,13.7888625 7.15701244,13.1930301 6.43345537,13.1930301 Z M37.0754921,20.0024196 C37.0754921,20.7258686 37.6287496,21.2791261 38.3521986,21.2791261 C39.0756476,21.2791261 39.6289051,20.7258686 39.6289051,20.0024196 C39.6289051,19.2789706 39.0756476,18.7257131 38.3521986,18.7257131 C37.6287496,18.7257131 37.0754921,19.3214375 37.0754921,20.0024196 Z M37.9266658,14.4698447 C37.9266658,13.7463957 37.3734083,13.1931382 36.6499593,13.1931382 C35.9265103,13.1931382 35.3732528,13.7463957 35.3732528,14.4698447 C35.3732528,15.1932937 35.9265103,15.7465512 36.6499593,15.7465512 C37.3734083,15.7465512 37.9266658,15.1932937 37.9266658,14.4698447 Z M34.0963302,10.2139762 C34.8197792,10.2139762 35.3730367,9.66071873 35.3730367,8.93726972 C35.3730367,8.21382071 34.8197792,7.66056321 34.0963302,7.66056321 C33.3728811,7.66056321 32.8196237,8.21382071 32.8196237,8.93726972 C32.8196237,9.66071873 33.3728811,10.2139762 34.0963302,10.2139762 Z M14.0940186,11.0651499 C13.3705696,11.0651499 12.8173121,11.6184074 12.8173121,12.3418564 C12.8173121,13.0653054 13.3705696,13.6185629 14.0940186,13.6185629 C14.8174676,13.6185629 15.3707251,13.0653054 15.3707251,12.3418564 C15.3707251,11.6609823 14.8174676,11.0651499 14.0940186,11.0651499 Z M18.7754199,14.8953775 C18.0519708,14.8953775 17.4987133,15.448635 17.4987133,16.172084 C17.4987133,16.895533 18.0519708,17.4487905 18.7754199,17.4487905 C19.4988689,17.4487905 20.0521264,16.895533 20.0521264,16.172084 C20.0521264,15.4912099 19.4988689,14.8953775 18.7754199,14.8953775 Z M26.0103422,6.38374865 C26.7337912,6.38374865 27.2870487,5.83049115 27.2870487,5.10704214 C27.2870487,4.38359313 26.7337912,3.83033563 26.0103422,3.83033563 C25.2868932,3.83033563 24.7336357,4.38359313 24.7336357,5.10704214 C24.7336357,5.83049115 25.2867851,6.38374865 26.0103422,6.38374865 Z M31.96845,22.1302998 C31.245001,22.1302998 30.6917435,22.6835573 30.6917435,23.4070063 C30.6917435,24.1304553 31.245001,24.6837128 31.96845,24.6837128 C32.691899,24.6837128 33.2451565,24.1304553 33.2451565,23.4070063 C33.2451565,22.7261322 32.691899,22.1302998 31.96845,22.1302998 Z M28.1807973,29.4077971 C27.5849649,29.4077971 27.1168572,29.8759048 27.1168572,30.514312 C27.1168572,31.1101444 27.5849649,31.620827 28.1807973,31.620827 C28.7766297,31.620827 29.2447374,31.1527193 29.2447374,30.514312 C29.2447374,29.9184797 28.7766297,29.4077971 28.1807973,29.4077971 Z M11.9660303,23.8326472 C11.2425813,23.8326472 10.6893238,24.3859047 10.6893238,25.1093537 C10.6893238,25.8328027 11.2425813,26.3860602 11.9660303,26.3860602 C12.6894793,26.3860602 13.2427368,25.8328027 13.2427368,25.1093537 C13.2428449,24.4284796 12.6895874,23.8326472 11.9660303,23.8326472 Z M10.263791,19.5767788 C10.98724,19.5767788 11.5404975,19.0235213 11.5404975,18.3000723 C11.5404975,17.5766232 10.98724,17.0233657 10.263791,17.0233657 C9.540342,17.0233657 8.9870845,17.5766232 8.9870845,18.3000723 C8.9870845,19.0235213 9.54023394,19.5767788 10.263791,19.5767788 Z M23.0311802,24.25818 C22.3077312,24.25818 21.7544737,24.8114375 21.7544737,25.5348865 C21.7544737,26.2583355 22.3077312,26.811593 23.0311802,26.811593 C23.7546293,26.811593 24.3078868,26.2583355 24.3078868,25.5348865 C24.3079948,24.8540124 23.7547373,24.25818 23.0311802,24.25818 Z M26.8615159,11.0651499 C26.8615159,10.3417009 26.3082584,9.78844341 25.5848094,9.78844341 C24.8613604,9.78844341 24.3081029,10.3417009 24.3081029,11.0651499 C24.3081029,11.7885989 24.8613604,12.3418564 25.5848094,12.3418564 C26.3082584,12.3418564 26.8615159,11.7885989 26.8615159,11.0651499 Z M28.5637552,19.1512459 C28.5637552,18.4277969 28.0104977,17.8745394 27.2870487,17.8745394 C26.5635997,17.8745394 26.0103422,18.4277969 26.0103422,19.1512459 C26.0103422,19.874695 26.5635997,20.4279524 27.2870487,20.4279524 C28.0104977,20.4279524 28.5637552,19.874695 28.5637552,19.1512459 Z M34.521971,28.9395813 C33.798522,28.9395813 33.2452645,29.4928388 33.2452645,30.2162878 C33.2452645,30.9397368 33.798522,31.4929943 34.521971,31.4929943 C35.24542,31.4929943 35.7986775,30.9397368 35.7986775,30.2162878 C35.7986775,29.5354137 35.24542,28.9395813 34.521971,28.9395813 Z M38.3521986,23.8326472 C37.6287496,23.8326472 37.0754921,24.3859047 37.0754921,25.1093537 C37.0754921,25.8328027 37.6287496,26.3860602 38.3521986,26.3860602 C39.0756476,26.3860602 39.6289051,25.8328027 39.6289051,25.1093537 C39.6289051,24.4284796 39.0756476,23.8326472 38.3521986,23.8326472 Z M23.0311802,34.0466234 C22.3077312,34.0466234 21.7544737,34.5998809 21.7544737,35.3233299 C21.7544737,36.0467789 22.3077312,36.6000364 23.0311802,36.6000364 C23.7546293,36.6000364 24.3078868,36.0467789 24.3078868,35.3233299 C24.3079948,34.6424558 23.7547373,34.0466234 23.0311802,34.0466234 Z M17.9242462,32.3442761 C17.2007972,32.3442761 16.6475397,32.8975335 16.6475397,33.6209826 C16.6475397,34.3444316 17.2007972,34.8976891 17.9242462,34.8976891 C18.6476952,34.8976891 19.2009527,34.3444316 19.2009527,33.6209826 C19.2009527,32.9401084 18.6476952,32.3442761 17.9242462,32.3442761 Z M19.2009527,4.25586845 C18.4775037,4.25586845 17.9242462,4.80912595 17.9242462,5.53257496 C17.9242462,6.25602397 18.4775037,6.80928146 19.2009527,6.80928146 C19.9244017,6.80928146 20.4776592,6.25602397 20.4776592,5.53257496 C20.4777672,4.85159278 19.9245097,4.25586845 19.2009527,4.25586845 Z M6.00792256,22.5558326 C5.28447355,22.5558326 4.73121605,23.1090901 4.73121605,23.8325391 C4.73121605,24.5559882 5.28447355,25.1092457 6.00792256,25.1092457 C6.73137157,25.1092457 7.28462907,24.5559882 7.28462907,23.8325391 C7.28462907,23.151665 6.73137157,22.5558326 6.00792256,22.5558326 Z M32.3940908,14.4698447 C32.3940908,13.7463957 31.8408333,13.1931382 31.1173843,13.1931382 C30.3939353,13.1931382 29.8406778,13.7463957 29.8406778,14.4698447 C29.8406778,15.1932937 30.3939353,15.7465512 31.1173843,15.7465512 C31.8408333,15.7465512 32.3940908,15.1932937 32.3940908,14.4698447 Z M11.5404975,8.93726972 C12.2639465,8.93726972 12.817204,8.38401222 12.817204,7.66056321 C12.817204,6.9371142 12.2639465,6.3838567 11.5404975,6.3838567 C10.8170485,6.3838567 10.263791,6.9371142 10.263791,7.66056321 C10.263791,8.38401222 10.8170485,8.93726972 11.5404975,8.93726972 Z M9.41261732,28.5140485 C8.68916831,28.5140485 8.13591081,29.067306 8.13591081,29.790755 C8.13591081,30.514204 8.68916831,31.0674615 9.41261732,31.0674615 C10.1360663,31.0674615 10.6893238,30.514204 10.6893238,29.790755 C10.6893238,29.1098809 10.1360663,28.5140485 9.41261732,28.5140485 Z M6.43345537,13.1930301 C5.71000636,13.1930301 5.15674887,13.7462876 5.15674887,14.4697366 C5.15674887,15.1931856 5.71000636,15.7464431 6.43345537,15.7464431 C7.15690439,15.7464431 7.71016188,15.1931856 7.71016188,14.4697366 C7.71026994,13.7888625 7.15701244,13.1930301 6.43345537,13.1930301 Z M37.0754921,20.0024196 C37.0754921,20.7258686 37.6287496,21.2791261 38.3521986,21.2791261 C39.0756476,21.2791261 39.6289051,20.7258686 39.6289051,20.0024196 C39.6289051,19.2789706 39.0756476,18.7257131 38.3521986,18.7257131 C37.6287496,18.7257131 37.0754921,19.3214375 37.0754921,20.0024196 Z M37.9266658,14.4698447 C37.9266658,13.7463957 37.3734083,13.1931382 36.6499593,13.1931382 C35.9265103,13.1931382 35.3732528,13.7463957 35.3732528,14.4698447 C35.3732528,15.1932937 35.9265103,15.7465512 36.6499593,15.7465512 C37.3734083,15.7465512 37.9266658,15.1932937 37.9266658,14.4698447 Z M34.0963302,10.2139762 C34.8197792,10.2139762 35.3730367,9.66071873 35.3730367,8.93726972 C35.3730367,8.21382071 34.8197792,7.66056321 34.0963302,7.66056321 C33.3728811,7.66056321 32.8196237,8.21382071 32.8196237,8.93726972 C32.8196237,9.66071873 33.3728811,10.2139762 34.0963302,10.2139762 Z" id="Shape" fill="#FFFFFF"></path>
            </g>
        </g>
    </g>
</svg>