<?xml version="1.0" encoding="UTF-8"?>
<svg width="73px" height="73px" viewBox="0 0 73 73" version="1.1" xmlns="http://www.w3.org/2000/svg" xmlns:xlink="http://www.w3.org/1999/xlink">
    <!-- Generator: Sketch 51.3 (57544) - http://www.bohemiancoding.com/sketch -->
    <title>algorithms-and-data-structures/data-structures/arrays</title>
    <desc>Created with Sketch.</desc>
    <defs></defs>
    <g id="algorithms-and-data-structures/data-structures/arrays" stroke="none" stroke-width="1" fill="none" fill-rule="evenodd">
        <g id="container" transform="translate(2.000000, 2.000000)" fill="#FFFFFF" fill-rule="nonzero" stroke="#4C2204" stroke-width="2">
            <rect id="mask" x="-1" y="-1" width="71" height="71" rx="14"></rect>
        </g>
        <g id="pack" transform="translate(16.000000, 16.000000)" fill-rule="nonzero">
            <rect id="Rectangle-path" fill="#A98258" x="0" y="16.2586207" width="41" height="24.7413793"></rect>
            <polygon id="Shape" fill="#F4D5BD" points="34.637931 29.6896552 31.8103448 32.5172414 34.637931 35.3448276 33.2241379 36.7586207 41 36.7586207 41 28.2758621 33.2241379 28.2758621"></polygon>
            <path d="M11.0897931,3.53448276 L3.04813793,3.53448276 C2.92655172,3.53448276 2.82758621,3.43551724 2.82758621,3.31393103 L2.82758621,1.98708621 C2.82758621,0.889982759 3.71756897,0 4.81467241,0 L9.32325862,0 C10.4203621,0 11.3103448,0.889982759 11.3103448,1.98708621 L11.3103448,3.31393103 C11.3103448,3.43551724 11.2113793,3.53448276 11.0897931,3.53448276 Z" id="Shape" fill="#F0C419"></path>
            <rect id="Rectangle-path" fill="#AA891D" x="4.24137931" y="2.12068966" width="1.4137931" height="1.4137931"></rect>
            <rect id="Rectangle-path" fill="#AA891D" x="6.36206897" y="2.12068966" width="1.4137931" height="1.4137931"></rect>
            <rect id="Rectangle-path" fill="#AA891D" x="8.48275862" y="2.12068966" width="1.4137931" height="1.4137931"></rect>
            <path d="M24.5208276,3.53448276 L16.4791724,3.53448276 C16.3575862,3.53448276 16.2586207,3.43551724 16.2586207,3.31393103 L16.2586207,1.98708621 C16.2586207,0.889982759 17.1486034,0 18.2457069,0 L22.7542931,0 C23.8513966,0 24.7413793,0.889982759 24.7413793,1.98708621 L24.7413793,3.31393103 C24.7413793,3.43551724 24.6424138,3.53448276 24.5208276,3.53448276 Z" id="Shape" fill="#F0C419"></path>
            <rect id="Rectangle-path" fill="#AA891D" x="17.6724138" y="2.12068966" width="1.4137931" height="1.4137931"></rect>
            <rect id="Rectangle-path" fill="#AA891D" x="19.7931034" y="2.12068966" width="1.4137931" height="1.4137931"></rect>
            <rect id="Rectangle-path" fill="#AA891D" x="21.9137931" y="2.12068966" width="1.4137931" height="1.4137931"></rect>
            <path d="M37.9518621,3.53448276 L29.9102069,3.53448276 C29.7886207,3.53448276 29.6896552,3.43551724 29.6896552,3.31393103 L29.6896552,1.98708621 C29.6896552,0.889982759 30.5796379,0 31.6767414,0 L36.1853276,0 C37.282431,0 38.1724138,0.889982759 38.1724138,1.98708621 L38.1724138,3.31393103 C38.1724138,3.43551724 38.0734483,3.53448276 37.9518621,3.53448276 Z" id="Shape" fill="#F0C419"></path>
            <rect id="Rectangle-path" fill="#AA891D" x="31.1034483" y="2.12068966" width="1.4137931" height="1.4137931"></rect>
            <rect id="Rectangle-path" fill="#AA891D" x="33.2241379" y="2.12068966" width="1.4137931" height="1.4137931"></rect>
            <rect id="Rectangle-path" fill="#AA891D" x="35.3448276" y="2.12068966" width="1.4137931" height="1.4137931"></rect>
            <path d="M39.5862069,16.2586207 L39.5862069,15.0116552 C39.5862069,14.0432069 39.039069,13.1574655 38.1724138,12.7241379 C37.3057586,12.2908103 36.7586207,11.405069 36.7586207,10.4366207 L36.7586207,3.53448276 L31.1034483,3.53448276 L31.1034483,10.4366207 C31.1034483,11.405069 30.5563103,12.2908103 29.6896552,12.7241379 C28.823,13.1574655 28.2758621,14.0432069 28.2758621,15.0116552 L28.2758621,16.2586207 L39.5862069,16.2586207 Z" id="Shape" fill="#6A3006"></path>
            <path d="M26.1551724,16.2586207 L26.1551724,15.0116552 C26.1551724,14.0432069 25.6080345,13.1574655 24.7413793,12.7241379 C23.8747241,12.2908103 23.3275862,11.405069 23.3275862,10.4366207 L23.3275862,3.53448276 L17.6724138,3.53448276 L17.6724138,10.4366207 C17.6724138,11.405069 17.1252759,12.2908103 16.2586207,12.7241379 C15.3919655,13.1574655 14.8448276,14.0432069 14.8448276,15.0116552 L14.8448276,16.2586207 L26.1551724,16.2586207 Z" id="Shape" fill="#6A3006"></path>
            <path d="M12.7241379,16.2586207 L12.7241379,15.0116552 C12.7241379,14.0432069 12.177,13.1574655 11.3103448,12.7241379 C10.4436897,12.2908103 9.89655172,11.405069 9.89655172,10.4366207 L9.89655172,3.53448276 L4.24137931,3.53448276 L4.24137931,10.4366207 C4.24137931,11.405069 3.69424138,12.2908103 2.82758621,12.7241379 C1.96093103,13.1574655 1.4137931,14.0432069 1.4137931,15.0116552 L1.4137931,16.2586207 L12.7241379,16.2586207 Z" id="Shape" fill="#6A3006"></path>
            <g id="Group" transform="translate(0.000000, 31.810345)" fill="#7C5F42">
                <rect id="Rectangle-path" x="0" y="6.36206897" width="7.06896552" height="1.4137931"></rect>
                <rect id="Rectangle-path" x="0" y="4.24137931" width="5.65517241" height="1.4137931"></rect>
                <rect id="Rectangle-path" x="0" y="2.12068966" width="4.24137931" height="1.4137931"></rect>
                <rect id="Rectangle-path" x="0" y="0" width="2.82758621" height="1.4137931"></rect>
            </g>
        </g>
    </g>
</svg>