<?xml version="1.0" encoding="UTF-8"?>
<svg width="73px" height="73px" viewBox="0 0 73 73" version="1.1" xmlns="http://www.w3.org/2000/svg" xmlns:xlink="http://www.w3.org/1999/xlink">
    <!-- Generator: Sketch 51.3 (57544) - http://www.bohemiancoding.com/sketch -->
    <title>algorithms-and-data-structures/data-structures/hash-tables</title>
    <desc>Created with Sketch.</desc>
    <defs></defs>
    <g id="algorithms-and-data-structures/data-structures/hash-tables" stroke="none" stroke-width="1" fill="none" fill-rule="evenodd">
        <g id="container" transform="translate(2.000000, 2.000000)" fill="#FFFFFF" fill-rule="nonzero" stroke="#232737" stroke-width="2">
            <rect id="mask" x="-1" y="-1" width="71" height="71" rx="14"></rect>
        </g>
        <g id="stats" transform="translate(12.000000, 17.000000)" fill-rule="nonzero">
            <path d="M47.3103613,38.9544258 L1.68963867,38.9544258 C0.7564375,38.9544258 0,38.1979883 0,37.2647871 L0,1.78208789 C0,0.848886719 0.7564375,0.0924492188 1.68963867,0.0924492188 L47.3103613,0.0924492188 C48.2435625,0.0924492188 49,0.848886719 49,1.78208789 L49,37.2648828 C49,38.1978926 48.2434668,38.9544258 47.3103613,38.9544258 Z" id="Shape" fill="#EFF2FA"></path>
            <path d="M0,5.16136523 L49,5.16136523 L49,1.78208789 C49,0.848886719 48.2435625,0.0924492187 47.3103613,0.0924492187 L1.68963867,0.0924492187 C0.7564375,0.0924492188 0,0.848886719 0,1.78208789 L0,5.16136523 Z" id="Shape" fill="#C3E678"></path>
            <g id="Group" transform="translate(1.626953, 1.722656)" fill="#EBF5AA">
                <path d="M7.66610742,1.74907031 L0.907552734,1.74907031 C0.441,1.74907031 0.0626855469,1.37075586 0.0626855469,0.904203125 C0.0626855469,0.437650391 0.441,0.0593359375 0.907552734,0.0593359375 L7.66620313,0.0593359375 C8.13275586,0.0593359375 8.51107031,0.437650391 8.51107031,0.904203125 C8.51097461,1.37075586 8.13266016,1.74907031 7.66610742,1.74907031 Z" id="Shape"></path>
                <path d="M12.7351191,1.74907031 L11.0454805,1.74907031 C10.5789277,1.74907031 10.2006133,1.37075586 10.2006133,0.904203125 C10.2006133,0.437650391 10.5789277,0.0593359375 11.0454805,0.0593359375 L12.7351191,0.0593359375 C13.2016719,0.0593359375 13.5799863,0.437650391 13.5799863,0.904203125 C13.5799863,1.37075586 13.2016719,1.74907031 12.7351191,1.74907031 Z" id="Shape"></path>
                <path d="M44.838541,1.74907031 L43.1489023,1.74907031 C42.6823496,1.74907031 42.3040352,1.37075586 42.3040352,0.904203125 C42.3040352,0.437650391 42.6823496,0.0593359375 43.1489023,0.0593359375 L44.838541,0.0593359375 C45.3050937,0.0593359375 45.6834082,0.437650391 45.6834082,0.904203125 C45.6834082,1.37075586 45.3050937,1.74907031 44.838541,1.74907031 Z" id="Shape"></path>
                <path d="M39.769625,1.74907031 L38.0799863,1.74907031 C37.6134336,1.74907031 37.2351191,1.37075586 37.2351191,0.904203125 C37.2351191,0.437650391 37.6134336,0.0593359375 38.0799863,0.0593359375 L39.769625,0.0593359375 C40.2361777,0.0593359375 40.6144922,0.437650391 40.6144922,0.904203125 C40.6143965,1.37075586 40.2361777,1.74907031 39.769625,1.74907031 Z" id="Shape"></path>
            </g>
            <rect id="Rectangle-path" fill="#D7DEED" x="0" y="5.16136523" width="49" height="5.06901172"></rect>
            <g id="Group" opacity="0.97" transform="translate(1.626953, 6.794922)" fill="#AFB9D2">
                <path d="M3.44205859,1.7457207 L0.907552734,1.7457207 C0.441,1.7457207 0.0626855469,1.36740625 0.0626855469,0.900853516 C0.0626855469,0.434300781 0.441,0.0559863281 0.907552734,0.0559863281 L3.44205859,0.0559863281 C3.90861133,0.0559863281 4.28692578,0.434300781 4.28692578,0.900853516 C4.28683008,1.36750195 3.90861133,1.7457207 3.44205859,1.7457207 Z" id="Shape"></path>
            </g>
            <path d="M10.9827949,8.54064258 L8.44828906,8.54064258 C7.98173633,8.54064258 7.60342187,8.16232813 7.60342187,7.69577539 C7.60342187,7.22922266 7.98173633,6.8509082 8.44828906,6.8509082 L10.9827949,6.8509082 C11.4493477,6.8509082 11.8276621,7.22922266 11.8276621,7.69577539 C11.8275664,8.16242383 11.4493477,8.54064258 10.9827949,8.54064258 Z" id="Shape" fill="#FFD782"></path>
            <g id="Group" transform="translate(13.494141, 6.794922)" fill="#B4E1FA">
                <path d="M1.71279883,1.7457207 L0.867931641,1.7457207 C0.401378906,1.7457207 0.0230644531,1.36740625 0.0230644531,0.900853516 C0.0230644531,0.434300781 0.401378906,0.0559863281 0.867931641,0.0559863281 L1.71279883,0.0559863281 C2.17935156,0.0559863281 2.55766602,0.434300781 2.55766602,0.900853516 C2.55757031,1.36750195 2.17935156,1.7457207 1.71279883,1.7457207 Z" id="Shape"></path>
                <path d="M5.93684766,1.7457207 L5.09198047,1.7457207 C4.62542773,1.7457207 4.24711328,1.36740625 4.24711328,0.900853516 C4.24711328,0.434300781 4.62542773,0.0559863281 5.09198047,0.0559863281 L5.93684766,0.0559863281 C6.40340039,0.0559863281 6.78171484,0.434300781 6.78171484,0.900853516 C6.78171484,1.36750195 6.40349609,1.7457207 5.93684766,1.7457207 Z" id="Shape"></path>
            </g>
            <path d="M25.3448672,8.54064258 L22.8103613,8.54064258 C22.3438086,8.54064258 21.9654941,8.16232813 21.9654941,7.69577539 C21.9654941,7.22922266 22.3438086,6.8509082 22.8103613,6.8509082 L25.3448672,6.8509082 C25.8114199,6.8509082 26.1897344,7.22922266 26.1897344,7.69577539 C26.1896387,8.16242383 25.8114199,8.54064258 25.3448672,8.54064258 Z" id="Shape" fill="#C7CFE2"></path>
            <g id="Group" transform="translate(27.849609, 6.794922)" fill="#EFF2FA">
                <path d="M2.56417383,1.7457207 L0.874535156,1.7457207 C0.407982422,1.7457207 0.0296679688,1.36740625 0.0296679688,0.900853516 C0.0296679688,0.434300781 0.407982422,0.0559863281 0.874535156,0.0559863281 L2.56417383,0.0559863281 C3.03072656,0.0559863281 3.40904102,0.434300781 3.40904102,0.900853516 C3.40904102,1.36750195 3.03072656,1.7457207 2.56417383,1.7457207 Z" id="Shape"></path>
                <path d="M7.63318555,1.7457207 L5.94354688,1.7457207 C5.47699414,1.7457207 5.09867969,1.36740625 5.09867969,0.900853516 C5.09867969,0.434300781 5.47699414,0.0559863281 5.94354688,0.0559863281 L7.63318555,0.0559863281 C8.09973828,0.0559863281 8.47805273,0.434300781 8.47805273,0.900853516 C8.47795703,1.36750195 8.09973828,1.7457207 7.63318555,1.7457207 Z" id="Shape"></path>
            </g>
            <g id="Group" transform="translate(0.000000, 6.794922)" fill="#C7CFE2">
                <path d="M41.3965781,1.7457207 L38.8620723,1.7457207 C38.3955195,1.7457207 38.0172051,1.36740625 38.0172051,0.900853516 C38.0172051,0.434300781 38.3955195,0.0559863281 38.8620723,0.0559863281 L41.3965781,0.0559863281 C41.8631309,0.0559863281 42.2414453,0.434300781 42.2414453,0.900853516 C42.2413496,1.36750195 41.8631309,1.7457207 41.3965781,1.7457207 Z" id="Shape"></path>
                <path d="M46.4654941,1.7457207 L44.7758555,1.7457207 C44.3093027,1.7457207 43.9309883,1.36740625 43.9309883,0.900853516 C43.9309883,0.434300781 44.3093027,0.0559863281 44.7758555,0.0559863281 L46.4654941,0.0559863281 C46.9320469,0.0559863281 47.3103613,0.434300781 47.3103613,0.900853516 C47.3103613,1.36750195 46.9320469,1.7457207 46.4654941,1.7457207 Z" id="Shape"></path>
                <rect id="Rectangle-path" x="0" y="3.43545508" width="49" height="1.68963867"></rect>
            </g>
            <g id="Group" transform="translate(8.421875, 13.589844)" fill="#8F96AC">
                <path d="M17.7677637,2.55431641 L14.3884863,2.55431641 C13.9219336,2.55431641 13.5436191,2.17600195 13.5436191,1.70944922 L13.5436191,0.864582031 C13.5436191,0.398029297 13.9219336,0.0197148437 14.3884863,0.0197148437 L17.7677637,0.0197148437 C18.2343164,0.0197148437 18.6126309,0.398029297 18.6126309,0.864582031 L18.6126309,1.70944922 C18.6126309,2.17600195 18.2343164,2.55431641 17.7677637,2.55431641 Z" id="Shape"></path>
                <path d="M4.25055859,2.55431641 L0.87128125,2.55431641 C0.404728516,2.55431641 0.0264140625,2.17600195 0.0264140625,1.70944922 L0.0264140625,0.864582031 C0.0264140625,0.398029297 0.404728516,0.0197148437 0.87128125,0.0197148437 L4.25055859,0.0197148437 C4.71711133,0.0197148437 5.09542578,0.398029297 5.09542578,0.864582031 L5.09542578,1.70944922 C5.09533008,2.17600195 4.71711133,2.55431641 4.25055859,2.55431641 Z" id="Shape"></path>
            </g>
            <path d="M5.9137832,16.1441602 L2.53450586,16.1441602 C2.06795312,16.1441602 1.68963867,15.7658457 1.68963867,15.299293 L1.68963867,14.4544258 C1.68963867,13.987873 2.06795312,13.6095586 2.53450586,13.6095586 L5.9137832,13.6095586 C6.38033594,13.6095586 6.75865039,13.987873 6.75865039,14.4544258 L6.75865039,15.299293 C6.75865039,15.7658457 6.38033594,16.1441602 5.9137832,16.1441602 Z" id="Shape" fill="#D7DEED"></path>
            <g id="Group" transform="translate(15.121094, 13.589844)" fill="#8F96AC">
                <path d="M4.30989453,2.55431641 L0.930617187,2.55431641 C0.464064453,2.55431641 0.08575,2.17600195 0.08575,1.70944922 L0.08575,0.864582031 C0.08575,0.398029297 0.464064453,0.0197148437 0.930617187,0.0197148437 L4.30989453,0.0197148437 C4.77644727,0.0197148437 5.15476172,0.398029297 5.15476172,0.864582031 L5.15476172,1.70944922 C5.15476172,2.17600195 4.77654297,2.55431641 4.30989453,2.55431641 Z" id="Shape"></path>
                <path d="M24.5858457,2.55431641 L21.2065684,2.55431641 C20.7400156,2.55431641 20.3617012,2.17600195 20.3617012,1.70944922 L20.3617012,0.864582031 C20.3617012,0.398029297 20.7400156,0.0197148437 21.2065684,0.0197148437 L24.5858457,0.0197148437 C25.0523984,0.0197148437 25.4307129,0.398029297 25.4307129,0.864582031 L25.4307129,1.70944922 C25.4306172,2.17600195 25.0523984,2.55431641 24.5858457,2.55431641 Z" id="Shape"></path>
                <path d="M17.8271953,2.55431641 L14.447918,2.55431641 C13.9813652,2.55431641 13.6030508,2.17600195 13.6030508,1.70944922 L13.6030508,0.864582031 C13.6030508,0.398029297 13.9813652,0.0197148437 14.447918,0.0197148437 L17.8271953,0.0197148437 C18.293748,0.0197148437 18.6720625,0.398029297 18.6720625,0.864582031 L18.6720625,1.70944922 C18.6719668,2.17600195 18.293748,2.55431641 17.8271953,2.55431641 Z" id="Shape"></path>
                <path d="M31.3444004,2.55431641 L27.965123,2.55431641 C27.4985703,2.55431641 27.1202559,2.17600195 27.1202559,1.70944922 L27.1202559,0.864582031 C27.1202559,0.398029297 27.4985703,0.0197148437 27.965123,0.0197148437 L31.3444004,0.0197148437 C31.8109531,0.0197148437 32.1892676,0.398029297 32.1892676,0.864582031 L32.1892676,1.70944922 C32.1892676,2.17600195 31.8109531,2.55431641 31.3444004,2.55431641 Z" id="Shape"></path>
            </g>
            <g id="Group" transform="translate(8.421875, 17.800781)" fill="#D7DEED">
                <path d="M17.7677637,2.56752344 L14.3884863,2.56752344 C13.9219336,2.56752344 13.5436191,2.18920898 13.5436191,1.72265625 L13.5436191,0.877789062 C13.5436191,0.411236328 13.9219336,0.032921875 14.3884863,0.032921875 L17.7677637,0.032921875 C18.2343164,0.032921875 18.6126309,0.411236328 18.6126309,0.877789062 L18.6126309,1.72265625 C18.6126309,2.18920898 18.2343164,2.56752344 17.7677637,2.56752344 Z" id="Shape"></path>
                <path d="M4.25055859,2.56752344 L0.87128125,2.56752344 C0.404728516,2.56752344 0.0264140625,2.18920898 0.0264140625,1.72265625 L0.0264140625,0.877789062 C0.0264140625,0.411236328 0.404728516,0.032921875 0.87128125,0.032921875 L4.25055859,0.032921875 C4.71711133,0.032921875 5.09542578,0.411236328 5.09542578,0.877789062 L5.09542578,1.72265625 C5.09533008,2.18920898 4.71711133,2.56752344 4.25055859,2.56752344 Z" id="Shape"></path>
            </g>
            <path d="M5.9137832,20.3683047 L2.53450586,20.3683047 C2.06795312,20.3683047 1.68963867,19.9899902 1.68963867,19.5234375 L1.68963867,18.6785703 C1.68963867,18.2120176 2.06795312,17.8337031 2.53450586,17.8337031 L5.9137832,17.8337031 C6.38033594,17.8337031 6.75865039,18.2120176 6.75865039,18.6785703 L6.75865039,19.5234375 C6.75865039,19.9899902 6.38033594,20.3683047 5.9137832,20.3683047 Z" id="Shape" fill="#C3E678"></path>
            <g id="Group" transform="translate(8.421875, 17.800781)" fill="#D7DEED">
                <path d="M11.0091133,2.56752344 L7.62983594,2.56752344 C7.1632832,2.56752344 6.78496875,2.18920898 6.78496875,1.72265625 L6.78496875,0.877789062 C6.78496875,0.411236328 7.1632832,0.032921875 7.62983594,0.032921875 L11.0091133,0.032921875 C11.475666,0.032921875 11.8539805,0.411236328 11.8539805,0.877789062 L11.8539805,1.72265625 C11.8539805,2.18920898 11.4757617,2.56752344 11.0091133,2.56752344 Z" id="Shape"></path>
                <path d="M31.2850645,2.56752344 L27.9057871,2.56752344 C27.4392344,2.56752344 27.0609199,2.18920898 27.0609199,1.72265625 L27.0609199,0.877789062 C27.0609199,0.411236328 27.4392344,0.032921875 27.9057871,0.032921875 L31.2850645,0.032921875 C31.7516172,0.032921875 32.1299316,0.411236328 32.1299316,0.877789062 L32.1299316,1.72265625 C32.1298359,2.18920898 31.7516172,2.56752344 31.2850645,2.56752344 Z" id="Shape"></path>
                <path d="M24.5264141,2.56752344 L21.1471367,2.56752344 C20.680584,2.56752344 20.3022695,2.18920898 20.3022695,1.72265625 L20.3022695,0.877789062 C20.3022695,0.411236328 20.680584,0.032921875 21.1471367,0.032921875 L24.5264141,0.032921875 C24.9929668,0.032921875 25.3712813,0.411236328 25.3712813,0.877789062 L25.3712813,1.72265625 C25.3711855,2.18920898 24.9929668,2.56752344 24.5264141,2.56752344 Z" id="Shape"></path>
                <path d="M38.0436191,2.56752344 L34.6643418,2.56752344 C34.1977891,2.56752344 33.8194746,2.18920898 33.8194746,1.72265625 L33.8194746,0.877789062 C33.8194746,0.411236328 34.1977891,0.032921875 34.6643418,0.032921875 L38.0436191,0.032921875 C38.5101719,0.032921875 38.8884863,0.411236328 38.8884863,0.877789062 L38.8884863,1.72265625 C38.8884863,2.18920898 38.5101719,2.56752344 38.0436191,2.56752344 Z" id="Shape"></path>
                <path d="M17.7677637,6.79166797 L14.3884863,6.79166797 C13.9219336,6.79166797 13.5436191,6.41335352 13.5436191,5.94680078 L13.5436191,5.10193359 C13.5436191,4.63538086 13.9219336,4.25706641 14.3884863,4.25706641 L17.7677637,4.25706641 C18.2343164,4.25706641 18.6126309,4.63538086 18.6126309,5.10193359 L18.6126309,5.94680078 C18.6126309,6.41335352 18.2343164,6.79166797 17.7677637,6.79166797 Z" id="Shape"></path>
                <path d="M4.25055859,6.79166797 L0.87128125,6.79166797 C0.404728516,6.79166797 0.0264140625,6.41335352 0.0264140625,5.94680078 L0.0264140625,5.10193359 C0.0264140625,4.63538086 0.404728516,4.25706641 0.87128125,4.25706641 L4.25055859,4.25706641 C4.71711133,4.25706641 5.09542578,4.63538086 5.09542578,5.10193359 L5.09542578,5.94680078 C5.09533008,6.41335352 4.71711133,6.79166797 4.25055859,6.79166797 Z" id="Shape"></path>
            </g>
            <path d="M5.9137832,24.5924492 L2.53450586,24.5924492 C2.06795312,24.5924492 1.68963867,24.2141348 1.68963867,23.747582 L1.68963867,22.9027148 C1.68963867,22.4361621 2.06795312,22.0578477 2.53450586,22.0578477 L5.9137832,22.0578477 C6.38033594,22.0578477 6.75865039,22.4361621 6.75865039,22.9027148 L6.75865039,23.747582 C6.75865039,24.2141348 6.38033594,24.5924492 5.9137832,24.5924492 Z" id="Shape" fill="#C3E678"></path>
            <g id="Group" transform="translate(8.421875, 22.011719)" fill="#D7DEED">
                <path d="M11.0091133,2.58073047 L7.62983594,2.58073047 C7.1632832,2.58073047 6.78496875,2.20241602 6.78496875,1.73586328 L6.78496875,0.890996094 C6.78496875,0.424443359 7.1632832,0.0461289063 7.62983594,0.0461289063 L11.0091133,0.0461289063 C11.475666,0.0461289063 11.8539805,0.424443359 11.8539805,0.890996094 L11.8539805,1.73586328 C11.8539805,2.20241602 11.4757617,2.58073047 11.0091133,2.58073047 Z" id="Shape"></path>
                <path d="M31.2850645,2.58073047 L27.9057871,2.58073047 C27.4392344,2.58073047 27.0609199,2.20241602 27.0609199,1.73586328 L27.0609199,0.890996094 C27.0609199,0.424443359 27.4392344,0.0461289063 27.9057871,0.0461289063 L31.2850645,0.0461289063 C31.7516172,0.0461289063 32.1299316,0.424443359 32.1299316,0.890996094 L32.1299316,1.73586328 C32.1298359,2.20241602 31.7516172,2.58073047 31.2850645,2.58073047 Z" id="Shape"></path>
                <path d="M24.5264141,2.58073047 L21.1471367,2.58073047 C20.680584,2.58073047 20.3022695,2.20241602 20.3022695,1.73586328 L20.3022695,0.890996094 C20.3022695,0.424443359 20.680584,0.0461289063 21.1471367,0.0461289063 L24.5264141,0.0461289063 C24.9929668,0.0461289063 25.3712813,0.424443359 25.3712813,0.890996094 L25.3712813,1.73586328 C25.3711855,2.20241602 24.9929668,2.58073047 24.5264141,2.58073047 Z" id="Shape"></path>
                <path d="M38.0436191,2.58073047 L34.6643418,2.58073047 C34.1977891,2.58073047 33.8194746,2.20241602 33.8194746,1.73586328 L33.8194746,0.890996094 C33.8194746,0.424443359 34.1977891,0.0461289063 34.6643418,0.0461289063 L38.0436191,0.0461289063 C38.5101719,0.0461289063 38.8884863,0.424443359 38.8884863,0.890996094 L38.8884863,1.73586328 C38.8884863,2.20241602 38.5101719,2.58073047 38.0436191,2.58073047 Z" id="Shape"></path>
                <path d="M17.7677637,6.8047793 L14.3884863,6.8047793 C13.9219336,6.8047793 13.5436191,6.42646484 13.5436191,5.95991211 L13.5436191,5.11504492 C13.5436191,4.64849219 13.9219336,4.27017773 14.3884863,4.27017773 L17.7677637,4.27017773 C18.2343164,4.27017773 18.6126309,4.64849219 18.6126309,5.11504492 L18.6126309,5.95991211 C18.6126309,6.42656055 18.2343164,6.8047793 17.7677637,6.8047793 Z" id="Shape"></path>
                <path d="M4.25055859,6.8047793 L0.87128125,6.8047793 C0.404728516,6.8047793 0.0264140625,6.42646484 0.0264140625,5.95991211 L0.0264140625,5.11504492 C0.0264140625,4.64849219 0.404728516,4.27017773 0.87128125,4.27017773 L4.25055859,4.27017773 C4.71711133,4.27017773 5.09542578,4.64849219 5.09542578,5.11504492 L5.09542578,5.95991211 C5.09533008,6.42656055 4.71711133,6.8047793 4.25055859,6.8047793 Z" id="Shape"></path>
            </g>
            <path d="M5.9137832,28.816498 L2.53450586,28.816498 C2.06795312,28.816498 1.68963867,28.4381836 1.68963867,27.9716309 L1.68963867,27.1267637 C1.68963867,26.6602109 2.06795312,26.2818965 2.53450586,26.2818965 L5.9137832,26.2818965 C6.38033594,26.2818965 6.75865039,26.6602109 6.75865039,27.1267637 L6.75865039,27.9716309 C6.75865039,28.4382793 6.38033594,28.816498 5.9137832,28.816498 Z" id="Shape" fill="#C3E678"></path>
            <g id="Group" transform="translate(8.421875, 26.222656)" fill="#D7DEED">
                <path d="M11.0091133,2.5938418 L7.62983594,2.5938418 C7.1632832,2.5938418 6.78496875,2.21552734 6.78496875,1.74897461 L6.78496875,0.904107422 C6.78496875,0.437554688 7.1632832,0.0592402344 7.62983594,0.0592402344 L11.0091133,0.0592402344 C11.475666,0.0592402344 11.8539805,0.437554688 11.8539805,0.904107422 L11.8539805,1.74897461 C11.8539805,2.21562305 11.4757617,2.5938418 11.0091133,2.5938418 Z" id="Shape"></path>
                <path d="M31.2850645,2.5938418 L27.9057871,2.5938418 C27.4392344,2.5938418 27.0609199,2.21552734 27.0609199,1.74897461 L27.0609199,0.904107422 C27.0609199,0.437554688 27.4392344,0.0592402344 27.9057871,0.0592402344 L31.2850645,0.0592402344 C31.7516172,0.0592402344 32.1299316,0.437554688 32.1299316,0.904107422 L32.1299316,1.74897461 C32.1298359,2.21562305 31.7516172,2.5938418 31.2850645,2.5938418 Z" id="Shape"></path>
                <path d="M24.5264141,2.5938418 L21.1471367,2.5938418 C20.680584,2.5938418 20.3022695,2.21552734 20.3022695,1.74897461 L20.3022695,0.904107422 C20.3022695,0.437554688 20.680584,0.0592402344 21.1471367,0.0592402344 L24.5264141,0.0592402344 C24.9929668,0.0592402344 25.3712813,0.437554688 25.3712813,0.904107422 L25.3712813,1.74897461 C25.3711855,2.21562305 24.9929668,2.5938418 24.5264141,2.5938418 Z" id="Shape"></path>
                <path d="M38.0436191,2.5938418 L34.6643418,2.5938418 C34.1977891,2.5938418 33.8194746,2.21552734 33.8194746,1.74897461 L33.8194746,0.904107422 C33.8194746,0.437554688 34.1977891,0.0592402344 34.6643418,0.0592402344 L38.0436191,0.0592402344 C38.5101719,0.0592402344 38.8884863,0.437554688 38.8884863,0.904107422 L38.8884863,1.74897461 C38.8884863,2.21562305 38.5101719,2.5938418 38.0436191,2.5938418 Z" id="Shape"></path>
                <path d="M17.7677637,6.81798633 L14.3884863,6.81798633 C13.9219336,6.81798633 13.5436191,6.43967188 13.5436191,5.97311914 L13.5436191,5.12825195 C13.5436191,4.66169922 13.9219336,4.28338477 14.3884863,4.28338477 L17.7677637,4.28338477 C18.2343164,4.28338477 18.6126309,4.66169922 18.6126309,5.12825195 L18.6126309,5.97311914 C18.6126309,6.43976758 18.2343164,6.81798633 17.7677637,6.81798633 Z" id="Shape"></path>
                <path d="M4.25055859,6.81798633 L0.87128125,6.81798633 C0.404728516,6.81798633 0.0264140625,6.43967188 0.0264140625,5.97311914 L0.0264140625,5.12825195 C0.0264140625,4.66169922 0.404728516,4.28338477 0.87128125,4.28338477 L4.25055859,4.28338477 C4.71711133,4.28338477 5.09542578,4.66169922 5.09542578,5.12825195 L5.09542578,5.97311914 C5.09533008,6.43976758 4.71711133,6.81798633 4.25055859,6.81798633 Z" id="Shape"></path>
            </g>
            <path d="M5.9137832,33.0406426 L2.53450586,33.0406426 C2.06795312,33.0406426 1.68963867,32.6623281 1.68963867,32.1957754 L1.68963867,31.3509082 C1.68963867,30.8843555 2.06795312,30.506041 2.53450586,30.506041 L5.9137832,30.506041 C6.38033594,30.506041 6.75865039,30.8843555 6.75865039,31.3509082 L6.75865039,32.1957754 C6.75865039,32.6624238 6.38033594,33.0406426 5.9137832,33.0406426 Z" id="Shape" fill="#C3E678"></path>
            <g id="Group" transform="translate(8.421875, 30.433594)" fill="#D7DEED">
                <path d="M11.0091133,2.60704883 L7.62983594,2.60704883 C7.1632832,2.60704883 6.78496875,2.22873438 6.78496875,1.76218164 L6.78496875,0.917314453 C6.78496875,0.450761719 7.1632832,0.0724472656 7.62983594,0.0724472656 L11.0091133,0.0724472656 C11.475666,0.0724472656 11.8539805,0.450761719 11.8539805,0.917314453 L11.8539805,1.76218164 C11.8539805,2.22883008 11.4757617,2.60704883 11.0091133,2.60704883 Z" id="Shape"></path>
                <path d="M31.2850645,2.60704883 L27.9057871,2.60704883 C27.4392344,2.60704883 27.0609199,2.22873438 27.0609199,1.76218164 L27.0609199,0.917314453 C27.0609199,0.450761719 27.4392344,0.0724472656 27.9057871,0.0724472656 L31.2850645,0.0724472656 C31.7516172,0.0724472656 32.1299316,0.450761719 32.1299316,0.917314453 L32.1299316,1.76218164 C32.1298359,2.22883008 31.7516172,2.60704883 31.2850645,2.60704883 Z" id="Shape"></path>
                <path d="M24.5264141,2.60704883 L21.1471367,2.60704883 C20.680584,2.60704883 20.3022695,2.22873438 20.3022695,1.76218164 L20.3022695,0.917314453 C20.3022695,0.450761719 20.680584,0.0724472656 21.1471367,0.0724472656 L24.5264141,0.0724472656 C24.9929668,0.0724472656 25.3712813,0.450761719 25.3712813,0.917314453 L25.3712813,1.76218164 C25.3711855,2.22883008 24.9929668,2.60704883 24.5264141,2.60704883 Z" id="Shape"></path>
                <path d="M38.0436191,2.60704883 L34.6643418,2.60704883 C34.1977891,2.60704883 33.8194746,2.22873438 33.8194746,1.76218164 L33.8194746,0.917314453 C33.8194746,0.450761719 34.1977891,0.0724472656 34.6643418,0.0724472656 L38.0436191,0.0724472656 C38.5101719,0.0724472656 38.8884863,0.450761719 38.8884863,0.917314453 L38.8884863,1.76218164 C38.8884863,2.22883008 38.5101719,2.60704883 38.0436191,2.60704883 Z" id="Shape"></path>
                <path d="M17.7677637,6.83119336 L14.3884863,6.83119336 C13.9219336,6.83119336 13.5436191,6.45287891 13.5436191,5.98632617 L13.5436191,5.14145898 C13.5436191,4.67490625 13.9219336,4.2965918 14.3884863,4.2965918 L17.7677637,4.2965918 C18.2343164,4.2965918 18.6126309,4.67490625 18.6126309,5.14145898 L18.6126309,5.98632617 C18.6126309,6.45297461 18.2343164,6.83119336 17.7677637,6.83119336 Z" id="Shape"></path>
                <path d="M4.25055859,6.83119336 L0.87128125,6.83119336 C0.404728516,6.83119336 0.0264140625,6.45287891 0.0264140625,5.98632617 L0.0264140625,5.14145898 C0.0264140625,4.67490625 0.404728516,4.2965918 0.87128125,4.2965918 L4.25055859,4.2965918 C4.71711133,4.2965918 5.09542578,4.67490625 5.09542578,5.14145898 L5.09542578,5.98632617 C5.09533008,6.45297461 4.71711133,6.83119336 4.25055859,6.83119336 Z" id="Shape"></path>
            </g>
            <path d="M5.9137832,37.2647871 L2.53450586,37.2647871 C2.06795312,37.2647871 1.68963867,36.8864727 1.68963867,36.4199199 L1.68963867,35.5750527 C1.68963867,35.1085 2.06795312,34.7301855 2.53450586,34.7301855 L5.9137832,34.7301855 C6.38033594,34.7301855 6.75865039,35.1085 6.75865039,35.5750527 L6.75865039,36.4199199 C6.75865039,36.8865684 6.38033594,37.2647871 5.9137832,37.2647871 Z" id="Shape" fill="#C3E678"></path>
            <g id="Group" transform="translate(15.121094, 34.644531)" fill="#D7DEED">
                <path d="M4.30989453,2.62025586 L0.930617187,2.62025586 C0.464064453,2.62025586 0.08575,2.24194141 0.08575,1.77538867 L0.08575,0.930521484 C0.08575,0.46396875 0.464064453,0.0856542969 0.930617187,0.0856542969 L4.30989453,0.0856542969 C4.77644727,0.0856542969 5.15476172,0.46396875 5.15476172,0.930521484 L5.15476172,1.77538867 C5.15476172,2.24203711 4.77654297,2.62025586 4.30989453,2.62025586 Z" id="Shape"></path>
                <path d="M24.5858457,2.62025586 L21.2065684,2.62025586 C20.7400156,2.62025586 20.3617012,2.24194141 20.3617012,1.77538867 L20.3617012,0.930521484 C20.3617012,0.46396875 20.7400156,0.0856542969 21.2065684,0.0856542969 L24.5858457,0.0856542969 C25.0523984,0.0856542969 25.4307129,0.46396875 25.4307129,0.930521484 L25.4307129,1.77538867 C25.4306172,2.24203711 25.0523984,2.62025586 24.5858457,2.62025586 Z" id="Shape"></path>
                <path d="M17.8271953,2.62025586 L14.447918,2.62025586 C13.9813652,2.62025586 13.6030508,2.24194141 13.6030508,1.77538867 L13.6030508,0.930521484 C13.6030508,0.46396875 13.9813652,0.0856542969 14.447918,0.0856542969 L17.8271953,0.0856542969 C18.293748,0.0856542969 18.6720625,0.46396875 18.6720625,0.930521484 L18.6720625,1.77538867 C18.6719668,2.24203711 18.293748,2.62025586 17.8271953,2.62025586 Z" id="Shape"></path>
                <path d="M31.3444004,2.62025586 L27.965123,2.62025586 C27.4985703,2.62025586 27.1202559,2.24194141 27.1202559,1.77538867 L27.1202559,0.930521484 C27.1202559,0.46396875 27.4985703,0.0856542969 27.965123,0.0856542969 L31.3444004,0.0856542969 C31.8109531,0.0856542969 32.1892676,0.46396875 32.1892676,0.930521484 L32.1892676,1.77538867 C32.1892676,2.24203711 31.8109531,2.62025586 31.3444004,2.62025586 Z" id="Shape"></path>
            </g>
        </g>
    </g>
</svg>