<?xml version="1.0" encoding="UTF-8"?>
<svg width="73px" height="73px" viewBox="0 0 73 73" version="1.1" xmlns="http://www.w3.org/2000/svg" xmlns:xlink="http://www.w3.org/1999/xlink">
    <!-- Generator: Sketch 51.3 (57544) - http://www.bohemiancoding.com/sketch -->
    <title>algorithms-and-data-structures/data-structures/linked-lists</title>
    <desc>Created with Sketch.</desc>
    <defs></defs>
    <g id="algorithms-and-data-structures/data-structures/linked-lists" stroke="none" stroke-width="1" fill="none" fill-rule="evenodd">
        <g id="container" transform="translate(2.000000, 2.000000)" fill="#FFFFFF" fill-rule="nonzero" stroke="#494B5B" stroke-width="2">
            <rect id="mask" x="-1" y="-1" width="71" height="71" rx="14"></rect>
        </g>
        <g id="handcuffs" transform="translate(15.000000, 15.000000)" fill-rule="nonzero">
            <g id="Group" transform="translate(7.795021, 7.795021)" fill="#494B5B">
                <path d="M2.63240426,11.2847061 C1.1845862,11.2847061 0.00668144648,10.1068014 0.00668144648,8.65898332 C0.00668144648,7.21116527 1.1845862,6.03326052 2.63240426,6.03326052 C4.08022231,6.03326052 5.25812706,7.21116527 5.25812706,8.65898332 C5.25812706,10.1068014 4.08022231,11.2847061 2.63240426,11.2847061 Z M2.63240426,7.37563164 C1.92477054,7.37563164 1.34905257,7.95134961 1.34905257,8.65898332 C1.34905257,9.36661703 1.92477054,9.94233501 2.63240426,9.94233501 C3.34003797,9.94233501 3.91575594,9.36661703 3.91575594,8.65898332 C3.91575594,7.95134961 3.34003797,7.37563164 2.63240426,7.37563164 Z" id="Shape"></path>
                <path d="M2.63240426,7.83939256 C1.1845862,7.83939256 0.00668144648,6.6614878 0.00668144648,5.21366975 C0.00668144648,3.76585169 1.1845862,2.58794694 2.63240426,2.58794694 C4.08022231,2.58794694 5.25812706,3.76585169 5.25812706,5.21366975 C5.25812706,6.6614878 4.08022231,7.83939256 2.63240426,7.83939256 Z M2.63240426,3.93023241 C1.92477054,3.93023241 1.34905257,4.50595038 1.34905257,5.21358409 C1.34905257,5.9212178 1.92477054,6.49693577 2.63240426,6.49693577 C3.34003797,6.49693577 3.91575594,5.9212178 3.91575594,5.21358409 C3.91575594,4.50595038 3.34003797,3.93023241 2.63240426,3.93023241 Z" id="Shape"></path>
                <path d="M5.21641085,5.2553003 C3.7685928,5.2553003 2.59068804,4.07739555 2.59068804,2.62957749 C2.59068804,1.18175943 3.7685928,0.00385468066 5.21641085,0.00385468066 C6.66422891,0.00385468066 7.84213366,1.18175943 7.84213366,2.62957749 C7.84213366,4.07739555 6.66431457,5.2553003 5.21641085,5.2553003 Z M5.21641085,1.34622581 C4.50877714,1.34622581 3.93305917,1.92194378 3.93305917,2.62957749 C3.93305917,3.3372112 4.50877714,3.91292917 5.21641085,3.91292917 C5.92404456,3.91292917 6.49976254,3.3372112 6.49976254,2.62957749 C6.49976254,1.92194378 5.92413022,1.34622581 5.21641085,1.34622581 Z" id="Shape"></path>
                <path d="M8.66172443,5.2553003 C7.21390637,5.2553003 6.03600162,4.07739555 6.03600162,2.62957749 C6.03600162,1.18175943 7.21390637,0.00385468066 8.66172443,0.00385468066 C10.1095425,0.00385468066 11.2874472,1.18175943 11.2874472,2.62957749 C11.2874472,4.07739555 10.1096281,5.2553003 8.66172443,5.2553003 Z M8.66172443,1.34622581 C7.95409072,1.34622581 7.37837275,1.92194378 7.37837275,2.62957749 C7.37837275,3.3372112 7.95409072,3.91292917 8.66172443,3.91292917 C9.36935814,3.91292917 9.94507611,3.3372112 9.94507611,2.62957749 C9.94507611,1.92194378 9.3694438,1.34622581 8.66172443,1.34622581 Z" id="Shape"></path>
            </g>
            <path d="M33.1966812,0.00453995723 C30.8599738,-0.0634737416 28.692444,0.636364948 26.9231456,1.86960578 C26.9213467,1.87226123 26.9195479,1.87320348 26.917749,1.87406008 C26.5284263,2.14791373 26.0836818,2.33045427 25.6128968,2.40386452 L20.3730152,3.22628206 C19.2399961,3.4043683 18.4059289,4.37900289 18.4059289,5.52452833 L18.4059289,15.3241545 C18.4059289,16.4705365 19.2399961,17.4451711 20.3730152,17.6232574 L25.0285272,18.3526486 C25.2979266,18.3947074 25.5359745,17.9946773 25.7247682,18.1459521 C27.509314,19.5778374 30.4151436,20.8486828 32.8816253,20.8486828 C38.2083657,20.8486828 42.6025303,16.8518929 43.2281022,11.6943302 L43.2289588,9.15443828 C42.622232,4.0827921 38.4196022,0.158470205 33.1966812,0.00453995723 Z M32.8816253,17.3718465 C29.0450188,17.3718465 25.9342058,14.2618902 25.9342058,10.4244271 C25.9342058,6.58782057 29.0450188,3.47700762 32.8816253,3.47700762 C36.7182318,3.47700762 39.8290447,6.58782057 39.8290447,10.4244271 C39.8291304,14.2618902 36.7183175,17.3718465 32.8816253,17.3718465 Z" id="Shape" fill="#FFD15C"></path>
            <circle id="Oval" fill="#F4A14E" cx="41.8443575" cy="10.4242557" r="2.01060143"></circle>
            <path d="M18.9822464,26.9253727 C18.979591,26.9235739 18.9786487,26.921775 18.9777921,26.9199762 C18.7039385,26.5306534 18.521398,26.0859089 18.4479877,25.6151239 L17.6255702,20.3752424 C17.4474839,19.2422232 16.4728493,18.408156 15.3273239,18.408156 L5.52769773,18.408156 C4.3813157,18.408156 3.40668111,19.2422232 3.22859486,20.3752424 L2.49920362,25.0307544 C2.45714477,25.3001537 2.85717497,25.5382017 2.70590017,25.7269953 C1.99535403,26.6121157 1.32498223,27.7728029 0.829184641,29.0203488 C0.326191644,30.2866543 0.0031694041,31.6407608 0.0031694041,32.8838524 C0.0031694041,38.2105928 3.9999593,42.6047575 9.15752202,43.2303293 L11.6974139,43.2311859 C16.7690601,42.6243735 20.693382,38.4217437 20.8473123,33.1989083 C20.915326,30.8622009 20.2154873,28.6946712 18.9822464,26.9253727 Z M10.4275108,39.8313576 C6.58996206,39.8313576 3.48009136,36.7205446 3.48009136,32.8839381 C3.48009136,31.4547082 3.91232955,30.1248433 4.6533705,29.0204345 C5.89911763,27.1607652 8.02013425,25.936433 10.4275108,25.936433 C14.2641173,25.936433 17.3749303,29.047246 17.3749303,32.8838524 C17.3749303,36.7204589 14.2641173,39.8313576 10.4275108,39.8313576 Z" id="Shape" fill="#FFD15C"></path>
            <circle id="Oval" fill="#F4A14E" cx="10.4273395" cy="41.8475269" r="2.01060143"></circle>
            <g id="Group" transform="translate(13.705531, 13.705531)" fill="#494B5B">
                <path d="M8.14322705,1.3475107 C7.5466938,1.3475107 7.24380156,0.581885461 7.69197244,0.178771523 C7.90877681,-0.0163609779 8.23693862,-0.0495968912 8.48757852,0.100393016 C8.73239358,0.246870882 8.86131123,0.54428091 8.79723787,0.822931492 C8.72793928,1.12479582 8.45502789,1.3475107 8.14322705,1.3475107 Z" id="Shape"></path>
                <path d="M0.678509456,8.81128604 C0.0728106348,8.81128604 -0.217746628,8.03880804 0.232822712,7.63860652 C0.692129328,7.23069565 1.43085746,7.63338129 1.34245679,8.2371956 C1.29465875,8.56295895 1.00847012,8.81128604 0.678509456,8.81128604 Z" id="Shape"></path>
            </g>
            <g id="Group" transform="translate(0.770936, 10.364808)" fill="#EDBB4C">
                <path d="M9.65657468,15.571625 C7.24919812,15.571625 5.1281815,16.7958716 3.88243436,18.6556265 L0.0583341674,18.6556265 C0.55413176,17.4080805 1.2244179,16.2473077 1.93504969,15.362273 L9.65657468,15.571625 Z" id="Shape"></path>
                <path d="M25.1632697,0.0595334014 C25.1632697,2.46690997 26.3875163,4.58792659 28.2472712,5.83367372 L28.2472712,9.65777391 C26.9997252,9.16197632 25.8389524,8.49169018 24.9539177,7.78105839 L25.1632697,0.0595334014 Z" id="Shape"></path>
            </g>
        </g>
    </g>
</svg>