<?xml version="1.0" encoding="UTF-8"?>
<svg width="73px" height="73px" viewBox="0 0 73 73" version="1.1" xmlns="http://www.w3.org/2000/svg" xmlns:xlink="http://www.w3.org/1999/xlink">
    <!-- Generator: Sketch 51.3 (57544) - http://www.bohemiancoding.com/sketch -->
    <title>algorithms-and-data-structures/data-structures/trees</title>
    <desc>Created with Sketch.</desc>
    <defs></defs>
    <g id="algorithms-and-data-structures/data-structures/trees" stroke="none" stroke-width="1" fill="none" fill-rule="evenodd">
        <g id="container" transform="translate(2.000000, 2.000000)" fill="#FFFFFF" fill-rule="nonzero" stroke="#412102" stroke-width="2">
            <rect id="mask" x="-1" y="-1" width="71" height="71" rx="14"></rect>
        </g>
        <g id="tree-(2)" transform="translate(16.000000, 13.000000)" fill-rule="nonzero">
            <path d="M41.3923879,21.678255 C41.3923879,18.4519143 39.4303388,15.6838658 36.6344412,14.50213 C37.128153,13.5476927 37.4088062,12.4650958 37.4088062,11.3163462 C37.4088062,7.48048146 34.2992692,4.37094445 30.4634045,4.37094445 C29.3705332,4.37094445 28.3370551,4.62410918 27.4172263,5.07374921 C26.5999612,2.14743894 23.9160906,0 20.729045,0 C17.5419994,0 14.858219,2.14743894 14.0408637,5.07374921 C13.1210349,4.62401906 12.0875568,4.37094445 10.9946855,4.37094445 C7.15882075,4.37094445 4.04928375,7.48048146 4.04928375,11.3163462 C4.04928375,12.4650958 4.32984687,13.5476927 4.82364877,14.50213 C2.02775123,15.683956 0.06570206,18.4519143 0.06570206,21.678255 C0.06570206,25.8594836 3.36216097,29.2665275 7.4974252,29.4529988 C8.07396303,31.5412247 10.3003526,33.097976 12.9610607,33.097976 C14.4690537,33.097976 15.8369904,32.5971443 16.8450529,31.7838447 C17.8532054,32.5971443 19.2211422,33.097976 20.729045,33.097976 C22.2369478,33.097976 23.6049747,32.5971443 24.6130371,31.7838447 C25.6211897,32.5971443 26.9891265,33.097976 28.4970293,33.097976 C31.1577374,33.097976 33.384127,31.5412247 33.9606648,29.4529087 C38.095929,29.2664374 41.3923879,25.8594836 41.3923879,21.678255 Z" id="Shape" fill="#129B12"></path>
            <g id="Group" transform="translate(19.287024, 0.000000)" fill="#097C09">
                <path d="M1.02536672,0.0137893212 C0.939836875,0.0189265193 0.854667538,0.0250551066 0.770038959,0.0333467246 C0.744082589,0.0358702605 0.718306472,0.0387543015 0.692530356,0.0415482163 C0.601592936,0.0513719811 0.511106149,0.0627278927 0.421250245,0.0760665825 C0.40439663,0.0784999922 0.387543015,0.0809334018 0.370779527,0.083547064 C0.263889755,0.100220426 0.157540742,0.11878644 0.0522732439,0.140236496 C0.0520929913,0.140236496 0.0519127388,0.140326622 0.0517324862,0.140326622 C1.87498718,0.511106149 3.5820691,1.78098547 4.66358449,3.38162825 C5.42947764,4.51514651 6.73802114,5.16856206 8.10289356,5.07573198 C8.11199632,5.0751011 8.12100895,5.07447022 8.1301117,5.07383933 C7.3129367,2.14743894 4.62906613,0 1.44202052,0 C1.33026393,0 1.21931848,0.00324454617 1.10891378,0.00847187057 C1.08097463,0.0098237648 1.05330586,0.0121670482 1.02536672,0.0137893212 Z" id="Shape"></path>
                <path d="M17.3474168,14.50213 C17.8412187,13.5476927 18.1217818,12.4650958 18.1217818,11.3163462 C18.1217818,7.48048146 15.0122448,4.37094445 11.1763801,4.37094445 C10.700333,4.37094445 10.2356419,4.41907189 9.78663278,4.51045994 C12.9560136,5.15459248 15.341386,7.95679886 15.341386,11.3163462 C15.341386,12.4650958 15.0608228,13.5476927 14.5670209,14.50213 C17.3629185,15.683956 19.3249676,18.4519143 19.3249676,21.678255 C19.3249676,25.8594836 16.0285087,29.2664374 11.8933346,29.4529087 C11.4208025,31.1644969 9.83962703,32.5182838 7.81971678,32.9512504 C8.26430974,33.0466942 8.72999224,33.0978859 9.21009495,33.0978859 C11.8708031,33.0978859 14.0971926,31.5411346 14.6737305,29.4528185 C18.8089947,29.2663472 22.1053635,25.8593935 22.1053635,21.6781649 C22.1053635,18.4519143 20.1434945,15.6838658 17.3474168,14.50213 Z" id="Shape"></path>
            </g>
            <path d="M15.7558767,30.6334728 C15.1294991,31.6958814 12.5336819,32.883836 11.571043,32.9513406 C11.6769414,32.9740524 11.7842818,32.9938802 11.8925235,33.0115449 C11.9011756,33.0129869 11.9098277,33.0145191 11.91857,33.015871 C12.0282537,33.0332654 12.1390189,33.0482263 12.2509557,33.0602131 C12.2538398,33.0604835 12.2567238,33.0606637 12.2596078,33.0610242 C12.3602789,33.0716592 12.4620315,33.0793199 12.5643248,33.0853583 C12.5891997,33.0868004 12.6141646,33.0882424 12.6392197,33.0895042 C12.7458391,33.0946414 12.8529993,33.0980662 12.9611508,33.0980662 C14.3364779,33.0980662 15.5942803,32.6805111 16.5699874,31.9902339 L16.7410471,31.8658596 L15.8698865,30.4365469 L15.7558767,30.6334728 Z" id="Shape" fill="#009000"></path>
            <path d="M24.201881,32.4069778 L27.1774904,27.7114886 C27.4129002,27.3400782 27.3416104,26.8524049 27.0098555,26.5638205 C26.6555691,26.2556788 26.1228326,26.2757769 25.7927902,26.6098751 L23.6013696,28.8285138 C23.3107124,29.1227761 22.8127647,28.8780832 22.8681022,28.468279 L23.5125051,23.6937491 C23.5813616,23.1836343 23.2042732,22.721647 22.6906435,22.6869484 L22.0868876,22.6461212 C21.6331919,22.6154782 21.2294261,22.9318215 21.1505656,23.379659 L20.0002839,29.9149861 C19.9362942,30.2784654 19.4747575,30.3983334 19.2419613,30.1120923 L15.6394336,25.6815744 C15.3901443,25.3749647 14.9685335,25.269517 14.6043332,25.4226415 L13.9735394,25.6877029 C13.4741496,25.8976071 13.2765928,26.5012729 13.5552633,26.9657838 L17.2572905,33.1364599 C17.7933616,34.030062 18.0144414,35.078411 17.8804236,36.111889 C17.4006814,39.8122038 16.8046763,43.3019836 14.3657689,46.1447468 L27.0919606,46.1447468 C24.4811824,43.1015428 23.83714,39.31705 23.4915958,35.3264385 C23.4031819,34.3016125 23.6512996,33.2757051 24.201881,32.4069778 Z" id="Shape" fill="#BF6101"></path>
            <path d="M27.1774904,27.7114886 C27.4129002,27.3400782 27.3417005,26.8524049 27.0098555,26.5638205 C26.6555691,26.2556788 26.1228326,26.2757769 25.7927902,26.6098751 L24.8141089,27.6006333 L23.6013696,28.8284236 C23.3107124,29.122686 22.8127647,28.8779931 22.8681022,28.4681889 L23.5125051,23.6936589 C23.5796492,23.1964322 23.222659,22.7460712 22.7289472,22.6914547 L20.9169583,33.9540856 C20.8864956,34.0995494 20.8627023,34.2463651 20.846119,34.3942623 C20.8116007,34.7020436 20.8070042,35.0141509 20.833952,35.3262582 C21.1796764,39.3169599 21.8237188,43.1014526 24.434497,46.1446567 L27.0921408,46.1446567 C24.4813627,43.1014526 23.8373202,39.3169599 23.4917761,35.3263484 C23.4030918,34.3016125 23.6512996,33.2757952 24.2017909,32.4069778 L27.1774904,27.7114886 Z" id="Shape" fill="#9A4D01"></path>
            <path d="M19.4071628,5.4526401 C17.4585425,5.4526401 15.7812022,6.60914056 15.0208068,8.27269148 C14.2352661,7.71760371 13.2772237,7.39035517 12.2421233,7.39035517 C9.57916207,7.39035517 7.42036723,9.54915002 7.42036723,12.2121113 C7.42036723,13.0907524 7.65658821,13.9137856 8.06720356,14.6231696 C5.75492365,14.9787178 3.98412245,16.9768175 3.98412245,19.3885968 C3.98412245,22.0515581 6.1429173,24.2103529 8.80587857,24.2103529 C11.4688398,24.2103529 24.2289189,12.9373575 24.2289189,10.2743962 C24.2289189,7.61143495 22.0703043,5.4526401 19.4071628,5.4526401 Z" id="Shape" fill="#28A528"></path>
        </g>
    </g>
</svg>