<?xml version="1.0" encoding="UTF-8"?>
<svg width="73px" height="73px" viewBox="0 0 73 73" version="1.1" xmlns="http://www.w3.org/2000/svg" xmlns:xlink="http://www.w3.org/1999/xlink">
    <!-- Generator: Sketch 51.3 (57544) - http://www.bohemiancoding.com/sketch -->
    <title>accessibility/accessible-forms</title>
    <desc>Created with Sketch.</desc>
    <defs></defs>
    <g id="accessibility/accessible-forms" stroke="none" stroke-width="1" fill="none" fill-rule="evenodd">
        <g id="container" transform="translate(2.000000, 2.000000)" fill="#FFFFFF" fill-rule="nonzero" stroke="#4F2B14" stroke-width="2">
            <rect id="mask" x="-1" y="-1" width="71" height="71" rx="14"></rect>
        </g>
        <g id="health" transform="translate(14.000000, 14.000000)" fill-rule="nonzero">
            <path d="M32.5862069,20.1724138 L32.5862069,6.20689655 C32.5862069,4.4929094 31.1967458,3.10344828 29.4827586,3.10344828 L3.10344828,3.10344828 C1.38946112,3.10344828 0,4.4929094 0,6.20689655 L0,41.8965517 C0,43.6105389 1.38946112,45 3.10344828,45 C31.9042241,45 29.8008621,45.0775862 30.4991379,44.8215517 L32.5862069,20.1724138 Z" id="Shape" fill="#A56A43"></path>
            <path d="M31.0344828,20.1724138 L31.0344828,6.20689655 C31.1123101,4.57589683 29.8572652,3.18872365 28.2266379,3.10344828 L4.35956897,3.10344828 C2.7289417,3.18872365 1.47389676,4.57589683 1.55172414,6.20689655 L1.55172414,41.8965517 C1.47389676,43.5275514 2.7289417,44.9147246 4.35956897,45 C30.4921552,45 28.5160345,45.0775862 29.1460345,44.8215517 L31.0344828,20.1724138 Z" id="Shape" fill="#CB8252"></path>
            <polygon id="Shape" fill="#F9EAB0" points="29.4827586 20.5603448 29.4827586 6.20689655 3.10344828 6.20689655 3.10344828 41.8965517 24.3698276 41.8965517"></polygon>
            <path d="M24.8275862,2.32758621 L21.7241379,2.32758621 C21.7241379,1.04198276 19.2925862,0 16.2931034,0 C13.2936207,0 10.862069,1.04198276 10.862069,2.32758621 L7.75862069,2.32758621 C7.3301239,2.32758621 6.98275862,2.67495149 6.98275862,3.10344828 L6.98275862,7.75862069 C6.98275862,8.18711744 7.3301239,8.53448276 7.75862069,8.53448276 L24.8275862,8.53448276 C25.256083,8.53448276 25.6034483,8.18711744 25.6034483,7.75862069 L25.6034483,3.10344828 C25.6034483,2.67495149 25.256083,2.32758621 24.8275862,2.32758621 Z" id="Shape" fill="#95A5A5"></path>
            <g id="Group" transform="translate(9.310345, 4.655172)" fill="#ECF0F1">
                <path d="M0.79137931,1.55172414 C0.36288256,1.55172414 0.0155172414,1.20435886 0.0155172414,0.775862069 C0.0155172414,0.34736528 0.36288256,0 0.79137931,0 C1.21987606,0 1.56724138,0.34736528 1.56724138,0.775862069 C1.56724138,1.20435886 1.21987606,1.55172414 0.79137931,1.55172414 Z" id="Shape"></path>
                <path d="M6.99827586,1.55172414 C6.56977911,1.55172414 6.22241379,1.20435886 6.22241379,0.775862069 C6.22241379,0.34736528 6.56977911,0 6.99827586,0 C7.42677261,0 7.77413793,0.34736528 7.77413793,0.775862069 C7.77413793,1.20435886 7.42677261,1.55172414 6.99827586,1.55172414 Z" id="Shape"></path>
                <path d="M13.2051724,1.55172414 C12.7766757,1.55172414 12.4293103,1.20435886 12.4293103,0.775862069 C12.4293103,0.34736528 12.7766757,0 13.2051724,0 C13.6336692,0 13.9810345,0.34736528 13.9810345,0.775862069 C13.9810345,1.20435886 13.6336692,1.55172414 13.2051724,1.55172414 Z" id="Shape"></path>
            </g>
            <path d="M13.887931,16.3862069 L10.3880172,19.8853448 L6.88887931,16.3862069 C6.2239583,15.7204582 6.02526958,14.7198575 6.38537911,13.8505691 C6.74548864,12.9812806 7.59355714,12.4143073 8.53448276,12.4137931 C9.15256117,12.410579 9.74582542,12.6567235 10.1800862,13.0965517 L10.3887931,13.3060345 L10.5990517,13.0965517 C11.0329737,12.6566933 11.6260176,12.410524 12.2438793,12.4137931 C13.1845226,12.4149337 14.0320176,12.9821367 14.3917295,13.8512848 C14.7514414,14.7204329 14.5526535,15.7206581 13.887931,16.3862069 Z" id="Shape" fill="#FF5364"></path>
            <path d="M24.8275862,13.9655172 L17.8448276,13.9655172 C17.4163308,13.9655172 17.0689655,13.6181519 17.0689655,13.1896552 C17.0689655,12.7611584 17.4163308,12.4137931 17.8448276,12.4137931 L24.8275862,12.4137931 C25.256083,12.4137931 25.6034483,12.7611584 25.6034483,13.1896552 C25.6034483,13.6181519 25.256083,13.9655172 24.8275862,13.9655172 Z" id="Shape" fill="#606060"></path>
            <path d="M24.8275862,17.0689655 L17.8448276,17.0689655 C17.4163308,17.0689655 17.0689655,16.7216002 17.0689655,16.2931034 C17.0689655,15.8646067 17.4163308,15.5172414 17.8448276,15.5172414 L24.8275862,15.5172414 C25.256083,15.5172414 25.6034483,15.8646067 25.6034483,16.2931034 C25.6034483,16.7216002 25.256083,17.0689655 24.8275862,17.0689655 Z" id="Shape" fill="#606060"></path>
            <path d="M24.8275862,20.1724138 L16.2931034,20.1724138 C15.8646067,20.1724138 15.5172414,19.8250485 15.5172414,19.3965517 C15.5172414,18.968055 15.8646067,18.6206897 16.2931034,18.6206897 L24.8275862,18.6206897 C25.256083,18.6206897 25.6034483,18.968055 25.6034483,19.3965517 C25.6034483,19.8250485 25.256083,20.1724138 24.8275862,20.1724138 Z" id="Shape" fill="#606060"></path>
            <path d="M13.887931,28.0241379 L10.3880172,31.5232759 L6.88887931,28.0241379 C6.2239583,27.3583892 6.02526958,26.3577886 6.38537911,25.4885001 C6.74548864,24.6192116 7.59355714,24.0522383 8.53448276,24.0517241 C9.15256117,24.0485101 9.74582542,24.2946545 10.1800862,24.7344828 L10.3887931,24.9439655 L10.5990517,24.7344828 C11.0329737,24.2946243 11.6260176,24.048455 12.2438793,24.0517241 C13.1845226,24.0528647 14.0320176,24.6200677 14.3917295,25.4892159 C14.7514414,26.3583639 14.5526535,27.3585892 13.887931,28.0241379 Z" id="Shape" fill="#FF5364"></path>
            <path d="M22.8956897,25.6034483 L17.8448276,25.6034483 C17.4163308,25.6034483 17.0689655,25.256083 17.0689655,24.8275862 C17.0689655,24.3990895 17.4163308,24.0517241 17.8448276,24.0517241 L22.8956897,24.0517241 C23.3241864,24.0517241 23.6715517,24.3990895 23.6715517,24.8275862 C23.6715517,25.256083 23.3241864,25.6034483 22.8956897,25.6034483 Z" id="Shape" fill="#606060"></path>
            <path d="M21.0801724,28.7068966 L17.8448276,28.7068966 C17.4163308,28.7068966 17.0689655,28.3595312 17.0689655,27.9310345 C17.0689655,27.5025377 17.4163308,27.1551724 17.8448276,27.1551724 L21.0801724,27.1551724 C21.5086692,27.1551724 21.8560345,27.5025377 21.8560345,27.9310345 C21.8560345,28.3595312 21.5086692,28.7068966 21.0801724,28.7068966 Z" id="Shape" fill="#606060"></path>
            <path d="M20.2732759,31.8103448 L16.2931034,31.8103448 C15.8646067,31.8103448 15.5172414,31.4629795 15.5172414,31.0344828 C15.5172414,30.605986 15.8646067,30.2586207 16.2931034,30.2586207 L20.2732759,30.2586207 C20.7017726,30.2586207 21.0491379,30.605986 21.0491379,31.0344828 C21.0491379,31.4629795 20.7017726,31.8103448 20.2732759,31.8103448 Z" id="Shape" fill="#606060"></path>
            <path d="M24.6413793,23.0431034 C21.8328847,25.3831993 20.1981108,28.8418554 20.1726939,32.4974051 C20.1472769,36.152955 21.7337994,39.6340086 24.5094828,42.012931 C32.5536207,48.9080172 45,43.1317241 45,32.5862069 C45,22.1361207 32.7359483,16.2931034 24.6413793,23.0431034 Z" id="Shape" fill="#F29C1F"></path>
            <path d="M40.662931,23.1594828 L32.5862069,32.5862069 L24.6413793,23.0431034 C29.2960351,19.1706187 36.0650223,19.2197881 40.662931,23.1594828 Z" id="Shape" fill="#CC4B4C"></path>
            <path d="M33.9594828,44.9224138 C30.5420637,45.3076392 27.1184461,44.2535697 24.5094828,42.012931 L32.5862069,32.5862069 L33.9594828,44.9224138 Z" id="Shape" fill="#F0C419"></path>
            <path d="M45.0000014,32.5862069 C45.0021219,38.9112721 40.246039,44.2255179 33.9594828,44.9224138 L32.5862069,32.5862069 L45.0000014,32.5862069 Z" id="Shape" fill="#4FBA6F"></path>
            <path d="M45.0000269,32.5862069 L32.5862069,32.5862069 L40.662931,23.1594828 C43.4199992,25.5144715 45.0053533,28.960277 45.0000269,32.5862069 Z" id="Shape" fill="#4482C3"></path>
        </g>
    </g>
</svg>