<?xml version="1.0" encoding="UTF-8"?>
<svg width="73px" height="73px" viewBox="0 0 73 73" version="1.1" xmlns="http://www.w3.org/2000/svg" xmlns:xlink="http://www.w3.org/1999/xlink">
    <!-- Generator: Sketch 51.3 (57544) - http://www.bohemiancoding.com/sketch -->
    <title>accessibility/accessible-css</title>
    <desc>Created with Sketch.</desc>
    <defs></defs>
    <g id="accessibility/accessible-css" stroke="none" stroke-width="1" fill="none" fill-rule="evenodd">
        <g id="container" transform="translate(2.000000, 2.000000)" fill="#FFFFFF" fill-rule="nonzero" stroke="#0D2A80" stroke-width="2">
            <rect id="mask" x="-1" y="-1" width="71" height="71" rx="14"></rect>
        </g>
        <g id="css-(1)" transform="translate(17.000000, 14.000000)" fill-rule="nonzero">
            <rect id="Rectangle-path" fill="#D8D7DA" x="3.12" y="3.12" width="32.76" height="42.12" rx="2"></rect>
            <rect id="Rectangle-path" fill="#E6E7E8" x="0" y="0" width="32.76" height="42.12" rx="2"></rect>
            <path d="M3.12,43.68 L32.76,43.68 C33.6204975,43.6774301 34.3174301,42.9804975 34.32,42.12 L34.32,3.12 L32.76,3.12 L32.76,40.56 C32.7574301,41.4204975 32.0604975,42.1174301 31.2,42.12 L3.12,42.12 L3.12,43.68 Z" id="Shape" fill="#C6C5CA"></path>
            <polygon id="Shape" fill="#3366FF" points="7.8 0 7.8 5.46 6.24 3.12 4.68 5.46 4.68 0"></polygon>
            <polygon id="Shape" fill="#ACABB1" points="32.76 28.86 34.32 28.86 34.32 30.42 32.76 30.42"></polygon>
            <polygon id="Shape" fill="#C6C5CA" points="34.32 28.86 35.88 28.86 35.88 30.42 34.32 30.42"></polygon>
            <path d="M32.76,15.3738 L32.76,40.56 C32.7574301,41.4204975 32.0604975,42.1174301 31.2,42.12 L4.2978,42.12 C9.97915399,38.7793864 15.2986253,34.8584002 20.1708,30.42 C20.7246,29.9208 21.2784,29.3982 21.8244,28.86 C26.024727,24.8446619 29.6992055,20.3131546 32.76,15.3738 Z" id="Shape" fill="#E0E0E2"></path>
            <path d="M32.76,28.86 L32.76,30.42 L9.36,30.42 C8.49950254,30.4174301 7.80256994,29.7204975 7.8,28.86 L32.76,28.86 Z" id="Shape" fill="#D1D3D4"></path>
            <path d="M32.76,28.86 L32.76,30.42 L20.1708,30.42 C20.7246,29.9208 21.2784,29.3982 21.8244,28.86 L32.76,28.86 Z" id="Shape" fill="#BCBEC0"></path>
            <rect id="Rectangle-path" fill="#3366FF" x="6.24" y="10.14" width="32.76" height="18.72" rx="2"></rect>
            <g id="Group" transform="translate(11.700000, 14.820000)" fill="#FFFFFF">
                <path d="M2.34,1.56 L3.9,1.56 C4.3307821,1.56 4.68,1.9092179 4.68,2.34 L6.24,2.34 C6.24,1.04765369 5.19234631,-3.55271368e-15 3.9,-3.55271368e-15 L2.34,-3.55271368e-15 C1.04765369,-3.55271368e-15 -3.55271368e-15,1.04765369 -3.55271368e-15,2.34 L-3.55271368e-15,7.02 C-3.55271368e-15,8.31234631 1.04765369,9.36 2.34,9.36 L3.9,9.36 C5.19234631,9.36 6.24,8.31234631 6.24,7.02 L4.68,7.02 C4.68,7.4507821 4.3307821,7.8 3.9,7.8 L2.34,7.8 C1.9092179,7.8 1.56,7.4507821 1.56,7.02 L1.56,2.34 C1.56,1.9092179 1.9092179,1.56 2.34,1.56 Z" id="Shape"></path>
                <path d="M10.14,1.56 L11.7,1.56 C12.1307821,1.56 12.48,1.9092179 12.48,2.34 L14.04,2.34 C14.04,1.04765369 12.9923463,-3.55271368e-15 11.7,-3.55271368e-15 L10.14,-3.55271368e-15 C8.84765369,-3.55271368e-15 7.8,1.04765369 7.8,2.34 L7.8,3.12 C7.8,4.41234631 8.84765369,5.46 10.14,5.46 L11.7,5.46 C12.1307821,5.46 12.48,5.8092179 12.48,6.24 L12.48,7.02 C12.48,7.4507821 12.1307821,7.8 11.7,7.8 L10.14,7.8 C9.7092179,7.8 9.36,7.4507821 9.36,7.02 L7.8,7.02 C7.8,8.31234631 8.84765369,9.36 10.14,9.36 L11.7,9.36 C12.9923463,9.36 14.04,8.31234631 14.04,7.02 L14.04,6.24 C14.04,4.94765369 12.9923463,3.9 11.7,3.9 L10.14,3.9 C9.7092179,3.9 9.36,3.5507821 9.36,3.12 L9.36,2.34 C9.36,1.9092179 9.7092179,1.56 10.14,1.56 Z" id="Shape"></path>
                <path d="M19.5,3.9 L17.94,3.9 C17.5092179,3.9 17.16,3.5507821 17.16,3.12 L17.16,2.34 C17.16,1.9092179 17.5092179,1.56 17.94,1.56 L19.5,1.56 C19.9307821,1.56 20.28,1.9092179 20.28,2.34 L21.84,2.34 C21.84,1.04765369 20.7923463,-7.81597009e-16 19.5,-3.55271368e-15 L17.94,-3.55271368e-15 C16.6476537,-3.55271368e-15 15.6,1.04765369 15.6,2.34 L15.6,3.12 C15.6,4.41234631 16.6476537,5.46 17.94,5.46 L19.5,5.46 C19.9307821,5.46 20.28,5.8092179 20.28,6.24 L20.28,7.02 C20.28,7.4507821 19.9307821,7.8 19.5,7.8 L17.94,7.8 C17.5092179,7.8 17.16,7.4507821 17.16,7.02 L15.6,7.02 C15.6,8.31234631 16.6476537,9.36 17.94,9.36 L19.5,9.36 C20.7923463,9.36 21.84,8.31234631 21.84,7.02 L21.84,6.24 C21.84,4.94765369 20.7923463,3.9 19.5,3.9 Z" id="Shape"></path>
            </g>
        </g>
    </g>
</svg>