<?xml version="1.0" encoding="UTF-8"?>
<svg width="73px" height="73px" viewBox="0 0 73 73" version="1.1" xmlns="http://www.w3.org/2000/svg" xmlns:xlink="http://www.w3.org/1999/xlink">
    <!-- Generator: Sketch 51.3 (57544) - http://www.bohemiancoding.com/sketch -->
    <title>accessibility/accessibility-tree</title>
    <desc>Created with Sketch.</desc>
    <defs>
        <rect id="path-1" x="0" y="0" width="69" height="69" rx="14"></rect>
    </defs>
    <g id="accessibility/accessibility-tree" stroke="none" stroke-width="1" fill="none" fill-rule="evenodd">
        <g id="container" transform="translate(2.000000, 2.000000)">
            <rect id="mask" stroke="#93590B" stroke-width="2" fill="#FFFFFF" fill-rule="nonzero" x="-1" y="-1" width="71" height="71" rx="14"></rect>
            <g id="tree-(1)">
                <mask id="mask-2" fill="white">
                    <use xlink:href="#path-1"></use>
                </mask>
                <rect stroke="#93590B" stroke-width="2" x="-1" y="-1" width="71" height="71" rx="14"></rect>
                <g mask="url(#mask-2)">
                    <g transform="translate(8.000000, 7.000000)">
                        <path d="M20.6061929,35.4606577 C19.2259498,33.6012303 17.0139507,32.3959476 14.5203234,32.3959476 C10.3366747,32.3959476 6.94501839,35.7874777 6.94501839,39.9712526 C6.94501839,44.1550275 10.3365484,47.5465576 14.5203234,47.5465576 C15.370131,47.5465576 16.186234,47.4045443 16.9489401,47.1463956 C17.8604762,47.6639552 18.9133943,47.9609839 20.0363724,47.9609839 C23.4956901,47.9609839 26.2998532,45.1566946 26.2998532,41.6975031 C26.2998532,38.4301874 23.7981469,35.7485976 20.6061929,35.4606577 Z" id="Shape" fill="#47821C" fill-rule="nonzero"></path>
                        <path d="M26.2547876,64.6319567 C24.7634586,64.6319567 23.554389,63.422887 23.554389,61.931558 L23.554389,28.2778144 C23.554389,26.7864854 24.7634586,25.5774157 26.2547876,25.5774157 C27.7461166,25.5774157 28.9551863,26.7864854 28.9551863,28.2778144 L28.9551863,61.931558 C28.9551863,63.4230133 27.7461166,64.6319567 26.2547876,64.6319567 Z" id="Shape" fill="#CC7400" fill-rule="nonzero"></path>
                        <path d="M26.2547876,61.931558 L26.2547876,28.2778144 C26.2547876,27.2789244 26.7986039,26.4087932 27.604987,25.941601 C27.2074759,25.7112238 26.7472266,25.5774157 26.2547876,25.5774157 C24.7634586,25.5774157 23.554389,26.7864854 23.554389,28.2778144 L23.554389,61.931558 C23.554389,63.422887 24.7634586,64.6319567 26.2547876,64.6319567 C26.7472266,64.6319567 27.2074759,64.4980224 27.604987,64.2677715 C26.7986039,63.8005793 26.2547876,62.9305743 26.2547876,61.931558 Z" id="Shape" fill="#AA6100" fill-rule="nonzero"></path>
                        <path d="M49.4160838,22.5246979 C49.7575468,21.5716308 49.9448782,20.5452218 49.9448782,19.4747571 C49.9448782,14.4808121 45.8965524,10.4324863 40.9026074,10.4324863 C35.9086624,10.4324863 31.8603366,14.4808121 31.8603366,19.4747571 C31.8603366,20.0489958 31.9162583,20.6097274 32.0185078,21.1541748 C26.8751017,22.043115 22.9617201,26.5235399 22.9617201,31.9208027 C22.9617201,37.9571884 27.8551828,42.8506511 33.8915686,42.8506511 C39.2712848,42.8506511 43.7400962,38.9626426 44.64936,33.8439783 C45.6209835,34.4693418 46.7764037,34.8336532 48.0177893,34.8336532 C51.4606966,34.8336532 54.2519837,32.0424923 54.2519837,28.5994587 C54.2523624,25.6373769 52.1857849,23.1595289 49.4160838,22.5246979 Z" id="Shape" fill="#4E901E" fill-rule="nonzero"></path>
                        <g id="Group" stroke-width="1" fill="none" fill-rule="evenodd" transform="translate(22.848362, 10.351192)">
                            <path d="M22.4652416,9.62951157 C22.4652416,6.1051833 21.2445584,2.77790637 19.103629,0.143780576 C18.7592626,0.103890618 18.4093418,0.0811684902 18.0542454,0.0811684902 C13.0603004,0.0811684902 9.01197463,4.12949428 9.01197463,9.12343929 C9.01197463,9.69767795 9.06789631,10.2584096 9.17014588,10.802857 C4.02673977,11.6917971 0.113358171,16.1722221 0.113358171,21.5694848 C0.113358171,26.2010119 2.99553386,30.1568081 7.06292099,31.7486194 C8.8650382,29.7508395 10.0664076,27.2009118 10.3732826,24.3851352 C17.2602333,23.0077955 22.4652416,16.9153619 22.4652416,9.62951157 Z" id="Shape" fill="#47821C" fill-rule="nonzero"></path>
                            <path d="M12.9434077,29.2666057 C12.5111823,29.2666057 12.1137976,28.9813167 11.9905931,28.5447994 C11.8421419,28.0184034 12.1485119,27.4711789 12.6750341,27.3227276 C14.8597667,26.7065793 16.5279496,24.8633098 16.9252081,22.6269474 C17.0208935,22.0883068 17.535171,21.7285397 18.0735592,21.8249826 C18.6120737,21.9205417 18.9712095,22.4348192 18.8755241,22.9733336 C18.3462248,25.9527096 16.1234957,28.4084666 13.2127911,29.2293666 C13.1230387,29.254361 13.0325289,29.2666057 12.9434077,29.2666057 Z" id="Shape" fill="#47821C" fill-rule="nonzero"></path>
                        </g>
                        <path d="M20.1503617,24.202727 C18.5846809,24.202727 17.1114034,24.5984707 15.824826,25.2950302 C14.4922994,24.3024519 12.8404007,23.7147062 11.0509069,23.7147062 C10.9832455,23.7147062 10.9165939,23.7181145 10.8494374,23.7198818 C9.95494294,21.7665362 7.98455574,20.4087628 5.69568006,20.4087628 C2.56583318,20.4087628 0.028655128,22.9459409 0.028655128,26.0757877 C0.028655128,28.2606466 1.26574876,30.1554196 3.07720729,31.1012913 C3.06193297,31.3038969 3.05145554,31.5078911 3.05145554,31.71441 C3.05145554,36.1324753 6.63296784,39.7139876 11.0510331,39.7139876 C11.8582998,39.7139876 12.6370377,39.5933079 13.3717198,39.3708835 C15.0377567,41.2306896 17.4570322,42.4018891 20.1503617,42.4018891 C25.1758652,42.4018891 29.2498165,38.3279378 29.2498165,33.3024343 C29.2498165,28.2769308 25.1758652,24.202727 20.1503617,24.202727 Z" id="Shape" fill="#5EAC24" fill-rule="nonzero"></path>
                        <g id="Group" stroke-width="1" fill="none" fill-rule="evenodd" transform="translate(0.000000, 20.323681)">
                            <path d="M9.88425187,14.1002165 C8.07291957,13.154471 6.83569971,11.259698 6.83569971,9.07471295 C6.83569971,6.14418962 9.06032227,3.73337185 11.9129592,3.43823665 C11.62969,3.40781425 11.3425075,3.39064642 11.0510331,3.39064642 C10.9833717,3.39064642 10.9167201,3.39405474 10.8495636,3.39582201 C9.9551954,1.44247642 7.98468198,0.0847030435 5.69580629,0.0847030435 C2.56595941,0.0847030435 0.028781362,2.62188109 0.028781362,5.75172798 C0.028781362,7.93658681 1.26587499,9.83135981 3.07745976,10.7772315 C3.0620592,10.9798371 3.05170801,11.1838314 3.05170801,11.3903502 C3.05170801,15.8084156 6.6332203,19.3899278 11.0512856,19.3899278 C11.1565648,19.3899278 11.2612128,19.3876556 11.3656084,19.3836161 C10.4186006,18.0692673 9.85887883,16.4571323 9.85887883,14.7134615 C9.85850013,14.5068163 9.86897755,14.3028221 9.88425187,14.1002165 Z" id="Shape" fill="#4E901E" fill-rule="nonzero"></path>
                            <path d="M20.1503617,3.87904593 C18.5846809,3.87904593 17.1114034,4.27478966 15.824826,4.97134912 C14.4921732,3.97877083 12.8404007,3.39102512 11.0509069,3.39102512 C10.9832455,3.39102512 10.9165939,3.39443344 10.8494374,3.39620072 C9.95506917,1.44285512 7.98455574,0.0850817456 5.69568006,0.0850817456 C5.10313746,0.0850817456 4.53192841,0.176348959 3.99518126,0.345123876 C5.1815288,6.67588741 10.7490813,11.4821224 17.4189095,11.4821224 C18.4771295,11.4821224 19.5146471,11.3637149 20.5238883,11.1284146 C22.9262483,13.1779505 25.9073915,14.4128982 29.0926552,14.6577922 C29.1942736,14.113471 29.2498165,13.5527394 29.2498165,12.9788795 C29.2499428,7.95299723 25.1758652,3.87904593 20.1503617,3.87904593 Z" id="Shape" fill="#4E901E" fill-rule="nonzero"></path>
                        </g>
                        <path d="M35.3868108,10.2485633 C35.4409652,9.84865387 35.4715139,9.44117038 35.4715139,9.02636531 C35.4713876,4.04138292 31.4302572,0 26.4450223,0 C21.6230081,0 17.6846321,3.78134078 17.4321641,8.54036424 C17.4276196,8.54036424 17.4233277,8.53998554 17.4187832,8.53998554 C12.1127877,8.53998554 7.81148887,12.8412843 7.81148887,18.1472799 C7.81148887,23.4532755 12.1127877,27.7545743 17.4187832,27.7545743 C18.9290473,27.7545743 20.3572593,27.4051585 21.6288148,26.7842132 C23.6427528,29.3371705 26.7616173,30.9779606 30.2656219,30.9779606 C36.3393729,30.9779606 41.2631318,26.0542017 41.2631318,19.9804507 C41.2631318,15.7565334 38.880338,12.090823 35.3868108,10.2485633 Z" id="Shape" fill="#6DC82A" fill-rule="nonzero"></path>
                        <g id="Group" stroke-width="1" fill="none" fill-rule="evenodd" transform="translate(7.700277, 0.000000)">
                            <path d="M14.4310759,14.0418963 C14.4356203,14.0418963 14.4399123,14.042275 14.4444567,14.042275 C14.6969248,9.28325159 18.635427,5.5019108 23.457315,5.5019108 C24.8635622,5.5019108 26.1944477,5.82368138 27.3807953,6.39728888 C26.2551663,2.69484437 22.8151624,0.000126234044 18.7447456,0.000126234044 C13.9227314,0.000126234044 9.98435547,3.78146702 9.73188738,8.54049047 C9.72734295,8.54049047 9.723051,8.54011177 9.71850657,8.54011177 C4.412511,8.54011177 0.111212193,12.8414106 0.111212193,18.1474061 C0.111212193,21.8663873 2.22563243,25.0892687 5.31659923,26.6861293 C4.99861567,25.7311688 4.82378152,24.7109453 4.82378152,23.6490645 C4.82378152,18.3433214 9.12508033,14.0418963 14.4310759,14.0418963 Z" id="Shape" fill="#5EAC24" fill-rule="nonzero"></path>
                            <path d="M22.5653452,28.0067899 C22.0182469,28.0067899 21.5749129,27.5633297 21.5749129,27.0163576 C21.5749129,26.4693855 22.0182469,26.0259253 22.5653452,26.0259253 C25.8986814,26.0259253 28.6105673,23.3140393 28.6105673,19.9807032 C28.6105673,19.4337311 29.0539013,18.9902709 29.6009997,18.9902709 C30.148098,18.9902709 30.591432,19.4337311 30.591432,19.9807032 C30.591432,24.4063425 26.9908583,28.0067899 22.5653452,28.0067899 Z" id="Shape" fill="#5EAC24" fill-rule="nonzero"></path>
                            <circle id="Oval" fill="#5EAC24" fill-rule="nonzero" cx="8.92222222" cy="23.2916959" r="2.51571826"></circle>
                        </g>
                        <circle id="Oval" fill="#4E901E" fill-rule="nonzero" cx="20.4087628" cy="37.1898117" r="2.51571826"></circle>
                        <g id="Group" stroke-width="1" fill="none" fill-rule="evenodd" transform="translate(21.838490, 11.108596)">
                            <circle id="Oval" fill="#5EAC24" fill-rule="nonzero" cx="7.41170565" cy="2.52821543" r="2.51571826"></circle>
                            <circle id="Oval" fill="#5EAC24" fill-rule="nonzero" cx="9.92616157" cy="7.9651157" r="1"></circle>
                            <circle id="Oval" fill="#5EAC24" fill-rule="nonzero" cx="1.08460291" cy="8.45906952" r="1"></circle>
                            <circle id="Oval" fill="#5EAC24" fill-rule="nonzero" cx="3.93711359" cy="13.3717198" r="1"></circle>
                        </g>
                        <circle id="Oval" fill="#4E901E" fill-rule="nonzero" cx="13.6802358" cy="34.0969514" r="1"></circle>
                        <path d="M53.4347445,64.6319567 C53.8693684,63.9340087 54.121079,63.1104578 54.121079,62.2277031 C54.121079,59.97796 52.490009,58.1102011 50.3459237,57.7395779 C49.9231659,54.2784929 46.9761059,51.5971556 43.4009053,51.5971556 C39.5354927,51.5971556 36.401985,54.7306632 36.401985,58.5960759 C36.401985,58.7209214 36.4055196,58.844757 36.4119575,58.9678352 C34.8643281,59.6489941 33.783386,61.1949824 33.783386,62.9944487 C33.783386,63.573358 33.8962392,64.1255057 34.0997285,64.6318305 L53.4347445,64.6319567 Z" id="Shape" fill="#6DC82A" fill-rule="nonzero"></path>
                        <g id="Group" stroke-width="1" fill="none" fill-rule="evenodd" transform="translate(33.704490, 51.503490)">
                            <path d="M7.21579042,9.57750314 C7.20935248,9.45442495 7.20581793,9.33046312 7.20581793,9.20574388 C7.20581793,5.34033123 10.3393256,2.20682356 14.2047383,2.20682356 C14.3796986,2.20682356 14.5526393,2.215155 14.7243176,2.22765217 C13.4523834,0.912419669 11.6708423,0.0937918946 9.69641561,0.0937918946 C5.83100296,0.0937918946 2.69749528,3.22729957 2.69749528,7.09271222 C2.69749528,7.21755769 2.70102984,7.34139329 2.70746777,7.46447148 C1.1598384,8.14563038 0.0788962774,9.69161872 0.0788962774,11.491085 C0.0788962774,12.0699943 0.191749513,12.622142 0.395238791,13.1284668 L4.61574781,13.1284668 C4.78729988,11.5357719 5.80676602,10.197691 7.21579042,9.57750314 Z" id="Shape" fill="#5EAC24" fill-rule="nonzero"></path>
                            <circle id="Oval" fill="#5EAC24" fill-rule="nonzero" cx="12.2091043" cy="8.14853377" r="2.51571826"></circle>
                            <circle id="Oval" fill="#5EAC24" fill-rule="nonzero" cx="17.3489758" cy="9.10866991" r="1"></circle>
                        </g>
                        <path d="M18.4858396,64.591688 C18.6731709,64.1097265 18.777314,63.5858552 18.777314,63.0374945 C18.777314,60.6677028 16.8560319,58.7464206 14.4862402,58.7464206 C14.2749244,58.7464206 14.0673956,58.7624524 13.864285,58.7918649 C12.9907455,56.1949781 10.538018,54.3238109 7.64687968,54.3238109 C4.02383638,54.3238109 1.08674888,57.2608984 1.08674888,60.8839417 C1.08674888,62.2601453 1.51127397,63.5366239 2.23535245,64.5915618 L18.4858396,64.5915618 L18.4858396,64.591688 Z" id="Shape" fill="#6DC82A" fill-rule="nonzero"></path>
                        <g id="Group" stroke-width="1" fill="none" fill-rule="evenodd" transform="translate(1.009872, 54.280639)">
                            <path d="M10.646453,2.15696111 C10.9389373,2.15696111 11.2267509,2.17703232 11.5091365,2.21414513 C10.3089032,0.881744797 8.57154405,0.043172043 6.63700733,0.043172043 C3.01396403,0.043172043 0.0768765327,2.98025954 0.0768765327,6.60330284 C0.0768765327,7.97950638 0.501401622,9.25598503 1.2254801,10.3109229 L4.28286864,10.3109229 C4.15524602,9.8005587 4.08632223,9.2669674 4.08632223,8.71696567 C4.08632223,5.09404861 7.02340973,2.15696111 10.646453,2.15696111 Z" id="Shape" fill="#5EAC24" fill-rule="nonzero"></path>
                            <circle id="Oval" fill="#5EAC24" fill-rule="nonzero" cx="7.96233855" cy="6.33152094" r="1"></circle>
                            <circle id="Oval" fill="#5EAC24" fill-rule="nonzero" cx="12.6082563" cy="7.8872293" r="1"></circle>
                        </g>
                    </g>
                </g>
            </g>
        </g>
    </g>
</svg>