<?xml version="1.0" encoding="UTF-8"?>
<svg width="73px" height="73px" viewBox="0 0 73 73" version="1.1" xmlns="http://www.w3.org/2000/svg" xmlns:xlink="http://www.w3.org/1999/xlink">
    <!-- Generator: Sketch 51.3 (57544) - http://www.bohemiancoding.com/sketch -->
    <title>accessibility/accessible-forms</title>
    <desc>Created with Sketch.</desc>
    <defs>
        <rect id="path-1" x="0" y="0" width="69" height="69" rx="14"></rect>
    </defs>
    <g id="accessibility/accessible-forms" stroke="none" stroke-width="1" fill="none" fill-rule="evenodd">
        <g id="container" transform="translate(2.000000, 2.000000)">
            <mask id="mask-2" fill="white">
                <use xlink:href="#path-1"></use>
            </mask>
            <rect stroke="#183E4D" stroke-width="2" x="-1" y="-1" width="71" height="71" rx="14"></rect>
            <g id="growth" mask="url(#mask-2)">
                <g transform="translate(5.000000, 13.000000)">
                    <path d="M7.99,26.02 L6.59,23.67 C5.65,22.1 5.9,20.1 7.19,18.8 L13.95,12 L32,12 L41,3 L45,7 L34,18 L28,18 L28,29 L30,50 L24,50 L22,31 L20,50 L14,50 L16,28 L16,18 L12,22 L16,28 L10.95,31 L7.99,26.02 Z" id="Shape" fill="#91CBD7" fill-rule="nonzero"></path>
                    <path d="M29,58 L0,58 L0,53.67 C4.49,51.84 9.19,50.42 14.05,49.46 L14,50 L20,50 L20.16,48.53 C21.37,48.39 22.58,48.28 23.81,48.2 L24,50 L30,50 L29.81,48.02 C38.08,48.1 46.03,49.49 53.48,52 L38,52 C36.9,52 36,52.9 36,54 L29,54 C27.9,54 27,54.9 27,56 C27,56.55 27.22,57.05 27.59,57.41 C27.95,57.78 28.45,58 29,58 Z" id="Shape" fill="#4E9BB9" fill-rule="nonzero"></path>
                    <path d="M58,53.67 L58,58 L29,58 C28.45,58 27.95,57.78 27.59,57.41 C27.22,57.05 27,56.55 27,56 C27,54.9 27.9,54 29,54 L36,54 C36,52.9 36.9,52 38,52 L53.48,52 C55.01,52.51 56.52,53.07 58,53.67 Z" id="Shape" fill="#91CBD7" fill-rule="nonzero"></path>
                    <polygon id="Shape" fill="#ED6571" fill-rule="nonzero" points="22 19 19 12 22 12 25 12"></polygon>
                    <path d="M26.49,9.97 C25.4,11.22 23.79,12 22,12 C18.68,12 16,9.32 16,6 C16,2.68 18.68,0 22,0 C25.32,0 28,2.68 28,6 C28,7.53 27.43,8.92 26.5,9.97 L26.49,9.97 Z" id="Shape" fill="#91CBD7" fill-rule="nonzero"></path>
                    <path d="M36,37 C35.63,38.08 32.86,39.97 29.18,41.34 L28,29 L28,18 C30,20 33,34 36,37 Z" id="Shape" fill="#ED6571" fill-rule="nonzero"></path>
                    <path d="M22,31 L23.25,42.84 C22.5,42.93 21.75,42.99 21,43 C20.92,43 20.84,43 20.74,43 L22,31 Z" id="Shape" fill="#ED6571" fill-rule="nonzero"></path>
                    <polygon id="Shape" fill="#ED6571" fill-rule="nonzero" points="16 18 16 28 12 22"></polygon>
                    <path d="M16,29 L14.72,42.42 C11.71,42.03 8.5,41.5 7,41 C4,40 3,38 0,39 C0,37 3.23,34.02 4,33 C5.71,30.71 6,28.02 7.99,26.02 L10.95,31 L16,28 L16,29 Z" id="Shape" fill="#ED6571" fill-rule="nonzero"></path>
                    <path d="M53.187,0.495 C53.727,2.611 55.389,4.273 57.505,4.813 C57.705,4.864 57.705,5.135 57.505,5.187 C55.389,5.727 53.727,7.389 53.187,9.505 C53.136,9.705 52.865,9.705 52.813,9.505 C52.273,7.389 50.611,5.727 48.495,5.187 C48.295,5.136 48.295,4.865 48.495,4.813 C50.611,4.273 52.273,2.611 52.813,0.495 C52.864,0.295 53.136,0.295 53.187,0.495 Z" id="Shape" fill="#FFD086" fill-rule="nonzero"></path>
                    <path d="M48.187,13.495 C48.727,15.611 50.389,17.273 52.505,17.813 C52.705,17.864 52.705,18.135 52.505,18.187 C50.389,18.727 48.727,20.389 48.187,22.505 C48.136,22.705 47.865,22.705 47.813,22.505 C47.273,20.389 45.611,18.727 43.495,18.187 C43.295,18.136 43.295,17.865 43.495,17.813 C45.611,17.273 47.273,15.611 47.813,13.495 C47.864,13.295 48.136,13.295 48.187,13.495 Z" id="Shape" fill="#FFD086" fill-rule="nonzero"></path>
                    <polygon id="Shape" fill="#68607C" fill-rule="nonzero" points="21 22 23 22 23 24 21 24"></polygon>
                    <path d="M26.374,10.962 C23.881,10.646 22,8.512 22,6 L24,6 C24,7.508 25.129,8.788 26.626,8.978 L26.374,10.962 Z" id="Shape" fill="#68607C" fill-rule="nonzero"></path>
                    <g id="Group" stroke-width="1" fill="none" fill-rule="evenodd" transform="translate(49.000000, 20.000000)">
                        <polygon id="Shape" fill="#FFE5CA" fill-rule="nonzero" points="8 0 10 0 10 12 8 12"></polygon>
                        <polygon id="Shape" fill="#FFE5CA" fill-rule="nonzero" points="8 14 10 14 10 16 8 16"></polygon>
                        <polygon id="Shape" fill="#FFE5CA" fill-rule="nonzero" points="4 3 6 3 6 15 4 15"></polygon>
                        <polygon id="Shape" fill="#FFE5CA" fill-rule="nonzero" points="4 17 6 17 6 19 4 19"></polygon>
                        <polygon id="Shape" fill="#FFE5CA" fill-rule="nonzero" points="0 6 2 6 2 18 0 18"></polygon>
                        <polygon id="Shape" fill="#FFE5CA" fill-rule="nonzero" points="0 20 2 20 2 22 0 22"></polygon>
                    </g>
                </g>
            </g>
        </g>
    </g>
</svg>