<?xml version="1.0" encoding="UTF-8"?>
<svg width="73px" height="73px" viewBox="0 0 73 73" version="1.1" xmlns="http://www.w3.org/2000/svg" xmlns:xlink="http://www.w3.org/1999/xlink">
    <!-- Generator: Sketch 51.3 (57544) - http://www.bohemiancoding.com/sketch -->
    <title>accessibility/accessible-colors</title>
    <desc>Created with Sketch.</desc>
    <defs></defs>
    <g id="accessibility/accessible-colors" stroke="none" stroke-width="1" fill="none" fill-rule="evenodd">
        <g id="container" transform="translate(2.000000, 2.000000)" fill="#FFFFFF" fill-rule="nonzero" stroke="#6A4B08" stroke-width="2">
            <rect id="mask" x="-1" y="-1" width="71" height="71" rx="14"></rect>
        </g>
        <g id="contrast" transform="translate(10.000000, 10.000000)" fill-rule="nonzero">
            <circle id="Oval" fill="#FCD462" cx="26.4935124" cy="26.4935124" r="15.2337614"></circle>
            <g id="Group" fill="#F6C358">
                <path d="M33.7130581,13.0481162 C34.3754481,15.1675664 34.8390332,17.4195166 34.9052282,19.7377718 C35.3026183,28.9442676 29.0766577,37.0909834 20.9961369,40.6677137 C22.7181971,41.3301037 24.5727573,41.7274938 26.4935124,41.7274938 C34.9052282,41.7274938 41.7272739,34.9054481 41.7272739,26.4937324 C41.7272739,20.6649419 38.4818485,15.6311515 33.7130581,13.0481162 Z" id="Shape"></path>
                <path d="M26.4935124,0 C25.2350373,0 24.2415622,0.993475104 24.2415622,2.25195021 L24.2415622,5.96107054 C24.2415622,7.21954564 25.2350373,8.21302075 26.4935124,8.21302075 C27.7519876,8.21302075 28.7454627,7.21954564 28.7454627,5.96107054 L28.7454627,2.25195021 C28.7454627,0.993475104 27.7519876,0 26.4935124,0 Z" id="Shape"></path>
                <path d="M26.4935124,44.7741141 C25.2350373,44.7741141 24.2415622,45.7675892 24.2415622,47.0260643 L24.2415622,50.7351846 C24.2415622,51.9936598 25.2350373,52.9871349 26.4935124,52.9871349 C27.7519876,52.9871349 28.7454627,51.9936598 28.7454627,50.7351846 L28.7454627,47.0260643 C28.7454627,45.7675892 27.7519876,44.7741141 26.4935124,44.7741141 Z" id="Shape"></path>
                <path d="M52.9870249,26.4935124 C52.9870249,25.2350373 51.9935498,24.2415622 50.7350747,24.2415622 L47.0259544,24.2415622 C45.7674793,24.2415622 44.7740041,25.2350373 44.7740041,26.4935124 C44.7740041,27.7519876 45.7674793,28.7454627 47.0259544,28.7454627 L50.7350747,28.7454627 C51.9935498,28.7454627 52.9870249,27.7519876 52.9870249,26.4935124 Z" id="Shape"></path>
                <path d="M8.21302075,26.4935124 C8.21302075,25.2350373 7.21954564,24.2415622 5.96107054,24.2415622 L2.25195021,24.2415622 C0.993475104,24.2415622 0,25.2350373 0,26.4935124 C0,27.7519876 0.993475104,28.7454627 2.25195021,28.7454627 L5.96107054,28.7454627 C7.21943568,28.7454627 8.21302075,27.7519876 8.21302075,26.4935124 Z" id="Shape"></path>
                <path d="M45.2376992,7.74932573 C44.3766141,6.88824066 42.9195539,6.88824066 42.0584689,7.74932573 L39.4091286,10.398666 C38.5480436,11.259751 38.5480436,12.7168112 39.4091286,13.5778963 C40.2702137,14.4389813 41.7272739,14.4389813 42.5883589,13.5778963 L45.2376992,10.928556 C46.0987842,10.0675809 46.0987842,8.61041079 45.2376992,7.74932573 Z" id="Shape"></path>
                <path d="M13.5778963,39.4091286 C12.7168112,38.5480436 11.259751,38.5480436 10.398666,39.4091286 L7.74932573,42.0584689 C6.88824066,42.9195539 6.88824066,44.3766141 7.74932573,45.2376992 C8.61041079,46.0987842 10.067471,46.0987842 10.928556,45.2376992 L13.5778963,42.5883589 C14.4389813,41.7272739 14.4389813,40.3364087 13.5778963,39.4091286 Z" id="Shape"></path>
                <path d="M45.2376992,45.2376992 C46.0987842,44.3766141 46.0987842,42.9195539 45.2376992,42.0584689 L42.5883589,39.4091286 C41.7272739,38.5480436 40.2702137,38.5480436 39.4091286,39.4091286 C38.5480436,40.2702137 38.5480436,41.7272739 39.4091286,42.5883589 L42.0584689,45.2376992 C42.9195539,46.0987842 44.3766141,46.0987842 45.2376992,45.2376992 Z" id="Shape"></path>
                <path d="M13.5778963,13.5778963 C14.4389813,12.7168112 14.4389813,11.259751 13.5778963,10.398666 L10.928556,7.74932573 C10.067471,6.88824066 8.61041079,6.88824066 7.74932573,7.74932573 C6.88824066,8.61041079 6.88824066,10.067471 7.74932573,10.928556 L10.398666,13.5778963 C11.259751,14.4389813 12.6506162,14.4389813 13.5778963,13.5778963 Z" id="Shape"></path>
            </g>
        </g>
    </g>
</svg>