<?xml version="1.0" encoding="UTF-8"?>
<svg width="73px" height="73px" viewBox="0 0 73 73" version="1.1" xmlns="http://www.w3.org/2000/svg" xmlns:xlink="http://www.w3.org/1999/xlink">
    <!-- Generator: Sketch 51.3 (57544) - http://www.bohemiancoding.com/sketch -->
    <title>accessibility/alt-text</title>
    <desc>Created with Sketch.</desc>
    <defs></defs>
    <g id="accessibility/alt-text" stroke="none" stroke-width="1" fill="none" fill-rule="evenodd">
        <g id="container" transform="translate(2.000000, 2.000000)" fill-rule="nonzero">
            <rect id="mask" stroke="#4D5F67" stroke-width="2" fill="#FFFFFF" x="-1" y="-1" width="71" height="71" rx="14"></rect>
            <g id="wrap" transform="translate(11.000000, 13.000000)">
                <path d="M0.998081871,0.0311578947 L24.9512982,0.0311578947 C25.5025029,0.0311578947 25.9493801,0.478035088 25.9493801,1.02923977 L25.9493801,24.9824561 C25.9493801,25.5336608 25.5025029,25.980538 24.9512982,25.980538 L0.998081871,25.980538 C0.446877193,25.980538 0,25.5336608 0,24.9824561 L0,1.02923977 C0,0.478035088 0.446877193,0.0311578947 0.998081871,0.0311578947 Z" id="Shape" fill="#2196F3"></path>
                <path d="M21.8513216,20.5431579 L17.8590877,12.5587836 C17.7156491,12.2718129 17.4430877,12.0712982 17.1265497,12.0198363 C16.8093567,11.9647251 16.4854269,12.0692398 16.2602105,12.2993216 L13.2480936,15.3134035 L9.87471345,8.56654971 C9.69880702,8.20060819 9.31518129,7.98138012 8.91059649,8.01562573 C8.50891228,8.04472515 8.16411696,8.31242105 8.03630409,8.69426901 L4.04407018,20.6708772 C3.86769591,21.193076 4.14802339,21.7594386 4.67022222,21.9358129 C4.77333333,21.9706199 4.88140351,21.9883977 4.99022222,21.9883041 L20.9590643,21.9883041 C21.510269,21.9883041 21.9571462,21.5414269 21.9570526,20.9902222 C21.9570526,20.8349942 21.9208421,20.6819181 21.8513216,20.5431579 Z" id="Shape" fill="#FAFAFA"></path>
                <circle id="Oval" fill="#FFC107" cx="17.9649123" cy="8.01562573" r="3.99223392"></circle>
                <g id="Group" fill="#607D8B">
                    <path d="M46.9083509,2.02732164 L30.9396023,2.02732164 C30.3883977,2.02732164 29.9415205,1.58044444 29.9415205,1.02923977 C29.9415205,0.478035088 30.3883977,0.0311578947 30.9396023,0.0311578947 L46.9084444,0.0311578947 C47.4595556,0.0311578947 47.9064327,0.478035088 47.9064327,1.02923977 C47.9064327,1.58044444 47.4595556,2.02732164 46.9083509,2.02732164 Z" id="Shape"></path>
                    <path d="M46.9083509,8.01562573 L30.9396023,8.01562573 C30.3883977,8.01562573 29.9415205,7.56874854 29.9415205,7.01754386 C29.9415205,6.46633918 30.3883977,6.01946199 30.9396023,6.01946199 L46.9084444,6.01946199 C47.4595556,6.01946199 47.9064327,6.46633918 47.9064327,7.01754386 C47.9064327,7.56874854 47.4595556,8.01562573 46.9083509,8.01562573 Z" id="Shape"></path>
                    <path d="M46.9083509,14.0039298 L30.9396023,14.0039298 C30.3883977,14.0039298 29.9415205,13.5570526 29.9415205,13.005848 C29.9415205,12.4546433 30.3883977,12.0077661 30.9396023,12.0077661 L46.9084444,12.0077661 C47.4596491,12.0077661 47.9065263,12.4546433 47.9065263,13.005848 C47.9064327,13.5570526 47.4595556,14.0039298 46.9083509,14.0039298 Z" id="Shape"></path>
                    <path d="M46.9083509,19.9922339 L30.9396023,19.9922339 C30.3883977,19.9922339 29.9415205,19.5453567 29.9415205,18.994152 C29.9415205,18.4429474 30.3883977,17.9960702 30.9396023,17.9960702 L46.9084444,17.9960702 C47.4596491,17.9960702 47.9065263,18.4429474 47.9065263,18.994152 C47.9064327,19.5453567 47.4595556,19.9922339 46.9083509,19.9922339 Z" id="Shape"></path>
                    <path d="M46.9083509,25.980538 L30.9396023,25.980538 C30.3883977,25.980538 29.9415205,25.5336608 29.9415205,24.9824561 C29.9415205,24.4312515 30.3883977,23.9843743 30.9396023,23.9843743 L46.9084444,23.9843743 C47.4596491,23.9843743 47.9065263,24.4312515 47.9065263,24.9824561 C47.9064327,25.5336608 47.4595556,25.980538 46.9083509,25.980538 Z" id="Shape"></path>
                    <path d="M46.9083509,31.9688421 L0.998081871,31.9688421 C0.446877193,31.9688421 0,31.5219649 0,30.9707602 C0,30.4195556 0.446877193,29.9726784 0.998081871,29.9726784 L46.9084444,29.9726784 C47.4596491,29.9726784 47.9065263,30.4195556 47.9065263,30.9707602 C47.9064327,31.5219649 47.4595556,31.9688421 46.9083509,31.9688421 Z" id="Shape"></path>
                    <path d="M46.9083509,37.9571462 L0.998081871,37.9571462 C0.446877193,37.9571462 0,37.510269 0,36.9590643 C0,36.4078596 0.446877193,35.9609825 0.998081871,35.9609825 L46.9084444,35.9609825 C47.4596491,35.9609825 47.9065263,36.4078596 47.9065263,36.9590643 C47.9064327,37.510269 47.4595556,37.9571462 46.9083509,37.9571462 Z" id="Shape"></path>
                    <path d="M46.9083509,43.9454503 L0.998081871,43.9454503 C0.446877193,43.9454503 0,43.4985731 0,42.9473684 C0,42.3961637 0.446877193,41.9492865 0.998081871,41.9492865 L46.9084444,41.9492865 C47.4596491,41.9492865 47.9065263,42.3961637 47.9065263,42.9473684 C47.9064327,43.4985731 47.4595556,43.9454503 46.9083509,43.9454503 Z" id="Shape"></path>
                </g>
            </g>
        </g>
    </g>
</svg>