<?xml version="1.0" encoding="UTF-8"?>
<svg width="73px" height="73px" viewBox="0 0 73 73" version="1.1" xmlns="http://www.w3.org/2000/svg" xmlns:xlink="http://www.w3.org/1999/xlink">
    <!-- Generator: Sketch 51.3 (57544) - http://www.bohemiancoding.com/sketch -->
    <title>accessibility/amazing-forms</title>
    <desc>Created with Sketch.</desc>
    <defs>
        <rect id="path-1" x="0" y="0" width="69" height="69" rx="14"></rect>
    </defs>
    <g id="accessibility/amazing-forms" stroke="none" stroke-width="1" fill="none" fill-rule="evenodd">
        <g id="container" transform="translate(2.000000, 2.000000)">
            <mask id="mask-2" fill="white">
                <use xlink:href="#path-1"></use>
            </mask>
            <rect stroke="#A76916" stroke-width="2" x="-1" y="-1" width="71" height="71" rx="14"></rect>
        </g>
        <g id="stars" transform="translate(12.000000, 11.000000)" fill-rule="nonzero">
            <path d="M45.3350221,3.46962732 C44.9487567,3.36641292 44.6729173,3.02612078 44.6517335,2.62723535 L44.6084646,1.79611131 C44.5854779,1.39812738 44.3091878,1.05963811 43.9233732,0.95732509 C43.5380093,0.855012069 43.1301095,1.01231275 42.9128633,1.34674547 L42.4612439,2.0426541 C42.2430964,2.37888981 41.832943,2.53619037 41.4462269,2.43117298 L40.6457517,2.21618051 C40.2576835,2.11026175 39.8457272,2.26756242 39.6275796,2.6051502 C39.4089814,2.94273797 39.433771,3.38263877 39.689328,3.69318346 L40.2108088,4.33951317 C40.4059697,4.58245021 40.4641123,4.90786857 40.3649543,5.2035396 L45.6766664,3.5620246 L45.3350221,3.46962732 Z" id="Shape" fill="#FFE165"></path>
            <path d="M46.135948,3.68326772 L45.6744127,3.55932023 L40.3649543,5.19317305 C40.3442214,5.27024586 40.3131217,5.34416362 40.2730079,5.41312345 L39.8213885,6.10813071 C39.6027901,6.44391561 39.6257768,6.88246433 39.8781789,7.1939104 C40.1310318,7.5049059 40.5556081,7.61758535 40.9292533,7.4724542 L41.7026854,7.17498031 C42.0754293,7.03075054 42.4986535,7.14252861 42.7510556,7.45217192 L43.2729871,8.09805083 C43.5244878,8.40904621 43.9472612,8.52262715 44.3209066,8.37929887 C44.694101,8.23597048 44.9329816,7.86863526 44.9122486,7.46929915 L44.8689797,6.6386258 C44.8477959,6.23928968 45.0862257,5.87195446 45.4594202,5.72862618 L46.2333031,5.43115217 C46.6019905,5.28466884 46.8363638,4.9186858 46.8142786,4.52250463 C46.7921934,4.12587276 46.5190583,3.7878343 46.135948,3.68326772 Z" id="Shape" fill="#FFD839"></path>
            <path d="M15.4145565,4.64194499 C15.6701137,4.33185099 15.6953539,3.89149939 15.4767556,3.55391162 C15.2581573,3.21632384 14.8462011,3.05902328 14.4581329,3.16539273 L10.512998,4.22593222 C10.3922055,4.25567956 10.2664552,4.26018679 10.1438599,4.23855233 L4.88578342,14.0849383 L4.83620438,15.0517286 C4.81502071,15.4510647 5.05345052,15.8188506 5.42709574,15.962179 C5.80029026,16.1055072 6.22396521,15.992377 6.47546593,15.6809309 L9.04546006,12.5065238 C9.29786216,12.1973313 9.7215371,12.0855532 10.0938303,12.229783 L13.9073555,13.6928137 C14.2810007,13.8379449 14.7055771,13.7252654 14.9579792,13.4142699 C15.210832,13.1032745 15.2338186,12.6642751 15.0147696,12.3284902 L12.7837154,8.89942742 C12.5660186,8.56409321 12.5885544,8.12644609 12.8400552,7.81545059 L15.4145565,4.64194499 Z" id="Shape" fill="#FF9811"></path>
            <path d="M9.49933314,3.83921621 L7.27503965,0.413759207 C7.05599075,0.0824814278 6.64944303,-0.071213506 6.26633276,0.0315503196 C5.88277169,0.134313914 5.60783364,0.47054962 5.58394561,0.866730795 L5.36579809,4.94663038 C5.34506511,5.3464173 5.06922568,5.68716001 4.68296036,5.79037453 L0.737825382,6.8455054 C0.351109372,6.9487198 0.0748192502,7.28946263 0.0540861633,7.68879886 C0.0329023871,8.08858566 0.271782999,8.45637157 0.645428215,8.59924927 L4.45850273,10.0622799 C4.83169725,10.2056083 5.07057775,10.5733942 5.04939409,10.9727303 L4.88578342,14.0849383 L10.1402541,4.23855233 C9.87928847,4.20384707 9.64581647,4.05826512 9.49933314,3.83921621 Z" id="Shape" fill="#FFAF46"></path>
            <path d="M32.7342982,19.8329454 L25.9207938,9.34248327 C25.4854001,8.67136416 24.6673469,8.35721372 23.8943656,8.56409321 C23.1213841,8.7714235 22.5701559,9.45245847 22.5286899,10.2515815 L21.8742473,22.7436823 C21.8323306,23.541904 21.2811024,24.222939 20.5090224,24.4298185 L8.42617355,27.6673261 C7.65274141,27.873755 7.10016106,28.5547898 7.05824431,29.353913 C7.01632756,30.153036 7.49408867,30.8886078 8.2413791,31.1748138 L19.9199339,35.6572046 C20.6667737,35.9438612 21.1445348,36.6785316 21.102618,37.4776547 L20.5189382,48.5986713 L33.5388298,20.5040645 C33.2107071,20.364342 32.9308113,20.13087 32.7342982,19.8329454 Z" id="Shape" fill="#FFD839"></path>
            <path d="M48.7559719,20.3188194 C49.2580718,19.6972793 49.3035943,18.823337 48.8686514,18.1531193 C48.4337085,17.4829015 47.6170075,17.1683004 46.8449275,17.3742785 L34.7602756,20.6113353 C34.3528265,20.7172541 33.9214894,20.6793938 33.5388298,20.5040645 L20.5189382,48.5986713 L20.4454711,49.9693048 C20.4031037,50.7684279 20.8804141,51.503549 21.6272538,51.7902056 C22.3745443,52.0764116 23.2209928,51.8497005 23.7239941,51.2277095 L31.5957844,41.5066231 C32.0992364,40.885083 32.9456849,40.6583718 33.692074,40.9445778 L45.3710795,45.42787 C46.1174686,45.7158788 46.9648184,45.4900691 47.4687213,44.8685289 C47.972624,44.2469887 48.0190479,43.3716943 47.5836543,42.7001244 L40.7692485,32.2078595 C40.3338548,31.5371911 40.3798281,30.6618967 40.8828293,30.0403565 L48.7559719,20.3188194 Z" id="Shape" fill="#FFCD00"></path>
        </g>
    </g>
</svg>