<?xml version="1.0" encoding="UTF-8"?>
<svg width="73px" height="73px" viewBox="0 0 73 73" version="1.1" xmlns="http://www.w3.org/2000/svg" xmlns:xlink="http://www.w3.org/1999/xlink">
    <!-- Generator: Sketch 51.3 (57544) - http://www.bohemiancoding.com/sketch -->
    <title>accessibility/aria</title>
    <desc>Created with Sketch.</desc>
    <defs></defs>
    <g id="accessibility/aria" stroke="none" stroke-width="1" fill="none" fill-rule="evenodd">
        <g id="container" transform="translate(2.000000, 2.000000)" fill-rule="nonzero">
            <rect id="mask" stroke="#886817" stroke-width="2" fill="#FFFFFF" x="-1" y="-1" width="71" height="71" rx="14"></rect>
            <g id="key" transform="translate(13.000000, 13.000000)">
                <path d="M40.2144875,33.5224021 C39.9641388,33.2920996 37.4947758,33.4513986 37.4947758,33.4513986 L37.4666192,30.8388043 L36.2587936,29.4582135 L33.3958505,29.4113879 L33.3930961,29.4074093 C33.3810071,29.4462776 33.3917189,26.5337544 33.3917189,26.5337544 L32.0553523,25.5655658 C32.0553523,25.5655658 29.4562242,25.4892064 29.4348007,25.4691601 L29.2259217,22.7990285 L26.819605,19.9507758 C27.6511423,18.1564057 28.1305694,16.1624911 28.1305694,14.0533488 C28.1305694,6.29330249 21.8340534,0.00214234875 14.067427,0.00214234875 C6.29651601,0.000612099644 0,6.29177224 0,14.0518185 C0,21.813242 6.29651601,28.1056263 14.0645196,28.1056263 C16.2191103,28.1056263 18.2532705,27.606153 20.0783986,26.739726 L36.0739395,42.8316726 C36.0739395,42.8316726 42.8457509,42.8503416 42.8457509,42.8477402 L42.8564626,36.0130356 C42.8564626,36.0130356 41.7932456,34.9765979 40.2144875,33.5224021 Z M11.3810747,14.7482349 C9.539879,14.7482349 8.04803915,13.2470605 8.04803915,11.395153 C8.04803915,9.54324555 9.53972598,8.04069395 11.3810747,8.04069395 C13.2224235,8.04069395 14.7154875,9.54309253 14.7154875,11.395153 C14.7154875,13.2472135 13.2222705,14.7482349 11.3810747,14.7482349 Z" id="Shape" fill="#EFC75E"></path>
                <path d="M11.3836762,6.69744128 C8.79525979,6.69744128 6.69682918,8.79587189 6.69682918,11.3842883 C6.69682918,13.9727046 8.79525979,16.0711352 11.3836762,16.0711352 C13.9734698,16.0711352 16.0705231,13.9727046 16.0705231,11.3842883 C16.0705231,8.79587189 13.9734698,6.69744128 11.3836762,6.69744128 Z M11.3836762,13.3930463 C10.2748577,13.3930463 9.37507117,12.4931068 9.37507117,11.3844413 C9.37507117,10.2743986 10.2750107,9.3758363 11.3836762,9.3758363 C12.4924947,9.3758363 13.3922811,10.2743986 13.3922811,11.3844413 C13.3922811,12.4931068 12.4924947,13.3930463 11.3836762,13.3930463 Z" id="Shape" fill="#CA9F30"></path>
                <path d="M23.2963594,24.638694 C22.0175302,25.7528683 20.5377794,26.6326085 18.9161744,27.231242 L34.817911,42.8544733 L41.513363,42.8544733 L23.2963594,24.638694 Z" id="Shape" fill="#CA9F30"></path>
            </g>
        </g>
    </g>
</svg>