<?xml version="1.0" encoding="UTF-8"?>
<svg width="73px" height="73px" viewBox="0 0 73 73" version="1.1" xmlns="http://www.w3.org/2000/svg" xmlns:xlink="http://www.w3.org/1999/xlink">
    <!-- Generator: Sketch 51.3 (57544) - http://www.bohemiancoding.com/sketch -->
    <title>accessibility/audits</title>
    <desc>Created with Sketch.</desc>
    <defs></defs>
    <g id="accessibility/audits" stroke="none" stroke-width="1" fill="none" fill-rule="evenodd">
        <g id="container" transform="translate(2.000000, 2.000000)" fill-rule="nonzero">
            <rect id="mask" stroke="#484B63" stroke-width="2" fill="#FFFFFF" x="-1" y="-1" width="71" height="71" rx="14"></rect>
            <g id="analytics" transform="translate(12.000000, 14.000000)">
                <g id="Group" transform="translate(8.173828, 0.000000)">
                    <path d="M28.2352148,45 L0.417128906,45 C0.222978516,45 0.0655664062,44.8425879 0.0655664062,44.6484375 L0.0655664062,0.3515625 C0.0655664062,0.157412109 0.222978516,0 0.417128906,0 L28.235127,0 C28.4292773,0 28.5866895,0.157412109 28.5866895,0.3515625 L28.5866895,44.6484375 C28.5867773,44.8425879 28.4293652,45 28.2352148,45 Z" id="Shape" fill="#D8D5ED"></path>
                    <path d="M25.8704297,0 L25.8704297,45 L28.235127,45 C28.4292773,45 28.5866895,44.8425879 28.5866895,44.6484375 L28.5866895,0.3515625 C28.5866895,0.157412109 28.4292773,0 28.235127,0 L25.8704297,0 Z" id="Shape" fill="#BEBADE"></path>
                    <g transform="translate(3.691406, 23.466797)" fill="#484B63" id="Shape">
                        <path d="M0.675,1.31932617 L20.5945312,1.31932617 C20.9586621,1.31932617 21.2537109,1.02427734 21.2537109,0.660146484 C21.2537109,0.296015625 20.9586621,0.000966796875 20.5945312,0.000966796875 L0.675,0.000966796875 C0.310869141,0.000966796875 0.0158203125,0.296015625 0.0158203125,0.660146484 C0.0158203125,1.02427734 0.310869141,1.31932617 0.675,1.31932617 Z"></path>
                        <path d="M20.5945312,3.01904297 L0.675,3.01904297 C0.310869141,3.01904297 0.0158203125,3.3140918 0.0158203125,3.67822266 C0.0158203125,4.04235352 0.310869141,4.33740234 0.675,4.33740234 L20.5945312,4.33740234 C20.9586621,4.33740234 21.2537109,4.04235352 21.2537109,3.67822266 C21.2537109,3.3140918 20.9586621,3.01904297 20.5945312,3.01904297 Z"></path>
                        <path d="M20.5945312,6.03711914 L0.675,6.03711914 C0.310869141,6.03711914 0.0158203125,6.33216797 0.0158203125,6.69629883 C0.0158203125,7.06042969 0.310869141,7.35547852 0.675,7.35547852 L20.5945312,7.35547852 C20.9586621,7.35547852 21.2537109,7.06042969 21.2537109,6.69629883 C21.2537109,6.33216797 20.9586621,6.03711914 20.5945312,6.03711914 Z"></path>
                        <path d="M5.75270508,9.05519531 L0.675,9.05519531 C0.310869141,9.05519531 0.0158203125,9.35024414 0.0158203125,9.714375 C0.0158203125,10.0785059 0.310869141,10.3735547 0.675,10.3735547 L5.75270508,10.3735547 C6.11683594,10.3735547 6.41188477,10.0785059 6.41188477,9.714375 C6.41188477,9.35024414 6.11683594,9.05519531 5.75270508,9.05519531 Z"></path>
                    </g>
                </g>
                <g id="Group" transform="translate(14.501953, 4.746094)">
                    <path d="M15.6142969,13.4520996 L0.381796875,13.4520996 C0.187646484,13.4520996 0.030234375,13.2946875 0.030234375,13.1005371 L0.030234375,0.403330078 C0.030234375,0.209179687 0.187646484,0.0517675781 0.381796875,0.0517675781 L15.6142969,0.0517675781 C15.8084473,0.0517675781 15.9658594,0.209179687 15.9658594,0.403330078 L15.9658594,13.100625 C15.9658594,13.2946875 15.8084473,13.4520996 15.6142969,13.4520996 Z" id="Shape" fill="#4FC6F5"></path>
                    <path d="M0.030234375,10.6224609 L4.80401367,6.4331543 C4.92925781,6.32320313 5.11470703,6.31705078 5.24707031,6.41830078 L14.439375,13.4521875 L0.381796875,13.4521875 C0.187646484,13.4521875 0.030234375,13.2947754 0.030234375,13.100625 L0.030234375,10.6224609 Z" id="Shape" fill="#FFBD54"></path>
                    <circle id="Oval" fill="#FFD659" cx="11.6468262" cy="3.69711914" r="1.71272461"></circle>
                    <path d="M11.1519141,10.9366699 L15.9657715,6.75193359 L15.9657715,13.1005371 C15.9657715,13.2946875 15.8083594,13.4520996 15.614209,13.4520996 L14.4391992,13.4520996 L11.1519141,10.9366699 Z" id="Shape" fill="#FFA954"></path>
                </g>
                <path d="M0.397792969,28.8959766 C-0.132626953,28.3655566 -0.132626953,27.5056348 0.397792969,26.9753027 L9.29707031,18.0759375 L11.2177441,19.9966113 L2.3184668,28.8959766 C1.78813477,29.4263086 0.928212891,29.4263086 0.397792969,28.8959766 Z" id="Shape" fill="#484B63"></path>
                <g id="Group" transform="translate(12.392578, 8.613281)">
                    <path d="M0.0192480469,32.0586328 C0.602138672,27.471709 2.83236328,27.1796484 2.83236328,27.1796484 L5.43234375,29.7796289 C5.43234375,29.7796289 5.14116211,32.0107324 0.553447266,32.5929199 C0.244072266,32.6322949 -0.0200390625,32.3680957 0.0192480469,32.0586328 Z" id="Shape" fill="#FFD659"></path>
                    <path d="M4.45851563,28.153916 C4.20099609,27.8965723 3.78369141,27.8965723 3.52625977,28.153916 L2.24736328,29.4328125 C1.98993164,29.690332 1.98993164,30.1076367 2.24736328,30.3650684 C2.37612305,30.4937402 2.54487305,30.5580762 2.71353516,30.5580762 C2.88219727,30.5580762 3.05094727,30.4937402 3.17970703,30.3650684 L4.45860352,29.0861719 C4.71585938,28.8287402 4.71585938,28.4114355 4.45851563,28.153916 Z" id="Shape" fill="#484B63"></path>
                    <path d="M5.59740234,30.2251465 L2.38728516,27.0150293 C2.21431641,26.8420605 2.21431641,26.5615137 2.38728516,26.3885449 L28.3867383,0.388916016 C28.8987891,-0.123134766 29.7290039,-0.123134766 30.2410547,0.388916016 L32.2233398,2.37120117 C32.7353906,2.88325195 32.7353906,3.7134668 32.2233398,4.22551758 L6.22388672,30.2251465 C6.05091797,30.3982031 5.77037109,30.3982031 5.59740234,30.2251465 Z" id="Shape" fill="#FF2C5C"></path>
                    <path d="M32.2233398,2.37120117 L30.3050391,0.452900391 C30.8170898,0.964951172 30.8170898,1.79516602 30.3050391,2.3072168 L4.30558594,28.3068457 C4.13261719,28.4798145 3.85207031,28.4798145 3.67910156,28.3068457 L5.59740234,30.2251465 C5.77037109,30.3981152 6.05091797,30.3981152 6.22388672,30.2251465 L32.2233398,4.22551758 C32.7354785,3.7134668 32.7354785,2.88325195 32.2233398,2.37120117 Z" id="Shape" fill="#E62753"></path>
                    <path d="M5.59740234,30.2251465 L2.38728516,27.0150293 C2.21431641,26.8420605 2.21431641,26.5615137 2.38728516,26.3885449 L3.99234375,24.7834863 L7.82894531,28.6200879 L6.22388672,30.2251465 C6.05091797,30.3982031 5.77037109,30.3982031 5.59740234,30.2251465 Z" id="Shape" fill="#4FC6F5"></path>
                    <path d="M5.91064453,26.7017871 L4.30558594,28.3068457 C4.13261719,28.4798145 3.85207031,28.4798145 3.67910156,28.3068457 L5.59740234,30.2251465 C5.77037109,30.3981152 6.05091797,30.3981152 6.22388672,30.2251465 L7.82894531,28.6200879 L5.91064453,26.7017871 Z" id="Shape" fill="#3BB3E3"></path>
                    <rect id="Rectangle-path" fill="#4FC6F5" transform="translate(27.344623, 5.267343) rotate(-45.000000) translate(-27.344623, -5.267343) " x="25.9881761" y="2.55444943" width="2.7128939" height="5.42578781"></rect>
                    <rect id="Rectangle-path" fill="#3BB3E3" transform="translate(28.303784, 6.226534) rotate(-45.000000) translate(-28.303784, -6.226534) " x="26.9473368" y="4.87008664" width="2.7128939" height="2.7128939"></rect>
                </g>
                <path d="M42.3823535,41.785752 L31.5914941,41.785752 C30.9708984,41.785752 30.4678125,41.282666 30.4678125,40.6620703 L30.4678125,36.571377 C30.4678125,35.9507812 30.9708984,35.4476953 31.5914941,35.4476953 L42.3824414,35.4476953 C43.0030371,35.4476953 43.506123,35.9507812 43.506123,36.571377 L43.506123,40.6620703 C43.5060352,41.282666 43.0029492,41.785752 42.3823535,41.785752 Z" id="Shape" fill="#4FC6F5"></path>
                <path d="M42.3823535,41.785752 L38.0355469,41.785752 L38.0355469,35.4476953 L42.3823535,35.4476953 C43.0029492,35.4476953 43.5060352,35.9507812 43.5060352,36.571377 L43.5060352,40.6620703 C43.5060352,41.282666 43.0029492,41.785752 42.3823535,41.785752 Z" id="Shape" fill="#FF2C5C"></path>
                <path d="M42.3823535,35.4476953 L39.6660938,35.4476953 C40.2866895,35.4476953 40.7897754,35.9507812 40.7897754,36.571377 L40.7897754,40.6620703 C40.7897754,41.282666 40.2866895,41.785752 39.6660938,41.785752 L42.3823535,41.785752 C43.0029492,41.785752 43.5060352,41.282666 43.5060352,40.6620703 L43.5060352,36.571377 C43.5060352,35.9507813 43.0029492,35.4476953 42.3823535,35.4476953 Z" id="Shape" fill="#E62753"></path>
                <rect id="Rectangle-path" fill="#B5FCFF" x="35.3192871" y="35.4476953" width="2.71625977" height="6.33805664"></rect>
                <path d="M9.06512695,19.3999219 C6.2409375,16.5757324 6.2409375,11.9803711 9.06512695,9.15609375 C11.8893164,6.33181641 16.4846777,6.3319043 19.3089551,9.15609375 C22.1332324,11.9802832 22.1331445,16.5756445 19.3089551,19.3999219 C16.4847656,22.2241992 11.8894043,22.2241113 9.06512695,19.3999219 Z" id="Shape" fill="#B5FCFF"></path>
                <path d="M19.3089551,9.15609375 C18.9806836,8.82782227 18.627627,8.53927734 18.2569922,8.28738281 C20.1726563,11.1048926 19.8841992,14.9833301 17.3882813,17.479248 C14.8923633,19.975166 11.0139258,20.263623 8.19641602,18.347959 C8.44839844,18.7185938 8.73685547,19.0716504 9.06512695,19.3999219 C11.8894043,22.2241992 16.4846777,22.2241113 19.3089551,19.3999219 C22.1331445,16.5756445 22.1332324,11.9803711 19.3089551,9.15609375 Z" id="Shape" fill="#71F6FC"></path>
                <path d="M19.7750391,8.68992187 C16.6938574,5.60874023 11.6803125,5.60874023 8.59904297,8.68992187 C7.10868164,10.1803711 6.2877832,12.1649414 6.2877832,14.2780078 C6.2877832,16.3910742 7.10868164,18.3755566 8.59904297,19.8660059 C10.0894922,21.3563672 12.0739746,22.1772656 14.187041,22.1772656 C16.3001074,22.1772656 18.2846777,21.3563672 19.775127,19.8660059 C22.8563086,16.7848242 22.8563086,11.7712793 19.7750391,8.68992187 Z M18.8428711,18.93375 C17.6015039,20.1752051 15.9479297,20.8589063 14.187041,20.8589063 C12.4261523,20.8589063 10.772666,20.1752051 9.53129883,18.93375 C8.28984375,17.6923828 7.60614258,16.0388965 7.60614258,14.2780078 C7.60614258,12.5171191 8.28984375,10.8635449 9.53129883,9.62217773 C10.8149414,8.33844727 12.5006836,7.69675781 14.187041,7.69675781 C15.872959,7.69675781 17.5594043,8.33879883 18.8428711,9.62208984 C21.4100684,12.189375 21.4100684,16.3666406 18.8428711,18.93375 Z" id="Shape" fill="#484B63"></path>
            </g>
        </g>
    </g>
</svg>