<?xml version="1.0" encoding="UTF-8"?>
<svg width="73px" height="73px" viewBox="0 0 73 73" version="1.1" xmlns="http://www.w3.org/2000/svg" xmlns:xlink="http://www.w3.org/1999/xlink">
    <!-- Generator: Sketch 51.3 (57544) - http://www.bohemiancoding.com/sketch -->
    <title>accessibility/keyboard-accessibility</title>
    <desc>Created with Sketch.</desc>
    <defs></defs>
    <g id="accessibility/keyboard-accessibility" stroke="none" stroke-width="1" fill="none" fill-rule="evenodd">
        <g id="container" transform="translate(2.000000, 2.000000)" fill="#FFFFFF" fill-rule="nonzero" stroke="#4D4D4D" stroke-width="2">
            <rect id="mask" x="-1" y="-1" width="71" height="71" rx="14"></rect>
        </g>
        <g id="keyboard" transform="translate(12.000000, 19.000000)" fill-rule="nonzero">
            <path d="M7.07158203,14.0404297 C6.66699219,14.0404297 6.33916016,13.7125 6.33916016,13.3080078 L6.33916016,13.1126953 C6.33916016,11.327832 7.79121094,9.87578125 9.57607422,9.87578125 L39.7978516,9.87578125 C40.775,9.87578125 41.5699219,9.08076172 41.5699219,8.10361328 C41.5699219,7.12646484 40.7749023,6.33144531 39.7978516,6.33144531 L9.07519531,6.33144531 C7.29033203,6.33144531 5.83828125,4.87939453 5.83828125,3.09453125 L5.83828125,0.756933594 C5.83828125,0.352441406 6.16611328,0.0245117188 6.57070312,0.0245117188 C6.97529297,0.0245117188 7.303125,0.352441406 7.303125,0.756933594 L7.303125,3.09453125 C7.303125,4.07167969 8.09814453,4.86660156 9.07519531,4.86660156 L39.7978516,4.86660156 C41.5827148,4.86660156 43.0347656,6.31875 43.0347656,8.10361328 C43.0347656,9.88847656 41.5827148,11.340625 39.7978516,11.340625 L9.57617187,11.340625 C8.59902344,11.340625 7.80410156,12.1355469 7.80410156,13.1126953 L7.80410156,13.3080078 C7.80400391,13.7125977 7.47617187,14.0404297 7.07158203,14.0404297 Z" id="Shape" fill="#4D4D4D"></path>
            <path d="M48.1144531,35.1317383 L1.88554687,35.1317383 C0.844238281,35.1317383 0,34.2875 0,33.2461914 L0,15.2283203 C0,14.1869141 0.844238281,13.3427734 1.88554687,13.3427734 L48.1144531,13.3427734 C49.1558594,13.3427734 50,14.1870117 50,15.2283203 L50,33.2461914 C50,34.2875 49.1557617,35.1317383 48.1144531,35.1317383 Z" id="Shape" fill="#CCCCCC"></path>
            <path d="M49.2723633,13.9194336 C49.302832,14.065918 49.3192383,14.2174805 49.3192383,14.3729492 L49.3192383,31.7334961 C49.3192383,32.9563477 48.3279297,33.9477539 47.1049805,33.9477539 L1.53349609,33.9477539 C0.960449219,33.9477539 0.440039062,33.7282227 0.046875,33.3710938 C0.256152344,34.3763672 1.146875,35.1318359 2.21425781,35.1318359 L47.7857422,35.1318359 C49.0086914,35.1318359 50,34.1405273 50,32.9175781 L50,15.5568359 C50,14.9070312 49.7182617,14.3244141 49.2723633,13.9194336 Z" id="Shape" fill="#ADADAD"></path>
            <g id="Group" transform="translate(3.515625, 16.894531)" fill="#4D4D4D">
                <path d="M42.4192383,5.29755859 L39.9481445,5.29755859 C39.6664062,5.29755859 39.4379883,5.52597656 39.4379883,5.80761719 L39.4379883,8.87763672 C39.4379883,9.159375 39.6664062,9.38779297 39.9481445,9.38779297 L42.4192383,9.38779297 C42.7009766,9.38779297 42.9292969,9.159375 42.9292969,8.87763672 L42.9292969,5.80761719 C42.9292969,5.52597656 42.7009766,5.29755859 42.4192383,5.29755859 Z" id="Shape"></path>
                <path d="M42.4192383,0.00322265625 L39.9481445,0.00322265625 C39.6664062,0.00322265625 39.4379883,0.231640625 39.4379883,0.513378906 L39.4379883,3.98476562 C39.4379883,4.26650391 39.6664062,4.49492187 39.9481445,4.49492187 L42.4192383,4.49492187 C42.7009766,4.49492187 42.9292969,4.26650391 42.9292969,3.98476562 L42.9292969,0.513378906 C42.9292969,0.231542969 42.7009766,0.00322265625 42.4192383,0.00322265625 Z" id="Shape"></path>
                <path d="M38.1251953,5.29755859 L35.7625977,5.29755859 C35.4808594,5.29755859 35.2525391,5.52597656 35.2525391,5.80761719 L35.2525391,8.87763672 C35.2525391,9.159375 35.480957,9.38779297 35.7625977,9.38779297 L38.1251953,9.38779297 C38.4069336,9.38779297 38.6352539,9.159375 38.6352539,8.87763672 L38.6352539,5.80761719 C38.6352539,5.52597656 38.4069336,5.29755859 38.1251953,5.29755859 Z" id="Shape"></path>
                <path d="M38.1251953,10.1905273 L35.7625977,10.1905273 C35.4808594,10.1905273 35.2525391,10.4189453 35.2525391,10.7005859 L35.2525391,14.1719727 C35.2525391,14.4537109 35.480957,14.6820312 35.7626953,14.6820312 L38.125293,14.6820312 C38.4070312,14.6820312 38.6353516,14.4536133 38.6353516,14.1719727 L38.6353516,10.7005859 C38.6352539,10.4189453 38.4069336,10.1905273 38.1251953,10.1905273 Z" id="Shape"></path>
                <path d="M38.1251953,0.00322265625 L35.7625977,0.00322265625 C35.4808594,0.00322265625 35.2524414,0.231640625 35.2524414,0.513378906 L35.2524414,3.98476562 C35.2524414,4.26650391 35.4808594,4.49482422 35.7625,4.49482422 L38.1250977,4.49482422 C38.4068359,4.49482422 38.6351562,4.26640625 38.6351562,3.98466797 L38.6351562,0.51328125 C38.6352539,0.231542969 38.4069336,0.00322265625 38.1251953,0.00322265625 Z" id="Shape"></path>
                <path d="M42.4192383,10.1905273 L39.9481445,10.1905273 C39.6664062,10.1905273 39.4379883,10.4189453 39.4379883,10.7005859 L39.4379883,14.1719727 C39.4379883,14.4537109 39.6664062,14.6820312 39.9481445,14.6820312 L42.4192383,14.6820312 C42.7009766,14.6820312 42.9292969,14.4536133 42.9292969,14.1719727 L42.9292969,10.7005859 C42.9292969,10.4189453 42.7009766,10.1905273 42.4192383,10.1905273 Z" id="Shape"></path>
                <path d="M9.59160156,10.1905273 L6.0421875,10.1905273 C5.77158203,10.1905273 5.55214844,10.4099609 5.55214844,10.6805664 L5.55214844,14.1919922 C5.55214844,14.4625977 5.77158203,14.6820312 6.0421875,14.6820312 L9.59160156,14.6820312 C9.86220703,14.6820312 10.0816406,14.4625977 10.0816406,14.1919922 L10.0816406,10.6805664 C10.0816406,10.4099609 9.86230469,10.1905273 9.59160156,10.1905273 Z" id="Shape"></path>
                <path d="M8.96630859,5.29755859 C8.69570312,5.29755859 8.47626953,5.51699219 8.47626953,5.78759766 L8.47626953,8.89765625 C8.47626953,9.16835937 8.69570312,9.38769531 8.96630859,9.38769531 L12.5157227,9.38769531 C12.7863281,9.38769531 13.0057617,9.16826172 13.0057617,8.89765625 L13.0057617,5.78759766 C13.0057617,5.51689453 12.7863281,5.29755859 12.5157227,5.29755859 L8.96630859,5.29755859 Z" id="Shape"></path>
                <path d="M20.2561523,10.1905273 L11.3745117,10.1905273 C11.1039063,10.1905273 10.8844727,10.4099609 10.8844727,10.6805664 L10.8844727,14.1919922 C10.8844727,14.4625977 11.1039062,14.6820312 11.3745117,14.6820312 L20.2561523,14.6820312 C20.5267578,14.6820312 20.7461914,14.4625977 20.7461914,14.1919922 L20.7461914,10.6805664 C20.7462891,10.4099609 20.5268555,10.1905273 20.2561523,10.1905273 Z" id="Shape"></path>
                <path d="M3.97802734,5.29755859 C3.70742187,5.29755859 3.48798828,5.51699219 3.48798828,5.78759766 L3.48798828,8.89765625 C3.48798828,9.16835937 3.70742187,9.38769531 3.97802734,9.38769531 L7.18339844,9.38769531 C7.45400391,9.38769531 7.6734375,9.16826172 7.6734375,8.89765625 L7.6734375,5.78759766 C7.6734375,5.51689453 7.45400391,5.29755859 7.18339844,5.29755859 L3.97802734,5.29755859 Z" id="Shape"></path>
                <path d="M14.2987305,5.29755859 C14.028125,5.29755859 13.8086914,5.51699219 13.8086914,5.78759766 L13.8086914,8.89765625 C13.8086914,9.16835937 14.028125,9.38769531 14.2987305,9.38769531 L17.8480469,9.38769531 C18.1186523,9.38769531 18.3380859,9.16826172 18.3380859,8.89765625 L18.3380859,5.78759766 C18.3380859,5.51689453 18.1186523,5.29755859 17.8480469,5.29755859 L14.2987305,5.29755859 Z" id="Shape"></path>
                <path d="M30.684082,0.00322265625 L27.3713867,0.00322265625 C27.1007813,0.00322265625 26.8813477,0.22265625 26.8813477,0.493261719 L26.8813477,4.0046875 C26.8813477,4.27539062 27.1007813,4.49472656 27.3713867,4.49472656 L30.684082,4.49472656 C30.9547852,4.49472656 31.1741211,4.27529297 31.1741211,4.0046875 L31.1741211,0.493164063 C31.1741211,0.222558594 30.9547852,0.00322265625 30.684082,0.00322265625 Z" id="Shape"></path>
                <path d="M25.5885742,10.1905273 L22.0390625,10.1905273 C21.7683594,10.1905273 21.5490234,10.4099609 21.5490234,10.6805664 L21.5490234,14.1919922 C21.5490234,14.4625977 21.768457,14.6820312 22.0390625,14.6820312 L25.5884766,14.6820312 C25.859082,14.6820312 26.0785156,14.4625977 26.0785156,14.1919922 L26.0785156,10.6805664 C26.0786133,10.4099609 25.8591797,10.1905273 25.5885742,10.1905273 Z" id="Shape"></path>
                <path d="M6.0421875,4.49482422 L9.59160156,4.49482422 C9.86220703,4.49482422 10.0816406,4.27539062 10.0816406,4.00478516 L10.0816406,0.493359375 C10.0816406,0.22265625 9.86220703,0.0033203125 9.59160156,0.0033203125 L6.0421875,0.0033203125 C5.77158203,0.0033203125 5.55214844,0.222753906 5.55214844,0.493359375 L5.55214844,4.00478516 C5.55205078,4.27539062 5.77148437,4.49482422 6.0421875,4.49482422 Z" id="Shape"></path>
                <path d="M0.529492187,5.29755859 C0.258886719,5.29755859 0.039453125,5.51699219 0.039453125,5.78759766 L0.039453125,8.89765625 C0.039453125,9.16835937 0.258886719,9.38769531 0.529492187,9.38769531 L2.19511719,9.38769531 C2.46572266,9.38769531 2.68515625,9.16826172 2.68515625,8.89765625 L2.68515625,5.78759766 C2.68515625,5.51689453 2.46572266,5.29755859 2.19511719,5.29755859 L0.529492187,5.29755859 Z" id="Shape"></path>
                <path d="M4.25927734,10.1905273 L0.529492187,10.1905273 C0.258886719,10.1905273 0.039453125,10.4099609 0.039453125,10.6805664 L0.039453125,14.1919922 C0.039453125,14.4625977 0.258886719,14.6820312 0.529492187,14.6820312 L4.25927734,14.6820312 C4.52998047,14.6820312 4.74931641,14.4625977 4.74931641,14.1919922 L4.74931641,10.6805664 C4.74931641,10.4099609 4.52988281,10.1905273 4.25927734,10.1905273 Z" id="Shape"></path>
                <path d="M0.529492187,4.49482422 L4.25927734,4.49482422 C4.52998047,4.49482422 4.74931641,4.27539062 4.74931641,4.00478516 L4.74931641,0.493359375 C4.74931641,0.22265625 4.52988281,0.0033203125 4.25927734,0.0033203125 L0.529492187,0.0033203125 C0.258886719,0.0033203125 0.039453125,0.222753906 0.039453125,0.493359375 L0.039453125,4.00478516 C0.039453125,4.27539062 0.258886719,4.49482422 0.529492187,4.49482422 Z" id="Shape"></path>
                <path d="M11.3745117,4.49482422 L14.9239258,4.49482422 C15.1945313,4.49482422 15.4139648,4.27539062 15.4139648,4.00478516 L15.4139648,0.493359375 C15.4139648,0.22265625 15.1945313,0.0033203125 14.9239258,0.0033203125 L11.3745117,0.0033203125 C11.1039063,0.0033203125 10.8844727,0.222753906 10.8844727,0.493359375 L10.8844727,4.00478516 C10.8844727,4.27539062 11.1038086,4.49482422 11.3745117,4.49482422 Z" id="Shape"></path>
                <path d="M30.684082,10.1905273 L27.3713867,10.1905273 C27.1007813,10.1905273 26.8813477,10.4099609 26.8813477,10.6805664 L26.8813477,14.1919922 C26.8813477,14.4625977 27.1007813,14.6820312 27.3713867,14.6820312 L30.684082,14.6820312 C30.9547852,14.6820312 31.1741211,14.4625977 31.1741211,14.1919922 L31.1741211,10.6805664 C31.1741211,10.4099609 30.9547852,10.1905273 30.684082,10.1905273 Z" id="Shape"></path>
                <path d="M19.630957,5.29755859 C19.3603516,5.29755859 19.140918,5.51699219 19.140918,5.78759766 L19.140918,8.89765625 C19.140918,9.16835937 19.3603516,9.38769531 19.630957,9.38769531 L23.1803711,9.38769531 C23.4509766,9.38769531 23.6704102,9.16826172 23.6704102,8.89765625 L23.6704102,5.78759766 C23.6704102,5.51689453 23.4509766,5.29755859 23.1803711,5.29755859 L19.630957,5.29755859 Z" id="Shape"></path>
                <path d="M16.7068359,4.49482422 L20.2561523,4.49482422 C20.5267578,4.49482422 20.7461914,4.27539062 20.7461914,4.00478516 L20.7461914,0.493359375 C20.7461914,0.22265625 20.5267578,0.0033203125 20.2561523,0.0033203125 L16.7068359,0.0033203125 C16.4362305,0.0033203125 16.2167969,0.222753906 16.2167969,0.493359375 L16.2167969,4.00478516 C16.2167969,4.27539062 16.4362305,4.49482422 16.7068359,4.49482422 Z" id="Shape"></path>
                <path d="M30.684082,5.29755859 L24.9632812,5.29755859 C24.6926758,5.29755859 24.4732422,5.51699219 24.4732422,5.78759766 L24.4732422,8.89765625 C24.4732422,9.16835937 24.6926758,9.38769531 24.9632812,9.38769531 L30.684082,9.38769531 C30.9547852,9.38769531 31.1741211,9.16826172 31.1741211,8.89765625 L31.1741211,5.78759766 C31.1741211,5.51689453 30.9547852,5.29755859 30.684082,5.29755859 Z" id="Shape"></path>
                <path d="M22.0390625,4.49482422 L25.5884766,4.49482422 C25.859082,4.49482422 26.0785156,4.27539062 26.0785156,4.00478516 L26.0785156,0.493359375 C26.0785156,0.22265625 25.859082,0.0033203125 25.5884766,0.0033203125 L22.0390625,0.0033203125 C21.7683594,0.0033203125 21.5490234,0.222753906 21.5490234,0.493359375 L21.5490234,4.00478516 C21.5490234,4.27539062 21.768457,4.49482422 22.0390625,4.49482422 Z" id="Shape"></path>
            </g>
        </g>
    </g>
</svg>