<?xml version="1.0" encoding="UTF-8"?>
<svg width="73px" height="73px" viewBox="0 0 73 73" version="1.1" xmlns="http://www.w3.org/2000/svg" xmlns:xlink="http://www.w3.org/1999/xlink">
    <!-- Generator: Sketch 51.3 (57544) - http://www.bohemiancoding.com/sketch -->
    <title>accessibility/laws-and-policies</title>
    <desc>Created with Sketch.</desc>
    <defs></defs>
    <g id="accessibility/laws-and-policies" stroke="none" stroke-width="1" fill="none" fill-rule="evenodd">
        <g id="container" transform="translate(2.000000, 2.000000)" fill="#FFFFFF" fill-rule="nonzero" stroke="#484B63" stroke-width="2">
            <rect id="mask" x="-1" y="-1" width="71" height="71" rx="14"></rect>
        </g>
        <g id="justice" transform="translate(14.000000, 14.000000)" fill-rule="nonzero">
            <path d="M17.9487241,9.79324138 L17.0937586,8.93827586 C16.7106897,8.5552069 16.7106897,7.93341379 17.0937586,7.55034483 L24.1174828,0.52662069 C24.5005517,0.143551724 25.1223448,0.143551724 25.5054138,0.52662069 L26.3603793,1.38158621 C26.7434483,1.76465517 26.7434483,2.38644828 26.3603793,2.76951724 L19.3366552,9.79324138 C18.9535862,10.1763103 18.3317931,10.1763103 17.9487241,9.79324138 Z" id="Shape" fill="#744716"></path>
            <path d="M33.6513793,25.4958966 L32.7964138,24.640931 C32.4133448,24.2578621 32.4133448,23.636069 32.7964138,23.253 L39.8201379,16.2292759 C40.2032069,15.8462069 40.825,15.8462069 41.208069,16.2292759 L42.0630345,17.0842414 C42.4461034,17.4673103 42.4461034,18.0891034 42.0630345,18.4721724 L35.0393103,25.4958966 C34.6562414,25.8789655 34.0344483,25.8789655 33.6513793,25.4958966 Z" id="Shape" fill="#744716"></path>
            <path d="M39.8201379,14.8405517 L38.831931,13.8523448 C38.525,13.5454138 38.0205862,13.5343103 37.7168276,13.8452069 C37.4075172,14.1616552 36.9007241,14.1640345 36.5882414,13.8523448 L28.7373103,6.00141379 C28.4303793,5.69448276 28.4192759,5.19006897 28.7301724,4.88710345 C29.0466207,4.5777931 29.049,4.0702069 28.7373103,3.75851724 L27.7491034,2.77031034 C27.3660345,2.38724138 26.7442414,2.38724138 26.3611724,2.77031034 L19.3374483,9.79403448 C18.9543793,10.1771034 18.9543793,10.7988966 19.3374483,11.1819655 L20.3256552,12.1701724 C20.6325862,12.4771034 21.137,12.4882069 21.4399655,12.1773103 C21.7492759,11.8608621 22.2568621,11.8584828 22.5685517,12.1701724 L23.8343448,13.4359655 C24.3736552,13.9752759 24.3736552,14.8508621 23.8343448,15.3901724 L17.5212414,21.7032759 L16.3997931,20.5818276 C15.7803793,19.9624138 14.7763103,19.9624138 14.1568966,20.5818276 C13.5374828,21.2012414 13.5374828,22.2053103 14.1568966,22.8247241 L15.2783448,23.9461724 L7.52575862,31.6987586 C7.00548276,32.2190345 6.35275862,32.5886207 5.63896552,32.767069 L3.335,33.3428621 C2.6212069,33.5213103 1.96848276,33.8908966 1.4482069,34.4111724 L1.18965517,34.6697241 C0.428275862,35.4318966 0,36.4645172 0,37.5423448 C0,38.6193793 0.428275862,39.6527931 1.18965517,40.4141724 L2.17548276,41.4 C2.93686207,42.1613793 3.97027586,42.5896552 5.04731034,42.5896552 C6.12434483,42.5896552 7.15775862,42.1613793 7.91913793,41.4 L8.17689655,41.1422414 C8.69717241,40.6219655 9.06675862,39.9692414 9.2452069,39.2554483 L9.821,36.9514828 C9.99944828,36.2376897 10.3690345,35.5849655 10.8893103,35.0646897 L18.6418966,27.3121034 L19.7633448,28.4335517 C20.3827586,29.0529655 21.3868276,29.0529655 22.0062414,28.4335517 C22.6256552,27.8141379 22.6256552,26.810069 22.0062414,26.1906552 L20.8847931,25.0692069 L27.1978966,18.7561034 C27.7372069,18.2167931 28.6127931,18.2167931 29.1521034,18.7561034 L30.4178966,20.0218966 C30.7248276,20.3288276 30.735931,20.8332414 30.4250345,21.137 C30.1085862,21.4463103 30.1062069,21.9531034 30.4178966,22.2655862 L31.4061034,23.2537931 C31.7891724,23.6368621 32.4109655,23.6368621 32.7940345,23.2537931 L39.8177586,16.230069 C40.2032069,15.8454138 40.2032069,15.2236207 39.8201379,14.8405517 Z" id="Shape" fill="#9D714B"></path>
            <path d="M46,45.762069 L29.3448276,45.762069 C29.3448276,43.1337241 31.4751034,41.0034483 34.1034483,41.0034483 L41.2413793,41.0034483 C43.8697241,41.0034483 46,43.1337241 46,45.762069 Z" id="Shape" fill="#9D714B"></path>
            <path d="M42.8275862,41.0034483 L32.5172414,41.0034483 C32.0794483,41.0034483 31.7241379,40.648931 31.7241379,40.2103448 C31.7241379,39.7717586 32.0794483,39.4172414 32.5172414,39.4172414 L42.8275862,39.4172414 C43.2653793,39.4172414 43.6206897,39.7717586 43.6206897,40.2103448 C43.6206897,40.648931 43.2653793,41.0034483 42.8275862,41.0034483 Z" id="Shape" fill="#744818"></path>
        </g>
    </g>
</svg>