<?xml version="1.0" encoding="UTF-8"?>
<svg width="73px" height="73px" viewBox="0 0 73 73" version="1.1" xmlns="http://www.w3.org/2000/svg" xmlns:xlink="http://www.w3.org/1999/xlink">
    <!-- Generator: Sketch 51.3 (57544) - http://www.bohemiancoding.com/sketch -->
    <title>accessibility/screen-readers</title>
    <desc>Created with Sketch.</desc>
    <defs></defs>
    <g id="accessibility/screen-readers" stroke="none" stroke-width="1" fill="none" fill-rule="evenodd">
        <g id="container" transform="translate(2.000000, 2.000000)" fill-rule="nonzero">
            <rect id="mask" stroke="#C90A23" stroke-width="2" fill="#FFFFFF" x="-1" y="-1" width="71" height="71" rx="14"></rect>
            <g id="open-book" transform="translate(8.000000, 15.000000)">
                <path d="M50.4354839,5.24336694 L2.56451613,5.24336694 C1.15039919,5.24336694 0,6.39376613 0,7.80788306 L0,36.0175605 C0,37.4316774 1.15039919,38.5820766 2.56451613,38.5820766 L50.4354839,38.5820766 C51.8496008,38.5820766 53,37.4316774 53,36.0175605 L53,7.80788306 C53,6.39376613 51.8496008,5.24336694 50.4354839,5.24336694 Z" id="Shape" fill="#FF4F19"></path>
                <rect id="Rectangle-path" fill="#E3001E" x="23.9354839" y="34.3078831" width="5.12903226" height="4.27419355"></rect>
                <path d="M49.6040464,31.7433669 L49.6040464,34.3078831 C49.6040464,34.7799677 49.2212923,35.1627218 48.7492077,35.1627218 L4.29759476,35.1627218 C3.82551008,35.1627218 3.44275605,34.7799677 3.44275605,34.3078831 L3.44275605,31.7433669 L8.5483871,29.1788508 L29.0645161,30.0336895 L46.1612903,29.1788508 L49.6040464,31.7433669 Z" id="Shape" fill="#E6BE8A"></path>
                <path d="M4.64209476,32.9236855 C11.666625,30.023752 19.610748,30.2002762 26.5234012,33.4530444 L26.5234012,2.67885081 C19.3828266,-0.681199597 11.141754,-0.758669355 3.95042339,2.44633468 C3.64097177,2.58428427 3.44275605,2.89747581 3.44275605,3.2363125 L3.44275605,32.1421492 C3.44275605,32.7596633 4.07138306,33.1593004 4.64209476,32.9236855 Z" id="Shape" fill="#FFEBB7"></path>
                <path d="M26.5234012,33.4530444 C33.4360544,30.2001694 41.3801774,30.023752 48.4047077,32.9236855 C48.9754194,33.1593004 49.6040464,32.7596633 49.6040464,32.1421492 L49.6040464,3.2363125 C49.6040464,2.89747581 49.4058306,2.58428427 49.096379,2.44633468 C41.9050484,-0.758669355 33.663869,-0.681199597 26.5234012,2.67885081 L26.5234012,33.4530444 Z" id="Shape" fill="#FFD788"></path>
                <path d="M29.942756,27.8703065 C29.5788085,27.8703065 29.2414677,27.6365081 29.1271331,27.2713851 C28.9860847,26.8209919 29.2364456,26.341 29.6864113,26.1995242 C30.5512944,25.9277923 31.4411815,25.6957036 32.3319234,25.5091351 C32.7927883,25.4123246 33.2469214,25.7073508 33.3437319,26.1703528 C33.4405423,26.6323931 33.1450887,27.0853508 32.6825141,27.1821613 C31.8460544,27.3575101 31.0104496,27.5758145 30.198994,27.8307702 C30.1138306,27.857377 30.0270645,27.8703065 29.942756,27.8703065 Z" id="Shape" fill="#868491"></path>
                <path d="M46.1846915,27.8703065 C46.1003831,27.8703065 46.0135101,27.857377 45.9284536,27.8306633 C42.7028266,26.8176794 39.3593387,26.4382379 35.9942661,26.7062298 C35.5167319,26.7404234 35.1118589,26.3919698 35.0743528,25.9214879 C35.0375948,25.4506855 35.3882923,25.0390806 35.8590948,25.0015746 C39.450379,24.719371 43.0067218,25.1209315 46.4410363,26.1995242 C46.891002,26.341 47.1414698,26.8209919 47.0003145,27.2713851 C46.885873,27.6366149 46.5486391,27.8703065 46.1846915,27.8703065 Z" id="Shape" fill="#868491"></path>
                <path d="M46.1846915,24.4409073 C46.1003831,24.4409073 46.0135101,24.4279778 45.9284536,24.4012641 C40.782752,22.7850847 35.3448024,22.7850847 30.1991008,24.4012641 C29.7466774,24.5427399 29.2674335,24.2919516 29.1272399,23.8419859 C28.9861915,23.3915927 29.2365524,22.9116008 29.6865181,22.770125 C35.1678508,21.0488004 40.9597036,21.0488004 46.4410363,22.770125 C46.891002,22.9116008 47.1414698,23.3915927 47.0003145,23.8419859 C46.885873,24.2072157 46.5486391,24.4409073 46.1846915,24.4409073 Z" id="Shape" fill="#868491"></path>
                <path d="M29.942756,21.0315968 C29.5788085,21.0315968 29.2414677,20.7977984 29.1271331,20.4326754 C28.9860847,19.9822823 29.2364456,19.5022903 29.6864113,19.3608145 C32.832752,18.3732621 36.0977016,17.9528952 39.3868004,18.1074073 C39.8576028,18.1299536 40.2224052,18.5302319 40.1998589,19.0018891 C40.1781673,19.4744012 39.7840867,19.8350363 39.3049496,19.815375 C36.2186613,19.6697319 33.1524617,20.0645605 30.1988871,20.9920605 C30.1138306,21.0186673 30.0270645,21.0315968 29.942756,21.0315968 Z" id="Shape" fill="#868491"></path>
                <path d="M46.1846915,21.0315968 C46.1003831,21.0315968 46.0135101,21.0186673 45.9284536,20.9919536 C44.8482581,20.6525827 43.7337621,20.3804234 42.6159536,20.1834899 C42.1509214,20.1012117 41.8404012,19.6579778 41.9231069,19.1929456 C42.0049577,18.7283407 42.4490464,18.4173931 42.9132238,18.4996714 C44.1036935,18.7096411 45.2898891,18.9993246 46.4411431,19.3608145 C46.8911089,19.5022903 47.1415766,19.9822823 47.0004214,20.4326754 C46.885873,20.7979052 46.5486391,21.0315968 46.1846915,21.0315968 Z" id="Shape" fill="#868491"></path>
                <path d="M46.1846915,17.6021976 C46.1003831,17.6021976 46.0135101,17.5892681 45.9284536,17.5625544 C40.782752,15.946375 35.3448024,15.946375 30.1991008,17.5625544 C29.7466774,17.7031754 29.2674335,17.4528145 29.1272399,17.0032762 C28.9861915,16.5528831 29.2365524,16.0728911 29.6865181,15.9314153 C35.1678508,14.2100907 40.9597036,14.2100907 46.4410363,15.9314153 C46.891002,16.0728911 47.1414698,16.5528831 47.0003145,17.0032762 C46.885873,17.368506 46.5486391,17.6021976 46.1846915,17.6021976 Z" id="Shape" fill="#868491"></path>
                <path d="M29.942756,14.1829496 C29.5788085,14.1829496 29.2414677,13.9491512 29.1271331,13.5840282 C28.9860847,13.1336351 29.2364456,12.6536431 29.6864113,12.5121673 C31.4061331,11.9720161 33.1859073,11.5972762 34.9781835,11.3985262 C35.4540081,11.3413589 35.8706351,11.6853246 35.9223528,12.1535625 C35.9740706,12.6227621 35.6359819,13.0455867 35.1668891,13.0973044 C33.4847802,13.2843004 31.8126089,13.6361734 30.198994,14.1433065 C30.1138306,14.1699133 30.0270645,14.1829496 29.942756,14.1829496 Z" id="Shape" fill="#868491"></path>
                <path d="M46.1846915,14.1829496 C46.1003831,14.1829496 46.0135101,14.1700202 45.9284536,14.1433065 C43.5150302,13.3848508 41.0089637,12.9799778 38.4786411,12.9403347 C38.006129,12.9328548 37.6296794,12.5442238 37.6371593,12.0721391 C37.6446391,11.6004819 38.0570988,11.2030887 38.5053548,11.2306573 C41.200127,11.2731855 43.8706431,11.7044516 46.4410363,12.5120605 C46.891002,12.6535363 47.1414698,13.1335282 47.0003145,13.5839214 C46.8850181,13.9491512 46.5486391,14.1829496 46.1846915,14.1829496 Z" id="Shape" fill="#868491"></path>
                <path d="M29.942756,10.7735323 C29.5788085,10.7735323 29.2414677,10.5397339 29.1271331,10.1746109 C28.9860847,9.72421774 29.2364456,9.24422581 29.6864113,9.10275 C33.4112641,7.93279637 37.266373,7.55709476 41.1499052,7.98910887 C41.6191048,8.04082661 41.9571935,8.46365121 41.905369,8.93285081 C41.8536512,9.40162298 41.4395887,9.74890121 40.9611996,9.6878871 C37.3180907,9.28386895 33.6959254,9.6348871 30.1988871,10.7338891 C30.1138306,10.7606028 30.0270645,10.7735323 29.942756,10.7735323 Z" id="Shape" fill="#868491"></path>
                <path d="M46.1846915,10.7735323 C46.1003831,10.7735323 46.0135101,10.7606028 45.9284536,10.7338891 C45.3858448,10.5631351 44.8290242,10.4083024 44.2722036,10.2727036 C43.8139032,10.1608266 43.5325544,9.69835887 43.6444315,9.23963105 C43.7563085,8.78090323 44.2154637,8.50040927 44.6779315,8.61143145 C45.2698004,8.75589919 45.8625242,8.92109677 46.4410363,9.10275 C46.891002,9.24422581 47.1414698,9.72421774 47.0003145,10.1746109 C46.885873,10.5398407 46.5486391,10.7735323 46.1846915,10.7735323 Z" id="Shape" fill="#868491"></path>
                <path d="M29.942756,7.34423992 C29.5788085,7.34423992 29.2414677,7.11012097 29.1271331,6.74489113 C28.9860847,6.29407056 29.2364456,5.81450605 29.6872661,5.67345766 C30.2749677,5.48891935 30.8676915,5.32404234 31.4495161,5.18256653 C31.9053589,5.0702621 32.3702843,5.35246573 32.4821613,5.81119355 C32.5940383,6.26992137 32.3118347,6.73238911 31.8535343,6.84383871 C31.3076129,6.97655242 30.7507923,7.13138508 30.1981391,7.30459677 C30.1129758,7.33120363 30.0270645,7.34423992 29.942756,7.34423992 Z" id="Shape" fill="#868491"></path>
                <path d="M46.1846915,7.34423992 C46.1003831,7.34423992 46.0135101,7.33131048 45.9284536,7.30459677 C42.4306673,6.20559476 38.8101048,5.85500403 35.1661411,6.25859476 C34.693629,6.31618952 34.2736895,5.97179637 34.2219718,5.50355847 C34.170254,5.03435887 34.5083427,4.61153427 34.9774355,4.55981653 C38.8592581,4.12780242 42.7152218,4.50350403 46.4409294,5.67345766 C46.8908952,5.81493347 47.1413629,6.2949254 47.0002077,6.74531855 C46.885873,7.11044153 46.5486391,7.34423992 46.1846915,7.34423992 Z" id="Shape" fill="#868491"></path>
                <path d="M6.86211089,27.8703065 C6.49816331,27.8703065 6.16092944,27.6365081 6.0464879,27.2713851 C5.90543952,26.8209919 6.1558004,26.341 6.60576613,26.1995242 C7.47064919,25.9277923 8.36053629,25.6957036 9.25127823,25.5091351 C9.71289113,25.4123246 10.1662762,25.7073508 10.2630867,26.1703528 C10.3598972,26.6323931 10.0644435,27.0853508 9.60186895,27.1821613 C8.76540927,27.3575101 7.92980444,27.5758145 7.11834879,27.8307702 C7.03318548,27.857377 6.94641935,27.8703065 6.86211089,27.8703065 Z" id="Shape" fill="#B4B6BC"></path>
                <path d="M23.1040464,27.8703065 C23.0197379,27.8703065 22.9328649,27.857377 22.8478085,27.8306633 C19.6229294,26.8176794 16.2786935,26.4382379 12.913621,26.7062298 C12.4294617,26.7404234 12.0312137,26.3919698 11.9937077,25.9214879 C11.9569496,25.4506855 12.3076472,25.0390806 12.7784496,25.0015746 C16.3697339,24.719371 19.9252218,25.1209315 23.3603911,26.1995242 C23.8103569,26.341 24.0608246,26.8209919 23.9196694,27.2713851 C23.8052278,27.6366149 23.467994,27.8703065 23.1040464,27.8703065 Z" id="Shape" fill="#B4B6BC"></path>
                <path d="M23.1040464,24.4409073 C23.0197379,24.4409073 22.9328649,24.4279778 22.8478085,24.4012641 C17.7021069,22.7850847 12.2641573,22.7850847 7.11845565,24.4012641 C6.66432258,24.5427399 6.18678831,24.2919516 6.04659476,23.8419859 C5.90554637,23.3915927 6.15590726,22.9116008 6.60587298,22.770125 C12.0872056,21.0488004 17.8790585,21.0488004 23.3603911,22.770125 C23.8103569,22.9116008 24.0608246,23.3915927 23.9196694,23.8419859 C23.8052278,24.2072157 23.467994,24.4409073 23.1040464,24.4409073 Z" id="Shape" fill="#B4B6BC"></path>
                <path d="M6.86211089,21.0315968 C6.49816331,21.0315968 6.16092944,20.7977984 6.0464879,20.4326754 C5.90543952,19.9822823 6.1558004,19.5022903 6.60576613,19.3608145 C9.75210685,18.3732621 13.0195141,17.9528952 16.3061552,18.1074073 C16.7769577,18.1299536 17.1417601,18.5302319 17.1192137,19.0018891 C17.0966673,19.4744012 16.6984194,19.8350363 16.2243044,19.815375 C13.1371613,19.6697319 10.0718165,20.0645605 7.11824194,20.9920605 C7.03318548,21.0186673 6.94641935,21.0315968 6.86211089,21.0315968 Z" id="Shape" fill="#B4B6BC"></path>
                <path d="M23.1040464,21.0315968 C23.0197379,21.0315968 22.9328649,21.0186673 22.8478085,20.9919536 C21.7676129,20.6525827 20.6531169,20.3804234 19.5353085,20.1834899 C19.0702762,20.1012117 18.759756,19.6579778 18.8424617,19.1929456 C18.9234577,18.7283407 19.369256,18.4173931 19.8325786,18.4996714 C21.0230484,18.7096411 22.209244,18.9993246 23.360498,19.3608145 C23.8104637,19.5022903 24.0609315,19.9822823 23.9197762,20.4326754 C23.8052278,20.7979052 23.467994,21.0315968 23.1040464,21.0315968 Z" id="Shape" fill="#B4B6BC"></path>
                <path d="M6.86211089,17.6021976 C6.49816331,17.6021976 6.16092944,17.3683992 6.0464879,17.0032762 C5.90543952,16.5528831 6.1558004,16.0728911 6.60576613,15.9314153 C11.4652036,14.4058488 16.650121,14.2359496 21.5963246,15.4405242 C22.0554798,15.5524012 22.3368286,16.014869 22.2249516,16.4735968 C22.1130746,16.9318972 21.6481492,17.2111089 21.1923065,17.1017964 C16.5474335,15.9693488 11.6805161,16.1300585 7.11834879,17.5626613 C7.03318548,17.5892681 6.94641935,17.6021976 6.86211089,17.6021976 Z" id="Shape" fill="#B4B6BC"></path>
                <path d="M6.86211089,14.1829496 C6.49816331,14.1829496 6.16092944,13.9491512 6.0464879,13.5840282 C5.90543952,13.1336351 6.1558004,12.6536431 6.60576613,12.5121673 C8.3254879,11.9720161 10.1052621,11.5972762 11.8975383,11.3985262 C12.3691956,11.3413589 12.7899899,11.6853246 12.8417077,12.1535625 C12.8934254,12.6227621 12.5553367,13.0455867 12.086244,13.0973044 C10.4041351,13.2843004 8.73196371,13.6361734 7.11834879,14.1433065 C7.03318548,14.1699133 6.94641935,14.1829496 6.86211089,14.1829496 Z" id="Shape" fill="#B4B6BC"></path>
                <path d="M21.3952238,13.7065907 C21.3284395,13.7065907 21.2599456,13.6986835 21.1924133,13.6823347 C19.2974496,13.2207218 17.3473488,12.9706815 15.397996,12.9402278 C14.9254839,12.932748 14.5490343,12.5441169 14.5565141,12.0720323 C14.563994,11.600375 14.9329637,11.2029819 15.4247097,11.2305504 C17.5016472,11.2635685 19.5778367,11.5294234 21.5964315,12.0210625 C22.0555867,12.1329395 22.3369355,12.5954073 22.2250585,13.0541351 C22.129744,13.4449032 21.7800081,13.7065907 21.3952238,13.7065907 Z" id="Shape" fill="#B4B6BC"></path>
                <path d="M6.86211089,10.7735323 C6.49816331,10.7735323 6.16092944,10.5397339 6.0464879,10.1746109 C5.90543952,9.72421774 6.1558004,9.24422581 6.60576613,9.10275 C10.3314738,7.93279637 14.1865827,7.55709476 18.0692601,7.98910887 C18.5384597,8.04082661 18.8765484,8.46365121 18.8247238,8.93285081 C18.773006,9.40162298 18.3555242,9.74890121 17.8805544,9.6878871 C14.2374456,9.28386895 10.6152802,9.6348871 7.11824194,10.7338891 C7.03318548,10.7606028 6.94641935,10.7735323 6.86211089,10.7735323 Z" id="Shape" fill="#B4B6BC"></path>
                <path d="M6.86211089,7.34423992 C6.49816331,7.34423992 6.16092944,7.11012097 6.0464879,6.74489113 C5.90543952,6.29407056 6.1558004,5.81450605 6.60662097,5.67345766 C7.19432258,5.48891935 7.78704637,5.32404234 8.36887097,5.18256653 C8.82385887,5.0702621 9.28963911,5.35246573 9.40151613,5.81119355 C9.51339315,6.26992137 9.23118952,6.73238911 8.77288911,6.84383871 C8.22696774,6.97655242 7.67014718,7.13138508 7.11749395,7.30459677 C7.03233065,7.33120363 6.94641935,7.34423992 6.86211089,7.34423992 Z" id="Shape" fill="#B4B6BC"></path>
                <path d="M21.3952238,6.86756048 C21.3284395,6.86756048 21.2599456,6.85965323 21.1924133,6.84330444 C18.2046452,6.11572984 15.1409032,5.91997177 12.085496,6.2584879 C11.6162964,6.31608266 11.1930444,5.97254435 11.1413266,5.50345161 C11.0896089,5.03425202 11.4276976,4.61142742 11.8967903,4.55970968 C15.1499859,4.19736492 18.4149355,4.4077621 21.5963246,5.18203226 C22.0554798,5.29390927 22.3368286,5.75637702 22.2249516,6.21510484 C22.129744,6.60576613 21.7800081,6.86756048 21.3952238,6.86756048 Z" id="Shape" fill="#B4B6BC"></path>
                <path d="M21.394369,15.9282097 C21.3944758,16.269504 21.774879,16.4731694 22.0588992,16.2838226 L23.9588851,15.0171653 L25.858871,16.2838226 C26.1428911,16.4731694 26.5234012,16.2696109 26.5234012,15.9282097 L26.5234012,2.74980242 C26.5234012,2.41214113 26.3264677,2.10044556 26.017871,1.96324395 C24.6867802,1.37126815 23.3188246,0.896512097 21.9293911,0.529465726 C21.6583004,0.457872984 21.3919113,0.667522177 21.3920181,0.947909274 L21.394369,15.9282097 Z" id="Shape" fill="#5D647F"></path>
            </g>
        </g>
    </g>
</svg>