<?xml version="1.0" encoding="UTF-8"?>
<svg width="73px" height="73px" viewBox="0 0 73 73" version="1.1" xmlns="http://www.w3.org/2000/svg" xmlns:xlink="http://www.w3.org/1999/xlink">
    <!-- Generator: Sketch 51.3 (57544) - http://www.bohemiancoding.com/sketch -->
    <title>accessibility/the-why</title>
    <desc>Created with Sketch.</desc>
    <defs></defs>
    <g id="accessibility/the-why" stroke="none" stroke-width="1" fill="none" fill-rule="evenodd">
        <g id="container" transform="translate(2.000000, 2.000000)" fill-rule="nonzero">
            <rect id="mask" stroke="#2E4E5F" stroke-width="2" fill="#FFFFFF" x="-1" y="-1" width="71" height="71" rx="14"></rect>
            <g id="dna" transform="translate(8.000000, 8.000000)">
                <path d="M28.8250937,36.901427 C28.6210379,36.901427 28.4165789,36.8235954 28.2605126,36.6675291 L16.1337128,24.5407294 C15.8219833,24.2289999 15.8219833,23.7232965 16.1337128,23.4111637 C16.4458455,23.0994343 16.9515489,23.0994343 17.2632784,23.4111637 L29.3900781,35.5379635 C29.7018076,35.8496929 29.7018076,36.3557996 29.3900781,36.6675291 C29.2340118,36.8235954 29.0295527,36.901427 28.8250937,36.901427 Z" id="Shape" fill="#8AC129"></path>
                <path d="M33.9930275,34.8435287 C33.7885685,34.8435287 33.5841095,34.7652939 33.4284464,34.6096309 L18.2234696,19.404654 C17.9113369,19.0929245 17.9113369,18.5868178 18.2234696,18.2750884 C18.535199,17.9629557 19.0413057,17.9629557 19.3530352,18.2750884 L34.558012,33.479662 C34.8697414,33.7917946 34.8697414,34.2974981 34.558012,34.6096309 C34.4019456,34.7652939 34.1974866,34.8435287 33.9930275,34.8435287 Z" id="Shape" fill="#FF4C4C"></path>
                <path d="M36.0513291,29.6755949 C35.84687,29.6755949 35.6424111,29.5977633 35.4863447,29.441697 L23.3595449,17.3148972 C23.0478155,17.0031678 23.0478155,16.4970611 23.3595449,16.1853317 C23.6716777,15.8731989 24.177381,15.8731989 24.4895138,16.1853317 L36.6159102,28.3117281 C36.928043,28.6238609 36.928043,29.1295642 36.6159102,29.441697 C36.4598438,29.5977633 36.2553849,29.6755949 36.0513291,29.6755949 Z" id="Shape" fill="#8AC129"></path>
                <path d="M48.2236986,17.043495 C48.0192395,17.043495 47.8151838,16.9656635 47.6591174,16.8095971 L36.1110134,5.26189628 C35.7992839,4.94976351 35.7992839,4.44406017 36.1110134,4.13233074 C36.4231461,3.82019797 36.9288495,3.82019797 37.2409822,4.13233074 L48.7886831,15.6800315 C49.1008157,15.9921642 49.1008157,16.4978677 48.7886831,16.8095971 C48.6326167,16.9656635 48.4281576,17.043495 48.2236986,17.043495 Z" id="Shape" fill="#FF4C4C"></path>
                <path d="M16.1933971,49.0741997 C15.9889381,49.0741997 15.784479,48.9963682 15.6284126,48.8403019 L4.08030865,37.2921977 C3.76857913,36.9804683 3.76857913,36.474765 4.08030865,36.1626322 C4.39244132,35.8509028 4.89814466,35.8509028 5.21027744,36.1626322 L16.7583815,47.7107363 C17.0701109,48.0224657 17.0701109,48.5285724 16.7583815,48.8403019 C16.6023151,48.9963682 16.3978562,49.0741997 16.1933971,49.0741997 Z" id="Shape" fill="#FF4C4C"></path>
                <path d="M14.692821,33.5841095 C9.77451278,32.6541637 4.65537482,32.5061628 0.51578523,36.6453492 C-0.171793926,37.3333316 -0.172197275,38.4483793 0.51578523,39.1363618 C1.20376763,39.8243442 2.31881547,39.823941 3.00679788,39.1363618 C6.36323282,35.7799269 10.635499,36.2723223 15.5546139,37.3543017 C15.2759527,36.086817 14.9694658,34.8241716 14.692821,33.5841095 Z" id="Shape" fill="#FFBF14"></path>
                <path d="M14.692821,33.5841095 C13.9600754,33.4453839 13.2228937,33.3244022 12.4849055,33.2320529 C12.7518717,34.4519514 13.0442441,35.6577354 13.3253249,36.9074761 C14.0524248,37.0345069 14.7960587,37.1873471 15.5546139,37.3543017 C15.2743396,36.0799614 14.9702723,34.8278011 14.692821,33.5841095 Z" id="Shape" fill="#E0A812"></path>
                <path d="M39.084743,3.05841672 C39.7727254,2.37043432 39.7727254,1.25538648 39.084743,0.567404078 C38.3971638,-0.120578428 37.2817127,-0.120175078 36.5941336,0.567404078 C26.7716314,10.3899062 41.0523083,25.0649832 33.0328363,33.0844552 C29.2319954,36.8856993 24.2564224,35.7508913 18.4964848,34.412834 C18.7908736,35.6783023 19.0864722,36.9530458 19.3252093,38.2164978 C24.8339082,39.4444618 30.8132259,40.2860909 35.523849,35.5754678 C45.3709508,25.7279629 31.0680939,11.0750658 39.084743,3.05841672 Z" id="Shape" fill="#FFBF14"></path>
                <path d="M19.3252093,38.2164978 C19.9841562,38.3632888 20.6495554,38.5048374 21.3185841,38.631465 C21.0931549,37.3712392 20.8100578,36.1235148 20.5205083,34.8745807 C19.8575287,34.7289994 19.182451,34.5721265 18.4960816,34.412834 C18.7904704,35.6774958 19.0848591,36.9445771 19.3252093,38.2164978 Z" id="Shape" fill="#E0A812"></path>
                <path d="M34.3612152,18.5477004 C34.067633,17.2870715 33.7688081,15.9945839 33.5324907,14.7444399 C28.0237918,13.5164759 22.0444741,12.6748468 17.333851,17.3854699 C7.53231909,27.1874051 21.7621836,41.9132945 13.772957,49.902521 C13.0849746,50.5901001 13.0849746,51.7055512 13.772957,52.3931304 C14.4609395,53.0811128 15.5759873,53.0811128 16.2635664,52.3931304 C26.1481725,42.5089275 11.7630482,27.9378948 19.8248637,19.8764825 C23.6261078,16.0752384 28.6012776,17.2100464 34.3612152,18.5477004 Z" id="Shape" fill="#45748C"></path>
                <path d="M33.5324907,14.7444399 C32.8578162,14.5940193 32.1766893,14.4496479 31.4911265,14.3201976 C31.7076837,15.5771971 31.985135,16.8245182 32.2734747,18.0722425 C32.9570211,18.2218565 33.6534723,18.3831654 34.3612152,18.5477004 C34.067633,17.2870715 33.7688081,15.9945839 33.5324907,14.7444399 Z" id="Shape" fill="#3A6175"></path>
                <path d="M52.3419148,13.8245759 C51.6539324,13.1365935 50.5388845,13.1365935 49.8509021,13.8245759 C46.4944672,17.1810108 42.222201,16.6886154 37.3026829,15.606636 C37.584167,16.885009 37.8874277,18.1319267 38.164879,19.3768282 C43.6058281,20.4055757 48.4289641,20.2281359 52.3419148,16.3151853 C53.0294939,15.6276061 53.0294939,14.512155 52.3419148,13.8245759 Z" id="Shape" fill="#45748C"></path>
                <path d="M39.2549238,16.0038591 C38.6165439,15.8873135 37.9652592,15.7522172 37.3026829,15.606636 C37.584167,16.885009 37.8874277,18.1319267 38.164879,19.3768282 C38.8068884,19.4982132 39.452124,19.6062901 40.0985693,19.6929936 C39.8368457,18.499711 39.5323751,17.2402919 39.2549238,16.0038591 Z" id="Shape" fill="#3A6175"></path>
            </g>
        </g>
    </g>
</svg>