<?xml version="1.0" encoding="UTF-8"?>
<svg width="24px" height="24px" viewBox="0 0 24 24" version="1.1" xmlns="http://www.w3.org/2000/svg" xmlns:xlink="http://www.w3.org/1999/xlink">
    <!-- Generator: Sketch 51.3 (57544) - http://www.bohemiancoding.com/sketch -->
    <title>social/blogger</title>
    <desc>Created with Sketch.</desc>
    <defs></defs>
    <g id="social/blogger" stroke="none" stroke-width="1" fill="none" fill-rule="evenodd">
        <circle id="Oval" fill="#F57D01" fill-rule="nonzero" cx="12" cy="12" r="12"></circle>
        <path d="M9.22026383,18.4307646 C9.64980257,18.5093069 14.9456414,18.5266403 15.4883877,18.4535148 C16.4314229,18.3262222 17.1718762,17.9459695 17.8652048,17.2374645 C18.3673264,16.7234191 18.6804076,16.1692902 18.8867811,15.4347849 C19.0292385,14.9239896 19.0173219,11.289922 18.959364,11.0315451 L18.9588223,11.0320868 C18.7394488,10.0527465 17.6788727,10.6415423 17.0380854,10.2715814 C16.7450458,10.0998718 16.6665046,9.9140788 16.6632547,9.41520024 C16.6572964,7.64664593 15.1758482,6.07688472 13.5757758,5.58938124 C13.4040686,5.53738086 13.0216545,5.51950574 11.7389966,5.5054223 C9.72509372,5.48267214 9.27822177,5.52275576 8.59355978,5.79575771 C7.33148507,6.29463627 6.42528292,7.35739387 6.09486851,8.71590357 C6.03420226,8.9710304 6.01957736,9.38053332 6.00495246,11.7313835 C5.98761925,14.6775295 6.00820244,15.1097826 6.19074286,15.6931618 C6.64303144,17.1334637 7.92893932,18.198388 9.22026383,18.4307646 Z M14.7815016,13.807823 C15.1254804,14.2535561 15.0516949,15.0368989 14.6418929,15.361269 L14.6418929,15.3605334 L14.2182894,15.4554172 C12.9798595,15.460566 9.69719734,15.5767802 9.42912742,15.4120208 C9.22688061,15.2899223 9.0363121,14.9508415 9.00552387,14.6478019 C8.97420481,14.3602084 9.07930945,13.9659626 9.23855891,13.7651621 C9.44080572,13.5128742 9.52839292,13.5055189 12.0057836,13.5011057 C14.5537749,13.495957 14.5399733,13.495957 14.7815016,13.807823 Z M9.19630241,8.8269647 L9.19687491,8.82548186 C9.43618039,8.51186266 9.50373552,8.5 11.0002535,8.5 C12.3467762,8.5 12.3925763,8.5044485 12.5889442,8.63493781 C12.8740497,8.82103337 13,9.08423624 13,9.50536084 C13,9.88274186 12.8837823,10.1489104 12.6227217,10.3639212 C12.3805538,10.561138 9.68350088,10.5010833 9.52205556,10.4477013 C9.01195704,10.2616057 8.82188666,9.3155582 9.19630241,8.8269647 Z" id="Shape" fill="#FFFFFF" fill-rule="nonzero"></path>
    </g>
</svg>