<?xml version="1.0" encoding="UTF-8"?>
<svg width="24px" height="24px" viewBox="0 0 24 24" version="1.1" xmlns="http://www.w3.org/2000/svg" xmlns:xlink="http://www.w3.org/1999/xlink">
    <!-- Generator: Sketch 51.3 (57544) - http://www.bohemiancoding.com/sketch -->
    <title>social/copy</title>
    <desc>Created with Sketch.</desc>
    <defs></defs>
    <g id="social/copy" stroke="none" stroke-width="1" fill="none" fill-rule="evenodd">
        <circle id="Oval" fill="#E3E3E3" fill-rule="nonzero" cx="12" cy="12" r="12"></circle>
        <g id="copy-(1)" transform="translate(6.000000, 5.000000)" fill="#000000" fill-rule="nonzero">
            <path d="M4.77840213,10.6489362 C3.49888189,10.6489362 2.45744681,9.60750108 2.45744681,8.32798085 L2.45744681,2.73052979 L1.50180639,2.73052979 C0.673358037,2.73052979 0,3.40378782 0,4.23223617 L0,11.6045766 C0,12.4330249 0.673358037,13.106383 1.50180639,13.106383 L8.32798085,13.106383 C9.1564292,13.106383 9.82978723,12.4330249 9.82978723,11.6045766 L9.82978723,10.6489362 L4.77840213,10.6489362 Z" id="Shape"></path>
            <path d="M12.0141511,1.50180639 C12.0141511,0.672258099 11.341893,0 10.5124447,0 L4.77840213,0 C3.94885384,0 3.27659574,0.672258099 3.27659574,1.50180639 L3.27659574,8.32798085 C3.27659574,9.15752913 3.94885384,9.82978723 4.77840213,9.82978723 L10.5124447,9.82978723 C11.341893,9.82978723 12.0141511,9.15752913 12.0141511,8.32798085 L12.0141511,1.50180639 Z" id="Shape"></path>
        </g>
    </g>
</svg>