<?xml version="1.0" encoding="UTF-8"?>
<svg width="24px" height="24px" viewBox="0 0 24 24" version="1.1" xmlns="http://www.w3.org/2000/svg" xmlns:xlink="http://www.w3.org/1999/xlink">
    <!-- Generator: Sketch 51.3 (57544) - http://www.bohemiancoding.com/sketch -->
    <title>social/email</title>
    <desc>Created with Sketch.</desc>
    <defs></defs>
    <g id="social/email" stroke="none" stroke-width="1" fill="none" fill-rule="evenodd">
        <circle id="Oval" fill="#000000" fill-rule="nonzero" cx="12" cy="12" r="12"></circle>
        <g id="mail" transform="translate(6.000000, 7.000000)" fill="#FFFFFF" fill-rule="nonzero">
            <path d="M0.2505,0.73021875 C1.89745312,2.12500781 4.78734375,4.57886719 5.63671875,5.34398438 C5.75074219,5.44725 5.87303906,5.49975 6,5.49975 C6.12670312,5.49975 6.24878906,5.44774219 6.36255469,5.34496875 C7.21265625,4.57910156 10.1025469,2.12500781 11.7495234,0.73021875 C11.8520625,0.643546875 11.8676953,0.491203125 11.7846797,0.385242188 C11.5927734,0.140390625 11.3066484,0 10.9999922,0 L1.00000781,0 C0.693375,0 0.407226563,0.140390625 0.21534375,0.385265625 C0.132328125,0.491203125 0.147960938,0.643546875 0.2505,0.73021875 Z" id="Shape"></path>
            <path d="M11.8549922,1.48607813 C11.766375,1.44482813 11.662125,1.45921875 11.5883906,1.52221875 C9.76195312,3.07054687 7.43090625,5.0551875 6.6975,5.71605469 C6.28586719,6.08763281 5.71457813,6.08763281 5.30198437,5.7155625 C4.52025,5.01121875 1.9025625,2.785875 0.411609375,1.52219531 C0.337382812,1.45919531 0.232898437,1.44529687 0.145007812,1.48605469 C0.0566484375,1.52709375 0,1.61547656 0,1.71288281 L0,7.99999219 C0,8.55152344 0.448476563,9 1.00000781,9 L11.0000156,9 C11.5515234,9 12,8.55152344 12,7.99999219 L12,1.71288281 C12,1.61547656 11.9433516,1.52685937 11.8549922,1.48607813 Z" id="Shape"></path>
        </g>
    </g>
</svg>