<?xml version="1.0" encoding="UTF-8"?>
<svg width="24px" height="24px" viewBox="0 0 24 24" version="1.1" xmlns="http://www.w3.org/2000/svg" xmlns:xlink="http://www.w3.org/1999/xlink">
    <!-- Generator: Sketch 51.3 (57544) - http://www.bohemiancoding.com/sketch -->
    <title>social/ok</title>
    <desc>Created with Sketch.</desc>
    <defs></defs>
    <g id="social/ok" stroke="none" stroke-width="1" fill="none" fill-rule="evenodd">
        <circle id="Oval" fill="#F7941F" fill-rule="nonzero" cx="12" cy="12" r="12"></circle>
        <g id="Group" transform="translate(7.000000, 5.000000)" fill="#FFFFFF" fill-rule="nonzero">
            <path d="M5.00005556,0 C3.03916667,0 1.4445,1.59466667 1.4445,3.55555556 C1.4445,5.51644444 3.03916667,7.11111111 5.00005556,7.11111111 C6.96094444,7.11111111 8.55561111,5.51644444 8.55561111,3.55555556 C8.55561111,1.59466667 6.96094444,0 5.00005556,0 Z M5.00005556,5.33333333 C4.01961111,5.33333333 3.22227778,4.536 3.22227778,3.55555556 C3.22227778,2.57511111 4.01961111,1.77777778 5.00005556,1.77777778 C5.9805,1.77777778 6.77783333,2.57511111 6.77783333,3.55555556 C6.77783333,4.536 5.9805,5.33333333 5.00005556,5.33333333 Z" id="Shape"></path>
            <path d="M9.71472222,7.01244444 C9.36716667,6.66488889 8.80538889,6.66488889 8.45783333,7.01244444 C6.55205556,8.91822222 3.44983333,8.91822222 1.54316667,7.01244444 C1.19561111,6.66488889 0.633833333,6.66488889 0.286277778,7.01244444 C-0.0612777778,7.36 -0.0612777778,7.92177778 0.286277778,8.27022222 C1.39205556,9.376 2.79383333,10.0062222 4.23916667,10.1706667 L1.70494444,12.7048889 C1.35738889,13.0524444 1.35738889,13.6142222 1.70494444,13.9617778 C2.0525,14.3093333 2.61427778,14.3093333 2.96183333,13.9617778 L5.00005556,11.9235556 L7.03827778,13.9617778 C7.21161111,14.1351111 7.43916667,14.2222222 7.66672222,14.2222222 C7.89427778,14.2222222 8.12183333,14.1351111 8.29516667,13.9617778 C8.64272222,13.6142222 8.64272222,13.0524444 8.29516667,12.7048889 L5.76094444,10.1706667 C7.20627778,10.0062222 8.60805556,9.376 9.71383333,8.27022222 C10.0613889,7.92266667 10.0613889,7.36 9.71472222,7.01244444 Z" id="Shape"></path>
        </g>
    </g>
</svg>