<?xml version="1.0" encoding="UTF-8"?>
<svg width="24px" height="24px" viewBox="0 0 24 24" version="1.1" xmlns="http://www.w3.org/2000/svg" xmlns:xlink="http://www.w3.org/1999/xlink">
    <!-- Generator: Sketch 51.3 (57544) - http://www.bohemiancoding.com/sketch -->
    <title>social/pinterest</title>
    <desc>Created with Sketch.</desc>
    <defs></defs>
    <g id="social/pinterest" stroke="none" stroke-width="1" fill="none" fill-rule="evenodd">
        <circle id="Oval" fill="#BD071C" fill-rule="nonzero" cx="12" cy="12" r="12"></circle>
        <path d="M12.2011586,5 C5.24168737,5.00061539 4.65152618,12.4505543 7.90695131,13.8893414 C8.24172471,14.0401125 8.19741646,13.8561102 8.48542005,12.754558 C8.50818956,12.6628646 8.49649711,12.583479 8.42265003,12.4979395 C6.74509069,10.5576076 8.09526134,6.56863491 11.961771,6.56863491 C17.557533,6.56863491 16.5119815,14.3115005 12.9353216,14.3115005 C12.013464,14.3115005 11.3266862,13.5877992 11.5439196,12.6924034 C11.8073075,11.6259286 12.3230063,10.4794528 12.3230063,9.71082786 C12.3230063,7.77357298 9.4368165,8.06096117 9.4368165,10.6277623 C9.4368165,11.421003 9.71743538,11.9563943 9.71743538,11.9563943 C9.71743538,11.9563943 8.78880844,15.7078256 8.6164986,16.4087574 C8.41834229,17.2136905 8.51557427,20.1804966 8.86204012,19.7263371 C8.95373357,19.6063356 10.0762091,18.0050849 10.3906745,16.8475321 C10.5051375,16.4259884 10.9746818,14.7151978 10.9746818,14.7151978 C11.2842241,15.273974 12.1765429,15.7416721 13.127324,15.7416721 C15.9556669,15.7416721 18,13.2554874 18,10.1705259 C17.9901537,7.21295062 15.4590453,5 12.2011586,5 Z" id="Shape" fill="#FFFFFF" fill-rule="nonzero"></path>
    </g>
</svg>