<?xml version="1.0" encoding="UTF-8"?>
<svg width="24px" height="24px" viewBox="0 0 24 24" version="1.1" xmlns="http://www.w3.org/2000/svg" xmlns:xlink="http://www.w3.org/1999/xlink">
    <!-- Generator: Sketch 51.3 (57544) - http://www.bohemiancoding.com/sketch -->
    <title>social/reddit</title>
    <desc>Created with Sketch.</desc>
    <defs></defs>
    <g id="social/reddit" stroke="none" stroke-width="1" fill="none" fill-rule="evenodd">
        <path d="M11.7258531,0.00832851359 C18.5684211,-0.145748988 24.1755928,5.44129555 23.9944477,12.3435512 C23.8292655,18.6357432 18.664893,24.0610758 11.8570272,23.9923655 C5.37050318,23.9271255 0.0353961828,18.6725275 0.0027761712,11.9958357 C0.0423366108,5.32886061 5.34690573,0.152689416 11.7258531,0.00832851359 Z" id="Shape" fill="#FF3F18" fill-rule="nonzero"></path>
        <path d="M21.4008097,10.7589358 C21.4778485,11.5820706 21.0919607,12.1928282 20.4562175,12.6640833 C20.3035281,12.7772123 20.2563331,12.8722961 20.2834008,13.0687102 C20.4825911,14.5414691 20.0536726,15.8323887 19.0854829,16.9428571 C17.8646617,18.3427415 16.2787739,19.1068826 14.49786,19.5087334 C13.2603817,19.7877386 12.0076345,19.8474263 10.7479468,19.6898785 C9.30780798,19.5087334 7.93429728,19.113129 6.69612493,18.3316368 C5.61133603,17.6473106 4.71810295,16.7797571 4.19895894,15.5797571 C3.83389242,14.735801 3.74019665,13.8585309 3.89080393,12.9541932 C3.90676692,12.8570272 3.88733372,12.8035859 3.79849624,12.7445922 C3.25991903,12.38369 2.86917293,11.9082707 2.76853673,11.2510121 C2.51243493,9.57906304 3.99907461,8.5615963 5.25112782,8.89334876 C5.61341816,8.98912666 5.94864083,9.18692886 6.29219202,9.34586466 C6.3761712,9.38473106 6.43238866,9.4097166 6.52400231,9.34725275 C7.52828224,8.6622325 8.63250434,8.21388086 9.82001157,7.96263736 C10.4821284,7.82244072 11.1497976,7.72666281 11.8271833,7.73152111 C11.9611336,7.73221515 11.9875072,7.6600347 12.0187392,7.56009254 C12.3796414,6.41006362 12.7433198,5.26142279 13.1056102,4.11208791 C13.2340081,3.70399075 13.4290341,3.58947368 13.8461538,3.67900521 C14.8504338,3.89346443 15.8547137,4.10445344 16.8576056,4.32446501 C16.9818392,4.35153268 17.0526316,4.32862927 17.1359167,4.23146327 C17.9875072,3.2410642 19.3089647,3.6935801 19.734413,4.45008676 C20.2660497,5.39676113 19.670561,6.57871602 18.5732794,6.75569693 C17.7751301,6.88409485 16.9846154,6.37813765 16.7722383,5.58415269 C16.7271255,5.41619433 16.6480046,5.36067091 16.4890688,5.3280509 C15.7145171,5.17050318 14.9434355,4.99907461 14.1716599,4.83319838 C14.1105842,4.82001157 14.0481203,4.81307114 13.9703875,4.80057837 C13.6469636,5.80694043 13.3270098,6.80358589 12.9980335,7.82660497 C13.1923655,7.84673222 13.361712,7.86477733 13.5310584,7.8821284 C15.0433777,8.03551186 16.4460382,8.50537883 17.7189127,9.34447658 C17.7994216,9.39722383 17.8473106,9.39444766 17.9257374,9.33059572 C18.6121457,8.76980914 19.377675,8.67056102 20.1779063,9.02313476 C20.9170619,9.351417 21.3251591,9.95176403 21.4008097,10.7589358 Z M14.9552342,13.9855408 C15.6263736,13.9848467 16.2232504,13.3900521 16.2204743,12.7251591 C16.2176981,12.0172354 15.6437247,11.4384037 14.9482938,11.4404858 C14.2729902,11.442568 13.6844419,12.0200116 13.6851359,12.6786582 C13.68583,13.3990746 14.2570272,13.9862348 14.9552342,13.9855408 Z M15.2550607,16.3966455 C15.4008097,16.2279931 15.3633314,16.0274147 15.2293811,15.8948525 C15.0433777,15.7102371 14.8032389,15.658878 14.6165414,15.7657606 C14.5415847,15.8087912 14.4728745,15.8622325 14.399306,15.9073453 C13.1132447,16.6888375 11.7695778,16.810295 10.3773279,16.2314633 C10.0920763,16.112782 9.82972817,15.9364951 9.5611336,15.7803355 C9.36124928,15.6637363 9.11000578,15.7046848 8.91844997,15.8983227 C8.79213418,16.0253326 8.7761712,16.243956 8.90248699,16.4230191 C8.9739734,16.5236553 9.07044534,16.6145749 9.17177559,16.6853673 C10.0421053,17.2961249 11.0207056,17.5508386 12.1526894,17.5640254 C12.275535,17.5550029 12.4768074,17.5438982 12.6780798,17.5251591 C13.3818392,17.4606131 14.0529786,17.2753036 14.660266,16.9102371 C14.8816657,16.7755928 15.0843262,16.5923655 15.2550607,16.3966455 Z M9.24117987,13.9855408 C9.87206478,13.9841527 10.4765761,13.3650665 10.4737999,12.7223829 C10.4710237,12.0255639 9.88594563,11.4404858 9.19329092,11.4411799 C8.50965876,11.4411799 7.92735685,12.0283401 7.92874494,12.7161365 C7.93082707,13.4115674 8.52562175,13.9869289 9.24117987,13.9855408 Z" id="Shape" fill="#FFFFFF" fill-rule="nonzero"></path>
    </g>
</svg>