<?xml version="1.0" encoding="UTF-8"?>
<svg width="24px" height="24px" viewBox="0 0 24 24" version="1.1" xmlns="http://www.w3.org/2000/svg" xmlns:xlink="http://www.w3.org/1999/xlink">
    <!-- Generator: Sketch 51.3 (57544) - http://www.bohemiancoding.com/sketch -->
    <title>social/tumblr</title>
    <desc>Created with Sketch.</desc>
    <defs></defs>
    <g id="social/tumblr" stroke="none" stroke-width="1" fill="none" fill-rule="evenodd">
        <circle id="Oval" fill="#35475C" fill-rule="nonzero" cx="12" cy="12" r="12"></circle>
        <path d="M16,17.9108571 L15.3285714,15.9537143 C15.0668571,16.076 14.5702857,16.1817143 14.204,16.1931429 L14.152,16.1931429 C13.0874286,16.1931429 12.8788571,15.4102857 12.8697143,14.8382857 L12.8697143,10.5697143 L15.6702857,10.5697143 L15.6702857,8.49371429 L12.88,8.49371429 L12.88,5 L10.8371429,5 C10.8034286,5 10.7445714,5.02914286 10.7365714,5.10228571 C10.6211429,6.17257143 10.1091429,8.04857143 8,8.79885714 L8,10.5697143 L9.40342857,10.5697143 L9.40342857,15.0508571 C9.40342857,16.568 10.5291429,18.7142857 13.488,18.7142857 L13.4817143,18.7131429 L13.5851429,18.7131429 C14.6057143,18.696 15.7468571,18.2742857 16,17.9108571 Z" id="Shape" fill="#FFFFFF" fill-rule="nonzero"></path>
    </g>
</svg>