<?xml version="1.0" encoding="UTF-8"?>
<svg width="24px" height="24px" viewBox="0 0 24 24" version="1.1" xmlns="http://www.w3.org/2000/svg" xmlns:xlink="http://www.w3.org/1999/xlink">
    <!-- Generator: Sketch 51.3 (57544) - http://www.bohemiancoding.com/sketch -->
    <title>social/twitter</title>
    <desc>Created with Sketch.</desc>
    <defs></defs>
    <g id="social/twitter" stroke="none" stroke-width="1" fill="none" fill-rule="evenodd">
        <g id="twitter-(1)" fill-rule="nonzero">
            <circle id="Oval" fill="#55ACEE" cx="11.9148319" cy="11.9146195" r="11.9146195"></circle>
            <path d="M19.2129558,8.56269027 C18.7023717,8.78909735 18.1531327,8.94223009 17.5771327,9.01061947 C18.1652389,8.65826549 18.6165664,8.10074336 18.8295929,7.43532743 C18.279292,7.76176991 17.6695221,7.99858407 17.0210973,8.12623009 C16.5015929,7.57295575 15.7614159,7.22718584 14.9418053,7.22718584 C13.3692743,7.22718584 12.0938761,8.50258407 12.0938761,10.075115 C12.0938761,10.2983363 12.1191504,10.5156106 12.168,10.724177 C9.80113274,10.6054513 7.70251327,9.47171681 6.29776991,7.74817699 C6.05267257,8.16870796 5.9120708,8.65826549 5.9120708,9.18010619 C5.9120708,10.1679292 6.41522124,11.04 7.17897345,11.5505841 C6.71235398,11.5359292 6.27292035,11.4078584 5.88913274,11.1939823 C5.88892035,11.2060885 5.88892035,11.2181947 5.88892035,11.2300885 C5.88892035,12.6099823 6.87100885,13.7609204 8.17359292,14.0223717 C7.93486726,14.0877876 7.68276106,14.1224071 7.42343363,14.1224071 C7.23950442,14.1224071 7.06130973,14.1047788 6.88757522,14.071646 C7.2499115,15.2028319 8.30145133,16.0262655 9.5479646,16.0494159 C8.57309735,16.8133805 7.34527434,17.268531 6.01061947,17.268531 C5.78123894,17.268531 5.5539823,17.2551504 5.33161062,17.2286018 C6.59129204,18.0369558 8.08863717,18.5082478 9.69684956,18.5082478 C14.9352212,18.5082478 17.7999292,14.168708 17.7999292,10.4049558 C17.7999292,10.2815575 17.7971681,10.1585841 17.791646,10.0366726 C18.348531,9.63525664 18.831292,9.13380531 19.2129558,8.56269027 Z" id="Shape" fill="#F1F2F2"></path>
        </g>
    </g>
</svg>