<?xml version="1.0" encoding="UTF-8"?>
<svg width="24px" height="24px" viewBox="0 0 24 24" version="1.1" xmlns="http://www.w3.org/2000/svg" xmlns:xlink="http://www.w3.org/1999/xlink">
    <!-- Generator: Sketch 51.3 (57544) - http://www.bohemiancoding.com/sketch -->
    <title>social/vk</title>
    <desc>Created with Sketch.</desc>
    <defs></defs>
    <g id="social/vk" stroke="none" stroke-width="1" fill="none" fill-rule="evenodd">
        <circle id="Oval" fill="#4681C2" fill-rule="nonzero" cx="12" cy="12" r="12"></circle>
        <path d="M17.2771262,13.1608571 C17.0184506,12.8458571 17.0924532,12.7057143 17.2771262,12.4241429 C17.2804597,12.4209286 19.4158669,9.57564286 19.6358745,8.61071429 L19.6372079,8.61007143 C19.746545,8.25842857 19.6372079,8 19.108523,8 L17.3591291,8 C16.9137803,8 16.7084399,8.22178571 16.5984361,8.46992857 C16.5984361,8.46992857 15.7077386,10.5257857 14.447695,11.8584286 C14.0410142,12.2435 13.8530077,12.3669286 13.631,12.3669286 C13.5216629,12.3669286 13.351657,12.2435 13.351657,11.8918571 L13.351657,8.61007143 C13.351657,8.18835714 13.226986,8 12.8583066,8 L10.1075447,8 C9.82820173,8 9.66219599,8.19671429 9.66219599,8.37992857 C9.66219599,8.77978571 10.2922178,8.87171429 10.3575534,9.99671429 L10.3575534,12.4376429 C10.3575534,12.9725 10.2568832,13.0708571 10.0335422,13.0708571 C9.43885492,13.0708571 7.99547163,11.0066429 7.14010869,8.64414286 C6.96743605,8.18578571 6.79876354,8.00064286 6.35008134,8.00064286 L4.60002077,8.00064286 C4.10067015,8.00064286 4,8.22242857 4,8.47057143 C4,8.909 4.59468725,11.0889286 6.76542905,13.9689286 C8.21214579,15.9347857 10.2495496,17 12.1029471,17 C13.2169857,17 13.3529904,16.7634286 13.3529904,16.3565 C13.3529904,14.4780714 13.2523203,14.3006429 13.8103396,14.3006429 C14.0690152,14.3006429 14.5143639,14.4240714 15.5543999,15.3722857 C16.7431077,16.4966429 16.9384478,17 17.6038042,17 L19.3531981,17 C19.851882,17 20.1045574,16.7634286 19.9592191,16.2967143 C19.6265409,15.3150714 17.3784631,13.2958571 17.2771262,13.1608571 Z" id="Shape" fill="#FFFFFF" fill-rule="nonzero"></path>
    </g>
</svg>