<?xml version="1.0" encoding="UTF-8"?>
<svg width="24px" height="24px" viewBox="0 0 24 24" version="1.1" xmlns="http://www.w3.org/2000/svg" xmlns:xlink="http://www.w3.org/1999/xlink">
    <!-- Generator: Sketch 51.3 (57544) - http://www.bohemiancoding.com/sketch -->
    <title>social/whatsapp</title>
    <desc>Created with Sketch.</desc>
    <defs></defs>
    <g id="social/whatsapp" stroke="none" stroke-width="1" fill="none" fill-rule="evenodd">
        <circle id="Oval" fill="#4CAF50" fill-rule="nonzero" cx="12" cy="12" r="12"></circle>
        <path d="M18.9575,16.457 C18.668,17.2745 17.519,17.9525 16.6025,18.1505 C15.9755,18.284 15.1565,18.3905 12.3995,17.2475 C8.873,15.7865 6.602,12.203 6.425,11.9705 C6.2555,11.738 5,10.073 5,8.351 C5,6.629 5.8745,5.7905 6.227,5.4305 C6.5165,5.135 6.995,5 7.454,5 C7.6025,5 7.736,5.0075 7.856,5.0135 C8.2085,5.0285 8.3855,5.0495 8.618,5.606 C8.9075,6.3035 9.6125,8.0255 9.6965,8.2025 C9.782,8.3795 9.8675,8.6195 9.7475,8.852 C9.635,9.092 9.536,9.1985 9.359,9.4025 C9.182,9.6065 9.014,9.7625 8.837,9.9815 C8.675,10.172 8.492,10.376 8.696,10.7285 C8.9,11.0735 9.605,12.224 10.643,13.148 C11.9825,14.3405 13.0685,14.7215 13.457,14.8835 C13.7465,15.0035 14.0915,14.975 14.303,14.75 C14.5715,14.4605 14.903,13.9805 15.2405,13.508 C15.4805,13.169 15.7835,13.127 16.1015,13.247 C16.4255,13.3595 18.14,14.207 18.4925,14.3825 C18.845,14.5595 19.0775,14.6435 19.163,14.792 C19.247,14.9405 19.247,15.638 18.9575,16.457 Z" id="Shape" fill="#FAFAFA" fill-rule="nonzero"></path>
    </g>
</svg>